<?xml version="1.0" encoding="utf-8" standalone="no"?>
<!DOCTYPE svg PUBLIC "-//W3C//DTD SVG 1.1//EN"
  "http://www.w3.org/Graphics/SVG/1.1/DTD/svg11.dtd">
<!-- Created with matplotlib (http://matplotlib.org/) -->
<svg height="536.19075pt" version="1.1" viewBox="0 0 770.84 536.19075" width="770.84pt" xmlns="http://www.w3.org/2000/svg" xmlns:xlink="http://www.w3.org/1999/xlink">
 <defs>
  <style type="text/css">
*{stroke-linecap:butt;stroke-linejoin:round;}
  </style>
 </defs>
 <g id="figure_1">
  <g id="patch_1">
   <path d="M 0 536.19075 
L 770.84 536.19075 
L 770.84 -0 
L 0 -0 
z
" style="fill:#ffffff;"/>
  </g>
  <g id="axes_1">
   <g id="patch_2">
    <path d="M 45.9 500.79075 
L 760.14 500.79075 
L 760.14 12.91875 
L 45.9 12.91875 
z
" style="fill:#ffffff;"/>
   </g>
   <g id="matplotlib.axis_1">
    <g id="xtick_1">
     <g id="line2d_1">
      <defs>
       <path d="M 0 0 
L 0 3.5 
" id="mbb9ad136fe" style="stroke:#000000;stroke-width:1.6;"/>
      </defs>
      <g>
       <use style="stroke:#000000;stroke-width:1.6;" x="135.365871" xlink:href="#mbb9ad136fe" y="500.79075"/>
      </g>
     </g>
     <g id="text_1">
      <!-- 1959 -->
      <defs>
       <path d="M 28.515625 69.53125 
L 28.515625 10.15625 
Q 28.515625 7.03125 30.46875 5.46875 
Q 32.421875 3.90625 35.9375 3.90625 
L 39.84375 3.90625 
L 39.84375 1.5625 
L 11.328125 1.5625 
L 11.328125 3.90625 
L 14.84375 3.90625 
Q 18.75 3.90625 20.5 5.46875 
Q 22.265625 7.03125 22.265625 10.15625 
L 22.265625 57.421875 
Q 22.265625 58.984375 21.28125 59.953125 
Q 20.3125 60.9375 18.359375 60.9375 
L 11.328125 60.9375 
L 11.328125 63.28125 
L 14.84375 63.28125 
Q 19.53125 63.28125 22.453125 64.84375 
Q 25.390625 66.40625 26.953125 69.53125 
z
" id="SimSun-31"/>
       <path d="M 10.9375 47.65625 
Q 10.9375 39.0625 14.25 34.5625 
Q 17.578125 30.078125 22.65625 30.078125 
Q 28.515625 30.078125 32.8125 35.546875 
Q 37.109375 41.015625 37.109375 45.703125 
Q 37.109375 55.078125 33.984375 60.734375 
Q 30.859375 66.40625 23.828125 66.40625 
Q 17.1875 66.40625 14.0625 61.125 
Q 10.9375 55.859375 10.9375 47.65625 
z
M 21.484375 26.5625 
Q 13.671875 26.5625 8.984375 31.4375 
Q 4.296875 36.328125 4.296875 47.265625 
Q 4.296875 56.640625 9.375 62.890625 
Q 14.453125 69.140625 23.828125 69.140625 
Q 33.59375 69.140625 39.0625 61.328125 
Q 44.53125 53.515625 44.53125 38.671875 
Q 44.53125 22.265625 38.078125 11.515625 
Q 31.640625 0.78125 20.3125 0.78125 
Q 15.234375 0.78125 11.515625 3.125 
Q 7.8125 5.46875 7.8125 9.375 
Q 7.8125 10.9375 8.78125 12.5 
Q 9.765625 14.0625 12.109375 14.0625 
Q 14.453125 14.0625 15.234375 12.296875 
Q 16.015625 10.546875 16.015625 8.203125 
Q 16.015625 6.640625 16.40625 5.65625 
Q 16.796875 4.6875 17.1875 4.296875 
Q 17.578125 3.90625 18.546875 3.703125 
Q 19.53125 3.515625 20.703125 3.515625 
Q 27.734375 3.515625 32.03125 11.328125 
Q 36.328125 19.140625 37.109375 37.5 
Q 35.15625 32.8125 31.25 29.6875 
Q 27.34375 26.5625 21.484375 26.5625 
z
" id="SimSun-39"/>
       <path d="M 26.953125 44.53125 
Q 34.375 44.53125 39.0625 38.859375 
Q 43.75 33.203125 43.75 23.828125 
Q 43.75 13.28125 38.859375 7.03125 
Q 33.984375 0.78125 23.828125 0.78125 
Q 16.796875 0.78125 11.328125 4.875 
Q 5.859375 8.984375 5.859375 14.84375 
Q 5.859375 17.1875 7.21875 18.9375 
Q 8.59375 20.703125 10.9375 20.703125 
Q 13.28125 20.703125 14.0625 19.140625 
Q 14.84375 17.578125 14.84375 16.40625 
Q 14.84375 14.0625 13.671875 12.890625 
Q 12.5 11.328125 12.5 9.765625 
Q 12.5 6.640625 16.203125 5.078125 
Q 19.921875 3.515625 24.21875 3.515625 
Q 30.46875 3.515625 33.78125 8.59375 
Q 37.109375 13.671875 37.109375 23.046875 
Q 37.109375 30.859375 34.171875 35.734375 
Q 31.25 40.625 25.390625 40.625 
Q 21.09375 40.625 17.96875 39.0625 
Q 14.84375 37.5 12.109375 32.421875 
L 8.59375 32.8125 
L 10.546875 68.359375 
L 42.578125 68.359375 
L 41.40625 62.5 
L 13.28125 62.5 
L 11.71875 36.71875 
Q 15.625 42.1875 19.328125 43.359375 
Q 23.046875 44.53125 26.953125 44.53125 
z
" id="SimSun-35"/>
      </defs>
      <g transform="translate(119.365871 526.92825)scale(0.16 -0.16)">
       <use xlink:href="#SimSun-31"/>
       <use x="50" xlink:href="#SimSun-39"/>
       <use x="100" xlink:href="#SimSun-35"/>
       <use x="150" xlink:href="#SimSun-39"/>
      </g>
     </g>
    </g>
    <g id="xtick_2">
     <g id="line2d_2">
      <g>
       <use style="stroke:#000000;stroke-width:1.6;" x="234.49703" xlink:href="#mbb9ad136fe" y="500.79075"/>
      </g>
     </g>
     <g id="text_2">
      <!-- 1969 -->
      <defs>
       <path d="M 12.109375 28.125 
Q 12.109375 16.40625 16.203125 9.953125 
Q 20.3125 3.515625 26.171875 3.515625 
Q 32.03125 3.515625 35.15625 7.8125 
Q 38.28125 12.109375 38.28125 23.828125 
Q 38.28125 31.640625 34.953125 35.9375 
Q 31.640625 40.234375 26.953125 40.234375 
Q 22.65625 40.234375 18.9375 37.6875 
Q 15.234375 35.15625 12.109375 28.125 
z
M 27.34375 44.140625 
Q 36.71875 44.140625 40.8125 37.890625 
Q 44.921875 31.640625 44.921875 23.828125 
Q 44.921875 12.109375 39.25 6.4375 
Q 33.59375 0.78125 26.171875 0.78125 
Q 15.625 0.78125 10.15625 8.78125 
Q 4.6875 16.796875 4.6875 32.03125 
Q 4.6875 50 11.328125 59.5625 
Q 17.96875 69.140625 29.296875 69.140625 
Q 34.765625 69.140625 38.078125 66.015625 
Q 41.40625 62.890625 41.40625 60.546875 
Q 41.40625 58.203125 40.421875 57.03125 
Q 39.453125 55.859375 37.109375 55.859375 
Q 35.15625 55.859375 34.171875 56.828125 
Q 33.203125 57.8125 33.203125 59.765625 
Q 33.203125 60.546875 33.59375 61.328125 
Q 33.59375 62.109375 33.59375 62.890625 
Q 33.59375 64.453125 32.421875 65.421875 
Q 31.25 66.40625 28.125 66.40625 
Q 21.484375 66.40625 16.796875 60.34375 
Q 12.109375 54.296875 12.109375 33.984375 
Q 14.453125 39.0625 18.546875 41.59375 
Q 22.65625 44.140625 27.34375 44.140625 
z
" id="SimSun-36"/>
      </defs>
      <g transform="translate(218.49703 526.92825)scale(0.16 -0.16)">
       <use xlink:href="#SimSun-31"/>
       <use x="50" xlink:href="#SimSun-39"/>
       <use x="100" xlink:href="#SimSun-36"/>
       <use x="150" xlink:href="#SimSun-39"/>
      </g>
     </g>
    </g>
    <g id="xtick_3">
     <g id="line2d_3">
      <g>
       <use style="stroke:#000000;stroke-width:1.6;" x="333.628189" xlink:href="#mbb9ad136fe" y="500.79075"/>
      </g>
     </g>
     <g id="text_3">
      <!-- 1979 -->
      <defs>
       <path d="M 44.140625 65.625 
Q 35.9375 52.34375 31.046875 39.640625 
Q 26.171875 26.953125 26.171875 17.578125 
Q 26.171875 16.015625 26.5625 13.28125 
Q 26.5625 10.15625 26.5625 6.25 
Q 26.5625 3.125 25.578125 1.953125 
Q 24.609375 0.78125 22.265625 0.78125 
Q 20.3125 0.78125 18.9375 2.140625 
Q 17.578125 3.515625 17.578125 7.03125 
Q 17.578125 14.453125 20.890625 25.390625 
Q 24.21875 36.328125 38.671875 62.5 
L 19.140625 62.5 
Q 14.84375 62.5 12.296875 59.765625 
Q 9.765625 57.03125 8.59375 51.5625 
L 6.25 51.953125 
L 8.984375 68.359375 
L 44.140625 68.359375 
z
" id="SimSun-37"/>
      </defs>
      <g transform="translate(317.628189 526.92825)scale(0.16 -0.16)">
       <use xlink:href="#SimSun-31"/>
       <use x="50" xlink:href="#SimSun-39"/>
       <use x="100" xlink:href="#SimSun-37"/>
       <use x="150" xlink:href="#SimSun-39"/>
      </g>
     </g>
    </g>
    <g id="xtick_4">
     <g id="line2d_4">
      <g>
       <use style="stroke:#000000;stroke-width:1.6;" x="432.759348" xlink:href="#mbb9ad136fe" y="500.79075"/>
      </g>
     </g>
     <g id="text_4">
      <!-- 1989 -->
      <defs>
       <path d="M 9.765625 17.578125 
Q 9.765625 11.328125 13.859375 7.421875 
Q 17.96875 3.515625 24.21875 3.515625 
Q 31.640625 3.515625 34.953125 7.421875 
Q 38.28125 11.328125 38.28125 17.1875 
Q 38.28125 22.265625 33.59375 26.953125 
Q 28.90625 31.640625 19.53125 35.546875 
Q 14.84375 32.421875 12.296875 27.734375 
Q 9.765625 23.046875 9.765625 17.578125 
z
M 44.140625 18.359375 
Q 44.140625 10.9375 38.671875 5.859375 
Q 33.203125 0.78125 24.21875 0.78125 
Q 16.015625 0.78125 10.15625 5.859375 
Q 4.296875 10.9375 4.296875 17.578125 
Q 4.296875 24.21875 7.609375 28.90625 
Q 10.9375 33.59375 17.1875 37.109375 
Q 11.71875 39.84375 8.78125 43.9375 
Q 5.859375 48.046875 5.859375 53.125 
Q 5.859375 59.765625 10.9375 64.453125 
Q 16.015625 69.140625 25 69.140625 
Q 33.203125 69.140625 38.28125 64.453125 
Q 43.359375 59.765625 43.359375 53.125 
Q 43.359375 48.4375 40.421875 44.328125 
Q 37.5 40.234375 31.25 37.109375 
Q 37.890625 33.203125 41.015625 28.515625 
Q 44.140625 23.828125 44.140625 18.359375 
z
M 37.890625 52.734375 
Q 37.890625 58.203125 34.765625 62.296875 
Q 31.640625 66.40625 25 66.40625 
Q 17.578125 66.40625 14.453125 62.5 
Q 11.328125 58.59375 11.328125 54.296875 
Q 11.328125 50 15.8125 45.890625 
Q 20.3125 41.796875 28.515625 38.671875 
Q 33.203125 41.015625 35.546875 44.53125 
Q 37.890625 48.046875 37.890625 52.734375 
z
" id="SimSun-38"/>
      </defs>
      <g transform="translate(416.759348 526.92825)scale(0.16 -0.16)">
       <use xlink:href="#SimSun-31"/>
       <use x="50" xlink:href="#SimSun-39"/>
       <use x="100" xlink:href="#SimSun-38"/>
       <use x="150" xlink:href="#SimSun-39"/>
      </g>
     </g>
    </g>
    <g id="xtick_5">
     <g id="line2d_5">
      <g>
       <use style="stroke:#000000;stroke-width:1.6;" x="531.890507" xlink:href="#mbb9ad136fe" y="500.79075"/>
      </g>
     </g>
     <g id="text_5">
      <!-- 1999 -->
      <g transform="translate(515.890507 526.92825)scale(0.16 -0.16)">
       <use xlink:href="#SimSun-31"/>
       <use x="50" xlink:href="#SimSun-39"/>
       <use x="100" xlink:href="#SimSun-39"/>
       <use x="150" xlink:href="#SimSun-39"/>
      </g>
     </g>
    </g>
    <g id="xtick_6">
     <g id="line2d_6">
      <g>
       <use style="stroke:#000000;stroke-width:1.6;" x="631.021666" xlink:href="#mbb9ad136fe" y="500.79075"/>
      </g>
     </g>
     <g id="text_6">
      <!-- 2009 -->
      <defs>
       <path d="M 36.328125 51.953125 
Q 36.328125 58.984375 33.203125 62.6875 
Q 30.078125 66.40625 23.828125 66.40625 
Q 19.140625 66.40625 15.8125 63.859375 
Q 12.5 61.328125 12.5 57.421875 
Q 12.5 55.078125 14.0625 53.515625 
Q 15.234375 51.953125 15.234375 50.390625 
Q 15.234375 48.4375 14.25 47.453125 
Q 13.28125 46.484375 11.328125 46.484375 
Q 8.984375 46.484375 7.609375 47.84375 
Q 6.25 49.21875 6.25 52.34375 
Q 6.25 60.546875 12.109375 64.84375 
Q 17.96875 69.140625 24.609375 69.140625 
Q 33.984375 69.140625 38.46875 64.453125 
Q 42.96875 59.765625 42.96875 52.734375 
Q 42.96875 48.046875 40.8125 43.359375 
Q 38.671875 38.671875 33.984375 34.375 
Q 22.65625 23.4375 16.59375 16.59375 
Q 10.546875 9.765625 9.375 7.421875 
L 32.421875 7.421875 
Q 35.9375 7.421875 38.28125 10.15625 
Q 40.625 12.890625 41.40625 18.359375 
L 43.75 18.359375 
L 41.40625 1.5625 
L 5.078125 1.5625 
L 5.078125 6.640625 
Q 7.03125 10.15625 11.515625 15.625 
Q 16.015625 21.09375 23.4375 28.515625 
Q 30.078125 35.15625 33.203125 41.015625 
Q 36.328125 46.875 36.328125 51.953125 
z
" id="SimSun-32"/>
       <path d="M 25 66.015625 
Q 19.53125 66.015625 15.8125 57.609375 
Q 12.109375 49.21875 12.109375 35.15625 
Q 12.109375 20.3125 15.8125 12.109375 
Q 19.53125 3.90625 25 3.90625 
Q 30.859375 3.90625 34.171875 12.109375 
Q 37.5 20.3125 37.5 35.15625 
Q 37.5 49.21875 34.375 57.609375 
Q 31.25 66.015625 25 66.015625 
z
M 25 0.78125 
Q 16.40625 0.78125 10.546875 9.765625 
Q 4.6875 18.75 4.6875 35.15625 
Q 4.6875 50.390625 10.34375 59.765625 
Q 16.015625 69.140625 25 69.140625 
Q 33.59375 69.140625 39.25 60.15625 
Q 44.921875 51.171875 44.921875 35.15625 
Q 44.921875 19.140625 39.25 9.953125 
Q 33.59375 0.78125 25 0.78125 
z
" id="SimSun-30"/>
      </defs>
      <g transform="translate(615.021666 526.92825)scale(0.16 -0.16)">
       <use xlink:href="#SimSun-32"/>
       <use x="50" xlink:href="#SimSun-30"/>
       <use x="100" xlink:href="#SimSun-30"/>
       <use x="150" xlink:href="#SimSun-39"/>
      </g>
     </g>
    </g>
    <g id="xtick_7">
     <g id="line2d_7">
      <g>
       <use style="stroke:#000000;stroke-width:1.6;" x="730.152824" xlink:href="#mbb9ad136fe" y="500.79075"/>
      </g>
     </g>
     <g id="text_7">
      <!-- 2019 -->
      <g transform="translate(714.152824 526.92825)scale(0.16 -0.16)">
       <use xlink:href="#SimSun-32"/>
       <use x="50" xlink:href="#SimSun-30"/>
       <use x="100" xlink:href="#SimSun-31"/>
       <use x="150" xlink:href="#SimSun-39"/>
      </g>
     </g>
    </g>
    <g id="xtick_8">
     <g id="line2d_8">
      <defs>
       <path d="M 0 0 
L 0 2 
" id="mc2f49d4702" style="stroke:#000000;stroke-width:0.8;"/>
      </defs>
      <g>
       <use style="stroke:#000000;stroke-width:0.8;" x="85.800291" xlink:href="#mc2f49d4702" y="500.79075"/>
      </g>
     </g>
    </g>
    <g id="xtick_9">
     <g id="line2d_9">
      <g>
       <use style="stroke:#000000;stroke-width:0.8;" x="135.365871" xlink:href="#mc2f49d4702" y="500.79075"/>
      </g>
     </g>
    </g>
    <g id="xtick_10">
     <g id="line2d_10">
      <g>
       <use style="stroke:#000000;stroke-width:0.8;" x="184.93145" xlink:href="#mc2f49d4702" y="500.79075"/>
      </g>
     </g>
    </g>
    <g id="xtick_11">
     <g id="line2d_11">
      <g>
       <use style="stroke:#000000;stroke-width:0.8;" x="234.49703" xlink:href="#mc2f49d4702" y="500.79075"/>
      </g>
     </g>
    </g>
    <g id="xtick_12">
     <g id="line2d_12">
      <g>
       <use style="stroke:#000000;stroke-width:0.8;" x="284.062609" xlink:href="#mc2f49d4702" y="500.79075"/>
      </g>
     </g>
    </g>
    <g id="xtick_13">
     <g id="line2d_13">
      <g>
       <use style="stroke:#000000;stroke-width:0.8;" x="333.628189" xlink:href="#mc2f49d4702" y="500.79075"/>
      </g>
     </g>
    </g>
    <g id="xtick_14">
     <g id="line2d_14">
      <g>
       <use style="stroke:#000000;stroke-width:0.8;" x="383.193768" xlink:href="#mc2f49d4702" y="500.79075"/>
      </g>
     </g>
    </g>
    <g id="xtick_15">
     <g id="line2d_15">
      <g>
       <use style="stroke:#000000;stroke-width:0.8;" x="432.759348" xlink:href="#mc2f49d4702" y="500.79075"/>
      </g>
     </g>
    </g>
    <g id="xtick_16">
     <g id="line2d_16">
      <g>
       <use style="stroke:#000000;stroke-width:0.8;" x="482.324927" xlink:href="#mc2f49d4702" y="500.79075"/>
      </g>
     </g>
    </g>
    <g id="xtick_17">
     <g id="line2d_17">
      <g>
       <use style="stroke:#000000;stroke-width:0.8;" x="531.890507" xlink:href="#mc2f49d4702" y="500.79075"/>
      </g>
     </g>
    </g>
    <g id="xtick_18">
     <g id="line2d_18">
      <g>
       <use style="stroke:#000000;stroke-width:0.8;" x="581.456086" xlink:href="#mc2f49d4702" y="500.79075"/>
      </g>
     </g>
    </g>
    <g id="xtick_19">
     <g id="line2d_19">
      <g>
       <use style="stroke:#000000;stroke-width:0.8;" x="631.021666" xlink:href="#mc2f49d4702" y="500.79075"/>
      </g>
     </g>
    </g>
    <g id="xtick_20">
     <g id="line2d_20">
      <g>
       <use style="stroke:#000000;stroke-width:0.8;" x="680.587245" xlink:href="#mc2f49d4702" y="500.79075"/>
      </g>
     </g>
    </g>
    <g id="xtick_21">
     <g id="line2d_21">
      <g>
       <use style="stroke:#000000;stroke-width:0.8;" x="730.152824" xlink:href="#mc2f49d4702" y="500.79075"/>
      </g>
     </g>
    </g>
   </g>
   <g id="matplotlib.axis_2">
    <g id="ytick_1">
     <g id="line2d_22">
      <defs>
       <path d="M 0 0 
L -3.5 0 
" id="mc58fd262af" style="stroke:#000000;stroke-width:1.6;"/>
      </defs>
      <g>
       <use style="stroke:#000000;stroke-width:1.6;" x="45.9" xlink:href="#mc58fd262af" y="500.79075"/>
      </g>
     </g>
     <g id="text_8">
      <!-- 0% -->
      <defs>
       <path d="M 11.71875 66.40625 
Q 9.375 66.40625 7.8125 63.28125 
Q 6.25 60.15625 6.25 51.5625 
Q 6.25 41.796875 8 38.859375 
Q 9.765625 35.9375 11.71875 35.9375 
Q 14.453125 35.9375 15.8125 39.453125 
Q 17.1875 42.96875 17.1875 51.5625 
Q 17.1875 58.59375 16.203125 62.5 
Q 15.234375 66.40625 11.71875 66.40625 
z
M 22.265625 51.171875 
Q 22.265625 44.140625 19.921875 38.859375 
Q 17.578125 33.59375 11.71875 33.59375 
Q 7.03125 33.59375 4.09375 38.28125 
Q 1.171875 42.96875 1.171875 51.171875 
Q 1.171875 59.765625 4.296875 64.453125 
Q 7.421875 69.140625 11.71875 69.140625 
Q 16.40625 69.140625 19.328125 64.25 
Q 22.265625 59.375 22.265625 51.171875 
z
M 42.578125 18.75 
Q 42.578125 25.390625 41.40625 29.6875 
Q 40.234375 33.984375 37.109375 33.984375 
Q 34.765625 33.984375 33.203125 30.265625 
Q 31.640625 26.5625 31.640625 18.75 
Q 31.640625 8.984375 33.390625 6.25 
Q 35.15625 3.515625 37.109375 3.515625 
Q 39.84375 3.515625 41.203125 6.828125 
Q 42.578125 10.15625 42.578125 18.75 
z
M 47.65625 18.359375 
Q 47.65625 10.546875 44.921875 5.65625 
Q 42.1875 0.78125 37.109375 0.78125 
Q 32.8125 0.78125 29.6875 5.65625 
Q 26.5625 10.546875 26.5625 18.359375 
Q 26.5625 26.953125 29.6875 31.828125 
Q 32.8125 36.71875 37.109375 36.71875 
Q 41.796875 36.71875 44.71875 31.640625 
Q 47.65625 26.5625 47.65625 18.359375 
z
M 39.453125 67.96875 
L 11.328125 0.78125 
L 8.984375 1.953125 
L 36.71875 69.140625 
z
" id="SimSun-25"/>
      </defs>
      <g transform="translate(15.2 506.5095)scale(0.16 -0.16)">
       <use xlink:href="#SimSun-30"/>
       <use x="50" xlink:href="#SimSun-25"/>
      </g>
     </g>
    </g>
    <g id="ytick_2">
     <g id="line2d_23">
      <g>
       <use style="stroke:#000000;stroke-width:1.6;" x="45.9" xlink:href="#mc58fd262af" y="439.80675"/>
      </g>
     </g>
     <g id="text_9">
      <!-- 2% -->
      <g transform="translate(15.2 445.5255)scale(0.16 -0.16)">
       <use xlink:href="#SimSun-32"/>
       <use x="50" xlink:href="#SimSun-25"/>
      </g>
     </g>
    </g>
    <g id="ytick_3">
     <g id="line2d_24">
      <g>
       <use style="stroke:#000000;stroke-width:1.6;" x="45.9" xlink:href="#mc58fd262af" y="378.82275"/>
      </g>
     </g>
     <g id="text_10">
      <!-- 4% -->
      <defs>
       <path d="M 35.9375 8.984375 
Q 35.9375 6.25 37.5 5.078125 
Q 39.0625 3.90625 41.796875 3.90625 
L 45.3125 3.90625 
L 45.3125 1.5625 
L 19.53125 1.5625 
L 19.53125 3.90625 
L 23.828125 3.90625 
Q 26.953125 3.90625 28.3125 5.078125 
Q 29.6875 6.25 29.6875 8.984375 
L 29.6875 21.875 
L 3.515625 21.875 
L 3.515625 23.828125 
L 32.03125 69.140625 
L 35.9375 69.140625 
L 35.9375 24.21875 
L 46.484375 24.21875 
L 46.484375 21.875 
L 35.9375 21.875 
z
M 29.296875 59.375 
L 7.03125 24.21875 
L 29.6875 24.21875 
L 29.6875 59.375 
z
" id="SimSun-34"/>
      </defs>
      <g transform="translate(15.2 384.5415)scale(0.16 -0.16)">
       <use xlink:href="#SimSun-34"/>
       <use x="50" xlink:href="#SimSun-25"/>
      </g>
     </g>
    </g>
    <g id="ytick_4">
     <g id="line2d_25">
      <g>
       <use style="stroke:#000000;stroke-width:1.6;" x="45.9" xlink:href="#mc58fd262af" y="317.83875"/>
      </g>
     </g>
     <g id="text_11">
      <!-- 6% -->
      <g transform="translate(15.2 323.5575)scale(0.16 -0.16)">
       <use xlink:href="#SimSun-36"/>
       <use x="50" xlink:href="#SimSun-25"/>
      </g>
     </g>
    </g>
    <g id="ytick_5">
     <g id="line2d_26">
      <g>
       <use style="stroke:#000000;stroke-width:1.6;" x="45.9" xlink:href="#mc58fd262af" y="256.85475"/>
      </g>
     </g>
     <g id="text_12">
      <!-- 8% -->
      <g transform="translate(15.2 262.5735)scale(0.16 -0.16)">
       <use xlink:href="#SimSun-38"/>
       <use x="50" xlink:href="#SimSun-25"/>
      </g>
     </g>
    </g>
    <g id="ytick_6">
     <g id="line2d_27">
      <g>
       <use style="stroke:#000000;stroke-width:1.6;" x="45.9" xlink:href="#mc58fd262af" y="195.87075"/>
      </g>
     </g>
     <g id="text_13">
      <!-- 10% -->
      <g transform="translate(7.2 201.5895)scale(0.16 -0.16)">
       <use xlink:href="#SimSun-31"/>
       <use x="50" xlink:href="#SimSun-30"/>
       <use x="100" xlink:href="#SimSun-25"/>
      </g>
     </g>
    </g>
    <g id="ytick_7">
     <g id="line2d_28">
      <g>
       <use style="stroke:#000000;stroke-width:1.6;" x="45.9" xlink:href="#mc58fd262af" y="134.88675"/>
      </g>
     </g>
     <g id="text_14">
      <!-- 12% -->
      <g transform="translate(7.2 140.6055)scale(0.16 -0.16)">
       <use xlink:href="#SimSun-31"/>
       <use x="50" xlink:href="#SimSun-32"/>
       <use x="100" xlink:href="#SimSun-25"/>
      </g>
     </g>
    </g>
    <g id="ytick_8">
     <g id="line2d_29">
      <g>
       <use style="stroke:#000000;stroke-width:1.6;" x="45.9" xlink:href="#mc58fd262af" y="73.90275"/>
      </g>
     </g>
     <g id="text_15">
      <!-- 14% -->
      <g transform="translate(7.2 79.6215)scale(0.16 -0.16)">
       <use xlink:href="#SimSun-31"/>
       <use x="50" xlink:href="#SimSun-34"/>
       <use x="100" xlink:href="#SimSun-25"/>
      </g>
     </g>
    </g>
    <g id="ytick_9">
     <g id="line2d_30">
      <g>
       <use style="stroke:#000000;stroke-width:1.6;" x="45.9" xlink:href="#mc58fd262af" y="12.91875"/>
      </g>
     </g>
     <g id="text_16">
      <!-- 16% -->
      <g transform="translate(7.2 18.6375)scale(0.16 -0.16)">
       <use xlink:href="#SimSun-31"/>
       <use x="50" xlink:href="#SimSun-36"/>
       <use x="100" xlink:href="#SimSun-25"/>
      </g>
     </g>
    </g>
   </g>
   <g id="line2d_31">
    <path clip-path="url(#p1b8ddb997a)" d="M 78.365455 414.49839 
L 79.191548 407.79015 
L 80.017641 405.96063 
L 80.843734 411.44919 
L 81.669827 410.83935 
L 82.49592 413.27871 
L 83.322012 419.68203 
L 84.148105 419.07219 
L 84.974198 421.81647 
L 85.800291 425.17059 
L 86.626384 425.47551 
L 87.452477 428.52471 
L 88.27857 430.96407 
L 89.104663 428.52471 
L 89.930756 428.21979 
L 90.756849 430.65915 
L 91.582942 428.82963 
L 92.409035 428.21979 
L 94.061221 425.17059 
L 94.887314 424.25583 
L 95.713407 421.20663 
L 96.5395 419.98695 
L 97.365593 419.07219 
L 98.191686 416.93775 
L 99.017779 416.63283 
L 99.843872 416.02299 
L 100.669965 412.36395 
L 101.496058 410.22951 
L 102.322151 410.22951 
L 103.148244 412.97379 
L 103.974337 412.66887 
L 104.80043 410.53443 
L 106.452616 414.19347 
L 107.278709 410.53443 
L 108.104802 403.82619 
L 108.930895 407.18031 
L 109.756988 409.31475 
L 110.583081 405.96063 
L 111.409174 399.25239 
L 112.235267 397.72779 
L 113.06136 398.94747 
L 113.887453 394.37367 
L 114.713546 391.32447 
L 116.365732 398.94747 
L 118.017918 394.67859 
L 118.844011 391.01955 
L 119.670104 384.92115 
L 120.496197 380.95719 
L 121.32229 380.95719 
L 122.148383 381.26211 
L 122.974476 379.73751 
L 123.800569 387.36051 
L 124.626662 402.91143 
L 125.452755 406.57047 
L 126.278848 407.79015 
L 127.104941 409.92459 
L 127.931034 412.97379 
L 128.757127 411.75411 
L 129.58322 410.22951 
L 130.409313 403.21635 
L 131.235406 392.84907 
L 132.061499 386.14083 
L 132.887592 384.92115 
L 133.713685 386.75067 
L 134.539778 383.09163 
L 135.365871 378.21291 
L 136.191964 380.04243 
L 137.018057 379.12767 
L 137.84415 375.16371 
L 138.670243 369.37023 
L 139.496336 368.45547 
L 140.322429 366.62595 
L 141.148522 365.71119 
L 141.974615 358.08819 
L 142.800708 362.66199 
L 143.626801 362.66199 
L 144.452894 357.78327 
L 145.278987 356.86851 
L 146.931173 371.19975 
L 147.757266 370.28499 
L 148.583359 368.15055 
L 149.409452 374.24895 
L 150.235545 381.87195 
L 151.061638 384.92115 
L 151.887731 384.92115 
L 152.713824 382.17687 
L 153.539917 380.95719 
L 154.36601 383.70147 
L 155.192103 383.70147 
L 156.018196 385.53099 
L 156.844289 386.75067 
L 157.670382 385.53099 
L 158.496475 387.66543 
L 159.322568 382.48179 
L 160.148661 381.26211 
L 160.974754 377.60307 
L 162.62694 381.26211 
L 163.453033 380.65227 
L 164.279126 376.99323 
L 165.105219 375.77355 
L 165.931312 378.82275 
L 166.757405 383.09163 
L 167.583498 383.09163 
L 168.409591 381.87195 
L 169.235684 378.82275 
L 170.061777 377.60307 
L 170.88787 380.04243 
L 172.540056 381.26211 
L 173.366149 381.26211 
L 174.192241 383.39655 
L 175.018334 382.78671 
L 175.844427 380.65227 
L 176.67052 380.34735 
L 177.496613 380.34735 
L 178.322706 380.04243 
L 179.148799 378.82275 
L 179.974892 378.82275 
L 180.800985 378.21291 
L 181.627078 376.68831 
L 182.453171 374.24895 
L 183.279264 376.38339 
L 184.105357 374.55387 
L 184.93145 374.24895 
L 185.757543 373.33419 
L 186.583636 371.80959 
L 187.409729 372.11451 
L 188.235822 373.02927 
L 189.061915 374.24895 
L 189.888008 373.02927 
L 190.714101 372.41943 
L 191.540194 373.33419 
L 192.366287 373.94403 
L 193.19238 372.72435 
L 194.018473 372.41943 
L 194.844566 373.02927 
L 195.670659 372.11451 
L 196.496752 372.72435 
L 197.322845 372.41943 
L 198.148938 371.80959 
L 198.975031 372.72435 
L 199.801124 372.11451 
L 200.627217 370.58991 
L 201.45331 368.15055 
L 202.279403 366.32103 
L 203.105496 364.18659 
L 203.931589 359.00295 
L 204.757682 357.78327 
L 205.583775 347.72091 
L 206.409868 357.17343 
L 207.235961 354.73407 
L 208.062054 354.42915 
L 208.888147 349.24551 
L 209.71424 346.80615 
L 210.540333 337.35363 
L 211.366426 347.72091 
L 212.192519 349.24551 
L 213.018612 344.67171 
L 213.844705 359.30787 
L 214.670798 362.96691 
L 215.496891 356.86851 
L 216.322984 363.57675 
L 217.149077 355.03899 
L 217.97517 354.12423 
L 218.801263 341.62251 
L 219.627356 343.45203 
L 220.453449 340.09791 
L 221.279542 338.87823 
L 222.105635 328.81587 
L 222.931728 325.76667 
L 223.757821 326.98635 
L 224.583914 331.86507 
L 225.410007 331.25523 
L 226.2361 325.15683 
L 227.062193 325.76667 
L 227.888286 322.10763 
L 228.714379 328.81587 
L 229.540472 336.43887 
L 230.366565 335.52411 
L 231.192658 333.38967 
L 232.018751 329.73063 
L 232.844844 324.54699 
L 233.670937 312.96003 
L 234.49703 312.04527 
L 235.323123 309.91083 
L 236.149216 308.69115 
L 236.975309 311.74035 
L 237.801402 300.76323 
L 238.627495 295.57959 
L 239.453588 297.71403 
L 240.279681 292.53039 
L 241.105774 271.79583 
L 241.931867 289.17627 
L 242.75796 278.50407 
L 243.584053 260.51379 
L 244.410146 264.47775 
L 245.236239 290.39595 
L 246.062332 284.90739 
L 246.888425 262.34331 
L 247.714518 258.37935 
L 249.366704 275.75979 
L 250.192797 272.40567 
L 251.01889 278.50407 
L 251.844983 277.28439 
L 252.671076 302.89767 
L 253.497169 302.59275 
L 254.323262 315.09447 
L 255.149355 313.56987 
L 255.975448 332.16999 
L 256.801541 315.39939 
L 258.453727 296.49435 
L 259.27982 291.92055 
L 260.105913 309.30099 
L 260.932006 317.83875 
L 261.758099 321.80271 
L 262.584192 319.97319 
L 263.410285 321.19287 
L 264.236378 315.09447 
L 265.062471 316.61907 
L 265.888563 314.17971 
L 266.714656 313.56987 
L 267.540749 316.31415 
L 268.366842 313.26495 
L 269.192935 314.17971 
L 270.019028 305.03211 
L 270.845121 301.37307 
L 272.497307 309.30099 
L 274.149493 301.37307 
L 275.801679 295.57959 
L 276.627772 296.49435 
L 277.453865 289.48119 
L 278.279958 289.17627 
L 279.106051 274.23519 
L 279.932144 279.72375 
L 280.758237 290.39595 
L 281.58433 296.18943 
L 282.410423 296.79927 
L 283.236516 290.39595 
L 284.062609 287.34675 
L 284.888702 287.04183 
L 285.714795 274.84503 
L 286.540888 267.22203 
L 287.366981 271.49091 
L 288.193074 267.83187 
L 289.84526 253.50063 
L 291.497446 263.25807 
L 292.323539 267.83187 
L 293.149632 275.14995 
L 293.975725 271.18599 
L 294.801818 273.32043 
L 295.627911 256.54983 
L 296.454004 247.40223 
L 297.280097 255.63507 
L 298.10619 258.07443 
L 298.932283 250.75635 
L 299.758376 250.14651 
L 300.584469 242.21859 
L 301.410562 259.59903 
L 302.236655 252.58587 
L 303.062748 264.17283 
L 303.888841 262.95315 
L 304.714934 263.86791 
L 305.541027 267.22203 
L 306.36712 266.91711 
L 307.193213 258.07443 
L 308.019306 261.12363 
L 308.845399 261.12363 
L 309.671492 267.22203 
L 310.497585 270.57615 
L 311.323678 274.54011 
L 312.149771 287.04183 
L 312.975864 293.14023 
L 313.801957 275.14995 
L 314.62805 273.62535 
L 315.454143 274.54011 
L 316.280236 273.62535 
L 317.106329 275.75979 
L 317.932422 281.24835 
L 318.758515 274.54011 
L 319.584608 278.80899 
L 320.410701 274.84503 
L 321.236794 268.44171 
L 322.062887 270.57615 
L 322.88898 263.56299 
L 323.715073 258.68427 
L 326.193352 249.53667 
L 327.845538 237.94971 
L 328.671631 239.77923 
L 329.497724 244.96287 
L 330.323817 239.77923 
L 331.14991 227.58243 
L 331.976003 230.63163 
L 332.802096 221.78895 
L 333.628189 227.88735 
L 334.454282 221.17911 
L 335.280375 223.00863 
L 336.106468 215.69055 
L 336.932561 224.53323 
L 337.758654 232.15623 
L 338.584747 226.05783 
L 340.236933 212.94627 
L 341.063026 173.91651 
L 341.889119 184.28379 
L 342.715212 185.80839 
L 343.541305 161.41479 
L 344.367398 112.93251 
L 345.193491 115.37187 
L 346.019584 172.69683 
L 346.845677 188.24775 
L 347.67177 193.12647 
L 348.497863 172.69683 
L 349.323956 148.60815 
L 350.150049 139.15563 
L 350.976142 120.86043 
L 351.802235 112.93251 
L 352.628328 121.77519 
L 353.454421 114.15219 
L 354.280514 91.28319 
L 355.106607 100.43079 
L 355.9327 70.54863 
L 356.758793 89.14875 
L 357.584885 78.17163 
L 359.237071 30.90903 
L 360.063164 17.79747 
L 360.889257 54.69279 
L 361.71535 100.43079 
L 362.541443 74.51259 
L 363.367536 69.63387 
L 364.193629 72.98799 
L 365.019722 68.41419 
L 365.845815 77.86671 
L 366.671908 82.74543 
L 367.498001 60.48627 
L 368.324094 83.66019 
L 369.150187 110.18823 
L 370.802373 174.22143 
L 371.628466 171.78207 
L 372.454559 184.89363 
L 373.280652 171.47715 
L 374.106745 187.63791 
L 374.932838 176.96571 
L 375.758931 187.63791 
L 376.585024 171.17223 
L 377.411117 166.59843 
L 378.23721 142.20483 
L 379.063303 135.49659 
L 379.889396 151.96227 
L 380.715489 142.81467 
L 381.541582 146.16879 
L 382.367675 140.37531 
L 383.193768 144.94911 
L 384.019861 133.66707 
L 384.845954 118.72599 
L 385.672047 109.88331 
L 386.49814 76.64703 
L 387.324233 78.78147 
L 388.150326 107.13903 
L 388.976419 110.79807 
L 389.802512 120.55551 
L 390.628605 141.29007 
L 391.454698 147.69339 
L 392.280791 148.60815 
L 393.106884 160.19511 
L 393.932977 137.63103 
L 395.585163 152.87703 
L 396.411256 187.33299 
L 397.237349 188.24775 
L 398.063442 178.49031 
L 398.889535 187.33299 
L 399.715628 186.41823 
L 400.541721 195.56583 
L 401.367814 208.37247 
L 402.193907 226.36275 
L 403.02 223.92339 
L 403.846093 252.89079 
L 404.672186 275.45487 
L 405.498279 275.75979 
L 406.324372 255.33015 
L 407.150465 276.67455 
L 407.976558 276.97947 
L 408.802651 288.87135 
L 409.628744 273.62535 
L 410.454837 276.97947 
L 411.28093 282.77295 
L 412.107023 280.33359 
L 412.933116 281.85819 
L 413.759209 281.55327 
L 414.585302 271.79583 
L 415.411395 250.45143 
L 416.237488 241.91367 
L 417.063581 245.26779 
L 417.889674 236.73003 
L 418.715767 226.36275 
L 419.54186 207.15279 
L 420.367953 230.02179 
L 421.194046 226.66767 
L 422.020139 231.54639 
L 422.846232 248.92683 
L 423.672325 251.97603 
L 424.498418 239.47431 
L 426.150604 220.26435 
L 426.976697 231.85131 
L 427.80279 222.70371 
L 428.628883 218.73975 
L 429.454976 230.32671 
L 430.281069 237.03495 
L 431.107162 224.53323 
L 431.933255 222.09387 
L 432.759348 226.05783 
L 433.585441 216.60531 
L 434.411534 217.21515 
L 435.237627 225.75291 
L 436.06372 238.55955 
L 436.889813 253.80555 
L 437.715906 262.34331 
L 438.541999 248.92683 
L 439.368092 247.40223 
L 440.194185 259.29411 
L 441.020278 261.73347 
L 441.846371 258.98919 
L 442.672464 243.74319 
L 443.498557 241.30383 
L 444.32465 237.03495 
L 445.150743 225.14307 
L 445.976836 238.55955 
L 446.802929 243.74319 
L 447.629022 245.87763 
L 448.455115 230.63163 
L 449.281207 231.85131 
L 450.1073 237.03495 
L 450.933393 248.92683 
L 451.759486 254.41539 
L 452.585579 255.93999 
L 453.411672 256.24491 
L 454.237765 255.33015 
L 455.063858 256.24491 
L 455.889951 255.02523 
L 456.716044 249.53667 
L 457.542137 250.75635 
L 459.194323 273.01551 
L 460.020416 273.01551 
L 460.846509 275.75979 
L 461.672602 296.18943 
L 462.498695 277.89423 
L 463.324788 279.11391 
L 464.150881 270.88107 
L 464.976974 268.74663 
L 465.803067 277.28439 
L 466.62916 283.07787 
L 467.455253 295.88451 
L 468.281346 298.93371 
L 469.107439 306.55671 
L 469.933532 293.44515 
L 470.759625 288.87135 
L 471.585718 296.49435 
L 472.411811 305.94687 
L 473.237904 316.92399 
L 474.063997 316.92399 
L 474.89009 316.31415 
L 475.716183 312.96003 
L 476.542276 323.93715 
L 477.368369 323.02239 
L 478.194462 334.60935 
L 479.020555 336.13395 
L 479.846648 335.21919 
L 480.672741 323.02239 
L 481.498834 323.02239 
L 482.324927 326.98635 
L 483.15102 313.26495 
L 483.977113 294.35991 
L 484.803206 285.51723 
L 485.629299 282.16311 
L 486.455392 276.97947 
L 487.281485 283.68771 
L 488.107578 281.55327 
L 488.933671 268.44171 
L 489.759764 262.64823 
L 490.585857 259.59903 
L 491.41195 261.73347 
L 492.238043 269.05155 
L 493.064136 280.63851 
L 493.890229 281.24835 
L 494.716322 285.21231 
L 495.542415 308.69115 
L 496.368508 311.43543 
L 497.194601 304.11735 
L 498.020694 309.30099 
L 498.846787 312.65511 
L 499.67288 316.92399 
L 500.498973 325.15683 
L 501.325066 330.64539 
L 502.151159 330.03555 
L 502.977252 313.87479 
L 503.803345 307.47147 
L 504.629438 297.71403 
L 505.455531 291.92055 
L 506.281624 295.57959 
L 507.107717 293.44515 
L 507.93381 288.56643 
L 508.759903 295.88451 
L 510.412089 316.00923 
L 511.238182 304.72719 
L 512.064275 301.67799 
L 512.890368 300.76323 
L 513.716461 289.78611 
L 514.542554 295.88451 
L 515.368647 297.40911 
L 516.19474 302.28783 
L 517.020833 317.22891 
L 517.846926 307.47147 
L 518.673019 314.17971 
L 519.499112 322.71747 
L 520.325205 322.10763 
L 521.151298 325.46175 
L 521.977391 332.16999 
L 522.803484 329.42571 
L 523.629577 327.90111 
L 524.45567 327.59619 
L 526.107856 334.91427 
L 526.933949 333.08475 
L 527.760042 346.80615 
L 528.586135 365.40627 
L 529.412228 359.30787 
L 530.238321 356.25867 
L 531.064414 359.00295 
L 531.890507 358.69803 
L 532.7166 339.48807 
L 533.542693 340.70775 
L 534.368786 337.35363 
L 535.194879 328.81587 
L 536.020972 323.63223 
L 536.847065 320.27811 
L 537.673158 318.44859 
L 538.499251 320.88795 
L 539.325344 317.22891 
L 540.151437 312.35019 
L 540.977529 304.11735 
L 541.803622 297.10419 
L 542.629715 305.03211 
L 543.455808 316.92399 
L 544.281901 310.82559 
L 545.107994 308.99607 
L 545.934087 316.92399 
L 546.76018 316.61907 
L 547.586273 326.07159 
L 548.412366 323.93715 
L 549.238459 324.85191 
L 550.064552 333.69459 
L 550.890645 344.67171 
L 551.716738 342.53727 
L 552.542831 350.77011 
L 553.368924 350.46519 
L 554.195017 337.65855 
L 555.02111 335.21919 
L 555.847203 335.52411 
L 556.673296 346.19631 
L 557.499389 352.90455 
L 558.325482 360.52755 
L 559.151575 369.67515 
L 559.977668 355.03899 
L 560.803761 346.19631 
L 561.629854 346.19631 
L 562.455947 351.98979 
L 563.28204 335.52411 
L 564.108133 344.97663 
L 564.934226 345.89139 
L 565.760319 352.59963 
L 567.412505 374.55387 
L 568.238598 390.10479 
L 569.890784 372.11451 
L 570.716877 384.00639 
L 571.54297 378.82275 
L 572.369063 387.66543 
L 573.195156 384.00639 
L 574.021249 382.17687 
L 574.847342 398.03271 
L 575.673435 392.84907 
L 576.499528 363.88167 
L 577.325621 365.10135 
L 578.151714 380.04243 
L 578.977807 368.76039 
L 579.8039 368.45547 
L 580.629993 370.58991 
L 581.456086 373.94403 
L 582.282179 379.12767 
L 583.108272 383.09163 
L 583.934365 362.66199 
L 584.760458 358.69803 
L 585.586551 359.91771 
L 586.412644 363.57675 
L 587.238737 374.85879 
L 588.06483 374.55387 
L 588.890923 377.29815 
L 589.717016 367.84563 
L 590.543109 371.50467 
L 591.369202 374.55387 
L 592.195295 367.84563 
L 593.021388 363.57675 
L 593.847481 372.41943 
L 594.673574 378.82275 
L 595.499667 380.65227 
L 596.32576 370.28499 
L 597.151853 378.21291 
L 597.977946 368.45547 
L 598.804039 361.44231 
L 599.630132 363.88167 
L 600.456225 366.93087 
L 601.282318 362.66199 
L 602.108411 362.05215 
L 602.934504 352.59963 
L 603.760597 346.19631 
L 604.58669 344.67171 
L 605.412783 343.75695 
L 606.238876 348.63567 
L 607.064969 356.25867 
L 607.891062 359.30787 
L 608.717155 360.22263 
L 609.543248 364.79643 
L 610.369341 357.17343 
L 611.195434 353.51439 
L 612.021527 361.74723 
L 612.84762 359.00295 
L 613.673713 359.61279 
L 614.499806 351.37995 
L 615.325899 347.41599 
L 616.978085 362.35707 
L 617.804178 360.83247 
L 618.630271 364.18659 
L 619.456364 379.73751 
L 620.282457 377.60307 
L 621.10855 388.88511 
L 621.934643 393.15399 
L 622.760736 395.59335 
L 624.412922 376.99323 
L 625.239015 379.12767 
L 626.065108 379.12767 
L 626.891201 384.00639 
L 627.717294 383.39655 
L 628.543387 378.51783 
L 629.36948 411.44919 
L 630.195573 432.18375 
L 631.021666 413.27871 
L 631.847759 408.70491 
L 632.673851 418.15743 
L 633.499944 404.43603 
L 634.326037 394.98351 
L 635.15213 393.15399 
L 635.978223 393.45891 
L 636.804316 397.11795 
L 637.630409 399.86223 
L 638.456502 396.81303 
L 639.282595 402.91143 
L 640.108688 383.39655 
L 640.934781 390.10479 
L 641.760874 390.71463 
L 642.586967 383.70147 
L 643.41306 388.27527 
L 645.065246 410.22951 
L 645.891339 411.14427 
L 646.717432 425.47551 
L 647.543525 423.64599 
L 648.369618 420.59679 
L 649.195711 415.10823 
L 650.021804 400.16715 
L 650.847897 396.50811 
L 651.67399 396.50811 
L 652.500083 394.98351 
L 653.326176 399.55731 
L 654.152269 407.79015 
L 654.978362 403.82619 
L 655.804455 414.80331 
L 656.630548 432.79359 
L 657.456641 442.24611 
L 658.282734 434.62311 
L 659.108827 437.36739 
L 659.93492 443.16087 
L 660.761013 444.99039 
L 661.587106 440.41659 
L 662.413199 432.79359 
L 663.239292 441.33135 
L 664.065385 452.30847 
L 664.891478 449.86911 
L 665.717571 454.74783 
L 666.543664 452.91831 
L 668.19585 448.34451 
L 669.021943 451.39371 
L 669.848036 446.51499 
L 670.674129 439.19691 
L 671.500222 443.16087 
L 672.326315 443.77071 
L 673.152408 448.95435 
L 673.978501 434.92803 
L 674.804594 423.95091 
L 675.630687 421.51155 
L 676.45678 416.02299 
L 677.282873 420.29187 
L 678.108966 422.42631 
L 678.935059 416.93775 
L 679.761152 408.09507 
L 680.587245 419.37711 
L 681.413338 419.68203 
L 682.239431 417.54759 
L 683.065524 419.37711 
L 683.891617 425.17059 
L 685.543803 422.12139 
L 686.369896 429.13455 
L 687.195989 423.95091 
L 688.848175 434.31819 
L 689.674268 434.62311 
L 690.500361 449.56419 
L 691.326454 439.80675 
L 692.152547 441.63627 
L 692.97864 438.28215 
L 693.804733 436.14771 
L 694.630826 429.13455 
L 695.456919 433.70835 
L 696.283012 433.40343 
L 697.109105 437.97723 
L 697.935198 434.92803 
L 698.761291 433.40343 
L 699.587384 431.57391 
L 700.413477 441.63627 
L 701.23957 447.73467 
L 702.065663 446.51499 
L 702.891756 444.99039 
L 703.717849 444.68547 
L 704.543942 455.35767 
L 705.370035 456.27243 
L 706.196128 452.61339 
L 707.022221 452.00355 
L 707.848314 444.68547 
L 708.674407 428.52471 
L 709.5005 426.08535 
L 710.326593 426.08535 
L 711.152686 428.82963 
L 711.978779 427.60995 
L 712.804872 430.96407 
L 713.630965 433.40343 
L 714.457058 430.35423 
L 715.283151 430.65915 
L 716.109244 436.14771 
L 716.935337 429.74439 
L 717.76143 428.21979 
L 718.587523 427.00011 
L 719.413616 427.60995 
L 720.239709 417.85251 
L 721.065802 413.27871 
L 721.891895 417.24267 
L 722.717988 410.83935 
L 723.54408 414.49839 
L 724.370173 413.88855 
L 725.196266 410.53443 
L 726.022359 413.58363 
L 726.848452 407.79015 
L 727.674545 404.74095 
L 727.674545 404.74095 
" style="fill:none;stroke:#000000;stroke-linecap:square;stroke-width:2.8;"/>
   </g>
   <g id="patch_3">
    <path d="M 45.9 500.79075 
L 45.9 12.91875 
" style="fill:none;stroke:#000000;stroke-linecap:square;stroke-linejoin:miter;stroke-width:0.8;"/>
   </g>
   <g id="patch_4">
    <path d="M 45.9 500.79075 
L 760.14 500.79075 
" style="fill:none;stroke:#000000;stroke-linecap:square;stroke-linejoin:miter;stroke-width:0.8;"/>
   </g>
   <g id="legend_1">
    <g id="line2d_32">
     <path d="M 524.94 34.46875 
L 556.94 34.46875 
" style="fill:none;stroke:#000000;stroke-linecap:square;stroke-width:2.8;"/>
    </g>
    <g id="line2d_33"/>
    <g id="text_17">
     <!-- 美国长期国债到期收益率 -->
     <defs>
      <path d="M 51.5625 28.125 
Q 50.78125 25.78125 50 23.4375 
L 75 23.4375 
L 80.46875 28.515625 
L 87.5 21.09375 
L 52.734375 21.09375 
Q 58.59375 12.890625 68.15625 6.4375 
Q 77.734375 0 94.921875 -1.171875 
L 94.921875 -2.734375 
Q 89.453125 -3.125 87.109375 -8.984375 
Q 72.65625 -4.296875 64.0625 3.515625 
Q 55.46875 11.328125 50.78125 21.09375 
L 49.21875 21.09375 
Q 42.578125 3.90625 31.828125 -1.75 
Q 21.09375 -7.421875 5.46875 -9.765625 
L 5.078125 -8.59375 
Q 17.1875 -5.46875 27.140625 0 
Q 37.109375 5.46875 43.359375 21.09375 
L 21.484375 21.09375 
Q 16.40625 21.09375 12.109375 19.921875 
L 8.59375 23.4375 
L 44.140625 23.4375 
Q 45.3125 29.296875 46.09375 35.15625 
L 55.078125 30.859375 
z
M 66.40625 75.390625 
Q 61.71875 70.3125 57.03125 65.234375 
L 74.21875 65.234375 
L 80.46875 70.3125 
L 87.5 62.890625 
L 51.5625 62.890625 
L 51.5625 51.171875 
L 70.3125 51.171875 
L 75.78125 56.25 
L 82.8125 48.828125 
L 51.5625 48.828125 
L 51.5625 37.890625 
L 80.46875 37.890625 
L 86.328125 43.359375 
L 93.75 35.546875 
L 17.578125 35.546875 
Q 12.5 35.546875 8.203125 34.375 
L 4.6875 37.890625 
L 46.09375 37.890625 
L 46.09375 48.828125 
L 28.515625 48.828125 
Q 23.4375 48.828125 19.140625 47.65625 
L 15.625 51.171875 
L 46.09375 51.171875 
L 46.09375 62.890625 
L 23.4375 62.890625 
Q 18.359375 62.890625 14.0625 61.71875 
L 10.546875 65.234375 
L 36.328125 65.234375 
Q 35.15625 71.09375 28.515625 79.296875 
L 29.6875 80.46875 
Q 39.84375 75.78125 40.625 74.015625 
Q 41.40625 72.265625 41.40625 71.09375 
Q 41.40625 68.359375 39.0625 65.234375 
L 55.078125 65.234375 
Q 58.59375 72.65625 62.109375 82.03125 
L 70.3125 76.5625 
z
" id="SimSun-7f8e"/>
      <path d="M 24.21875 64.84375 
L 66.40625 64.84375 
L 71.09375 69.53125 
L 78.125 62.5 
L 52.34375 62.5 
L 52.34375 44.140625 
L 62.890625 44.140625 
L 67.578125 48.828125 
L 74.609375 41.796875 
L 52.34375 41.796875 
L 52.34375 16.015625 
L 65.625 16.015625 
L 71.09375 21.484375 
L 78.90625 13.671875 
L 34.765625 13.671875 
Q 29.6875 13.671875 25.390625 12.5 
L 21.875 16.015625 
L 46.875 16.015625 
L 46.875 41.796875 
L 36.328125 41.796875 
L 30.859375 40.625 
L 27.34375 44.140625 
L 46.875 44.140625 
L 46.875 62.5 
L 33.203125 62.5 
L 27.734375 61.328125 
z
M 56.640625 38.671875 
Q 65.234375 34.765625 67.765625 32.421875 
Q 70.3125 30.078125 70.3125 27.734375 
Q 70.3125 25.78125 69.140625 23.625 
Q 67.96875 21.484375 67.1875 21.484375 
Q 66.015625 21.484375 64.84375 25 
Q 62.890625 30.078125 55.46875 37.5 
z
M 13.671875 -8.59375 
Q 14.0625 0 14.0625 8.203125 
L 14.0625 63.671875 
Q 14.0625 71.09375 13.671875 80.859375 
L 19.53125 77.34375 
L 80.46875 77.34375 
L 83.59375 80.859375 
L 89.84375 75.78125 
L 86.328125 73.4375 
L 86.328125 11.71875 
Q 86.328125 3.90625 86.71875 -4.296875 
L 80.859375 -6.640625 
L 80.859375 1.171875 
L 19.53125 1.171875 
L 19.53125 -5.859375 
z
M 19.53125 75 
L 19.53125 3.515625 
L 80.859375 3.515625 
L 80.859375 75 
z
" id="SimSun-56fd"/>
      <path d="M 26.171875 40.625 
Q 26.171875 63.28125 26.171875 67.765625 
Q 26.171875 72.265625 25.78125 80.859375 
L 35.15625 76.5625 
L 32.03125 73.4375 
L 32.03125 40.625 
L 78.90625 40.625 
L 85.546875 46.484375 
L 92.578125 38.28125 
L 48.4375 38.28125 
Q 55.46875 24.21875 67.765625 15.625 
Q 80.078125 7.03125 95.3125 5.078125 
L 95.3125 3.515625 
Q 89.0625 3.515625 85.9375 -1.953125 
Q 73.828125 2.34375 62.890625 12.109375 
Q 51.953125 21.875 46.484375 38.28125 
L 32.03125 38.28125 
L 32.03125 1.171875 
Q 43.75 6.25 55.859375 11.328125 
L 56.640625 9.375 
Q 36.328125 -1.171875 29.296875 -8.203125 
L 24.21875 -1.953125 
Q 26.171875 0.78125 26.171875 3.90625 
L 26.171875 38.28125 
L 17.1875 38.28125 
Q 12.109375 38.28125 7.8125 37.109375 
L 4.296875 40.625 
z
M 69.921875 79.6875 
L 77.34375 72.65625 
L 72.265625 70.703125 
Q 50.78125 51.953125 35.9375 44.921875 
L 35.15625 46.484375 
Q 47.65625 55.078125 56.4375 63.671875 
Q 65.234375 72.265625 69.921875 79.6875 
z
" id="SimSun-957f"/>
      <path d="M 24.609375 62.109375 
L 24.609375 51.953125 
L 40.625 51.953125 
L 40.625 62.109375 
z
M 24.609375 49.609375 
L 24.609375 37.890625 
L 40.625 37.890625 
L 40.625 49.609375 
z
M 24.609375 35.546875 
L 24.609375 23.4375 
L 40.625 23.4375 
L 40.625 35.546875 
z
M 19.140625 64.453125 
Q 19.140625 74.21875 18.75 80.859375 
L 27.734375 75.78125 
L 24.609375 73.4375 
L 24.609375 64.453125 
L 40.625 64.453125 
Q 40.625 71.484375 40.234375 80.859375 
L 49.21875 76.171875 
L 46.09375 73.828125 
L 46.09375 64.453125 
L 47.265625 64.453125 
L 51.5625 68.75 
L 58.203125 62.109375 
L 46.09375 62.109375 
L 46.09375 23.4375 
L 46.484375 23.4375 
L 50.78125 27.734375 
L 57.421875 21.09375 
L 14.84375 21.09375 
L 9.375 20.3125 
L 6.25 23.4375 
L 19.140625 23.4375 
L 19.140625 62.109375 
L 15.625 62.109375 
L 10.15625 61.328125 
L 7.03125 64.453125 
z
M 24.21875 19.53125 
L 31.25 13.28125 
L 27.734375 12.109375 
Q 17.1875 -0.390625 5.859375 -7.421875 
L 5.078125 -6.25 
Q 10.9375 -0.78125 15.8125 5.46875 
Q 20.703125 11.71875 24.21875 19.53125 
z
M 37.109375 17.96875 
Q 46.484375 12.890625 48.046875 10.9375 
Q 49.609375 8.984375 49.609375 7.421875 
Q 49.609375 5.46875 48.4375 3.515625 
Q 47.265625 1.5625 46.484375 1.5625 
Q 45.3125 1.5625 44.140625 4.6875 
Q 42.1875 9.765625 36.328125 17.1875 
z
M 66.015625 71.09375 
L 66.015625 51.5625 
L 85.15625 51.5625 
L 85.15625 71.09375 
z
M 66.015625 49.21875 
Q 66.015625 38.28125 65.625 29.296875 
L 85.15625 29.296875 
L 85.15625 49.21875 
z
M 71.09375 0.78125 
Q 78.515625 -0.390625 81.828125 -0.578125 
Q 85.15625 -0.78125 85.15625 3.515625 
L 85.15625 26.953125 
L 65.625 26.953125 
Q 64.84375 13.28125 58.390625 4.6875 
Q 51.953125 -3.90625 42.1875 -9.765625 
L 41.40625 -8.59375 
Q 48.046875 -3.125 52.34375 3.3125 
Q 56.640625 9.765625 58.59375 18.359375 
Q 60.546875 26.953125 60.546875 46.875 
Q 60.546875 66.796875 60.15625 76.953125 
L 66.015625 73.4375 
L 84.375 73.4375 
L 87.109375 77.34375 
L 93.359375 72.65625 
L 90.625 69.921875 
L 90.625 1.953125 
Q 91.015625 -5.859375 82.03125 -8.984375 
Q 82.03125 -3.90625 71.09375 -0.78125 
z
" id="SimSun-671f"/>
      <path d="M 34.375 70.3125 
L 58.59375 70.3125 
Q 58.59375 74.609375 58.203125 81.640625 
L 67.1875 77.734375 
L 63.671875 75.390625 
L 63.671875 70.3125 
L 78.90625 70.3125 
L 83.59375 75 
L 90.625 67.96875 
L 63.671875 67.96875 
L 63.671875 59.375 
L 74.609375 59.375 
L 78.90625 63.671875 
L 85.546875 57.03125 
L 63.671875 57.03125 
L 63.671875 48.4375 
L 82.8125 48.4375 
L 87.5 53.125 
L 94.53125 46.09375 
L 41.40625 46.09375 
Q 36.328125 46.09375 32.03125 44.921875 
L 28.515625 48.4375 
L 58.59375 48.4375 
L 58.59375 57.03125 
L 51.953125 57.03125 
Q 46.875 57.03125 42.578125 55.859375 
L 39.0625 59.375 
L 58.59375 59.375 
L 58.59375 67.96875 
L 47.265625 67.96875 
Q 42.1875 67.96875 37.890625 66.796875 
z
M 82.8125 19.140625 
Q 82.8125 17.1875 83.203125 10.9375 
L 77.734375 8.203125 
L 77.734375 36.328125 
L 45.703125 36.328125 
L 45.703125 9.765625 
L 40.234375 7.03125 
Q 40.625 12.5 40.625 24.609375 
Q 40.625 36.71875 40.234375 41.796875 
L 45.703125 38.671875 
L 77.34375 38.671875 
L 80.859375 42.1875 
L 86.328125 37.5 
L 82.8125 35.15625 
z
M 30.078125 -8.59375 
Q 41.015625 -5.46875 47.265625 -1.171875 
Q 53.515625 3.125 56.046875 11.328125 
Q 58.59375 19.53125 58.203125 32.8125 
L 66.796875 28.90625 
L 63.671875 26.5625 
Q 63.671875 8.984375 56.046875 1.359375 
Q 48.4375 -6.25 30.46875 -10.15625 
z
M 64.0625 7.03125 
L 64.453125 8.203125 
Q 81.25 3.90625 85.734375 1.171875 
Q 90.234375 -1.5625 89.84375 -5.078125 
Q 89.453125 -8.59375 87.890625 -8.59375 
Q 86.71875 -8.59375 83.984375 -5.859375 
Q 78.90625 -0.390625 64.0625 7.03125 
z
M 26.5625 81.640625 
L 34.375 76.953125 
Q 31.25 75 28.703125 69.921875 
Q 26.171875 64.84375 22.265625 56.640625 
L 27.734375 53.515625 
L 24.21875 51.5625 
L 24.21875 -7.03125 
L 18.75 -9.375 
Q 19.140625 5.078125 19.140625 19.140625 
L 19.140625 49.609375 
Q 13.28125 40.625 5.078125 32.421875 
L 4.296875 33.59375 
Q 12.109375 44.53125 17.375 56.25 
Q 22.65625 67.96875 26.5625 81.640625 
z
" id="SimSun-503a"/>
      <path d="M 30.859375 26.953125 
L 30.859375 45.3125 
Q 16.796875 43.359375 14.0625 41.015625 
L 10.546875 48.046875 
Q 16.015625 48.4375 21.875 55.859375 
Q 27.734375 63.28125 31.25 71.09375 
L 21.09375 71.09375 
Q 16.015625 71.09375 11.71875 69.921875 
L 8.203125 73.4375 
L 47.65625 73.4375 
L 52.734375 78.515625 
L 60.15625 71.09375 
L 32.8125 71.09375 
L 39.84375 66.796875 
Q 35.15625 65.234375 30.078125 59.765625 
Q 24.609375 53.90625 17.96875 48.046875 
L 49.21875 48.828125 
Q 45.703125 54.296875 40.234375 60.15625 
L 41.40625 61.328125 
Q 57.8125 50 58.59375 46.09375 
Q 59.375 42.1875 57.421875 40.234375 
Q 55.46875 38.28125 54.6875 38.28125 
Q 53.90625 38.28125 53.515625 39.84375 
Q 52.34375 42.578125 50 46.875 
Q 41.40625 46.09375 33.203125 45.3125 
L 39.453125 42.1875 
L 36.328125 39.453125 
L 36.328125 26.953125 
L 46.875 26.953125 
L 51.5625 31.640625 
L 58.59375 24.609375 
L 36.328125 24.609375 
L 36.328125 5.859375 
L 58.59375 10.15625 
L 58.984375 8.203125 
Q 14.453125 -3.125 10.9375 -6.640625 
L 6.640625 1.171875 
Q 13.28125 1.953125 30.859375 4.6875 
L 30.859375 24.609375 
L 16.015625 24.609375 
L 11.328125 23.828125 
L 8.203125 26.953125 
z
M 71.09375 60.9375 
L 71.09375 24.609375 
Q 71.09375 20.703125 71.484375 14.0625 
L 65.625 11.71875 
Q 66.015625 24.609375 66.015625 40.8125 
Q 66.015625 57.03125 65.625 68.359375 
L 74.609375 63.671875 
z
M 68.359375 -1.171875 
L 68.359375 0.78125 
Q 74.21875 0 79.296875 0 
Q 82.03125 0 83.59375 0.578125 
Q 85.15625 1.171875 84.765625 6.25 
L 84.765625 67.578125 
Q 84.765625 73.4375 84.375 80.859375 
L 92.96875 76.953125 
L 89.84375 74.21875 
L 89.84375 2.734375 
Q 90.234375 -7.03125 81.25 -9.765625 
Q 80.46875 -3.90625 68.359375 -1.171875 
z
" id="SimSun-5230"/>
      <path d="M 51.953125 56.25 
Q 55.859375 32.8125 65.625 18.75 
Q 71.875 30.46875 75.78125 56.25 
z
M 53.125 82.421875 
L 62.890625 77.734375 
L 58.984375 75.78125 
Q 55.859375 68.359375 51.953125 58.59375 
L 82.03125 58.59375 
L 87.109375 63.671875 
L 94.53125 56.25 
L 81.640625 56.25 
Q 77.734375 31.25 69.140625 14.0625 
Q 82.8125 -0.390625 96.09375 -1.171875 
L 96.09375 -2.734375 
Q 89.84375 -3.125 87.109375 -8.203125 
Q 74.21875 -0.78125 65.625 10.15625 
Q 52.34375 -2.734375 35.9375 -9.375 
L 35.15625 -8.203125 
Q 50.390625 -0.390625 62.5 14.0625 
Q 51.953125 32.8125 50.390625 55.46875 
Q 44.921875 42.578125 37.890625 32.8125 
L 36.71875 33.59375 
Q 47.65625 54.6875 53.125 82.421875 
z
M 8.984375 24.609375 
L 8.984375 48.4375 
Q 8.984375 56.25 8.59375 64.453125 
L 17.578125 60.15625 
L 14.0625 57.421875 
L 14.0625 22.265625 
L 27.34375 26.953125 
Q 27.34375 67.96875 26.953125 82.03125 
L 35.9375 77.734375 
L 32.421875 74.609375 
L 32.421875 -7.03125 
L 26.953125 -10.15625 
Q 27.34375 5.859375 27.34375 25 
Q 15.234375 18.359375 11.71875 12.890625 
L 7.421875 18.75 
Q 9.375 20.703125 8.984375 24.609375 
z
" id="SimSun-6536"/>
      <path d="M 60.9375 26.953125 
L 60.9375 -1.171875 
L 73.828125 -1.171875 
L 73.828125 26.953125 
z
M 19.921875 32.8125 
L 25.390625 29.296875 
L 73.046875 29.296875 
L 76.171875 33.203125 
L 82.03125 28.125 
L 78.90625 25.78125 
L 78.90625 -1.171875 
L 82.8125 -1.171875 
L 88.28125 4.296875 
L 95.3125 -3.515625 
L 17.578125 -3.515625 
Q 12.5 -3.515625 8.203125 -4.6875 
L 4.6875 -1.171875 
L 20.3125 -1.171875 
Q 20.3125 23.046875 19.921875 32.8125 
z
M 25.390625 26.953125 
L 25.390625 -1.171875 
L 38.28125 -1.171875 
L 38.28125 26.953125 
z
M 43.359375 26.953125 
L 43.359375 -1.171875 
L 55.859375 -1.171875 
L 55.859375 26.953125 
z
M 38.671875 55.46875 
L 45.3125 49.21875 
Q 40.234375 47.265625 32.03125 41.796875 
Q 23.828125 35.9375 11.328125 31.25 
L 10.546875 32.421875 
Q 29.296875 42.96875 38.671875 55.46875 
z
M 57.8125 53.90625 
Q 69.140625 50 77.921875 46.09375 
Q 86.71875 42.1875 85.9375 36.90625 
Q 85.15625 31.640625 83.59375 31.640625 
Q 82.421875 31.640625 81.25 33.203125 
Q 77.734375 37.109375 72.84375 41.40625 
Q 67.96875 45.703125 57.03125 52.734375 
z
M 26.953125 78.125 
L 27.734375 79.296875 
Q 37.109375 75 40.421875 71.671875 
Q 43.75 68.359375 43.75 66.015625 
Q 43.75 63.28125 40.625 59.765625 
L 56.640625 59.765625 
Q 65.234375 75 66.796875 81.640625 
L 75.390625 76.171875 
Q 69.921875 73.828125 58.984375 59.765625 
L 76.5625 59.765625 
L 82.421875 65.625 
L 90.234375 57.421875 
L 24.21875 57.421875 
Q 19.140625 57.421875 14.84375 56.25 
L 11.328125 59.765625 
L 37.890625 59.765625 
Q 36.328125 68.359375 26.953125 78.125 
z
" id="SimSun-76ca"/>
      <path d="M 13.671875 58.203125 
L 14.453125 59.375 
Q 21.484375 57.03125 24.21875 55.078125 
Q 26.953125 53.125 26.953125 50.78125 
Q 26.953125 49.609375 25.96875 47.265625 
Q 25 44.921875 24.21875 44.921875 
Q 23.4375 44.921875 22.265625 47.65625 
Q 19.921875 51.953125 13.671875 58.203125 
z
M 8.59375 28.90625 
Q 13.671875 30.078125 31.25 40.234375 
L 32.03125 39.0625 
Q 26.171875 34.765625 20.890625 30.265625 
Q 15.625 25.78125 13.671875 22.265625 
z
M 81.25 53.90625 
Q 75 49.21875 66.796875 43.75 
L 66.015625 44.921875 
Q 74.609375 53.125 78.90625 61.328125 
L 85.15625 55.078125 
z
M 67.578125 39.0625 
L 67.96875 40.234375 
Q 81.640625 36.71875 83.984375 34.5625 
Q 86.328125 32.421875 86.328125 29.6875 
Q 86.328125 27.734375 85.734375 25.96875 
Q 85.15625 24.21875 84.375 24.21875 
Q 83.203125 24.21875 81.25 28.125 
Q 77.734375 33.59375 67.578125 39.0625 
z
M 49.21875 60.9375 
Q 39.0625 51.5625 35.9375 49.21875 
Q 43.75 49.21875 53.125 49.609375 
Q 57.8125 54.6875 60.15625 59.765625 
L 66.40625 53.90625 
Q 63.28125 53.125 53.90625 44.140625 
Q 44.53125 35.15625 38.671875 30.46875 
Q 49.21875 30.859375 60.15625 31.25 
Q 58.59375 33.984375 55.46875 38.28125 
L 56.25 39.0625 
Q 63.28125 35.15625 65.625 32.8125 
Q 67.96875 30.46875 67.96875 28.90625 
Q 67.96875 27.734375 66.40625 25.390625 
Q 64.84375 23.046875 64.0625 23.046875 
Q 63.671875 23.046875 63.28125 24.21875 
Q 62.5 26.5625 60.9375 29.6875 
Q 57.03125 29.296875 48.046875 28.125 
L 54.6875 24.21875 
L 51.953125 22.265625 
L 51.953125 15.234375 
L 83.203125 15.234375 
L 88.28125 20.3125 
L 95.3125 12.890625 
L 51.953125 12.890625 
Q 51.953125 -4.296875 52.34375 -8.203125 
L 46.484375 -10.15625 
Q 46.875 0 46.875 12.890625 
L 17.578125 12.890625 
Q 12.5 12.890625 8.203125 11.71875 
L 4.6875 15.234375 
L 46.875 15.234375 
L 46.875 27.734375 
Q 38.28125 26.5625 34.375 23.828125 
L 30.46875 30.46875 
Q 35.546875 30.46875 41.796875 36.71875 
Q 48.046875 42.96875 51.953125 47.65625 
Q 37.5 46.09375 33.59375 43.359375 
L 30.46875 49.609375 
Q 33.59375 49.21875 38.671875 55.859375 
Q 43.75 62.5 45.3125 66.015625 
L 22.65625 66.015625 
Q 17.578125 66.015625 13.28125 64.84375 
L 9.765625 68.359375 
L 48.4375 68.359375 
Q 47.65625 75 41.796875 81.25 
L 42.578125 82.03125 
Q 50.390625 78.90625 52.140625 76.75 
Q 53.90625 74.609375 53.90625 73.4375 
Q 53.90625 71.09375 50.78125 68.359375 
L 78.515625 68.359375 
L 83.59375 73.046875 
L 90.234375 66.015625 
L 47.65625 66.015625 
L 52.734375 61.71875 
z
" id="SimSun-7387"/>
     </defs>
     <g transform="translate(569.74 40.06875)scale(0.16 -0.16)">
      <use xlink:href="#SimSun-7f8e"/>
      <use x="100" xlink:href="#SimSun-56fd"/>
      <use x="200" xlink:href="#SimSun-957f"/>
      <use x="300" xlink:href="#SimSun-671f"/>
      <use x="400" xlink:href="#SimSun-56fd"/>
      <use x="500" xlink:href="#SimSun-503a"/>
      <use x="600" xlink:href="#SimSun-5230"/>
      <use x="700" xlink:href="#SimSun-671f"/>
      <use x="800" xlink:href="#SimSun-6536"/>
      <use x="900" xlink:href="#SimSun-76ca"/>
      <use x="1000" xlink:href="#SimSun-7387"/>
     </g>
    </g>
   </g>
  </g>
 </g>
 <defs>
  <clipPath id="p1b8ddb997a">
   <rect height="487.872" width="714.24" x="45.9" y="12.91875"/>
  </clipPath>
 </defs>
</svg>
