<?xml version="1.0" encoding="utf-8" standalone="no"?>
<!DOCTYPE svg PUBLIC "-//W3C//DTD SVG 1.1//EN"
  "http://www.w3.org/Graphics/SVG/1.1/DTD/svg11.dtd">
<!-- Created with matplotlib (http://matplotlib.org/) -->
<svg height="537.2395pt" version="1.1" viewBox="0 0 793.075 537.2395" width="793.075pt" xmlns="http://www.w3.org/2000/svg" xmlns:xlink="http://www.w3.org/1999/xlink">
 <defs>
  <style type="text/css">
*{stroke-linecap:butt;stroke-linejoin:round;}
  </style>
 </defs>
 <g id="figure_1">
  <g id="patch_1">
   <path d="M 0 537.2395 
L 793.075 537.2395 
L 793.075 0 
L 0 0 
z
" style="fill:#ffffff;"/>
  </g>
  <g id="axes_1">
   <g id="patch_2">
    <path d="M 68.135 498.572 
L 782.375 498.572 
L 782.375 10.7 
L 68.135 10.7 
z
" style="fill:#ffffff;"/>
   </g>
   <g id="matplotlib.axis_1">
    <g id="xtick_1">
     <g id="line2d_1">
      <defs>
       <path d="M 0 0 
L 0 3.5 
" id="m3ae635c54c" style="stroke:#000000;stroke-width:1.6;"/>
      </defs>
      <g>
       <use style="stroke:#000000;stroke-width:1.6;" x="109.843289" xlink:href="#m3ae635c54c" y="498.572"/>
      </g>
     </g>
     <g id="text_1">
      <!-- 1949 -->
      <defs>
       <path d="M 52.59375 0 
L 9.234375 0 
L 9.234375 8.25 
L 26.171875 8.25 
L 26.171875 65.671875 
L 8.796875 60.640625 
L 8.796875 69.4375 
L 35.6875 77.25 
L 35.6875 8.25 
L 52.59375 8.25 
z
" id="MicrosoftYaHei-31"/>
       <path d="M 9.03125 10.25 
Q 15.28125 6.640625 22.515625 6.640625 
Q 32.671875 6.640625 38.25 14.640625 
Q 43.84375 22.65625 43.84375 37.40625 
Q 43.75 37.3125 43.65625 37.40625 
Q 38.671875 27.9375 26.90625 27.9375 
Q 17.390625 27.9375 11.140625 34.46875 
Q 4.890625 41.015625 4.890625 51.46875 
Q 4.890625 62.59375 11.71875 69.75 
Q 18.5625 76.90625 29.4375 76.90625 
Q 40.71875 76.90625 47.0625 68.046875 
Q 53.421875 59.1875 53.421875 42.234375 
Q 53.421875 21.296875 45.21875 10.015625 
Q 37.015625 -1.265625 22.515625 -1.265625 
Q 14.546875 -1.265625 9.03125 1.3125 
z
M 14.546875 52.6875 
Q 14.546875 45.0625 18.453125 40.59375 
Q 22.359375 36.140625 29.25 36.140625 
Q 35.203125 36.140625 39.25 40.203125 
Q 43.3125 44.28125 43.3125 50.09375 
Q 43.3125 58.25 39.28125 63.59375 
Q 35.25 68.953125 28.65625 68.953125 
Q 22.5625 68.953125 18.546875 64.3125 
Q 14.546875 59.671875 14.546875 52.6875 
z
" id="MicrosoftYaHei-39"/>
       <path d="M 55.078125 19.625 
L 45.40625 19.625 
L 45.40625 0 
L 36.140625 0 
L 36.140625 19.625 
L 0.875 19.625 
L 0.875 25.828125 
L 34.328125 75.640625 
L 45.40625 75.640625 
L 45.40625 27.203125 
L 55.078125 27.203125 
z
M 36.140625 27.203125 
L 36.140625 58.890625 
Q 36.140625 62.25 36.328125 66.65625 
L 36.140625 66.65625 
Q 35.453125 64.796875 33.25 60.84375 
L 10.75 27.203125 
z
" id="MicrosoftYaHei-34"/>
      </defs>
      <g transform="translate(91.078289 526.062)scale(0.16 -0.16)">
       <use xlink:href="#MicrosoftYaHei-31"/>
       <use x="58.642578" xlink:href="#MicrosoftYaHei-39"/>
       <use x="117.285156" xlink:href="#MicrosoftYaHei-34"/>
       <use x="175.927734" xlink:href="#MicrosoftYaHei-39"/>
      </g>
     </g>
    </g>
    <g id="xtick_2">
     <g id="line2d_2">
      <g>
       <use style="stroke:#000000;stroke-width:1.6;" x="202.271629" xlink:href="#m3ae635c54c" y="498.572"/>
      </g>
     </g>
     <g id="text_2">
      <!-- 1959 -->
      <defs>
       <path d="M 8.640625 11.625 
Q 16.265625 6.640625 24.515625 6.640625 
Q 32.328125 6.640625 37.109375 11 
Q 41.890625 15.375 41.890625 22.609375 
Q 41.890625 29.890625 37.03125 33.890625 
Q 32.171875 37.890625 22.953125 37.890625 
Q 18.5 37.890625 10.984375 37.203125 
L 10.984375 75.640625 
L 48.1875 75.640625 
L 48.1875 67.1875 
L 19.875 67.1875 
L 19.875 45.796875 
Q 24.125 46.046875 26.265625 46.046875 
Q 38.234375 46.046875 44.921875 39.984375 
Q 51.609375 33.9375 51.609375 23.296875 
Q 51.609375 12.3125 44.421875 5.515625 
Q 37.25 -1.265625 24.609375 -1.265625 
Q 14.015625 -1.265625 8.640625 1.859375 
z
" id="MicrosoftYaHei-35"/>
      </defs>
      <g transform="translate(183.506629 526.062)scale(0.16 -0.16)">
       <use xlink:href="#MicrosoftYaHei-31"/>
       <use x="58.642578" xlink:href="#MicrosoftYaHei-39"/>
       <use x="117.285156" xlink:href="#MicrosoftYaHei-35"/>
       <use x="175.927734" xlink:href="#MicrosoftYaHei-39"/>
      </g>
     </g>
    </g>
    <g id="xtick_3">
     <g id="line2d_3">
      <g>
       <use style="stroke:#000000;stroke-width:1.6;" x="294.699969" xlink:href="#m3ae635c54c" y="498.572"/>
      </g>
     </g>
     <g id="text_3">
      <!-- 1969 -->
      <defs>
       <path d="M 49.703125 65.921875 
Q 43.796875 68.953125 37.359375 68.953125 
Q 27.546875 68.953125 21.578125 60.40625 
Q 15.625 51.859375 15.53125 37.0625 
L 15.765625 37.0625 
Q 21.140625 47.46875 32.90625 47.46875 
Q 42.71875 47.46875 48.578125 41.0625 
Q 54.4375 34.671875 54.4375 24.078125 
Q 54.4375 12.984375 47.671875 5.859375 
Q 40.921875 -1.265625 30.421875 -1.265625 
Q 18.890625 -1.265625 12.328125 7.734375 
Q 5.765625 16.75 5.765625 33.296875 
Q 5.765625 53.328125 14.375 65.109375 
Q 23 76.90625 37.0625 76.90625 
Q 45.125 76.90625 49.703125 74.703125 
z
M 16.109375 24.75 
Q 16.109375 17.28125 20.09375 11.953125 
Q 24.078125 6.640625 30.671875 6.640625 
Q 36.921875 6.640625 40.828125 11.234375 
Q 44.734375 15.828125 44.734375 23.046875 
Q 44.734375 30.859375 41.046875 35.203125 
Q 37.359375 39.546875 30.5625 39.546875 
Q 24.125 39.546875 20.109375 35.15625 
Q 16.109375 30.765625 16.109375 24.75 
z
" id="MicrosoftYaHei-36"/>
      </defs>
      <g transform="translate(275.934969 526.062)scale(0.16 -0.16)">
       <use xlink:href="#MicrosoftYaHei-31"/>
       <use x="58.642578" xlink:href="#MicrosoftYaHei-39"/>
       <use x="117.285156" xlink:href="#MicrosoftYaHei-36"/>
       <use x="175.927734" xlink:href="#MicrosoftYaHei-39"/>
      </g>
     </g>
    </g>
    <g id="xtick_4">
     <g id="line2d_4">
      <g>
       <use style="stroke:#000000;stroke-width:1.6;" x="387.12831" xlink:href="#m3ae635c54c" y="498.572"/>
      </g>
     </g>
     <g id="text_4">
      <!-- 1979 -->
      <defs>
       <path d="M 53.765625 72.3125 
L 24.171875 0 
L 14.265625 0 
L 42.390625 67.1875 
L 4.59375 67.1875 
L 4.59375 75.640625 
L 53.765625 75.640625 
z
" id="MicrosoftYaHei-37"/>
      </defs>
      <g transform="translate(368.36331 526.062)scale(0.16 -0.16)">
       <use xlink:href="#MicrosoftYaHei-31"/>
       <use x="58.642578" xlink:href="#MicrosoftYaHei-39"/>
       <use x="117.285156" xlink:href="#MicrosoftYaHei-37"/>
       <use x="175.927734" xlink:href="#MicrosoftYaHei-39"/>
      </g>
     </g>
    </g>
    <g id="xtick_5">
     <g id="line2d_5">
      <g>
       <use style="stroke:#000000;stroke-width:1.6;" x="479.55665" xlink:href="#m3ae635c54c" y="498.572"/>
      </g>
     </g>
     <g id="text_5">
      <!-- 1989 -->
      <defs>
       <path d="M 21.390625 39.796875 
Q 7.859375 46.09375 7.859375 58.0625 
Q 7.859375 66.40625 14.203125 71.65625 
Q 20.5625 76.90625 30.421875 76.90625 
Q 39.453125 76.90625 45.3125 71.96875 
Q 51.171875 67.046875 51.171875 59.234375 
Q 51.171875 46.625 37.0625 39.84375 
L 37.0625 39.65625 
Q 53.609375 33.6875 53.609375 19.34375 
Q 53.609375 9.90625 46.796875 4.3125 
Q 39.984375 -1.265625 27.78125 -1.265625 
Q 17.78125 -1.265625 11.46875 4.25 
Q 5.171875 9.765625 5.171875 18.5625 
Q 5.171875 33.015625 21.390625 39.59375 
z
M 41.5 58.109375 
Q 41.5 63.1875 38.328125 66.109375 
Q 35.15625 69.046875 29.734375 69.046875 
Q 24.65625 69.046875 21.09375 65.984375 
Q 17.53125 62.9375 17.53125 58.203125 
Q 17.53125 48.734375 29.390625 43.796875 
Q 41.5 48.828125 41.5 58.109375 
z
M 28.8125 35.25 
Q 14.796875 29.59375 14.796875 19.046875 
Q 14.796875 13.578125 18.890625 10.0625 
Q 23 6.546875 29.59375 6.546875 
Q 35.984375 6.546875 39.984375 10.03125 
Q 44 13.53125 44 18.75 
Q 44 29.734375 28.8125 35.25 
z
" id="MicrosoftYaHei-38"/>
      </defs>
      <g transform="translate(460.79165 526.062)scale(0.16 -0.16)">
       <use xlink:href="#MicrosoftYaHei-31"/>
       <use x="58.642578" xlink:href="#MicrosoftYaHei-39"/>
       <use x="117.285156" xlink:href="#MicrosoftYaHei-38"/>
       <use x="175.927734" xlink:href="#MicrosoftYaHei-39"/>
      </g>
     </g>
    </g>
    <g id="xtick_6">
     <g id="line2d_6">
      <g>
       <use style="stroke:#000000;stroke-width:1.6;" x="571.98499" xlink:href="#m3ae635c54c" y="498.572"/>
      </g>
     </g>
     <g id="text_6">
      <!-- 1999 -->
      <g transform="translate(553.21999 526.062)scale(0.16 -0.16)">
       <use xlink:href="#MicrosoftYaHei-31"/>
       <use x="58.642578" xlink:href="#MicrosoftYaHei-39"/>
       <use x="117.285156" xlink:href="#MicrosoftYaHei-39"/>
       <use x="175.927734" xlink:href="#MicrosoftYaHei-39"/>
      </g>
     </g>
    </g>
    <g id="xtick_7">
     <g id="line2d_7">
      <g>
       <use style="stroke:#000000;stroke-width:1.6;" x="664.413331" xlink:href="#m3ae635c54c" y="498.572"/>
      </g>
     </g>
     <g id="text_7">
      <!-- 2009 -->
      <defs>
       <path d="M 51.171875 0 
L 5.171875 0 
L 5.171875 8.296875 
L 27.15625 30.21875 
Q 36.234375 39.3125 39.3125 44.609375 
Q 42.390625 49.90625 42.390625 55.5625 
Q 42.390625 62.015625 38.765625 65.453125 
Q 35.15625 68.890625 28.328125 68.890625 
Q 18.21875 68.890625 9.03125 60.296875 
L 9.03125 70.015625 
Q 17.96875 76.90625 29.828125 76.90625 
Q 40.046875 76.90625 45.953125 71.390625 
Q 51.859375 65.875 51.859375 56.546875 
Q 51.859375 49.515625 48.0625 42.75 
Q 44.28125 35.984375 33.734375 25.53125 
L 16.5 8.6875 
L 16.5 8.5 
L 51.171875 8.5 
z
" id="MicrosoftYaHei-32"/>
       <path d="M 4.4375 36.328125 
Q 4.4375 56.34375 11.078125 66.625 
Q 17.71875 76.90625 30.328125 76.90625 
Q 54.34375 76.90625 54.34375 38.140625 
Q 54.34375 19 47.578125 8.859375 
Q 40.828125 -1.265625 28.609375 -1.265625 
Q 17.09375 -1.265625 10.765625 8.34375 
Q 4.4375 17.96875 4.4375 36.328125 
z
M 14.203125 36.765625 
Q 14.203125 6.640625 29.5 6.640625 
Q 44.53125 6.640625 44.53125 37.25 
Q 44.53125 68.953125 29.78125 68.953125 
Q 14.203125 68.953125 14.203125 36.765625 
z
" id="MicrosoftYaHei-30"/>
      </defs>
      <g transform="translate(645.648331 526.062)scale(0.16 -0.16)">
       <use xlink:href="#MicrosoftYaHei-32"/>
       <use x="58.642578" xlink:href="#MicrosoftYaHei-30"/>
       <use x="117.285156" xlink:href="#MicrosoftYaHei-30"/>
       <use x="175.927734" xlink:href="#MicrosoftYaHei-39"/>
      </g>
     </g>
    </g>
    <g id="xtick_8">
     <g id="line2d_8">
      <g>
       <use style="stroke:#000000;stroke-width:1.6;" x="756.841671" xlink:href="#m3ae635c54c" y="498.572"/>
      </g>
     </g>
     <g id="text_8">
      <!-- 2019 -->
      <g transform="translate(738.076671 526.062)scale(0.16 -0.16)">
       <use xlink:href="#MicrosoftYaHei-32"/>
       <use x="58.642578" xlink:href="#MicrosoftYaHei-30"/>
       <use x="117.285156" xlink:href="#MicrosoftYaHei-31"/>
       <use x="175.927734" xlink:href="#MicrosoftYaHei-39"/>
      </g>
     </g>
    </g>
    <g id="xtick_9">
     <g id="line2d_9">
      <defs>
       <path d="M 0 0 
L 0 2 
" id="m31ac570b91" style="stroke:#000000;stroke-width:0.8;"/>
      </defs>
      <g>
       <use style="stroke:#000000;stroke-width:0.8;" x="109.843289" xlink:href="#m31ac570b91" y="498.572"/>
      </g>
     </g>
    </g>
    <g id="xtick_10">
     <g id="line2d_10">
      <g>
       <use style="stroke:#000000;stroke-width:0.8;" x="156.057459" xlink:href="#m31ac570b91" y="498.572"/>
      </g>
     </g>
    </g>
    <g id="xtick_11">
     <g id="line2d_11">
      <g>
       <use style="stroke:#000000;stroke-width:0.8;" x="202.271629" xlink:href="#m31ac570b91" y="498.572"/>
      </g>
     </g>
    </g>
    <g id="xtick_12">
     <g id="line2d_12">
      <g>
       <use style="stroke:#000000;stroke-width:0.8;" x="248.485799" xlink:href="#m31ac570b91" y="498.572"/>
      </g>
     </g>
    </g>
    <g id="xtick_13">
     <g id="line2d_13">
      <g>
       <use style="stroke:#000000;stroke-width:0.8;" x="294.699969" xlink:href="#m31ac570b91" y="498.572"/>
      </g>
     </g>
    </g>
    <g id="xtick_14">
     <g id="line2d_14">
      <g>
       <use style="stroke:#000000;stroke-width:0.8;" x="340.914139" xlink:href="#m31ac570b91" y="498.572"/>
      </g>
     </g>
    </g>
    <g id="xtick_15">
     <g id="line2d_15">
      <g>
       <use style="stroke:#000000;stroke-width:0.8;" x="387.12831" xlink:href="#m31ac570b91" y="498.572"/>
      </g>
     </g>
    </g>
    <g id="xtick_16">
     <g id="line2d_16">
      <g>
       <use style="stroke:#000000;stroke-width:0.8;" x="433.34248" xlink:href="#m31ac570b91" y="498.572"/>
      </g>
     </g>
    </g>
    <g id="xtick_17">
     <g id="line2d_17">
      <g>
       <use style="stroke:#000000;stroke-width:0.8;" x="479.55665" xlink:href="#m31ac570b91" y="498.572"/>
      </g>
     </g>
    </g>
    <g id="xtick_18">
     <g id="line2d_18">
      <g>
       <use style="stroke:#000000;stroke-width:0.8;" x="525.77082" xlink:href="#m31ac570b91" y="498.572"/>
      </g>
     </g>
    </g>
    <g id="xtick_19">
     <g id="line2d_19">
      <g>
       <use style="stroke:#000000;stroke-width:0.8;" x="571.98499" xlink:href="#m31ac570b91" y="498.572"/>
      </g>
     </g>
    </g>
    <g id="xtick_20">
     <g id="line2d_20">
      <g>
       <use style="stroke:#000000;stroke-width:0.8;" x="618.19916" xlink:href="#m31ac570b91" y="498.572"/>
      </g>
     </g>
    </g>
    <g id="xtick_21">
     <g id="line2d_21">
      <g>
       <use style="stroke:#000000;stroke-width:0.8;" x="664.413331" xlink:href="#m31ac570b91" y="498.572"/>
      </g>
     </g>
    </g>
    <g id="xtick_22">
     <g id="line2d_22">
      <g>
       <use style="stroke:#000000;stroke-width:0.8;" x="710.627501" xlink:href="#m31ac570b91" y="498.572"/>
      </g>
     </g>
    </g>
    <g id="xtick_23">
     <g id="line2d_23">
      <g>
       <use style="stroke:#000000;stroke-width:0.8;" x="756.841671" xlink:href="#m31ac570b91" y="498.572"/>
      </g>
     </g>
    </g>
   </g>
   <g id="matplotlib.axis_2">
    <g id="ytick_1">
     <g id="line2d_24">
      <defs>
       <path d="M 0 0 
L -3.5 0 
" id="mfa29e6246f" style="stroke:#000000;stroke-width:1.6;"/>
      </defs>
      <g>
       <use style="stroke:#000000;stroke-width:1.6;" x="68.135" xlink:href="#mfa29e6246f" y="437.529599"/>
      </g>
     </g>
     <g id="text_9">
      <!-- -2.5% -->
      <defs>
       <path d="M 36.375 26.265625 
L 7.625 26.265625 
L 7.625 33.640625 
L 36.375 33.640625 
z
" id="MicrosoftYaHei-2d"/>
       <path d="M 5.8125 5.03125 
Q 5.8125 7.671875 7.609375 9.46875 
Q 9.421875 11.28125 12.109375 11.28125 
Q 14.84375 11.28125 16.640625 9.453125 
Q 18.453125 7.625 18.453125 5.03125 
Q 18.453125 2.484375 16.640625 0.65625 
Q 14.84375 -1.171875 12.0625 -1.171875 
Q 9.375 -1.171875 7.59375 0.65625 
Q 5.8125 2.484375 5.8125 5.03125 
z
" id="MicrosoftYaHei-2e"/>
       <path d="M 4.25 56.546875 
Q 4.25 65.828125 9.203125 71.296875 
Q 14.15625 76.765625 22.5625 76.765625 
Q 30.609375 76.765625 35.125 71.734375 
Q 39.65625 66.703125 39.65625 57.71875 
Q 39.65625 48.78125 34.671875 43.203125 
Q 29.6875 37.640625 21.4375 37.640625 
Q 13.625 37.640625 8.9375 42.8125 
Q 4.25 48 4.25 56.546875 
z
M 11.765625 57.03125 
Q 11.765625 50.734375 14.5 47.3125 
Q 17.234375 43.890625 21.96875 43.890625 
Q 26.859375 43.890625 29.515625 47.4375 
Q 32.171875 50.984375 32.171875 57.421875 
Q 32.171875 63.71875 29.5625 67.15625 
Q 26.953125 70.609375 22.21875 70.609375 
Q 17.390625 70.609375 14.578125 67.015625 
Q 11.765625 63.421875 11.765625 57.03125 
z
M 72.609375 75.640625 
L 24.03125 -0.484375 
L 15.875 -0.484375 
L 64.453125 75.640625 
z
M 49.5625 17.71875 
Q 49.5625 27 54.515625 32.546875 
Q 59.46875 38.09375 67.828125 38.09375 
Q 75.828125 38.09375 80.359375 33.03125 
Q 84.90625 27.984375 84.90625 18.796875 
Q 84.90625 9.90625 79.875 4.359375 
Q 74.859375 -1.171875 66.75 -1.171875 
Q 58.890625 -1.171875 54.21875 4.078125 
Q 49.5625 9.328125 49.5625 17.71875 
z
M 57.03125 18.171875 
Q 57.03125 12.015625 59.765625 8.5625 
Q 62.5 5.125 67.234375 5.125 
Q 72.125 5.125 74.78125 8.6875 
Q 77.4375 12.25 77.4375 18.65625 
Q 77.4375 25 74.78125 28.359375 
Q 72.125 31.734375 67.484375 31.734375 
Q 62.5 31.734375 59.765625 28.140625 
Q 57.03125 24.5625 57.03125 18.171875 
z
" id="MicrosoftYaHei-25"/>
      </defs>
      <g transform="translate(9.66 443.924599)scale(0.16 -0.16)">
       <use xlink:href="#MicrosoftYaHei-2d"/>
       <use x="43.261719" xlink:href="#MicrosoftYaHei-32"/>
       <use x="101.904297" xlink:href="#MicrosoftYaHei-2e"/>
       <use x="125.976562" xlink:href="#MicrosoftYaHei-35"/>
       <use x="184.619141" xlink:href="#MicrosoftYaHei-25"/>
      </g>
     </g>
    </g>
    <g id="ytick_2">
     <g id="line2d_25">
      <g>
       <use style="stroke:#000000;stroke-width:1.6;" x="68.135" xlink:href="#mfa29e6246f" y="373.769681"/>
      </g>
     </g>
     <g id="text_10">
      <!-- 0.0% -->
      <g transform="translate(16.5825 380.164681)scale(0.16 -0.16)">
       <use xlink:href="#MicrosoftYaHei-30"/>
       <use x="58.642578" xlink:href="#MicrosoftYaHei-2e"/>
       <use x="82.714844" xlink:href="#MicrosoftYaHei-30"/>
       <use x="141.357422" xlink:href="#MicrosoftYaHei-25"/>
      </g>
     </g>
    </g>
    <g id="ytick_3">
     <g id="line2d_26">
      <g>
       <use style="stroke:#000000;stroke-width:1.6;" x="68.135" xlink:href="#mfa29e6246f" y="310.009762"/>
      </g>
     </g>
     <g id="text_11">
      <!-- 2.5% -->
      <g transform="translate(16.5825 316.404762)scale(0.16 -0.16)">
       <use xlink:href="#MicrosoftYaHei-32"/>
       <use x="58.642578" xlink:href="#MicrosoftYaHei-2e"/>
       <use x="82.714844" xlink:href="#MicrosoftYaHei-35"/>
       <use x="141.357422" xlink:href="#MicrosoftYaHei-25"/>
      </g>
     </g>
    </g>
    <g id="ytick_4">
     <g id="line2d_27">
      <g>
       <use style="stroke:#000000;stroke-width:1.6;" x="68.135" xlink:href="#mfa29e6246f" y="246.249843"/>
      </g>
     </g>
     <g id="text_12">
      <!-- 5.0% -->
      <g transform="translate(16.5825 252.644843)scale(0.16 -0.16)">
       <use xlink:href="#MicrosoftYaHei-35"/>
       <use x="58.642578" xlink:href="#MicrosoftYaHei-2e"/>
       <use x="82.714844" xlink:href="#MicrosoftYaHei-30"/>
       <use x="141.357422" xlink:href="#MicrosoftYaHei-25"/>
      </g>
     </g>
    </g>
    <g id="ytick_5">
     <g id="line2d_28">
      <g>
       <use style="stroke:#000000;stroke-width:1.6;" x="68.135" xlink:href="#mfa29e6246f" y="182.489925"/>
      </g>
     </g>
     <g id="text_13">
      <!-- 7.5% -->
      <g transform="translate(16.5825 188.884925)scale(0.16 -0.16)">
       <use xlink:href="#MicrosoftYaHei-37"/>
       <use x="58.642578" xlink:href="#MicrosoftYaHei-2e"/>
       <use x="82.714844" xlink:href="#MicrosoftYaHei-35"/>
       <use x="141.357422" xlink:href="#MicrosoftYaHei-25"/>
      </g>
     </g>
    </g>
    <g id="ytick_6">
     <g id="line2d_29">
      <g>
       <use style="stroke:#000000;stroke-width:1.6;" x="68.135" xlink:href="#mfa29e6246f" y="118.730006"/>
      </g>
     </g>
     <g id="text_14">
      <!-- 10.0% -->
      <g transform="translate(7.2 125.125006)scale(0.16 -0.16)">
       <use xlink:href="#MicrosoftYaHei-31"/>
       <use x="58.642578" xlink:href="#MicrosoftYaHei-30"/>
       <use x="117.285156" xlink:href="#MicrosoftYaHei-2e"/>
       <use x="141.357422" xlink:href="#MicrosoftYaHei-30"/>
       <use x="200" xlink:href="#MicrosoftYaHei-25"/>
      </g>
     </g>
    </g>
    <g id="ytick_7">
     <g id="line2d_30">
      <g>
       <use style="stroke:#000000;stroke-width:1.6;" x="68.135" xlink:href="#mfa29e6246f" y="54.970087"/>
      </g>
     </g>
     <g id="text_15">
      <!-- 12.5% -->
      <g transform="translate(7.2 61.365087)scale(0.16 -0.16)">
       <use xlink:href="#MicrosoftYaHei-31"/>
       <use x="58.642578" xlink:href="#MicrosoftYaHei-32"/>
       <use x="117.285156" xlink:href="#MicrosoftYaHei-2e"/>
       <use x="141.357422" xlink:href="#MicrosoftYaHei-35"/>
       <use x="200" xlink:href="#MicrosoftYaHei-25"/>
      </g>
     </g>
    </g>
   </g>
   <g id="line2d_31">
    <path clip-path="url(#p004cba1f37)" d="M 100.600455 307.410908 
L 102.911163 256.915602 
L 105.221872 236.26249 
L 107.53258 274.612806 
L 109.843289 349.806153 
L 112.153997 400.349916 
L 114.464706 388.837425 
L 116.775414 412.831557 
L 119.086123 277.719189 
L 121.396831 187.692734 
L 126.018248 32.876 
L 128.328957 104.36107 
L 130.639665 140.42113 
L 132.950374 188.692489 
L 135.261082 234.227273 
L 137.571791 241.906518 
L 139.882499 281.924793 
L 142.193208 316.622941 
L 144.503916 236.900089 
L 146.814625 215.861866 
L 149.125333 200.771168 
L 151.436042 235.527975 
L 153.74675 360.385199 
L 156.057459 419.240704 
L 158.368167 435.777477 
L 160.678876 393.392433 
L 165.300293 216.499465 
L 167.611001 175.32331 
L 169.92171 169.365583 
L 172.232418 206.017335 
L 174.543127 291.723417 
L 176.853835 312.486197 
L 179.164544 349.653129 
L 183.785961 296.038689 
L 186.096669 323.243771 
L 188.407378 295.383237 
L 190.718086 364.761679 
L 193.028795 446.986471 
L 195.339503 425.277493 
L 197.650212 392.2116 
L 199.96092 305.901073 
L 202.271629 184.571048 
L 204.582337 140.994969 
L 206.893046 201.987708 
L 209.203754 256.619756 
L 211.514463 248.042772 
L 213.825171 321.282516 
L 216.13588 310.463733 
L 220.757297 390.898145 
L 223.068005 333.84832 
L 225.378714 296.961932 
L 227.689423 210.661607 
L 230.000131 180.714848 
L 232.31084 202.207042 
L 234.621548 220.636209 
L 236.932257 263.926643 
L 239.242965 282.03191 
L 241.553674 276.280765 
L 243.864382 250.927271 
L 246.175091 242.225317 
L 248.485799 215.231918 
L 250.796508 216.157712 
L 253.107216 233.023486 
L 255.417925 242.253372 
L 257.728633 234.112505 
L 260.039342 229.458031 
L 262.35005 211.875596 
L 264.660759 157.909201 
L 266.971467 157.547044 
L 269.282176 182.750065 
L 271.592884 219.656856 
L 276.214301 299.168025 
L 278.52501 306.457059 
L 280.835718 303.934717 
L 283.146427 305.638382 
L 285.457135 275.704375 
L 287.767844 233.110199 
L 290.078552 237.657557 
L 292.389261 247.298056 
L 294.699969 259.733791 
L 297.010678 295.53371 
L 299.321386 298.512573 
L 301.632095 321.601315 
L 303.942803 365.475791 
L 306.253512 369.635488 
L 308.56422 362.989154 
L 310.874929 378.000789 
L 313.185637 305.005884 
L 315.496346 294.528854 
L 317.807054 297.14301 
L 320.117763 262.416808 
L 322.428471 285.079634 
L 324.73918 239.774386 
L 327.049888 236.499676 
L 329.360597 197.907073 
L 331.671305 180.908679 
L 333.982014 212.569304 
L 336.292722 252.082601 
L 338.603431 271.131514 
L 340.914139 357.498149 
L 343.224848 379.089808 
L 345.535556 389.816777 
L 347.846265 423.415704 
L 350.156973 432.380348 
L 352.467682 420.546508 
L 354.77839 353.414964 
L 357.089099 308.607044 
L 359.399808 216.882025 
L 361.710516 216.348992 
L 364.021225 247.267452 
L 366.331933 263.740464 
L 368.642642 291.491331 
L 370.95335 259.848559 
L 373.264059 226.611788 
L 375.574767 245.920842 
L 377.885476 268.767296 
L 380.196184 218.754016 
L 382.506893 239.973317 
L 384.817601 203.964265 
L 387.12831 207.7261 
L 389.439018 305.997988 
L 391.749727 312.817749 
L 394.060435 341.027687 
L 396.371144 337.566799 
L 398.681852 393.532705 
L 400.992561 415.180473 
L 405.613978 332.963333 
L 410.235395 263.462471 
L 412.546103 340.604321 
L 414.856812 429.608067 
L 417.16752 399.549091 
L 419.478229 438.934868 
L 421.788937 410.571906 
L 424.099646 337.286255 
L 426.410354 290.412513 
L 428.721063 227.45597 
L 431.031771 172.288338 
L 433.34248 154.960942 
L 435.653188 169.817003 
L 437.963897 197.75915 
L 440.274605 231.549356 
L 442.585314 257.622062 
L 444.896022 279.830917 
L 447.206731 265.06667 
L 449.517439 267.135042 
L 451.828148 268.027681 
L 454.138856 279.353993 
L 456.449565 294.238109 
L 458.760273 299.593942 
L 461.070982 304.506006 
L 463.38169 288.114606 
L 465.692399 290.440568 
L 468.003107 259.511906 
L 470.313816 265.566548 
L 472.624524 259.397139 
L 474.935233 266.836646 
L 477.245941 276.897961 
L 479.55665 263.71496 
L 481.867358 278.155307 
L 484.178067 274.092525 
L 486.488775 303.796996 
L 488.799484 301.810236 
L 491.110192 312.228607 
L 493.420901 329.711577 
L 495.73161 358.395889 
L 498.042318 397.99845 
L 500.353027 387.536722 
L 502.663735 376.40169 
L 504.974444 344.00145 
L 507.285152 300.884442 
L 509.595861 292.929755 
L 511.906569 280.269586 
L 514.217278 261.998543 
L 516.527986 289.053152 
L 521.149403 315.439557 
L 523.460112 307.250233 
L 528.081529 265.995015 
L 530.392237 263.151323 
L 532.702946 268.782599 
L 535.013654 285.010773 
L 537.324363 312.498949 
L 539.635071 305.587374 
L 541.94578 317.671154 
L 544.256488 307.418559 
L 546.567197 271.705353 
L 548.877905 270.486264 
L 551.188614 261.01664 
L 553.499322 263.743015 
L 555.810031 263.901139 
L 558.120739 254.581989 
L 560.431448 259.307875 
L 562.742156 249.940267 
L 565.052865 269.30543 
L 567.363573 269.256972 
L 569.674282 249.335823 
L 571.98499 250.738542 
L 574.295699 254.877835 
L 576.606407 253.375652 
L 578.917116 251.17976 
L 581.227824 266.660668 
L 583.538533 238.664963 
L 585.849241 269.838463 
L 588.15995 297.936184 
L 590.470658 314.865717 
L 592.781367 346.794134 
L 595.092075 360.918232 
L 597.402784 369.847171 
L 599.713492 340.150351 
L 602.024201 339.599465 
L 604.334909 317.291145 
L 606.645618 320.364373 
L 608.956326 328.594503 
L 611.267035 322.055286 
L 613.577743 289.560681 
L 615.888452 263.431866 
L 618.19916 264.003155 
L 620.509869 266.571405 
L 622.820577 286.252816 
L 625.131286 290.058008 
L 627.441995 275.043823 
L 629.752703 282.944952 
L 632.063412 284.360422 
L 634.37412 294.044278 
L 636.684829 288.237025 
L 638.995537 294.215155 
L 641.306246 313.417092 
L 643.616954 307.701653 
L 645.927663 335.96515 
L 648.238371 327.204537 
L 650.54908 317.140671 
L 652.859788 323.427399 
L 655.170497 344.45287 
L 657.481205 345.911697 
L 659.791914 373.721223 
L 662.102622 443.994855 
L 664.413331 457.662431 
L 666.724039 473.860001 
L 669.034748 451.54913 
L 671.345456 369.094803 
L 673.656165 330.152796 
L 675.966873 302.452936 
L 678.277582 292.70277 
L 682.898999 324.516419 
L 685.209707 329.867151 
L 687.520416 349.571516 
L 689.831124 332.721045 
L 692.141833 306.151012 
L 694.452541 313.544612 
L 696.76325 309.288 
L 699.073958 336.319655 
L 701.384667 333.669793 
L 703.695375 341.588775 
L 706.006084 324.870924 
L 708.316792 307.099759 
L 710.627501 336.6104 
L 712.938209 307.395605 
L 715.248918 296.339635 
L 717.559626 304.850309 
L 719.870335 276.642921 
L 722.181043 287.862117 
L 724.491752 313.100843 
L 726.80246 322.759195 
L 729.113169 334.052352 
L 731.423877 340.711438 
L 733.734586 334.590486 
L 736.045294 325.847726 
L 738.356003 324.342992 
L 740.666711 319.83134 
L 742.97742 314.123552 
L 745.288128 310.726423 
L 747.598837 307.949041 
L 749.909545 300.580945 
L 749.909545 300.580945 
" style="fill:none;stroke:#000000;stroke-linecap:square;stroke-width:2.8;"/>
   </g>
   <g id="line2d_32">
    <path clip-path="url(#p004cba1f37)" d="M 100.600455 290.86424 
L 102.911163 304.46959 
L 105.221872 247.029181 
L 107.53258 227.591034 
L 109.843289 293.378491 
L 112.153997 387.83585 
L 114.464706 416.614516 
L 116.775414 353.58174 
L 119.086123 351.965831 
L 121.396831 272.283487 
L 123.70754 130.896326 
L 126.018248 80.830302 
L 128.328957 88.019353 
L 130.639665 171.215122 
L 132.950374 232.579409 
L 135.261082 225.851858 
L 137.571791 239.013839 
L 142.193208 305.765787 
L 144.503916 329.419447 
L 146.814625 234.795974 
L 149.125333 153.556888 
L 151.436042 213.223875 
L 153.74675 316.561069 
L 156.057459 406.93995 
L 158.368167 432.812704 
L 160.678876 394.895024 
L 162.989584 335.301726 
L 167.611001 179.877608 
L 169.92171 165.560144 
L 174.543127 260.746547 
L 176.853835 322.89095 
L 179.164544 342.11313 
L 181.475252 332.005348 
L 183.785961 305.109456 
L 186.096669 273.515068 
L 188.407378 312.649827 
L 190.718086 328.715087 
L 193.028795 348.161913 
L 195.339503 452.051551 
L 197.650212 455.006108 
L 199.96092 311.35845 
L 202.271629 201.661226 
L 204.582337 169.589162 
L 206.893046 167.351426 
L 209.203754 237.543119 
L 211.514463 327.771631 
L 213.825171 281.376314 
L 216.13588 264.039063 
L 218.446588 335.289822 
L 220.757297 388.970446 
L 223.068005 382.729892 
L 225.378714 293.546055 
L 227.689423 230.943284 
L 230.000131 209.022032 
L 232.31084 193.558148 
L 234.621548 220.667193 
L 236.932257 265.998803 
L 239.242965 294.147415 
L 241.553674 291.850768 
L 243.864382 268.237382 
L 246.175091 241.293744 
L 248.485799 241.568687 
L 250.796508 235.661111 
L 253.107216 222.009902 
L 255.417925 245.144505 
L 257.728633 277.03907 
L 260.039342 251.669651 
L 262.35005 211.257553 
L 264.660759 214.935267 
L 266.971467 190.115845 
L 269.282176 157.15718 
L 271.592884 206.227455 
L 273.903593 289.951051 
L 276.214301 302.922031 
L 278.52501 283.362805 
L 280.835718 299.265494 
L 283.146427 319.896667 
L 285.457135 305.095046 
L 287.767844 255.225122 
L 290.078552 209.650338 
L 292.389261 239.506326 
L 294.699969 296.680896 
L 297.010678 286.199549 
L 299.321386 273.222807 
L 301.632095 305.424349 
L 303.942803 343.659602 
L 306.253512 369.725873 
L 308.56422 360.454207 
L 310.874929 330.295535 
L 313.185637 350.597655 
L 315.496346 314.28956 
L 317.807054 244.067994 
L 320.117763 275.558191 
L 322.428471 310.910464 
L 324.73918 285.005178 
L 327.049888 216.105111 
L 329.360597 212.741315 
L 331.671305 239.229698 
L 333.982014 204.901815 
L 336.292722 201.439935 
L 338.603431 292.239934 
L 340.914139 337.661362 
L 343.224848 347.327613 
L 345.535556 371.378318 
L 347.846265 384.810025 
L 350.156973 401.338821 
L 352.467682 415.647287 
L 354.77839 392.445823 
L 357.089099 303.428722 
L 359.399808 243.077848 
L 361.710516 212.174569 
L 364.021225 220.918899 
L 366.331933 282.55388 
L 368.642642 308.355896 
L 370.95335 285.276376 
L 373.264059 242.400355 
L 375.574767 213.535519 
L 377.885476 256.899438 
L 380.196184 319.625111 
L 382.506893 239.474597 
L 384.817601 171.013334 
L 391.749727 327.074764 
L 394.060435 336.356032 
L 396.371144 318.7978 
L 398.681852 321.163967 
L 400.992561 393.48807 
L 403.303269 444.634773 
L 405.613978 344.878117 
L 407.924686 228.539135 
L 410.235395 266.8486 
L 412.546103 327.959248 
L 414.856812 350.774209 
L 417.16752 423.250835 
L 419.478229 419.666924 
L 421.788937 371.882135 
L 424.099646 367.24787 
L 426.410354 324.396657 
L 428.721063 240.842048 
L 431.031771 192.338831 
L 433.34248 183.69311 
L 435.653188 183.782748 
L 437.963897 197.986876 
L 442.585314 270.686525 
L 444.896022 280.010905 
L 447.206731 281.301493 
L 449.517439 269.202345 
L 451.828148 261.807129 
L 454.138856 275.666819 
L 456.449565 295.176439 
L 458.760273 303.092254 
L 461.070982 297.505655 
L 463.38169 297.514408 
L 465.692399 289.048683 
L 468.003107 282.340182 
L 470.313816 260.432432 
L 472.624524 256.011608 
L 474.935233 274.61128 
L 477.245941 283.461557 
L 479.55665 279.507712 
L 481.867358 262.792126 
L 484.178067 273.92434 
L 486.488775 294.361368 
L 488.799484 311.648378 
L 491.110192 305.910852 
L 493.420901 298.242409 
L 495.73161 327.250455 
L 498.042318 373.972084 
L 500.353027 401.93248 
L 502.663735 367.172858 
L 504.974444 321.96605 
L 507.285152 316.62297 
L 509.595861 299.720435 
L 511.906569 273.104237 
L 514.217278 272.194324 
L 516.527986 273.014573 
L 518.838695 291.43735 
L 521.149403 319.019077 
L 523.460112 321.883051 
L 528.081529 264.504427 
L 530.392237 259.979123 
L 532.702946 274.702133 
L 535.013654 283.574447 
L 537.324363 288.716299 
L 539.635071 316.828654 
L 541.94578 320.189157 
L 544.256488 300.920997 
L 546.567197 293.490313 
L 548.877905 270.540662 
L 551.188614 256.7559 
L 553.499322 268.966996 
L 555.810031 280.387585 
L 558.120739 270.129682 
L 560.431448 249.280084 
L 562.742156 258.812959 
L 565.052865 272.670116 
L 567.363573 277.995989 
L 569.674282 274.913882 
L 571.98499 249.321002 
L 574.295699 242.490068 
L 576.606407 272.703273 
L 578.917116 280.675861 
L 581.227824 247.822012 
L 583.538533 253.947292 
L 585.849241 266.615149 
L 588.15995 277.08061 
L 590.470658 310.334313 
L 592.781367 333.087983 
L 597.402784 351.683302 
L 599.713492 359.595224 
L 602.024201 325.062707 
L 604.334909 299.845568 
L 606.645618 310.70069 
L 608.956326 326.7452 
L 611.267035 326.286026 
L 613.577743 308.248162 
L 615.888452 271.813821 
L 618.19916 244.746912 
L 620.509869 266.684604 
L 622.820577 296.774504 
L 625.131286 296.905443 
L 627.441995 281.748853 
L 629.752703 268.214621 
L 632.063412 282.819158 
L 634.37412 302.237368 
L 636.684829 298.677492 
L 638.995537 278.784928 
L 641.306246 284.893756 
L 643.616954 327.508445 
L 645.927663 326.845554 
L 648.238371 310.164767 
L 650.54908 317.181305 
L 652.859788 318.792571 
L 655.170497 312.721673 
L 657.481205 335.850718 
L 659.791914 355.260857 
L 662.102622 361.685368 
L 664.413331 429.227101 
L 666.724039 476.396 
L 669.034748 434.104957 
L 671.345456 372.890525 
L 673.656165 317.840914 
L 675.966873 292.82901 
L 678.277582 297.501714 
L 680.58829 297.254895 
L 682.898999 303.056866 
L 685.209707 328.467809 
L 687.520416 337.483762 
L 689.831124 335.377431 
L 692.141833 320.107236 
L 694.452541 285.695428 
L 696.76325 293.11274 
L 699.073958 310.996112 
L 701.384667 310.639624 
L 706.006084 293.973663 
L 708.316792 288.986207 
L 710.627501 287.550844 
L 712.938209 288.276737 
L 715.248918 289.660748 
L 717.559626 290.767463 
L 719.870335 291.296898 
L 722.181043 291.353438 
L 729.113169 290.835769 
L 733.734586 290.797798 
L 745.288128 290.8726 
L 749.909545 290.864022 
L 749.909545 290.864022 
" style="fill:none;stroke:#000000;stroke-dasharray:17.92,4.48,2.8,4.48;stroke-dashoffset:0;stroke-width:2.8;"/>
   </g>
   <g id="line2d_33">
    <path clip-path="url(#p004cba1f37)" d="M 699.073958 498.572 
L 699.073958 10.7 
" style="fill:none;stroke:#808080;stroke-dasharray:11.1,4.8;stroke-dashoffset:0;stroke-width:3;"/>
   </g>
   <g id="patch_3">
    <path d="M 68.135 498.572 
L 68.135 10.7 
" style="fill:none;stroke:#000000;stroke-linecap:square;stroke-linejoin:miter;stroke-width:0.8;"/>
   </g>
   <g id="patch_4">
    <path d="M 68.135 498.572 
L 782.375 498.572 
" style="fill:none;stroke:#000000;stroke-linecap:square;stroke-linejoin:miter;stroke-width:0.8;"/>
   </g>
   <g id="text_16">
    <!-- 训练期 -->
    <defs>
     <path d="M 40.328125 80.90625 
L 47.75 80.90625 
L 47.75 42.53125 
Q 47.75 19.875 44.234375 7.28125 
Q 40.828125 -4.640625 30.953125 -13.625 
Q 27.640625 -10.59375 24.21875 -8.34375 
Q 33.6875 -1.03125 37.109375 10.109375 
Q 40.328125 21.140625 40.328125 41.84375 
z
M 86.03125 81 
L 93.453125 81 
L 93.453125 -12.0625 
L 86.03125 -12.0625 
z
M 63.09375 77.390625 
L 70.515625 77.390625 
L 70.515625 -6.296875 
L 63.09375 -6.296875 
z
M 31.640625 21.4375 
Q 31.640625 16.546875 32.328125 12.25 
Q 22.46875 3.859375 14.265625 -4.4375 
L 9.765625 1.8125 
Q 13.09375 4.9375 13.09375 10.796875 
L 13.09375 43.796875 
L 1.265625 43.796875 
L 1.265625 50.828125 
L 20.515625 50.828125 
L 20.515625 11.078125 
Q 25.78125 15.765625 31.640625 21.4375 
z
M 13.671875 81.109375 
Q 22.46875 72.3125 28.90625 65.09375 
L 22.078125 59.328125 
Q 16.109375 67.234375 7.8125 76.125 
z
" id="MicrosoftYaHei-8bad"/>
     <path d="M 36.921875 53.171875 
L 47.796875 53.171875 
Q 50.046875 59.078125 52.25 65.578125 
L 34.578125 65.578125 
L 34.578125 72.21875 
L 54.5 72.21875 
Q 56.296875 77.734375 58.109375 83.640625 
L 65.921875 82.078125 
Q 64.203125 77.046875 62.5 72.21875 
L 93.75 72.21875 
L 93.75 65.578125 
L 60.109375 65.578125 
Q 57.8125 59.234375 55.515625 53.171875 
L 74.421875 53.171875 
L 74.421875 31.5 
L 94.140625 31.5 
L 94.140625 24.859375 
L 74.421875 24.859375 
L 74.421875 0.046875 
Q 74.421875 -11.46875 63.375 -11.46875 
Q 59.1875 -11.46875 52.640625 -11.375 
Q 52.046875 -8.0625 50.984375 -3.765625 
Q 56.84375 -4.4375 61.421875 -4.4375 
Q 67.1875 -4.4375 67.1875 1.703125 
L 67.1875 24.859375 
L 38.671875 24.859375 
L 38.671875 31.203125 
Q 42 38.28125 45.265625 46.53125 
L 36.921875 46.53125 
z
M 13.875 24.46875 
Q 23.921875 25.921875 34.671875 27.78125 
Q 34.078125 24.171875 33.796875 20.265625 
Q 25 19 4.984375 15.671875 
L 3.421875 23 
Q 10.453125 30.765625 18.359375 43.65625 
Q 10.40625 43.171875 3.421875 42.53125 
L 1.5625 49.171875 
Q 10.9375 61.96875 20.21875 83.84375 
L 27.34375 80.90625 
Q 17 60.59375 10.0625 49.75 
Q 16.84375 49.90625 22.171875 50.046875 
Q 26.078125 56.84375 30.171875 64.796875 
L 37.3125 61.1875 
Q 25.875 41.546875 13.875 24.46875 
z
M 47.078125 31.5 
L 67.1875 31.5 
L 67.1875 46.53125 
L 53.03125 46.53125 
Q 50.046875 38.8125 47.078125 31.5 
z
M 1.46875 1.90625 
Q 16.109375 4.546875 34.671875 8.734375 
Q 34.375 4.9375 34.46875 1.21875 
Q 19.234375 -1.609375 3.421875 -5.515625 
z
M 49.90625 19.875 
L 56.84375 16.65625 
Q 49.90625 3.171875 42.1875 -8.546875 
Q 39.0625 -6.203125 35.546875 -4.34375 
Q 43.953125 7.171875 49.90625 19.875 
z
M 79.59375 16.265625 
L 85.9375 19.96875 
Q 93.171875 9.03125 99.703125 -1.90625 
L 92.96875 -6.109375 
Q 86.625 5.71875 79.59375 16.265625 
z
" id="MicrosoftYaHei-7ec3"/>
     <path d="M 58.890625 79.15625 
L 93.453125 79.15625 
L 93.453125 -0.046875 
Q 93.453125 -11.578125 82.515625 -11.578125 
Q 77.046875 -11.578125 71.78125 -11.28125 
Q 71.390625 -8.0625 70.609375 -3.765625 
Q 77.734375 -4.4375 80.859375 -4.4375 
Q 86.234375 -4.4375 86.234375 0.921875 
L 86.234375 21.4375 
L 65.328125 21.4375 
Q 64.265625 0.046875 52.34375 -14.109375 
Q 49.703125 -11.375 46.484375 -8.640625 
Q 54.390625 0.4375 56.546875 10.203125 
Q 58.890625 19.578125 58.890625 42.828125 
z
M 1.953125 17.828125 
L 11.140625 17.828125 
L 11.140625 62.9375 
L 3.125 62.9375 
L 3.125 69.578125 
L 11.140625 69.578125 
L 11.140625 81.5 
L 18.359375 81.5 
L 18.359375 69.578125 
L 38.671875 69.578125 
L 38.671875 81.890625 
L 45.90625 81.890625 
L 45.90625 69.578125 
L 53.8125 69.578125 
L 53.8125 62.9375 
L 45.90625 62.9375 
L 45.90625 17.828125 
L 53.71875 17.828125 
L 53.71875 11.1875 
L 1.953125 11.1875 
z
M 65.765625 27.875 
L 86.234375 27.875 
L 86.234375 47.015625 
L 66.109375 47.015625 
Q 66.21875 34.421875 65.765625 27.875 
z
M 86.234375 72.515625 
L 66.109375 72.515625 
L 66.109375 53.46875 
L 86.234375 53.46875 
z
M 18.359375 17.828125 
L 38.671875 17.828125 
L 38.671875 28.765625 
L 18.359375 28.765625 
z
M 18.359375 35.015625 
L 38.671875 35.015625 
L 38.671875 45.84375 
L 18.359375 45.84375 
z
M 18.359375 52.09375 
L 38.671875 52.09375 
L 38.671875 62.9375 
L 18.359375 62.9375 
z
M 18.359375 9.328125 
L 24.3125 4.640625 
Q 14.453125 -6 6.34375 -13.234375 
Q 4.296875 -10.890625 1.171875 -8.0625 
Q 10.453125 -0.140625 18.359375 9.328125 
z
M 31.15625 4.734375 
L 35.84375 9.515625 
Q 42.671875 4.4375 48.734375 -0.734375 
L 43.5625 -6.296875 
Q 38.09375 -0.828125 31.15625 4.734375 
z
" id="MicrosoftYaHei-671f"/>
    </defs>
    <g transform="translate(331.671305 118.730006)scale(0.15 -0.15)">
     <use xlink:href="#MicrosoftYaHei-8bad"/>
     <use x="100" xlink:href="#MicrosoftYaHei-7ec3"/>
     <use x="200" xlink:href="#MicrosoftYaHei-671f"/>
    </g>
   </g>
   <g id="text_17">
    <!-- 预测期 -->
    <defs>
     <path d="M 8.296875 60.5 
L 13.1875 64.796875 
Q 16.703125 61.671875 19.921875 58.546875 
L 30.28125 71.140625 
L 2.734375 71.140625 
L 2.734375 77.984375 
L 39.265625 77.984375 
L 39.265625 71.140625 
L 24.8125 53.65625 
Q 26.46875 51.90625 28.03125 50.25 
L 24.125 46.828125 
L 41.890625 46.828125 
L 41.890625 40.28125 
Q 40.328125 32.765625 37.015625 22.90625 
Q 33.984375 23.96875 30.28125 25.140625 
Q 32.71875 31.296875 34.578125 39.984375 
L 24.8125 39.984375 
L 24.8125 -1.125 
Q 24.8125 -12.25 13.875 -12.25 
L 3.515625 -12.25 
Q 3.03125 -8.734375 2.15625 -4.34375 
Q 7.03125 -4.9375 12.015625 -4.9375 
Q 17.484375 -4.9375 17.484375 1.3125 
L 17.484375 39.984375 
L 1.765625 39.984375 
L 1.765625 46.828125 
L 21 46.828125 
Q 14.65625 54.4375 8.296875 60.5 
z
M 46.390625 58.0625 
L 62.890625 58.0625 
L 65.328125 71.4375 
L 42.875 71.4375 
L 42.875 78.265625 
L 98.34375 78.265625 
L 98.34375 71.4375 
L 73.25 71.4375 
L 70.40625 58.0625 
L 93.84375 58.0625 
L 93.84375 10.015625 
L 86.71875 10.015625 
L 86.71875 51.3125 
L 53.515625 51.3125 
L 53.515625 10.015625 
L 46.390625 10.015625 
z
M 66.3125 47.3125 
L 73.53125 47.3125 
L 73.53125 32.765625 
Q 73.53125 21.34375 70.609375 13.140625 
Q 85.9375 2.875 98.53125 -6.890625 
L 93.171875 -13.234375 
Q 81.25 -3.078125 67.578125 6.6875 
Q 66.609375 5.21875 65.625 3.859375 
Q 57.71875 -6.203125 40.828125 -14.015625 
Q 37.703125 -10.015625 35.359375 -7.5625 
Q 52.828125 -0.34375 59.859375 8.9375 
Q 66.3125 17.328125 66.3125 33.25 
z
" id="MicrosoftYaHei-9884"/>
     <path d="M 13.671875 27.390625 
Q 18.359375 24.953125 21.390625 23.78125 
Q 14.84375 -0.640625 11.921875 -12.25 
L 3.90625 -8.546875 
Q 9.671875 7.765625 13.671875 27.390625 
z
M 9.96875 80.71875 
Q 15.921875 75.734375 24.8125 67.234375 
Q 21.578125 64.109375 18.953125 61.375 
Q 11.8125 69.28125 4.890625 75.828125 
z
M 5.5625 55.609375 
Q 13.765625 48.96875 21.09375 42.4375 
Q 18.5625 39.796875 15.4375 36.28125 
Q 6.640625 44.96875 0.78125 50.25 
z
M 87.109375 82.5625 
L 94.234375 82.5625 
L 94.234375 -0.53125 
Q 94.234375 -11.765625 83.40625 -11.765625 
Q 78.71875 -11.765625 72.265625 -11.578125 
Q 71.875 -7.953125 70.90625 -3.5625 
Q 77.15625 -4.25 81.546875 -4.25 
Q 87.109375 -4.25 87.109375 1.3125 
z
M 78.71875 9.90625 
L 71.875 9.90625 
L 71.875 74.65625 
L 78.71875 74.65625 
z
M 26.65625 77.203125 
L 63.484375 77.203125 
L 63.484375 15.484375 
L 56.453125 15.484375 
L 56.453125 70.359375 
L 33.6875 70.359375 
L 33.6875 15.484375 
L 26.65625 15.484375 
z
M 41.890625 61.96875 
L 49.03125 61.96875 
L 49.03125 37.75 
Q 49.03125 22.90625 46.296875 13.921875 
Q 58.984375 4.15625 68.359375 -3.65625 
L 63.09375 -9.625 
Q 55.28125 -2.203125 43.75 7.375 
Q 37.703125 -4.640625 21.96875 -13.8125 
Q 19.828125 -10.6875 17.1875 -7.5625 
Q 31.734375 0.828125 37.109375 11.078125 
Q 41.890625 19.96875 41.890625 37.546875 
z
" id="MicrosoftYaHei-6d4b"/>
    </defs>
    <g transform="translate(724.491752 118.730006)scale(0.15 -0.15)">
     <use xlink:href="#MicrosoftYaHei-9884"/>
     <use x="100" xlink:href="#MicrosoftYaHei-6d4b"/>
     <use x="200" xlink:href="#MicrosoftYaHei-671f"/>
    </g>
   </g>
   <g id="legend_1">
    <g id="line2d_34">
     <path d="M 82.535 474.5945 
L 114.535 474.5945 
" style="fill:none;stroke:#000000;stroke-linecap:square;stroke-width:2.8;"/>
    </g>
    <g id="line2d_35"/>
    <g id="text_18">
     <!-- 真实值 -->
     <defs>
      <path d="M 2.4375 12.15625 
L 16.5 12.15625 
L 16.5 62.15625 
L 45.21875 62.15625 
L 45.21875 69.1875 
L 3.90625 69.1875 
L 3.90625 75.4375 
L 45.21875 75.4375 
L 45.21875 83.25 
L 52.828125 83.25 
L 52.828125 75.4375 
L 96 75.4375 
L 96 69.1875 
L 52.828125 69.1875 
L 52.828125 62.15625 
L 83.5 62.15625 
L 83.5 12.15625 
L 97.859375 12.15625 
L 97.859375 5.90625 
L 2.4375 5.90625 
z
M 23.921875 12.15625 
L 76.078125 12.15625 
L 76.078125 18.890625 
L 23.921875 18.890625 
z
M 76.078125 56.109375 
L 23.921875 56.109375 
L 23.921875 49.46875 
L 76.078125 49.46875 
z
M 23.921875 37.0625 
L 76.078125 37.0625 
L 76.078125 43.703125 
L 23.921875 43.703125 
z
M 23.921875 24.65625 
L 76.078125 24.65625 
L 76.078125 31.296875 
L 23.921875 31.296875 
z
M 58.5 -1.125 
L 62.109375 4.9375 
Q 76.953125 0.4375 96.390625 -6.5 
L 92.875 -13.421875 
Q 75.296875 -6.59375 58.5 -1.125 
z
M 37.015625 5.21875 
L 41.609375 -0.640625 
Q 25.875 -7.859375 7.515625 -13.921875 
Q 6.0625 -10.796875 4 -7.078125 
Q 19.046875 -2.6875 37.015625 5.21875 
z
" id="MicrosoftYaHei-771f"/>
      <path d="M 1.765625 -6.203125 
Q 37.796875 0.53125 48.140625 15.1875 
L 3.328125 15.1875 
L 3.328125 22.40625 
L 51.765625 22.40625 
Q 55.078125 32.5625 54.78125 57.859375 
L 62.984375 57.859375 
Q 62.984375 32.765625 60.25 22.40625 
L 97.265625 22.40625 
L 97.265625 15.1875 
L 57.515625 15.1875 
Q 56.734375 13.625 55.671875 11.859375 
Q 76.5625 3.078125 96.578125 -6.296875 
L 92.28125 -13.71875 
Q 71.390625 -3.078125 50.984375 6.109375 
Q 37.703125 -6.890625 6.453125 -13.921875 
Q 4.203125 -9.625 1.765625 -6.203125 
z
M 5.171875 69.09375 
L 49.90625 69.09375 
Q 47.46875 73.484375 43.359375 79.34375 
L 50.484375 83.34375 
Q 53.71875 79.046875 58.296875 72.015625 
L 52.9375 69.09375 
L 94.734375 69.09375 
L 94.734375 51.609375 
L 86.921875 51.609375 
L 86.921875 61.859375 
L 12.984375 61.859375 
L 12.984375 51.609375 
L 5.171875 51.609375 
z
M 17.1875 42.71875 
Q 28.421875 37.640625 38.28125 32.078125 
L 34.078125 25.34375 
Q 24.3125 31.296875 13.484375 36.46875 
z
M 25.984375 57.671875 
Q 37.3125 52.203125 46.578125 46.625 
L 42.1875 39.984375 
Q 33.109375 45.84375 22.171875 51.90625 
z
" id="MicrosoftYaHei-5b9e"/>
      <path d="M 25.296875 -3.375 
L 35.15625 -3.375 
L 35.15625 57.078125 
L 58.203125 57.078125 
L 58.203125 65.96875 
L 29.890625 65.96875 
L 29.890625 72.609375 
L 58.203125 72.609375 
L 58.203125 82.953125 
L 65.625 82.953125 
L 65.625 72.609375 
L 96.390625 72.609375 
L 96.390625 65.96875 
L 65.625 65.96875 
L 65.625 57.078125 
L 89.265625 57.078125 
L 89.265625 -3.375 
L 98.53125 -3.375 
L 98.53125 -10.015625 
L 25.296875 -10.015625 
z
M 1.078125 35.109375 
Q 14.15625 54.640625 21.390625 82.46875 
L 28.609375 80.328125 
Q 24.703125 67.71875 20.125 56.6875 
L 20.125 -12.75 
L 12.984375 -12.75 
L 12.984375 41.65625 
Q 8.796875 33.84375 4.109375 27.09375 
Q 2.734375 31.203125 1.078125 35.109375 
z
M 42.390625 -3.375 
L 82.03125 -3.375 
L 82.03125 5.515625 
L 42.390625 5.515625 
z
M 82.03125 50.640625 
L 42.390625 50.640625 
L 42.390625 41.84375 
L 82.03125 41.84375 
z
M 42.390625 26.8125 
L 82.03125 26.8125 
L 82.03125 35.59375 
L 42.390625 35.59375 
z
M 42.390625 11.765625 
L 82.03125 11.765625 
L 82.03125 20.5625 
L 42.390625 20.5625 
z
" id="MicrosoftYaHei-503c"/>
     </defs>
     <g transform="translate(127.335 480.1945)scale(0.16 -0.16)">
      <use xlink:href="#MicrosoftYaHei-771f"/>
      <use x="100" xlink:href="#MicrosoftYaHei-5b9e"/>
      <use x="200" xlink:href="#MicrosoftYaHei-503c"/>
     </g>
    </g>
    <g id="line2d_36">
     <path d="M 207.335 474.5945 
L 239.335 474.5945 
" style="fill:none;stroke:#000000;stroke-dasharray:17.92,4.48,2.8,4.48;stroke-dashoffset:0;stroke-width:2.8;"/>
    </g>
    <g id="line2d_37"/>
    <g id="text_19">
     <!-- 模型值 -->
     <defs>
      <path d="M 32.03125 15.375 
L 60.296875 15.375 
Q 60.9375 18.953125 61.140625 24.171875 
L 46.09375 24.171875 
L 46.09375 21.4375 
L 39.0625 21.4375 
L 39.0625 56.78125 
L 91.3125 56.78125 
L 91.3125 21.4375 
L 84.28125 21.4375 
L 84.28125 24.171875 
L 67.875 24.171875 
Q 67.578125 18.796875 67 15.375 
L 97.65625 15.375 
L 97.65625 9.125 
L 70.703125 9.125 
Q 81.296875 -2.734375 98.734375 -5.328125 
Q 96 -8.9375 93.953125 -12.640625 
Q 75.046875 -7.125 64.5 7.28125 
Q 57.515625 -6.734375 32.421875 -13.234375 
Q 30.765625 -9.8125 28.609375 -6.5 
Q 51.609375 -1.65625 58.015625 9.125 
L 32.03125 9.125 
z
M 0.984375 22.015625 
Q 9.421875 36.1875 14.40625 54.828125 
L 2.15625 54.828125 
L 2.15625 61.28125 
L 15.71875 61.28125 
L 15.71875 82.953125 
L 22.5625 82.953125 
L 22.5625 61.28125 
L 35.25 61.28125 
L 35.25 54.828125 
L 22.5625 54.828125 
L 22.5625 41.9375 
L 26.375 45.0625 
Q 31.9375 39.109375 36.71875 33.0625 
L 31.34375 28.5625 
Q 26.859375 35.0625 22.5625 40.046875 
L 22.5625 -12.84375 
L 15.71875 -12.84375 
L 15.71875 40.328125 
Q 10.5 22.46875 4.296875 13.421875 
Q 2.9375 17.625 0.984375 22.015625 
z
M 73.640625 82.859375 
L 80.46875 82.859375 
L 80.46875 73.484375 
L 97.265625 73.484375 
L 97.265625 67.234375 
L 80.46875 67.234375 
L 80.46875 59.328125 
L 73.640625 59.328125 
L 73.640625 67.234375 
L 56.25 67.234375 
L 56.25 59.328125 
L 49.421875 59.328125 
L 49.421875 67.234375 
L 33.984375 67.234375 
L 33.984375 73.484375 
L 49.421875 73.484375 
L 49.421875 82.953125 
L 56.25 82.953125 
L 56.25 73.484375 
L 73.640625 73.484375 
z
M 84.28125 50.734375 
L 46.09375 50.734375 
L 46.09375 43.40625 
L 84.28125 43.40625 
z
M 46.09375 30.21875 
L 84.28125 30.21875 
L 84.28125 37.546875 
L 46.09375 37.546875 
z
" id="MicrosoftYaHei-6a21"/>
      <path d="M 2.34375 54.734375 
L 17.1875 54.734375 
Q 17.28125 56.84375 17.28125 71.046875 
L 6.453125 71.046875 
L 6.453125 77.484375 
L 57.421875 77.484375 
L 57.421875 71.046875 
L 46.78125 71.046875 
L 46.78125 54.734375 
L 60.640625 54.734375 
L 60.640625 48.296875 
L 46.78125 48.296875 
L 46.78125 27.296875 
L 39.65625 27.296875 
L 39.65625 48.296875 
L 23.875 48.296875 
Q 22.65625 34.234375 9.96875 23.96875 
Q 7.421875 26.8125 4.59375 29.640625 
Q 15.828125 38.328125 16.65625 48.296875 
L 2.34375 48.296875 
z
M 2.15625 -1.609375 
L 45.90625 -1.609375 
L 45.90625 11.578125 
L 11.03125 11.578125 
L 11.03125 18.3125 
L 45.90625 18.3125 
L 45.90625 25.921875 
L 53.515625 25.921875 
L 53.515625 18.3125 
L 89.265625 18.3125 
L 89.265625 11.578125 
L 53.515625 11.578125 
L 53.515625 -1.609375 
L 97.75 -1.609375 
L 97.75 -8.34375 
L 2.15625 -8.34375 
z
M 91.5 81.390625 
L 91.5 36.46875 
Q 91.5 26.125 81.25 25.921875 
Q 75.390625 25.734375 67.671875 25.921875 
Q 67.28125 29.640625 66.5 33.640625 
Q 74.703125 33.15625 78.8125 33.15625 
Q 84.375 33.15625 84.375 39.3125 
L 84.375 81.390625 
z
M 24.3125 54.734375 
L 39.65625 54.734375 
L 39.65625 71.046875 
L 24.421875 71.046875 
Q 24.421875 59.234375 24.3125 54.734375 
z
M 64.65625 75.921875 
L 71.6875 75.921875 
L 71.6875 42.140625 
L 64.65625 42.140625 
z
" id="MicrosoftYaHei-578b"/>
     </defs>
     <g transform="translate(252.135 480.1945)scale(0.16 -0.16)">
      <use xlink:href="#MicrosoftYaHei-6a21"/>
      <use x="100" xlink:href="#MicrosoftYaHei-578b"/>
      <use x="200" xlink:href="#MicrosoftYaHei-503c"/>
     </g>
    </g>
   </g>
  </g>
 </g>
 <defs>
  <clipPath id="p004cba1f37">
   <rect height="487.872" width="714.24" x="68.135" y="10.7"/>
  </clipPath>
 </defs>
</svg>
