<?xml version="1.0" encoding="utf-8" standalone="no"?>
<!DOCTYPE svg PUBLIC "-//W3C//DTD SVG 1.1//EN"
  "http://www.w3.org/Graphics/SVG/1.1/DTD/svg11.dtd">
<!-- Created with matplotlib (http://matplotlib.org/) -->
<svg height="550.684326pt" version="1.1" viewBox="0 0 791.90175 550.684326" width="791.90175pt" xmlns="http://www.w3.org/2000/svg" xmlns:xlink="http://www.w3.org/1999/xlink">
 <defs>
  <style type="text/css">
*{stroke-linecap:butt;stroke-linejoin:round;}
  </style>
 </defs>
 <g id="figure_1">
  <g id="patch_1">
   <path d="M 0 550.684326 
L 791.90175 550.684326 
L 791.90175 0 
L 0 0 
z
" style="fill:#ffffff;"/>
  </g>
  <g id="axes_1">
   <g id="patch_2">
    <path d="M 66.96175 489.572576 
L 781.20175 489.572576 
L 781.20175 11.204576 
L 66.96175 11.204576 
z
" style="fill:#ffffff;"/>
   </g>
   <g id="matplotlib.axis_1">
    <g id="xtick_1">
     <g id="line2d_1">
      <defs>
       <path d="M 0 0 
L 0 3.5 
" id="md257e459aa" style="stroke:#000000;stroke-width:1.6;"/>
      </defs>
      <g>
       <use style="stroke:#000000;stroke-width:1.6;" x="87.640382" xlink:href="#md257e459aa" y="489.572576"/>
      </g>
     </g>
     <g id="text_1">
      <!-- 0 -->
      <defs>
       <path d="M 4.4375 36.328125 
Q 4.4375 56.34375 11.078125 66.625 
Q 17.71875 76.90625 30.328125 76.90625 
Q 54.34375 76.90625 54.34375 38.140625 
Q 54.34375 19 47.578125 8.859375 
Q 40.828125 -1.265625 28.609375 -1.265625 
Q 17.09375 -1.265625 10.765625 8.34375 
Q 4.4375 17.96875 4.4375 36.328125 
z
M 14.203125 36.765625 
Q 14.203125 6.640625 29.5 6.640625 
Q 44.53125 6.640625 44.53125 37.25 
Q 44.53125 68.953125 29.78125 68.953125 
Q 14.203125 68.953125 14.203125 36.765625 
z
" id="MicrosoftYaHei-30"/>
      </defs>
      <g transform="translate(82.949132 517.062576)scale(0.16 -0.16)">
       <use xlink:href="#MicrosoftYaHei-30"/>
      </g>
     </g>
    </g>
    <g id="xtick_2">
     <g id="line2d_2">
      <g>
       <use style="stroke:#000000;stroke-width:1.6;" x="228.902525" xlink:href="#md257e459aa" y="489.572576"/>
      </g>
     </g>
     <g id="text_2">
      <!-- 2 -->
      <defs>
       <path d="M 51.171875 0 
L 5.171875 0 
L 5.171875 8.296875 
L 27.15625 30.21875 
Q 36.234375 39.3125 39.3125 44.609375 
Q 42.390625 49.90625 42.390625 55.5625 
Q 42.390625 62.015625 38.765625 65.453125 
Q 35.15625 68.890625 28.328125 68.890625 
Q 18.21875 68.890625 9.03125 60.296875 
L 9.03125 70.015625 
Q 17.96875 76.90625 29.828125 76.90625 
Q 40.046875 76.90625 45.953125 71.390625 
Q 51.859375 65.875 51.859375 56.546875 
Q 51.859375 49.515625 48.0625 42.75 
Q 44.28125 35.984375 33.734375 25.53125 
L 16.5 8.6875 
L 16.5 8.5 
L 51.171875 8.5 
z
" id="MicrosoftYaHei-32"/>
      </defs>
      <g transform="translate(224.211275 517.062576)scale(0.16 -0.16)">
       <use xlink:href="#MicrosoftYaHei-32"/>
      </g>
     </g>
    </g>
    <g id="xtick_3">
     <g id="line2d_3">
      <g>
       <use style="stroke:#000000;stroke-width:1.6;" x="370.164668" xlink:href="#md257e459aa" y="489.572576"/>
      </g>
     </g>
     <g id="text_3">
      <!-- 4 -->
      <defs>
       <path d="M 55.078125 19.625 
L 45.40625 19.625 
L 45.40625 0 
L 36.140625 0 
L 36.140625 19.625 
L 0.875 19.625 
L 0.875 25.828125 
L 34.328125 75.640625 
L 45.40625 75.640625 
L 45.40625 27.203125 
L 55.078125 27.203125 
z
M 36.140625 27.203125 
L 36.140625 58.890625 
Q 36.140625 62.25 36.328125 66.65625 
L 36.140625 66.65625 
Q 35.453125 64.796875 33.25 60.84375 
L 10.75 27.203125 
z
" id="MicrosoftYaHei-34"/>
      </defs>
      <g transform="translate(365.473418 517.062576)scale(0.16 -0.16)">
       <use xlink:href="#MicrosoftYaHei-34"/>
      </g>
     </g>
    </g>
    <g id="xtick_4">
     <g id="line2d_4">
      <g>
       <use style="stroke:#000000;stroke-width:1.6;" x="511.426811" xlink:href="#md257e459aa" y="489.572576"/>
      </g>
     </g>
     <g id="text_4">
      <!-- 6 -->
      <defs>
       <path d="M 49.703125 65.921875 
Q 43.796875 68.953125 37.359375 68.953125 
Q 27.546875 68.953125 21.578125 60.40625 
Q 15.625 51.859375 15.53125 37.0625 
L 15.765625 37.0625 
Q 21.140625 47.46875 32.90625 47.46875 
Q 42.71875 47.46875 48.578125 41.0625 
Q 54.4375 34.671875 54.4375 24.078125 
Q 54.4375 12.984375 47.671875 5.859375 
Q 40.921875 -1.265625 30.421875 -1.265625 
Q 18.890625 -1.265625 12.328125 7.734375 
Q 5.765625 16.75 5.765625 33.296875 
Q 5.765625 53.328125 14.375 65.109375 
Q 23 76.90625 37.0625 76.90625 
Q 45.125 76.90625 49.703125 74.703125 
z
M 16.109375 24.75 
Q 16.109375 17.28125 20.09375 11.953125 
Q 24.078125 6.640625 30.671875 6.640625 
Q 36.921875 6.640625 40.828125 11.234375 
Q 44.734375 15.828125 44.734375 23.046875 
Q 44.734375 30.859375 41.046875 35.203125 
Q 37.359375 39.546875 30.5625 39.546875 
Q 24.125 39.546875 20.109375 35.15625 
Q 16.109375 30.765625 16.109375 24.75 
z
" id="MicrosoftYaHei-36"/>
      </defs>
      <g transform="translate(506.735561 517.062576)scale(0.16 -0.16)">
       <use xlink:href="#MicrosoftYaHei-36"/>
      </g>
     </g>
    </g>
    <g id="xtick_5">
     <g id="line2d_5">
      <g>
       <use style="stroke:#000000;stroke-width:1.6;" x="652.688954" xlink:href="#md257e459aa" y="489.572576"/>
      </g>
     </g>
     <g id="text_5">
      <!-- 8 -->
      <defs>
       <path d="M 21.390625 39.796875 
Q 7.859375 46.09375 7.859375 58.0625 
Q 7.859375 66.40625 14.203125 71.65625 
Q 20.5625 76.90625 30.421875 76.90625 
Q 39.453125 76.90625 45.3125 71.96875 
Q 51.171875 67.046875 51.171875 59.234375 
Q 51.171875 46.625 37.0625 39.84375 
L 37.0625 39.65625 
Q 53.609375 33.6875 53.609375 19.34375 
Q 53.609375 9.90625 46.796875 4.3125 
Q 39.984375 -1.265625 27.78125 -1.265625 
Q 17.78125 -1.265625 11.46875 4.25 
Q 5.171875 9.765625 5.171875 18.5625 
Q 5.171875 33.015625 21.390625 39.59375 
z
M 41.5 58.109375 
Q 41.5 63.1875 38.328125 66.109375 
Q 35.15625 69.046875 29.734375 69.046875 
Q 24.65625 69.046875 21.09375 65.984375 
Q 17.53125 62.9375 17.53125 58.203125 
Q 17.53125 48.734375 29.390625 43.796875 
Q 41.5 48.828125 41.5 58.109375 
z
M 28.8125 35.25 
Q 14.796875 29.59375 14.796875 19.046875 
Q 14.796875 13.578125 18.890625 10.0625 
Q 23 6.546875 29.59375 6.546875 
Q 35.984375 6.546875 39.984375 10.03125 
Q 44 13.53125 44 18.75 
Q 44 29.734375 28.8125 35.25 
z
" id="MicrosoftYaHei-38"/>
      </defs>
      <g transform="translate(647.997704 517.062576)scale(0.16 -0.16)">
       <use xlink:href="#MicrosoftYaHei-38"/>
      </g>
     </g>
    </g>
    <g id="text_6">
     <!-- 频率（单位：年） -->
     <defs>
      <path d="M 50 58.0625 
L 64.265625 58.0625 
L 66.703125 70.65625 
L 45.90625 70.65625 
L 45.90625 77.296875 
L 98.34375 77.296875 
L 98.34375 70.65625 
L 74.8125 70.65625 
L 71.875 58.0625 
L 94.046875 58.0625 
L 94.046875 7.46875 
L 86.71875 7.46875 
L 86.71875 51.421875 
L 57.328125 51.421875 
L 57.328125 7.46875 
L 50 7.46875 
z
M 1.46875 47.40625 
L 8.203125 47.40625 
L 8.203125 73.296875 
L 15.046875 73.296875 
L 15.046875 47.40625 
L 25 47.40625 
L 25 82.375 
L 32.03125 82.375 
L 32.03125 67.046875 
L 45.703125 67.046875 
L 45.703125 60.59375 
L 32.03125 60.59375 
L 32.03125 47.40625 
L 46.96875 47.40625 
L 46.96875 40.765625 
L 1.46875 40.765625 
z
M 68.0625 45.0625 
L 75.390625 45.0625 
L 75.390625 30.21875 
Q 75.390625 19 72.65625 11.1875 
Q 87.796875 2 99.609375 -6.296875 
L 94.921875 -13.140625 
Q 82.90625 -3.65625 69.53125 4.734375 
Q 68.953125 3.765625 68.265625 2.875 
Q 61.140625 -6.984375 43.171875 -13.8125 
Q 41.015625 -10.796875 38.1875 -7.46875 
Q 55.078125 -1.125 61.625 6.984375 
Q 68.0625 14.796875 68.0625 30.71875 
z
M 24.21875 38.421875 
L 31.25 38.421875 
L 31.25 13.328125 
Q 37.40625 20.453125 41.609375 29.15625 
L 48.4375 25.140625 
Q 34.46875 -0.734375 6.15625 -14.203125 
Q 4.296875 -11.578125 1.078125 -7.859375 
Q 17.578125 -0.734375 28.421875 10.296875 
L 24.21875 10.296875 
z
M 0.59375 9.03125 
Q 5.953125 18.609375 10.453125 32.5625 
L 17.390625 30.421875 
Q 12.59375 16.0625 7.125 5.71875 
Q 4.203125 7.375 0.59375 9.03125 
z
" id="MicrosoftYaHei-9891"/>
      <path d="M 39.453125 31.390625 
Q 40.96875 31.5 61.375 32.515625 
Q 58.9375 35.9375 56.640625 38.921875 
L 61.921875 42.234375 
Q 68.953125 34.421875 74.90625 25.828125 
L 68.65625 21.921875 
Q 66.9375 24.515625 65.28125 26.953125 
Q 46.734375 25.921875 34.578125 24.953125 
Q 32.421875 24.75 29.390625 24.078125 
L 26.953125 30.71875 
Q 29.890625 31.6875 31.34375 32.5625 
Q 39.59375 38.140625 47.65625 45.515625 
Q 40.578125 45.21875 35.546875 44.78125 
Q 33.5 44.484375 31.0625 43.890625 
L 28.125 49.859375 
Q 30.5625 50.734375 32.625 52.59375 
Q 39.203125 58.15625 44.921875 66.0625 
L 3.609375 66.0625 
L 3.609375 72.90625 
L 47.359375 72.90625 
Q 44.96875 77.25 42.875 80.515625 
L 49.90625 83.9375 
Q 53.71875 78.125 56.5 72.90625 
L 96.484375 72.90625 
L 96.484375 66.0625 
L 47.703125 66.0625 
L 52.34375 63.625 
Q 44.4375 55.515625 38.96875 50.734375 
Q 44.53125 50.875 53.515625 51.078125 
Q 57.421875 54.984375 61.328125 59.328125 
L 68.0625 55.421875 
Q 52.546875 40.671875 39.453125 31.390625 
z
M 2.25 15.484375 
L 46.78125 15.484375 
L 46.78125 24.078125 
L 54.5 24.078125 
L 54.5 15.484375 
L 98.046875 15.484375 
L 98.046875 8.640625 
L 54.5 8.640625 
L 54.5 -13.328125 
L 46.78125 -13.328125 
L 46.78125 8.640625 
L 2.25 8.640625 
z
M 26.859375 41.75 
L 30.375 35.984375 
Q 18.75 29.15625 6.640625 22.015625 
L 2.546875 28.5625 
Q 12.703125 33.34375 26.859375 41.75 
z
M 75.875 41.84375 
Q 89.84375 33.9375 97.65625 28.375 
L 93.359375 22.015625 
Q 83.296875 29.828125 71.875 36.578125 
z
M 93.65625 56.109375 
Q 86.234375 49.65625 77.546875 43.890625 
L 72.5625 49.078125 
Q 81.9375 55.21875 88.09375 61.375 
z
M 5.671875 56.78125 
L 10.640625 61.578125 
Q 18.75 55.125 24.8125 49.359375 
L 19.34375 44 
Q 13.671875 49.953125 5.671875 56.78125 
z
" id="MicrosoftYaHei-7387"/>
      <path d="M 57.625 -17.1875 
Q 40.1875 1.859375 40.1875 28.90625 
Q 40.1875 56.296875 57.625 75.59375 
L 66.015625 75.59375 
Q 48.6875 55.8125 48.6875 29 
Q 48.6875 2.59375 65.921875 -17.1875 
z
" id="MicrosoftYaHei-ff08"/>
      <path d="M 1.953125 14.203125 
L 46.1875 14.203125 
L 46.1875 25.25 
L 19.140625 25.25 
L 19.140625 20.65625 
L 11.71875 20.65625 
L 11.71875 68.015625 
L 31.984375 68.015625 
Q 27.296875 73.484375 21.875 79.25 
L 27.4375 83.84375 
Q 34.671875 76.90625 40.140625 71.046875 
L 36.53125 68.015625 
L 59.421875 68.015625 
Q 64.796875 75.140625 70.3125 83.546875 
L 78.125 79.34375 
Q 73.09375 73.25 68.40625 68.015625 
L 88.375 68.015625 
L 88.375 20.65625 
L 80.953125 20.65625 
L 80.953125 25.25 
L 53.8125 25.25 
L 53.8125 14.203125 
L 98.046875 14.203125 
L 98.046875 7.171875 
L 53.8125 7.171875 
L 53.8125 -13.421875 
L 46.1875 -13.421875 
L 46.1875 7.171875 
L 1.953125 7.171875 
z
M 53.8125 32.078125 
L 80.953125 32.078125 
L 80.953125 43.40625 
L 53.8125 43.40625 
z
M 19.140625 32.078125 
L 46.1875 32.078125 
L 46.1875 43.40625 
L 19.140625 43.40625 
z
M 80.953125 61.1875 
L 53.8125 61.1875 
L 53.8125 50.046875 
L 80.953125 50.046875 
z
M 19.140625 50.046875 
L 46.1875 50.046875 
L 46.1875 61.1875 
L 19.140625 61.1875 
z
" id="MicrosoftYaHei-5355"/>
      <path d="M 27.9375 -0.921875 
L 66.0625 -0.921875 
Q 73.09375 17.875 82.328125 52.6875 
L 91.109375 50.046875 
Q 85.203125 31.9375 74.3125 -0.921875 
L 98.734375 -0.921875 
L 98.734375 -8.15625 
L 27.9375 -8.15625 
z
M 1.265625 35.796875 
Q 15.234375 56.890625 22.359375 83.15625 
L 30.671875 81.109375 
Q 26.609375 68.703125 21.96875 57.953125 
L 21.96875 -13.328125 
L 14.65625 -13.328125 
L 14.65625 42.671875 
Q 10.0625 34.078125 4.984375 26.8125 
Q 3.609375 30.515625 1.265625 35.796875 
z
M 29.984375 65.484375 
L 64.40625 65.484375 
Q 60.0625 72.796875 54.78125 79.046875 
L 61.421875 83.640625 
Q 65.71875 78.65625 72.078125 70.265625 
L 64.84375 65.484375 
L 96.96875 65.484375 
L 96.96875 58.25 
L 29.984375 58.25 
z
M 43.265625 51.703125 
Q 49.703125 34.125 57.328125 9.125 
L 49.21875 6.78125 
Q 42.578125 30.71875 35.84375 49.171875 
z
" id="MicrosoftYaHei-4f4d"/>
      <path d="M 50.09375 55.171875 
Q 52.6875 55.171875 54.53125 53.359375 
Q 56.390625 51.5625 56.390625 49.03125 
Q 56.390625 46.484375 54.578125 44.65625 
Q 52.78125 42.828125 50.09375 42.828125 
Q 47.40625 42.828125 45.59375 44.65625 
Q 43.796875 46.484375 43.796875 49.03125 
Q 43.796875 51.5625 45.65625 53.359375 
Q 47.515625 55.171875 50.09375 55.171875 
z
M 50.09375 11.1875 
Q 52.6875 11.1875 54.53125 9.375 
Q 56.390625 7.5625 56.390625 4.984375 
Q 56.390625 2.34375 54.53125 0.5625 
Q 52.6875 -1.21875 50.09375 -1.21875 
Q 47.515625 -1.21875 45.65625 0.5625 
Q 43.796875 2.34375 43.796875 4.984375 
Q 43.796875 7.5625 45.65625 9.375 
Q 47.515625 11.1875 50.09375 11.1875 
z
" id="MicrosoftYaHei-ff1a"/>
      <path d="M 1.859375 19.96875 
L 17.578125 19.96875 
L 17.578125 47.90625 
L 52.15625 47.90625 
L 52.15625 65.28125 
L 23.4375 65.28125 
Q 16.84375 53.421875 8.6875 43.40625 
Q 6.15625 46.140625 2.640625 48.875 
Q 16.5 64.5 23.4375 83.9375 
L 31.453125 81.6875 
Q 29.390625 76.859375 27.15625 72.3125 
L 94.34375 72.3125 
L 94.34375 65.28125 
L 60.0625 65.28125 
L 60.0625 47.90625 
L 92.671875 47.90625 
L 92.671875 41.0625 
L 60.0625 41.0625 
L 60.0625 19.96875 
L 98.734375 19.96875 
L 98.734375 12.9375 
L 60.0625 12.9375 
L 60.0625 -13.421875 
L 52.15625 -13.421875 
L 52.15625 12.9375 
L 1.859375 12.9375 
z
M 25.296875 19.96875 
L 52.15625 19.96875 
L 52.15625 41.0625 
L 25.296875 41.0625 
z
" id="MicrosoftYaHei-5e74"/>
      <path d="M 42.390625 -17.1875 
L 33.984375 -17.1875 
Q 51.3125 2.546875 51.3125 29.5 
Q 51.3125 55.953125 34.078125 75.59375 
L 42.390625 75.59375 
Q 59.71875 56.6875 59.71875 29.5 
Q 59.71875 2 42.390625 -17.1875 
z
" id="MicrosoftYaHei-ff09"/>
     </defs>
     <g transform="translate(353.68175 539.109076)scale(0.176 -0.176)">
      <use xlink:href="#MicrosoftYaHei-9891"/>
      <use x="100" xlink:href="#MicrosoftYaHei-7387"/>
      <use x="200" xlink:href="#MicrosoftYaHei-ff08"/>
      <use x="300" xlink:href="#MicrosoftYaHei-5355"/>
      <use x="400" xlink:href="#MicrosoftYaHei-4f4d"/>
      <use x="500" xlink:href="#MicrosoftYaHei-ff1a"/>
      <use x="600" xlink:href="#MicrosoftYaHei-5e74"/>
      <use x="700" xlink:href="#MicrosoftYaHei-ff09"/>
     </g>
    </g>
   </g>
   <g id="matplotlib.axis_2">
    <g id="ytick_1">
     <g id="line2d_6">
      <defs>
       <path d="M 0 0 
L -3.5 0 
" id="mb3cdef9fd4" style="stroke:#000000;stroke-width:1.6;"/>
      </defs>
      <g>
       <use style="stroke:#000000;stroke-width:1.6;" x="66.96175" xlink:href="#mb3cdef9fd4" y="467.833751"/>
      </g>
     </g>
     <g id="text_7">
      <!-- 0.0 -->
      <defs>
       <path d="M 5.8125 5.03125 
Q 5.8125 7.671875 7.609375 9.46875 
Q 9.421875 11.28125 12.109375 11.28125 
Q 14.84375 11.28125 16.640625 9.453125 
Q 18.453125 7.625 18.453125 5.03125 
Q 18.453125 2.484375 16.640625 0.65625 
Q 14.84375 -1.171875 12.0625 -1.171875 
Q 9.375 -1.171875 7.59375 0.65625 
Q 5.8125 2.484375 5.8125 5.03125 
z
" id="MicrosoftYaHei-2e"/>
      </defs>
      <g transform="translate(29.64425 474.228751)scale(0.16 -0.16)">
       <use xlink:href="#MicrosoftYaHei-30"/>
       <use x="58.642578" xlink:href="#MicrosoftYaHei-2e"/>
       <use x="82.714844" xlink:href="#MicrosoftYaHei-30"/>
      </g>
     </g>
    </g>
    <g id="ytick_2">
     <g id="line2d_7">
      <g>
       <use style="stroke:#000000;stroke-width:1.6;" x="66.96175" xlink:href="#mb3cdef9fd4" y="402.942501"/>
      </g>
     </g>
     <g id="text_8">
      <!-- 0.5 -->
      <defs>
       <path d="M 8.640625 11.625 
Q 16.265625 6.640625 24.515625 6.640625 
Q 32.328125 6.640625 37.109375 11 
Q 41.890625 15.375 41.890625 22.609375 
Q 41.890625 29.890625 37.03125 33.890625 
Q 32.171875 37.890625 22.953125 37.890625 
Q 18.5 37.890625 10.984375 37.203125 
L 10.984375 75.640625 
L 48.1875 75.640625 
L 48.1875 67.1875 
L 19.875 67.1875 
L 19.875 45.796875 
Q 24.125 46.046875 26.265625 46.046875 
Q 38.234375 46.046875 44.921875 39.984375 
Q 51.609375 33.9375 51.609375 23.296875 
Q 51.609375 12.3125 44.421875 5.515625 
Q 37.25 -1.265625 24.609375 -1.265625 
Q 14.015625 -1.265625 8.640625 1.859375 
z
" id="MicrosoftYaHei-35"/>
      </defs>
      <g transform="translate(29.64425 409.337501)scale(0.16 -0.16)">
       <use xlink:href="#MicrosoftYaHei-30"/>
       <use x="58.642578" xlink:href="#MicrosoftYaHei-2e"/>
       <use x="82.714844" xlink:href="#MicrosoftYaHei-35"/>
      </g>
     </g>
    </g>
    <g id="ytick_3">
     <g id="line2d_8">
      <g>
       <use style="stroke:#000000;stroke-width:1.6;" x="66.96175" xlink:href="#mb3cdef9fd4" y="338.051251"/>
      </g>
     </g>
     <g id="text_9">
      <!-- 1.0 -->
      <defs>
       <path d="M 52.59375 0 
L 9.234375 0 
L 9.234375 8.25 
L 26.171875 8.25 
L 26.171875 65.671875 
L 8.796875 60.640625 
L 8.796875 69.4375 
L 35.6875 77.25 
L 35.6875 8.25 
L 52.59375 8.25 
z
" id="MicrosoftYaHei-31"/>
      </defs>
      <g transform="translate(29.64425 344.446251)scale(0.16 -0.16)">
       <use xlink:href="#MicrosoftYaHei-31"/>
       <use x="58.642578" xlink:href="#MicrosoftYaHei-2e"/>
       <use x="82.714844" xlink:href="#MicrosoftYaHei-30"/>
      </g>
     </g>
    </g>
    <g id="ytick_4">
     <g id="line2d_9">
      <g>
       <use style="stroke:#000000;stroke-width:1.6;" x="66.96175" xlink:href="#mb3cdef9fd4" y="273.160001"/>
      </g>
     </g>
     <g id="text_10">
      <!-- 1.5 -->
      <g transform="translate(29.64425 279.555001)scale(0.16 -0.16)">
       <use xlink:href="#MicrosoftYaHei-31"/>
       <use x="58.642578" xlink:href="#MicrosoftYaHei-2e"/>
       <use x="82.714844" xlink:href="#MicrosoftYaHei-35"/>
      </g>
     </g>
    </g>
    <g id="ytick_5">
     <g id="line2d_10">
      <g>
       <use style="stroke:#000000;stroke-width:1.6;" x="66.96175" xlink:href="#mb3cdef9fd4" y="208.26875"/>
      </g>
     </g>
     <g id="text_11">
      <!-- 2.0 -->
      <g transform="translate(29.64425 214.66375)scale(0.16 -0.16)">
       <use xlink:href="#MicrosoftYaHei-32"/>
       <use x="58.642578" xlink:href="#MicrosoftYaHei-2e"/>
       <use x="82.714844" xlink:href="#MicrosoftYaHei-30"/>
      </g>
     </g>
    </g>
    <g id="ytick_6">
     <g id="line2d_11">
      <g>
       <use style="stroke:#000000;stroke-width:1.6;" x="66.96175" xlink:href="#mb3cdef9fd4" y="143.3775"/>
      </g>
     </g>
     <g id="text_12">
      <!-- 2.5 -->
      <g transform="translate(29.64425 149.7725)scale(0.16 -0.16)">
       <use xlink:href="#MicrosoftYaHei-32"/>
       <use x="58.642578" xlink:href="#MicrosoftYaHei-2e"/>
       <use x="82.714844" xlink:href="#MicrosoftYaHei-35"/>
      </g>
     </g>
    </g>
    <g id="ytick_7">
     <g id="line2d_12">
      <g>
       <use style="stroke:#000000;stroke-width:1.6;" x="66.96175" xlink:href="#mb3cdef9fd4" y="78.48625"/>
      </g>
     </g>
     <g id="text_13">
      <!-- 3.0 -->
      <defs>
       <path d="M 6.984375 12.640625 
Q 14.75 6.640625 24.515625 6.640625 
Q 32.328125 6.640625 36.890625 10.46875 
Q 41.453125 14.3125 41.453125 20.75 
Q 41.453125 35.109375 20.90625 35.109375 
L 14.59375 35.109375 
L 14.59375 43.015625 
L 20.609375 43.015625 
Q 38.8125 43.015625 38.8125 56.5 
Q 38.8125 68.953125 24.90625 68.953125 
Q 16.9375 68.953125 9.90625 63.578125 
L 9.90625 72.609375 
Q 17.328125 76.90625 27.25 76.90625 
Q 36.921875 76.90625 42.78125 71.84375 
Q 48.640625 66.796875 48.640625 58.734375 
Q 48.640625 43.890625 33.5 39.65625 
L 33.5 39.453125 
Q 41.703125 38.578125 46.453125 33.671875 
Q 51.21875 28.765625 51.21875 21.4375 
Q 51.21875 11.234375 43.875 4.984375 
Q 36.53125 -1.265625 24.3125 -1.265625 
Q 13.578125 -1.265625 6.984375 2.734375 
z
" id="MicrosoftYaHei-33"/>
      </defs>
      <g transform="translate(29.64425 84.88125)scale(0.16 -0.16)">
       <use xlink:href="#MicrosoftYaHei-33"/>
       <use x="58.642578" xlink:href="#MicrosoftYaHei-2e"/>
       <use x="82.714844" xlink:href="#MicrosoftYaHei-30"/>
      </g>
     </g>
    </g>
    <g id="ytick_8">
     <g id="line2d_13">
      <g>
       <use style="stroke:#000000;stroke-width:1.6;" x="66.96175" xlink:href="#mb3cdef9fd4" y="13.595"/>
      </g>
     </g>
     <g id="text_14">
      <!-- 3.5 -->
      <g transform="translate(29.64425 19.99)scale(0.16 -0.16)">
       <use xlink:href="#MicrosoftYaHei-33"/>
       <use x="58.642578" xlink:href="#MicrosoftYaHei-2e"/>
       <use x="82.714844" xlink:href="#MicrosoftYaHei-35"/>
      </g>
     </g>
    </g>
    <g id="text_15">
     <!-- 谱能量（单位：1e-3） -->
     <defs>
      <path d="M 35.9375 29.546875 
L 87.5 29.546875 
L 87.5 -13.53125 
L 80.46875 -13.53125 
L 80.46875 -8.734375 
L 42.96875 -8.734375 
L 42.96875 -13.53125 
L 35.9375 -13.53125 
z
M 83.890625 79.15625 
Q 79.6875 73.78125 75.984375 69.78125 
L 94.828125 69.78125 
L 94.828125 63.53125 
L 74.421875 63.53125 
L 74.421875 43.40625 
L 98.4375 43.40625 
L 98.4375 37.15625 
L 25.390625 37.15625 
L 25.390625 43.40625 
L 49.21875 43.40625 
L 49.21875 63.53125 
L 29.390625 63.53125 
L 29.390625 69.78125 
L 47.953125 69.78125 
Q 44.34375 75.046875 40.328125 79.34375 
L 45.609375 83.25 
Q 50.484375 78.171875 54.203125 73 
L 49.90625 69.78125 
L 73.640625 69.78125 
L 69.921875 72.703125 
Q 74.703125 77.875 78.21875 82.953125 
z
M 30.375 14.3125 
Q 30.46875 11.96875 31.84375 5.421875 
Q 22.265625 -3.078125 14.9375 -10.890625 
L 9.1875 -4.25 
Q 12.40625 -0.53125 12.40625 4.546875 
L 12.40625 42.046875 
L 1.5625 42.046875 
L 1.5625 49.078125 
L 19.734375 49.078125 
L 19.734375 3.953125 
Q 24.03125 7.859375 30.375 14.3125 
z
M 42.96875 -2.484375 
L 80.46875 -2.484375 
L 80.46875 7.46875 
L 42.96875 7.46875 
z
M 80.46875 23.296875 
L 42.96875 23.296875 
L 42.96875 13.53125 
L 80.46875 13.53125 
z
M 55.859375 43.40625 
L 67.78125 43.40625 
L 67.78125 63.53125 
L 55.859375 63.53125 
z
M 10.25 81.109375 
Q 17.1875 74.265625 24.125 66.453125 
L 17.96875 61.1875 
Q 11.921875 69.28125 4.890625 76.515625 
z
M 93.359375 56.78125 
Q 87.796875 50.53125 82.71875 45.359375 
L 77.9375 50.046875 
Q 83.296875 55.125 87.984375 60.984375 
z
M 31.0625 56.78125 
L 36.03125 60.984375 
Q 40.71875 56.296875 46.09375 50.046875 
L 40.71875 45.5625 
Q 35.75 51.90625 31.0625 56.78125 
z
" id="MicrosoftYaHei-8c31"/>
      <path d="M 14.84375 -11.859375 
L 7.234375 -11.859375 
L 7.234375 45.75 
L 46.875 45.75 
L 46.875 -0.4375 
Q 46.875 -10.984375 37.109375 -10.984375 
Q 32.8125 -11.078125 26.078125 -11.078125 
Q 25.59375 -8.0625 24.609375 -3.65625 
Q 30.765625 -4.15625 34.46875 -4.15625 
Q 39.265625 -4.15625 39.265625 0.828125 
L 39.265625 8.9375 
L 14.84375 8.9375 
z
M 56.34375 35.203125 
L 63.96875 35.203125 
L 63.96875 19.09375 
Q 77.828125 24.265625 92.96875 32.671875 
L 97.359375 25.921875 
Q 81.390625 17.53125 63.96875 11.03125 
L 63.96875 2.59375 
Q 63.96875 -3.5625 68.75 -3.5625 
L 83.109375 -3.5625 
Q 88.09375 -3.5625 88.875 1.21875 
Q 89.546875 5.515625 90.046875 14.015625 
Q 93.75 12.546875 97.65625 11.28125 
Q 96.875 2.6875 96 -1.703125 
Q 94.734375 -10.296875 83.796875 -10.296875 
L 67.484375 -10.296875 
Q 56.34375 -10.296875 56.34375 1.125 
z
M 56.546875 82.859375 
L 64.15625 82.859375 
L 64.15625 66.109375 
Q 77.59375 71.4375 90.828125 78.953125 
L 95.21875 72.21875 
Q 79.984375 64.5 64.15625 58.109375 
L 64.15625 52.484375 
Q 64.15625 45.953125 69.34375 45.953125 
L 81.734375 45.953125 
Q 87.890625 45.953125 88.671875 51.03125 
Q 89.359375 55.21875 89.84375 63.234375 
Q 93.5625 61.765625 97.46875 60.40625 
Q 96.6875 52.59375 95.796875 47.703125 
Q 94.34375 39.203125 82.625 39.203125 
L 68.359375 39.203125 
Q 56.546875 39.203125 56.546875 50.921875 
z
M 38.484375 74.5625 
Q 47.359375 63.03125 53.90625 52.390625 
Q 50.203125 49.859375 47.171875 47.90625 
Q 45.265625 51.265625 43.109375 54.78125 
Q 19.234375 53.03125 4.890625 51.609375 
L 1.765625 59.8125 
Q 6.0625 62.15625 11.234375 68.609375 
Q 16.609375 75.640625 21.78125 84.328125 
L 29.5 81.5 
Q 21.390625 69.78125 12.40625 59.328125 
Q 27.046875 60.25 39.015625 61.234375 
Q 35.9375 65.875 32.421875 70.75 
z
M 14.84375 14.796875 
L 39.265625 14.796875 
L 39.265625 24.265625 
L 14.84375 24.265625 
z
M 39.265625 39.5 
L 14.84375 39.5 
L 14.84375 30.125 
L 39.265625 30.125 
z
" id="MicrosoftYaHei-80fd"/>
      <path d="M 1.765625 -4.34375 
L 46.578125 -4.34375 
L 46.578125 1.21875 
L 7.421875 1.21875 
L 7.421875 6.296875 
L 46.578125 6.296875 
L 46.578125 11.859375 
L 23.34375 11.859375 
L 23.34375 9.328125 
L 16.703125 9.328125 
L 16.703125 39.3125 
L 83.59375 39.3125 
L 83.59375 9.328125 
L 76.953125 9.328125 
L 76.953125 11.859375 
L 53.421875 11.859375 
L 53.421875 6.296875 
L 92.671875 6.296875 
L 92.671875 1.21875 
L 53.421875 1.21875 
L 53.421875 -4.34375 
L 98.25 -4.34375 
L 98.25 -9.625 
L 1.765625 -9.625 
z
M 17.484375 79.25 
L 82.90625 79.25 
L 82.90625 51.3125 
L 76.265625 51.3125 
L 76.265625 53.953125 
L 24.125 53.953125 
L 24.125 51.3125 
L 17.484375 51.3125 
z
M 2.546875 49.265625 
L 97.859375 49.265625 
L 97.859375 44 
L 2.546875 44 
z
M 24.125 59.03125 
L 76.265625 59.03125 
L 76.265625 64.3125 
L 24.125 64.3125 
z
M 76.265625 74.171875 
L 24.125 74.171875 
L 24.125 69 
L 76.265625 69 
z
M 53.421875 16.9375 
L 76.953125 16.9375 
L 76.953125 23.296875 
L 53.421875 23.296875 
z
M 23.34375 16.9375 
L 46.578125 16.9375 
L 46.578125 23.296875 
L 23.34375 23.296875 
z
M 76.953125 34.234375 
L 53.421875 34.234375 
L 53.421875 27.984375 
L 76.953125 27.984375 
z
M 23.34375 27.984375 
L 46.578125 27.984375 
L 46.578125 34.234375 
L 23.34375 34.234375 
z
" id="MicrosoftYaHei-91cf"/>
      <path d="M 52.546875 24.5625 
L 14.75 24.5625 
Q 14.984375 15.921875 19.46875 11.203125 
Q 23.96875 6.5 32.03125 6.5 
Q 41.109375 6.5 48.6875 12.3125 
L 48.6875 3.765625 
Q 41.546875 -1.265625 29.78125 -1.265625 
Q 18.0625 -1.265625 11.5 6.15625 
Q 4.9375 13.578125 4.9375 26.765625 
Q 4.9375 39.15625 12.140625 47.21875 
Q 19.34375 55.28125 30.03125 55.28125 
Q 40.625 55.28125 46.578125 48.46875 
Q 52.546875 41.65625 52.546875 29.390625 
z
M 42.96875 32.234375 
Q 42.921875 39.546875 39.5 43.546875 
Q 36.078125 47.5625 29.890625 47.5625 
Q 24.171875 47.5625 20 43.3125 
Q 15.828125 39.0625 14.75 32.234375 
z
" id="MicrosoftYaHei-65"/>
      <path d="M 36.375 26.265625 
L 7.625 26.265625 
L 7.625 33.640625 
L 36.375 33.640625 
z
" id="MicrosoftYaHei-2d"/>
     </defs>
     <g transform="translate(21.269 339.909326)rotate(-90)scale(0.176 -0.176)">
      <use xlink:href="#MicrosoftYaHei-8c31"/>
      <use x="100" xlink:href="#MicrosoftYaHei-80fd"/>
      <use x="200" xlink:href="#MicrosoftYaHei-91cf"/>
      <use x="300" xlink:href="#MicrosoftYaHei-ff08"/>
      <use x="400" xlink:href="#MicrosoftYaHei-5355"/>
      <use x="500" xlink:href="#MicrosoftYaHei-4f4d"/>
      <use x="600" xlink:href="#MicrosoftYaHei-ff1a"/>
      <use x="700" xlink:href="#MicrosoftYaHei-31"/>
      <use x="758.642578" xlink:href="#MicrosoftYaHei-65"/>
      <use x="815.380859" xlink:href="#MicrosoftYaHei-2d"/>
      <use x="858.642578" xlink:href="#MicrosoftYaHei-33"/>
      <use x="917.285156" xlink:href="#MicrosoftYaHei-ff09"/>
     </g>
    </g>
   </g>
   <g id="line2d_14">
    <path clip-path="url(#p9c312249d1)" d="M 99.427205 467.825017 
L 104.626877 467.819777 
L 105.276836 467.310672 
L 105.926795 467.754014 
L 106.576754 467.742092 
L 107.226713 466.275893 
L 107.876672 467.819639 
L 110.476508 467.748722 
L 111.126467 467.459796 
L 111.776426 466.341473 
L 112.426386 467.82386 
L 114.376263 467.828576 
L 115.026222 467.670266 
L 115.676181 467.796765 
L 116.32614 467.319268 
L 117.626058 467.802861 
L 118.276017 467.763571 
L 118.925976 467.120404 
L 119.575935 465.889261 
L 120.225894 467.828034 
L 120.875853 467.124764 
L 121.525812 467.177244 
L 122.175771 467.498202 
L 122.82573 467.413312 
L 123.475689 467.821142 
L 124.125648 467.170165 
L 124.775607 467.773171 
L 125.425567 465.282094 
L 126.075526 467.583976 
L 126.725485 467.217118 
L 127.375444 467.745811 
L 128.025403 467.419232 
L 128.675362 467.683886 
L 130.625239 467.81735 
L 131.275198 467.806082 
L 131.925157 466.94064 
L 132.575116 467.779958 
L 133.225075 467.616572 
L 133.875034 467.246521 
L 134.524993 467.704831 
L 135.174952 467.717852 
L 135.824911 467.262203 
L 136.47487 467.693254 
L 137.124829 467.639732 
L 137.774788 459.096162 
L 138.424748 466.604124 
L 139.074707 467.6917 
L 139.724666 467.586321 
L 140.374625 465.347615 
L 141.024584 465.95056 
L 141.674543 467.448491 
L 142.324502 467.544441 
L 142.974461 466.705165 
L 143.62442 465.618904 
L 144.274379 467.806183 
L 145.574297 467.669779 
L 146.224256 461.864267 
L 146.874215 465.028783 
L 147.524174 466.969226 
L 148.174133 467.0748 
L 148.824092 466.736574 
L 149.474051 465.038624 
L 150.12401 464.44716 
L 150.773969 467.570434 
L 151.423929 467.79737 
L 152.723847 467.7893 
L 153.373806 467.289756 
L 154.023765 466.139042 
L 154.673724 467.604946 
L 155.323683 467.633035 
L 155.973642 467.308947 
L 156.623601 466.817321 
L 157.27356 462.254493 
L 157.923519 443.520193 
L 158.573478 451.301769 
L 159.223437 462.488038 
L 159.873396 465.772786 
L 160.523355 466.642104 
L 161.173314 466.898072 
L 161.823273 466.913608 
L 162.473232 465.880261 
L 163.123191 459.531689 
L 163.77315 456.845934 
L 164.42311 465.319202 
L 165.073069 467.11341 
L 166.372987 467.476025 
L 167.022946 467.685489 
L 167.672905 467.580754 
L 168.322864 465.008496 
L 168.972823 449.874471 
L 169.622782 456.259997 
L 170.272741 464.859527 
L 170.9227 466.235953 
L 171.572659 466.105108 
L 172.222618 465.839136 
L 172.872577 465.693551 
L 173.522536 464.961358 
L 174.172495 462.339351 
L 174.822454 457.037606 
L 175.472413 452.87614 
L 176.122372 454.731574 
L 176.772331 460.093362 
L 177.422291 464.373834 
L 178.07225 466.307872 
L 178.722209 466.946306 
L 179.372168 467.092255 
L 181.322045 467.112851 
L 181.972004 466.942531 
L 182.621963 466.210888 
L 183.921881 462.235703 
L 184.57184 463.423564 
L 185.221799 465.879877 
L 185.871758 467.029945 
L 186.521717 467.331663 
L 187.171676 467.300891 
L 189.771512 466.550154 
L 190.421472 466.000362 
L 191.071431 463.9408 
L 191.72139 457.551042 
L 192.371349 444.161062 
L 193.021308 434.582735 
L 193.671267 444.333078 
L 194.321226 457.43732 
L 194.971185 464.018215 
L 195.621144 466.299241 
L 196.271103 467.055203 
L 196.921062 467.355779 
L 198.22098 467.576652 
L 200.820816 467.691146 
L 203.420653 467.601825 
L 204.070612 467.467876 
L 204.720571 467.212858 
L 206.020489 466.369519 
L 206.670448 466.17995 
L 207.320407 466.389228 
L 208.620325 467.085571 
L 209.920243 467.38069 
L 215.769874 467.538287 
L 216.419834 467.334931 
L 217.069793 466.589561 
L 217.719752 463.95221 
L 218.369711 455.393515 
L 219.01967 434.190896 
L 219.669629 404.777303 
L 220.319588 400.004941 
L 221.619506 450.654734 
L 222.269465 462.112671 
L 222.919424 466.001628 
L 223.569383 467.160259 
L 224.219342 467.496547 
L 225.51926 467.608419 
L 227.469137 467.408567 
L 228.769055 467.248567 
L 233.318769 467.068171 
L 233.968728 466.827298 
L 234.618687 466.449255 
L 235.268646 465.889369 
L 235.918605 465.113804 
L 238.518441 461.333127 
L 239.1684 460.860307 
L 239.818359 460.68754 
L 240.468318 460.780577 
L 241.118277 461.074202 
L 243.068155 462.438488 
L 245.018032 463.689424 
L 246.31795 464.261543 
L 247.617868 464.580802 
L 248.917786 464.653927 
L 250.217704 464.538859 
L 252.167581 464.095361 
L 254.117458 463.413613 
L 255.417377 462.75501 
L 256.717295 461.706328 
L 257.367254 460.926898 
L 258.017213 459.880731 
L 258.667172 458.450579 
L 259.317131 456.456322 
L 259.96709 453.665416 
L 260.617049 449.885754 
L 261.267008 444.956173 
L 261.916967 438.808534 
L 264.516803 410.0987 
L 265.166762 407.051273 
L 265.816721 408.1666 
L 266.46668 413.585841 
L 269.066517 446.551544 
L 269.716476 452.232097 
L 270.366435 456.462276 
L 271.016394 459.490177 
L 271.666353 461.593909 
L 272.316312 463.017844 
L 272.966271 463.949901 
L 273.61623 464.53214 
L 274.266189 464.886085 
L 275.566107 465.179448 
L 276.866025 465.136766 
L 278.815902 464.729635 
L 280.765779 464.298652 
L 282.065698 464.240417 
L 285.315493 464.304706 
L 286.615411 464.042362 
L 287.26537 463.758146 
L 287.915329 463.315602 
L 288.565288 462.643082 
L 289.215247 461.623902 
L 289.865206 460.094233 
L 290.515165 457.862542 
L 291.165124 454.668664 
L 291.815083 450.174079 
L 292.465042 443.974021 
L 293.115001 435.644314 
L 293.76496 424.843773 
L 295.064879 395.978789 
L 296.364797 363.874748 
L 297.014756 351.913135 
L 297.664715 346.351962 
L 298.314674 349.212552 
L 298.964633 360.330135 
L 300.264551 395.055708 
L 301.564469 427.455641 
L 302.214428 439.299456 
L 302.864387 448.134366 
L 303.514346 454.429991 
L 304.164305 458.765717 
L 304.814264 461.680051 
L 305.464223 463.607841 
L 306.114182 464.871043 
L 306.764141 465.694476 
L 307.414101 466.228743 
L 308.06406 466.571502 
L 309.363978 466.913437 
L 310.663896 467.013614 
L 312.613773 466.904369 
L 313.913691 466.664403 
L 315.213609 466.247544 
L 316.513527 465.595702 
L 317.813445 464.664915 
L 319.763322 462.86279 
L 322.363159 460.521135 
L 324.313036 459.165344 
L 326.262913 458.133977 
L 328.862749 456.790762 
L 330.162667 455.835078 
L 331.462585 454.426631 
L 332.112544 453.46488 
L 332.762503 452.294765 
L 334.062422 449.229323 
L 335.36234 444.986893 
L 336.662258 439.260265 
L 337.962176 431.698038 
L 339.262094 421.95023 
L 340.562012 409.752811 
L 341.86193 395.059561 
L 343.811807 369.24631 
L 346.411644 334.146191 
L 347.711562 319.639046 
L 349.01148 308.581151 
L 349.661439 304.576191 
L 350.311398 301.664963 
L 350.961357 299.875207 
L 351.611316 299.21015 
L 352.261275 299.649492 
L 352.911234 301.151188 
L 353.561193 303.653865 
L 354.211152 307.079748 
L 355.51107 316.327639 
L 356.810988 328.07077 
L 358.760865 348.459614 
L 362.010661 383.436678 
L 363.960538 401.876566 
L 365.260456 412.47057 
L 366.560374 421.622458 
L 367.860292 429.378357 
L 369.16021 435.847572 
L 370.460128 441.172696 
L 371.760046 445.507488 
L 373.059965 449.001927 
L 374.359883 451.793162 
L 375.659801 454.000838 
L 376.959719 455.725363 
L 378.259637 457.052255 
L 379.559555 458.071714 
L 380.859473 458.857497 
L 382.80935 459.710758 
L 384.759227 460.280144 
L 387.359064 460.736467 
L 390.608859 460.995911 
L 395.808531 461.094509 
L 404.257999 461.130409 
L 406.857835 460.897658 
L 408.807712 460.553747 
L 410.757589 460.002695 
L 412.707467 459.161149 
L 414.007385 458.377989 
L 415.307303 457.354756 
L 416.607221 456.014175 
L 417.907139 454.246659 
L 419.207057 451.895923 
L 420.506975 448.774495 
L 421.806893 444.665524 
L 423.106811 439.291133 
L 424.40673 432.302291 
L 425.706648 423.272782 
L 427.006566 411.700185 
L 428.306484 397.019419 
L 429.606402 378.635917 
L 430.90632 355.986281 
L 432.206238 328.633242 
L 433.506156 296.397609 
L 434.806074 259.521438 
L 436.755951 197.542434 
L 439.355788 112.948191 
L 440.655706 76.683578 
L 441.305665 61.684237 
L 441.955624 49.404305 
L 442.605583 40.280274 
L 443.255542 34.693484 
L 443.905501 32.948576 
L 444.55546 35.21635 
L 445.205419 41.362919 
L 445.855378 51.091 
L 446.505337 64.02327 
L 447.805255 97.7169 
L 449.105173 138.624011 
L 453.654887 288.886792 
L 454.954805 324.337256 
L 456.254723 354.59939 
L 457.554641 379.681244 
L 458.854559 399.958706 
L 460.154477 416.012947 
L 461.454395 428.504447 
L 462.754313 438.086558 
L 464.054232 445.353929 
L 465.35415 450.817792 
L 466.654068 454.899652 
L 467.953986 457.93611 
L 469.253904 460.189367 
L 470.553822 461.859712 
L 471.85374 463.097791 
L 473.153658 464.015524 
L 474.453576 464.695605 
L 476.403454 465.40763 
L 478.353331 465.878022 
L 480.953167 466.275568 
L 484.202962 466.554022 
L 488.752675 466.717219 
L 494.602307 466.705696 
L 501.751856 466.466683 
L 513.451119 465.791444 
L 531.649973 464.613229 
L 538.149563 463.951808 
L 542.699277 463.278081 
L 546.599031 462.468093 
L 549.848826 461.543041 
L 552.448662 460.567596 
L 555.048499 459.316356 
L 556.998376 458.155721 
L 558.948253 456.765224 
L 560.89813 455.102255 
L 562.848007 453.116733 
L 564.797884 450.750322 
L 566.747761 447.935762 
L 568.697639 444.59642 
L 570.647516 440.646186 
L 572.597393 435.989911 
L 574.54727 430.524575 
L 576.497147 424.141437 
L 578.447024 416.729428 
L 580.396902 408.180035 
L 582.346779 398.393915 
L 584.296656 387.28937 
L 586.246533 374.812702 
L 588.19641 360.950242 
L 590.146287 345.741612 
L 592.746123 323.564906 
L 595.995919 293.514862 
L 602.495509 232.510839 
L 604.445386 216.320598 
L 606.395264 201.988294 
L 607.695182 193.634931 
L 608.9951 186.342163 
L 610.295018 180.178397 
L 611.594936 175.195962 
L 612.894854 171.430504 
L 613.544813 170.010661 
L 614.194772 168.900783 
L 614.844731 168.100611 
L 615.49469 167.608871 
L 616.144649 167.423311 
L 616.794608 167.540719 
L 617.444567 167.956969 
L 618.094526 168.667057 
L 618.744485 169.66514 
L 619.394445 170.944589 
L 620.694363 174.317427 
L 621.994281 178.718706 
L 623.294199 184.072334 
L 624.594117 190.294818 
L 626.543994 201.061767 
L 628.493871 213.267888 
L 631.093707 231.228093 
L 634.993462 260.29567 
L 641.493052 309.188786 
L 644.742847 331.905662 
L 647.342684 348.703172 
L 649.94252 364.099328 
L 652.542356 378.016915 
L 655.142192 390.445072 
L 657.092069 398.811451 
L 659.041947 406.393103 
L 660.991824 413.229809 
L 662.941701 419.367261 
L 664.891578 424.854784 
L 666.841455 429.743422 
L 668.791332 434.08441 
L 670.741209 437.927966 
L 672.691087 441.322397 
L 674.640964 444.313447 
L 676.590841 446.94388 
L 678.540718 449.25323 
L 680.490595 451.277698 
L 682.440472 453.050158 
L 685.040309 455.072196 
L 687.640145 456.76032 
L 690.239981 458.167337 
L 692.839817 459.337979 
L 696.089612 460.525532 
L 699.339408 461.461903 
L 703.239162 462.319495 
L 707.138916 462.94398 
L 711.68863 463.434925 
L 716.238343 463.710257 
L 720.788056 463.788474 
L 725.33777 463.662571 
L 729.237524 463.363803 
L 733.137278 462.835795 
L 736.387074 462.156436 
L 738.98691 461.396573 
L 741.586746 460.37343 
L 743.536623 459.376001 
L 745.4865 458.118692 
L 747.436377 456.523382 
L 748.736295 455.22084 
L 748.736295 455.22084 
" style="fill:none;stroke:#000000;stroke-linecap:square;stroke-width:2.8;"/>
   </g>
   <g id="patch_3">
    <path d="M 66.96175 489.572576 
L 66.96175 11.204576 
" style="fill:none;stroke:#000000;stroke-linecap:square;stroke-linejoin:miter;stroke-width:0.8;"/>
   </g>
   <g id="patch_4">
    <path d="M 66.96175 489.572576 
L 781.20175 489.572576 
" style="fill:none;stroke:#000000;stroke-linecap:square;stroke-linejoin:miter;stroke-width:0.8;"/>
   </g>
  </g>
 </g>
 <defs>
  <clipPath id="p9c312249d1">
   <rect height="478.368" width="714.24" x="66.96175" y="11.204576"/>
  </clipPath>
 </defs>
</svg>
