<?xml version="1.0" encoding="utf-8" standalone="no"?>
<!DOCTYPE svg PUBLIC "-//W3C//DTD SVG 1.1//EN"
  "http://www.w3.org/Graphics/SVG/1.1/DTD/svg11.dtd">
<!-- Created with matplotlib (http://matplotlib.org/) -->
<svg height="540.1345pt" version="1.1" viewBox="0 0 779.84 540.1345" width="779.84pt" xmlns="http://www.w3.org/2000/svg" xmlns:xlink="http://www.w3.org/1999/xlink">
 <defs>
  <style type="text/css">
*{stroke-linecap:butt;stroke-linejoin:round;}
  </style>
 </defs>
 <g id="figure_1">
  <g id="patch_1">
   <path d="M 0 540.1345 
L 779.84 540.1345 
L 779.84 0 
L 0 0 
z
" style="fill:#ffffff;"/>
  </g>
  <g id="axes_1">
   <g id="patch_2">
    <path d="M 54.9 501.467 
L 769.14 501.467 
L 769.14 13.595 
L 54.9 13.595 
z
" style="fill:#ffffff;"/>
   </g>
   <g id="matplotlib.axis_1">
    <g id="xtick_1">
     <g id="line2d_1">
      <defs>
       <path d="M 0 0 
L 0 3.5 
" id="me0b129d000" style="stroke:#000000;stroke-width:1.6;"/>
      </defs>
      <g>
       <use style="stroke:#000000;stroke-width:1.6;" x="144.365871" xlink:href="#me0b129d000" y="501.467"/>
      </g>
     </g>
     <g id="text_1">
      <!-- 1959 -->
      <defs>
       <path d="M 52.59375 0 
L 9.234375 0 
L 9.234375 8.25 
L 26.171875 8.25 
L 26.171875 65.671875 
L 8.796875 60.640625 
L 8.796875 69.4375 
L 35.6875 77.25 
L 35.6875 8.25 
L 52.59375 8.25 
z
" id="MicrosoftYaHei-31"/>
       <path d="M 9.03125 10.25 
Q 15.28125 6.640625 22.515625 6.640625 
Q 32.671875 6.640625 38.25 14.640625 
Q 43.84375 22.65625 43.84375 37.40625 
Q 43.75 37.3125 43.65625 37.40625 
Q 38.671875 27.9375 26.90625 27.9375 
Q 17.390625 27.9375 11.140625 34.46875 
Q 4.890625 41.015625 4.890625 51.46875 
Q 4.890625 62.59375 11.71875 69.75 
Q 18.5625 76.90625 29.4375 76.90625 
Q 40.71875 76.90625 47.0625 68.046875 
Q 53.421875 59.1875 53.421875 42.234375 
Q 53.421875 21.296875 45.21875 10.015625 
Q 37.015625 -1.265625 22.515625 -1.265625 
Q 14.546875 -1.265625 9.03125 1.3125 
z
M 14.546875 52.6875 
Q 14.546875 45.0625 18.453125 40.59375 
Q 22.359375 36.140625 29.25 36.140625 
Q 35.203125 36.140625 39.25 40.203125 
Q 43.3125 44.28125 43.3125 50.09375 
Q 43.3125 58.25 39.28125 63.59375 
Q 35.25 68.953125 28.65625 68.953125 
Q 22.5625 68.953125 18.546875 64.3125 
Q 14.546875 59.671875 14.546875 52.6875 
z
" id="MicrosoftYaHei-39"/>
       <path d="M 8.640625 11.625 
Q 16.265625 6.640625 24.515625 6.640625 
Q 32.328125 6.640625 37.109375 11 
Q 41.890625 15.375 41.890625 22.609375 
Q 41.890625 29.890625 37.03125 33.890625 
Q 32.171875 37.890625 22.953125 37.890625 
Q 18.5 37.890625 10.984375 37.203125 
L 10.984375 75.640625 
L 48.1875 75.640625 
L 48.1875 67.1875 
L 19.875 67.1875 
L 19.875 45.796875 
Q 24.125 46.046875 26.265625 46.046875 
Q 38.234375 46.046875 44.921875 39.984375 
Q 51.609375 33.9375 51.609375 23.296875 
Q 51.609375 12.3125 44.421875 5.515625 
Q 37.25 -1.265625 24.609375 -1.265625 
Q 14.015625 -1.265625 8.640625 1.859375 
z
" id="MicrosoftYaHei-35"/>
      </defs>
      <g transform="translate(125.600871 528.957)scale(0.16 -0.16)">
       <use xlink:href="#MicrosoftYaHei-31"/>
       <use x="58.642578" xlink:href="#MicrosoftYaHei-39"/>
       <use x="117.285156" xlink:href="#MicrosoftYaHei-35"/>
       <use x="175.927734" xlink:href="#MicrosoftYaHei-39"/>
      </g>
     </g>
    </g>
    <g id="xtick_2">
     <g id="line2d_2">
      <g>
       <use style="stroke:#000000;stroke-width:1.6;" x="243.49703" xlink:href="#me0b129d000" y="501.467"/>
      </g>
     </g>
     <g id="text_2">
      <!-- 1969 -->
      <defs>
       <path d="M 49.703125 65.921875 
Q 43.796875 68.953125 37.359375 68.953125 
Q 27.546875 68.953125 21.578125 60.40625 
Q 15.625 51.859375 15.53125 37.0625 
L 15.765625 37.0625 
Q 21.140625 47.46875 32.90625 47.46875 
Q 42.71875 47.46875 48.578125 41.0625 
Q 54.4375 34.671875 54.4375 24.078125 
Q 54.4375 12.984375 47.671875 5.859375 
Q 40.921875 -1.265625 30.421875 -1.265625 
Q 18.890625 -1.265625 12.328125 7.734375 
Q 5.765625 16.75 5.765625 33.296875 
Q 5.765625 53.328125 14.375 65.109375 
Q 23 76.90625 37.0625 76.90625 
Q 45.125 76.90625 49.703125 74.703125 
z
M 16.109375 24.75 
Q 16.109375 17.28125 20.09375 11.953125 
Q 24.078125 6.640625 30.671875 6.640625 
Q 36.921875 6.640625 40.828125 11.234375 
Q 44.734375 15.828125 44.734375 23.046875 
Q 44.734375 30.859375 41.046875 35.203125 
Q 37.359375 39.546875 30.5625 39.546875 
Q 24.125 39.546875 20.109375 35.15625 
Q 16.109375 30.765625 16.109375 24.75 
z
" id="MicrosoftYaHei-36"/>
      </defs>
      <g transform="translate(224.73203 528.957)scale(0.16 -0.16)">
       <use xlink:href="#MicrosoftYaHei-31"/>
       <use x="58.642578" xlink:href="#MicrosoftYaHei-39"/>
       <use x="117.285156" xlink:href="#MicrosoftYaHei-36"/>
       <use x="175.927734" xlink:href="#MicrosoftYaHei-39"/>
      </g>
     </g>
    </g>
    <g id="xtick_3">
     <g id="line2d_3">
      <g>
       <use style="stroke:#000000;stroke-width:1.6;" x="342.628189" xlink:href="#me0b129d000" y="501.467"/>
      </g>
     </g>
     <g id="text_3">
      <!-- 1979 -->
      <defs>
       <path d="M 53.765625 72.3125 
L 24.171875 0 
L 14.265625 0 
L 42.390625 67.1875 
L 4.59375 67.1875 
L 4.59375 75.640625 
L 53.765625 75.640625 
z
" id="MicrosoftYaHei-37"/>
      </defs>
      <g transform="translate(323.863189 528.957)scale(0.16 -0.16)">
       <use xlink:href="#MicrosoftYaHei-31"/>
       <use x="58.642578" xlink:href="#MicrosoftYaHei-39"/>
       <use x="117.285156" xlink:href="#MicrosoftYaHei-37"/>
       <use x="175.927734" xlink:href="#MicrosoftYaHei-39"/>
      </g>
     </g>
    </g>
    <g id="xtick_4">
     <g id="line2d_4">
      <g>
       <use style="stroke:#000000;stroke-width:1.6;" x="441.759348" xlink:href="#me0b129d000" y="501.467"/>
      </g>
     </g>
     <g id="text_4">
      <!-- 1989 -->
      <defs>
       <path d="M 21.390625 39.796875 
Q 7.859375 46.09375 7.859375 58.0625 
Q 7.859375 66.40625 14.203125 71.65625 
Q 20.5625 76.90625 30.421875 76.90625 
Q 39.453125 76.90625 45.3125 71.96875 
Q 51.171875 67.046875 51.171875 59.234375 
Q 51.171875 46.625 37.0625 39.84375 
L 37.0625 39.65625 
Q 53.609375 33.6875 53.609375 19.34375 
Q 53.609375 9.90625 46.796875 4.3125 
Q 39.984375 -1.265625 27.78125 -1.265625 
Q 17.78125 -1.265625 11.46875 4.25 
Q 5.171875 9.765625 5.171875 18.5625 
Q 5.171875 33.015625 21.390625 39.59375 
z
M 41.5 58.109375 
Q 41.5 63.1875 38.328125 66.109375 
Q 35.15625 69.046875 29.734375 69.046875 
Q 24.65625 69.046875 21.09375 65.984375 
Q 17.53125 62.9375 17.53125 58.203125 
Q 17.53125 48.734375 29.390625 43.796875 
Q 41.5 48.828125 41.5 58.109375 
z
M 28.8125 35.25 
Q 14.796875 29.59375 14.796875 19.046875 
Q 14.796875 13.578125 18.890625 10.0625 
Q 23 6.546875 29.59375 6.546875 
Q 35.984375 6.546875 39.984375 10.03125 
Q 44 13.53125 44 18.75 
Q 44 29.734375 28.8125 35.25 
z
" id="MicrosoftYaHei-38"/>
      </defs>
      <g transform="translate(422.994348 528.957)scale(0.16 -0.16)">
       <use xlink:href="#MicrosoftYaHei-31"/>
       <use x="58.642578" xlink:href="#MicrosoftYaHei-39"/>
       <use x="117.285156" xlink:href="#MicrosoftYaHei-38"/>
       <use x="175.927734" xlink:href="#MicrosoftYaHei-39"/>
      </g>
     </g>
    </g>
    <g id="xtick_5">
     <g id="line2d_5">
      <g>
       <use style="stroke:#000000;stroke-width:1.6;" x="540.890507" xlink:href="#me0b129d000" y="501.467"/>
      </g>
     </g>
     <g id="text_5">
      <!-- 1999 -->
      <g transform="translate(522.125507 528.957)scale(0.16 -0.16)">
       <use xlink:href="#MicrosoftYaHei-31"/>
       <use x="58.642578" xlink:href="#MicrosoftYaHei-39"/>
       <use x="117.285156" xlink:href="#MicrosoftYaHei-39"/>
       <use x="175.927734" xlink:href="#MicrosoftYaHei-39"/>
      </g>
     </g>
    </g>
    <g id="xtick_6">
     <g id="line2d_6">
      <g>
       <use style="stroke:#000000;stroke-width:1.6;" x="640.021666" xlink:href="#me0b129d000" y="501.467"/>
      </g>
     </g>
     <g id="text_6">
      <!-- 2009 -->
      <defs>
       <path d="M 51.171875 0 
L 5.171875 0 
L 5.171875 8.296875 
L 27.15625 30.21875 
Q 36.234375 39.3125 39.3125 44.609375 
Q 42.390625 49.90625 42.390625 55.5625 
Q 42.390625 62.015625 38.765625 65.453125 
Q 35.15625 68.890625 28.328125 68.890625 
Q 18.21875 68.890625 9.03125 60.296875 
L 9.03125 70.015625 
Q 17.96875 76.90625 29.828125 76.90625 
Q 40.046875 76.90625 45.953125 71.390625 
Q 51.859375 65.875 51.859375 56.546875 
Q 51.859375 49.515625 48.0625 42.75 
Q 44.28125 35.984375 33.734375 25.53125 
L 16.5 8.6875 
L 16.5 8.5 
L 51.171875 8.5 
z
" id="MicrosoftYaHei-32"/>
       <path d="M 4.4375 36.328125 
Q 4.4375 56.34375 11.078125 66.625 
Q 17.71875 76.90625 30.328125 76.90625 
Q 54.34375 76.90625 54.34375 38.140625 
Q 54.34375 19 47.578125 8.859375 
Q 40.828125 -1.265625 28.609375 -1.265625 
Q 17.09375 -1.265625 10.765625 8.34375 
Q 4.4375 17.96875 4.4375 36.328125 
z
M 14.203125 36.765625 
Q 14.203125 6.640625 29.5 6.640625 
Q 44.53125 6.640625 44.53125 37.25 
Q 44.53125 68.953125 29.78125 68.953125 
Q 14.203125 68.953125 14.203125 36.765625 
z
" id="MicrosoftYaHei-30"/>
      </defs>
      <g transform="translate(621.256666 528.957)scale(0.16 -0.16)">
       <use xlink:href="#MicrosoftYaHei-32"/>
       <use x="58.642578" xlink:href="#MicrosoftYaHei-30"/>
       <use x="117.285156" xlink:href="#MicrosoftYaHei-30"/>
       <use x="175.927734" xlink:href="#MicrosoftYaHei-39"/>
      </g>
     </g>
    </g>
    <g id="xtick_7">
     <g id="line2d_7">
      <g>
       <use style="stroke:#000000;stroke-width:1.6;" x="739.152824" xlink:href="#me0b129d000" y="501.467"/>
      </g>
     </g>
     <g id="text_7">
      <!-- 2019 -->
      <g transform="translate(720.387824 528.957)scale(0.16 -0.16)">
       <use xlink:href="#MicrosoftYaHei-32"/>
       <use x="58.642578" xlink:href="#MicrosoftYaHei-30"/>
       <use x="117.285156" xlink:href="#MicrosoftYaHei-31"/>
       <use x="175.927734" xlink:href="#MicrosoftYaHei-39"/>
      </g>
     </g>
    </g>
    <g id="xtick_8">
     <g id="line2d_8">
      <defs>
       <path d="M 0 0 
L 0 2 
" id="mc3724ee1ff" style="stroke:#000000;stroke-width:0.8;"/>
      </defs>
      <g>
       <use style="stroke:#000000;stroke-width:0.8;" x="94.800291" xlink:href="#mc3724ee1ff" y="501.467"/>
      </g>
     </g>
    </g>
    <g id="xtick_9">
     <g id="line2d_9">
      <g>
       <use style="stroke:#000000;stroke-width:0.8;" x="144.365871" xlink:href="#mc3724ee1ff" y="501.467"/>
      </g>
     </g>
    </g>
    <g id="xtick_10">
     <g id="line2d_10">
      <g>
       <use style="stroke:#000000;stroke-width:0.8;" x="193.93145" xlink:href="#mc3724ee1ff" y="501.467"/>
      </g>
     </g>
    </g>
    <g id="xtick_11">
     <g id="line2d_11">
      <g>
       <use style="stroke:#000000;stroke-width:0.8;" x="243.49703" xlink:href="#mc3724ee1ff" y="501.467"/>
      </g>
     </g>
    </g>
    <g id="xtick_12">
     <g id="line2d_12">
      <g>
       <use style="stroke:#000000;stroke-width:0.8;" x="293.062609" xlink:href="#mc3724ee1ff" y="501.467"/>
      </g>
     </g>
    </g>
    <g id="xtick_13">
     <g id="line2d_13">
      <g>
       <use style="stroke:#000000;stroke-width:0.8;" x="342.628189" xlink:href="#mc3724ee1ff" y="501.467"/>
      </g>
     </g>
    </g>
    <g id="xtick_14">
     <g id="line2d_14">
      <g>
       <use style="stroke:#000000;stroke-width:0.8;" x="392.193768" xlink:href="#mc3724ee1ff" y="501.467"/>
      </g>
     </g>
    </g>
    <g id="xtick_15">
     <g id="line2d_15">
      <g>
       <use style="stroke:#000000;stroke-width:0.8;" x="441.759348" xlink:href="#mc3724ee1ff" y="501.467"/>
      </g>
     </g>
    </g>
    <g id="xtick_16">
     <g id="line2d_16">
      <g>
       <use style="stroke:#000000;stroke-width:0.8;" x="491.324927" xlink:href="#mc3724ee1ff" y="501.467"/>
      </g>
     </g>
    </g>
    <g id="xtick_17">
     <g id="line2d_17">
      <g>
       <use style="stroke:#000000;stroke-width:0.8;" x="540.890507" xlink:href="#mc3724ee1ff" y="501.467"/>
      </g>
     </g>
    </g>
    <g id="xtick_18">
     <g id="line2d_18">
      <g>
       <use style="stroke:#000000;stroke-width:0.8;" x="590.456086" xlink:href="#mc3724ee1ff" y="501.467"/>
      </g>
     </g>
    </g>
    <g id="xtick_19">
     <g id="line2d_19">
      <g>
       <use style="stroke:#000000;stroke-width:0.8;" x="640.021666" xlink:href="#mc3724ee1ff" y="501.467"/>
      </g>
     </g>
    </g>
    <g id="xtick_20">
     <g id="line2d_20">
      <g>
       <use style="stroke:#000000;stroke-width:0.8;" x="689.587245" xlink:href="#mc3724ee1ff" y="501.467"/>
      </g>
     </g>
    </g>
    <g id="xtick_21">
     <g id="line2d_21">
      <g>
       <use style="stroke:#000000;stroke-width:0.8;" x="739.152824" xlink:href="#mc3724ee1ff" y="501.467"/>
      </g>
     </g>
    </g>
   </g>
   <g id="matplotlib.axis_2">
    <g id="ytick_1">
     <g id="line2d_22">
      <defs>
       <path d="M 0 0 
L -3.5 0 
" id="m852f1e2d10" style="stroke:#000000;stroke-width:1.6;"/>
      </defs>
      <g>
       <use style="stroke:#000000;stroke-width:1.6;" x="54.9" xlink:href="#m852f1e2d10" y="501.467"/>
      </g>
     </g>
     <g id="text_8">
      <!-- 0% -->
      <defs>
       <path d="M 4.25 56.546875 
Q 4.25 65.828125 9.203125 71.296875 
Q 14.15625 76.765625 22.5625 76.765625 
Q 30.609375 76.765625 35.125 71.734375 
Q 39.65625 66.703125 39.65625 57.71875 
Q 39.65625 48.78125 34.671875 43.203125 
Q 29.6875 37.640625 21.4375 37.640625 
Q 13.625 37.640625 8.9375 42.8125 
Q 4.25 48 4.25 56.546875 
z
M 11.765625 57.03125 
Q 11.765625 50.734375 14.5 47.3125 
Q 17.234375 43.890625 21.96875 43.890625 
Q 26.859375 43.890625 29.515625 47.4375 
Q 32.171875 50.984375 32.171875 57.421875 
Q 32.171875 63.71875 29.5625 67.15625 
Q 26.953125 70.609375 22.21875 70.609375 
Q 17.390625 70.609375 14.578125 67.015625 
Q 11.765625 63.421875 11.765625 57.03125 
z
M 72.609375 75.640625 
L 24.03125 -0.484375 
L 15.875 -0.484375 
L 64.453125 75.640625 
z
M 49.5625 17.71875 
Q 49.5625 27 54.515625 32.546875 
Q 59.46875 38.09375 67.828125 38.09375 
Q 75.828125 38.09375 80.359375 33.03125 
Q 84.90625 27.984375 84.90625 18.796875 
Q 84.90625 9.90625 79.875 4.359375 
Q 74.859375 -1.171875 66.75 -1.171875 
Q 58.890625 -1.171875 54.21875 4.078125 
Q 49.5625 9.328125 49.5625 17.71875 
z
M 57.03125 18.171875 
Q 57.03125 12.015625 59.765625 8.5625 
Q 62.5 5.125 67.234375 5.125 
Q 72.125 5.125 74.78125 8.6875 
Q 77.4375 12.25 77.4375 18.65625 
Q 77.4375 25 74.78125 28.359375 
Q 72.125 31.734375 67.484375 31.734375 
Q 62.5 31.734375 59.765625 28.140625 
Q 57.03125 24.5625 57.03125 18.171875 
z
" id="MicrosoftYaHei-25"/>
      </defs>
      <g transform="translate(16.5825 507.862)scale(0.16 -0.16)">
       <use xlink:href="#MicrosoftYaHei-30"/>
       <use x="58.642578" xlink:href="#MicrosoftYaHei-25"/>
      </g>
     </g>
    </g>
    <g id="ytick_2">
     <g id="line2d_23">
      <g>
       <use style="stroke:#000000;stroke-width:1.6;" x="54.9" xlink:href="#m852f1e2d10" y="440.483"/>
      </g>
     </g>
     <g id="text_9">
      <!-- 2% -->
      <g transform="translate(16.5825 446.878)scale(0.16 -0.16)">
       <use xlink:href="#MicrosoftYaHei-32"/>
       <use x="58.642578" xlink:href="#MicrosoftYaHei-25"/>
      </g>
     </g>
    </g>
    <g id="ytick_3">
     <g id="line2d_24">
      <g>
       <use style="stroke:#000000;stroke-width:1.6;" x="54.9" xlink:href="#m852f1e2d10" y="379.499"/>
      </g>
     </g>
     <g id="text_10">
      <!-- 4% -->
      <defs>
       <path d="M 55.078125 19.625 
L 45.40625 19.625 
L 45.40625 0 
L 36.140625 0 
L 36.140625 19.625 
L 0.875 19.625 
L 0.875 25.828125 
L 34.328125 75.640625 
L 45.40625 75.640625 
L 45.40625 27.203125 
L 55.078125 27.203125 
z
M 36.140625 27.203125 
L 36.140625 58.890625 
Q 36.140625 62.25 36.328125 66.65625 
L 36.140625 66.65625 
Q 35.453125 64.796875 33.25 60.84375 
L 10.75 27.203125 
z
" id="MicrosoftYaHei-34"/>
      </defs>
      <g transform="translate(16.5825 385.894)scale(0.16 -0.16)">
       <use xlink:href="#MicrosoftYaHei-34"/>
       <use x="58.642578" xlink:href="#MicrosoftYaHei-25"/>
      </g>
     </g>
    </g>
    <g id="ytick_4">
     <g id="line2d_25">
      <g>
       <use style="stroke:#000000;stroke-width:1.6;" x="54.9" xlink:href="#m852f1e2d10" y="318.515"/>
      </g>
     </g>
     <g id="text_11">
      <!-- 6% -->
      <g transform="translate(16.5825 324.91)scale(0.16 -0.16)">
       <use xlink:href="#MicrosoftYaHei-36"/>
       <use x="58.642578" xlink:href="#MicrosoftYaHei-25"/>
      </g>
     </g>
    </g>
    <g id="ytick_5">
     <g id="line2d_26">
      <g>
       <use style="stroke:#000000;stroke-width:1.6;" x="54.9" xlink:href="#m852f1e2d10" y="257.531"/>
      </g>
     </g>
     <g id="text_12">
      <!-- 8% -->
      <g transform="translate(16.5825 263.926)scale(0.16 -0.16)">
       <use xlink:href="#MicrosoftYaHei-38"/>
       <use x="58.642578" xlink:href="#MicrosoftYaHei-25"/>
      </g>
     </g>
    </g>
    <g id="ytick_6">
     <g id="line2d_27">
      <g>
       <use style="stroke:#000000;stroke-width:1.6;" x="54.9" xlink:href="#m852f1e2d10" y="196.547"/>
      </g>
     </g>
     <g id="text_13">
      <!-- 10% -->
      <g transform="translate(7.2 202.942)scale(0.16 -0.16)">
       <use xlink:href="#MicrosoftYaHei-31"/>
       <use x="58.642578" xlink:href="#MicrosoftYaHei-30"/>
       <use x="117.285156" xlink:href="#MicrosoftYaHei-25"/>
      </g>
     </g>
    </g>
    <g id="ytick_7">
     <g id="line2d_28">
      <g>
       <use style="stroke:#000000;stroke-width:1.6;" x="54.9" xlink:href="#m852f1e2d10" y="135.563"/>
      </g>
     </g>
     <g id="text_14">
      <!-- 12% -->
      <g transform="translate(7.2 141.958)scale(0.16 -0.16)">
       <use xlink:href="#MicrosoftYaHei-31"/>
       <use x="58.642578" xlink:href="#MicrosoftYaHei-32"/>
       <use x="117.285156" xlink:href="#MicrosoftYaHei-25"/>
      </g>
     </g>
    </g>
    <g id="ytick_8">
     <g id="line2d_29">
      <g>
       <use style="stroke:#000000;stroke-width:1.6;" x="54.9" xlink:href="#m852f1e2d10" y="74.579"/>
      </g>
     </g>
     <g id="text_15">
      <!-- 14% -->
      <g transform="translate(7.2 80.974)scale(0.16 -0.16)">
       <use xlink:href="#MicrosoftYaHei-31"/>
       <use x="58.642578" xlink:href="#MicrosoftYaHei-34"/>
       <use x="117.285156" xlink:href="#MicrosoftYaHei-25"/>
      </g>
     </g>
    </g>
    <g id="ytick_9">
     <g id="line2d_30">
      <g>
       <use style="stroke:#000000;stroke-width:1.6;" x="54.9" xlink:href="#m852f1e2d10" y="13.595"/>
      </g>
     </g>
     <g id="text_16">
      <!-- 16% -->
      <g transform="translate(7.2 19.99)scale(0.16 -0.16)">
       <use xlink:href="#MicrosoftYaHei-31"/>
       <use x="58.642578" xlink:href="#MicrosoftYaHei-36"/>
       <use x="117.285156" xlink:href="#MicrosoftYaHei-25"/>
      </g>
     </g>
    </g>
   </g>
   <g id="line2d_31">
    <path clip-path="url(#p685425621f)" d="M 87.365455 415.17464 
L 88.191548 408.4664 
L 89.017641 406.63688 
L 89.843734 412.12544 
L 90.669827 411.5156 
L 91.49592 413.95496 
L 92.322012 420.35828 
L 93.148105 419.74844 
L 93.974198 422.49272 
L 94.800291 425.84684 
L 95.626384 426.15176 
L 96.452477 429.20096 
L 97.27857 431.64032 
L 98.104663 429.20096 
L 98.930756 428.89604 
L 99.756849 431.3354 
L 100.582942 429.50588 
L 101.409035 428.89604 
L 103.061221 425.84684 
L 103.887314 424.93208 
L 104.713407 421.88288 
L 105.5395 420.6632 
L 106.365593 419.74844 
L 107.191686 417.614 
L 108.017779 417.30908 
L 108.843872 416.69924 
L 109.669965 413.0402 
L 110.496058 410.90576 
L 111.322151 410.90576 
L 112.148244 413.65004 
L 112.974337 413.34512 
L 113.80043 411.21068 
L 115.452616 414.86972 
L 116.278709 411.21068 
L 117.104802 404.50244 
L 117.930895 407.85656 
L 118.756988 409.991 
L 119.583081 406.63688 
L 120.409174 399.92864 
L 121.235267 398.40404 
L 122.06136 399.62372 
L 122.887453 395.04992 
L 123.713546 392.00072 
L 125.365732 399.62372 
L 127.017918 395.35484 
L 127.844011 391.6958 
L 128.670104 385.5974 
L 129.496197 381.63344 
L 130.32229 381.63344 
L 131.148383 381.93836 
L 131.974476 380.41376 
L 132.800569 388.03676 
L 133.626662 403.58768 
L 134.452755 407.24672 
L 135.278848 408.4664 
L 136.104941 410.60084 
L 136.931034 413.65004 
L 137.757127 412.43036 
L 138.58322 410.90576 
L 139.409313 403.8926 
L 140.235406 393.52532 
L 141.061499 386.81708 
L 141.887592 385.5974 
L 142.713685 387.42692 
L 143.539778 383.76788 
L 144.365871 378.88916 
L 145.191964 380.71868 
L 146.018057 379.80392 
L 146.84415 375.83996 
L 147.670243 370.04648 
L 148.496336 369.13172 
L 149.322429 367.3022 
L 150.148522 366.38744 
L 150.974615 358.76444 
L 151.800708 363.33824 
L 152.626801 363.33824 
L 153.452894 358.45952 
L 154.278987 357.54476 
L 155.931173 371.876 
L 156.757266 370.96124 
L 157.583359 368.8268 
L 158.409452 374.9252 
L 159.235545 382.5482 
L 160.061638 385.5974 
L 160.887731 385.5974 
L 161.713824 382.85312 
L 162.539917 381.63344 
L 163.36601 384.37772 
L 164.192103 384.37772 
L 165.018196 386.20724 
L 165.844289 387.42692 
L 166.670382 386.20724 
L 167.496475 388.34168 
L 168.322568 383.15804 
L 169.148661 381.93836 
L 169.974754 378.27932 
L 171.62694 381.93836 
L 172.453033 381.32852 
L 173.279126 377.66948 
L 174.105219 376.4498 
L 174.931312 379.499 
L 175.757405 383.76788 
L 176.583498 383.76788 
L 177.409591 382.5482 
L 178.235684 379.499 
L 179.061777 378.27932 
L 179.88787 380.71868 
L 181.540056 381.93836 
L 182.366149 381.93836 
L 183.192241 384.0728 
L 184.018334 383.46296 
L 184.844427 381.32852 
L 185.67052 381.0236 
L 186.496613 381.0236 
L 187.322706 380.71868 
L 188.148799 379.499 
L 188.974892 379.499 
L 189.800985 378.88916 
L 190.627078 377.36456 
L 191.453171 374.9252 
L 192.279264 377.05964 
L 193.105357 375.23012 
L 193.93145 374.9252 
L 194.757543 374.01044 
L 195.583636 372.48584 
L 196.409729 372.79076 
L 197.235822 373.70552 
L 198.061915 374.9252 
L 198.888008 373.70552 
L 199.714101 373.09568 
L 200.540194 374.01044 
L 201.366287 374.62028 
L 202.19238 373.4006 
L 203.018473 373.09568 
L 203.844566 373.70552 
L 204.670659 372.79076 
L 205.496752 373.4006 
L 206.322845 373.09568 
L 207.148938 372.48584 
L 207.975031 373.4006 
L 208.801124 372.79076 
L 209.627217 371.26616 
L 210.45331 368.8268 
L 211.279403 366.99728 
L 212.105496 364.86284 
L 212.931589 359.6792 
L 213.757682 358.45952 
L 214.583775 348.39716 
L 215.409868 357.84968 
L 216.235961 355.41032 
L 217.062054 355.1054 
L 217.888147 349.92176 
L 218.71424 347.4824 
L 219.540333 338.02988 
L 220.366426 348.39716 
L 221.192519 349.92176 
L 222.018612 345.34796 
L 222.844705 359.98412 
L 223.670798 363.64316 
L 224.496891 357.54476 
L 225.322984 364.253 
L 226.149077 355.71524 
L 226.97517 354.80048 
L 227.801263 342.29876 
L 228.627356 344.12828 
L 229.453449 340.77416 
L 230.279542 339.55448 
L 231.105635 329.49212 
L 231.931728 326.44292 
L 232.757821 327.6626 
L 233.583914 332.54132 
L 234.410007 331.93148 
L 235.2361 325.83308 
L 236.062193 326.44292 
L 236.888286 322.78388 
L 237.714379 329.49212 
L 238.540472 337.11512 
L 239.366565 336.20036 
L 240.192658 334.06592 
L 241.018751 330.40688 
L 241.844844 325.22324 
L 242.670937 313.63628 
L 243.49703 312.72152 
L 244.323123 310.58708 
L 245.149216 309.3674 
L 245.975309 312.4166 
L 246.801402 301.43948 
L 247.627495 296.25584 
L 248.453588 298.39028 
L 249.279681 293.20664 
L 250.105774 272.47208 
L 250.931867 289.85252 
L 251.75796 279.18032 
L 252.584053 261.19004 
L 253.410146 265.154 
L 254.236239 291.0722 
L 255.062332 285.58364 
L 255.888425 263.01956 
L 256.714518 259.0556 
L 258.366704 276.43604 
L 259.192797 273.08192 
L 260.01889 279.18032 
L 260.844983 277.96064 
L 261.671076 303.57392 
L 262.497169 303.269 
L 263.323262 315.77072 
L 264.149355 314.24612 
L 264.975448 332.84624 
L 265.801541 316.07564 
L 267.453727 297.1706 
L 268.27982 292.5968 
L 269.105913 309.97724 
L 269.932006 318.515 
L 270.758099 322.47896 
L 271.584192 320.64944 
L 272.410285 321.86912 
L 273.236378 315.77072 
L 274.062471 317.29532 
L 274.888563 314.85596 
L 275.714656 314.24612 
L 276.540749 316.9904 
L 277.366842 313.9412 
L 278.192935 314.85596 
L 279.019028 305.70836 
L 279.845121 302.04932 
L 281.497307 309.97724 
L 283.149493 302.04932 
L 284.801679 296.25584 
L 285.627772 297.1706 
L 286.453865 290.15744 
L 287.279958 289.85252 
L 288.106051 274.91144 
L 288.932144 280.4 
L 289.758237 291.0722 
L 290.58433 296.86568 
L 291.410423 297.47552 
L 292.236516 291.0722 
L 293.062609 288.023 
L 293.888702 287.71808 
L 294.714795 275.52128 
L 295.540888 267.89828 
L 296.366981 272.16716 
L 297.193074 268.50812 
L 298.84526 254.17688 
L 300.497446 263.93432 
L 301.323539 268.50812 
L 302.149632 275.8262 
L 302.975725 271.86224 
L 303.801818 273.99668 
L 304.627911 257.22608 
L 305.454004 248.07848 
L 306.280097 256.31132 
L 307.10619 258.75068 
L 307.932283 251.4326 
L 308.758376 250.82276 
L 309.584469 242.89484 
L 310.410562 260.27528 
L 311.236655 253.26212 
L 312.062748 264.84908 
L 312.888841 263.6294 
L 313.714934 264.54416 
L 314.541027 267.89828 
L 315.36712 267.59336 
L 316.193213 258.75068 
L 317.019306 261.79988 
L 317.845399 261.79988 
L 318.671492 267.89828 
L 319.497585 271.2524 
L 320.323678 275.21636 
L 321.149771 287.71808 
L 321.975864 293.81648 
L 322.801957 275.8262 
L 323.62805 274.3016 
L 324.454143 275.21636 
L 325.280236 274.3016 
L 326.106329 276.43604 
L 326.932422 281.9246 
L 327.758515 275.21636 
L 328.584608 279.48524 
L 329.410701 275.52128 
L 330.236794 269.11796 
L 331.062887 271.2524 
L 331.88898 264.23924 
L 332.715073 259.36052 
L 335.193352 250.21292 
L 336.845538 238.62596 
L 337.671631 240.45548 
L 338.497724 245.63912 
L 339.323817 240.45548 
L 340.14991 228.25868 
L 340.976003 231.30788 
L 341.802096 222.4652 
L 342.628189 228.5636 
L 343.454282 221.85536 
L 344.280375 223.68488 
L 345.106468 216.3668 
L 345.932561 225.20948 
L 346.758654 232.83248 
L 347.584747 226.73408 
L 349.236933 213.62252 
L 350.063026 174.59276 
L 350.889119 184.96004 
L 351.715212 186.48464 
L 352.541305 162.09104 
L 353.367398 113.60876 
L 354.193491 116.04812 
L 355.019584 173.37308 
L 355.845677 188.924 
L 356.67177 193.80272 
L 357.497863 173.37308 
L 358.323956 149.2844 
L 359.150049 139.83188 
L 359.976142 121.53668 
L 360.802235 113.60876 
L 361.628328 122.45144 
L 362.454421 114.82844 
L 363.280514 91.95944 
L 364.106607 101.10704 
L 364.9327 71.22488 
L 365.758793 89.825 
L 366.584885 78.84788 
L 368.237071 31.58528 
L 369.063164 18.47372 
L 369.889257 55.36904 
L 370.71535 101.10704 
L 371.541443 75.18884 
L 372.367536 70.31012 
L 373.193629 73.66424 
L 374.019722 69.09044 
L 374.845815 78.54296 
L 375.671908 83.42168 
L 376.498001 61.16252 
L 377.324094 84.33644 
L 378.150187 110.86448 
L 379.802373 174.89768 
L 380.628466 172.45832 
L 381.454559 185.56988 
L 382.280652 172.1534 
L 383.106745 188.31416 
L 383.932838 177.64196 
L 384.758931 188.31416 
L 385.585024 171.84848 
L 386.411117 167.27468 
L 387.23721 142.88108 
L 388.063303 136.17284 
L 388.889396 152.63852 
L 389.715489 143.49092 
L 390.541582 146.84504 
L 391.367675 141.05156 
L 392.193768 145.62536 
L 393.019861 134.34332 
L 393.845954 119.40224 
L 394.672047 110.55956 
L 395.49814 77.32328 
L 396.324233 79.45772 
L 397.150326 107.81528 
L 397.976419 111.47432 
L 398.802512 121.23176 
L 399.628605 141.96632 
L 400.454698 148.36964 
L 401.280791 149.2844 
L 402.106884 160.87136 
L 402.932977 138.30728 
L 404.585163 153.55328 
L 405.411256 188.00924 
L 406.237349 188.924 
L 407.063442 179.16656 
L 407.889535 188.00924 
L 408.715628 187.09448 
L 409.541721 196.24208 
L 410.367814 209.04872 
L 411.193907 227.039 
L 412.02 224.59964 
L 412.846093 253.56704 
L 413.672186 276.13112 
L 414.498279 276.43604 
L 415.324372 256.0064 
L 416.150465 277.3508 
L 416.976558 277.65572 
L 417.802651 289.5476 
L 418.628744 274.3016 
L 419.454837 277.65572 
L 420.28093 283.4492 
L 421.107023 281.00984 
L 421.933116 282.53444 
L 422.759209 282.22952 
L 423.585302 272.47208 
L 424.411395 251.12768 
L 425.237488 242.58992 
L 426.063581 245.94404 
L 426.889674 237.40628 
L 427.715767 227.039 
L 428.54186 207.82904 
L 429.367953 230.69804 
L 430.194046 227.34392 
L 431.020139 232.22264 
L 431.846232 249.60308 
L 432.672325 252.65228 
L 433.498418 240.15056 
L 435.150604 220.9406 
L 435.976697 232.52756 
L 436.80279 223.37996 
L 437.628883 219.416 
L 438.454976 231.00296 
L 439.281069 237.7112 
L 440.107162 225.20948 
L 440.933255 222.77012 
L 441.759348 226.73408 
L 442.585441 217.28156 
L 443.411534 217.8914 
L 444.237627 226.42916 
L 445.06372 239.2358 
L 445.889813 254.4818 
L 446.715906 263.01956 
L 447.541999 249.60308 
L 448.368092 248.07848 
L 449.194185 259.97036 
L 450.020278 262.40972 
L 450.846371 259.66544 
L 451.672464 244.41944 
L 452.498557 241.98008 
L 453.32465 237.7112 
L 454.150743 225.81932 
L 454.976836 239.2358 
L 455.802929 244.41944 
L 456.629022 246.55388 
L 457.455115 231.30788 
L 458.281207 232.52756 
L 459.1073 237.7112 
L 459.933393 249.60308 
L 460.759486 255.09164 
L 461.585579 256.61624 
L 462.411672 256.92116 
L 463.237765 256.0064 
L 464.063858 256.92116 
L 464.889951 255.70148 
L 465.716044 250.21292 
L 466.542137 251.4326 
L 468.194323 273.69176 
L 469.020416 273.69176 
L 469.846509 276.43604 
L 470.672602 296.86568 
L 471.498695 278.57048 
L 472.324788 279.79016 
L 473.150881 271.55732 
L 473.976974 269.42288 
L 474.803067 277.96064 
L 475.62916 283.75412 
L 476.455253 296.56076 
L 477.281346 299.60996 
L 478.107439 307.23296 
L 478.933532 294.1214 
L 479.759625 289.5476 
L 480.585718 297.1706 
L 481.411811 306.62312 
L 482.237904 317.60024 
L 483.063997 317.60024 
L 483.89009 316.9904 
L 484.716183 313.63628 
L 485.542276 324.6134 
L 486.368369 323.69864 
L 487.194462 335.2856 
L 488.020555 336.8102 
L 488.846648 335.89544 
L 489.672741 323.69864 
L 490.498834 323.69864 
L 491.324927 327.6626 
L 492.15102 313.9412 
L 492.977113 295.03616 
L 493.803206 286.19348 
L 494.629299 282.83936 
L 495.455392 277.65572 
L 496.281485 284.36396 
L 497.107578 282.22952 
L 497.933671 269.11796 
L 498.759764 263.32448 
L 499.585857 260.27528 
L 500.41195 262.40972 
L 501.238043 269.7278 
L 502.064136 281.31476 
L 502.890229 281.9246 
L 503.716322 285.88856 
L 504.542415 309.3674 
L 505.368508 312.11168 
L 506.194601 304.7936 
L 507.020694 309.97724 
L 507.846787 313.33136 
L 508.67288 317.60024 
L 509.498973 325.83308 
L 510.325066 331.32164 
L 511.151159 330.7118 
L 511.977252 314.55104 
L 512.803345 308.14772 
L 513.629438 298.39028 
L 514.455531 292.5968 
L 515.281624 296.25584 
L 516.107717 294.1214 
L 516.93381 289.24268 
L 517.759903 296.56076 
L 519.412089 316.68548 
L 520.238182 305.40344 
L 521.064275 302.35424 
L 521.890368 301.43948 
L 522.716461 290.46236 
L 523.542554 296.56076 
L 524.368647 298.08536 
L 525.19474 302.96408 
L 526.020833 317.90516 
L 526.846926 308.14772 
L 527.673019 314.85596 
L 528.499112 323.39372 
L 529.325205 322.78388 
L 530.151298 326.138 
L 530.977391 332.84624 
L 531.803484 330.10196 
L 532.629577 328.57736 
L 533.45567 328.27244 
L 535.107856 335.59052 
L 535.933949 333.761 
L 536.760042 347.4824 
L 537.586135 366.08252 
L 538.412228 359.98412 
L 539.238321 356.93492 
L 540.064414 359.6792 
L 540.890507 359.37428 
L 541.7166 340.16432 
L 542.542693 341.384 
L 543.368786 338.02988 
L 544.194879 329.49212 
L 545.020972 324.30848 
L 545.847065 320.95436 
L 546.673158 319.12484 
L 547.499251 321.5642 
L 548.325344 317.90516 
L 549.151437 313.02644 
L 549.977529 304.7936 
L 550.803622 297.78044 
L 551.629715 305.70836 
L 552.455808 317.60024 
L 553.281901 311.50184 
L 554.107994 309.67232 
L 554.934087 317.60024 
L 555.76018 317.29532 
L 556.586273 326.74784 
L 557.412366 324.6134 
L 558.238459 325.52816 
L 559.064552 334.37084 
L 559.890645 345.34796 
L 560.716738 343.21352 
L 561.542831 351.44636 
L 562.368924 351.14144 
L 563.195017 338.3348 
L 564.02111 335.89544 
L 564.847203 336.20036 
L 565.673296 346.87256 
L 566.499389 353.5808 
L 567.325482 361.2038 
L 568.151575 370.3514 
L 568.977668 355.71524 
L 569.803761 346.87256 
L 570.629854 346.87256 
L 571.455947 352.66604 
L 572.28204 336.20036 
L 573.108133 345.65288 
L 573.934226 346.56764 
L 574.760319 353.27588 
L 576.412505 375.23012 
L 577.238598 390.78104 
L 578.890784 372.79076 
L 579.716877 384.68264 
L 580.54297 379.499 
L 581.369063 388.34168 
L 582.195156 384.68264 
L 583.021249 382.85312 
L 583.847342 398.70896 
L 584.673435 393.52532 
L 585.499528 364.55792 
L 586.325621 365.7776 
L 587.151714 380.71868 
L 587.977807 369.43664 
L 588.8039 369.13172 
L 589.629993 371.26616 
L 590.456086 374.62028 
L 591.282179 379.80392 
L 592.108272 383.76788 
L 592.934365 363.33824 
L 593.760458 359.37428 
L 594.586551 360.59396 
L 595.412644 364.253 
L 596.238737 375.53504 
L 597.06483 375.23012 
L 597.890923 377.9744 
L 598.717016 368.52188 
L 599.543109 372.18092 
L 600.369202 375.23012 
L 601.195295 368.52188 
L 602.021388 364.253 
L 602.847481 373.09568 
L 603.673574 379.499 
L 604.499667 381.32852 
L 605.32576 370.96124 
L 606.151853 378.88916 
L 606.977946 369.13172 
L 607.804039 362.11856 
L 608.630132 364.55792 
L 609.456225 367.60712 
L 610.282318 363.33824 
L 611.108411 362.7284 
L 611.934504 353.27588 
L 612.760597 346.87256 
L 613.58669 345.34796 
L 614.412783 344.4332 
L 615.238876 349.31192 
L 616.064969 356.93492 
L 616.891062 359.98412 
L 617.717155 360.89888 
L 618.543248 365.47268 
L 619.369341 357.84968 
L 620.195434 354.19064 
L 621.021527 362.42348 
L 621.84762 359.6792 
L 622.673713 360.28904 
L 623.499806 352.0562 
L 624.325899 348.09224 
L 625.978085 363.03332 
L 626.804178 361.50872 
L 627.630271 364.86284 
L 628.456364 380.41376 
L 629.282457 378.27932 
L 630.10855 389.56136 
L 630.934643 393.83024 
L 631.760736 396.2696 
L 633.412922 377.66948 
L 634.239015 379.80392 
L 635.065108 379.80392 
L 635.891201 384.68264 
L 636.717294 384.0728 
L 637.543387 379.19408 
L 638.36948 412.12544 
L 639.195573 432.86 
L 640.021666 413.95496 
L 640.847759 409.38116 
L 641.673851 418.83368 
L 642.499944 405.11228 
L 643.326037 395.65976 
L 644.15213 393.83024 
L 644.978223 394.13516 
L 645.804316 397.7942 
L 646.630409 400.53848 
L 647.456502 397.48928 
L 648.282595 403.58768 
L 649.108688 384.0728 
L 649.934781 390.78104 
L 650.760874 391.39088 
L 651.586967 384.37772 
L 652.41306 388.95152 
L 654.065246 410.90576 
L 654.891339 411.82052 
L 655.717432 426.15176 
L 656.543525 424.32224 
L 657.369618 421.27304 
L 658.195711 415.78448 
L 659.021804 400.8434 
L 659.847897 397.18436 
L 660.67399 397.18436 
L 661.500083 395.65976 
L 662.326176 400.23356 
L 663.152269 408.4664 
L 663.978362 404.50244 
L 664.804455 415.47956 
L 665.630548 433.46984 
L 666.456641 442.92236 
L 667.282734 435.29936 
L 668.108827 438.04364 
L 668.93492 443.83712 
L 669.761013 445.66664 
L 670.587106 441.09284 
L 671.413199 433.46984 
L 672.239292 442.0076 
L 673.065385 452.98472 
L 673.891478 450.54536 
L 674.717571 455.42408 
L 675.543664 453.59456 
L 677.19585 449.02076 
L 678.021943 452.06996 
L 678.848036 447.19124 
L 679.674129 439.87316 
L 680.500222 443.83712 
L 681.326315 444.44696 
L 682.152408 449.6306 
L 682.978501 435.60428 
L 683.804594 424.62716 
L 684.630687 422.1878 
L 685.45678 416.69924 
L 686.282873 420.96812 
L 687.108966 423.10256 
L 687.935059 417.614 
L 688.761152 408.77132 
L 689.587245 420.05336 
L 690.413338 420.35828 
L 691.239431 418.22384 
L 692.065524 420.05336 
L 692.891617 425.84684 
L 694.543803 422.79764 
L 695.369896 429.8108 
L 696.195989 424.62716 
L 697.848175 434.99444 
L 698.674268 435.29936 
L 699.500361 450.24044 
L 700.326454 440.483 
L 701.152547 442.31252 
L 701.97864 438.9584 
L 702.804733 436.82396 
L 703.630826 429.8108 
L 704.456919 434.3846 
L 705.283012 434.07968 
L 706.109105 438.65348 
L 706.935198 435.60428 
L 707.761291 434.07968 
L 708.587384 432.25016 
L 709.413477 442.31252 
L 710.23957 448.41092 
L 711.065663 447.19124 
L 711.891756 445.66664 
L 712.717849 445.36172 
L 713.543942 456.03392 
L 714.370035 456.94868 
L 715.196128 453.28964 
L 716.022221 452.6798 
L 716.848314 445.36172 
L 717.674407 429.20096 
L 718.5005 426.7616 
L 719.326593 426.7616 
L 720.152686 429.50588 
L 720.978779 428.2862 
L 721.804872 431.64032 
L 722.630965 434.07968 
L 723.457058 431.03048 
L 724.283151 431.3354 
L 725.109244 436.82396 
L 725.935337 430.42064 
L 726.76143 428.89604 
L 727.587523 427.67636 
L 728.413616 428.2862 
L 729.239709 418.52876 
L 730.065802 413.95496 
L 730.891895 417.91892 
L 731.717988 411.5156 
L 732.54408 415.17464 
L 733.370173 414.5648 
L 734.196266 411.21068 
L 735.022359 414.25988 
L 735.848452 408.4664 
L 736.674545 405.4172 
L 736.674545 405.4172 
" style="fill:none;stroke:#000000;stroke-linecap:square;stroke-width:2.8;"/>
   </g>
   <g id="patch_3">
    <path d="M 54.9 501.467 
L 54.9 13.595 
" style="fill:none;stroke:#000000;stroke-linecap:square;stroke-linejoin:miter;stroke-width:0.8;"/>
   </g>
   <g id="patch_4">
    <path d="M 54.9 501.467 
L 769.14 501.467 
" style="fill:none;stroke:#000000;stroke-linecap:square;stroke-linejoin:miter;stroke-width:0.8;"/>
   </g>
   <g id="legend_1">
    <g id="line2d_32">
     <path d="M 533.94 35.185 
L 565.94 35.185 
" style="fill:none;stroke:#000000;stroke-linecap:square;stroke-width:2.8;"/>
    </g>
    <g id="line2d_33"/>
    <g id="text_17">
     <!-- 美国长期国债到期收益率 -->
     <defs>
      <path d="M 2.34375 37.546875 
L 46.1875 37.546875 
L 46.1875 46.734375 
L 10.359375 46.734375 
L 10.359375 53.375 
L 46.1875 53.375 
L 46.1875 62.359375 
L 4.5 62.359375 
L 4.5 69 
L 35.296875 69 
Q 30.28125 73.34375 22.265625 79.4375 
L 26.765625 84.328125 
Q 35.25 78.5625 40.921875 74.265625 
L 35.75 69 
L 61.71875 69 
L 58.109375 73.09375 
Q 65.828125 78.46875 72.078125 83.9375 
L 77.828125 78.46875 
Q 71.578125 73.78125 64.3125 69 
L 96.09375 69 
L 96.09375 62.359375 
L 54.203125 62.359375 
L 54.203125 53.375 
L 90.828125 53.375 
L 90.828125 46.734375 
L 54.203125 46.734375 
L 54.203125 37.546875 
L 97.859375 37.546875 
L 97.859375 30.90625 
L 2.34375 30.90625 
z
M 98.640625 -4.734375 
Q 94.921875 -9.71875 92.96875 -12.84375 
Q 60.890625 -6.546875 50.25 12.546875 
Q 40.71875 -7.625 6.34375 -13.625 
Q 4.390625 -10.296875 1.5625 -6.203125 
Q 34.375 -1.65625 42.828125 14.3125 
L 3.71875 14.3125 
L 3.71875 20.953125 
L 45.515625 20.953125 
Q 46.484375 24.359375 47.078125 28.765625 
L 55.078125 28.765625 
Q 54.296875 24.46875 53.328125 20.953125 
L 96.875 20.953125 
L 96.875 14.3125 
L 56.734375 14.3125 
Q 68.171875 -2.15625 98.640625 -4.734375 
z
" id="MicrosoftYaHei-7f8e"/>
      <path d="M 7.328125 78.078125 
L 92.78125 78.078125 
L 92.78125 -13.03125 
L 85.25 -13.03125 
L 85.25 -8.15625 
L 14.84375 -8.15625 
L 14.84375 -13.140625 
L 7.328125 -13.140625 
z
M 85.25 71.140625 
L 14.84375 71.140625 
L 14.84375 -1.21875 
L 85.25 -1.21875 
z
M 19.34375 15.765625 
L 46.296875 15.765625 
L 46.296875 35.109375 
L 22.75 35.109375 
L 22.75 41.75 
L 46.296875 41.75 
L 46.296875 54.828125 
L 20.90625 54.828125 
L 20.90625 61.46875 
L 79.109375 61.46875 
L 79.109375 54.828125 
L 53.515625 54.828125 
L 53.515625 41.75 
L 77.15625 41.75 
L 77.15625 35.109375 
L 53.515625 35.109375 
L 53.515625 15.765625 
L 80.671875 15.765625 
L 80.671875 9.125 
L 19.34375 9.125 
z
M 58.59375 28.859375 
L 64.0625 32.953125 
Q 69.4375 27.390625 73.25 22.515625 
L 67.484375 18.109375 
Q 62.796875 24.46875 58.59375 28.859375 
z
" id="MicrosoftYaHei-56fd"/>
      <path d="M 2.640625 43.21875 
L 19.828125 43.21875 
L 19.828125 83.0625 
L 27.828125 83.0625 
L 27.828125 43.21875 
L 96.78125 43.21875 
L 96.78125 35.59375 
L 54 35.59375 
Q 66.21875 8.84375 98.828125 -1.21875 
Q 95.515625 -5.609375 92.875 -9.234375 
Q 57.765625 4.15625 45.703125 35.59375 
L 27.828125 35.59375 
L 27.828125 0.25 
Q 38.96875 4.734375 51.46875 10.59375 
Q 51.46875 6 51.859375 1.8125 
Q 40.234375 -2.984375 29.59375 -8.25 
Q 25.6875 -10.40625 22.359375 -13.03125 
L 16.5 -5.515625 
Q 19.828125 -2.875 19.828125 1.609375 
L 19.828125 35.59375 
L 2.640625 35.59375 
z
M 33.6875 55.125 
Q 57.90625 63.234375 80.28125 79.828125 
L 85.359375 73.484375 
Q 62.5 56.78125 37.5 47.90625 
Q 35.9375 51.21875 33.6875 55.125 
z
" id="MicrosoftYaHei-957f"/>
      <path d="M 58.890625 79.15625 
L 93.453125 79.15625 
L 93.453125 -0.046875 
Q 93.453125 -11.578125 82.515625 -11.578125 
Q 77.046875 -11.578125 71.78125 -11.28125 
Q 71.390625 -8.0625 70.609375 -3.765625 
Q 77.734375 -4.4375 80.859375 -4.4375 
Q 86.234375 -4.4375 86.234375 0.921875 
L 86.234375 21.4375 
L 65.328125 21.4375 
Q 64.265625 0.046875 52.34375 -14.109375 
Q 49.703125 -11.375 46.484375 -8.640625 
Q 54.390625 0.4375 56.546875 10.203125 
Q 58.890625 19.578125 58.890625 42.828125 
z
M 1.953125 17.828125 
L 11.140625 17.828125 
L 11.140625 62.9375 
L 3.125 62.9375 
L 3.125 69.578125 
L 11.140625 69.578125 
L 11.140625 81.5 
L 18.359375 81.5 
L 18.359375 69.578125 
L 38.671875 69.578125 
L 38.671875 81.890625 
L 45.90625 81.890625 
L 45.90625 69.578125 
L 53.8125 69.578125 
L 53.8125 62.9375 
L 45.90625 62.9375 
L 45.90625 17.828125 
L 53.71875 17.828125 
L 53.71875 11.1875 
L 1.953125 11.1875 
z
M 65.765625 27.875 
L 86.234375 27.875 
L 86.234375 47.015625 
L 66.109375 47.015625 
Q 66.21875 34.421875 65.765625 27.875 
z
M 86.234375 72.515625 
L 66.109375 72.515625 
L 66.109375 53.46875 
L 86.234375 53.46875 
z
M 18.359375 17.828125 
L 38.671875 17.828125 
L 38.671875 28.765625 
L 18.359375 28.765625 
z
M 18.359375 35.015625 
L 38.671875 35.015625 
L 38.671875 45.84375 
L 18.359375 45.84375 
z
M 18.359375 52.09375 
L 38.671875 52.09375 
L 38.671875 62.9375 
L 18.359375 62.9375 
z
M 18.359375 9.328125 
L 24.3125 4.640625 
Q 14.453125 -6 6.34375 -13.234375 
Q 4.296875 -10.890625 1.171875 -8.0625 
Q 10.453125 -0.140625 18.359375 9.328125 
z
M 31.15625 4.734375 
L 35.84375 9.515625 
Q 42.671875 4.4375 48.734375 -0.734375 
L 43.5625 -6.296875 
Q 38.09375 -0.828125 31.15625 4.734375 
z
" id="MicrosoftYaHei-671f"/>
      <path d="M 26.859375 47.40625 
L 58.984375 47.40625 
L 58.984375 54.34375 
L 34.1875 54.34375 
L 34.1875 60.5 
L 58.984375 60.5 
L 58.984375 67.328125 
L 31.0625 67.328125 
L 31.0625 73.484375 
L 58.984375 73.484375 
L 58.984375 82.171875 
L 66.3125 82.171875 
L 66.3125 73.484375 
L 95.125 73.484375 
L 95.125 67.328125 
L 66.3125 67.328125 
L 66.3125 60.5 
L 90.328125 60.5 
L 90.328125 54.34375 
L 66.3125 54.34375 
L 66.3125 47.40625 
L 97.953125 47.40625 
L 97.953125 41.265625 
L 26.859375 41.265625 
z
M 1.265625 35.203125 
Q 12.890625 54.25 19.34375 82.375 
L 26.46875 81.109375 
Q 23.640625 70.65625 20.40625 61.375 
L 20.40625 -13.71875 
L 13.28125 -13.71875 
L 13.28125 44.09375 
Q 8.890625 35.015625 3.90625 27.390625 
Q 2.734375 31.390625 1.265625 35.203125 
z
M 34.859375 34.625 
L 89.15625 34.625 
L 89.15625 4.4375 
L 82.03125 4.4375 
L 82.03125 28.265625 
L 42 28.265625 
L 42 3.953125 
L 34.859375 3.953125 
z
M 58.5 25.140625 
L 65.625 25.140625 
Q 65.625 17.046875 64.0625 10.984375 
Q 80.5625 2.78125 97.265625 -7.765625 
L 92.875 -14.015625 
Q 77.546875 -3.953125 61.921875 4.9375 
Q 60.546875 2.09375 58.6875 0.046875 
Q 50.875 -8.9375 31.453125 -13.921875 
Q 28.515625 -8.453125 27.25 -6.890625 
Q 45.90625 -2.875 52.25 3.859375 
Q 58.5 9.8125 58.5 25.140625 
z
" id="MicrosoftYaHei-503a"/>
      <path d="M 44.625 64.40625 
Q 52.4375 52.875 59.28125 40.375 
Q 55.5625 38.625 51.765625 36.46875 
Q 50.046875 40.09375 48.25 43.609375 
Q 27.203125 41.546875 8.296875 39.59375 
L 4.78125 47.703125 
Q 10.453125 50.734375 14.546875 57.375 
Q 18.3125 63.03125 21.921875 70.0625 
L 3.71875 70.0625 
L 3.71875 77.296875 
L 59.765625 77.296875 
L 59.765625 70.0625 
L 31.15625 70.0625 
Q 23.875 57.71875 16.40625 47.609375 
Q 30.328125 48.640625 44.734375 50.140625 
Q 41.5 55.765625 37.984375 61.078125 
z
M 4.390625 27.09375 
L 27.34375 27.09375 
L 27.34375 39.203125 
L 35.15625 39.203125 
L 35.15625 27.09375 
L 57.515625 27.09375 
L 57.515625 19.875 
L 35.15625 19.875 
L 35.15625 2.6875 
Q 46.6875 4.15625 58.890625 5.8125 
Q 58.890625 2.390625 59.28125 -1.8125 
Q 31.640625 -5.21875 3.71875 -9.328125 
L 1.46875 -1.125 
Q 13.921875 0.140625 27.34375 1.765625 
L 27.34375 19.875 
L 4.390625 19.875 
z
M 86.234375 83.15625 
L 94.34375 83.15625 
L 94.34375 0.53125 
Q 94.34375 -11.671875 82.515625 -11.671875 
Q 78.515625 -11.671875 68.265625 -11.578125 
Q 67.671875 -7.5625 66.796875 -2.78125 
Q 75.390625 -3.5625 80.078125 -3.5625 
Q 86.234375 -3.65625 86.234375 2.78125 
z
M 65.046875 72.609375 
L 72.953125 72.609375 
L 72.953125 10.40625 
L 65.046875 10.40625 
z
" id="MicrosoftYaHei-5230"/>
      <path d="M 35.0625 41.546875 
Q 47.5625 63.234375 53.125 83.453125 
L 61.03125 81.203125 
Q 57.90625 72.171875 54.5 63.921875 
L 97.078125 63.921875 
L 97.078125 56.6875 
L 85.59375 56.6875 
Q 84.125 28.421875 71.09375 10.640625 
Q 81 1.859375 99.21875 -4.640625 
Q 96.1875 -8.453125 93.65625 -12.453125 
Q 76.265625 -5.03125 65.921875 4.6875 
Q 56.5 -4.59375 39.84375 -13.328125 
Q 37.796875 -10.109375 34.859375 -6.78125 
Q 51.515625 1.5625 60.59375 10.5 
Q 49.3125 24.609375 46 45.5625 
Q 43.265625 40.234375 40.328125 35.296875 
Q 38.484375 38.140625 35.0625 41.546875 
z
M 26.265625 82.671875 
L 33.6875 82.671875 
L 33.6875 -12.75 
L 26.265625 -12.75 
L 26.265625 17.390625 
Q 20.3125 14.0625 14.15625 10.015625 
Q 11.625 8.15625 9.1875 5.609375 
L 3.609375 12.15625 
Q 6.640625 15.375 6.640625 20.5625 
L 6.640625 69 
L 14.0625 69 
L 14.0625 19 
Q 19.875 22.078125 26.265625 25.53125 
z
M 77.875 56.6875 
L 51.90625 56.6875 
Q 53.328125 32.859375 65.671875 16.546875 
Q 76.8125 32.234375 77.875 56.6875 
z
" id="MicrosoftYaHei-6536"/>
      <path d="M 1.765625 -1.609375 
L 15.921875 -1.609375 
L 15.921875 31.203125 
L 84.46875 31.203125 
L 84.46875 -1.609375 
L 97.953125 -1.609375 
L 97.953125 -8.453125 
L 1.765625 -8.453125 
z
M 4.109375 64.3125 
L 57.375 64.3125 
Q 66.015625 72.65625 74.125 83.34375 
L 81.25 78.859375 
Q 74.609375 71.140625 67.671875 64.3125 
L 96.484375 64.3125 
L 96.484375 57.46875 
L 4.109375 57.46875 
z
M 77.4375 24.5625 
L 63.765625 24.5625 
L 63.765625 -1.609375 
L 77.4375 -1.609375 
z
M 22.953125 -1.609375 
L 36.53125 -1.609375 
L 36.53125 24.5625 
L 22.953125 24.5625 
z
M 43.359375 -1.609375 
L 56.9375 -1.609375 
L 56.9375 24.5625 
L 43.359375 24.5625 
z
M 36.53125 54.4375 
L 41.3125 48.09375 
Q 26.078125 38.8125 7.125 29.25 
Q 5.171875 33.0625 3.125 36.078125 
Q 21.390625 44.875 36.53125 54.4375 
z
M 59.28125 48.296875 
L 63.28125 54.25 
Q 82.8125 45.0625 97.078125 37.25 
L 92.78125 30.03125 
Q 73.53125 41.15625 59.28125 48.296875 
z
M 19.34375 78.375 
L 24.421875 83.453125 
Q 32.8125 77.390625 39.546875 71.625 
L 33.984375 65.765625 
Q 27.640625 71.828125 19.34375 78.375 
z
" id="MicrosoftYaHei-76ca"/>
      <path d="M 39.453125 31.390625 
Q 40.96875 31.5 61.375 32.515625 
Q 58.9375 35.9375 56.640625 38.921875 
L 61.921875 42.234375 
Q 68.953125 34.421875 74.90625 25.828125 
L 68.65625 21.921875 
Q 66.9375 24.515625 65.28125 26.953125 
Q 46.734375 25.921875 34.578125 24.953125 
Q 32.421875 24.75 29.390625 24.078125 
L 26.953125 30.71875 
Q 29.890625 31.6875 31.34375 32.5625 
Q 39.59375 38.140625 47.65625 45.515625 
Q 40.578125 45.21875 35.546875 44.78125 
Q 33.5 44.484375 31.0625 43.890625 
L 28.125 49.859375 
Q 30.5625 50.734375 32.625 52.59375 
Q 39.203125 58.15625 44.921875 66.0625 
L 3.609375 66.0625 
L 3.609375 72.90625 
L 47.359375 72.90625 
Q 44.96875 77.25 42.875 80.515625 
L 49.90625 83.9375 
Q 53.71875 78.125 56.5 72.90625 
L 96.484375 72.90625 
L 96.484375 66.0625 
L 47.703125 66.0625 
L 52.34375 63.625 
Q 44.4375 55.515625 38.96875 50.734375 
Q 44.53125 50.875 53.515625 51.078125 
Q 57.421875 54.984375 61.328125 59.328125 
L 68.0625 55.421875 
Q 52.546875 40.671875 39.453125 31.390625 
z
M 2.25 15.484375 
L 46.78125 15.484375 
L 46.78125 24.078125 
L 54.5 24.078125 
L 54.5 15.484375 
L 98.046875 15.484375 
L 98.046875 8.640625 
L 54.5 8.640625 
L 54.5 -13.328125 
L 46.78125 -13.328125 
L 46.78125 8.640625 
L 2.25 8.640625 
z
M 26.859375 41.75 
L 30.375 35.984375 
Q 18.75 29.15625 6.640625 22.015625 
L 2.546875 28.5625 
Q 12.703125 33.34375 26.859375 41.75 
z
M 75.875 41.84375 
Q 89.84375 33.9375 97.65625 28.375 
L 93.359375 22.015625 
Q 83.296875 29.828125 71.875 36.578125 
z
M 93.65625 56.109375 
Q 86.234375 49.65625 77.546875 43.890625 
L 72.5625 49.078125 
Q 81.9375 55.21875 88.09375 61.375 
z
M 5.671875 56.78125 
L 10.640625 61.578125 
Q 18.75 55.125 24.8125 49.359375 
L 19.34375 44 
Q 13.671875 49.953125 5.671875 56.78125 
z
" id="MicrosoftYaHei-7387"/>
     </defs>
     <g transform="translate(578.74 40.785)scale(0.16 -0.16)">
      <use xlink:href="#MicrosoftYaHei-7f8e"/>
      <use x="100" xlink:href="#MicrosoftYaHei-56fd"/>
      <use x="200" xlink:href="#MicrosoftYaHei-957f"/>
      <use x="300" xlink:href="#MicrosoftYaHei-671f"/>
      <use x="400" xlink:href="#MicrosoftYaHei-56fd"/>
      <use x="500" xlink:href="#MicrosoftYaHei-503a"/>
      <use x="600" xlink:href="#MicrosoftYaHei-5230"/>
      <use x="700" xlink:href="#MicrosoftYaHei-671f"/>
      <use x="800" xlink:href="#MicrosoftYaHei-6536"/>
      <use x="900" xlink:href="#MicrosoftYaHei-76ca"/>
      <use x="1000" xlink:href="#MicrosoftYaHei-7387"/>
     </g>
    </g>
   </g>
  </g>
 </g>
 <defs>
  <clipPath id="p685425621f">
   <rect height="487.872" width="714.24" x="54.9" y="13.595"/>
  </clipPath>
 </defs>
</svg>
