<?xml version="1.0" encoding="utf-8" standalone="no"?>
<!DOCTYPE svg PUBLIC "-//W3C//DTD SVG 1.1//EN"
  "http://www.w3.org/Graphics/SVG/1.1/DTD/svg11.dtd">
<!-- Created with matplotlib (http://matplotlib.org/) -->
<svg height="554.26575pt" version="1.1" viewBox="0 0 791.13375 554.26575" width="791.13375pt" xmlns="http://www.w3.org/2000/svg" xmlns:xlink="http://www.w3.org/1999/xlink">
 <defs>
  <style type="text/css">
*{stroke-linecap:butt;stroke-linejoin:round;}
  </style>
 </defs>
 <g id="figure_1">
  <g id="patch_1">
   <path d="M 0 554.26575 
L 791.13375 554.26575 
L 791.13375 0 
L 0 0 
z
" style="fill:#ffffff;"/>
  </g>
  <g id="axes_1">
   <g id="patch_2">
    <path d="M 66.19375 498.572 
L 780.43375 498.572 
L 780.43375 10.7 
L 66.19375 10.7 
z
" style="fill:#ffffff;"/>
   </g>
   <g id="matplotlib.axis_1">
    <g id="xtick_1">
     <g id="line2d_1">
      <defs>
       <path d="M 0 0 
L 0 3.5 
" id="m496e8a21c1" style="stroke:#000000;stroke-width:1.6;"/>
      </defs>
      <g>
       <use style="stroke:#000000;stroke-width:1.6;" x="87.542421" xlink:href="#m496e8a21c1" y="498.572"/>
      </g>
     </g>
     <g id="text_1">
      <!-- 0 -->
      <defs>
       <path d="M 25 66.015625 
Q 19.53125 66.015625 15.8125 57.609375 
Q 12.109375 49.21875 12.109375 35.15625 
Q 12.109375 20.3125 15.8125 12.109375 
Q 19.53125 3.90625 25 3.90625 
Q 30.859375 3.90625 34.171875 12.109375 
Q 37.5 20.3125 37.5 35.15625 
Q 37.5 49.21875 34.375 57.609375 
Q 31.25 66.015625 25 66.015625 
z
M 25 0.78125 
Q 16.40625 0.78125 10.546875 9.765625 
Q 4.6875 18.75 4.6875 35.15625 
Q 4.6875 50.390625 10.34375 59.765625 
Q 16.015625 69.140625 25 69.140625 
Q 33.59375 69.140625 39.25 60.15625 
Q 44.921875 51.171875 44.921875 35.15625 
Q 44.921875 19.140625 39.25 9.953125 
Q 33.59375 0.78125 25 0.78125 
z
" id="SimSun-30"/>
      </defs>
      <g transform="translate(83.542421 524.7095)scale(0.16 -0.16)">
       <use xlink:href="#SimSun-30"/>
      </g>
     </g>
    </g>
    <g id="xtick_2">
     <g id="line2d_2">
      <g>
       <use style="stroke:#000000;stroke-width:1.6;" x="220.774317" xlink:href="#m496e8a21c1" y="498.572"/>
      </g>
     </g>
     <g id="text_2">
      <!-- 2 -->
      <defs>
       <path d="M 36.328125 51.953125 
Q 36.328125 58.984375 33.203125 62.6875 
Q 30.078125 66.40625 23.828125 66.40625 
Q 19.140625 66.40625 15.8125 63.859375 
Q 12.5 61.328125 12.5 57.421875 
Q 12.5 55.078125 14.0625 53.515625 
Q 15.234375 51.953125 15.234375 50.390625 
Q 15.234375 48.4375 14.25 47.453125 
Q 13.28125 46.484375 11.328125 46.484375 
Q 8.984375 46.484375 7.609375 47.84375 
Q 6.25 49.21875 6.25 52.34375 
Q 6.25 60.546875 12.109375 64.84375 
Q 17.96875 69.140625 24.609375 69.140625 
Q 33.984375 69.140625 38.46875 64.453125 
Q 42.96875 59.765625 42.96875 52.734375 
Q 42.96875 48.046875 40.8125 43.359375 
Q 38.671875 38.671875 33.984375 34.375 
Q 22.65625 23.4375 16.59375 16.59375 
Q 10.546875 9.765625 9.375 7.421875 
L 32.421875 7.421875 
Q 35.9375 7.421875 38.28125 10.15625 
Q 40.625 12.890625 41.40625 18.359375 
L 43.75 18.359375 
L 41.40625 1.5625 
L 5.078125 1.5625 
L 5.078125 6.640625 
Q 7.03125 10.15625 11.515625 15.625 
Q 16.015625 21.09375 23.4375 28.515625 
Q 30.078125 35.15625 33.203125 41.015625 
Q 36.328125 46.875 36.328125 51.953125 
z
" id="SimSun-32"/>
      </defs>
      <g transform="translate(216.774317 524.7095)scale(0.16 -0.16)">
       <use xlink:href="#SimSun-32"/>
      </g>
     </g>
    </g>
    <g id="xtick_3">
     <g id="line2d_3">
      <g>
       <use style="stroke:#000000;stroke-width:1.6;" x="354.006213" xlink:href="#m496e8a21c1" y="498.572"/>
      </g>
     </g>
     <g id="text_3">
      <!-- 4 -->
      <defs>
       <path d="M 35.9375 8.984375 
Q 35.9375 6.25 37.5 5.078125 
Q 39.0625 3.90625 41.796875 3.90625 
L 45.3125 3.90625 
L 45.3125 1.5625 
L 19.53125 1.5625 
L 19.53125 3.90625 
L 23.828125 3.90625 
Q 26.953125 3.90625 28.3125 5.078125 
Q 29.6875 6.25 29.6875 8.984375 
L 29.6875 21.875 
L 3.515625 21.875 
L 3.515625 23.828125 
L 32.03125 69.140625 
L 35.9375 69.140625 
L 35.9375 24.21875 
L 46.484375 24.21875 
L 46.484375 21.875 
L 35.9375 21.875 
z
M 29.296875 59.375 
L 7.03125 24.21875 
L 29.6875 24.21875 
L 29.6875 59.375 
z
" id="SimSun-34"/>
      </defs>
      <g transform="translate(350.006213 524.7095)scale(0.16 -0.16)">
       <use xlink:href="#SimSun-34"/>
      </g>
     </g>
    </g>
    <g id="xtick_4">
     <g id="line2d_4">
      <g>
       <use style="stroke:#000000;stroke-width:1.6;" x="487.238109" xlink:href="#m496e8a21c1" y="498.572"/>
      </g>
     </g>
     <g id="text_4">
      <!-- 6 -->
      <defs>
       <path d="M 12.109375 28.125 
Q 12.109375 16.40625 16.203125 9.953125 
Q 20.3125 3.515625 26.171875 3.515625 
Q 32.03125 3.515625 35.15625 7.8125 
Q 38.28125 12.109375 38.28125 23.828125 
Q 38.28125 31.640625 34.953125 35.9375 
Q 31.640625 40.234375 26.953125 40.234375 
Q 22.65625 40.234375 18.9375 37.6875 
Q 15.234375 35.15625 12.109375 28.125 
z
M 27.34375 44.140625 
Q 36.71875 44.140625 40.8125 37.890625 
Q 44.921875 31.640625 44.921875 23.828125 
Q 44.921875 12.109375 39.25 6.4375 
Q 33.59375 0.78125 26.171875 0.78125 
Q 15.625 0.78125 10.15625 8.78125 
Q 4.6875 16.796875 4.6875 32.03125 
Q 4.6875 50 11.328125 59.5625 
Q 17.96875 69.140625 29.296875 69.140625 
Q 34.765625 69.140625 38.078125 66.015625 
Q 41.40625 62.890625 41.40625 60.546875 
Q 41.40625 58.203125 40.421875 57.03125 
Q 39.453125 55.859375 37.109375 55.859375 
Q 35.15625 55.859375 34.171875 56.828125 
Q 33.203125 57.8125 33.203125 59.765625 
Q 33.203125 60.546875 33.59375 61.328125 
Q 33.59375 62.109375 33.59375 62.890625 
Q 33.59375 64.453125 32.421875 65.421875 
Q 31.25 66.40625 28.125 66.40625 
Q 21.484375 66.40625 16.796875 60.34375 
Q 12.109375 54.296875 12.109375 33.984375 
Q 14.453125 39.0625 18.546875 41.59375 
Q 22.65625 44.140625 27.34375 44.140625 
z
" id="SimSun-36"/>
      </defs>
      <g transform="translate(483.238109 524.7095)scale(0.16 -0.16)">
       <use xlink:href="#SimSun-36"/>
      </g>
     </g>
    </g>
    <g id="xtick_5">
     <g id="line2d_5">
      <g>
       <use style="stroke:#000000;stroke-width:1.6;" x="620.470004" xlink:href="#m496e8a21c1" y="498.572"/>
      </g>
     </g>
     <g id="text_5">
      <!-- 8 -->
      <defs>
       <path d="M 9.765625 17.578125 
Q 9.765625 11.328125 13.859375 7.421875 
Q 17.96875 3.515625 24.21875 3.515625 
Q 31.640625 3.515625 34.953125 7.421875 
Q 38.28125 11.328125 38.28125 17.1875 
Q 38.28125 22.265625 33.59375 26.953125 
Q 28.90625 31.640625 19.53125 35.546875 
Q 14.84375 32.421875 12.296875 27.734375 
Q 9.765625 23.046875 9.765625 17.578125 
z
M 44.140625 18.359375 
Q 44.140625 10.9375 38.671875 5.859375 
Q 33.203125 0.78125 24.21875 0.78125 
Q 16.015625 0.78125 10.15625 5.859375 
Q 4.296875 10.9375 4.296875 17.578125 
Q 4.296875 24.21875 7.609375 28.90625 
Q 10.9375 33.59375 17.1875 37.109375 
Q 11.71875 39.84375 8.78125 43.9375 
Q 5.859375 48.046875 5.859375 53.125 
Q 5.859375 59.765625 10.9375 64.453125 
Q 16.015625 69.140625 25 69.140625 
Q 33.203125 69.140625 38.28125 64.453125 
Q 43.359375 59.765625 43.359375 53.125 
Q 43.359375 48.4375 40.421875 44.328125 
Q 37.5 40.234375 31.25 37.109375 
Q 37.890625 33.203125 41.015625 28.515625 
Q 44.140625 23.828125 44.140625 18.359375 
z
M 37.890625 52.734375 
Q 37.890625 58.203125 34.765625 62.296875 
Q 31.640625 66.40625 25 66.40625 
Q 17.578125 66.40625 14.453125 62.5 
Q 11.328125 58.59375 11.328125 54.296875 
Q 11.328125 50 15.8125 45.890625 
Q 20.3125 41.796875 28.515625 38.671875 
Q 33.203125 41.015625 35.546875 44.53125 
Q 37.890625 48.046875 37.890625 52.734375 
z
" id="SimSun-38"/>
      </defs>
      <g transform="translate(616.470004 524.7095)scale(0.16 -0.16)">
       <use xlink:href="#SimSun-38"/>
      </g>
     </g>
    </g>
    <g id="xtick_6">
     <g id="line2d_6">
      <g>
       <use style="stroke:#000000;stroke-width:1.6;" x="753.7019" xlink:href="#m496e8a21c1" y="498.572"/>
      </g>
     </g>
     <g id="text_6">
      <!-- 10 -->
      <defs>
       <path d="M 28.515625 69.53125 
L 28.515625 10.15625 
Q 28.515625 7.03125 30.46875 5.46875 
Q 32.421875 3.90625 35.9375 3.90625 
L 39.84375 3.90625 
L 39.84375 1.5625 
L 11.328125 1.5625 
L 11.328125 3.90625 
L 14.84375 3.90625 
Q 18.75 3.90625 20.5 5.46875 
Q 22.265625 7.03125 22.265625 10.15625 
L 22.265625 57.421875 
Q 22.265625 58.984375 21.28125 59.953125 
Q 20.3125 60.9375 18.359375 60.9375 
L 11.328125 60.9375 
L 11.328125 63.28125 
L 14.84375 63.28125 
Q 19.53125 63.28125 22.453125 64.84375 
Q 25.390625 66.40625 26.953125 69.53125 
z
" id="SimSun-31"/>
      </defs>
      <g transform="translate(745.7019 524.7095)scale(0.16 -0.16)">
       <use xlink:href="#SimSun-31"/>
       <use x="50" xlink:href="#SimSun-30"/>
      </g>
     </g>
    </g>
    <g id="text_7">
     <!-- 频率（单位：年） -->
     <defs>
      <path d="M 43.75 32.03125 
L 50.390625 26.171875 
L 46.875 24.21875 
Q 37.5 9.765625 29.09375 3.125 
Q 20.703125 -3.515625 6.25 -8.984375 
L 5.859375 -7.8125 
Q 23.046875 1.5625 31.25 11.125 
Q 39.453125 20.703125 43.75 32.03125 
z
M 28.125 46.09375 
L 28.125 68.359375 
Q 28.125 73.4375 27.734375 82.03125 
L 35.9375 78.515625 
L 32.8125 75.78125 
L 32.8125 63.671875 
L 39.0625 63.671875 
L 43.359375 67.96875 
L 49.21875 61.328125 
L 32.8125 61.328125 
L 32.8125 46.09375 
L 40.234375 46.09375 
L 44.921875 50.390625 
L 51.171875 43.75 
L 28.125 43.75 
L 35.15625 39.84375 
L 32.421875 37.890625 
L 32.421875 17.96875 
L 27.34375 14.84375 
L 27.34375 43.75 
L 17.96875 43.75 
Q 12.890625 43.75 8.59375 42.578125 
L 5.078125 46.09375 
L 15.625 46.09375 
L 15.625 60.9375 
Q 15.625 65.625 15.234375 70.3125 
L 23.4375 66.796875 
L 20.3125 64.0625 
L 20.3125 46.09375 
z
M 17.1875 36.328125 
L 24.21875 31.640625 
Q 21.484375 30.859375 17.1875 23.4375 
Q 12.5 15.625 5.078125 8.984375 
L 4.296875 10.15625 
Q 12.890625 21.875 17.1875 36.328125 
z
M 52.734375 12.5 
Q 53.125 22.65625 53.125 36.125 
Q 53.125 49.609375 52.734375 61.328125 
L 58.203125 58.203125 
L 65.625 58.203125 
Q 67.1875 69.140625 67.578125 73.4375 
L 58.984375 73.4375 
Q 53.90625 73.4375 49.609375 72.265625 
L 46.09375 75.78125 
L 84.375 75.78125 
L 89.453125 80.46875 
L 96.09375 73.4375 
L 75 73.4375 
Q 72.265625 70.3125 67.578125 58.203125 
L 84.765625 58.203125 
L 87.890625 61.71875 
L 93.75 57.03125 
L 90.625 54.6875 
L 90.625 30.859375 
Q 90.625 24.21875 91.015625 17.1875 
L 85.546875 14.0625 
L 85.546875 55.859375 
L 58.203125 55.859375 
L 58.203125 16.015625 
z
M 78.125 44.921875 
L 74.609375 42.1875 
Q 74.609375 23.4375 72.0625 15.421875 
Q 69.53125 7.421875 62.296875 1.5625 
Q 55.078125 -4.296875 40.234375 -8.984375 
L 39.84375 -7.8125 
Q 55.46875 -0.78125 61.515625 6.25 
Q 67.578125 13.28125 68.546875 24.796875 
Q 69.53125 36.328125 69.140625 49.21875 
z
M 73.828125 13.671875 
Q 89.0625 6.640625 91.59375 3.90625 
Q 94.140625 1.171875 94.140625 -1.5625 
Q 94.140625 -3.515625 93.359375 -5.65625 
Q 92.578125 -7.8125 91.796875 -7.8125 
Q 91.015625 -7.8125 90.234375 -6.25 
Q 88.28125 -2.734375 84.953125 1.359375 
Q 81.640625 5.46875 73.046875 12.5 
z
" id="SimSun-9891"/>
      <path d="M 13.671875 58.203125 
L 14.453125 59.375 
Q 21.484375 57.03125 24.21875 55.078125 
Q 26.953125 53.125 26.953125 50.78125 
Q 26.953125 49.609375 25.96875 47.265625 
Q 25 44.921875 24.21875 44.921875 
Q 23.4375 44.921875 22.265625 47.65625 
Q 19.921875 51.953125 13.671875 58.203125 
z
M 8.59375 28.90625 
Q 13.671875 30.078125 31.25 40.234375 
L 32.03125 39.0625 
Q 26.171875 34.765625 20.890625 30.265625 
Q 15.625 25.78125 13.671875 22.265625 
z
M 81.25 53.90625 
Q 75 49.21875 66.796875 43.75 
L 66.015625 44.921875 
Q 74.609375 53.125 78.90625 61.328125 
L 85.15625 55.078125 
z
M 67.578125 39.0625 
L 67.96875 40.234375 
Q 81.640625 36.71875 83.984375 34.5625 
Q 86.328125 32.421875 86.328125 29.6875 
Q 86.328125 27.734375 85.734375 25.96875 
Q 85.15625 24.21875 84.375 24.21875 
Q 83.203125 24.21875 81.25 28.125 
Q 77.734375 33.59375 67.578125 39.0625 
z
M 49.21875 60.9375 
Q 39.0625 51.5625 35.9375 49.21875 
Q 43.75 49.21875 53.125 49.609375 
Q 57.8125 54.6875 60.15625 59.765625 
L 66.40625 53.90625 
Q 63.28125 53.125 53.90625 44.140625 
Q 44.53125 35.15625 38.671875 30.46875 
Q 49.21875 30.859375 60.15625 31.25 
Q 58.59375 33.984375 55.46875 38.28125 
L 56.25 39.0625 
Q 63.28125 35.15625 65.625 32.8125 
Q 67.96875 30.46875 67.96875 28.90625 
Q 67.96875 27.734375 66.40625 25.390625 
Q 64.84375 23.046875 64.0625 23.046875 
Q 63.671875 23.046875 63.28125 24.21875 
Q 62.5 26.5625 60.9375 29.6875 
Q 57.03125 29.296875 48.046875 28.125 
L 54.6875 24.21875 
L 51.953125 22.265625 
L 51.953125 15.234375 
L 83.203125 15.234375 
L 88.28125 20.3125 
L 95.3125 12.890625 
L 51.953125 12.890625 
Q 51.953125 -4.296875 52.34375 -8.203125 
L 46.484375 -10.15625 
Q 46.875 0 46.875 12.890625 
L 17.578125 12.890625 
Q 12.5 12.890625 8.203125 11.71875 
L 4.6875 15.234375 
L 46.875 15.234375 
L 46.875 27.734375 
Q 38.28125 26.5625 34.375 23.828125 
L 30.46875 30.46875 
Q 35.546875 30.46875 41.796875 36.71875 
Q 48.046875 42.96875 51.953125 47.65625 
Q 37.5 46.09375 33.59375 43.359375 
L 30.46875 49.609375 
Q 33.59375 49.21875 38.671875 55.859375 
Q 43.75 62.5 45.3125 66.015625 
L 22.65625 66.015625 
Q 17.578125 66.015625 13.28125 64.84375 
L 9.765625 68.359375 
L 48.4375 68.359375 
Q 47.65625 75 41.796875 81.25 
L 42.578125 82.03125 
Q 50.390625 78.90625 52.140625 76.75 
Q 53.90625 74.609375 53.90625 73.4375 
Q 53.90625 71.09375 50.78125 68.359375 
L 78.515625 68.359375 
L 83.59375 73.046875 
L 90.234375 66.015625 
L 47.65625 66.015625 
L 52.734375 61.71875 
z
" id="SimSun-7387"/>
      <path d="M 73.4375 7.8125 
Q 85.546875 -1.5625 84.765625 -2.34375 
Q 83.984375 -3.125 77.34375 1.359375 
Q 70.703125 5.859375 64.640625 13.28125 
Q 58.59375 20.703125 57.609375 32.8125 
Q 56.640625 44.921875 62.5 54.484375 
Q 68.359375 64.0625 76.359375 69.71875 
Q 84.375 75.390625 84.5625 74.40625 
Q 84.765625 73.4375 79.296875 69.140625 
Q 73.828125 64.453125 68.546875 56.25 
Q 63.28125 48.046875 63.28125 35.15625 
Q 63.28125 22.265625 68.359375 15.03125 
Q 73.4375 7.8125 85.546875 -1.5625 
z
" id="SimSun-ff08"/>
      <path d="M 25 59.375 
L 25 46.484375 
L 46.09375 46.484375 
L 46.09375 59.375 
z
M 51.5625 59.375 
L 51.5625 46.484375 
L 73.828125 46.484375 
L 73.828125 59.375 
z
M 25 44.140625 
L 25 30.859375 
L 46.09375 30.859375 
L 46.09375 44.140625 
z
M 51.5625 44.140625 
L 51.5625 30.859375 
L 73.828125 30.859375 
L 73.828125 44.140625 
z
M 28.515625 80.46875 
L 29.296875 81.640625 
Q 34.765625 78.515625 38.859375 75.1875 
Q 42.96875 71.875 42.765625 69.140625 
Q 42.578125 66.40625 41.203125 65.03125 
Q 39.84375 63.671875 39.453125 63.671875 
Q 37.890625 63.671875 36.328125 68.359375 
Q 33.984375 74.21875 28.515625 80.46875 
z
M 51.5625 14.0625 
Q 51.5625 -1.953125 51.953125 -7.03125 
L 45.703125 -9.765625 
Q 46.09375 3.90625 46.09375 14.0625 
L 12.890625 14.0625 
L 7.8125 13.28125 
L 4.6875 16.40625 
L 46.09375 16.40625 
L 46.09375 28.515625 
L 25 28.515625 
L 25 23.828125 
L 19.140625 21.484375 
Q 19.53125 32.421875 19.53125 43.359375 
Q 19.53125 54.296875 19.140625 65.234375 
L 25.390625 61.71875 
L 55.078125 61.71875 
Q 57.8125 66.015625 60.734375 72.0625 
Q 63.671875 78.125 64.84375 82.421875 
L 72.65625 76.5625 
Q 69.53125 75.390625 65.8125 71.484375 
Q 62.109375 67.578125 57.421875 61.71875 
L 73.046875 61.71875 
L 76.171875 65.234375 
L 82.421875 60.546875 
L 78.90625 57.8125 
Q 78.90625 33.984375 79.296875 26.5625 
L 73.828125 24.21875 
L 73.828125 28.515625 
L 51.5625 28.515625 
L 51.5625 16.40625 
L 80.859375 16.40625 
L 87.109375 22.65625 
L 95.703125 14.0625 
z
" id="SimSun-5355"/>
      <path d="M 19.53125 -9.375 
Q 19.921875 2.34375 19.921875 48.4375 
Q 11.71875 34.765625 5.078125 27.734375 
L 3.90625 28.515625 
Q 11.328125 40.234375 17.375 53.90625 
Q 23.4375 67.578125 26.5625 81.640625 
L 35.546875 76.953125 
L 32.03125 75 
Q 25.78125 60.9375 23.046875 54.6875 
L 28.125 51.171875 
L 25 48.828125 
Q 25 1.953125 25.390625 -6.25 
z
M 51.5625 80.078125 
L 52.734375 80.859375 
Q 64.0625 72.265625 64.25 68.359375 
Q 64.453125 64.453125 62.5 62.890625 
Q 60.546875 61.328125 60.15625 61.328125 
Q 58.203125 61.328125 57.8125 65.625 
Q 56.640625 71.484375 51.5625 80.078125 
z
M 31.640625 58.203125 
L 78.90625 58.203125 
L 84.375 63.671875 
L 92.1875 55.859375 
L 44.140625 55.859375 
Q 39.453125 55.859375 35.15625 54.6875 
z
M 40.625 46.875 
L 41.796875 47.65625 
Q 51.5625 32.03125 53.125 26.75 
Q 54.6875 21.484375 54.6875 18.75 
Q 54.6875 14.84375 52.53125 12.5 
Q 50.390625 10.15625 49.609375 10.15625 
Q 48.4375 10.15625 48.4375 12.890625 
Q 48.046875 17.578125 46.484375 26.171875 
Q 44.921875 34.765625 40.625 46.875 
z
M 73.828125 51.953125 
L 83.203125 46.875 
Q 79.6875 44.921875 76.171875 33.203125 
Q 72.65625 21.484375 65.234375 -0.390625 
L 82.8125 -0.390625 
L 88.28125 5.078125 
L 96.09375 -2.734375 
L 42.1875 -2.734375 
Q 37.109375 -2.734375 32.8125 -3.90625 
L 29.296875 -0.390625 
L 62.5 -0.390625 
Q 67.1875 15.625 70.3125 30.65625 
Q 73.4375 45.703125 73.828125 51.953125 
z
" id="SimSun-4f4d"/>
      <path d="M 21.875 12.109375 
Q 26.5625 8.984375 26.359375 5.265625 
Q 26.171875 1.5625 23.4375 0 
Q 20.703125 -1.5625 19.53125 -1.5625 
Q 18.359375 -1.5625 15.625 0 
Q 12.890625 1.5625 12.6875 5.46875 
Q 12.5 9.375 15.03125 10.734375 
Q 17.578125 12.109375 19.53125 12.109375 
Q 21.875 12.109375 26.5625 8.984375 
z
M 21.484375 35.546875 
Q 26.953125 32.8125 26.953125 28.703125 
Q 26.953125 24.609375 23.828125 23.234375 
Q 20.703125 21.875 19.53125 21.875 
Q 17.578125 21.875 15.03125 23.625 
Q 12.5 25.390625 12.6875 29.09375 
Q 12.890625 32.8125 15.625 34.171875 
Q 18.359375 35.546875 19.921875 35.546875 
Q 21.484375 35.546875 26.953125 32.8125 
z
" id="SimSun-ff1a"/>
      <path d="M 27.734375 41.796875 
L 27.734375 21.484375 
L 50.390625 21.484375 
L 50.390625 41.796875 
z
M 28.515625 82.421875 
L 37.109375 76.953125 
L 33.59375 75.390625 
Q 30.46875 70.703125 27.34375 66.015625 
L 78.125 66.015625 
L 83.984375 71.875 
L 92.1875 63.671875 
L 56.25 63.671875 
L 56.25 44.140625 
L 72.265625 44.140625 
L 77.734375 49.609375 
L 85.546875 41.796875 
L 56.25 41.796875 
L 56.25 21.484375 
L 81.640625 21.484375 
L 87.5 27.34375 
L 95.703125 19.140625 
L 56.25 19.140625 
L 56.25 4.296875 
Q 56.25 -2.34375 56.640625 -7.421875 
L 50 -10.15625 
Q 50.390625 1.953125 50.390625 7.421875 
L 50.390625 19.140625 
L 17.1875 19.140625 
Q 12.109375 19.140625 7.8125 17.96875 
L 4.296875 21.484375 
L 21.875 21.484375 
Q 21.875 39.453125 21.484375 47.65625 
L 27.734375 44.140625 
L 50.390625 44.140625 
L 50.390625 63.671875 
L 26.171875 63.671875 
Q 22.265625 57.8125 17.96875 52.921875 
Q 13.671875 48.046875 6.25 42.1875 
L 5.078125 42.96875 
Q 12.109375 50.390625 18.359375 60.34375 
Q 24.609375 70.3125 28.515625 82.421875 
z
" id="SimSun-5e74"/>
      <path d="M 42.96875 21.875 
Q 30.078125 5.46875 22.453125 0.96875 
Q 14.84375 -3.515625 14.640625 -2.53125 
Q 14.453125 -1.5625 20.3125 2.734375 
Q 25.78125 6.640625 31.828125 15.8125 
Q 37.890625 25 37.109375 37.109375 
Q 36.328125 49.21875 31.046875 57.21875 
Q 25.78125 65.234375 20.3125 69.921875 
Q 14.453125 74.609375 14.640625 75.578125 
Q 14.84375 76.5625 22.0625 71.671875 
Q 29.296875 66.796875 36.328125 57.21875 
Q 43.359375 47.65625 43.15625 34.765625 
Q 42.96875 21.875 30.078125 5.46875 
z
" id="SimSun-ff09"/>
     </defs>
     <g transform="translate(352.91375 544.797)scale(0.176 -0.176)">
      <use xlink:href="#SimSun-9891"/>
      <use x="100" xlink:href="#SimSun-7387"/>
      <use x="200" xlink:href="#SimSun-ff08"/>
      <use x="300" xlink:href="#SimSun-5355"/>
      <use x="400" xlink:href="#SimSun-4f4d"/>
      <use x="500" xlink:href="#SimSun-ff1a"/>
      <use x="600" xlink:href="#SimSun-5e74"/>
      <use x="700" xlink:href="#SimSun-ff09"/>
     </g>
    </g>
   </g>
   <g id="matplotlib.axis_2">
    <g id="ytick_1">
     <g id="line2d_7">
      <defs>
       <path d="M 0 0 
L -3.5 0 
" id="mdda300fbcf" style="stroke:#000000;stroke-width:1.6;"/>
      </defs>
      <g>
       <use style="stroke:#000000;stroke-width:1.6;" x="66.19375" xlink:href="#mdda300fbcf" y="476.396449"/>
      </g>
     </g>
     <g id="text_8">
      <!-- 0.0 -->
      <defs>
       <path d="M 12.5 0.390625 
Q 10.15625 0.390625 8.390625 1.953125 
Q 6.640625 3.515625 6.640625 6.25 
Q 6.640625 8.984375 8.390625 10.546875 
Q 10.15625 12.109375 12.5 12.109375 
Q 14.84375 12.109375 16.59375 10.34375 
Q 18.359375 8.59375 18.359375 6.25 
Q 18.359375 3.515625 16.59375 1.953125 
Q 14.84375 0.390625 12.5 0.390625 
z
" id="SimSun-2e"/>
      </defs>
      <g transform="translate(27.49375 482.115199)scale(0.16 -0.16)">
       <use xlink:href="#SimSun-30"/>
       <use x="50" xlink:href="#SimSun-2e"/>
       <use x="100" xlink:href="#SimSun-30"/>
      </g>
     </g>
    </g>
    <g id="ytick_2">
     <g id="line2d_8">
      <g>
       <use style="stroke:#000000;stroke-width:1.6;" x="66.19375" xlink:href="#mdda300fbcf" y="418.835262"/>
      </g>
     </g>
     <g id="text_9">
      <!-- 0.1 -->
      <g transform="translate(27.49375 424.554012)scale(0.16 -0.16)">
       <use xlink:href="#SimSun-30"/>
       <use x="50" xlink:href="#SimSun-2e"/>
       <use x="100" xlink:href="#SimSun-31"/>
      </g>
     </g>
    </g>
    <g id="ytick_3">
     <g id="line2d_9">
      <g>
       <use style="stroke:#000000;stroke-width:1.6;" x="66.19375" xlink:href="#mdda300fbcf" y="361.274076"/>
      </g>
     </g>
     <g id="text_10">
      <!-- 0.1 -->
      <g transform="translate(27.49375 366.992826)scale(0.16 -0.16)">
       <use xlink:href="#SimSun-30"/>
       <use x="50" xlink:href="#SimSun-2e"/>
       <use x="100" xlink:href="#SimSun-31"/>
      </g>
     </g>
    </g>
    <g id="ytick_4">
     <g id="line2d_10">
      <g>
       <use style="stroke:#000000;stroke-width:1.6;" x="66.19375" xlink:href="#mdda300fbcf" y="303.71289"/>
      </g>
     </g>
     <g id="text_11">
      <!-- 0.1 -->
      <g transform="translate(27.49375 309.43164)scale(0.16 -0.16)">
       <use xlink:href="#SimSun-30"/>
       <use x="50" xlink:href="#SimSun-2e"/>
       <use x="100" xlink:href="#SimSun-31"/>
      </g>
     </g>
    </g>
    <g id="ytick_5">
     <g id="line2d_11">
      <g>
       <use style="stroke:#000000;stroke-width:1.6;" x="66.19375" xlink:href="#mdda300fbcf" y="246.151704"/>
      </g>
     </g>
     <g id="text_12">
      <!-- 0.2 -->
      <g transform="translate(27.49375 251.870454)scale(0.16 -0.16)">
       <use xlink:href="#SimSun-30"/>
       <use x="50" xlink:href="#SimSun-2e"/>
       <use x="100" xlink:href="#SimSun-32"/>
      </g>
     </g>
    </g>
    <g id="ytick_6">
     <g id="line2d_12">
      <g>
       <use style="stroke:#000000;stroke-width:1.6;" x="66.19375" xlink:href="#mdda300fbcf" y="188.590518"/>
      </g>
     </g>
     <g id="text_13">
      <!-- 0.2 -->
      <g transform="translate(27.49375 194.309268)scale(0.16 -0.16)">
       <use xlink:href="#SimSun-30"/>
       <use x="50" xlink:href="#SimSun-2e"/>
       <use x="100" xlink:href="#SimSun-32"/>
      </g>
     </g>
    </g>
    <g id="ytick_7">
     <g id="line2d_13">
      <g>
       <use style="stroke:#000000;stroke-width:1.6;" x="66.19375" xlink:href="#mdda300fbcf" y="131.029331"/>
      </g>
     </g>
     <g id="text_14">
      <!-- 0.3 -->
      <defs>
       <path d="M 43.75 19.53125 
Q 43.75 12.109375 38.28125 6.4375 
Q 32.8125 0.78125 23.046875 0.78125 
Q 16.015625 0.78125 10.9375 4.6875 
Q 5.859375 8.59375 5.859375 13.671875 
Q 5.859375 16.015625 7.421875 17.765625 
Q 8.984375 19.53125 10.546875 19.53125 
Q 12.890625 19.53125 13.859375 17.765625 
Q 14.84375 16.015625 14.84375 14.84375 
Q 14.84375 12.890625 14.0625 11.71875 
Q 13.28125 10.15625 13.28125 8.984375 
Q 13.28125 6.640625 16.203125 5.078125 
Q 19.140625 3.515625 22.65625 3.515625 
Q 29.6875 3.515625 33.203125 7.609375 
Q 36.71875 11.71875 36.71875 20.3125 
Q 36.71875 27.34375 33 31.640625 
Q 29.296875 35.9375 19.140625 35.9375 
L 19.140625 38.671875 
Q 26.953125 38.671875 30.65625 42.375 
Q 34.375 46.09375 34.375 52.734375 
Q 34.375 58.203125 31.4375 62.296875 
Q 28.515625 66.40625 22.265625 66.40625 
Q 19.53125 66.40625 16.40625 65.03125 
Q 13.28125 63.671875 13.28125 60.546875 
Q 13.28125 57.421875 14.0625 56.640625 
Q 14.84375 55.859375 14.84375 54.6875 
Q 14.84375 52.734375 14.0625 51.5625 
Q 13.28125 50.390625 11.328125 50.390625 
Q 9.765625 50.390625 8.390625 51.5625 
Q 7.03125 52.734375 7.03125 55.859375 
Q 7.03125 61.71875 12.109375 65.421875 
Q 17.1875 69.140625 23.828125 69.140625 
Q 31.640625 69.140625 36.328125 64.25 
Q 41.015625 59.375 41.015625 53.90625 
Q 41.015625 48.046875 38.078125 43.9375 
Q 35.15625 39.84375 28.90625 37.890625 
Q 37.5 34.765625 40.625 29.6875 
Q 43.75 24.609375 43.75 19.53125 
z
" id="SimSun-33"/>
      </defs>
      <g transform="translate(27.49375 136.748081)scale(0.16 -0.16)">
       <use xlink:href="#SimSun-30"/>
       <use x="50" xlink:href="#SimSun-2e"/>
       <use x="100" xlink:href="#SimSun-33"/>
      </g>
     </g>
    </g>
    <g id="ytick_8">
     <g id="line2d_14">
      <g>
       <use style="stroke:#000000;stroke-width:1.6;" x="66.19375" xlink:href="#mdda300fbcf" y="73.468145"/>
      </g>
     </g>
     <g id="text_15">
      <!-- 0.4 -->
      <g transform="translate(27.49375 79.186895)scale(0.16 -0.16)">
       <use xlink:href="#SimSun-30"/>
       <use x="50" xlink:href="#SimSun-2e"/>
       <use x="100" xlink:href="#SimSun-34"/>
      </g>
     </g>
    </g>
    <g id="ytick_9">
     <g id="line2d_15">
      <g>
       <use style="stroke:#000000;stroke-width:1.6;" x="66.19375" xlink:href="#mdda300fbcf" y="15.906959"/>
      </g>
     </g>
     <g id="text_16">
      <!-- 0.4 -->
      <g transform="translate(27.49375 21.625709)scale(0.16 -0.16)">
       <use xlink:href="#SimSun-30"/>
       <use x="50" xlink:href="#SimSun-2e"/>
       <use x="100" xlink:href="#SimSun-34"/>
      </g>
     </g>
    </g>
    <g id="text_17">
     <!-- 谱能量（单位：1e-3） -->
     <defs>
      <path d="M 56.640625 62.890625 
L 56.640625 38.28125 
L 66.015625 38.28125 
L 66.015625 62.890625 
z
M 35.15625 57.8125 
L 36.328125 58.59375 
Q 46.875 51.953125 46.671875 48.234375 
Q 46.484375 44.53125 44.921875 42.96875 
Q 43.359375 41.40625 42.96875 41.40625 
Q 41.40625 41.40625 40.625 45.703125 
Q 39.453125 51.5625 35.15625 57.8125 
z
M 82.421875 59.765625 
L 89.453125 53.90625 
Q 86.71875 53.515625 83.203125 49.21875 
Q 79.296875 44.921875 74.21875 39.84375 
L 73.046875 40.625 
Q 76.953125 46.875 79.484375 52.140625 
Q 82.03125 57.421875 82.421875 59.765625 
z
M 43.75 81.25 
L 44.921875 82.03125 
Q 53.90625 76.171875 55.078125 73.4375 
Q 56.25 70.703125 54.09375 68.359375 
Q 51.953125 66.015625 51.171875 66.015625 
Q 50 66.015625 49.21875 69.53125 
Q 48.046875 75 43.75 81.25 
z
M 71.484375 82.8125 
L 78.515625 77.734375 
Q 76.953125 77.34375 74.796875 75.390625 
Q 72.65625 73.4375 67.1875 65.234375 
L 80.078125 65.234375 
L 85.546875 70.3125 
L 92.1875 62.890625 
L 71.09375 62.890625 
L 71.09375 38.28125 
L 84.375 38.28125 
L 89.0625 43.359375 
L 95.703125 35.9375 
L 39.453125 35.9375 
Q 36.328125 35.9375 32.03125 34.765625 
L 28.515625 38.28125 
L 51.5625 38.28125 
L 51.5625 62.890625 
L 45.3125 62.890625 
Q 40.234375 62.890625 35.9375 61.71875 
L 32.421875 65.234375 
L 65.234375 65.234375 
Q 70.703125 78.515625 71.484375 82.8125 
z
M 47.265625 23.828125 
L 47.265625 12.890625 
L 77.34375 12.890625 
L 77.34375 23.828125 
z
M 47.265625 10.546875 
L 47.265625 -0.78125 
L 77.34375 -0.78125 
L 77.34375 10.546875 
z
M 41.796875 29.6875 
L 47.265625 26.171875 
L 76.5625 26.171875 
L 78.90625 29.6875 
L 85.15625 25.390625 
L 82.421875 22.65625 
Q 82.421875 -2.734375 82.8125 -7.03125 
L 77.34375 -9.375 
L 77.34375 -3.125 
L 47.265625 -3.125 
L 47.265625 -7.8125 
L 41.796875 -9.375 
Q 42.1875 -0.78125 42.1875 10.734375 
Q 42.1875 22.265625 41.796875 29.6875 
z
M 12.109375 76.5625 
L 13.28125 77.34375 
Q 18.75 74.21875 21.484375 71.671875 
Q 24.21875 69.140625 24.21875 66.796875 
Q 24.21875 66.015625 23.625 64.25 
Q 23.046875 62.5 20.890625 60.9375 
Q 18.75 59.375 17.578125 64.84375 
Q 16.40625 70.3125 12.109375 76.5625 
z
M 3.515625 47.65625 
L 17.578125 47.65625 
L 20.3125 51.5625 
L 26.171875 46.875 
L 23.046875 44.140625 
L 23.046875 7.421875 
L 37.890625 20.703125 
L 39.0625 19.53125 
Q 33.203125 12.890625 28.515625 7.03125 
Q 23.828125 1.171875 21.484375 -4.296875 
L 16.40625 1.953125 
Q 17.96875 3.90625 17.96875 8.59375 
L 17.96875 45.3125 
L 14.453125 45.3125 
Q 11.328125 45.3125 7.03125 44.140625 
z
" id="SimSun-8c31"/>
      <path d="M 27.734375 82.03125 
L 34.765625 76.171875 
Q 30.46875 75 24.21875 68.359375 
Q 17.96875 61.328125 14.0625 57.8125 
L 43.75 58.59375 
Q 40.234375 65.234375 37.109375 68.75 
L 37.890625 69.921875 
Q 44.53125 66.015625 48.046875 62.6875 
Q 51.5625 59.375 51.359375 56.4375 
Q 51.171875 53.515625 49.609375 52.140625 
Q 48.046875 50.78125 47.265625 50.78125 
Q 46.484375 50.78125 46.484375 51.953125 
Q 45.703125 53.90625 44.53125 57.03125 
Q 37.890625 56.25 26.5625 55.078125 
Q 15.234375 53.90625 11.71875 51.171875 
L 7.8125 58.59375 
Q 11.71875 58.59375 18.359375 66.796875 
Q 25 75 27.734375 82.03125 
z
M 12.890625 -9.375 
Q 13.28125 -1.171875 13.28125 20.703125 
Q 13.28125 42.578125 12.890625 48.4375 
L 18.75 45.3125 
L 38.671875 45.3125 
L 41.796875 49.21875 
L 47.65625 44.140625 
L 44.53125 41.40625 
L 44.53125 1.5625 
Q 45.3125 -5.859375 36.71875 -9.375 
Q 36.328125 -4.296875 26.5625 -1.5625 
L 26.5625 0 
Q 33.984375 -0.78125 36.71875 -0.78125 
Q 39.453125 -0.78125 39.453125 3.515625 
L 39.453125 17.1875 
L 18.75 17.1875 
L 18.75 -6.25 
z
M 18.75 42.96875 
L 18.75 33.203125 
L 39.453125 33.203125 
L 39.453125 42.96875 
z
M 18.75 30.859375 
L 18.75 19.53125 
L 39.453125 19.53125 
L 39.453125 30.859375 
z
M 57.8125 48.046875 
Q 57.8125 75.390625 57.421875 79.6875 
L 66.40625 75.78125 
L 62.890625 72.65625 
L 62.890625 58.984375 
Q 75 65.234375 80.859375 73.046875 
L 86.71875 66.40625 
L 83.203125 66.015625 
Q 71.875 60.15625 62.890625 57.03125 
L 62.890625 49.609375 
Q 62.890625 45.3125 68.75 45.3125 
L 82.03125 45.3125 
Q 85.9375 45.703125 86.328125 49.40625 
Q 86.71875 53.125 86.71875 59.375 
L 88.28125 59.375 
Q 88.671875 54.6875 89.453125 50.96875 
Q 90.234375 47.265625 93.75 46.09375 
Q 91.40625 41.015625 82.421875 41.015625 
L 66.015625 41.015625 
Q 57.8125 40.625 57.8125 48.046875 
z
M 56.640625 0.78125 
Q 56.640625 31.25 56.25 35.9375 
L 65.234375 31.640625 
L 61.71875 28.90625 
L 61.71875 16.40625 
Q 75.390625 23.828125 82.03125 33.203125 
L 88.28125 25.78125 
L 84.765625 25.78125 
Q 71.875 18.75 61.71875 14.0625 
L 61.71875 4.296875 
Q 61.71875 -1.953125 67.578125 -1.5625 
L 82.8125 -1.5625 
Q 87.109375 -1.171875 87.5 3.90625 
Q 87.5 8.59375 87.890625 14.453125 
L 89.453125 14.453125 
Q 89.84375 7.8125 90.8125 4.09375 
Q 91.796875 0.390625 94.921875 -0.390625 
Q 92.96875 -5.859375 83.203125 -6.25 
L 65.234375 -6.25 
Q 57.03125 -6.25 56.640625 0.78125 
z
" id="SimSun-80fd"/>
      <path d="M 26.5625 37.5 
L 26.5625 29.296875 
L 47.265625 29.296875 
L 47.265625 37.5 
z
M 52.34375 37.5 
L 52.34375 29.296875 
L 72.265625 29.296875 
L 72.265625 37.5 
z
M 26.5625 26.953125 
L 26.5625 19.140625 
L 47.265625 19.140625 
L 47.265625 26.953125 
z
M 52.34375 26.953125 
L 52.34375 19.140625 
L 72.265625 19.140625 
L 72.265625 26.953125 
z
M 77.34375 36.328125 
Q 77.34375 21.09375 77.734375 16.015625 
L 72.265625 13.671875 
L 72.265625 16.796875 
L 52.34375 16.796875 
L 52.34375 8.203125 
L 73.4375 8.203125 
L 78.90625 12.890625 
L 85.15625 5.859375 
L 52.34375 5.859375 
L 52.34375 -3.515625 
L 82.421875 -3.515625 
L 88.28125 1.953125 
L 94.921875 -5.859375 
L 18.359375 -5.859375 
Q 13.28125 -5.859375 8.984375 -7.03125 
L 5.46875 -3.515625 
L 47.265625 -3.515625 
L 47.265625 5.859375 
L 26.953125 5.859375 
Q 21.875 5.859375 17.578125 4.6875 
L 14.0625 8.203125 
L 47.265625 8.203125 
L 47.265625 16.796875 
L 26.5625 16.796875 
L 26.5625 14.453125 
L 21.09375 12.5 
Q 21.484375 20.3125 21.484375 27.921875 
Q 21.484375 35.546875 21.09375 42.96875 
L 26.5625 39.84375 
L 71.875 39.84375 
L 74.21875 42.96875 
L 80.078125 38.671875 
z
M 27.734375 75 
L 27.734375 68.359375 
L 71.09375 68.359375 
L 71.09375 75 
z
M 27.734375 66.015625 
L 27.734375 58.984375 
L 71.09375 58.984375 
L 71.09375 66.015625 
z
M 76.171875 74.21875 
Q 76.171875 59.765625 76.5625 55.078125 
L 71.09375 52.734375 
L 71.09375 56.640625 
L 27.734375 56.640625 
L 27.734375 53.125 
L 22.265625 50.78125 
Q 22.65625 57.03125 22.65625 66.59375 
Q 22.65625 76.171875 22.265625 80.078125 
L 28.125 77.34375 
L 70.3125 77.34375 
L 72.65625 80.859375 
L 78.90625 76.5625 
z
M 3.90625 48.828125 
L 83.984375 48.828125 
L 89.453125 53.90625 
L 96.09375 46.484375 
L 14.84375 46.484375 
Q 11.71875 46.484375 7.421875 45.3125 
z
" id="SimSun-91cf"/>
      <path d="M 37.5 25.78125 
Q 37.890625 34.375 34.5625 38.859375 
Q 31.25 43.359375 25.78125 43.359375 
Q 19.921875 43.359375 16.203125 38.671875 
Q 12.5 33.984375 12.5 25.78125 
z
M 12.5 23.4375 
Q 12.5 12.890625 16.59375 8.390625 
Q 20.703125 3.90625 27.34375 3.90625 
Q 32.421875 3.90625 35.9375 6.828125 
Q 39.453125 9.765625 41.015625 14.0625 
L 42.96875 13.28125 
Q 41.796875 8.984375 37.6875 4.875 
Q 33.59375 0.78125 26.5625 0.78125 
Q 17.578125 0.78125 11.90625 6.640625 
Q 6.25 12.5 6.25 23.4375 
Q 6.25 33.203125 11.90625 39.640625 
Q 17.578125 46.09375 25.78125 46.09375 
Q 33.203125 46.09375 38.671875 41.015625 
Q 44.140625 35.9375 44.140625 23.4375 
z
" id="SimSun-65"/>
      <path d="M 3.125 34.765625 
L 3.125 38.28125 
L 46.484375 38.28125 
L 46.484375 34.765625 
z
" id="SimSun-2d"/>
     </defs>
     <g transform="translate(21.225 342.636)rotate(-90)scale(0.176 -0.176)">
      <use xlink:href="#SimSun-8c31"/>
      <use x="100" xlink:href="#SimSun-80fd"/>
      <use x="200" xlink:href="#SimSun-91cf"/>
      <use x="300" xlink:href="#SimSun-ff08"/>
      <use x="400" xlink:href="#SimSun-5355"/>
      <use x="500" xlink:href="#SimSun-4f4d"/>
      <use x="600" xlink:href="#SimSun-ff1a"/>
      <use x="700" xlink:href="#SimSun-31"/>
      <use x="750" xlink:href="#SimSun-65"/>
      <use x="800" xlink:href="#SimSun-2d"/>
      <use x="850" xlink:href="#SimSun-33"/>
      <use x="900" xlink:href="#SimSun-ff09"/>
     </g>
    </g>
   </g>
   <g id="line2d_16">
    <path clip-path="url(#pb997f43502)" d="M 98.659205 476.396 
L 103.016984 476.394925 
L 107.374763 475.93505 
L 111.732542 475.668665 
L 116.090321 476.395615 
L 120.4481 476.394896 
L 124.805879 476.212588 
L 129.163658 473.826502 
L 133.521438 475.740676 
L 137.879217 476.024822 
L 142.236996 475.044909 
L 146.594775 470.49079 
L 150.952554 475.134557 
L 155.310333 473.925458 
L 159.668112 471.097237 
L 164.025892 475.608461 
L 168.383671 475.032278 
L 172.74145 475.140115 
L 177.099229 476.249949 
L 181.457008 475.987411 
L 185.814787 465.257459 
L 190.172566 474.335852 
L 194.530345 475.986122 
L 198.888125 475.487181 
L 203.245904 474.105847 
L 207.603683 456.115295 
L 211.961462 474.06672 
L 216.319241 471.066493 
L 220.67702 475.651152 
L 225.034799 457.452558 
L 229.392579 464.39242 
L 233.750358 472.576925 
L 238.108137 440.888895 
L 242.465916 465.177886 
L 246.823695 469.245854 
L 251.181474 441.916551 
L 255.539253 405.097186 
L 259.897032 469.662558 
L 264.254812 473.976446 
L 268.612591 463.319129 
L 272.97037 450.197078 
L 277.328149 466.066364 
L 281.685928 473.91594 
L 286.043707 474.103391 
L 290.401486 450.280919 
L 294.759266 193.401982 
L 299.117045 326.8098 
L 303.474824 464.152964 
L 307.832603 473.585953 
L 312.190382 471.129441 
L 316.548161 451.468908 
L 320.90594 386.673507 
L 325.263719 303.588977 
L 329.621499 290.121325 
L 333.979278 354.891428 
L 338.337057 413.499616 
L 342.694836 439.898433 
L 347.052615 443.557272 
L 351.410394 431.61615 
L 355.768173 408.276033 
L 360.125953 392.008442 
L 364.483732 410.156083 
L 368.841511 439.870602 
L 373.19929 458.672916 
L 377.557069 466.915334 
L 381.914848 469.513976 
L 386.272627 469.380682 
L 390.630406 466.978545 
L 394.988186 460.801136 
L 399.345965 446.555903 
L 403.703744 414.782076 
L 408.061523 350.045454 
L 412.419302 240.585954 
L 416.777081 109.366452 
L 421.13486 39.820214 
L 425.49264 111.708163 
L 429.850419 261.073844 
L 434.208198 375.563177 
L 438.565977 434.102256 
L 442.923756 458.451736 
L 447.281535 467.69909 
L 451.639314 470.958319 
L 455.997094 471.600919 
L 460.354873 470.659143 
L 464.712652 467.715928 
L 469.070431 460.914276 
L 473.42821 446.054159 
L 477.785989 415.488059 
L 482.143768 359.661695 
L 486.501547 277.085597 
L 490.859327 183.034968 
L 495.217106 99.200467 
L 499.574885 45.811698 
L 503.932664 32.876 
L 508.290443 57.440983 
L 512.648222 107.540256 
L 521.363781 229.403979 
L 525.72156 282.364178 
L 530.079339 325.351905 
L 534.437118 359.089544 
L 538.794897 384.938041 
L 543.152676 404.36879 
L 547.510455 418.740433 
L 551.868234 429.195178 
L 556.226014 436.629656 
L 560.583793 441.703651 
L 564.941572 444.860637 
L 569.299351 446.342002 
L 573.65713 446.180001 
L 578.014909 444.271036 
L 582.372688 440.537043 
L 586.730468 434.734603 
L 591.088247 426.452031 
L 595.446026 415.15007 
L 599.803805 400.23225 
L 604.161584 381.175981 
L 608.519363 357.751102 
L 612.877142 330.332158 
L 621.592701 270.15426 
L 625.95048 243.918596 
L 630.308259 226.312084 
L 634.666038 221.867352 
L 639.023817 232.344016 
L 643.381596 254.905231 
L 647.739375 285.030865 
L 652.097155 318.085337 
L 656.454934 350.270196 
L 660.812713 379.065176 
L 665.170492 403.222176 
L 669.528271 422.491354 
L 673.88605 437.260768 
L 678.243829 448.232474 
L 682.601608 456.18957 
L 686.959388 461.858769 
L 691.317167 465.84802 
L 695.674946 468.632484 
L 700.032725 470.566178 
L 704.390504 471.903726 
L 708.748283 472.823289 
L 713.106062 473.446576 
L 717.463842 473.861359 
L 726.1794 474.299519 
L 734.894958 474.406907 
L 743.610516 474.267041 
L 747.968295 474.103605 
L 747.968295 474.103605 
" style="fill:none;stroke:#000000;stroke-linecap:square;stroke-width:2.8;"/>
   </g>
   <g id="patch_3">
    <path d="M 66.19375 498.572 
L 66.19375 10.7 
" style="fill:none;stroke:#000000;stroke-linecap:square;stroke-linejoin:miter;stroke-width:0.8;"/>
   </g>
   <g id="patch_4">
    <path d="M 66.19375 498.572 
L 780.43375 498.572 
" style="fill:none;stroke:#000000;stroke-linecap:square;stroke-linejoin:miter;stroke-width:0.8;"/>
   </g>
  </g>
 </g>
 <defs>
  <clipPath id="pb997f43502">
   <rect height="487.872" width="714.24" x="66.19375" y="10.7"/>
  </clipPath>
 </defs>
</svg>
