<?xml version="1.0" encoding="utf-8" standalone="no"?>
<!DOCTYPE svg PUBLIC "-//W3C//DTD SVG 1.1//EN"
  "http://www.w3.org/Graphics/SVG/1.1/DTD/svg11.dtd">
<!-- Created with matplotlib (http://matplotlib.org/) -->
<svg height="533.972pt" version="1.1" viewBox="0 0 786.84 533.972" width="786.84pt" xmlns="http://www.w3.org/2000/svg" xmlns:xlink="http://www.w3.org/1999/xlink">
 <defs>
  <style type="text/css">
*{stroke-linecap:butt;stroke-linejoin:round;}
  </style>
 </defs>
 <g id="figure_1">
  <g id="patch_1">
   <path d="M 0 533.972 
L 786.84 533.972 
L 786.84 -0 
L 0 -0 
z
" style="fill:#ffffff;"/>
  </g>
  <g id="axes_1">
   <g id="patch_2">
    <path d="M 61.9 498.572 
L 776.14 498.572 
L 776.14 10.7 
L 61.9 10.7 
z
" style="fill:#ffffff;"/>
   </g>
   <g id="matplotlib.axis_1">
    <g id="xtick_1">
     <g id="line2d_1">
      <defs>
       <path d="M 0 0 
L 0 3.5 
" id="m6e3c31bf7e" style="stroke:#000000;stroke-width:1.6;"/>
      </defs>
      <g>
       <use style="stroke:#000000;stroke-width:1.6;" x="103.608289" xlink:href="#m6e3c31bf7e" y="498.572"/>
      </g>
     </g>
     <g id="text_1">
      <!-- 1949 -->
      <defs>
       <path d="M 28.515625 69.53125 
L 28.515625 10.15625 
Q 28.515625 7.03125 30.46875 5.46875 
Q 32.421875 3.90625 35.9375 3.90625 
L 39.84375 3.90625 
L 39.84375 1.5625 
L 11.328125 1.5625 
L 11.328125 3.90625 
L 14.84375 3.90625 
Q 18.75 3.90625 20.5 5.46875 
Q 22.265625 7.03125 22.265625 10.15625 
L 22.265625 57.421875 
Q 22.265625 58.984375 21.28125 59.953125 
Q 20.3125 60.9375 18.359375 60.9375 
L 11.328125 60.9375 
L 11.328125 63.28125 
L 14.84375 63.28125 
Q 19.53125 63.28125 22.453125 64.84375 
Q 25.390625 66.40625 26.953125 69.53125 
z
" id="SimSun-31"/>
       <path d="M 10.9375 47.65625 
Q 10.9375 39.0625 14.25 34.5625 
Q 17.578125 30.078125 22.65625 30.078125 
Q 28.515625 30.078125 32.8125 35.546875 
Q 37.109375 41.015625 37.109375 45.703125 
Q 37.109375 55.078125 33.984375 60.734375 
Q 30.859375 66.40625 23.828125 66.40625 
Q 17.1875 66.40625 14.0625 61.125 
Q 10.9375 55.859375 10.9375 47.65625 
z
M 21.484375 26.5625 
Q 13.671875 26.5625 8.984375 31.4375 
Q 4.296875 36.328125 4.296875 47.265625 
Q 4.296875 56.640625 9.375 62.890625 
Q 14.453125 69.140625 23.828125 69.140625 
Q 33.59375 69.140625 39.0625 61.328125 
Q 44.53125 53.515625 44.53125 38.671875 
Q 44.53125 22.265625 38.078125 11.515625 
Q 31.640625 0.78125 20.3125 0.78125 
Q 15.234375 0.78125 11.515625 3.125 
Q 7.8125 5.46875 7.8125 9.375 
Q 7.8125 10.9375 8.78125 12.5 
Q 9.765625 14.0625 12.109375 14.0625 
Q 14.453125 14.0625 15.234375 12.296875 
Q 16.015625 10.546875 16.015625 8.203125 
Q 16.015625 6.640625 16.40625 5.65625 
Q 16.796875 4.6875 17.1875 4.296875 
Q 17.578125 3.90625 18.546875 3.703125 
Q 19.53125 3.515625 20.703125 3.515625 
Q 27.734375 3.515625 32.03125 11.328125 
Q 36.328125 19.140625 37.109375 37.5 
Q 35.15625 32.8125 31.25 29.6875 
Q 27.34375 26.5625 21.484375 26.5625 
z
" id="SimSun-39"/>
       <path d="M 35.9375 8.984375 
Q 35.9375 6.25 37.5 5.078125 
Q 39.0625 3.90625 41.796875 3.90625 
L 45.3125 3.90625 
L 45.3125 1.5625 
L 19.53125 1.5625 
L 19.53125 3.90625 
L 23.828125 3.90625 
Q 26.953125 3.90625 28.3125 5.078125 
Q 29.6875 6.25 29.6875 8.984375 
L 29.6875 21.875 
L 3.515625 21.875 
L 3.515625 23.828125 
L 32.03125 69.140625 
L 35.9375 69.140625 
L 35.9375 24.21875 
L 46.484375 24.21875 
L 46.484375 21.875 
L 35.9375 21.875 
z
M 29.296875 59.375 
L 7.03125 24.21875 
L 29.6875 24.21875 
L 29.6875 59.375 
z
" id="SimSun-34"/>
      </defs>
      <g transform="translate(87.608289 524.7095)scale(0.16 -0.16)">
       <use xlink:href="#SimSun-31"/>
       <use x="50" xlink:href="#SimSun-39"/>
       <use x="100" xlink:href="#SimSun-34"/>
       <use x="150" xlink:href="#SimSun-39"/>
      </g>
     </g>
    </g>
    <g id="xtick_2">
     <g id="line2d_2">
      <g>
       <use style="stroke:#000000;stroke-width:1.6;" x="196.036629" xlink:href="#m6e3c31bf7e" y="498.572"/>
      </g>
     </g>
     <g id="text_2">
      <!-- 1959 -->
      <defs>
       <path d="M 26.953125 44.53125 
Q 34.375 44.53125 39.0625 38.859375 
Q 43.75 33.203125 43.75 23.828125 
Q 43.75 13.28125 38.859375 7.03125 
Q 33.984375 0.78125 23.828125 0.78125 
Q 16.796875 0.78125 11.328125 4.875 
Q 5.859375 8.984375 5.859375 14.84375 
Q 5.859375 17.1875 7.21875 18.9375 
Q 8.59375 20.703125 10.9375 20.703125 
Q 13.28125 20.703125 14.0625 19.140625 
Q 14.84375 17.578125 14.84375 16.40625 
Q 14.84375 14.0625 13.671875 12.890625 
Q 12.5 11.328125 12.5 9.765625 
Q 12.5 6.640625 16.203125 5.078125 
Q 19.921875 3.515625 24.21875 3.515625 
Q 30.46875 3.515625 33.78125 8.59375 
Q 37.109375 13.671875 37.109375 23.046875 
Q 37.109375 30.859375 34.171875 35.734375 
Q 31.25 40.625 25.390625 40.625 
Q 21.09375 40.625 17.96875 39.0625 
Q 14.84375 37.5 12.109375 32.421875 
L 8.59375 32.8125 
L 10.546875 68.359375 
L 42.578125 68.359375 
L 41.40625 62.5 
L 13.28125 62.5 
L 11.71875 36.71875 
Q 15.625 42.1875 19.328125 43.359375 
Q 23.046875 44.53125 26.953125 44.53125 
z
" id="SimSun-35"/>
      </defs>
      <g transform="translate(180.036629 524.7095)scale(0.16 -0.16)">
       <use xlink:href="#SimSun-31"/>
       <use x="50" xlink:href="#SimSun-39"/>
       <use x="100" xlink:href="#SimSun-35"/>
       <use x="150" xlink:href="#SimSun-39"/>
      </g>
     </g>
    </g>
    <g id="xtick_3">
     <g id="line2d_3">
      <g>
       <use style="stroke:#000000;stroke-width:1.6;" x="288.464969" xlink:href="#m6e3c31bf7e" y="498.572"/>
      </g>
     </g>
     <g id="text_3">
      <!-- 1969 -->
      <defs>
       <path d="M 12.109375 28.125 
Q 12.109375 16.40625 16.203125 9.953125 
Q 20.3125 3.515625 26.171875 3.515625 
Q 32.03125 3.515625 35.15625 7.8125 
Q 38.28125 12.109375 38.28125 23.828125 
Q 38.28125 31.640625 34.953125 35.9375 
Q 31.640625 40.234375 26.953125 40.234375 
Q 22.65625 40.234375 18.9375 37.6875 
Q 15.234375 35.15625 12.109375 28.125 
z
M 27.34375 44.140625 
Q 36.71875 44.140625 40.8125 37.890625 
Q 44.921875 31.640625 44.921875 23.828125 
Q 44.921875 12.109375 39.25 6.4375 
Q 33.59375 0.78125 26.171875 0.78125 
Q 15.625 0.78125 10.15625 8.78125 
Q 4.6875 16.796875 4.6875 32.03125 
Q 4.6875 50 11.328125 59.5625 
Q 17.96875 69.140625 29.296875 69.140625 
Q 34.765625 69.140625 38.078125 66.015625 
Q 41.40625 62.890625 41.40625 60.546875 
Q 41.40625 58.203125 40.421875 57.03125 
Q 39.453125 55.859375 37.109375 55.859375 
Q 35.15625 55.859375 34.171875 56.828125 
Q 33.203125 57.8125 33.203125 59.765625 
Q 33.203125 60.546875 33.59375 61.328125 
Q 33.59375 62.109375 33.59375 62.890625 
Q 33.59375 64.453125 32.421875 65.421875 
Q 31.25 66.40625 28.125 66.40625 
Q 21.484375 66.40625 16.796875 60.34375 
Q 12.109375 54.296875 12.109375 33.984375 
Q 14.453125 39.0625 18.546875 41.59375 
Q 22.65625 44.140625 27.34375 44.140625 
z
" id="SimSun-36"/>
      </defs>
      <g transform="translate(272.464969 524.7095)scale(0.16 -0.16)">
       <use xlink:href="#SimSun-31"/>
       <use x="50" xlink:href="#SimSun-39"/>
       <use x="100" xlink:href="#SimSun-36"/>
       <use x="150" xlink:href="#SimSun-39"/>
      </g>
     </g>
    </g>
    <g id="xtick_4">
     <g id="line2d_4">
      <g>
       <use style="stroke:#000000;stroke-width:1.6;" x="380.89331" xlink:href="#m6e3c31bf7e" y="498.572"/>
      </g>
     </g>
     <g id="text_4">
      <!-- 1979 -->
      <defs>
       <path d="M 44.140625 65.625 
Q 35.9375 52.34375 31.046875 39.640625 
Q 26.171875 26.953125 26.171875 17.578125 
Q 26.171875 16.015625 26.5625 13.28125 
Q 26.5625 10.15625 26.5625 6.25 
Q 26.5625 3.125 25.578125 1.953125 
Q 24.609375 0.78125 22.265625 0.78125 
Q 20.3125 0.78125 18.9375 2.140625 
Q 17.578125 3.515625 17.578125 7.03125 
Q 17.578125 14.453125 20.890625 25.390625 
Q 24.21875 36.328125 38.671875 62.5 
L 19.140625 62.5 
Q 14.84375 62.5 12.296875 59.765625 
Q 9.765625 57.03125 8.59375 51.5625 
L 6.25 51.953125 
L 8.984375 68.359375 
L 44.140625 68.359375 
z
" id="SimSun-37"/>
      </defs>
      <g transform="translate(364.89331 524.7095)scale(0.16 -0.16)">
       <use xlink:href="#SimSun-31"/>
       <use x="50" xlink:href="#SimSun-39"/>
       <use x="100" xlink:href="#SimSun-37"/>
       <use x="150" xlink:href="#SimSun-39"/>
      </g>
     </g>
    </g>
    <g id="xtick_5">
     <g id="line2d_5">
      <g>
       <use style="stroke:#000000;stroke-width:1.6;" x="473.32165" xlink:href="#m6e3c31bf7e" y="498.572"/>
      </g>
     </g>
     <g id="text_5">
      <!-- 1989 -->
      <defs>
       <path d="M 9.765625 17.578125 
Q 9.765625 11.328125 13.859375 7.421875 
Q 17.96875 3.515625 24.21875 3.515625 
Q 31.640625 3.515625 34.953125 7.421875 
Q 38.28125 11.328125 38.28125 17.1875 
Q 38.28125 22.265625 33.59375 26.953125 
Q 28.90625 31.640625 19.53125 35.546875 
Q 14.84375 32.421875 12.296875 27.734375 
Q 9.765625 23.046875 9.765625 17.578125 
z
M 44.140625 18.359375 
Q 44.140625 10.9375 38.671875 5.859375 
Q 33.203125 0.78125 24.21875 0.78125 
Q 16.015625 0.78125 10.15625 5.859375 
Q 4.296875 10.9375 4.296875 17.578125 
Q 4.296875 24.21875 7.609375 28.90625 
Q 10.9375 33.59375 17.1875 37.109375 
Q 11.71875 39.84375 8.78125 43.9375 
Q 5.859375 48.046875 5.859375 53.125 
Q 5.859375 59.765625 10.9375 64.453125 
Q 16.015625 69.140625 25 69.140625 
Q 33.203125 69.140625 38.28125 64.453125 
Q 43.359375 59.765625 43.359375 53.125 
Q 43.359375 48.4375 40.421875 44.328125 
Q 37.5 40.234375 31.25 37.109375 
Q 37.890625 33.203125 41.015625 28.515625 
Q 44.140625 23.828125 44.140625 18.359375 
z
M 37.890625 52.734375 
Q 37.890625 58.203125 34.765625 62.296875 
Q 31.640625 66.40625 25 66.40625 
Q 17.578125 66.40625 14.453125 62.5 
Q 11.328125 58.59375 11.328125 54.296875 
Q 11.328125 50 15.8125 45.890625 
Q 20.3125 41.796875 28.515625 38.671875 
Q 33.203125 41.015625 35.546875 44.53125 
Q 37.890625 48.046875 37.890625 52.734375 
z
" id="SimSun-38"/>
      </defs>
      <g transform="translate(457.32165 524.7095)scale(0.16 -0.16)">
       <use xlink:href="#SimSun-31"/>
       <use x="50" xlink:href="#SimSun-39"/>
       <use x="100" xlink:href="#SimSun-38"/>
       <use x="150" xlink:href="#SimSun-39"/>
      </g>
     </g>
    </g>
    <g id="xtick_6">
     <g id="line2d_6">
      <g>
       <use style="stroke:#000000;stroke-width:1.6;" x="565.74999" xlink:href="#m6e3c31bf7e" y="498.572"/>
      </g>
     </g>
     <g id="text_6">
      <!-- 1999 -->
      <g transform="translate(549.74999 524.7095)scale(0.16 -0.16)">
       <use xlink:href="#SimSun-31"/>
       <use x="50" xlink:href="#SimSun-39"/>
       <use x="100" xlink:href="#SimSun-39"/>
       <use x="150" xlink:href="#SimSun-39"/>
      </g>
     </g>
    </g>
    <g id="xtick_7">
     <g id="line2d_7">
      <g>
       <use style="stroke:#000000;stroke-width:1.6;" x="658.178331" xlink:href="#m6e3c31bf7e" y="498.572"/>
      </g>
     </g>
     <g id="text_7">
      <!-- 2009 -->
      <defs>
       <path d="M 36.328125 51.953125 
Q 36.328125 58.984375 33.203125 62.6875 
Q 30.078125 66.40625 23.828125 66.40625 
Q 19.140625 66.40625 15.8125 63.859375 
Q 12.5 61.328125 12.5 57.421875 
Q 12.5 55.078125 14.0625 53.515625 
Q 15.234375 51.953125 15.234375 50.390625 
Q 15.234375 48.4375 14.25 47.453125 
Q 13.28125 46.484375 11.328125 46.484375 
Q 8.984375 46.484375 7.609375 47.84375 
Q 6.25 49.21875 6.25 52.34375 
Q 6.25 60.546875 12.109375 64.84375 
Q 17.96875 69.140625 24.609375 69.140625 
Q 33.984375 69.140625 38.46875 64.453125 
Q 42.96875 59.765625 42.96875 52.734375 
Q 42.96875 48.046875 40.8125 43.359375 
Q 38.671875 38.671875 33.984375 34.375 
Q 22.65625 23.4375 16.59375 16.59375 
Q 10.546875 9.765625 9.375 7.421875 
L 32.421875 7.421875 
Q 35.9375 7.421875 38.28125 10.15625 
Q 40.625 12.890625 41.40625 18.359375 
L 43.75 18.359375 
L 41.40625 1.5625 
L 5.078125 1.5625 
L 5.078125 6.640625 
Q 7.03125 10.15625 11.515625 15.625 
Q 16.015625 21.09375 23.4375 28.515625 
Q 30.078125 35.15625 33.203125 41.015625 
Q 36.328125 46.875 36.328125 51.953125 
z
" id="SimSun-32"/>
       <path d="M 25 66.015625 
Q 19.53125 66.015625 15.8125 57.609375 
Q 12.109375 49.21875 12.109375 35.15625 
Q 12.109375 20.3125 15.8125 12.109375 
Q 19.53125 3.90625 25 3.90625 
Q 30.859375 3.90625 34.171875 12.109375 
Q 37.5 20.3125 37.5 35.15625 
Q 37.5 49.21875 34.375 57.609375 
Q 31.25 66.015625 25 66.015625 
z
M 25 0.78125 
Q 16.40625 0.78125 10.546875 9.765625 
Q 4.6875 18.75 4.6875 35.15625 
Q 4.6875 50.390625 10.34375 59.765625 
Q 16.015625 69.140625 25 69.140625 
Q 33.59375 69.140625 39.25 60.15625 
Q 44.921875 51.171875 44.921875 35.15625 
Q 44.921875 19.140625 39.25 9.953125 
Q 33.59375 0.78125 25 0.78125 
z
" id="SimSun-30"/>
      </defs>
      <g transform="translate(642.178331 524.7095)scale(0.16 -0.16)">
       <use xlink:href="#SimSun-32"/>
       <use x="50" xlink:href="#SimSun-30"/>
       <use x="100" xlink:href="#SimSun-30"/>
       <use x="150" xlink:href="#SimSun-39"/>
      </g>
     </g>
    </g>
    <g id="xtick_8">
     <g id="line2d_8">
      <g>
       <use style="stroke:#000000;stroke-width:1.6;" x="750.606671" xlink:href="#m6e3c31bf7e" y="498.572"/>
      </g>
     </g>
     <g id="text_8">
      <!-- 2019 -->
      <g transform="translate(734.606671 524.7095)scale(0.16 -0.16)">
       <use xlink:href="#SimSun-32"/>
       <use x="50" xlink:href="#SimSun-30"/>
       <use x="100" xlink:href="#SimSun-31"/>
       <use x="150" xlink:href="#SimSun-39"/>
      </g>
     </g>
    </g>
    <g id="xtick_9">
     <g id="line2d_9">
      <defs>
       <path d="M 0 0 
L 0 2 
" id="m871fa0d26c" style="stroke:#000000;stroke-width:0.8;"/>
      </defs>
      <g>
       <use style="stroke:#000000;stroke-width:0.8;" x="103.608289" xlink:href="#m871fa0d26c" y="498.572"/>
      </g>
     </g>
    </g>
    <g id="xtick_10">
     <g id="line2d_10">
      <g>
       <use style="stroke:#000000;stroke-width:0.8;" x="149.822459" xlink:href="#m871fa0d26c" y="498.572"/>
      </g>
     </g>
    </g>
    <g id="xtick_11">
     <g id="line2d_11">
      <g>
       <use style="stroke:#000000;stroke-width:0.8;" x="196.036629" xlink:href="#m871fa0d26c" y="498.572"/>
      </g>
     </g>
    </g>
    <g id="xtick_12">
     <g id="line2d_12">
      <g>
       <use style="stroke:#000000;stroke-width:0.8;" x="242.250799" xlink:href="#m871fa0d26c" y="498.572"/>
      </g>
     </g>
    </g>
    <g id="xtick_13">
     <g id="line2d_13">
      <g>
       <use style="stroke:#000000;stroke-width:0.8;" x="288.464969" xlink:href="#m871fa0d26c" y="498.572"/>
      </g>
     </g>
    </g>
    <g id="xtick_14">
     <g id="line2d_14">
      <g>
       <use style="stroke:#000000;stroke-width:0.8;" x="334.679139" xlink:href="#m871fa0d26c" y="498.572"/>
      </g>
     </g>
    </g>
    <g id="xtick_15">
     <g id="line2d_15">
      <g>
       <use style="stroke:#000000;stroke-width:0.8;" x="380.89331" xlink:href="#m871fa0d26c" y="498.572"/>
      </g>
     </g>
    </g>
    <g id="xtick_16">
     <g id="line2d_16">
      <g>
       <use style="stroke:#000000;stroke-width:0.8;" x="427.10748" xlink:href="#m871fa0d26c" y="498.572"/>
      </g>
     </g>
    </g>
    <g id="xtick_17">
     <g id="line2d_17">
      <g>
       <use style="stroke:#000000;stroke-width:0.8;" x="473.32165" xlink:href="#m871fa0d26c" y="498.572"/>
      </g>
     </g>
    </g>
    <g id="xtick_18">
     <g id="line2d_18">
      <g>
       <use style="stroke:#000000;stroke-width:0.8;" x="519.53582" xlink:href="#m871fa0d26c" y="498.572"/>
      </g>
     </g>
    </g>
    <g id="xtick_19">
     <g id="line2d_19">
      <g>
       <use style="stroke:#000000;stroke-width:0.8;" x="565.74999" xlink:href="#m871fa0d26c" y="498.572"/>
      </g>
     </g>
    </g>
    <g id="xtick_20">
     <g id="line2d_20">
      <g>
       <use style="stroke:#000000;stroke-width:0.8;" x="611.96416" xlink:href="#m871fa0d26c" y="498.572"/>
      </g>
     </g>
    </g>
    <g id="xtick_21">
     <g id="line2d_21">
      <g>
       <use style="stroke:#000000;stroke-width:0.8;" x="658.178331" xlink:href="#m871fa0d26c" y="498.572"/>
      </g>
     </g>
    </g>
    <g id="xtick_22">
     <g id="line2d_22">
      <g>
       <use style="stroke:#000000;stroke-width:0.8;" x="704.392501" xlink:href="#m871fa0d26c" y="498.572"/>
      </g>
     </g>
    </g>
    <g id="xtick_23">
     <g id="line2d_23">
      <g>
       <use style="stroke:#000000;stroke-width:0.8;" x="750.606671" xlink:href="#m871fa0d26c" y="498.572"/>
      </g>
     </g>
    </g>
   </g>
   <g id="matplotlib.axis_2">
    <g id="ytick_1">
     <g id="line2d_24">
      <defs>
       <path d="M 0 0 
L -3.5 0 
" id="m95df45ff2b" style="stroke:#000000;stroke-width:1.6;"/>
      </defs>
      <g>
       <use style="stroke:#000000;stroke-width:1.6;" x="61.9" xlink:href="#m95df45ff2b" y="437.529599"/>
      </g>
     </g>
     <g id="text_9">
      <!-- -2.5% -->
      <defs>
       <path d="M 3.125 34.765625 
L 3.125 38.28125 
L 46.484375 38.28125 
L 46.484375 34.765625 
z
" id="SimSun-2d"/>
       <path d="M 12.5 0.390625 
Q 10.15625 0.390625 8.390625 1.953125 
Q 6.640625 3.515625 6.640625 6.25 
Q 6.640625 8.984375 8.390625 10.546875 
Q 10.15625 12.109375 12.5 12.109375 
Q 14.84375 12.109375 16.59375 10.34375 
Q 18.359375 8.59375 18.359375 6.25 
Q 18.359375 3.515625 16.59375 1.953125 
Q 14.84375 0.390625 12.5 0.390625 
z
" id="SimSun-2e"/>
       <path d="M 11.71875 66.40625 
Q 9.375 66.40625 7.8125 63.28125 
Q 6.25 60.15625 6.25 51.5625 
Q 6.25 41.796875 8 38.859375 
Q 9.765625 35.9375 11.71875 35.9375 
Q 14.453125 35.9375 15.8125 39.453125 
Q 17.1875 42.96875 17.1875 51.5625 
Q 17.1875 58.59375 16.203125 62.5 
Q 15.234375 66.40625 11.71875 66.40625 
z
M 22.265625 51.171875 
Q 22.265625 44.140625 19.921875 38.859375 
Q 17.578125 33.59375 11.71875 33.59375 
Q 7.03125 33.59375 4.09375 38.28125 
Q 1.171875 42.96875 1.171875 51.171875 
Q 1.171875 59.765625 4.296875 64.453125 
Q 7.421875 69.140625 11.71875 69.140625 
Q 16.40625 69.140625 19.328125 64.25 
Q 22.265625 59.375 22.265625 51.171875 
z
M 42.578125 18.75 
Q 42.578125 25.390625 41.40625 29.6875 
Q 40.234375 33.984375 37.109375 33.984375 
Q 34.765625 33.984375 33.203125 30.265625 
Q 31.640625 26.5625 31.640625 18.75 
Q 31.640625 8.984375 33.390625 6.25 
Q 35.15625 3.515625 37.109375 3.515625 
Q 39.84375 3.515625 41.203125 6.828125 
Q 42.578125 10.15625 42.578125 18.75 
z
M 47.65625 18.359375 
Q 47.65625 10.546875 44.921875 5.65625 
Q 42.1875 0.78125 37.109375 0.78125 
Q 32.8125 0.78125 29.6875 5.65625 
Q 26.5625 10.546875 26.5625 18.359375 
Q 26.5625 26.953125 29.6875 31.828125 
Q 32.8125 36.71875 37.109375 36.71875 
Q 41.796875 36.71875 44.71875 31.640625 
Q 47.65625 26.5625 47.65625 18.359375 
z
M 39.453125 67.96875 
L 11.328125 0.78125 
L 8.984375 1.953125 
L 36.71875 69.140625 
z
" id="SimSun-25"/>
      </defs>
      <g transform="translate(7.2 443.248349)scale(0.16 -0.16)">
       <use xlink:href="#SimSun-2d"/>
       <use x="50" xlink:href="#SimSun-32"/>
       <use x="100" xlink:href="#SimSun-2e"/>
       <use x="150" xlink:href="#SimSun-35"/>
       <use x="200" xlink:href="#SimSun-25"/>
      </g>
     </g>
    </g>
    <g id="ytick_2">
     <g id="line2d_25">
      <g>
       <use style="stroke:#000000;stroke-width:1.6;" x="61.9" xlink:href="#m95df45ff2b" y="373.769681"/>
      </g>
     </g>
     <g id="text_10">
      <!-- 0.0% -->
      <g transform="translate(15.2 379.488431)scale(0.16 -0.16)">
       <use xlink:href="#SimSun-30"/>
       <use x="50" xlink:href="#SimSun-2e"/>
       <use x="100" xlink:href="#SimSun-30"/>
       <use x="150" xlink:href="#SimSun-25"/>
      </g>
     </g>
    </g>
    <g id="ytick_3">
     <g id="line2d_26">
      <g>
       <use style="stroke:#000000;stroke-width:1.6;" x="61.9" xlink:href="#m95df45ff2b" y="310.009762"/>
      </g>
     </g>
     <g id="text_11">
      <!-- 2.5% -->
      <g transform="translate(15.2 315.728512)scale(0.16 -0.16)">
       <use xlink:href="#SimSun-32"/>
       <use x="50" xlink:href="#SimSun-2e"/>
       <use x="100" xlink:href="#SimSun-35"/>
       <use x="150" xlink:href="#SimSun-25"/>
      </g>
     </g>
    </g>
    <g id="ytick_4">
     <g id="line2d_27">
      <g>
       <use style="stroke:#000000;stroke-width:1.6;" x="61.9" xlink:href="#m95df45ff2b" y="246.249843"/>
      </g>
     </g>
     <g id="text_12">
      <!-- 5.0% -->
      <g transform="translate(15.2 251.968593)scale(0.16 -0.16)">
       <use xlink:href="#SimSun-35"/>
       <use x="50" xlink:href="#SimSun-2e"/>
       <use x="100" xlink:href="#SimSun-30"/>
       <use x="150" xlink:href="#SimSun-25"/>
      </g>
     </g>
    </g>
    <g id="ytick_5">
     <g id="line2d_28">
      <g>
       <use style="stroke:#000000;stroke-width:1.6;" x="61.9" xlink:href="#m95df45ff2b" y="182.489925"/>
      </g>
     </g>
     <g id="text_13">
      <!-- 7.5% -->
      <g transform="translate(15.2 188.208675)scale(0.16 -0.16)">
       <use xlink:href="#SimSun-37"/>
       <use x="50" xlink:href="#SimSun-2e"/>
       <use x="100" xlink:href="#SimSun-35"/>
       <use x="150" xlink:href="#SimSun-25"/>
      </g>
     </g>
    </g>
    <g id="ytick_6">
     <g id="line2d_29">
      <g>
       <use style="stroke:#000000;stroke-width:1.6;" x="61.9" xlink:href="#m95df45ff2b" y="118.730006"/>
      </g>
     </g>
     <g id="text_14">
      <!-- 10.0% -->
      <g transform="translate(7.2 124.448756)scale(0.16 -0.16)">
       <use xlink:href="#SimSun-31"/>
       <use x="50" xlink:href="#SimSun-30"/>
       <use x="100" xlink:href="#SimSun-2e"/>
       <use x="150" xlink:href="#SimSun-30"/>
       <use x="200" xlink:href="#SimSun-25"/>
      </g>
     </g>
    </g>
    <g id="ytick_7">
     <g id="line2d_30">
      <g>
       <use style="stroke:#000000;stroke-width:1.6;" x="61.9" xlink:href="#m95df45ff2b" y="54.970087"/>
      </g>
     </g>
     <g id="text_15">
      <!-- 12.5% -->
      <g transform="translate(7.2 60.688837)scale(0.16 -0.16)">
       <use xlink:href="#SimSun-31"/>
       <use x="50" xlink:href="#SimSun-32"/>
       <use x="100" xlink:href="#SimSun-2e"/>
       <use x="150" xlink:href="#SimSun-35"/>
       <use x="200" xlink:href="#SimSun-25"/>
      </g>
     </g>
    </g>
   </g>
   <g id="line2d_31">
    <path clip-path="url(#p0f90cdf5d2)" d="M 94.365455 307.410908 
L 96.676163 256.915602 
L 98.986872 236.26249 
L 101.29758 274.612806 
L 103.608289 349.806153 
L 105.918997 400.349916 
L 108.229706 388.837425 
L 110.540414 412.831557 
L 112.851123 277.719189 
L 115.161831 187.692734 
L 119.783248 32.876 
L 122.093957 104.36107 
L 124.404665 140.42113 
L 126.715374 188.692489 
L 129.026082 234.227273 
L 131.336791 241.906518 
L 133.647499 281.924793 
L 135.958208 316.622941 
L 138.268916 236.900089 
L 140.579625 215.861866 
L 142.890333 200.771168 
L 145.201042 235.527975 
L 147.51175 360.385199 
L 149.822459 419.240704 
L 152.133167 435.777477 
L 154.443876 393.392433 
L 159.065293 216.499465 
L 161.376001 175.32331 
L 163.68671 169.365583 
L 165.997418 206.017335 
L 168.308127 291.723417 
L 170.618835 312.486197 
L 172.929544 349.653129 
L 177.550961 296.038689 
L 179.861669 323.243771 
L 182.172378 295.383237 
L 184.483086 364.761679 
L 186.793795 446.986471 
L 189.104503 425.277493 
L 191.415212 392.2116 
L 193.72592 305.901073 
L 196.036629 184.571048 
L 198.347337 140.994969 
L 200.658046 201.987708 
L 202.968754 256.619756 
L 205.279463 248.042772 
L 207.590171 321.282516 
L 209.90088 310.463733 
L 214.522297 390.898145 
L 216.833005 333.84832 
L 219.143714 296.961932 
L 221.454423 210.661607 
L 223.765131 180.714848 
L 226.07584 202.207042 
L 228.386548 220.636209 
L 230.697257 263.926643 
L 233.007965 282.03191 
L 235.318674 276.280765 
L 237.629382 250.927271 
L 239.940091 242.225317 
L 242.250799 215.231918 
L 244.561508 216.157712 
L 246.872216 233.023486 
L 249.182925 242.253372 
L 251.493633 234.112505 
L 253.804342 229.458031 
L 256.11505 211.875596 
L 258.425759 157.909201 
L 260.736467 157.547044 
L 263.047176 182.750065 
L 265.357884 219.656856 
L 269.979301 299.168025 
L 272.29001 306.457059 
L 274.600718 303.934717 
L 276.911427 305.638382 
L 279.222135 275.704375 
L 281.532844 233.110199 
L 283.843552 237.657557 
L 286.154261 247.298056 
L 288.464969 259.733791 
L 290.775678 295.53371 
L 293.086386 298.512573 
L 295.397095 321.601315 
L 297.707803 365.475791 
L 300.018512 369.635488 
L 302.32922 362.989154 
L 304.639929 378.000789 
L 306.950637 305.005884 
L 309.261346 294.528854 
L 311.572054 297.14301 
L 313.882763 262.416808 
L 316.193471 285.079634 
L 318.50418 239.774386 
L 320.814888 236.499676 
L 323.125597 197.907073 
L 325.436305 180.908679 
L 327.747014 212.569304 
L 330.057722 252.082601 
L 332.368431 271.131514 
L 334.679139 357.498149 
L 336.989848 379.089808 
L 339.300556 389.816777 
L 341.611265 423.415704 
L 343.921973 432.380348 
L 346.232682 420.546508 
L 348.54339 353.414964 
L 350.854099 308.607044 
L 353.164808 216.882025 
L 355.475516 216.348992 
L 357.786225 247.267452 
L 360.096933 263.740464 
L 362.407642 291.491331 
L 364.71835 259.848559 
L 367.029059 226.611788 
L 369.339767 245.920842 
L 371.650476 268.767296 
L 373.961184 218.754016 
L 376.271893 239.973317 
L 378.582601 203.964265 
L 380.89331 207.7261 
L 383.204018 305.997988 
L 385.514727 312.817749 
L 387.825435 341.027687 
L 390.136144 337.566799 
L 392.446852 393.532705 
L 394.757561 415.180473 
L 399.378978 332.963333 
L 404.000395 263.462471 
L 406.311103 340.604321 
L 408.621812 429.608067 
L 410.93252 399.549091 
L 413.243229 438.934868 
L 415.553937 410.571906 
L 417.864646 337.286255 
L 420.175354 290.412513 
L 422.486063 227.45597 
L 424.796771 172.288338 
L 427.10748 154.960942 
L 429.418188 169.817003 
L 431.728897 197.75915 
L 434.039605 231.549356 
L 436.350314 257.622062 
L 438.661022 279.830917 
L 440.971731 265.06667 
L 443.282439 267.135042 
L 445.593148 268.027681 
L 447.903856 279.353993 
L 450.214565 294.238109 
L 452.525273 299.593942 
L 454.835982 304.506006 
L 457.14669 288.114606 
L 459.457399 290.440568 
L 461.768107 259.511906 
L 464.078816 265.566548 
L 466.389524 259.397139 
L 468.700233 266.836646 
L 471.010941 276.897961 
L 473.32165 263.71496 
L 475.632358 278.155307 
L 477.943067 274.092525 
L 480.253775 303.796996 
L 482.564484 301.810236 
L 484.875192 312.228607 
L 487.185901 329.711577 
L 489.49661 358.395889 
L 491.807318 397.99845 
L 494.118027 387.536722 
L 496.428735 376.40169 
L 498.739444 344.00145 
L 501.050152 300.884442 
L 503.360861 292.929755 
L 505.671569 280.269586 
L 507.982278 261.998543 
L 510.292986 289.053152 
L 514.914403 315.439557 
L 517.225112 307.250233 
L 521.846529 265.995015 
L 524.157237 263.151323 
L 526.467946 268.782599 
L 528.778654 285.010773 
L 531.089363 312.498949 
L 533.400071 305.587374 
L 535.71078 317.671154 
L 538.021488 307.418559 
L 540.332197 271.705353 
L 542.642905 270.486264 
L 544.953614 261.01664 
L 547.264322 263.743015 
L 549.575031 263.901139 
L 551.885739 254.581989 
L 554.196448 259.307875 
L 556.507156 249.940267 
L 558.817865 269.30543 
L 561.128573 269.256972 
L 563.439282 249.335823 
L 565.74999 250.738542 
L 568.060699 254.877835 
L 570.371407 253.375652 
L 572.682116 251.17976 
L 574.992824 266.660668 
L 577.303533 238.664963 
L 579.614241 269.838463 
L 581.92495 297.936184 
L 584.235658 314.865717 
L 586.546367 346.794134 
L 588.857075 360.918232 
L 591.167784 369.847171 
L 593.478492 340.150351 
L 595.789201 339.599465 
L 598.099909 317.291145 
L 600.410618 320.364373 
L 602.721326 328.594503 
L 605.032035 322.055286 
L 607.342743 289.560681 
L 609.653452 263.431866 
L 611.96416 264.003155 
L 614.274869 266.571405 
L 616.585577 286.252816 
L 618.896286 290.058008 
L 621.206995 275.043823 
L 623.517703 282.944952 
L 625.828412 284.360422 
L 628.13912 294.044278 
L 630.449829 288.237025 
L 632.760537 294.215155 
L 635.071246 313.417092 
L 637.381954 307.701653 
L 639.692663 335.96515 
L 642.003371 327.204537 
L 644.31408 317.140671 
L 646.624788 323.427399 
L 648.935497 344.45287 
L 651.246205 345.911697 
L 653.556914 373.721223 
L 655.867622 443.994855 
L 658.178331 457.662431 
L 660.489039 473.860001 
L 662.799748 451.54913 
L 665.110456 369.094803 
L 667.421165 330.152796 
L 669.731873 302.452936 
L 672.042582 292.70277 
L 676.663999 324.516419 
L 678.974707 329.867151 
L 681.285416 349.571516 
L 683.596124 332.721045 
L 685.906833 306.151012 
L 688.217541 313.544612 
L 690.52825 309.288 
L 692.838958 336.319655 
L 695.149667 333.669793 
L 697.460375 341.588775 
L 699.771084 324.870924 
L 702.081792 307.099759 
L 704.392501 336.6104 
L 706.703209 307.395605 
L 709.013918 296.339635 
L 711.324626 304.850309 
L 713.635335 276.642921 
L 715.946043 287.862117 
L 718.256752 313.100843 
L 720.56746 322.759195 
L 722.878169 334.052352 
L 725.188877 340.711438 
L 727.499586 334.590486 
L 729.810294 325.847726 
L 732.121003 324.342992 
L 734.431711 319.83134 
L 736.74242 314.123552 
L 739.053128 310.726423 
L 741.363837 307.949041 
L 743.674545 300.580945 
L 743.674545 300.580945 
" style="fill:none;stroke:#000000;stroke-linecap:square;stroke-width:2.8;"/>
   </g>
   <g id="line2d_32">
    <path clip-path="url(#p0f90cdf5d2)" d="M 94.365455 290.86424 
L 96.676163 304.46959 
L 98.986872 247.029181 
L 101.29758 227.591034 
L 103.608289 293.378491 
L 105.918997 387.83585 
L 108.229706 416.614516 
L 110.540414 353.58174 
L 112.851123 351.965831 
L 115.161831 272.283487 
L 117.47254 130.896326 
L 119.783248 80.830302 
L 122.093957 88.019353 
L 124.404665 171.215122 
L 126.715374 232.579409 
L 129.026082 225.851858 
L 131.336791 239.013839 
L 135.958208 305.765787 
L 138.268916 329.419447 
L 140.579625 234.795974 
L 142.890333 153.556888 
L 145.201042 213.223875 
L 147.51175 316.561069 
L 149.822459 406.93995 
L 152.133167 432.812704 
L 154.443876 394.895024 
L 156.754584 335.301726 
L 161.376001 179.877608 
L 163.68671 165.560144 
L 168.308127 260.746547 
L 170.618835 322.89095 
L 172.929544 342.11313 
L 175.240252 332.005348 
L 177.550961 305.109456 
L 179.861669 273.515068 
L 182.172378 312.649827 
L 184.483086 328.715087 
L 186.793795 348.161913 
L 189.104503 452.051551 
L 191.415212 455.006108 
L 193.72592 311.35845 
L 196.036629 201.661226 
L 198.347337 169.589162 
L 200.658046 167.351426 
L 202.968754 237.543119 
L 205.279463 327.771631 
L 207.590171 281.376314 
L 209.90088 264.039063 
L 212.211588 335.289822 
L 214.522297 388.970446 
L 216.833005 382.729892 
L 219.143714 293.546055 
L 221.454423 230.943284 
L 223.765131 209.022032 
L 226.07584 193.558148 
L 228.386548 220.667193 
L 230.697257 265.998803 
L 233.007965 294.147415 
L 235.318674 291.850768 
L 237.629382 268.237382 
L 239.940091 241.293744 
L 242.250799 241.568687 
L 244.561508 235.661111 
L 246.872216 222.009902 
L 249.182925 245.144505 
L 251.493633 277.03907 
L 253.804342 251.669651 
L 256.11505 211.257553 
L 258.425759 214.935267 
L 260.736467 190.115845 
L 263.047176 157.15718 
L 265.357884 206.227455 
L 267.668593 289.951051 
L 269.979301 302.922031 
L 272.29001 283.362805 
L 274.600718 299.265494 
L 276.911427 319.896667 
L 279.222135 305.095046 
L 281.532844 255.225122 
L 283.843552 209.650338 
L 286.154261 239.506326 
L 288.464969 296.680896 
L 290.775678 286.199549 
L 293.086386 273.222807 
L 295.397095 305.424349 
L 297.707803 343.659602 
L 300.018512 369.725873 
L 302.32922 360.454207 
L 304.639929 330.295535 
L 306.950637 350.597655 
L 309.261346 314.28956 
L 311.572054 244.067994 
L 313.882763 275.558191 
L 316.193471 310.910464 
L 318.50418 285.005178 
L 320.814888 216.105111 
L 323.125597 212.741315 
L 325.436305 239.229698 
L 327.747014 204.901815 
L 330.057722 201.439935 
L 332.368431 292.239934 
L 334.679139 337.661362 
L 336.989848 347.327613 
L 339.300556 371.378318 
L 341.611265 384.810025 
L 343.921973 401.338821 
L 346.232682 415.647287 
L 348.54339 392.445823 
L 350.854099 303.428722 
L 353.164808 243.077848 
L 355.475516 212.174569 
L 357.786225 220.918899 
L 360.096933 282.55388 
L 362.407642 308.355896 
L 364.71835 285.276376 
L 367.029059 242.400355 
L 369.339767 213.535519 
L 371.650476 256.899438 
L 373.961184 319.625111 
L 376.271893 239.474597 
L 378.582601 171.013334 
L 385.514727 327.074764 
L 387.825435 336.356032 
L 390.136144 318.7978 
L 392.446852 321.163967 
L 394.757561 393.48807 
L 397.068269 444.634773 
L 399.378978 344.878117 
L 401.689686 228.539135 
L 404.000395 266.8486 
L 406.311103 327.959248 
L 408.621812 350.774209 
L 410.93252 423.250835 
L 413.243229 419.666924 
L 415.553937 371.882135 
L 417.864646 367.24787 
L 420.175354 324.396657 
L 422.486063 240.842048 
L 424.796771 192.338831 
L 427.10748 183.69311 
L 429.418188 183.782748 
L 431.728897 197.986876 
L 436.350314 270.686525 
L 438.661022 280.010905 
L 440.971731 281.301493 
L 443.282439 269.202345 
L 445.593148 261.807129 
L 447.903856 275.666819 
L 450.214565 295.176439 
L 452.525273 303.092254 
L 454.835982 297.505655 
L 457.14669 297.514408 
L 459.457399 289.048683 
L 461.768107 282.340182 
L 464.078816 260.432432 
L 466.389524 256.011608 
L 468.700233 274.61128 
L 471.010941 283.461557 
L 473.32165 279.507712 
L 475.632358 262.792126 
L 477.943067 273.92434 
L 480.253775 294.361368 
L 482.564484 311.648378 
L 484.875192 305.910852 
L 487.185901 298.242409 
L 489.49661 327.250455 
L 491.807318 373.972084 
L 494.118027 401.93248 
L 496.428735 367.172858 
L 498.739444 321.96605 
L 501.050152 316.62297 
L 503.360861 299.720435 
L 505.671569 273.104237 
L 507.982278 272.194324 
L 510.292986 273.014573 
L 512.603695 291.43735 
L 514.914403 319.019077 
L 517.225112 321.883051 
L 521.846529 264.504427 
L 524.157237 259.979123 
L 526.467946 274.702133 
L 528.778654 283.574447 
L 531.089363 288.716299 
L 533.400071 316.828654 
L 535.71078 320.189157 
L 538.021488 300.920997 
L 540.332197 293.490313 
L 542.642905 270.540662 
L 544.953614 256.7559 
L 547.264322 268.966996 
L 549.575031 280.387585 
L 551.885739 270.129682 
L 554.196448 249.280084 
L 556.507156 258.812959 
L 558.817865 272.670116 
L 561.128573 277.995989 
L 563.439282 274.913882 
L 565.74999 249.321002 
L 568.060699 242.490068 
L 570.371407 272.703273 
L 572.682116 280.675861 
L 574.992824 247.822012 
L 577.303533 253.947292 
L 579.614241 266.615149 
L 581.92495 277.08061 
L 584.235658 310.334313 
L 586.546367 333.087983 
L 591.167784 351.683302 
L 593.478492 359.595224 
L 595.789201 325.062707 
L 598.099909 299.845568 
L 600.410618 310.70069 
L 602.721326 326.7452 
L 605.032035 326.286026 
L 607.342743 308.248162 
L 609.653452 271.813821 
L 611.96416 244.746912 
L 614.274869 266.684604 
L 616.585577 296.774504 
L 618.896286 296.905443 
L 621.206995 281.748853 
L 623.517703 268.214621 
L 625.828412 282.819158 
L 628.13912 302.237368 
L 630.449829 298.677492 
L 632.760537 278.784928 
L 635.071246 284.893756 
L 637.381954 327.508445 
L 639.692663 326.845554 
L 642.003371 310.164767 
L 644.31408 317.181305 
L 646.624788 318.792571 
L 648.935497 312.721673 
L 651.246205 335.850718 
L 653.556914 355.260857 
L 655.867622 361.685368 
L 658.178331 429.227101 
L 660.489039 476.396 
L 662.799748 434.104957 
L 665.110456 372.890525 
L 667.421165 317.840914 
L 669.731873 292.82901 
L 672.042582 297.501714 
L 674.35329 297.254895 
L 676.663999 303.056866 
L 678.974707 328.467809 
L 681.285416 337.483762 
L 683.596124 335.377431 
L 685.906833 320.107236 
L 688.217541 285.695428 
L 690.52825 293.11274 
L 692.838958 310.996112 
L 695.149667 310.639624 
L 699.771084 293.973663 
L 702.081792 288.986207 
L 704.392501 287.550844 
L 706.703209 288.276737 
L 709.013918 289.660748 
L 711.324626 290.767463 
L 713.635335 291.296898 
L 715.946043 291.353438 
L 722.878169 290.835769 
L 727.499586 290.797798 
L 739.053128 290.8726 
L 743.674545 290.864022 
L 743.674545 290.864022 
" style="fill:none;stroke:#000000;stroke-dasharray:17.92,4.48,2.8,4.48;stroke-dashoffset:0;stroke-width:2.8;"/>
   </g>
   <g id="line2d_33">
    <path clip-path="url(#p0f90cdf5d2)" d="M 692.838958 498.572 
L 692.838958 10.7 
" style="fill:none;stroke:#808080;stroke-dasharray:11.1,4.8;stroke-dashoffset:0;stroke-width:3;"/>
   </g>
   <g id="patch_3">
    <path d="M 61.9 498.572 
L 61.9 10.7 
" style="fill:none;stroke:#000000;stroke-linecap:square;stroke-linejoin:miter;stroke-width:0.8;"/>
   </g>
   <g id="patch_4">
    <path d="M 61.9 498.572 
L 776.14 498.572 
" style="fill:none;stroke:#000000;stroke-linecap:square;stroke-linejoin:miter;stroke-width:0.8;"/>
   </g>
   <g id="text_16">
    <!-- 训练期 -->
    <defs>
     <path d="M 61.328125 71.484375 
L 69.921875 67.96875 
L 66.796875 65.625 
L 66.796875 16.40625 
Q 66.796875 12.890625 67.1875 4.296875 
L 61.328125 1.171875 
Q 61.71875 16.40625 61.71875 36.90625 
Q 61.71875 57.421875 61.328125 71.484375 
z
M 80.46875 78.515625 
L 89.0625 75 
L 85.9375 72.265625 
L 85.9375 11.328125 
Q 85.9375 3.515625 86.328125 -5.46875 
L 80.46875 -8.59375 
Q 80.859375 -1.171875 80.859375 7.8125 
L 80.859375 64.453125 
Q 80.859375 68.75 80.46875 78.515625 
z
M 14.84375 76.171875 
L 15.625 76.953125 
Q 23.4375 73.046875 25.96875 70.703125 
Q 28.515625 68.359375 28.125 65.625 
Q 27.734375 62.890625 26.5625 61.71875 
Q 25.390625 60.546875 24.609375 60.546875 
Q 23.4375 60.546875 22.265625 64.0625 
Q 20.703125 68.75 14.84375 76.171875 
z
M 25.390625 10.9375 
L 37.5 23.828125 
L 38.28125 23.046875 
Q 27.34375 8.203125 23.828125 0 
L 18.75 6.25 
Q 20.703125 8.203125 20.3125 11.328125 
L 20.3125 44.53125 
L 16.015625 44.53125 
Q 12.890625 44.53125 8.59375 43.359375 
L 5.078125 46.875 
L 19.921875 46.875 
L 22.65625 50.78125 
L 28.515625 45.703125 
L 25.390625 43.359375 
z
M 43.359375 78.125 
L 52.34375 74.21875 
L 49.21875 71.09375 
Q 49.21875 48.828125 49.015625 35.9375 
Q 48.828125 23.046875 43.9375 11.71875 
Q 39.0625 0.390625 24.609375 -9.765625 
L 23.4375 -8.984375 
Q 35.9375 2.734375 39.84375 14.0625 
Q 43.75 25.390625 43.75 41.40625 
Q 43.75 57.421875 43.359375 78.125 
z
" id="SimSun-8bad"/>
     <path d="M 10.9375 49.609375 
L 27.734375 50.78125 
Q 30.46875 55.078125 33.203125 61.328125 
L 40.625 55.46875 
L 37.109375 54.296875 
Q 24.609375 39.0625 12.109375 25.78125 
Q 22.265625 26.953125 36.71875 29.6875 
L 37.109375 28.125 
Q 13.671875 21.875 10.15625 17.578125 
L 5.078125 25.78125 
Q 8.59375 26.953125 12.5 31.046875 
Q 16.40625 35.15625 26.171875 48.4375 
Q 21.484375 48.046875 16.984375 46.671875 
Q 12.5 45.3125 9.765625 42.578125 
L 5.078125 50.390625 
Q 8.59375 51.171875 13.859375 60.9375 
Q 19.140625 70.703125 22.265625 81.640625 
L 30.859375 76.5625 
L 26.5625 74.21875 
Q 19.140625 62.109375 10.9375 49.609375 
z
M 4.6875 5.859375 
Q 19.53125 9.765625 37.890625 15.625 
L 38.28125 14.0625 
Q 24.21875 7.8125 11.71875 1.171875 
L 9.375 -1.5625 
z
M 42.1875 35.15625 
Q 45.3125 39.84375 48.4375 48.046875 
Q 46.484375 48.046875 42.1875 46.875 
L 38.671875 50.390625 
L 49.21875 50.390625 
L 54.6875 64.453125 
L 48.828125 64.453125 
Q 43.75 64.453125 39.453125 63.28125 
L 35.9375 66.796875 
L 55.46875 66.796875 
Q 58.984375 78.125 59.375 82.03125 
L 67.578125 77.34375 
L 64.0625 75.390625 
Q 62.890625 72.65625 60.546875 66.796875 
L 80.078125 66.796875 
L 85.15625 71.875 
L 92.1875 64.453125 
L 59.765625 64.453125 
L 54.296875 50.390625 
L 66.40625 50.390625 
L 69.140625 53.90625 
L 75.390625 49.21875 
L 72.265625 46.875 
L 72.265625 32.8125 
L 82.8125 32.8125 
L 87.5 37.5 
L 94.53125 30.46875 
L 72.265625 30.46875 
L 72.265625 2.34375 
Q 72.65625 -7.03125 62.890625 -9.375 
Q 62.890625 -3.515625 51.5625 -0.78125 
L 51.5625 0.78125 
Q 60.9375 0 64.0625 0 
Q 67.1875 0 67.1875 4.296875 
L 67.1875 30.46875 
L 46.484375 30.46875 
L 43.75 27.734375 
L 38.671875 33.203125 
z
M 53.90625 16.015625 
Q 41.40625 0 29.6875 -7.8125 
L 28.515625 -6.640625 
Q 35.546875 0 40.625 7.03125 
Q 45.703125 14.0625 49.609375 23.046875 
L 57.421875 17.1875 
z
M 76.5625 21.484375 
Q 90.234375 12.890625 92.765625 9.953125 
Q 95.3125 7.03125 95.3125 4.296875 
Q 95.3125 1.953125 94.140625 -0.578125 
Q 92.96875 -3.125 92.1875 -3.125 
Q 91.015625 -3.125 89.0625 1.953125 
Q 86.328125 8.984375 75.78125 20.3125 
z
M 53.515625 48.046875 
Q 50.390625 41.015625 46.09375 32.8125 
L 67.1875 32.8125 
L 67.1875 48.046875 
z
" id="SimSun-7ec3"/>
     <path d="M 24.609375 62.109375 
L 24.609375 51.953125 
L 40.625 51.953125 
L 40.625 62.109375 
z
M 24.609375 49.609375 
L 24.609375 37.890625 
L 40.625 37.890625 
L 40.625 49.609375 
z
M 24.609375 35.546875 
L 24.609375 23.4375 
L 40.625 23.4375 
L 40.625 35.546875 
z
M 19.140625 64.453125 
Q 19.140625 74.21875 18.75 80.859375 
L 27.734375 75.78125 
L 24.609375 73.4375 
L 24.609375 64.453125 
L 40.625 64.453125 
Q 40.625 71.484375 40.234375 80.859375 
L 49.21875 76.171875 
L 46.09375 73.828125 
L 46.09375 64.453125 
L 47.265625 64.453125 
L 51.5625 68.75 
L 58.203125 62.109375 
L 46.09375 62.109375 
L 46.09375 23.4375 
L 46.484375 23.4375 
L 50.78125 27.734375 
L 57.421875 21.09375 
L 14.84375 21.09375 
L 9.375 20.3125 
L 6.25 23.4375 
L 19.140625 23.4375 
L 19.140625 62.109375 
L 15.625 62.109375 
L 10.15625 61.328125 
L 7.03125 64.453125 
z
M 24.21875 19.53125 
L 31.25 13.28125 
L 27.734375 12.109375 
Q 17.1875 -0.390625 5.859375 -7.421875 
L 5.078125 -6.25 
Q 10.9375 -0.78125 15.8125 5.46875 
Q 20.703125 11.71875 24.21875 19.53125 
z
M 37.109375 17.96875 
Q 46.484375 12.890625 48.046875 10.9375 
Q 49.609375 8.984375 49.609375 7.421875 
Q 49.609375 5.46875 48.4375 3.515625 
Q 47.265625 1.5625 46.484375 1.5625 
Q 45.3125 1.5625 44.140625 4.6875 
Q 42.1875 9.765625 36.328125 17.1875 
z
M 66.015625 71.09375 
L 66.015625 51.5625 
L 85.15625 51.5625 
L 85.15625 71.09375 
z
M 66.015625 49.21875 
Q 66.015625 38.28125 65.625 29.296875 
L 85.15625 29.296875 
L 85.15625 49.21875 
z
M 71.09375 0.78125 
Q 78.515625 -0.390625 81.828125 -0.578125 
Q 85.15625 -0.78125 85.15625 3.515625 
L 85.15625 26.953125 
L 65.625 26.953125 
Q 64.84375 13.28125 58.390625 4.6875 
Q 51.953125 -3.90625 42.1875 -9.765625 
L 41.40625 -8.59375 
Q 48.046875 -3.125 52.34375 3.3125 
Q 56.640625 9.765625 58.59375 18.359375 
Q 60.546875 26.953125 60.546875 46.875 
Q 60.546875 66.796875 60.15625 76.953125 
L 66.015625 73.4375 
L 84.375 73.4375 
L 87.109375 77.34375 
L 93.359375 72.65625 
L 90.625 69.921875 
L 90.625 1.953125 
Q 91.015625 -5.859375 82.03125 -8.984375 
Q 82.03125 -3.90625 71.09375 -0.78125 
z
" id="SimSun-671f"/>
    </defs>
    <g transform="translate(325.436305 118.730006)scale(0.15 -0.15)">
     <use xlink:href="#SimSun-8bad"/>
     <use x="100" xlink:href="#SimSun-7ec3"/>
     <use x="200" xlink:href="#SimSun-671f"/>
    </g>
   </g>
   <g id="text_17">
    <!-- 预测期 -->
    <defs>
     <path d="M 7.421875 75.390625 
L 34.765625 75.390625 
L 37.890625 79.296875 
L 44.140625 73.046875 
Q 40.625 72.265625 37.296875 68.9375 
Q 33.984375 65.625 28.125 58.59375 
Q 32.03125 55.859375 31.828125 53.125 
Q 31.640625 50.390625 30.265625 49.21875 
Q 28.90625 48.046875 28.515625 48.046875 
Q 26.953125 48.046875 25.78125 51.5625 
Q 23.828125 56.25 16.40625 64.0625 
L 17.1875 64.84375 
Q 23.046875 62.109375 26.5625 59.765625 
L 34.765625 73.046875 
L 20.3125 73.046875 
Q 15.234375 73.046875 10.9375 71.875 
z
M 11.328125 1.5625 
Q 18.359375 0.78125 21.28125 0.578125 
Q 24.21875 0.390625 24.21875 4.296875 
L 24.21875 44.921875 
L 17.578125 44.921875 
Q 12.5 44.921875 8.203125 43.75 
L 4.6875 47.265625 
L 39.453125 47.265625 
L 42.578125 51.171875 
L 49.21875 44.921875 
Q 43.75 44.140625 35.546875 32.421875 
L 34.375 33.203125 
L 39.84375 44.921875 
L 29.296875 44.921875 
L 29.296875 2.34375 
Q 29.296875 -6.25 21.09375 -7.8125 
Q 20.703125 -2.734375 11.328125 0 
z
M 50.78125 12.109375 
Q 51.171875 22.265625 51.171875 35.734375 
Q 51.171875 49.21875 50.78125 60.9375 
L 56.25 57.8125 
L 63.28125 57.8125 
Q 65.234375 68.75 65.625 73.046875 
L 57.03125 73.046875 
Q 51.953125 73.046875 47.65625 71.875 
L 44.140625 75.390625 
L 83.203125 75.390625 
L 88.671875 80.46875 
L 95.703125 73.046875 
L 73.046875 73.046875 
Q 70.3125 69.140625 65.234375 57.8125 
L 82.8125 57.8125 
L 85.546875 62.109375 
L 91.796875 57.421875 
L 88.671875 54.296875 
L 88.671875 30.46875 
Q 88.671875 23.828125 89.0625 16.796875 
L 83.59375 13.671875 
L 83.59375 55.46875 
L 56.25 55.46875 
L 56.25 15.625 
z
M 75.78125 44.921875 
L 72.265625 41.796875 
Q 72.265625 23.046875 69.921875 14.640625 
Q 67.578125 6.25 60.9375 0.78125 
Q 54.296875 -4.6875 37.890625 -9.765625 
L 37.5 -8.59375 
Q 54.6875 -0.78125 59.953125 6.25 
Q 65.234375 13.28125 66.203125 24.796875 
Q 67.1875 36.328125 66.796875 49.609375 
z
M 72.65625 14.84375 
Q 89.453125 5.859375 91.796875 3.3125 
Q 94.140625 0.78125 94.140625 -1.953125 
Q 94.140625 -3.515625 93.15625 -6.046875 
Q 92.1875 -8.59375 91.40625 -8.59375 
Q 90.625 -8.59375 89.84375 -7.03125 
Q 87.890625 -3.90625 84.953125 0 
Q 82.03125 3.90625 71.875 13.671875 
z
" id="SimSun-9884"/>
     <path d="M 30.859375 15.625 
Q 31.25 23.046875 31.25 45.703125 
Q 31.25 68.359375 30.859375 78.125 
L 36.71875 74.609375 
L 55.859375 74.609375 
L 58.984375 77.734375 
L 64.0625 72.65625 
L 60.9375 70.3125 
L 60.9375 36.71875 
Q 60.9375 28.90625 61.328125 21.09375 
L 56.25 18.75 
L 56.25 72.265625 
L 36.328125 72.265625 
L 36.328125 17.96875 
z
M 43.359375 62.109375 
L 51.5625 57.8125 
L 48.828125 55.078125 
Q 49.21875 28.515625 44.921875 14.640625 
Q 40.625 0.78125 21.484375 -9.375 
L 20.703125 -7.8125 
Q 34.375 1.5625 38.671875 11.328125 
Q 42.96875 21.09375 43.359375 34.171875 
Q 43.75 47.265625 43.359375 62.109375 
z
M 48.4375 14.84375 
Q 59.765625 7.03125 61.515625 4.09375 
Q 63.28125 1.171875 63.28125 -0.390625 
Q 63.28125 -2.34375 62.109375 -4.09375 
Q 60.9375 -5.859375 60.15625 -5.859375 
Q 58.59375 -5.859375 57.03125 -1.171875 
Q 54.6875 5.859375 47.65625 13.671875 
z
M 69.921875 12.890625 
Q 70.3125 18.75 70.3125 26.5625 
L 70.3125 53.125 
Q 70.3125 61.71875 69.921875 67.1875 
L 78.515625 62.890625 
L 75.390625 59.765625 
L 75.390625 26.5625 
Q 75.390625 20.703125 75.78125 14.84375 
z
M 83.984375 2.34375 
L 83.984375 63.28125 
Q 83.984375 74.21875 83.59375 80.078125 
L 91.796875 76.171875 
L 89.0625 73.4375 
L 89.0625 1.171875 
Q 89.0625 -3.125 87.5 -5.46875 
Q 85.9375 -7.8125 81.25 -9.375 
Q 78.515625 -3.515625 69.53125 -0.78125 
L 69.53125 0.78125 
Q 80.078125 -0.78125 82.03125 -0.578125 
Q 83.984375 -0.390625 83.984375 2.34375 
z
M 28.90625 54.6875 
Q 21.484375 23.828125 20.3125 19.140625 
Q 18.75 14.0625 18.9375 7.03125 
Q 19.140625 0 19.53125 -2.734375 
Q 19.53125 -4.296875 17.578125 -4.296875 
Q 16.015625 -4.296875 13.671875 -3.515625 
Q 11.328125 -2.734375 11.328125 0 
Q 11.328125 1.953125 12.5 5.859375 
Q 13.671875 9.765625 13.671875 12.109375 
Q 13.671875 14.84375 11.90625 16.40625 
Q 10.15625 17.96875 4.296875 19.53125 
L 4.296875 21.09375 
Q 11.328125 20.3125 13.078125 20.5 
Q 14.84375 20.703125 16.984375 24.015625 
Q 19.140625 27.34375 27.34375 55.078125 
z
M 5.859375 58.984375 
Q 16.796875 52.34375 17.375 48.4375 
Q 17.96875 44.53125 16.40625 43.359375 
Q 14.84375 42.1875 14.0625 42.1875 
Q 12.5 42.1875 11.328125 46.484375 
Q 9.375 52.34375 5.078125 57.8125 
z
M 12.5 79.6875 
Q 23.046875 73.828125 24.21875 70.5 
Q 25.390625 67.1875 23.828125 65.421875 
Q 22.265625 63.671875 21.09375 63.671875 
Q 19.921875 63.671875 18.75 67.1875 
Q 16.796875 72.65625 11.71875 78.515625 
z
" id="SimSun-6d4b"/>
    </defs>
    <g transform="translate(718.256752 118.730006)scale(0.15 -0.15)">
     <use xlink:href="#SimSun-9884"/>
     <use x="100" xlink:href="#SimSun-6d4b"/>
     <use x="200" xlink:href="#SimSun-671f"/>
    </g>
   </g>
   <g id="legend_1">
    <g id="line2d_34">
     <path d="M 76.3 476.5095 
L 108.3 476.5095 
" style="fill:none;stroke:#000000;stroke-linecap:square;stroke-width:2.8;"/>
    </g>
    <g id="line2d_35"/>
    <g id="text_18">
     <!-- 真实值 -->
     <defs>
      <path d="M 32.03125 53.90625 
L 32.03125 45.3125 
L 67.1875 45.3125 
L 67.1875 53.90625 
z
M 32.03125 42.96875 
L 32.03125 34.765625 
L 67.1875 34.765625 
L 67.1875 42.96875 
z
M 32.03125 32.421875 
L 32.03125 24.21875 
L 67.1875 24.21875 
L 67.1875 32.421875 
z
M 32.03125 21.875 
L 32.03125 13.671875 
L 67.1875 13.671875 
L 67.1875 21.875 
z
M 44.921875 56.25 
L 45.703125 67.578125 
L 23.828125 67.578125 
Q 18.75 67.578125 14.453125 66.40625 
L 10.9375 69.921875 
L 46.09375 69.921875 
Q 46.484375 75.390625 46.484375 82.421875 
L 55.46875 78.515625 
L 52.734375 76.953125 
L 51.5625 69.921875 
L 78.125 69.921875 
L 83.203125 75.390625 
L 90.234375 67.578125 
L 51.171875 67.578125 
L 50 56.25 
L 66.796875 56.25 
L 69.53125 60.546875 
L 75.78125 55.859375 
L 72.65625 52.734375 
L 72.65625 13.671875 
L 82.8125 13.671875 
L 88.671875 19.140625 
L 95.703125 11.328125 
L 17.96875 11.328125 
Q 12.890625 11.328125 8.59375 10.15625 
L 5.078125 13.671875 
L 26.5625 13.671875 
Q 26.5625 50 26.171875 58.984375 
L 32.03125 56.25 
z
M 37.890625 11.328125 
L 44.140625 5.46875 
L 40.234375 4.6875 
Q 23.4375 -6.640625 12.5 -10.15625 
L 12.109375 -8.984375 
Q 30.46875 1.953125 37.890625 11.328125 
z
M 59.375 10.9375 
Q 71.484375 5.859375 77.53125 3.125 
Q 83.59375 0.390625 84.375 -1.75 
Q 85.15625 -3.90625 85.15625 -5.078125 
Q 85.15625 -6.25 84.375 -8.203125 
Q 83.59375 -10.15625 83.203125 -10.15625 
Q 82.03125 -10.15625 79.6875 -7.03125 
Q 76.171875 -2.34375 58.59375 9.765625 
z
" id="SimSun-771f"/>
      <path d="M 30.46875 56.640625 
Q 40.234375 53.125 42.1875 50.78125 
Q 44.140625 48.4375 44.140625 46.484375 
Q 44.140625 44.53125 42.96875 42.1875 
Q 41.796875 39.84375 41.015625 39.84375 
Q 39.84375 39.84375 38.28125 43.75 
Q 35.546875 49.609375 29.6875 55.46875 
z
M 55.859375 20.703125 
Q 54.6875 17.1875 53.515625 14.453125 
Q 72.65625 8.59375 79.484375 5.078125 
Q 86.328125 1.5625 86.125 -3.515625 
Q 85.9375 -8.59375 84.375 -8.59375 
Q 82.8125 -8.59375 79.296875 -4.6875 
Q 72.265625 2.734375 52.734375 12.5 
Q 47.265625 2.734375 35.9375 -2.34375 
Q 24.609375 -7.421875 6.640625 -9.765625 
L 6.640625 -8.203125 
Q 23.046875 -5.078125 34.375 1.5625 
Q 45.703125 8.203125 50 20.703125 
L 19.140625 20.703125 
Q 14.0625 20.703125 9.765625 19.53125 
L 6.25 23.046875 
L 50.390625 23.046875 
Q 51.953125 30.46875 52.734375 40.234375 
Q 53.515625 50 53.515625 57.8125 
L 63.28125 53.125 
L 60.15625 50.390625 
Q 58.59375 35.9375 56.640625 23.046875 
L 80.859375 23.046875 
L 86.71875 28.90625 
L 94.921875 20.703125 
z
M 19.921875 42.1875 
Q 30.859375 37.890625 32.8125 35.34375 
Q 34.765625 32.8125 34.765625 30.859375 
Q 34.765625 28.90625 33.59375 26.5625 
Q 32.421875 24.21875 31.640625 24.21875 
Q 30.46875 24.21875 28.90625 28.125 
Q 26.171875 33.984375 19.140625 41.015625 
z
M 42.96875 81.640625 
L 44.140625 82.421875 
Q 50.390625 79.6875 53.515625 76.953125 
Q 56.640625 74.21875 56.640625 71.875 
Q 56.640625 69.53125 54.875 67.1875 
Q 53.125 64.84375 51.953125 64.84375 
Q 50.78125 64.84375 50 68.75 
Q 48.4375 74.609375 42.96875 81.640625 
z
M 77.734375 50.390625 
L 83.59375 61.328125 
L 18.359375 61.328125 
Q 19.140625 55.078125 17.578125 51.5625 
Q 16.015625 48.046875 12.296875 48.4375 
Q 8.59375 48.828125 8.59375 50 
Q 8.59375 51.5625 10.9375 54.296875 
Q 15.234375 59.765625 16.40625 68.359375 
L 17.96875 68.359375 
L 18.359375 63.671875 
L 82.8125 63.671875 
L 87.109375 67.96875 
L 94.53125 59.375 
Q 87.890625 59.765625 78.90625 49.609375 
z
" id="SimSun-5b9e"/>
      <path d="M 23.828125 10.15625 
Q 23.828125 -3.515625 24.21875 -8.203125 
L 18.359375 -10.15625 
Q 18.75 3.90625 18.75 8.59375 
L 18.75 47.265625 
Q 11.71875 35.9375 5.078125 28.90625 
L 3.90625 29.6875 
Q 11.328125 41.015625 17.1875 55.078125 
Q 23.046875 69.140625 26.171875 81.25 
L 34.375 76.171875 
L 30.46875 73.828125 
Q 24.21875 59.375 22.265625 54.296875 
L 26.953125 51.5625 
L 23.828125 49.21875 
z
M 44.921875 50.390625 
L 44.921875 38.671875 
L 75 38.671875 
L 75 50.390625 
z
M 44.921875 36.328125 
L 44.921875 24.609375 
L 75 24.609375 
L 75 36.328125 
z
M 44.921875 22.265625 
L 44.921875 10.546875 
L 75 10.546875 
L 75 22.265625 
z
M 44.921875 8.203125 
L 44.921875 -3.515625 
L 75 -3.515625 
L 75 8.203125 
z
M 55.46875 66.40625 
Q 55.859375 75.390625 55.46875 81.640625 
L 64.453125 77.34375 
L 61.328125 75 
L 60.9375 66.40625 
L 78.515625 66.40625 
L 83.59375 71.484375 
L 91.015625 64.0625 
L 60.9375 64.0625 
L 60.546875 52.734375 
L 74.21875 52.734375 
L 77.734375 56.640625 
L 83.59375 51.5625 
L 80.078125 49.21875 
L 80.078125 -3.515625 
L 83.59375 -3.515625 
L 88.671875 1.5625 
L 96.09375 -5.859375 
L 38.28125 -5.859375 
Q 33.203125 -5.859375 28.90625 -7.03125 
L 25.390625 -3.515625 
L 39.84375 -3.515625 
L 39.84375 39.84375 
Q 39.84375 44.53125 39.453125 55.859375 
L 44.921875 52.734375 
L 55.078125 52.734375 
L 55.46875 64.0625 
L 43.75 64.0625 
Q 38.671875 64.0625 34.375 62.890625 
L 30.859375 66.40625 
z
" id="SimSun-503c"/>
     </defs>
     <g transform="translate(121.1 482.1095)scale(0.16 -0.16)">
      <use xlink:href="#SimSun-771f"/>
      <use x="100" xlink:href="#SimSun-5b9e"/>
      <use x="200" xlink:href="#SimSun-503c"/>
     </g>
    </g>
    <g id="line2d_36">
     <path d="M 201.1 476.5095 
L 233.1 476.5095 
" style="fill:none;stroke:#000000;stroke-dasharray:17.92,4.48,2.8,4.48;stroke-dashoffset:0;stroke-width:2.8;"/>
    </g>
    <g id="line2d_37"/>
    <g id="text_19">
     <!-- 模型值 -->
     <defs>
      <path d="M 19.921875 -9.765625 
Q 20.3125 3.515625 20.3125 40.234375 
Q 14.84375 26.171875 4.296875 14.453125 
L 3.515625 15.234375 
Q 15.625 34.375 19.53125 56.640625 
L 10.546875 56.640625 
L 7.03125 55.859375 
L 3.90625 58.984375 
L 20.3125 58.984375 
Q 20.3125 76.5625 19.921875 82.03125 
L 29.296875 78.125 
L 25.390625 75.390625 
L 25.390625 58.984375 
L 29.6875 58.984375 
L 34.375 63.671875 
L 41.40625 56.640625 
L 25.390625 56.640625 
L 25.390625 46.875 
Q 34.375 42.578125 36.515625 40.03125 
Q 38.671875 37.5 38.671875 35.15625 
Q 38.671875 33.59375 37.6875 31.4375 
Q 36.71875 29.296875 35.9375 29.296875 
Q 34.765625 29.296875 33.203125 33.59375 
Q 30.46875 39.84375 25.390625 44.53125 
Q 25.390625 3.90625 25.78125 -7.421875 
z
M 69.921875 68.75 
Q 69.921875 75.390625 69.53125 82.421875 
L 78.515625 78.125 
L 75 75.390625 
L 75 68.75 
L 82.8125 68.75 
L 87.5 73.4375 
L 94.53125 66.40625 
L 75 66.40625 
Q 75 62.109375 75.390625 58.984375 
L 69.921875 57.03125 
L 69.921875 66.40625 
L 56.640625 66.40625 
L 56.640625 58.984375 
L 51.171875 56.25 
Q 51.5625 60.9375 51.5625 66.40625 
L 41.796875 66.40625 
L 38.28125 65.625 
L 35.15625 68.75 
L 51.5625 68.75 
Q 51.5625 74.21875 51.171875 82.03125 
L 59.765625 78.125 
L 56.640625 75.78125 
L 56.640625 68.75 
z
M 44.140625 23.4375 
Q 44.53125 33.984375 44.53125 41.015625 
Q 44.53125 48.046875 44.140625 57.421875 
L 49.609375 54.296875 
L 78.125 54.296875 
L 81.25 57.8125 
L 86.71875 53.125 
L 83.59375 50.78125 
Q 83.59375 30.859375 83.984375 26.5625 
L 78.515625 24.21875 
L 78.515625 28.90625 
L 64.84375 28.90625 
Q 64.453125 23.828125 63.671875 17.578125 
L 83.203125 17.578125 
L 88.28125 22.65625 
L 95.703125 15.234375 
L 66.796875 15.234375 
Q 71.09375 8.59375 77.921875 3.703125 
Q 84.765625 -1.171875 95.3125 -1.953125 
L 95.3125 -3.515625 
Q 90.234375 -4.296875 87.890625 -8.59375 
Q 72.65625 -2.734375 64.84375 15.234375 
L 63.28125 15.234375 
Q 57.03125 -6.640625 29.296875 -10.15625 
L 28.90625 -8.984375 
Q 41.796875 -5.859375 48.4375 0.578125 
Q 55.078125 7.03125 57.8125 15.234375 
L 44.53125 15.234375 
Q 39.453125 15.234375 35.15625 14.0625 
L 31.640625 17.578125 
L 58.203125 17.578125 
Q 58.984375 21.484375 59.375 28.90625 
L 49.609375 28.90625 
L 49.609375 25.78125 
z
M 49.609375 51.953125 
L 49.609375 42.96875 
L 78.515625 42.96875 
L 78.515625 51.953125 
z
M 49.609375 40.625 
L 49.609375 31.25 
L 78.515625 31.25 
L 78.515625 40.625 
z
" id="SimSun-6a21"/>
      <path d="M 40.234375 26.171875 
Q 40.625 35.15625 40.625 40.625 
L 40.625 53.125 
L 29.296875 53.125 
Q 28.515625 32.421875 7.8125 21.09375 
L 7.03125 22.265625 
Q 23.046875 34.375 24.21875 53.125 
L 20.3125 53.125 
Q 15.234375 53.125 10.9375 51.953125 
L 7.421875 55.46875 
L 24.21875 55.46875 
L 24.21875 71.875 
L 19.140625 71.875 
L 14.453125 71.09375 
L 11.328125 74.21875 
L 46.875 74.21875 
L 51.5625 78.90625 
L 58.59375 71.875 
L 45.703125 71.875 
L 45.703125 55.46875 
L 50 55.46875 
L 55.078125 60.546875 
L 62.5 53.125 
L 45.703125 53.125 
L 45.703125 40.625 
Q 45.703125 32.8125 46.09375 29.296875 
z
M 29.296875 71.875 
L 29.296875 55.46875 
L 40.625 55.46875 
L 40.625 71.875 
z
M 65.234375 39.453125 
Q 65.625 48.4375 65.625 57.03125 
Q 65.625 65.625 65.234375 71.875 
L 73.4375 68.75 
L 70.703125 66.015625 
L 70.703125 41.40625 
z
M 81.25 81.640625 
L 89.453125 77.734375 
L 86.71875 75 
L 86.71875 34.765625 
Q 87.5 27.34375 78.515625 23.828125 
Q 78.125 28.515625 66.40625 31.25 
L 66.40625 33.203125 
Q 76.5625 32.03125 79.09375 32.21875 
Q 81.640625 32.421875 81.640625 37.109375 
L 81.640625 69.53125 
Q 81.640625 74.609375 81.25 81.640625 
z
M 47.265625 16.015625 
Q 47.265625 21.875 46.875 28.90625 
L 56.25 25 
L 52.734375 22.265625 
L 52.734375 16.015625 
L 71.09375 16.015625 
L 76.5625 21.484375 
L 84.375 13.671875 
L 52.734375 13.671875 
L 52.734375 -2.34375 
L 78.515625 -2.34375 
L 84.765625 3.90625 
L 93.359375 -4.6875 
L 19.921875 -4.6875 
Q 14.84375 -4.6875 10.546875 -5.859375 
L 7.03125 -2.34375 
L 47.265625 -2.34375 
L 47.265625 13.671875 
L 31.25 13.671875 
Q 26.171875 13.671875 21.875 12.5 
L 18.359375 16.015625 
z
" id="SimSun-578b"/>
     </defs>
     <g transform="translate(245.9 482.1095)scale(0.16 -0.16)">
      <use xlink:href="#SimSun-6a21"/>
      <use x="100" xlink:href="#SimSun-578b"/>
      <use x="200" xlink:href="#SimSun-503c"/>
     </g>
    </g>
   </g>
  </g>
 </g>
 <defs>
  <clipPath id="p0f90cdf5d2">
   <rect height="487.872" width="714.24" x="61.9" y="10.7"/>
  </clipPath>
 </defs>
</svg>
