<?xml version="1.0" encoding="utf-8" standalone="no"?>
<!DOCTYPE svg PUBLIC "-//W3C//DTD SVG 1.1//EN"
  "http://www.w3.org/Graphics/SVG/1.1/DTD/svg11.dtd">
<!-- Created with matplotlib (http://matplotlib.org/) -->
<svg height="711.38pt" version="1.1" viewBox="0 0 1097.0875 711.38" width="1097.0875pt" xmlns="http://www.w3.org/2000/svg" xmlns:xlink="http://www.w3.org/1999/xlink">
 <defs>
  <style type="text/css">
*{stroke-linecap:butt;stroke-linejoin:round;}
  </style>
 </defs>
 <g id="figure_1">
  <g id="patch_1">
   <path d="M 0 711.38 
L 1097.0875 711.38 
L 1097.0875 0 
L 0 0 
z
" style="fill:#ffffff;"/>
  </g>
  <g id="axes_1">
   <g id="patch_2">
    <path d="M 81.9875 206.370588 
L 1086.3875 206.370588 
L 1086.3875 10.7 
L 81.9875 10.7 
z
" style="fill:#ffffff;"/>
   </g>
   <g id="matplotlib.axis_1">
    <g id="xtick_1">
     <g id="line2d_1">
      <defs>
       <path d="M 0 0 
L 0 3.5 
" id="md0e73de84c" style="stroke:#000000;stroke-width:1.6;"/>
      </defs>
      <g>
       <use style="stroke:#000000;stroke-width:1.6;" x="207.798881" xlink:href="#md0e73de84c" y="206.370588"/>
      </g>
     </g>
     <g id="text_1">
      <!-- 1959 -->
      <defs>
       <path d="M 28.515625 69.53125 
L 28.515625 10.15625 
Q 28.515625 7.03125 30.46875 5.46875 
Q 32.421875 3.90625 35.9375 3.90625 
L 39.84375 3.90625 
L 39.84375 1.5625 
L 11.328125 1.5625 
L 11.328125 3.90625 
L 14.84375 3.90625 
Q 18.75 3.90625 20.5 5.46875 
Q 22.265625 7.03125 22.265625 10.15625 
L 22.265625 57.421875 
Q 22.265625 58.984375 21.28125 59.953125 
Q 20.3125 60.9375 18.359375 60.9375 
L 11.328125 60.9375 
L 11.328125 63.28125 
L 14.84375 63.28125 
Q 19.53125 63.28125 22.453125 64.84375 
Q 25.390625 66.40625 26.953125 69.53125 
z
" id="SimSun-31"/>
       <path d="M 10.9375 47.65625 
Q 10.9375 39.0625 14.25 34.5625 
Q 17.578125 30.078125 22.65625 30.078125 
Q 28.515625 30.078125 32.8125 35.546875 
Q 37.109375 41.015625 37.109375 45.703125 
Q 37.109375 55.078125 33.984375 60.734375 
Q 30.859375 66.40625 23.828125 66.40625 
Q 17.1875 66.40625 14.0625 61.125 
Q 10.9375 55.859375 10.9375 47.65625 
z
M 21.484375 26.5625 
Q 13.671875 26.5625 8.984375 31.4375 
Q 4.296875 36.328125 4.296875 47.265625 
Q 4.296875 56.640625 9.375 62.890625 
Q 14.453125 69.140625 23.828125 69.140625 
Q 33.59375 69.140625 39.0625 61.328125 
Q 44.53125 53.515625 44.53125 38.671875 
Q 44.53125 22.265625 38.078125 11.515625 
Q 31.640625 0.78125 20.3125 0.78125 
Q 15.234375 0.78125 11.515625 3.125 
Q 7.8125 5.46875 7.8125 9.375 
Q 7.8125 10.9375 8.78125 12.5 
Q 9.765625 14.0625 12.109375 14.0625 
Q 14.453125 14.0625 15.234375 12.296875 
Q 16.015625 10.546875 16.015625 8.203125 
Q 16.015625 6.640625 16.40625 5.65625 
Q 16.796875 4.6875 17.1875 4.296875 
Q 17.578125 3.90625 18.546875 3.703125 
Q 19.53125 3.515625 20.703125 3.515625 
Q 27.734375 3.515625 32.03125 11.328125 
Q 36.328125 19.140625 37.109375 37.5 
Q 35.15625 32.8125 31.25 29.6875 
Q 27.34375 26.5625 21.484375 26.5625 
z
" id="SimSun-39"/>
       <path d="M 26.953125 44.53125 
Q 34.375 44.53125 39.0625 38.859375 
Q 43.75 33.203125 43.75 23.828125 
Q 43.75 13.28125 38.859375 7.03125 
Q 33.984375 0.78125 23.828125 0.78125 
Q 16.796875 0.78125 11.328125 4.875 
Q 5.859375 8.984375 5.859375 14.84375 
Q 5.859375 17.1875 7.21875 18.9375 
Q 8.59375 20.703125 10.9375 20.703125 
Q 13.28125 20.703125 14.0625 19.140625 
Q 14.84375 17.578125 14.84375 16.40625 
Q 14.84375 14.0625 13.671875 12.890625 
Q 12.5 11.328125 12.5 9.765625 
Q 12.5 6.640625 16.203125 5.078125 
Q 19.921875 3.515625 24.21875 3.515625 
Q 30.46875 3.515625 33.78125 8.59375 
Q 37.109375 13.671875 37.109375 23.046875 
Q 37.109375 30.859375 34.171875 35.734375 
Q 31.25 40.625 25.390625 40.625 
Q 21.09375 40.625 17.96875 39.0625 
Q 14.84375 37.5 12.109375 32.421875 
L 8.59375 32.8125 
L 10.546875 68.359375 
L 42.578125 68.359375 
L 41.40625 62.5 
L 13.28125 62.5 
L 11.71875 36.71875 
Q 15.625 42.1875 19.328125 43.359375 
Q 23.046875 44.53125 26.953125 44.53125 
z
" id="SimSun-35"/>
      </defs>
      <g transform="translate(191.798881 232.508088)scale(0.16 -0.16)">
       <use xlink:href="#SimSun-31"/>
       <use x="50" xlink:href="#SimSun-39"/>
       <use x="100" xlink:href="#SimSun-35"/>
       <use x="150" xlink:href="#SimSun-39"/>
      </g>
     </g>
    </g>
    <g id="xtick_2">
     <g id="line2d_2">
      <g>
       <use style="stroke:#000000;stroke-width:1.6;" x="347.202073" xlink:href="#md0e73de84c" y="206.370588"/>
      </g>
     </g>
     <g id="text_2">
      <!-- 1969 -->
      <defs>
       <path d="M 12.109375 28.125 
Q 12.109375 16.40625 16.203125 9.953125 
Q 20.3125 3.515625 26.171875 3.515625 
Q 32.03125 3.515625 35.15625 7.8125 
Q 38.28125 12.109375 38.28125 23.828125 
Q 38.28125 31.640625 34.953125 35.9375 
Q 31.640625 40.234375 26.953125 40.234375 
Q 22.65625 40.234375 18.9375 37.6875 
Q 15.234375 35.15625 12.109375 28.125 
z
M 27.34375 44.140625 
Q 36.71875 44.140625 40.8125 37.890625 
Q 44.921875 31.640625 44.921875 23.828125 
Q 44.921875 12.109375 39.25 6.4375 
Q 33.59375 0.78125 26.171875 0.78125 
Q 15.625 0.78125 10.15625 8.78125 
Q 4.6875 16.796875 4.6875 32.03125 
Q 4.6875 50 11.328125 59.5625 
Q 17.96875 69.140625 29.296875 69.140625 
Q 34.765625 69.140625 38.078125 66.015625 
Q 41.40625 62.890625 41.40625 60.546875 
Q 41.40625 58.203125 40.421875 57.03125 
Q 39.453125 55.859375 37.109375 55.859375 
Q 35.15625 55.859375 34.171875 56.828125 
Q 33.203125 57.8125 33.203125 59.765625 
Q 33.203125 60.546875 33.59375 61.328125 
Q 33.59375 62.109375 33.59375 62.890625 
Q 33.59375 64.453125 32.421875 65.421875 
Q 31.25 66.40625 28.125 66.40625 
Q 21.484375 66.40625 16.796875 60.34375 
Q 12.109375 54.296875 12.109375 33.984375 
Q 14.453125 39.0625 18.546875 41.59375 
Q 22.65625 44.140625 27.34375 44.140625 
z
" id="SimSun-36"/>
      </defs>
      <g transform="translate(331.202073 232.508088)scale(0.16 -0.16)">
       <use xlink:href="#SimSun-31"/>
       <use x="50" xlink:href="#SimSun-39"/>
       <use x="100" xlink:href="#SimSun-36"/>
       <use x="150" xlink:href="#SimSun-39"/>
      </g>
     </g>
    </g>
    <g id="xtick_3">
     <g id="line2d_3">
      <g>
       <use style="stroke:#000000;stroke-width:1.6;" x="486.605265" xlink:href="#md0e73de84c" y="206.370588"/>
      </g>
     </g>
     <g id="text_3">
      <!-- 1979 -->
      <defs>
       <path d="M 44.140625 65.625 
Q 35.9375 52.34375 31.046875 39.640625 
Q 26.171875 26.953125 26.171875 17.578125 
Q 26.171875 16.015625 26.5625 13.28125 
Q 26.5625 10.15625 26.5625 6.25 
Q 26.5625 3.125 25.578125 1.953125 
Q 24.609375 0.78125 22.265625 0.78125 
Q 20.3125 0.78125 18.9375 2.140625 
Q 17.578125 3.515625 17.578125 7.03125 
Q 17.578125 14.453125 20.890625 25.390625 
Q 24.21875 36.328125 38.671875 62.5 
L 19.140625 62.5 
Q 14.84375 62.5 12.296875 59.765625 
Q 9.765625 57.03125 8.59375 51.5625 
L 6.25 51.953125 
L 8.984375 68.359375 
L 44.140625 68.359375 
z
" id="SimSun-37"/>
      </defs>
      <g transform="translate(470.605265 232.508088)scale(0.16 -0.16)">
       <use xlink:href="#SimSun-31"/>
       <use x="50" xlink:href="#SimSun-39"/>
       <use x="100" xlink:href="#SimSun-37"/>
       <use x="150" xlink:href="#SimSun-39"/>
      </g>
     </g>
    </g>
    <g id="xtick_4">
     <g id="line2d_4">
      <g>
       <use style="stroke:#000000;stroke-width:1.6;" x="626.008458" xlink:href="#md0e73de84c" y="206.370588"/>
      </g>
     </g>
     <g id="text_4">
      <!-- 1989 -->
      <defs>
       <path d="M 9.765625 17.578125 
Q 9.765625 11.328125 13.859375 7.421875 
Q 17.96875 3.515625 24.21875 3.515625 
Q 31.640625 3.515625 34.953125 7.421875 
Q 38.28125 11.328125 38.28125 17.1875 
Q 38.28125 22.265625 33.59375 26.953125 
Q 28.90625 31.640625 19.53125 35.546875 
Q 14.84375 32.421875 12.296875 27.734375 
Q 9.765625 23.046875 9.765625 17.578125 
z
M 44.140625 18.359375 
Q 44.140625 10.9375 38.671875 5.859375 
Q 33.203125 0.78125 24.21875 0.78125 
Q 16.015625 0.78125 10.15625 5.859375 
Q 4.296875 10.9375 4.296875 17.578125 
Q 4.296875 24.21875 7.609375 28.90625 
Q 10.9375 33.59375 17.1875 37.109375 
Q 11.71875 39.84375 8.78125 43.9375 
Q 5.859375 48.046875 5.859375 53.125 
Q 5.859375 59.765625 10.9375 64.453125 
Q 16.015625 69.140625 25 69.140625 
Q 33.203125 69.140625 38.28125 64.453125 
Q 43.359375 59.765625 43.359375 53.125 
Q 43.359375 48.4375 40.421875 44.328125 
Q 37.5 40.234375 31.25 37.109375 
Q 37.890625 33.203125 41.015625 28.515625 
Q 44.140625 23.828125 44.140625 18.359375 
z
M 37.890625 52.734375 
Q 37.890625 58.203125 34.765625 62.296875 
Q 31.640625 66.40625 25 66.40625 
Q 17.578125 66.40625 14.453125 62.5 
Q 11.328125 58.59375 11.328125 54.296875 
Q 11.328125 50 15.8125 45.890625 
Q 20.3125 41.796875 28.515625 38.671875 
Q 33.203125 41.015625 35.546875 44.53125 
Q 37.890625 48.046875 37.890625 52.734375 
z
" id="SimSun-38"/>
      </defs>
      <g transform="translate(610.008458 232.508088)scale(0.16 -0.16)">
       <use xlink:href="#SimSun-31"/>
       <use x="50" xlink:href="#SimSun-39"/>
       <use x="100" xlink:href="#SimSun-38"/>
       <use x="150" xlink:href="#SimSun-39"/>
      </g>
     </g>
    </g>
    <g id="xtick_5">
     <g id="line2d_5">
      <g>
       <use style="stroke:#000000;stroke-width:1.6;" x="765.41165" xlink:href="#md0e73de84c" y="206.370588"/>
      </g>
     </g>
     <g id="text_5">
      <!-- 1999 -->
      <g transform="translate(749.41165 232.508088)scale(0.16 -0.16)">
       <use xlink:href="#SimSun-31"/>
       <use x="50" xlink:href="#SimSun-39"/>
       <use x="100" xlink:href="#SimSun-39"/>
       <use x="150" xlink:href="#SimSun-39"/>
      </g>
     </g>
    </g>
    <g id="xtick_6">
     <g id="line2d_6">
      <g>
       <use style="stroke:#000000;stroke-width:1.6;" x="904.814842" xlink:href="#md0e73de84c" y="206.370588"/>
      </g>
     </g>
     <g id="text_6">
      <!-- 2009 -->
      <defs>
       <path d="M 36.328125 51.953125 
Q 36.328125 58.984375 33.203125 62.6875 
Q 30.078125 66.40625 23.828125 66.40625 
Q 19.140625 66.40625 15.8125 63.859375 
Q 12.5 61.328125 12.5 57.421875 
Q 12.5 55.078125 14.0625 53.515625 
Q 15.234375 51.953125 15.234375 50.390625 
Q 15.234375 48.4375 14.25 47.453125 
Q 13.28125 46.484375 11.328125 46.484375 
Q 8.984375 46.484375 7.609375 47.84375 
Q 6.25 49.21875 6.25 52.34375 
Q 6.25 60.546875 12.109375 64.84375 
Q 17.96875 69.140625 24.609375 69.140625 
Q 33.984375 69.140625 38.46875 64.453125 
Q 42.96875 59.765625 42.96875 52.734375 
Q 42.96875 48.046875 40.8125 43.359375 
Q 38.671875 38.671875 33.984375 34.375 
Q 22.65625 23.4375 16.59375 16.59375 
Q 10.546875 9.765625 9.375 7.421875 
L 32.421875 7.421875 
Q 35.9375 7.421875 38.28125 10.15625 
Q 40.625 12.890625 41.40625 18.359375 
L 43.75 18.359375 
L 41.40625 1.5625 
L 5.078125 1.5625 
L 5.078125 6.640625 
Q 7.03125 10.15625 11.515625 15.625 
Q 16.015625 21.09375 23.4375 28.515625 
Q 30.078125 35.15625 33.203125 41.015625 
Q 36.328125 46.875 36.328125 51.953125 
z
" id="SimSun-32"/>
       <path d="M 25 66.015625 
Q 19.53125 66.015625 15.8125 57.609375 
Q 12.109375 49.21875 12.109375 35.15625 
Q 12.109375 20.3125 15.8125 12.109375 
Q 19.53125 3.90625 25 3.90625 
Q 30.859375 3.90625 34.171875 12.109375 
Q 37.5 20.3125 37.5 35.15625 
Q 37.5 49.21875 34.375 57.609375 
Q 31.25 66.015625 25 66.015625 
z
M 25 0.78125 
Q 16.40625 0.78125 10.546875 9.765625 
Q 4.6875 18.75 4.6875 35.15625 
Q 4.6875 50.390625 10.34375 59.765625 
Q 16.015625 69.140625 25 69.140625 
Q 33.59375 69.140625 39.25 60.15625 
Q 44.921875 51.171875 44.921875 35.15625 
Q 44.921875 19.140625 39.25 9.953125 
Q 33.59375 0.78125 25 0.78125 
z
" id="SimSun-30"/>
      </defs>
      <g transform="translate(888.814842 232.508088)scale(0.16 -0.16)">
       <use xlink:href="#SimSun-32"/>
       <use x="50" xlink:href="#SimSun-30"/>
       <use x="100" xlink:href="#SimSun-30"/>
       <use x="150" xlink:href="#SimSun-39"/>
      </g>
     </g>
    </g>
    <g id="xtick_7">
     <g id="line2d_7">
      <g>
       <use style="stroke:#000000;stroke-width:1.6;" x="1044.218034" xlink:href="#md0e73de84c" y="206.370588"/>
      </g>
     </g>
     <g id="text_7">
      <!-- 2019 -->
      <g transform="translate(1028.218034 232.508088)scale(0.16 -0.16)">
       <use xlink:href="#SimSun-32"/>
       <use x="50" xlink:href="#SimSun-30"/>
       <use x="100" xlink:href="#SimSun-31"/>
       <use x="150" xlink:href="#SimSun-39"/>
      </g>
     </g>
    </g>
    <g id="xtick_8">
     <g id="line2d_8">
      <defs>
       <path d="M 0 0 
L 0 2 
" id="ma6940d5905" style="stroke:#000000;stroke-width:0.8;"/>
      </defs>
      <g>
       <use style="stroke:#000000;stroke-width:0.8;" x="138.097285" xlink:href="#ma6940d5905" y="206.370588"/>
      </g>
     </g>
    </g>
    <g id="xtick_9">
     <g id="line2d_9">
      <g>
       <use style="stroke:#000000;stroke-width:0.8;" x="207.798881" xlink:href="#ma6940d5905" y="206.370588"/>
      </g>
     </g>
    </g>
    <g id="xtick_10">
     <g id="line2d_10">
      <g>
       <use style="stroke:#000000;stroke-width:0.8;" x="277.500477" xlink:href="#ma6940d5905" y="206.370588"/>
      </g>
     </g>
    </g>
    <g id="xtick_11">
     <g id="line2d_11">
      <g>
       <use style="stroke:#000000;stroke-width:0.8;" x="347.202073" xlink:href="#ma6940d5905" y="206.370588"/>
      </g>
     </g>
    </g>
    <g id="xtick_12">
     <g id="line2d_12">
      <g>
       <use style="stroke:#000000;stroke-width:0.8;" x="416.903669" xlink:href="#ma6940d5905" y="206.370588"/>
      </g>
     </g>
    </g>
    <g id="xtick_13">
     <g id="line2d_13">
      <g>
       <use style="stroke:#000000;stroke-width:0.8;" x="486.605265" xlink:href="#ma6940d5905" y="206.370588"/>
      </g>
     </g>
    </g>
    <g id="xtick_14">
     <g id="line2d_14">
      <g>
       <use style="stroke:#000000;stroke-width:0.8;" x="556.306862" xlink:href="#ma6940d5905" y="206.370588"/>
      </g>
     </g>
    </g>
    <g id="xtick_15">
     <g id="line2d_15">
      <g>
       <use style="stroke:#000000;stroke-width:0.8;" x="626.008458" xlink:href="#ma6940d5905" y="206.370588"/>
      </g>
     </g>
    </g>
    <g id="xtick_16">
     <g id="line2d_16">
      <g>
       <use style="stroke:#000000;stroke-width:0.8;" x="695.710054" xlink:href="#ma6940d5905" y="206.370588"/>
      </g>
     </g>
    </g>
    <g id="xtick_17">
     <g id="line2d_17">
      <g>
       <use style="stroke:#000000;stroke-width:0.8;" x="765.41165" xlink:href="#ma6940d5905" y="206.370588"/>
      </g>
     </g>
    </g>
    <g id="xtick_18">
     <g id="line2d_18">
      <g>
       <use style="stroke:#000000;stroke-width:0.8;" x="835.113246" xlink:href="#ma6940d5905" y="206.370588"/>
      </g>
     </g>
    </g>
    <g id="xtick_19">
     <g id="line2d_19">
      <g>
       <use style="stroke:#000000;stroke-width:0.8;" x="904.814842" xlink:href="#ma6940d5905" y="206.370588"/>
      </g>
     </g>
    </g>
    <g id="xtick_20">
     <g id="line2d_20">
      <g>
       <use style="stroke:#000000;stroke-width:0.8;" x="974.516438" xlink:href="#ma6940d5905" y="206.370588"/>
      </g>
     </g>
    </g>
    <g id="xtick_21">
     <g id="line2d_21">
      <g>
       <use style="stroke:#000000;stroke-width:0.8;" x="1044.218034" xlink:href="#ma6940d5905" y="206.370588"/>
      </g>
     </g>
    </g>
   </g>
   <g id="matplotlib.axis_2">
    <g id="ytick_1">
     <g id="line2d_22">
      <defs>
       <path d="M 0 0 
L -3.5 0 
" id="m72bc4ecc2b" style="stroke:#000000;stroke-width:1.6;"/>
      </defs>
      <g>
       <use style="stroke:#000000;stroke-width:1.6;" x="81.9875" xlink:href="#m72bc4ecc2b" y="200.462743"/>
      </g>
     </g>
     <g id="text_8">
      <!-- 2% -->
      <defs>
       <path d="M 11.71875 66.40625 
Q 9.375 66.40625 7.8125 63.28125 
Q 6.25 60.15625 6.25 51.5625 
Q 6.25 41.796875 8 38.859375 
Q 9.765625 35.9375 11.71875 35.9375 
Q 14.453125 35.9375 15.8125 39.453125 
Q 17.1875 42.96875 17.1875 51.5625 
Q 17.1875 58.59375 16.203125 62.5 
Q 15.234375 66.40625 11.71875 66.40625 
z
M 22.265625 51.171875 
Q 22.265625 44.140625 19.921875 38.859375 
Q 17.578125 33.59375 11.71875 33.59375 
Q 7.03125 33.59375 4.09375 38.28125 
Q 1.171875 42.96875 1.171875 51.171875 
Q 1.171875 59.765625 4.296875 64.453125 
Q 7.421875 69.140625 11.71875 69.140625 
Q 16.40625 69.140625 19.328125 64.25 
Q 22.265625 59.375 22.265625 51.171875 
z
M 42.578125 18.75 
Q 42.578125 25.390625 41.40625 29.6875 
Q 40.234375 33.984375 37.109375 33.984375 
Q 34.765625 33.984375 33.203125 30.265625 
Q 31.640625 26.5625 31.640625 18.75 
Q 31.640625 8.984375 33.390625 6.25 
Q 35.15625 3.515625 37.109375 3.515625 
Q 39.84375 3.515625 41.203125 6.828125 
Q 42.578125 10.15625 42.578125 18.75 
z
M 47.65625 18.359375 
Q 47.65625 10.546875 44.921875 5.65625 
Q 42.1875 0.78125 37.109375 0.78125 
Q 32.8125 0.78125 29.6875 5.65625 
Q 26.5625 10.546875 26.5625 18.359375 
Q 26.5625 26.953125 29.6875 31.828125 
Q 32.8125 36.71875 37.109375 36.71875 
Q 41.796875 36.71875 44.71875 31.640625 
Q 47.65625 26.5625 47.65625 18.359375 
z
M 39.453125 67.96875 
L 11.328125 0.78125 
L 8.984375 1.953125 
L 36.71875 69.140625 
z
" id="SimSun-25"/>
      </defs>
      <g transform="translate(51.2875 206.181493)scale(0.16 -0.16)">
       <use xlink:href="#SimSun-32"/>
       <use x="50" xlink:href="#SimSun-25"/>
      </g>
     </g>
    </g>
    <g id="ytick_2">
     <g id="line2d_23">
      <g>
       <use style="stroke:#000000;stroke-width:1.6;" x="81.9875" xlink:href="#m72bc4ecc2b" y="167.246569"/>
      </g>
     </g>
     <g id="text_9">
      <!-- 4% -->
      <defs>
       <path d="M 35.9375 8.984375 
Q 35.9375 6.25 37.5 5.078125 
Q 39.0625 3.90625 41.796875 3.90625 
L 45.3125 3.90625 
L 45.3125 1.5625 
L 19.53125 1.5625 
L 19.53125 3.90625 
L 23.828125 3.90625 
Q 26.953125 3.90625 28.3125 5.078125 
Q 29.6875 6.25 29.6875 8.984375 
L 29.6875 21.875 
L 3.515625 21.875 
L 3.515625 23.828125 
L 32.03125 69.140625 
L 35.9375 69.140625 
L 35.9375 24.21875 
L 46.484375 24.21875 
L 46.484375 21.875 
L 35.9375 21.875 
z
M 29.296875 59.375 
L 7.03125 24.21875 
L 29.6875 24.21875 
L 29.6875 59.375 
z
" id="SimSun-34"/>
      </defs>
      <g transform="translate(51.2875 172.965319)scale(0.16 -0.16)">
       <use xlink:href="#SimSun-34"/>
       <use x="50" xlink:href="#SimSun-25"/>
      </g>
     </g>
    </g>
    <g id="ytick_3">
     <g id="line2d_24">
      <g>
       <use style="stroke:#000000;stroke-width:1.6;" x="81.9875" xlink:href="#m72bc4ecc2b" y="134.030395"/>
      </g>
     </g>
     <g id="text_10">
      <!-- 6% -->
      <g transform="translate(51.2875 139.749145)scale(0.16 -0.16)">
       <use xlink:href="#SimSun-36"/>
       <use x="50" xlink:href="#SimSun-25"/>
      </g>
     </g>
    </g>
    <g id="ytick_4">
     <g id="line2d_25">
      <g>
       <use style="stroke:#000000;stroke-width:1.6;" x="81.9875" xlink:href="#m72bc4ecc2b" y="100.81422"/>
      </g>
     </g>
     <g id="text_11">
      <!-- 8% -->
      <g transform="translate(51.2875 106.53297)scale(0.16 -0.16)">
       <use xlink:href="#SimSun-38"/>
       <use x="50" xlink:href="#SimSun-25"/>
      </g>
     </g>
    </g>
    <g id="ytick_5">
     <g id="line2d_26">
      <g>
       <use style="stroke:#000000;stroke-width:1.6;" x="81.9875" xlink:href="#m72bc4ecc2b" y="67.598046"/>
      </g>
     </g>
     <g id="text_12">
      <!-- 10% -->
      <g transform="translate(43.2875 73.316796)scale(0.16 -0.16)">
       <use xlink:href="#SimSun-31"/>
       <use x="50" xlink:href="#SimSun-30"/>
       <use x="100" xlink:href="#SimSun-25"/>
      </g>
     </g>
    </g>
    <g id="ytick_6">
     <g id="line2d_27">
      <g>
       <use style="stroke:#000000;stroke-width:1.6;" x="81.9875" xlink:href="#m72bc4ecc2b" y="34.381872"/>
      </g>
     </g>
     <g id="text_13">
      <!-- 12% -->
      <g transform="translate(43.2875 40.100622)scale(0.16 -0.16)">
       <use xlink:href="#SimSun-31"/>
       <use x="50" xlink:href="#SimSun-32"/>
       <use x="100" xlink:href="#SimSun-25"/>
      </g>
     </g>
    </g>
    <g id="text_14">
     <!-- 趋势 -->
     <defs>
      <path d="M 60.9375 81.640625 
L 69.140625 76.5625 
L 66.015625 75.390625 
Q 62.5 69.921875 59.375 64.84375 
L 74.21875 64.84375 
L 77.734375 69.140625 
L 84.375 62.890625 
Q 79.6875 62.5 69.921875 48.046875 
L 83.59375 48.046875 
L 85.9375 51.953125 
L 92.1875 47.65625 
L 89.453125 44.921875 
Q 89.453125 16.40625 89.84375 8.203125 
L 84.375 5.859375 
L 84.375 12.5 
L 58.203125 12.5 
Q 55.078125 12.5 50.78125 11.328125 
L 47.265625 14.84375 
L 84.375 14.84375 
L 84.375 29.6875 
L 63.28125 29.6875 
Q 60.15625 29.6875 55.859375 28.515625 
L 52.34375 32.03125 
L 84.375 32.03125 
L 84.375 45.703125 
L 60.9375 45.703125 
Q 57.8125 45.703125 53.515625 44.53125 
L 50 48.046875 
L 67.96875 48.046875 
L 74.609375 62.5 
L 58.203125 62.5 
Q 53.90625 56.640625 46.875 50 
L 46.09375 50.78125 
Q 57.03125 66.40625 60.9375 81.640625 
z
M 4.6875 -8.59375 
L 3.515625 -7.8125 
Q 10.546875 4.296875 12.296875 17.375 
Q 14.0625 30.46875 13.28125 37.890625 
L 21.875 33.59375 
Q 19.53125 32.421875 18.9375 28.3125 
Q 18.359375 24.21875 17.578125 16.796875 
Q 23.4375 11.71875 26.953125 9.765625 
L 26.953125 44.140625 
L 14.84375 44.140625 
Q 11.71875 44.140625 7.421875 42.96875 
L 3.90625 46.484375 
L 25 46.484375 
L 25 62.890625 
L 19.140625 62.890625 
Q 16.015625 62.890625 11.71875 61.71875 
L 8.203125 65.234375 
L 25 65.234375 
Q 25 73.046875 24.609375 81.640625 
L 33.203125 77.734375 
L 30.078125 75 
L 30.078125 65.234375 
L 37.5 65.234375 
L 42.1875 69.921875 
L 48.4375 62.890625 
L 30.078125 62.890625 
L 30.078125 46.484375 
L 38.671875 46.484375 
L 43.75 51.171875 
L 50 44.140625 
L 27.34375 44.140625 
L 35.15625 40.625 
L 32.03125 37.5 
L 32.03125 28.125 
L 41.015625 28.125 
L 45.703125 32.8125 
L 51.5625 25.78125 
L 32.03125 25.78125 
L 32.03125 6.640625 
Q 45.703125 0.390625 58.390625 0 
Q 71.09375 -0.390625 76.953125 -0.390625 
Q 87.890625 -0.390625 96.09375 0.390625 
L 96.09375 -0.78125 
Q 89.0625 -3.90625 89.0625 -7.421875 
Q 77.34375 -7.8125 62.6875 -6.4375 
Q 48.046875 -5.078125 36.328125 -0.1875 
Q 24.609375 4.6875 17.1875 14.0625 
Q 12.109375 -0.390625 4.6875 -8.59375 
z
" id="SimSun-8d8b"/>
      <path d="M 25.78125 65.234375 
Q 25.78125 74.609375 25.390625 81.25 
L 33.59375 77.34375 
L 30.859375 75 
L 30.859375 65.234375 
L 34.375 65.234375 
L 38.671875 69.53125 
L 45.3125 62.890625 
L 30.859375 62.890625 
L 30.859375 53.515625 
Q 37.5 55.078125 43.75 56.640625 
L 44.140625 55.078125 
Q 37.5 52.734375 30.859375 50.390625 
L 30.859375 33.59375 
Q 31.25 28.125 23.046875 24.609375 
Q 22.65625 28.90625 12.5 31.640625 
L 12.5 33.59375 
Q 19.140625 32.8125 22.453125 32.609375 
Q 25.78125 32.421875 25.78125 36.328125 
L 25.78125 48.4375 
Q 10.9375 42.96875 10.9375 41.40625 
L 6.25 48.4375 
Q 8.984375 48.4375 25.78125 52.34375 
L 25.78125 62.890625 
L 20.3125 62.890625 
Q 15.234375 62.890625 10.9375 61.71875 
L 7.421875 65.234375 
z
M 57.03125 65.234375 
L 57.03125 70.703125 
Q 57.03125 76.171875 56.640625 81.640625 
L 65.234375 77.734375 
L 62.109375 75 
L 62.109375 65.625 
L 73.4375 66.40625 
L 75.78125 69.921875 
L 81.25 65.625 
L 78.515625 63.28125 
Q 78.125 60.9375 78.125 55.859375 
Q 78.125 50.390625 78.90625 43.9375 
Q 79.6875 37.5 84.765625 33.984375 
Q 87.5 41.40625 89.0625 47.65625 
L 90.625 47.265625 
Q 89.453125 39.453125 89.453125 35.15625 
Q 89.453125 30.859375 91.015625 27.734375 
Q 92.1875 25.78125 90.234375 25.78125 
Q 89.453125 25.78125 85.546875 27.34375 
Q 81.640625 28.90625 78.3125 33.390625 
Q 75 37.890625 74.015625 42.96875 
Q 73.046875 48.046875 73.046875 54.296875 
Q 73.046875 60.15625 73.4375 64.0625 
L 62.109375 63.28125 
Q 61.328125 53.90625 58.59375 47.65625 
Q 64.0625 45.3125 66.59375 43.546875 
Q 69.140625 41.796875 68.546875 38.671875 
Q 67.96875 35.546875 66.796875 35.546875 
Q 66.015625 35.546875 64.453125 37.5 
Q 61.328125 41.015625 56.640625 44.140625 
Q 50.390625 34.765625 32.8125 28.125 
L 32.03125 29.296875 
Q 48.046875 37.5 52.734375 46.484375 
Q 50.390625 48.4375 44.53125 51.5625 
L 45.3125 52.734375 
Q 50.390625 51.171875 54.296875 49.609375 
Q 56.25 54.6875 57.03125 62.890625 
L 51.5625 62.5 
L 48.828125 61.328125 
L 44.921875 64.453125 
z
M 40.625 22.265625 
Q 41.796875 26.5625 42.1875 31.640625 
L 49.609375 27.734375 
L 46.875 25.78125 
L 46.09375 22.265625 
L 73.828125 22.265625 
L 76.171875 26.171875 
L 83.203125 21.484375 
L 80.078125 19.140625 
Q 78.90625 6.25 77.921875 1.75 
Q 76.953125 -2.734375 74.21875 -5.46875 
Q 71.484375 -8.203125 66.015625 -9.375 
Q 66.40625 -5.46875 57.03125 -0.78125 
L 57.421875 0.78125 
Q 66.015625 -1.5625 68.9375 -1.359375 
Q 71.875 -1.171875 73.046875 4.875 
Q 74.21875 10.9375 74.609375 19.921875 
L 45.703125 19.921875 
Q 43.75 12.109375 40.234375 7.03125 
Q 36.71875 1.953125 29.296875 -2.53125 
Q 21.875 -7.03125 7.03125 -10.15625 
L 6.25 -8.59375 
Q 23.4375 -3.515625 30.46875 3.125 
Q 37.5 9.765625 40.234375 19.921875 
L 22.65625 19.921875 
Q 17.578125 19.921875 13.28125 18.75 
L 9.765625 22.265625 
z
" id="SimSun-52bf"/>
     </defs>
     <g transform="translate(37.01875 126.135294)rotate(-90)scale(0.176 -0.176)">
      <use xlink:href="#SimSun-8d8b"/>
      <use x="100" xlink:href="#SimSun-52bf"/>
     </g>
    </g>
   </g>
   <g id="line2d_28">
    <path clip-path="url(#pfd12b22cba)" d="M 127.642045 179.5233 
L 140.420671 185.894394 
L 157.84607 194.566688 
L 163.654537 197.476471 
L 176.433163 189.988706 
L 191.535175 181.186125 
L 201.990415 175.080034 
L 217.092427 166.277482 
L 229.871053 158.789743 
L 236.841213 154.756169 
L 274.015397 155.073818 
L 298.410956 147.187783 
L 319.321435 140.41044 
L 323.968208 138.928505 
L 344.878687 132.148657 
L 347.202073 131.382991 
L 359.980699 132.773022 
L 383.214565 135.303379 
L 408.771816 127.300575 
L 430.843989 120.362421 
L 435.490762 118.926941 
L 456.40124 112.35962 
L 461.048014 106.533837 
L 468.018173 97.722941 
L 472.664946 91.800864 
L 474.988333 88.960192 
L 481.958492 80.149297 
L 486.605265 74.22722 
L 488.928652 71.386548 
L 494.737118 63.987222 
L 504.030664 52.158796 
L 514.485904 38.724041 
L 516.80929 35.852118 
L 523.77945 26.944292 
L 528.426223 20.957064 
L 529.587916 19.594118 
L 542.366542 30.043336 
L 544.689929 31.872724 
L 553.983475 39.438331 
L 564.438714 47.965141 
L 566.762101 49.939755 
L 579.540727 61.192499 
L 586.510887 67.324234 
L 595.804433 75.544802 
L 602.774592 81.676537 
L 638.787084 80.779849 
L 644.59555 85.136478 
L 652.727403 91.310774 
L 658.535869 95.667403 
L 666.667722 101.841699 
L 675.961268 108.88155 
L 688.739894 118.518052 
L 695.710054 123.826783 
L 698.03344 125.52904 
L 707.326986 132.568879 
L 711.97376 136.059947 
L 746.824558 143.244993 
L 775.866889 149.22729 
L 814.202767 157.119059 
L 845.568485 163.590207 
L 861.832191 166.801771 
L 895.521296 172.411043 
L 941.989027 180.150775 
L 976.839825 185.957156 
L 1004.720463 190.606049 
L 1023.307556 182.987541 
L 1038.409568 176.792616 
L 1040.732955 175.838347 
L 1040.732955 175.838347 
" style="fill:none;stroke:#000000;stroke-linecap:square;stroke-width:2.8;"/>
   </g>
   <g id="patch_3">
    <path d="M 81.9875 206.370588 
L 81.9875 10.7 
" style="fill:none;stroke:#000000;stroke-linecap:square;stroke-linejoin:miter;stroke-width:0.8;"/>
   </g>
   <g id="patch_4">
    <path d="M 81.9875 206.370588 
L 1086.3875 206.370588 
" style="fill:none;stroke:#000000;stroke-linecap:square;stroke-linejoin:miter;stroke-width:0.8;"/>
   </g>
  </g>
  <g id="axes_2">
   <g id="patch_5">
    <path d="M 81.9875 441.175294 
L 1086.3875 441.175294 
L 1086.3875 245.504706 
L 81.9875 245.504706 
z
" style="fill:#ffffff;"/>
   </g>
   <g id="matplotlib.axis_3">
    <g id="xtick_22">
     <g id="line2d_29">
      <g>
       <use style="stroke:#000000;stroke-width:1.6;" x="207.798881" xlink:href="#md0e73de84c" y="441.175294"/>
      </g>
     </g>
     <g id="text_15">
      <!-- 1959 -->
      <g transform="translate(191.798881 467.312794)scale(0.16 -0.16)">
       <use xlink:href="#SimSun-31"/>
       <use x="50" xlink:href="#SimSun-39"/>
       <use x="100" xlink:href="#SimSun-35"/>
       <use x="150" xlink:href="#SimSun-39"/>
      </g>
     </g>
    </g>
    <g id="xtick_23">
     <g id="line2d_30">
      <g>
       <use style="stroke:#000000;stroke-width:1.6;" x="347.202073" xlink:href="#md0e73de84c" y="441.175294"/>
      </g>
     </g>
     <g id="text_16">
      <!-- 1969 -->
      <g transform="translate(331.202073 467.312794)scale(0.16 -0.16)">
       <use xlink:href="#SimSun-31"/>
       <use x="50" xlink:href="#SimSun-39"/>
       <use x="100" xlink:href="#SimSun-36"/>
       <use x="150" xlink:href="#SimSun-39"/>
      </g>
     </g>
    </g>
    <g id="xtick_24">
     <g id="line2d_31">
      <g>
       <use style="stroke:#000000;stroke-width:1.6;" x="486.605265" xlink:href="#md0e73de84c" y="441.175294"/>
      </g>
     </g>
     <g id="text_17">
      <!-- 1979 -->
      <g transform="translate(470.605265 467.312794)scale(0.16 -0.16)">
       <use xlink:href="#SimSun-31"/>
       <use x="50" xlink:href="#SimSun-39"/>
       <use x="100" xlink:href="#SimSun-37"/>
       <use x="150" xlink:href="#SimSun-39"/>
      </g>
     </g>
    </g>
    <g id="xtick_25">
     <g id="line2d_32">
      <g>
       <use style="stroke:#000000;stroke-width:1.6;" x="626.008458" xlink:href="#md0e73de84c" y="441.175294"/>
      </g>
     </g>
     <g id="text_18">
      <!-- 1989 -->
      <g transform="translate(610.008458 467.312794)scale(0.16 -0.16)">
       <use xlink:href="#SimSun-31"/>
       <use x="50" xlink:href="#SimSun-39"/>
       <use x="100" xlink:href="#SimSun-38"/>
       <use x="150" xlink:href="#SimSun-39"/>
      </g>
     </g>
    </g>
    <g id="xtick_26">
     <g id="line2d_33">
      <g>
       <use style="stroke:#000000;stroke-width:1.6;" x="765.41165" xlink:href="#md0e73de84c" y="441.175294"/>
      </g>
     </g>
     <g id="text_19">
      <!-- 1999 -->
      <g transform="translate(749.41165 467.312794)scale(0.16 -0.16)">
       <use xlink:href="#SimSun-31"/>
       <use x="50" xlink:href="#SimSun-39"/>
       <use x="100" xlink:href="#SimSun-39"/>
       <use x="150" xlink:href="#SimSun-39"/>
      </g>
     </g>
    </g>
    <g id="xtick_27">
     <g id="line2d_34">
      <g>
       <use style="stroke:#000000;stroke-width:1.6;" x="904.814842" xlink:href="#md0e73de84c" y="441.175294"/>
      </g>
     </g>
     <g id="text_20">
      <!-- 2009 -->
      <g transform="translate(888.814842 467.312794)scale(0.16 -0.16)">
       <use xlink:href="#SimSun-32"/>
       <use x="50" xlink:href="#SimSun-30"/>
       <use x="100" xlink:href="#SimSun-30"/>
       <use x="150" xlink:href="#SimSun-39"/>
      </g>
     </g>
    </g>
    <g id="xtick_28">
     <g id="line2d_35">
      <g>
       <use style="stroke:#000000;stroke-width:1.6;" x="1044.218034" xlink:href="#md0e73de84c" y="441.175294"/>
      </g>
     </g>
     <g id="text_21">
      <!-- 2019 -->
      <g transform="translate(1028.218034 467.312794)scale(0.16 -0.16)">
       <use xlink:href="#SimSun-32"/>
       <use x="50" xlink:href="#SimSun-30"/>
       <use x="100" xlink:href="#SimSun-31"/>
       <use x="150" xlink:href="#SimSun-39"/>
      </g>
     </g>
    </g>
    <g id="xtick_29">
     <g id="line2d_36">
      <g>
       <use style="stroke:#000000;stroke-width:0.8;" x="138.097285" xlink:href="#ma6940d5905" y="441.175294"/>
      </g>
     </g>
    </g>
    <g id="xtick_30">
     <g id="line2d_37">
      <g>
       <use style="stroke:#000000;stroke-width:0.8;" x="207.798881" xlink:href="#ma6940d5905" y="441.175294"/>
      </g>
     </g>
    </g>
    <g id="xtick_31">
     <g id="line2d_38">
      <g>
       <use style="stroke:#000000;stroke-width:0.8;" x="277.500477" xlink:href="#ma6940d5905" y="441.175294"/>
      </g>
     </g>
    </g>
    <g id="xtick_32">
     <g id="line2d_39">
      <g>
       <use style="stroke:#000000;stroke-width:0.8;" x="347.202073" xlink:href="#ma6940d5905" y="441.175294"/>
      </g>
     </g>
    </g>
    <g id="xtick_33">
     <g id="line2d_40">
      <g>
       <use style="stroke:#000000;stroke-width:0.8;" x="416.903669" xlink:href="#ma6940d5905" y="441.175294"/>
      </g>
     </g>
    </g>
    <g id="xtick_34">
     <g id="line2d_41">
      <g>
       <use style="stroke:#000000;stroke-width:0.8;" x="486.605265" xlink:href="#ma6940d5905" y="441.175294"/>
      </g>
     </g>
    </g>
    <g id="xtick_35">
     <g id="line2d_42">
      <g>
       <use style="stroke:#000000;stroke-width:0.8;" x="556.306862" xlink:href="#ma6940d5905" y="441.175294"/>
      </g>
     </g>
    </g>
    <g id="xtick_36">
     <g id="line2d_43">
      <g>
       <use style="stroke:#000000;stroke-width:0.8;" x="626.008458" xlink:href="#ma6940d5905" y="441.175294"/>
      </g>
     </g>
    </g>
    <g id="xtick_37">
     <g id="line2d_44">
      <g>
       <use style="stroke:#000000;stroke-width:0.8;" x="695.710054" xlink:href="#ma6940d5905" y="441.175294"/>
      </g>
     </g>
    </g>
    <g id="xtick_38">
     <g id="line2d_45">
      <g>
       <use style="stroke:#000000;stroke-width:0.8;" x="765.41165" xlink:href="#ma6940d5905" y="441.175294"/>
      </g>
     </g>
    </g>
    <g id="xtick_39">
     <g id="line2d_46">
      <g>
       <use style="stroke:#000000;stroke-width:0.8;" x="835.113246" xlink:href="#ma6940d5905" y="441.175294"/>
      </g>
     </g>
    </g>
    <g id="xtick_40">
     <g id="line2d_47">
      <g>
       <use style="stroke:#000000;stroke-width:0.8;" x="904.814842" xlink:href="#ma6940d5905" y="441.175294"/>
      </g>
     </g>
    </g>
    <g id="xtick_41">
     <g id="line2d_48">
      <g>
       <use style="stroke:#000000;stroke-width:0.8;" x="974.516438" xlink:href="#ma6940d5905" y="441.175294"/>
      </g>
     </g>
    </g>
    <g id="xtick_42">
     <g id="line2d_49">
      <g>
       <use style="stroke:#000000;stroke-width:0.8;" x="1044.218034" xlink:href="#ma6940d5905" y="441.175294"/>
      </g>
     </g>
    </g>
   </g>
   <g id="matplotlib.axis_4">
    <g id="ytick_7">
     <g id="line2d_50">
      <g>
       <use style="stroke:#000000;stroke-width:1.6;" x="81.9875" xlink:href="#m72bc4ecc2b" y="408.336688"/>
      </g>
     </g>
     <g id="text_22">
      <!-- -1.0% -->
      <defs>
       <path d="M 3.125 34.765625 
L 3.125 38.28125 
L 46.484375 38.28125 
L 46.484375 34.765625 
z
" id="SimSun-2d"/>
       <path d="M 12.5 0.390625 
Q 10.15625 0.390625 8.390625 1.953125 
Q 6.640625 3.515625 6.640625 6.25 
Q 6.640625 8.984375 8.390625 10.546875 
Q 10.15625 12.109375 12.5 12.109375 
Q 14.84375 12.109375 16.59375 10.34375 
Q 18.359375 8.59375 18.359375 6.25 
Q 18.359375 3.515625 16.59375 1.953125 
Q 14.84375 0.390625 12.5 0.390625 
z
" id="SimSun-2e"/>
      </defs>
      <g transform="translate(27.2875 414.055438)scale(0.16 -0.16)">
       <use xlink:href="#SimSun-2d"/>
       <use x="50" xlink:href="#SimSun-31"/>
       <use x="100" xlink:href="#SimSun-2e"/>
       <use x="150" xlink:href="#SimSun-30"/>
       <use x="200" xlink:href="#SimSun-25"/>
      </g>
     </g>
    </g>
    <g id="ytick_8">
     <g id="line2d_51">
      <g>
       <use style="stroke:#000000;stroke-width:1.6;" x="81.9875" xlink:href="#m72bc4ecc2b" y="355.008847"/>
      </g>
     </g>
     <g id="text_23">
      <!-- 0.0% -->
      <g transform="translate(35.2875 360.727597)scale(0.16 -0.16)">
       <use xlink:href="#SimSun-30"/>
       <use x="50" xlink:href="#SimSun-2e"/>
       <use x="100" xlink:href="#SimSun-30"/>
       <use x="150" xlink:href="#SimSun-25"/>
      </g>
     </g>
    </g>
    <g id="ytick_9">
     <g id="line2d_52">
      <g>
       <use style="stroke:#000000;stroke-width:1.6;" x="81.9875" xlink:href="#m72bc4ecc2b" y="301.681006"/>
      </g>
     </g>
     <g id="text_24">
      <!-- 1.0% -->
      <g transform="translate(35.2875 307.399756)scale(0.16 -0.16)">
       <use xlink:href="#SimSun-31"/>
       <use x="50" xlink:href="#SimSun-2e"/>
       <use x="100" xlink:href="#SimSun-30"/>
       <use x="150" xlink:href="#SimSun-25"/>
      </g>
     </g>
    </g>
    <g id="ytick_10">
     <g id="line2d_53">
      <g>
       <use style="stroke:#000000;stroke-width:1.6;" x="81.9875" xlink:href="#m72bc4ecc2b" y="248.353165"/>
      </g>
     </g>
     <g id="text_25">
      <!-- 2.0% -->
      <g transform="translate(35.2875 254.071915)scale(0.16 -0.16)">
       <use xlink:href="#SimSun-32"/>
       <use x="50" xlink:href="#SimSun-2e"/>
       <use x="100" xlink:href="#SimSun-30"/>
       <use x="150" xlink:href="#SimSun-25"/>
      </g>
     </g>
    </g>
    <g id="text_26">
     <!-- 周期 -->
     <defs>
      <path d="M 4.296875 -7.8125 
Q 12.5 4.296875 15.625 16.015625 
Q 18.75 27.734375 18.75 45.703125 
Q 18.75 63.671875 18.359375 79.6875 
L 24.21875 76.171875 
L 78.515625 76.171875 
L 81.640625 80.078125 
L 88.28125 75.390625 
L 84.765625 72.265625 
L 84.765625 4.296875 
Q 85.546875 -4.6875 76.171875 -8.203125 
Q 76.171875 -3.515625 64.453125 -0.390625 
L 64.453125 1.5625 
Q 72.65625 0.390625 76.171875 0.578125 
Q 79.6875 0.78125 79.6875 5.46875 
L 79.6875 73.828125 
L 24.21875 73.828125 
Q 24.21875 46.875 23.828125 35.9375 
Q 23.4375 25 19.53125 13.46875 
Q 15.625 1.953125 5.46875 -8.59375 
z
M 48.4375 57.03125 
Q 48.4375 66.015625 48.046875 71.484375 
L 56.640625 67.578125 
L 53.515625 65.234375 
L 53.515625 57.03125 
L 61.71875 57.03125 
L 66.015625 61.328125 
L 72.65625 54.6875 
L 53.515625 54.6875 
L 53.515625 42.96875 
L 65.625 42.96875 
L 70.3125 47.65625 
L 77.34375 40.625 
L 38.671875 40.625 
Q 33.59375 40.625 29.296875 39.453125 
L 25.78125 42.96875 
L 48.4375 42.96875 
L 48.4375 54.6875 
L 43.75 54.6875 
Q 38.671875 54.6875 34.375 53.515625 
L 30.859375 57.03125 
z
M 35.15625 3.125 
Q 35.546875 9.375 35.546875 18.9375 
Q 35.546875 28.515625 35.15625 35.15625 
L 41.015625 31.640625 
L 62.109375 31.640625 
L 64.84375 35.546875 
L 70.703125 30.46875 
L 67.578125 28.125 
Q 67.578125 13.28125 67.96875 7.03125 
L 62.5 4.6875 
L 62.5 10.9375 
L 40.625 10.9375 
L 40.625 5.46875 
z
M 40.625 29.296875 
L 40.625 13.28125 
L 62.5 13.28125 
L 62.5 29.296875 
z
" id="SimSun-5468"/>
      <path d="M 24.609375 62.109375 
L 24.609375 51.953125 
L 40.625 51.953125 
L 40.625 62.109375 
z
M 24.609375 49.609375 
L 24.609375 37.890625 
L 40.625 37.890625 
L 40.625 49.609375 
z
M 24.609375 35.546875 
L 24.609375 23.4375 
L 40.625 23.4375 
L 40.625 35.546875 
z
M 19.140625 64.453125 
Q 19.140625 74.21875 18.75 80.859375 
L 27.734375 75.78125 
L 24.609375 73.4375 
L 24.609375 64.453125 
L 40.625 64.453125 
Q 40.625 71.484375 40.234375 80.859375 
L 49.21875 76.171875 
L 46.09375 73.828125 
L 46.09375 64.453125 
L 47.265625 64.453125 
L 51.5625 68.75 
L 58.203125 62.109375 
L 46.09375 62.109375 
L 46.09375 23.4375 
L 46.484375 23.4375 
L 50.78125 27.734375 
L 57.421875 21.09375 
L 14.84375 21.09375 
L 9.375 20.3125 
L 6.25 23.4375 
L 19.140625 23.4375 
L 19.140625 62.109375 
L 15.625 62.109375 
L 10.15625 61.328125 
L 7.03125 64.453125 
z
M 24.21875 19.53125 
L 31.25 13.28125 
L 27.734375 12.109375 
Q 17.1875 -0.390625 5.859375 -7.421875 
L 5.078125 -6.25 
Q 10.9375 -0.78125 15.8125 5.46875 
Q 20.703125 11.71875 24.21875 19.53125 
z
M 37.109375 17.96875 
Q 46.484375 12.890625 48.046875 10.9375 
Q 49.609375 8.984375 49.609375 7.421875 
Q 49.609375 5.46875 48.4375 3.515625 
Q 47.265625 1.5625 46.484375 1.5625 
Q 45.3125 1.5625 44.140625 4.6875 
Q 42.1875 9.765625 36.328125 17.1875 
z
M 66.015625 71.09375 
L 66.015625 51.5625 
L 85.15625 51.5625 
L 85.15625 71.09375 
z
M 66.015625 49.21875 
Q 66.015625 38.28125 65.625 29.296875 
L 85.15625 29.296875 
L 85.15625 49.21875 
z
M 71.09375 0.78125 
Q 78.515625 -0.390625 81.828125 -0.578125 
Q 85.15625 -0.78125 85.15625 3.515625 
L 85.15625 26.953125 
L 65.625 26.953125 
Q 64.84375 13.28125 58.390625 4.6875 
Q 51.953125 -3.90625 42.1875 -9.765625 
L 41.40625 -8.59375 
Q 48.046875 -3.125 52.34375 3.3125 
Q 56.640625 9.765625 58.59375 18.359375 
Q 60.546875 26.953125 60.546875 46.875 
Q 60.546875 66.796875 60.15625 76.953125 
L 66.015625 73.4375 
L 84.375 73.4375 
L 87.109375 77.34375 
L 93.359375 72.65625 
L 90.625 69.921875 
L 90.625 1.953125 
Q 91.015625 -5.859375 82.03125 -8.984375 
Q 82.03125 -3.90625 71.09375 -0.78125 
z
" id="SimSun-671f"/>
     </defs>
     <g transform="translate(21.01875 360.94)rotate(-90)scale(0.176 -0.176)">
      <use xlink:href="#SimSun-5468"/>
      <use x="100" xlink:href="#SimSun-671f"/>
     </g>
    </g>
   </g>
   <g id="line2d_54">
    <path clip-path="url(#p9770aa2316)" d="M 127.642045 382.767927 
L 128.803739 382.375365 
L 129.965432 383.665579 
L 131.127125 371.734372 
L 132.288819 368.396186 
L 133.450512 377.168118 
L 134.612205 374.601828 
L 135.773898 368.994439 
L 136.935592 371.956725 
L 138.097285 374.458654 
L 140.420671 383.258966 
L 141.582365 375.743221 
L 142.744058 370.683368 
L 143.905751 376.190701 
L 145.067444 378.043429 
L 146.229138 379.02676 
L 147.390831 377.657334 
L 148.552524 361.761693 
L 149.714218 352.860779 
L 150.875911 360.713944 
L 152.037604 349.657952 
L 153.199297 320.647536 
L 154.360991 311.15779 
L 156.684377 365.434607 
L 157.84607 367.81109 
L 159.007764 353.398628 
L 160.169457 341.383091 
L 161.33115 331.745687 
L 162.492844 319.187532 
L 163.654537 314.041381 
L 164.81623 318.466949 
L 165.977923 319.931662 
L 167.139617 313.325697 
L 168.30131 302.080549 
L 169.463003 293.643284 
L 170.624696 292.899316 
L 171.78639 295.243208 
L 172.948083 287.953599 
L 174.109776 270.51335 
L 175.271469 266.253737 
L 177.594856 313.517442 
L 178.756549 310.597401 
L 179.918243 302.098963 
L 182.241629 311.222551 
L 183.403322 309.832398 
L 184.565016 305.772685 
L 185.726709 293.884942 
L 186.888402 292.73834 
L 188.050095 317.539617 
L 189.211789 338.749851 
L 190.373482 350.49401 
L 191.535175 369.595492 
L 192.696868 383.300236 
L 193.858562 384.616536 
L 196.181948 399.101203 
L 198.505335 385.683252 
L 199.667028 376.299417 
L 200.828721 358.026284 
L 201.990415 350.969635 
L 203.152108 351.904021 
L 204.313801 347.897153 
L 205.475494 355.785279 
L 206.637188 372.110926 
L 207.798881 366.991394 
L 208.960574 353.610219 
L 210.122268 349.864594 
L 211.283961 338.252395 
L 212.445654 310.144101 
L 213.607347 300.323005 
L 214.769041 314.530751 
L 215.930734 321.211686 
L 217.092427 321.046563 
L 218.25412 333.909027 
L 219.415814 342.32393 
L 220.577507 333.919671 
L 221.7392 331.815367 
L 222.900893 335.837461 
L 224.062587 330.677704 
L 225.22428 335.486883 
L 226.385973 359.03441 
L 227.547667 371.468604 
L 228.70936 373.263627 
L 229.871053 382.142124 
L 231.032746 386.393038 
L 232.19444 384.834905 
L 233.356133 390.253883 
L 234.517826 392.298475 
L 235.679519 389.601445 
L 236.841213 399.547295 
L 238.002906 415.832024 
L 239.164599 417.173068 
L 240.326293 411.366948 
L 241.487986 412.312397 
L 242.649679 419.611352 
L 243.811372 428.426398 
L 244.973066 432.281176 
L 246.134759 430.263108 
L 247.296452 428.800584 
L 249.619839 430.364918 
L 250.781532 429.130553 
L 251.943225 421.740427 
L 253.104918 410.692633 
L 254.266612 405.940476 
L 255.428305 408.523753 
L 256.589998 406.866053 
L 257.751692 397.596809 
L 258.913385 391.543986 
L 260.075078 394.114143 
L 261.236771 398.779038 
L 262.398465 400.928115 
L 264.721851 405.802775 
L 265.883544 403.725968 
L 268.206931 388.58644 
L 269.368624 383.680188 
L 271.692011 370.877046 
L 272.853704 374.348673 
L 274.015397 381.378554 
L 275.177091 375.859267 
L 276.338784 366.651824 
L 277.500477 369.103755 
L 278.66217 371.016966 
L 279.823864 366.41336 
L 280.985557 369.997213 
L 282.14725 382.935945 
L 283.308943 392.470076 
L 284.470637 396.486638 
L 285.63233 394.253848 
L 286.794023 390.968643 
L 287.955717 396.86397 
L 289.11741 404.780731 
L 290.279103 403.699879 
L 291.440796 400.435723 
L 292.60249 398.800486 
L 294.925876 385.285457 
L 296.087569 386.460147 
L 297.249263 389.476072 
L 298.410956 387.532669 
L 299.572649 382.243372 
L 300.734342 378.479619 
L 301.896036 379.730058 
L 303.057729 383.081039 
L 304.219422 382.898627 
L 305.381116 382.536839 
L 306.542809 385.936021 
L 307.704502 388.215723 
L 308.866195 386.080012 
L 310.027889 385.004909 
L 311.189582 384.324335 
L 312.351275 381.934632 
L 313.512968 386.071389 
L 314.674662 394.20551 
L 315.836355 393.154403 
L 316.998048 389.092622 
L 318.159741 394.411459 
L 319.321435 397.539028 
L 320.483128 391.377745 
L 321.644821 386.901947 
L 322.806515 387.919948 
L 323.968208 386.769384 
L 325.129901 386.449784 
L 326.291594 391.089024 
L 327.453288 396.810512 
L 328.614981 396.694022 
L 329.776674 386.167652 
L 330.938367 376.788416 
L 332.100061 381.127639 
L 333.261754 388.034167 
L 335.585141 387.052965 
L 336.746834 385.28361 
L 337.908527 381.867872 
L 339.07022 388.284179 
L 340.231914 397.276452 
L 341.393607 397.73612 
L 342.5553 399.224609 
L 343.716993 396.411891 
L 344.878687 383.087482 
L 346.04038 378.487294 
L 347.202073 379.381907 
L 348.363766 365.502733 
L 349.52546 347.817789 
L 350.687153 339.066753 
L 351.848846 322.917916 
L 353.01054 313.279743 
L 354.172233 319.446757 
L 355.333926 308.474639 
L 356.495619 286.464721 
L 357.657313 284.464356 
L 358.819006 278.069197 
L 359.980699 256.031038 
L 361.142392 267.093635 
L 362.304086 295.890921 
L 363.465779 292.764754 
L 364.627472 274.64382 
L 365.789166 286.727051 
L 366.950859 303.536723 
L 368.112552 302.071092 
L 369.274245 302.576202 
L 370.435939 308.349453 
L 371.597632 315.92633 
L 373.921018 351.541288 
L 375.082712 350.394997 
L 376.244405 348.064258 
L 377.406098 346.547538 
L 378.567791 330.97665 
L 379.729485 311.395159 
L 380.891178 304.532213 
L 382.052871 303.390693 
L 383.214565 308.243099 
L 385.537951 336.460791 
L 386.699644 341.465606 
L 387.861338 338.608619 
L 389.023031 330.101316 
L 390.184724 324.27935 
L 391.346417 322.273882 
L 392.508111 319.827055 
L 393.669804 322.23535 
L 394.831497 331.674437 
L 395.99319 335.335529 
L 397.154884 329.091647 
L 398.316577 327.345407 
L 399.47827 336.145718 
L 400.639964 343.788263 
L 401.801657 342.584831 
L 402.96335 341.098498 
L 404.125043 342.453639 
L 406.44843 333.234867 
L 407.610123 337.803318 
L 408.771816 334.501633 
L 409.93351 323.786621 
L 411.095203 336.901141 
L 412.256896 362.976977 
L 413.41859 368.887683 
L 414.580283 362.289984 
L 415.741976 361.807045 
L 416.903669 357.772425 
L 418.065363 345.34593 
L 419.227056 330.757326 
L 420.388749 323.333118 
L 421.550442 320.578857 
L 422.712136 312.819295 
L 423.873829 300.617961 
L 425.035522 296.941175 
L 427.358909 303.169369 
L 428.520602 305.325076 
L 429.682295 301.032766 
L 430.843989 295.554474 
L 432.005682 297.923629 
L 433.167375 296.01855 
L 434.329068 286.775656 
L 435.490762 289.282476 
L 436.652455 297.146957 
L 437.814148 295.229133 
L 438.975841 294.863503 
L 440.137535 298.734554 
L 441.299228 301.806294 
L 442.460921 312.821765 
L 443.622615 325.823508 
L 444.784308 329.06131 
L 447.107694 339.264501 
L 448.269388 329.635137 
L 449.431081 317.663033 
L 450.592774 319.507492 
L 451.754467 329.150941 
L 455.239547 361.484876 
L 456.40124 366.608066 
L 457.562934 359.075188 
L 458.724627 350.003251 
L 459.88632 349.572831 
L 461.048014 346.946485 
L 462.209707 345.535148 
L 463.3714 357.283365 
L 464.533093 366.105093 
L 465.694787 370.581191 
L 466.85648 387.897254 
L 468.018173 399.141902 
L 469.179866 391.488113 
L 470.34156 387.160833 
L 471.503253 388.455331 
L 472.664946 387.246704 
L 473.826639 389.886737 
L 474.988333 388.947424 
L 476.150026 381.687881 
L 477.311719 383.302792 
L 478.473413 382.189324 
L 479.635106 369.530277 
L 480.796799 369.994149 
L 481.958492 377.938137 
L 483.120186 372.969717 
L 484.281879 369.072058 
L 485.443572 372.643296 
L 486.605265 375.015115 
L 487.766959 380.322228 
L 488.928652 382.629515 
L 490.090345 373.810702 
L 491.252039 371.358877 
L 492.413732 377.124926 
L 493.575425 377.949791 
L 494.737118 379.483164 
L 495.898812 375.612189 
L 497.060505 358.432677 
L 498.222198 353.76857 
L 499.383891 361.178091 
L 500.545585 343.876849 
L 501.707278 314.97674 
L 502.868971 314.934773 
L 504.030664 344.989908 
L 505.192358 368.385956 
L 506.354051 365.221666 
L 507.515744 350.112385 
L 511.000824 316.953331 
L 512.162517 314.526034 
L 513.324211 319.50828 
L 514.485904 318.971146 
L 515.647597 311.293076 
L 516.80929 299.970816 
L 517.970984 292.821029 
L 519.132677 293.502559 
L 520.29437 294.939357 
L 521.456063 284.920737 
L 522.617757 267.762119 
L 523.77945 268.868761 
L 524.941143 296.033187 
L 526.102837 315.096857 
L 527.26453 308.198145 
L 528.426223 302.293481 
L 529.587916 308.289532 
L 530.74961 311.132752 
L 531.911303 309.458434 
L 533.072996 303.922002 
L 534.234689 291.748026 
L 535.396383 295.989126 
L 536.558076 322.990232 
L 537.719769 341.145732 
L 538.881463 353.612144 
L 540.043156 373.524107 
L 541.204849 383.908819 
L 542.366542 385.455273 
L 543.528236 394.397653 
L 544.689929 398.581788 
L 545.851622 390.719148 
L 547.013315 384.571821 
L 548.175009 373.012081 
L 549.336702 355.259483 
L 550.498395 351.258174 
L 551.660088 351.318099 
L 552.821782 347.945998 
L 553.983475 359.305827 
L 555.145168 373.222393 
L 556.306862 363.820556 
L 557.468555 351.850923 
L 558.630248 348.938656 
L 559.791941 332.452958 
L 560.953635 305.129788 
L 562.115328 302.377139 
L 563.277021 317.574104 
L 564.438714 320.788078 
L 565.600408 322.756426 
L 566.762101 337.337719 
L 567.923794 341.410818 
L 569.085488 332.090469 
L 570.247181 333.082599 
L 571.408874 335.522936 
L 572.570567 329.910399 
L 573.732261 339.282114 
L 574.893954 363.099477 
L 576.055647 371.897398 
L 577.21734 374.403568 
L 578.379034 383.869954 
L 579.540727 386.023535 
L 580.70242 385.350766 
L 581.864113 391.471939 
L 583.025807 391.525863 
L 584.1875 390.470147 
L 585.349193 403.087033 
L 586.510887 417.433184 
L 587.67258 416.000056 
L 588.834273 410.891923 
L 589.995966 413.366806 
L 592.319353 429.748255 
L 593.481046 432.206793 
L 594.642739 429.748053 
L 595.804433 428.857832 
L 596.966126 429.850103 
L 598.127819 430.350682 
L 599.289512 428.295138 
L 600.451206 419.547087 
L 601.612899 408.961104 
L 602.774592 406.183323 
L 603.936286 408.895112 
L 605.097979 405.446019 
L 606.259672 395.788091 
L 607.421365 391.422065 
L 608.583059 395.156635 
L 609.744752 399.37903 
L 610.906445 401.26854 
L 612.068138 404.024678 
L 613.229832 405.919727 
L 614.391525 402.334168 
L 615.553218 394.359004 
L 616.714912 387.29125 
L 617.876605 382.498064 
L 619.038298 375.382915 
L 620.199991 370.659643 
L 621.361685 376.344585 
L 622.523378 381.36909 
L 623.685071 373.243375 
L 624.846764 366.228853 
L 626.008458 370.246707 
L 627.170151 370.32507 
L 628.331844 366.076089 
L 629.493537 372.179221 
L 630.655231 385.317207 
L 631.816924 393.680434 
L 632.978617 396.562459 
L 634.140311 393.305223 
L 635.302004 391.255447 
L 636.463697 398.810693 
L 637.62539 405.323539 
L 641.11047 397.978196 
L 642.272163 390.25507 
L 643.433857 384.871438 
L 645.757243 389.544145 
L 646.918937 386.630145 
L 648.08063 381.230692 
L 649.242323 378.277264 
L 650.404016 380.460981 
L 651.56571 383.39066 
L 652.727403 382.583633 
L 653.889096 383.022093 
L 655.050789 386.747563 
L 656.212483 388.003953 
L 657.374176 385.640011 
L 658.535869 385.023821 
L 659.697562 383.844181 
L 660.859256 381.969655 
L 662.020949 387.827504 
L 663.182642 394.964553 
L 664.344336 391.984607 
L 665.506029 389.386634 
L 666.667722 395.801469 
L 667.829415 396.712917 
L 668.991109 389.689254 
L 670.152802 386.973002 
L 671.314495 387.959526 
L 672.476188 386.347308 
L 673.637882 387.10355 
L 675.961268 397.561848 
L 677.122961 395.15587 
L 678.284655 383.193329 
L 679.446348 376.532706 
L 680.608041 383.195055 
L 681.769735 388.375596 
L 682.931428 387.225761 
L 684.093121 387.05318 
L 685.254814 384.392447 
L 686.416508 382.214821 
L 687.578201 390.461494 
L 688.739894 397.888225 
L 689.901587 397.709268 
L 691.063281 399.590544 
L 692.224974 394.189448 
L 693.386667 380.876626 
L 694.548361 379.158786 
L 695.710054 377.694222 
L 698.03344 345.81886 
L 699.195134 336.729006 
L 700.356827 319.569164 
L 701.51852 313.897319 
L 702.680213 319.599513 
L 703.841907 303.620934 
L 705.0036 284.324579 
L 706.165293 284.938949 
L 707.326986 273.83769 
L 708.48868 254.398824 
L 709.650373 273.684671 
L 710.812066 298.97472 
L 711.97376 288.272807 
L 713.135453 274.339663 
L 714.297146 291.198326 
L 715.458839 304.406218 
L 716.620533 301.365119 
L 717.782226 303.699171 
L 718.943919 309.37557 
L 720.105612 318.70568 
L 721.267306 338.987413 
L 722.428999 352.524619 
L 723.590692 349.433882 
L 724.752385 348.249933 
L 725.914079 344.329946 
L 728.237465 308.72493 
L 729.399159 304.062456 
L 730.560852 303.632466 
L 731.722545 310.931992 
L 732.884238 326.293278 
L 734.045932 338.386859 
L 735.207625 341.501671 
L 736.369318 336.965135 
L 737.531011 328.23212 
L 738.692705 323.723877 
L 739.854398 321.841559 
L 741.016091 319.589766 
L 742.177785 323.836851 
L 743.339478 333.315277 
L 744.501171 334.582329 
L 745.662864 327.938549 
L 746.824558 328.386505 
L 747.986251 338.217883 
L 749.147944 344.194253 
L 750.309637 341.931938 
L 751.471331 341.420976 
L 752.633024 342.221172 
L 753.794717 336.31876 
L 754.95641 333.6057 
L 756.118104 338.402385 
L 757.279797 332.102648 
L 758.44149 323.827425 
L 759.603184 342.347065 
L 760.764877 366.26984 
L 761.92657 367.624029 
L 763.088263 361.667514 
L 764.249957 361.813197 
L 765.41165 355.651485 
L 767.735036 328.638339 
L 768.89673 322.688116 
L 770.058423 319.690856 
L 771.220116 310.392037 
L 772.38181 298.997216 
L 773.543503 297.347192 
L 775.866889 303.78342 
L 777.028583 305.147526 
L 778.190276 299.561391 
L 779.351969 295.576958 
L 780.513662 298.55401 
L 781.675356 293.871655 
L 782.837049 285.834709 
L 785.160435 297.530994 
L 786.322129 294.454686 
L 787.483822 295.777641 
L 788.645515 299.299517 
L 789.807209 303.437626 
L 790.968902 316.337062 
L 792.130595 327.228134 
L 793.292288 329.672354 
L 794.453982 335.744727 
L 795.615675 338.545255 
L 796.777368 326.682013 
L 797.939061 316.934769 
L 799.100755 321.098587 
L 801.424141 342.070192 
L 803.747528 363.256257 
L 804.909221 366.144793 
L 806.070914 356.793484 
L 807.232608 349.446484 
L 808.394301 349.582539 
L 809.555994 345.975426 
L 810.717687 346.890879 
L 811.879381 359.902542 
L 814.202767 372.888436 
L 815.36446 391.605691 
L 816.526154 398.726058 
L 817.687847 389.741238 
L 818.84954 387.438738 
L 820.011234 388.264239 
L 821.172927 387.456166 
L 822.33462 390.504961 
L 823.496313 387.504261 
L 824.658007 381.096348 
L 825.8197 384.106511 
L 826.981393 380.093668 
L 828.143086 367.972039 
L 829.30478 371.946147 
L 830.466473 378.027467 
L 831.628166 371.44064 
L 832.789859 369.518187 
L 833.951553 373.189866 
L 835.113246 375.785233 
L 836.274939 381.806263 
L 837.436633 381.182423 
L 838.598326 371.984437 
L 839.760019 372.623199 
L 840.921712 377.822544 
L 842.083406 377.97193 
L 843.245099 379.761498 
L 844.406792 372.373947 
L 845.568485 355.316066 
L 846.730179 355.637898 
L 847.891872 360.259453 
L 850.215259 311.567649 
L 851.376952 319.607844 
L 852.538645 351.274824 
L 853.700338 369.680241 
L 854.862032 362.491392 
L 856.023725 347.567365 
L 857.185418 337.52393 
L 859.508805 315.493864 
L 860.670498 315.309919 
L 861.832191 320.127746 
L 862.993884 317.787979 
L 864.155578 309.138563 
L 865.317271 298.017425 
L 866.478964 292.349591 
L 867.640658 294.154024 
L 868.802351 294.144597 
L 869.964044 281.530411 
L 871.125737 265.774417 
L 872.287431 272.658281 
L 873.449124 301.708489 
L 874.610817 315.453099 
L 875.77251 305.924382 
L 876.934204 303.085038 
L 878.095897 309.526233 
L 879.25759 310.875854 
L 880.419283 308.992773 
L 881.580977 301.664196 
L 882.74267 290.306224 
L 883.904363 300.275414 
L 885.066057 327.94916 
L 887.389443 357.213737 
L 888.551136 376.969141 
L 889.71283 384.102627 
L 890.874523 386.785509 
L 892.036216 396.672898 
L 893.197909 397.260773 
L 894.359603 388.991715 
L 895.521296 382.927858 
L 896.682989 368.761973 
L 897.844683 352.882886 
L 899.006376 351.748383 
L 901.329762 348.937466 
L 902.491456 363.599807 
L 903.653149 373.13549 
L 904.814842 360.05838 
L 905.976535 350.968297 
L 907.138229 347.425045 
L 908.299922 326.869741 
L 909.461615 302.040517 
L 910.623308 305.025609 
L 911.785002 319.491606 
L 912.946695 320.364184 
L 914.108388 324.941219 
L 915.270082 339.747523 
L 916.431775 339.906466 
L 917.593468 331.118543 
L 918.755161 334.226244 
L 919.916855 334.696156 
L 921.078548 329.855817 
L 922.240241 343.763031 
L 923.401934 366.410093 
L 924.563628 372.049299 
L 925.725321 375.952654 
L 926.887014 385.210421 
L 928.048707 385.50663 
L 929.210401 386.257711 
L 930.372094 392.364733 
L 931.533787 390.64848 
L 932.695481 392.078783 
L 933.857174 406.680235 
L 935.018867 418.301307 
L 937.342254 410.76277 
L 938.503947 414.628333 
L 939.66564 423.170911 
L 940.827333 430.818856 
L 941.989027 431.913341 
L 943.15072 429.325043 
L 944.312413 428.994926 
L 945.474107 430.029094 
L 946.6358 430.235538 
L 947.797493 426.961223 
L 950.12088 407.401304 
L 951.282573 406.770032 
L 952.444266 408.965601 
L 953.605959 403.443867 
L 954.767653 393.980773 
L 955.929346 391.730737 
L 957.091039 396.365409 
L 958.252732 399.925566 
L 959.414426 401.73961 
L 960.576119 404.736502 
L 961.737812 405.763343 
L 962.899506 400.928603 
L 964.061199 392.743272 
L 965.222892 386.296478 
L 966.384585 381.360041 
L 967.546279 373.904974 
L 968.707972 371.002734 
L 969.869665 378.056616 
L 971.031358 380.672306 
L 972.193052 371.059993 
L 973.354745 366.447516 
L 974.516438 370.967967 
L 975.678132 369.372994 
L 976.839825 366.238723 
L 978.001518 374.650924 
L 979.163211 387.472879 
L 980.324905 394.686161 
L 981.486598 396.376122 
L 982.648291 392.387154 
L 983.809984 391.99925 
L 984.971678 400.707719 
L 986.133371 405.432535 
L 987.295064 402.076205 
L 988.456757 399.937962 
L 989.618451 396.883464 
L 990.780144 388.630241 
L 991.941837 384.821996 
L 993.103531 388.016051 
L 994.265224 389.381374 
L 995.426917 385.632408 
L 996.58861 380.310995 
L 997.750304 378.304188 
L 998.911997 381.225334 
L 1000.07369 383.509366 
L 1001.235383 382.326817 
L 1002.397077 383.689093 
L 1003.55877 387.525055 
L 1004.720463 387.546747 
L 1005.882156 385.268327 
L 1007.04385 384.998787 
L 1008.205543 383.192729 
L 1009.367236 382.463054 
L 1010.52893 389.971949 
L 1011.690623 395.21936 
L 1012.852316 390.665438 
L 1014.014009 390.305815 
L 1015.175703 397.077902 
L 1016.337396 395.267585 
L 1017.499089 388.50697 
L 1018.660782 387.208795 
L 1019.822476 387.822847 
L 1020.984169 386.105758 
L 1022.145862 387.884066 
L 1023.307556 393.71836 
L 1024.469249 397.888274 
L 1025.630942 393.362168 
L 1026.792635 380.872047 
L 1027.954329 376.994744 
L 1029.116022 384.856726 
L 1030.277715 388.339429 
L 1031.439408 387.034689 
L 1032.601102 386.918086 
L 1033.762795 383.468876 
L 1034.924488 383.081203 
L 1036.086181 392.578482 
L 1037.247875 398.125159 
L 1038.409568 397.873624 
L 1039.571261 399.651185 
L 1040.732955 391.537026 
L 1040.732955 391.537026 
" style="fill:none;stroke:#000000;stroke-linecap:square;stroke-width:2.8;"/>
   </g>
   <g id="patch_6">
    <path d="M 81.9875 441.175294 
L 81.9875 245.504706 
" style="fill:none;stroke:#000000;stroke-linecap:square;stroke-linejoin:miter;stroke-width:0.8;"/>
   </g>
   <g id="patch_7">
    <path d="M 81.9875 441.175294 
L 1086.3875 441.175294 
" style="fill:none;stroke:#000000;stroke-linecap:square;stroke-linejoin:miter;stroke-width:0.8;"/>
   </g>
  </g>
  <g id="axes_3">
   <g id="patch_8">
    <path d="M 81.9875 675.98 
L 1086.3875 675.98 
L 1086.3875 480.309412 
L 81.9875 480.309412 
z
" style="fill:#ffffff;"/>
   </g>
   <g id="matplotlib.axis_5">
    <g id="xtick_43">
     <g id="line2d_55">
      <g>
       <use style="stroke:#000000;stroke-width:1.6;" x="207.798881" xlink:href="#md0e73de84c" y="675.98"/>
      </g>
     </g>
     <g id="text_27">
      <!-- 1959 -->
      <g transform="translate(191.798881 702.1175)scale(0.16 -0.16)">
       <use xlink:href="#SimSun-31"/>
       <use x="50" xlink:href="#SimSun-39"/>
       <use x="100" xlink:href="#SimSun-35"/>
       <use x="150" xlink:href="#SimSun-39"/>
      </g>
     </g>
    </g>
    <g id="xtick_44">
     <g id="line2d_56">
      <g>
       <use style="stroke:#000000;stroke-width:1.6;" x="347.202073" xlink:href="#md0e73de84c" y="675.98"/>
      </g>
     </g>
     <g id="text_28">
      <!-- 1969 -->
      <g transform="translate(331.202073 702.1175)scale(0.16 -0.16)">
       <use xlink:href="#SimSun-31"/>
       <use x="50" xlink:href="#SimSun-39"/>
       <use x="100" xlink:href="#SimSun-36"/>
       <use x="150" xlink:href="#SimSun-39"/>
      </g>
     </g>
    </g>
    <g id="xtick_45">
     <g id="line2d_57">
      <g>
       <use style="stroke:#000000;stroke-width:1.6;" x="486.605265" xlink:href="#md0e73de84c" y="675.98"/>
      </g>
     </g>
     <g id="text_29">
      <!-- 1979 -->
      <g transform="translate(470.605265 702.1175)scale(0.16 -0.16)">
       <use xlink:href="#SimSun-31"/>
       <use x="50" xlink:href="#SimSun-39"/>
       <use x="100" xlink:href="#SimSun-37"/>
       <use x="150" xlink:href="#SimSun-39"/>
      </g>
     </g>
    </g>
    <g id="xtick_46">
     <g id="line2d_58">
      <g>
       <use style="stroke:#000000;stroke-width:1.6;" x="626.008458" xlink:href="#md0e73de84c" y="675.98"/>
      </g>
     </g>
     <g id="text_30">
      <!-- 1989 -->
      <g transform="translate(610.008458 702.1175)scale(0.16 -0.16)">
       <use xlink:href="#SimSun-31"/>
       <use x="50" xlink:href="#SimSun-39"/>
       <use x="100" xlink:href="#SimSun-38"/>
       <use x="150" xlink:href="#SimSun-39"/>
      </g>
     </g>
    </g>
    <g id="xtick_47">
     <g id="line2d_59">
      <g>
       <use style="stroke:#000000;stroke-width:1.6;" x="765.41165" xlink:href="#md0e73de84c" y="675.98"/>
      </g>
     </g>
     <g id="text_31">
      <!-- 1999 -->
      <g transform="translate(749.41165 702.1175)scale(0.16 -0.16)">
       <use xlink:href="#SimSun-31"/>
       <use x="50" xlink:href="#SimSun-39"/>
       <use x="100" xlink:href="#SimSun-39"/>
       <use x="150" xlink:href="#SimSun-39"/>
      </g>
     </g>
    </g>
    <g id="xtick_48">
     <g id="line2d_60">
      <g>
       <use style="stroke:#000000;stroke-width:1.6;" x="904.814842" xlink:href="#md0e73de84c" y="675.98"/>
      </g>
     </g>
     <g id="text_32">
      <!-- 2009 -->
      <g transform="translate(888.814842 702.1175)scale(0.16 -0.16)">
       <use xlink:href="#SimSun-32"/>
       <use x="50" xlink:href="#SimSun-30"/>
       <use x="100" xlink:href="#SimSun-30"/>
       <use x="150" xlink:href="#SimSun-39"/>
      </g>
     </g>
    </g>
    <g id="xtick_49">
     <g id="line2d_61">
      <g>
       <use style="stroke:#000000;stroke-width:1.6;" x="1044.218034" xlink:href="#md0e73de84c" y="675.98"/>
      </g>
     </g>
     <g id="text_33">
      <!-- 2019 -->
      <g transform="translate(1028.218034 702.1175)scale(0.16 -0.16)">
       <use xlink:href="#SimSun-32"/>
       <use x="50" xlink:href="#SimSun-30"/>
       <use x="100" xlink:href="#SimSun-31"/>
       <use x="150" xlink:href="#SimSun-39"/>
      </g>
     </g>
    </g>
    <g id="xtick_50">
     <g id="line2d_62">
      <g>
       <use style="stroke:#000000;stroke-width:0.8;" x="138.097285" xlink:href="#ma6940d5905" y="675.98"/>
      </g>
     </g>
    </g>
    <g id="xtick_51">
     <g id="line2d_63">
      <g>
       <use style="stroke:#000000;stroke-width:0.8;" x="207.798881" xlink:href="#ma6940d5905" y="675.98"/>
      </g>
     </g>
    </g>
    <g id="xtick_52">
     <g id="line2d_64">
      <g>
       <use style="stroke:#000000;stroke-width:0.8;" x="277.500477" xlink:href="#ma6940d5905" y="675.98"/>
      </g>
     </g>
    </g>
    <g id="xtick_53">
     <g id="line2d_65">
      <g>
       <use style="stroke:#000000;stroke-width:0.8;" x="347.202073" xlink:href="#ma6940d5905" y="675.98"/>
      </g>
     </g>
    </g>
    <g id="xtick_54">
     <g id="line2d_66">
      <g>
       <use style="stroke:#000000;stroke-width:0.8;" x="416.903669" xlink:href="#ma6940d5905" y="675.98"/>
      </g>
     </g>
    </g>
    <g id="xtick_55">
     <g id="line2d_67">
      <g>
       <use style="stroke:#000000;stroke-width:0.8;" x="486.605265" xlink:href="#ma6940d5905" y="675.98"/>
      </g>
     </g>
    </g>
    <g id="xtick_56">
     <g id="line2d_68">
      <g>
       <use style="stroke:#000000;stroke-width:0.8;" x="556.306862" xlink:href="#ma6940d5905" y="675.98"/>
      </g>
     </g>
    </g>
    <g id="xtick_57">
     <g id="line2d_69">
      <g>
       <use style="stroke:#000000;stroke-width:0.8;" x="626.008458" xlink:href="#ma6940d5905" y="675.98"/>
      </g>
     </g>
    </g>
    <g id="xtick_58">
     <g id="line2d_70">
      <g>
       <use style="stroke:#000000;stroke-width:0.8;" x="695.710054" xlink:href="#ma6940d5905" y="675.98"/>
      </g>
     </g>
    </g>
    <g id="xtick_59">
     <g id="line2d_71">
      <g>
       <use style="stroke:#000000;stroke-width:0.8;" x="765.41165" xlink:href="#ma6940d5905" y="675.98"/>
      </g>
     </g>
    </g>
    <g id="xtick_60">
     <g id="line2d_72">
      <g>
       <use style="stroke:#000000;stroke-width:0.8;" x="835.113246" xlink:href="#ma6940d5905" y="675.98"/>
      </g>
     </g>
    </g>
    <g id="xtick_61">
     <g id="line2d_73">
      <g>
       <use style="stroke:#000000;stroke-width:0.8;" x="904.814842" xlink:href="#ma6940d5905" y="675.98"/>
      </g>
     </g>
    </g>
    <g id="xtick_62">
     <g id="line2d_74">
      <g>
       <use style="stroke:#000000;stroke-width:0.8;" x="974.516438" xlink:href="#ma6940d5905" y="675.98"/>
      </g>
     </g>
    </g>
    <g id="xtick_63">
     <g id="line2d_75">
      <g>
       <use style="stroke:#000000;stroke-width:0.8;" x="1044.218034" xlink:href="#ma6940d5905" y="675.98"/>
      </g>
     </g>
    </g>
   </g>
   <g id="matplotlib.axis_6">
    <g id="ytick_11">
     <g id="line2d_76">
      <g>
       <use style="stroke:#000000;stroke-width:1.6;" x="81.9875" xlink:href="#m72bc4ecc2b" y="675.98"/>
      </g>
     </g>
     <g id="text_34">
      <!-- -3.0% -->
      <defs>
       <path d="M 43.75 19.53125 
Q 43.75 12.109375 38.28125 6.4375 
Q 32.8125 0.78125 23.046875 0.78125 
Q 16.015625 0.78125 10.9375 4.6875 
Q 5.859375 8.59375 5.859375 13.671875 
Q 5.859375 16.015625 7.421875 17.765625 
Q 8.984375 19.53125 10.546875 19.53125 
Q 12.890625 19.53125 13.859375 17.765625 
Q 14.84375 16.015625 14.84375 14.84375 
Q 14.84375 12.890625 14.0625 11.71875 
Q 13.28125 10.15625 13.28125 8.984375 
Q 13.28125 6.640625 16.203125 5.078125 
Q 19.140625 3.515625 22.65625 3.515625 
Q 29.6875 3.515625 33.203125 7.609375 
Q 36.71875 11.71875 36.71875 20.3125 
Q 36.71875 27.34375 33 31.640625 
Q 29.296875 35.9375 19.140625 35.9375 
L 19.140625 38.671875 
Q 26.953125 38.671875 30.65625 42.375 
Q 34.375 46.09375 34.375 52.734375 
Q 34.375 58.203125 31.4375 62.296875 
Q 28.515625 66.40625 22.265625 66.40625 
Q 19.53125 66.40625 16.40625 65.03125 
Q 13.28125 63.671875 13.28125 60.546875 
Q 13.28125 57.421875 14.0625 56.640625 
Q 14.84375 55.859375 14.84375 54.6875 
Q 14.84375 52.734375 14.0625 51.5625 
Q 13.28125 50.390625 11.328125 50.390625 
Q 9.765625 50.390625 8.390625 51.5625 
Q 7.03125 52.734375 7.03125 55.859375 
Q 7.03125 61.71875 12.109375 65.421875 
Q 17.1875 69.140625 23.828125 69.140625 
Q 31.640625 69.140625 36.328125 64.25 
Q 41.015625 59.375 41.015625 53.90625 
Q 41.015625 48.046875 38.078125 43.9375 
Q 35.15625 39.84375 28.90625 37.890625 
Q 37.5 34.765625 40.625 29.6875 
Q 43.75 24.609375 43.75 19.53125 
z
" id="SimSun-33"/>
      </defs>
      <g transform="translate(27.2875 681.69875)scale(0.16 -0.16)">
       <use xlink:href="#SimSun-2d"/>
       <use x="50" xlink:href="#SimSun-33"/>
       <use x="100" xlink:href="#SimSun-2e"/>
       <use x="150" xlink:href="#SimSun-30"/>
       <use x="200" xlink:href="#SimSun-25"/>
      </g>
     </g>
    </g>
    <g id="ytick_12">
     <g id="line2d_77">
      <g>
       <use style="stroke:#000000;stroke-width:1.6;" x="81.9875" xlink:href="#m72bc4ecc2b" y="643.368235"/>
      </g>
     </g>
     <g id="text_35">
      <!-- -2.0% -->
      <g transform="translate(27.2875 649.086985)scale(0.16 -0.16)">
       <use xlink:href="#SimSun-2d"/>
       <use x="50" xlink:href="#SimSun-32"/>
       <use x="100" xlink:href="#SimSun-2e"/>
       <use x="150" xlink:href="#SimSun-30"/>
       <use x="200" xlink:href="#SimSun-25"/>
      </g>
     </g>
    </g>
    <g id="ytick_13">
     <g id="line2d_78">
      <g>
       <use style="stroke:#000000;stroke-width:1.6;" x="81.9875" xlink:href="#m72bc4ecc2b" y="610.756471"/>
      </g>
     </g>
     <g id="text_36">
      <!-- -1.0% -->
      <g transform="translate(27.2875 616.475221)scale(0.16 -0.16)">
       <use xlink:href="#SimSun-2d"/>
       <use x="50" xlink:href="#SimSun-31"/>
       <use x="100" xlink:href="#SimSun-2e"/>
       <use x="150" xlink:href="#SimSun-30"/>
       <use x="200" xlink:href="#SimSun-25"/>
      </g>
     </g>
    </g>
    <g id="ytick_14">
     <g id="line2d_79">
      <g>
       <use style="stroke:#000000;stroke-width:1.6;" x="81.9875" xlink:href="#m72bc4ecc2b" y="578.144706"/>
      </g>
     </g>
     <g id="text_37">
      <!-- 0.0% -->
      <g transform="translate(35.2875 583.863456)scale(0.16 -0.16)">
       <use xlink:href="#SimSun-30"/>
       <use x="50" xlink:href="#SimSun-2e"/>
       <use x="100" xlink:href="#SimSun-30"/>
       <use x="150" xlink:href="#SimSun-25"/>
      </g>
     </g>
    </g>
    <g id="ytick_15">
     <g id="line2d_80">
      <g>
       <use style="stroke:#000000;stroke-width:1.6;" x="81.9875" xlink:href="#m72bc4ecc2b" y="545.532941"/>
      </g>
     </g>
     <g id="text_38">
      <!-- 1.0% -->
      <g transform="translate(35.2875 551.251691)scale(0.16 -0.16)">
       <use xlink:href="#SimSun-31"/>
       <use x="50" xlink:href="#SimSun-2e"/>
       <use x="100" xlink:href="#SimSun-30"/>
       <use x="150" xlink:href="#SimSun-25"/>
      </g>
     </g>
    </g>
    <g id="ytick_16">
     <g id="line2d_81">
      <g>
       <use style="stroke:#000000;stroke-width:1.6;" x="81.9875" xlink:href="#m72bc4ecc2b" y="512.921176"/>
      </g>
     </g>
     <g id="text_39">
      <!-- 2.0% -->
      <g transform="translate(35.2875 518.639926)scale(0.16 -0.16)">
       <use xlink:href="#SimSun-32"/>
       <use x="50" xlink:href="#SimSun-2e"/>
       <use x="100" xlink:href="#SimSun-30"/>
       <use x="150" xlink:href="#SimSun-25"/>
      </g>
     </g>
    </g>
    <g id="ytick_17">
     <g id="line2d_82">
      <g>
       <use style="stroke:#000000;stroke-width:1.6;" x="81.9875" xlink:href="#m72bc4ecc2b" y="480.309412"/>
      </g>
     </g>
     <g id="text_40">
      <!-- 3.0% -->
      <g transform="translate(35.2875 486.028162)scale(0.16 -0.16)">
       <use xlink:href="#SimSun-33"/>
       <use x="50" xlink:href="#SimSun-2e"/>
       <use x="100" xlink:href="#SimSun-30"/>
       <use x="150" xlink:href="#SimSun-25"/>
      </g>
     </g>
    </g>
    <g id="text_41">
     <!-- 残差 -->
     <defs>
      <path d="M 87.890625 -0.78125 
L 93.75 16.40625 
L 94.921875 16.015625 
Q 92.96875 8.203125 92.578125 2.734375 
Q 92.1875 -2.734375 93.75 -6.25 
Q 94.921875 -9.375 91.015625 -8.59375 
Q 87.109375 -7.8125 80.265625 -3.3125 
Q 73.4375 1.171875 67.96875 9.765625 
Q 60.9375 4.296875 51.953125 0 
Q 42.96875 -4.296875 33.984375 -6.25 
L 33.203125 -5.078125 
Q 41.40625 -2.34375 50.390625 2.921875 
Q 59.375 8.203125 65.234375 13.671875 
Q 63.28125 18.75 62.109375 23.625 
Q 60.9375 28.515625 60.15625 35.15625 
L 48.828125 33.59375 
L 45.703125 32.421875 
L 41.40625 35.15625 
L 59.765625 37.5 
Q 59.375 42.96875 58.984375 51.171875 
L 50.78125 50.390625 
L 47.65625 49.21875 
L 43.75 52.34375 
L 58.984375 53.515625 
Q 58.59375 71.484375 58.203125 81.640625 
L 67.578125 76.5625 
L 64.0625 74.21875 
Q 64.0625 68.75 64.453125 54.296875 
L 80.078125 55.859375 
L 83.984375 60.546875 
L 91.40625 54.6875 
L 64.453125 51.953125 
Q 64.84375 42.578125 65.234375 38.28125 
L 81.640625 40.625 
L 85.546875 45.3125 
L 92.96875 39.84375 
L 65.625 35.9375 
Q 66.796875 24.609375 69.921875 17.96875 
Q 73.4375 21.484375 77.734375 27.34375 
Q 82.03125 33.203125 82.8125 35.15625 
L 89.453125 29.296875 
L 85.9375 28.125 
Q 78.515625 19.53125 71.875 13.28125 
Q 75 8.59375 79.09375 5.078125 
Q 83.203125 1.5625 87.890625 -0.78125 
z
M 71.484375 76.5625 
Q 81.25 71.09375 82.421875 69.328125 
Q 83.59375 67.578125 83.59375 66.015625 
Q 83.59375 63.671875 82.421875 61.90625 
Q 81.25 60.15625 80.46875 60.15625 
Q 79.296875 60.15625 78.125 63.671875 
Q 76.171875 68.75 70.3125 75.390625 
z
M 41.40625 47.265625 
Q 39.0625 36.328125 35.734375 26.171875 
Q 32.421875 16.015625 25 6.828125 
Q 17.578125 -2.34375 5.46875 -9.375 
L 5.078125 -8.203125 
Q 14.84375 -0.78125 20.5 6.828125 
Q 26.171875 14.453125 29.875 24.015625 
Q 33.59375 33.59375 35.9375 48.4375 
L 19.921875 48.4375 
Q 18.359375 44.140625 16.796875 40.625 
Q 22.65625 37.109375 24.796875 34.5625 
Q 26.953125 32.03125 26.953125 30.46875 
Q 26.953125 28.90625 25.578125 26.5625 
Q 24.21875 24.21875 23.828125 24.21875 
Q 22.65625 24.21875 21.484375 28.125 
Q 19.921875 33.984375 16.015625 39.0625 
Q 12.890625 32.03125 5.078125 23.4375 
L 3.90625 24.21875 
Q 10.546875 33.984375 14.25 46.28125 
Q 17.96875 58.59375 19.140625 69.53125 
L 13.28125 69.53125 
L 8.984375 68.75 
L 5.859375 71.875 
L 35.546875 71.875 
L 39.84375 76.171875 
L 46.484375 69.53125 
L 24.609375 69.53125 
Q 22.65625 58.203125 20.3125 50.78125 
L 35.546875 50.78125 
L 38.671875 54.6875 
L 44.53125 49.21875 
z
" id="SimSun-6b8b"/>
      <path d="M 25 79.6875 
L 25.78125 80.859375 
Q 35.9375 76.953125 37.5 74.609375 
Q 39.0625 72.265625 39.0625 70.703125 
Q 39.0625 68.75 38.078125 66.984375 
Q 37.109375 65.234375 36.328125 65.234375 
Q 35.15625 65.234375 33.984375 68.359375 
Q 31.640625 73.4375 25 79.6875 
z
M 50 61.328125 
Q 48.4375 53.90625 47.265625 49.609375 
L 72.65625 49.609375 
L 77.734375 54.6875 
L 85.15625 47.265625 
L 46.875 47.265625 
Q 45.3125 41.796875 42.578125 35.546875 
L 79.296875 35.546875 
L 85.546875 41.796875 
L 94.140625 33.203125 
L 41.796875 33.203125 
Q 29.6875 10.546875 5.46875 -3.125 
L 5.078125 -1.5625 
Q 25.78125 12.890625 36.328125 33.203125 
L 14.84375 33.203125 
L 9.375 32.421875 
L 6.25 35.546875 
L 37.109375 35.546875 
Q 39.453125 41.40625 41.40625 47.265625 
L 24.21875 47.265625 
L 19.140625 46.484375 
L 16.015625 49.609375 
L 41.796875 49.609375 
Q 43.359375 55.859375 44.140625 61.328125 
L 19.53125 61.328125 
L 14.0625 60.546875 
L 10.9375 63.671875 
L 58.59375 63.671875 
Q 65.625 76.953125 66.40625 82.03125 
L 75 76.953125 
Q 71.09375 76.5625 60.9375 63.671875 
L 78.90625 63.671875 
L 84.765625 69.53125 
L 92.96875 61.328125 
z
M 33.59375 19.921875 
L 72.65625 19.921875 
L 77.34375 24.609375 
L 84.375 17.578125 
L 60.15625 17.578125 
L 60.15625 -2.734375 
L 81.25 -2.734375 
L 86.71875 2.734375 
L 94.53125 -5.078125 
L 32.03125 -5.078125 
Q 26.953125 -5.078125 22.65625 -6.25 
L 19.140625 -2.734375 
L 54.6875 -2.734375 
L 54.6875 17.578125 
L 41.015625 17.578125 
L 36.71875 16.796875 
z
" id="SimSun-5dee"/>
     </defs>
     <g transform="translate(21.01875 595.744706)rotate(-90)scale(0.176 -0.176)">
      <use xlink:href="#SimSun-6b8b"/>
      <use x="100" xlink:href="#SimSun-5dee"/>
     </g>
    </g>
   </g>
   <g id="line2d_83">
    <path clip-path="url(#p8db2f7a794)" d="M 127.642045 575.218179 
L 128.803739 567.125983 
L 129.965432 563.259941 
L 131.127125 575.26872 
L 132.288819 575.500225 
L 133.450512 571.624508 
L 134.612205 578.884679 
L 135.773898 580.541223 
L 136.935592 580.507072 
L 138.097285 581.40668 
L 139.258978 577.950686 
L 140.420671 577.408977 
L 141.582365 583.493721 
L 142.744058 582.821378 
L 143.905751 578.007014 
L 145.067444 578.325277 
L 146.229138 574.60956 
L 147.390831 573.674446 
L 148.552524 580.606904 
L 149.714218 583.299196 
L 150.875911 576.360697 
L 152.037604 578.702958 
L 153.199297 594.093692 
L 154.360991 597.760965 
L 156.684377 559.681929 
L 157.84607 556.456067 
L 160.169457 564.106096 
L 161.33115 568.879364 
L 162.492844 578.336484 
L 163.654537 580.037083 
L 164.81623 576.404405 
L 165.977923 578.82192 
L 167.139617 586.087407 
L 168.30131 590.40731 
L 169.463003 589.705163 
L 170.624696 595.103949 
L 172.948083 599.49325 
L 174.109776 604.340489 
L 175.271469 606.627568 
L 176.433163 594.766806 
L 177.594856 576.806232 
L 178.756549 576.687289 
L 179.918243 587.480428 
L 181.079936 589.727519 
L 182.241629 586.113418 
L 184.565016 585.919259 
L 185.726709 587.979431 
L 186.888402 585.797616 
L 188.050095 571.987333 
L 189.211789 560.655451 
L 190.373482 553.199445 
L 191.535175 550.98396 
L 192.696868 560.591578 
L 193.858562 565.056558 
L 195.020255 562.962303 
L 196.181948 562.367774 
L 197.343642 571.027373 
L 198.505335 575.199308 
L 200.828721 585.650478 
L 201.990415 580.234381 
L 203.152108 573.801151 
L 204.313801 576.303539 
L 205.475494 574.749158 
L 206.637188 562.20859 
L 207.798881 561.477998 
L 208.960574 572.842991 
L 210.122268 575.511738 
L 211.283961 579.686225 
L 212.445654 592.035679 
L 213.607347 598.376023 
L 214.769041 589.087328 
L 215.930734 585.379885 
L 217.092427 578.640688 
L 218.25412 577.023149 
L 219.415814 573.189919 
L 220.577507 574.468049 
L 221.7392 576.133074 
L 222.900893 582.443141 
L 224.062587 594.781854 
L 225.22428 592.175293 
L 226.385973 576.848892 
L 227.547667 577.080084 
L 228.70936 585.491834 
L 229.871053 584.680036 
L 231.032746 583.393226 
L 232.19444 582.767543 
L 233.356133 579.461952 
L 235.679519 585.509048 
L 236.841213 582.608782 
L 238.002906 573.934762 
L 239.164599 571.791006 
L 240.326293 577.604635 
L 242.649679 565.675412 
L 243.811372 556.351471 
L 244.973066 555.931659 
L 246.134759 559.10265 
L 247.296452 559.325605 
L 248.458145 554.873875 
L 249.619839 553.111417 
L 250.781532 557.109536 
L 251.943225 566.174662 
L 253.104918 572.911567 
L 254.266612 574.493368 
L 255.428305 569.633239 
L 256.589998 569.322676 
L 257.751692 577.58024 
L 258.913385 581.914787 
L 260.075078 580.975453 
L 261.236771 578.103522 
L 262.398465 579.052281 
L 263.560158 576.87435 
L 264.721851 573.09846 
L 265.883544 574.022548 
L 268.206931 582.915736 
L 269.368624 584.592411 
L 270.530317 588.548402 
L 271.692011 591.730064 
L 272.853704 587.957267 
L 274.015397 581.029486 
L 275.177091 587.414538 
L 276.338784 591.839724 
L 277.500477 590.765401 
L 278.66217 589.319821 
L 279.823864 591.255724 
L 280.985557 590.117194 
L 282.14725 583.934311 
L 283.308943 580.135339 
L 284.470637 577.125838 
L 285.63233 578.590261 
L 286.794023 582.304626 
L 287.955717 580.102903 
L 289.11741 574.684067 
L 290.279103 575.770158 
L 291.440796 579.169767 
L 292.60249 579.869948 
L 293.764183 585.44591 
L 294.925876 589.939191 
L 296.087569 589.319826 
L 297.249263 589.180838 
L 298.410956 590.468291 
L 299.572649 592.823518 
L 300.734342 593.243237 
L 301.896036 591.273077 
L 303.057729 587.668016 
L 304.219422 582.986799 
L 305.381116 582.654805 
L 306.542809 570.492742 
L 307.704502 579.959506 
L 308.866195 579.383623 
L 310.027889 580.4662 
L 311.189582 576.065878 
L 312.351275 575.670054 
L 313.512968 563.782374 
L 314.674662 570.623571 
L 315.836355 573.64868 
L 316.998048 571.968315 
L 318.159741 585.121048 
L 319.321435 587.87358 
L 320.483128 585.798044 
L 321.644821 596.461467 
L 322.806515 587.435115 
L 323.968208 587.912104 
L 325.129901 575.464211 
L 326.291594 575.3356 
L 327.453288 569.001157 
L 328.614981 568.495408 
L 329.776674 564.922488 
L 330.938367 568.124513 
L 332.100061 567.527137 
L 333.261754 569.27318 
L 334.423447 569.636458 
L 335.585141 564.153598 
L 336.746834 566.615337 
L 337.908527 565.542498 
L 339.07022 569.520783 
L 340.231914 572.926381 
L 341.393607 572.41866 
L 342.5553 569.953059 
L 343.716993 568.511453 
L 344.878687 571.84326 
L 346.04038 563.015693 
L 347.202073 562.241988 
L 348.363766 568.217926 
L 350.687153 585.842624 
L 351.848846 583.72461 
L 353.01054 583.829514 
L 354.172233 582.087667 
L 355.333926 583.00015 
L 356.495619 574.038791 
L 357.657313 593.597453 
L 358.819006 585.849028 
L 359.980699 579.831825 
L 361.142392 577.052871 
L 362.304086 586.933546 
L 363.465779 582.72185 
L 364.627472 569.42554 
L 365.789166 557.543375 
L 366.950859 555.823711 
L 368.112552 566.250188 
L 369.274245 562.100668 
L 370.435939 564.847322 
L 371.597632 558.656002 
L 372.759325 574.370224 
L 373.921018 563.445527 
L 375.082712 577.264011 
L 376.244405 576.82993 
L 377.406098 597.397297 
L 378.567791 588.737785 
L 379.729485 590.67566 
L 380.891178 584.191654 
L 382.052871 579.744633 
L 383.214565 595.112595 
L 384.376258 596.18087 
L 385.537951 592.660202 
L 386.699644 588.347564 
L 387.861338 592.127348 
L 389.023031 591.535665 
L 390.184724 597.407772 
L 391.346417 596.753411 
L 392.508111 598.302172 
L 393.669804 600.492647 
L 394.831497 592.163832 
L 395.99319 591.631474 
L 397.154884 586.394458 
L 398.316577 584.25361 
L 399.47827 583.839624 
L 400.639964 584.11016 
L 402.96335 578.732322 
L 404.125043 575.300132 
L 405.286737 575.947893 
L 406.44843 580.413864 
L 407.610123 570.847566 
L 408.771816 573.24522 
L 409.93351 564.546214 
L 411.095203 563.124532 
L 412.256896 559.297081 
L 413.41859 562.606891 
L 414.580283 567.99852 
L 415.741976 562.173552 
L 416.903669 562.107851 
L 418.065363 570.038653 
L 419.227056 566.643538 
L 420.388749 563.735429 
L 421.550442 570.713568 
L 422.712136 572.250069 
L 423.873829 572.286822 
L 425.035522 568.088881 
L 426.197215 572.467113 
L 427.358909 576.148745 
L 428.520602 580.426903 
L 429.682295 591.606787 
L 430.843989 591.445586 
L 432.005682 592.937293 
L 433.167375 576.894011 
L 434.329068 573.467502 
L 435.490762 581.467843 
L 436.652455 579.97207 
L 437.814148 574.046229 
L 438.975841 574.345758 
L 440.137535 564.204101 
L 441.299228 581.642504 
L 442.460921 568.110148 
L 443.622615 573.279786 
L 444.784308 570.723459 
L 445.946001 569.289714 
L 447.107694 570.458873 
L 448.269388 576.726114 
L 449.431081 575.318214 
L 450.592774 578.156123 
L 451.754467 572.986999 
L 452.916161 573.637097 
L 454.077854 571.395001 
L 455.239547 569.723907 
L 456.40124 580.666407 
L 457.562934 594.726163 
L 458.724627 583.96381 
L 459.88632 585.243607 
L 461.048014 590.758853 
L 462.209707 593.479832 
L 463.3714 591.509021 
L 464.533093 594.820609 
L 465.694787 587.839531 
L 466.85648 584.746618 
L 468.018173 576.466862 
L 469.179866 577.229735 
L 470.34156 584.995087 
L 471.503253 579.633547 
L 472.664946 578.085575 
L 473.826639 575.857099 
L 474.988333 575.775021 
L 476.150026 580.115669 
L 477.311719 576.188773 
L 478.473413 573.183596 
L 479.635106 585.812528 
L 480.796799 594.003649 
L 483.120186 579.362331 
L 484.281879 587.843309 
L 485.443572 579.13276 
L 486.605265 587.13546 
L 487.766959 579.362563 
L 488.928652 582.839079 
L 490.090345 583.241509 
L 491.252039 597.129088 
L 492.413732 604.59215 
L 493.575425 600.528401 
L 494.737118 595.053023 
L 495.898812 593.765356 
L 497.060505 565.491182 
L 498.222198 582.298895 
L 499.383891 582.36135 
L 500.545585 569.815265 
L 501.707278 538.407819 
L 502.868971 544.005461 
L 504.030664 589.80331 
L 505.192358 595.090878 
L 506.354051 605.111285 
L 507.515744 595.464272 
L 508.677438 579.268477 
L 509.839131 578.353954 
L 511.000824 569.095675 
L 512.162517 564.968445 
L 513.324211 574.342083 
L 514.485904 569.480654 
L 515.647597 552.39352 
L 516.80929 572.064028 
L 517.970984 547.344288 
L 519.132677 569.783723 
L 520.29437 560.032293 
L 521.456063 542.706523 
L 522.617757 532.029924 
L 523.77945 520.197571 
L 524.941143 546.008886 
L 526.102837 586.135914 
L 527.26453 565.597744 
L 528.426223 566.953799 
L 529.587916 569.550598 
L 530.74961 561.032682 
L 531.911303 570.339687 
L 533.072996 577.055856 
L 534.234689 558.86752 
L 535.396383 579.171459 
L 536.558076 589.144184 
L 538.881463 635.188593 
L 540.043156 618.576275 
L 541.204849 624.361306 
L 542.366542 607.178994 
L 543.528236 617.28989 
L 544.689929 601.429606 
L 545.851622 615.825449 
L 547.013315 600.086966 
L 548.175009 600.437827 
L 549.336702 583.317297 
L 550.498395 576.702217 
L 551.660088 592.449381 
L 552.821782 582.840576 
L 553.983475 577.654411 
L 555.145168 561.060301 
L 556.306862 569.814177 
L 557.468555 563.301999 
L 558.630248 547.215755 
L 559.791941 546.013359 
L 560.953635 525.288143 
L 562.115328 527.427761 
L 563.277021 546.57582 
L 564.438714 546.636352 
L 565.600408 554.041863 
L 566.762101 565.250089 
L 567.923794 567.623054 
L 569.085488 572.25029 
L 570.247181 581.985216 
L 571.408874 554.507805 
L 572.570567 564.368294 
L 573.732261 564.479331 
L 574.893954 584.714684 
L 576.055647 578.328145 
L 577.21734 564.308949 
L 578.379034 565.926524 
L 579.540727 561.646516 
L 581.864113 577.759613 
L 583.025807 594.916753 
L 584.1875 590.902594 
L 585.349193 612.315764 
L 586.510887 625.624493 
L 587.67258 624.842349 
L 588.834273 604.065437 
L 589.995966 623.39553 
L 591.15766 616.771568 
L 592.319353 622.320782 
L 593.481046 602.526753 
L 594.642739 605.566826 
L 595.804433 610.322793 
L 596.966126 605.05622 
L 598.127819 604.329864 
L 599.289512 603.408424 
L 600.451206 596.271562 
L 601.612899 577.932342 
L 602.774592 568.44893 
L 603.936286 570.433771 
L 605.097979 563.469473 
L 606.259672 558.34538 
L 607.421365 540.525836 
L 608.583059 562.758604 
L 609.744752 556.645071 
L 610.906445 560.765214 
L 612.068138 577.726209 
L 613.229832 579.882533 
L 614.391525 568.762159 
L 615.553218 563.911606 
L 616.714912 557.529653 
L 617.876605 572.909214 
L 619.038298 567.534597 
L 620.199991 566.241267 
L 621.361685 575.213101 
L 622.523378 579.372795 
L 623.685071 571.027016 
L 626.008458 574.605687 
L 627.170151 564.500288 
L 628.331844 567.808678 
L 630.655231 578.983981 
L 631.816924 590.231365 
L 632.978617 597.657964 
L 634.140311 585.358457 
L 635.302004 585.037272 
L 636.463697 593.193334 
L 638.787084 590.500131 
L 639.948777 574.085468 
L 641.11047 571.23258 
L 642.272163 569.633619 
L 643.433857 558.507691 
L 644.59555 569.646041 
L 646.918937 574.396042 
L 648.08063 559.635841 
L 649.242323 561.046821 
L 650.404016 563.49914 
L 651.56571 572.72652 
L 652.727403 577.333896 
L 653.889096 576.940087 
L 656.212483 569.898708 
L 657.374176 570.623079 
L 658.535869 567.939165 
L 659.697562 561.090825 
L 660.859256 561.785367 
L 662.020949 568.839301 
L 663.182642 574.189262 
L 664.344336 574.255334 
L 665.506029 577.07953 
L 666.667722 593.25026 
L 667.829415 571.369555 
L 668.991109 575.326274 
L 670.152802 566.425912 
L 671.314495 561.840185 
L 672.476188 570.201139 
L 673.637882 574.235296 
L 674.799575 582.87083 
L 675.961268 581.285284 
L 677.122961 589.209953 
L 678.284655 580.746127 
L 679.446348 578.227948 
L 680.608041 580.550378 
L 681.769735 585.735688 
L 682.931428 596.592784 
L 684.093121 594.942062 
L 685.254814 594.217346 
L 686.416508 590.205481 
L 687.578201 595.20299 
L 688.739894 587.92668 
L 689.901587 598.672327 
L 691.063281 597.452843 
L 692.224974 598.02118 
L 693.386667 591.418103 
L 694.548361 590.712358 
L 695.710054 594.091255 
L 696.871747 587.790132 
L 698.03344 575.346957 
L 699.195134 569.748688 
L 700.356827 574.898951 
L 701.51852 571.123866 
L 702.680213 573.055109 
L 703.841907 578.787461 
L 705.0036 574.865163 
L 706.165293 566.536958 
L 707.326986 568.364965 
L 708.48868 580.779046 
L 709.650373 575.055664 
L 710.812066 570.39612 
L 711.97376 575.836672 
L 713.135453 588.133703 
L 714.297146 602.456604 
L 715.458839 596.851511 
L 716.620533 590.405901 
L 717.782226 594.04403 
L 718.943919 593.696933 
L 720.105612 592.078384 
L 721.267306 588.017517 
L 722.428999 585.130659 
L 723.590692 585.889994 
L 724.752385 568.882135 
L 725.914079 563.952349 
L 727.075772 564.297421 
L 728.237465 568.152409 
L 729.399159 574.453996 
L 730.560852 571.955606 
L 731.722545 561.795299 
L 732.884238 559.765097 
L 734.045932 563.305064 
L 735.207625 571.046816 
L 736.369318 561.276187 
L 737.531011 562.877023 
L 738.692705 564.223401 
L 739.854398 553.155746 
L 741.016091 560.592063 
L 742.177785 559.146896 
L 743.339478 558.10532 
L 744.501171 572.83172 
L 745.662864 565.98033 
L 746.824558 572.417895 
L 747.986251 575.058451 
L 749.147944 570.288382 
L 750.309637 574.780638 
L 751.471331 581.789177 
L 752.633024 577.93256 
L 753.794717 579.432976 
L 754.95641 580.302902 
L 756.118104 580.80446 
L 757.279797 588.107289 
L 759.603184 593.604034 
L 760.764877 598.404547 
L 761.92657 590.575542 
L 763.088263 590.493891 
L 764.249957 592.861341 
L 765.41165 595.824797 
L 766.573343 583.039419 
L 767.735036 592.192571 
L 768.89673 591.780954 
L 770.058423 584.004066 
L 771.220116 583.683522 
L 772.38181 586.586024 
L 773.543503 585.159844 
L 774.705196 585.286959 
L 778.190276 566.595051 
L 779.351969 561.052441 
L 780.513662 567.263285 
L 781.675356 582.366771 
L 782.837049 580.296197 
L 783.998742 574.380544 
L 785.160435 578.724276 
L 786.322129 579.800967 
L 787.483822 588.623124 
L 788.645515 583.723532 
L 789.807209 581.692835 
L 790.968902 582.798785 
L 792.130595 587.400307 
L 793.292288 583.144303 
L 794.453982 587.803864 
L 795.615675 585.286672 
L 796.777368 578.381479 
L 797.939061 581.254846 
L 799.100755 578.571626 
L 800.262448 583.325344 
L 801.424141 583.378576 
L 802.585834 584.515195 
L 803.747528 587.417576 
L 804.909221 569.534468 
L 806.070914 565.317239 
L 807.232608 569.331718 
L 808.394301 575.012596 
L 809.555994 559.129656 
L 810.717687 568.216449 
L 811.879381 560.759276 
L 813.041074 563.335193 
L 814.202767 570.465191 
L 815.36446 570.606856 
L 816.526154 582.42149 
L 817.687847 577.654022 
L 818.84954 569.141642 
L 820.011234 580.876951 
L 821.172927 575.348658 
L 822.33462 582.509276 
L 823.496313 579.952216 
L 824.658007 581.450929 
L 825.8197 596.089554 
L 826.981393 592.536306 
L 828.143086 568.489236 
L 829.30478 566.88473 
L 830.466473 578.682328 
L 831.628166 570.165364 
L 832.789859 570.551655 
L 833.951553 570.110446 
L 836.274939 573.046054 
L 837.436633 577.188406 
L 838.598326 560.500165 
L 839.760019 555.391334 
L 840.921712 553.052996 
L 842.083406 556.396376 
L 843.245099 566.889671 
L 844.406792 570.618053 
L 845.568485 583.505902 
L 846.730179 572.736208 
L 847.891872 573.344707 
L 849.053565 590.734657 
L 850.215259 598.296938 
L 852.538645 577.96452 
L 853.700338 573.078784 
L 854.862032 578.968477 
L 856.023725 576.528343 
L 857.185418 590.670623 
L 858.347111 586.541679 
L 859.508805 585.355914 
L 860.670498 587.702704 
L 861.832191 587.630489 
L 862.993884 584.10856 
L 864.155578 588.39607 
L 866.478964 580.943204 
L 867.640658 577.822017 
L 868.802351 576.474789 
L 869.964044 589.019541 
L 871.125737 606.420674 
L 872.287431 605.097497 
L 873.449124 587.923545 
L 874.610817 584.035379 
L 876.934204 578.758255 
L 878.095897 583.274761 
L 879.25759 579.127235 
L 880.419283 580.556398 
L 881.580977 575.845764 
L 882.74267 578.177376 
L 883.904363 579.846695 
L 885.066057 570.362966 
L 886.22775 559.010236 
L 887.389443 553.661634 
L 888.551136 557.837902 
L 889.71283 550.805584 
L 890.874523 560.844137 
L 892.036216 559.001162 
L 893.197909 560.863469 
L 895.521296 548.973587 
L 896.682989 559.544686 
L 897.844683 568.868156 
L 899.006376 574.3927 
L 900.168069 574.257535 
L 901.329762 569.479789 
L 902.491456 595.359344 
L 903.653149 611.316828 
L 904.814842 598.707501 
L 905.976535 599.024965 
L 907.138229 610.914304 
L 908.299922 608.434631 
L 909.461615 613.121762 
L 910.623308 608.964935 
L 911.785002 600.057485 
L 912.946695 603.05016 
L 914.108388 602.811571 
L 915.270082 590.108718 
L 916.431775 596.159234 
L 917.593468 580.27469 
L 918.755161 585.161688 
L 919.916855 585.176895 
L 921.078548 580.249094 
L 922.240241 576.261493 
L 923.401934 574.4174 
L 924.563628 581.682198 
L 925.725321 579.886393 
L 926.887014 589.165362 
L 928.048707 586.652877 
L 929.210401 582.545264 
L 930.372094 572.56586 
L 931.533787 557.248516 
L 932.695481 552.0733 
L 935.018867 533.669971 
L 936.18056 540.388223 
L 937.342254 551.215217 
L 938.503947 544.237128 
L 939.66564 550.366165 
L 940.827333 564.543005 
L 941.989027 573.6087 
L 943.15072 566.651465 
L 944.312413 569.413763 
L 945.474107 574.590444 
L 946.6358 576.033777 
L 947.797493 572.782216 
L 948.959186 570.420754 
L 950.12088 584.960352 
L 951.282573 596.699506 
L 952.444266 592.373263 
L 953.605959 600.580745 
L 954.767653 604.023913 
L 955.929346 602.416307 
L 957.091039 596.9121 
L 958.252732 597.621483 
L 959.414426 590.907126 
L 960.576119 580.860477 
L 962.899506 587.344112 
L 964.061199 597.519079 
L 965.222892 586.072972 
L 966.384585 576.976896 
L 967.546279 578.539853 
L 968.707972 574.057429 
L 969.869665 573.934756 
L 971.031358 574.230875 
L 972.193052 573.864375 
L 973.354745 566.840525 
L 974.516438 575.755348 
L 975.678132 576.707186 
L 976.839825 575.953951 
L 978.001518 572.391679 
L 979.163211 570.359736 
L 980.324905 563.943349 
L 981.486598 560.89217 
L 982.648291 570.445141 
L 983.809984 564.763723 
L 984.971678 564.595079 
L 986.133371 566.875061 
L 987.295064 568.866564 
L 988.456757 585.766814 
L 989.618451 576.849318 
L 990.780144 583.466024 
L 991.941837 581.832965 
L 993.103531 577.209747 
L 994.265224 568.499465 
L 995.426917 575.296726 
L 996.58861 577.837708 
L 997.750304 583.582068 
L 998.911997 578.14739 
L 1000.07369 574.745405 
L 1001.235383 573.124745 
L 1002.397077 582.666427 
L 1003.55877 586.480814 
L 1004.720463 584.775955 
L 1007.04385 586.251222 
L 1008.205543 599.69135 
L 1009.367236 602.068188 
L 1010.52893 594.515099 
L 1011.690623 591.575441 
L 1012.852316 587.485757 
L 1014.014009 571.342989 
L 1015.175703 565.544954 
L 1016.337396 567.604287 
L 1017.499089 575.533798 
L 1018.660782 575.975469 
L 1019.822476 580.108795 
L 1020.984169 584.720058 
L 1022.145862 581.292932 
L 1023.307556 579.003447 
L 1024.469249 583.275786 
L 1025.630942 580.116727 
L 1026.792635 587.076531 
L 1027.954329 589.064707 
L 1029.116022 585.86134 
L 1030.277715 574.24805 
L 1031.439408 571.014287 
L 1032.601102 576.277386 
L 1033.762795 572.459769 
L 1034.924488 577.56252 
L 1037.247875 565.996916 
L 1038.409568 570.364179 
L 1039.571261 564.00245 
L 1040.732955 566.655619 
L 1040.732955 566.655619 
" style="fill:none;stroke:#000000;stroke-linecap:square;stroke-width:2.8;"/>
   </g>
   <g id="patch_9">
    <path d="M 81.9875 675.98 
L 81.9875 480.309412 
" style="fill:none;stroke:#000000;stroke-linecap:square;stroke-linejoin:miter;stroke-width:0.8;"/>
   </g>
   <g id="patch_10">
    <path d="M 81.9875 675.98 
L 1086.3875 675.98 
" style="fill:none;stroke:#000000;stroke-linecap:square;stroke-linejoin:miter;stroke-width:0.8;"/>
   </g>
  </g>
 </g>
 <defs>
  <clipPath id="pfd12b22cba">
   <rect height="195.670588" width="1004.4" x="81.9875" y="10.7"/>
  </clipPath>
  <clipPath id="p9770aa2316">
   <rect height="195.670588" width="1004.4" x="81.9875" y="245.504706"/>
  </clipPath>
  <clipPath id="p8db2f7a794">
   <rect height="195.670588" width="1004.4" x="81.9875" y="480.309412"/>
  </clipPath>
 </defs>
</svg>
