<?xml version="1.0" encoding="utf-8" standalone="no"?>
<!DOCTYPE svg PUBLIC "-//W3C//DTD SVG 1.1//EN"
  "http://www.w3.org/Graphics/SVG/1.1/DTD/svg11.dtd">
<!-- Created with matplotlib (http://matplotlib.org/) -->
<svg height="530.6305pt" version="1.1" viewBox="0 0 779.84 530.6305" width="779.84pt" xmlns="http://www.w3.org/2000/svg" xmlns:xlink="http://www.w3.org/1999/xlink">
 <defs>
  <style type="text/css">
*{stroke-linecap:butt;stroke-linejoin:round;}
  </style>
 </defs>
 <g id="figure_1">
  <g id="patch_1">
   <path d="M 0 530.6305 
L 779.84 530.6305 
L 779.84 0 
L 0 0 
z
" style="fill:#ffffff;"/>
  </g>
  <g id="axes_1">
   <g id="patch_2">
    <path d="M 54.9 491.963 
L 769.14 491.963 
L 769.14 13.595 
L 54.9 13.595 
z
" style="fill:#ffffff;"/>
   </g>
   <g id="matplotlib.axis_1">
    <g id="xtick_1">
     <g id="line2d_1">
      <defs>
       <path d="M 0 0 
L 0 3.5 
" id="mbb8dea9502" style="stroke:#000000;stroke-width:1.6;"/>
      </defs>
      <g>
       <use style="stroke:#000000;stroke-width:1.6;" x="144.365871" xlink:href="#mbb8dea9502" y="491.963"/>
      </g>
     </g>
     <g id="text_1">
      <!-- 1959 -->
      <defs>
       <path d="M 52.59375 0 
L 9.234375 0 
L 9.234375 8.25 
L 26.171875 8.25 
L 26.171875 65.671875 
L 8.796875 60.640625 
L 8.796875 69.4375 
L 35.6875 77.25 
L 35.6875 8.25 
L 52.59375 8.25 
z
" id="MicrosoftYaHei-31"/>
       <path d="M 9.03125 10.25 
Q 15.28125 6.640625 22.515625 6.640625 
Q 32.671875 6.640625 38.25 14.640625 
Q 43.84375 22.65625 43.84375 37.40625 
Q 43.75 37.3125 43.65625 37.40625 
Q 38.671875 27.9375 26.90625 27.9375 
Q 17.390625 27.9375 11.140625 34.46875 
Q 4.890625 41.015625 4.890625 51.46875 
Q 4.890625 62.59375 11.71875 69.75 
Q 18.5625 76.90625 29.4375 76.90625 
Q 40.71875 76.90625 47.0625 68.046875 
Q 53.421875 59.1875 53.421875 42.234375 
Q 53.421875 21.296875 45.21875 10.015625 
Q 37.015625 -1.265625 22.515625 -1.265625 
Q 14.546875 -1.265625 9.03125 1.3125 
z
M 14.546875 52.6875 
Q 14.546875 45.0625 18.453125 40.59375 
Q 22.359375 36.140625 29.25 36.140625 
Q 35.203125 36.140625 39.25 40.203125 
Q 43.3125 44.28125 43.3125 50.09375 
Q 43.3125 58.25 39.28125 63.59375 
Q 35.25 68.953125 28.65625 68.953125 
Q 22.5625 68.953125 18.546875 64.3125 
Q 14.546875 59.671875 14.546875 52.6875 
z
" id="MicrosoftYaHei-39"/>
       <path d="M 8.640625 11.625 
Q 16.265625 6.640625 24.515625 6.640625 
Q 32.328125 6.640625 37.109375 11 
Q 41.890625 15.375 41.890625 22.609375 
Q 41.890625 29.890625 37.03125 33.890625 
Q 32.171875 37.890625 22.953125 37.890625 
Q 18.5 37.890625 10.984375 37.203125 
L 10.984375 75.640625 
L 48.1875 75.640625 
L 48.1875 67.1875 
L 19.875 67.1875 
L 19.875 45.796875 
Q 24.125 46.046875 26.265625 46.046875 
Q 38.234375 46.046875 44.921875 39.984375 
Q 51.609375 33.9375 51.609375 23.296875 
Q 51.609375 12.3125 44.421875 5.515625 
Q 37.25 -1.265625 24.609375 -1.265625 
Q 14.015625 -1.265625 8.640625 1.859375 
z
" id="MicrosoftYaHei-35"/>
      </defs>
      <g transform="translate(125.600871 519.453)scale(0.16 -0.16)">
       <use xlink:href="#MicrosoftYaHei-31"/>
       <use x="58.642578" xlink:href="#MicrosoftYaHei-39"/>
       <use x="117.285156" xlink:href="#MicrosoftYaHei-35"/>
       <use x="175.927734" xlink:href="#MicrosoftYaHei-39"/>
      </g>
     </g>
    </g>
    <g id="xtick_2">
     <g id="line2d_2">
      <g>
       <use style="stroke:#000000;stroke-width:1.6;" x="243.49703" xlink:href="#mbb8dea9502" y="491.963"/>
      </g>
     </g>
     <g id="text_2">
      <!-- 1969 -->
      <defs>
       <path d="M 49.703125 65.921875 
Q 43.796875 68.953125 37.359375 68.953125 
Q 27.546875 68.953125 21.578125 60.40625 
Q 15.625 51.859375 15.53125 37.0625 
L 15.765625 37.0625 
Q 21.140625 47.46875 32.90625 47.46875 
Q 42.71875 47.46875 48.578125 41.0625 
Q 54.4375 34.671875 54.4375 24.078125 
Q 54.4375 12.984375 47.671875 5.859375 
Q 40.921875 -1.265625 30.421875 -1.265625 
Q 18.890625 -1.265625 12.328125 7.734375 
Q 5.765625 16.75 5.765625 33.296875 
Q 5.765625 53.328125 14.375 65.109375 
Q 23 76.90625 37.0625 76.90625 
Q 45.125 76.90625 49.703125 74.703125 
z
M 16.109375 24.75 
Q 16.109375 17.28125 20.09375 11.953125 
Q 24.078125 6.640625 30.671875 6.640625 
Q 36.921875 6.640625 40.828125 11.234375 
Q 44.734375 15.828125 44.734375 23.046875 
Q 44.734375 30.859375 41.046875 35.203125 
Q 37.359375 39.546875 30.5625 39.546875 
Q 24.125 39.546875 20.109375 35.15625 
Q 16.109375 30.765625 16.109375 24.75 
z
" id="MicrosoftYaHei-36"/>
      </defs>
      <g transform="translate(224.73203 519.453)scale(0.16 -0.16)">
       <use xlink:href="#MicrosoftYaHei-31"/>
       <use x="58.642578" xlink:href="#MicrosoftYaHei-39"/>
       <use x="117.285156" xlink:href="#MicrosoftYaHei-36"/>
       <use x="175.927734" xlink:href="#MicrosoftYaHei-39"/>
      </g>
     </g>
    </g>
    <g id="xtick_3">
     <g id="line2d_3">
      <g>
       <use style="stroke:#000000;stroke-width:1.6;" x="342.628189" xlink:href="#mbb8dea9502" y="491.963"/>
      </g>
     </g>
     <g id="text_3">
      <!-- 1979 -->
      <defs>
       <path d="M 53.765625 72.3125 
L 24.171875 0 
L 14.265625 0 
L 42.390625 67.1875 
L 4.59375 67.1875 
L 4.59375 75.640625 
L 53.765625 75.640625 
z
" id="MicrosoftYaHei-37"/>
      </defs>
      <g transform="translate(323.863189 519.453)scale(0.16 -0.16)">
       <use xlink:href="#MicrosoftYaHei-31"/>
       <use x="58.642578" xlink:href="#MicrosoftYaHei-39"/>
       <use x="117.285156" xlink:href="#MicrosoftYaHei-37"/>
       <use x="175.927734" xlink:href="#MicrosoftYaHei-39"/>
      </g>
     </g>
    </g>
    <g id="xtick_4">
     <g id="line2d_4">
      <g>
       <use style="stroke:#000000;stroke-width:1.6;" x="441.759348" xlink:href="#mbb8dea9502" y="491.963"/>
      </g>
     </g>
     <g id="text_4">
      <!-- 1989 -->
      <defs>
       <path d="M 21.390625 39.796875 
Q 7.859375 46.09375 7.859375 58.0625 
Q 7.859375 66.40625 14.203125 71.65625 
Q 20.5625 76.90625 30.421875 76.90625 
Q 39.453125 76.90625 45.3125 71.96875 
Q 51.171875 67.046875 51.171875 59.234375 
Q 51.171875 46.625 37.0625 39.84375 
L 37.0625 39.65625 
Q 53.609375 33.6875 53.609375 19.34375 
Q 53.609375 9.90625 46.796875 4.3125 
Q 39.984375 -1.265625 27.78125 -1.265625 
Q 17.78125 -1.265625 11.46875 4.25 
Q 5.171875 9.765625 5.171875 18.5625 
Q 5.171875 33.015625 21.390625 39.59375 
z
M 41.5 58.109375 
Q 41.5 63.1875 38.328125 66.109375 
Q 35.15625 69.046875 29.734375 69.046875 
Q 24.65625 69.046875 21.09375 65.984375 
Q 17.53125 62.9375 17.53125 58.203125 
Q 17.53125 48.734375 29.390625 43.796875 
Q 41.5 48.828125 41.5 58.109375 
z
M 28.8125 35.25 
Q 14.796875 29.59375 14.796875 19.046875 
Q 14.796875 13.578125 18.890625 10.0625 
Q 23 6.546875 29.59375 6.546875 
Q 35.984375 6.546875 39.984375 10.03125 
Q 44 13.53125 44 18.75 
Q 44 29.734375 28.8125 35.25 
z
" id="MicrosoftYaHei-38"/>
      </defs>
      <g transform="translate(422.994348 519.453)scale(0.16 -0.16)">
       <use xlink:href="#MicrosoftYaHei-31"/>
       <use x="58.642578" xlink:href="#MicrosoftYaHei-39"/>
       <use x="117.285156" xlink:href="#MicrosoftYaHei-38"/>
       <use x="175.927734" xlink:href="#MicrosoftYaHei-39"/>
      </g>
     </g>
    </g>
    <g id="xtick_5">
     <g id="line2d_5">
      <g>
       <use style="stroke:#000000;stroke-width:1.6;" x="540.890507" xlink:href="#mbb8dea9502" y="491.963"/>
      </g>
     </g>
     <g id="text_5">
      <!-- 1999 -->
      <g transform="translate(522.125507 519.453)scale(0.16 -0.16)">
       <use xlink:href="#MicrosoftYaHei-31"/>
       <use x="58.642578" xlink:href="#MicrosoftYaHei-39"/>
       <use x="117.285156" xlink:href="#MicrosoftYaHei-39"/>
       <use x="175.927734" xlink:href="#MicrosoftYaHei-39"/>
      </g>
     </g>
    </g>
    <g id="xtick_6">
     <g id="line2d_6">
      <g>
       <use style="stroke:#000000;stroke-width:1.6;" x="640.021666" xlink:href="#mbb8dea9502" y="491.963"/>
      </g>
     </g>
     <g id="text_6">
      <!-- 2009 -->
      <defs>
       <path d="M 51.171875 0 
L 5.171875 0 
L 5.171875 8.296875 
L 27.15625 30.21875 
Q 36.234375 39.3125 39.3125 44.609375 
Q 42.390625 49.90625 42.390625 55.5625 
Q 42.390625 62.015625 38.765625 65.453125 
Q 35.15625 68.890625 28.328125 68.890625 
Q 18.21875 68.890625 9.03125 60.296875 
L 9.03125 70.015625 
Q 17.96875 76.90625 29.828125 76.90625 
Q 40.046875 76.90625 45.953125 71.390625 
Q 51.859375 65.875 51.859375 56.546875 
Q 51.859375 49.515625 48.0625 42.75 
Q 44.28125 35.984375 33.734375 25.53125 
L 16.5 8.6875 
L 16.5 8.5 
L 51.171875 8.5 
z
" id="MicrosoftYaHei-32"/>
       <path d="M 4.4375 36.328125 
Q 4.4375 56.34375 11.078125 66.625 
Q 17.71875 76.90625 30.328125 76.90625 
Q 54.34375 76.90625 54.34375 38.140625 
Q 54.34375 19 47.578125 8.859375 
Q 40.828125 -1.265625 28.609375 -1.265625 
Q 17.09375 -1.265625 10.765625 8.34375 
Q 4.4375 17.96875 4.4375 36.328125 
z
M 14.203125 36.765625 
Q 14.203125 6.640625 29.5 6.640625 
Q 44.53125 6.640625 44.53125 37.25 
Q 44.53125 68.953125 29.78125 68.953125 
Q 14.203125 68.953125 14.203125 36.765625 
z
" id="MicrosoftYaHei-30"/>
      </defs>
      <g transform="translate(621.256666 519.453)scale(0.16 -0.16)">
       <use xlink:href="#MicrosoftYaHei-32"/>
       <use x="58.642578" xlink:href="#MicrosoftYaHei-30"/>
       <use x="117.285156" xlink:href="#MicrosoftYaHei-30"/>
       <use x="175.927734" xlink:href="#MicrosoftYaHei-39"/>
      </g>
     </g>
    </g>
    <g id="xtick_7">
     <g id="line2d_7">
      <g>
       <use style="stroke:#000000;stroke-width:1.6;" x="739.152824" xlink:href="#mbb8dea9502" y="491.963"/>
      </g>
     </g>
     <g id="text_7">
      <!-- 2019 -->
      <g transform="translate(720.387824 519.453)scale(0.16 -0.16)">
       <use xlink:href="#MicrosoftYaHei-32"/>
       <use x="58.642578" xlink:href="#MicrosoftYaHei-30"/>
       <use x="117.285156" xlink:href="#MicrosoftYaHei-31"/>
       <use x="175.927734" xlink:href="#MicrosoftYaHei-39"/>
      </g>
     </g>
    </g>
    <g id="xtick_8">
     <g id="line2d_8">
      <defs>
       <path d="M 0 0 
L 0 2 
" id="m327d6dacbd" style="stroke:#000000;stroke-width:0.8;"/>
      </defs>
      <g>
       <use style="stroke:#000000;stroke-width:0.8;" x="94.800291" xlink:href="#m327d6dacbd" y="491.963"/>
      </g>
     </g>
    </g>
    <g id="xtick_9">
     <g id="line2d_9">
      <g>
       <use style="stroke:#000000;stroke-width:0.8;" x="144.365871" xlink:href="#m327d6dacbd" y="491.963"/>
      </g>
     </g>
    </g>
    <g id="xtick_10">
     <g id="line2d_10">
      <g>
       <use style="stroke:#000000;stroke-width:0.8;" x="193.93145" xlink:href="#m327d6dacbd" y="491.963"/>
      </g>
     </g>
    </g>
    <g id="xtick_11">
     <g id="line2d_11">
      <g>
       <use style="stroke:#000000;stroke-width:0.8;" x="243.49703" xlink:href="#m327d6dacbd" y="491.963"/>
      </g>
     </g>
    </g>
    <g id="xtick_12">
     <g id="line2d_12">
      <g>
       <use style="stroke:#000000;stroke-width:0.8;" x="293.062609" xlink:href="#m327d6dacbd" y="491.963"/>
      </g>
     </g>
    </g>
    <g id="xtick_13">
     <g id="line2d_13">
      <g>
       <use style="stroke:#000000;stroke-width:0.8;" x="342.628189" xlink:href="#m327d6dacbd" y="491.963"/>
      </g>
     </g>
    </g>
    <g id="xtick_14">
     <g id="line2d_14">
      <g>
       <use style="stroke:#000000;stroke-width:0.8;" x="392.193768" xlink:href="#m327d6dacbd" y="491.963"/>
      </g>
     </g>
    </g>
    <g id="xtick_15">
     <g id="line2d_15">
      <g>
       <use style="stroke:#000000;stroke-width:0.8;" x="441.759348" xlink:href="#m327d6dacbd" y="491.963"/>
      </g>
     </g>
    </g>
    <g id="xtick_16">
     <g id="line2d_16">
      <g>
       <use style="stroke:#000000;stroke-width:0.8;" x="491.324927" xlink:href="#m327d6dacbd" y="491.963"/>
      </g>
     </g>
    </g>
    <g id="xtick_17">
     <g id="line2d_17">
      <g>
       <use style="stroke:#000000;stroke-width:0.8;" x="540.890507" xlink:href="#m327d6dacbd" y="491.963"/>
      </g>
     </g>
    </g>
    <g id="xtick_18">
     <g id="line2d_18">
      <g>
       <use style="stroke:#000000;stroke-width:0.8;" x="590.456086" xlink:href="#m327d6dacbd" y="491.963"/>
      </g>
     </g>
    </g>
    <g id="xtick_19">
     <g id="line2d_19">
      <g>
       <use style="stroke:#000000;stroke-width:0.8;" x="640.021666" xlink:href="#m327d6dacbd" y="491.963"/>
      </g>
     </g>
    </g>
    <g id="xtick_20">
     <g id="line2d_20">
      <g>
       <use style="stroke:#000000;stroke-width:0.8;" x="689.587245" xlink:href="#m327d6dacbd" y="491.963"/>
      </g>
     </g>
    </g>
    <g id="xtick_21">
     <g id="line2d_21">
      <g>
       <use style="stroke:#000000;stroke-width:0.8;" x="739.152824" xlink:href="#m327d6dacbd" y="491.963"/>
      </g>
     </g>
    </g>
   </g>
   <g id="matplotlib.axis_2">
    <g id="ytick_1">
     <g id="line2d_22">
      <defs>
       <path d="M 0 0 
L -3.5 0 
" id="mc5a5109534" style="stroke:#000000;stroke-width:1.6;"/>
      </defs>
      <g>
       <use style="stroke:#000000;stroke-width:1.6;" x="54.9" xlink:href="#mc5a5109534" y="491.963"/>
      </g>
     </g>
     <g id="text_8">
      <!-- 0% -->
      <defs>
       <path d="M 4.25 56.546875 
Q 4.25 65.828125 9.203125 71.296875 
Q 14.15625 76.765625 22.5625 76.765625 
Q 30.609375 76.765625 35.125 71.734375 
Q 39.65625 66.703125 39.65625 57.71875 
Q 39.65625 48.78125 34.671875 43.203125 
Q 29.6875 37.640625 21.4375 37.640625 
Q 13.625 37.640625 8.9375 42.8125 
Q 4.25 48 4.25 56.546875 
z
M 11.765625 57.03125 
Q 11.765625 50.734375 14.5 47.3125 
Q 17.234375 43.890625 21.96875 43.890625 
Q 26.859375 43.890625 29.515625 47.4375 
Q 32.171875 50.984375 32.171875 57.421875 
Q 32.171875 63.71875 29.5625 67.15625 
Q 26.953125 70.609375 22.21875 70.609375 
Q 17.390625 70.609375 14.578125 67.015625 
Q 11.765625 63.421875 11.765625 57.03125 
z
M 72.609375 75.640625 
L 24.03125 -0.484375 
L 15.875 -0.484375 
L 64.453125 75.640625 
z
M 49.5625 17.71875 
Q 49.5625 27 54.515625 32.546875 
Q 59.46875 38.09375 67.828125 38.09375 
Q 75.828125 38.09375 80.359375 33.03125 
Q 84.90625 27.984375 84.90625 18.796875 
Q 84.90625 9.90625 79.875 4.359375 
Q 74.859375 -1.171875 66.75 -1.171875 
Q 58.890625 -1.171875 54.21875 4.078125 
Q 49.5625 9.328125 49.5625 17.71875 
z
M 57.03125 18.171875 
Q 57.03125 12.015625 59.765625 8.5625 
Q 62.5 5.125 67.234375 5.125 
Q 72.125 5.125 74.78125 8.6875 
Q 77.4375 12.25 77.4375 18.65625 
Q 77.4375 25 74.78125 28.359375 
Q 72.125 31.734375 67.484375 31.734375 
Q 62.5 31.734375 59.765625 28.140625 
Q 57.03125 24.5625 57.03125 18.171875 
z
" id="MicrosoftYaHei-25"/>
      </defs>
      <g transform="translate(16.5825 498.358)scale(0.16 -0.16)">
       <use xlink:href="#MicrosoftYaHei-30"/>
       <use x="58.642578" xlink:href="#MicrosoftYaHei-25"/>
      </g>
     </g>
    </g>
    <g id="ytick_2">
     <g id="line2d_23">
      <g>
       <use style="stroke:#000000;stroke-width:1.6;" x="54.9" xlink:href="#mc5a5109534" y="432.167"/>
      </g>
     </g>
     <g id="text_9">
      <!-- 2% -->
      <g transform="translate(16.5825 438.562)scale(0.16 -0.16)">
       <use xlink:href="#MicrosoftYaHei-32"/>
       <use x="58.642578" xlink:href="#MicrosoftYaHei-25"/>
      </g>
     </g>
    </g>
    <g id="ytick_3">
     <g id="line2d_24">
      <g>
       <use style="stroke:#000000;stroke-width:1.6;" x="54.9" xlink:href="#mc5a5109534" y="372.371"/>
      </g>
     </g>
     <g id="text_10">
      <!-- 4% -->
      <defs>
       <path d="M 55.078125 19.625 
L 45.40625 19.625 
L 45.40625 0 
L 36.140625 0 
L 36.140625 19.625 
L 0.875 19.625 
L 0.875 25.828125 
L 34.328125 75.640625 
L 45.40625 75.640625 
L 45.40625 27.203125 
L 55.078125 27.203125 
z
M 36.140625 27.203125 
L 36.140625 58.890625 
Q 36.140625 62.25 36.328125 66.65625 
L 36.140625 66.65625 
Q 35.453125 64.796875 33.25 60.84375 
L 10.75 27.203125 
z
" id="MicrosoftYaHei-34"/>
      </defs>
      <g transform="translate(16.5825 378.766)scale(0.16 -0.16)">
       <use xlink:href="#MicrosoftYaHei-34"/>
       <use x="58.642578" xlink:href="#MicrosoftYaHei-25"/>
      </g>
     </g>
    </g>
    <g id="ytick_4">
     <g id="line2d_25">
      <g>
       <use style="stroke:#000000;stroke-width:1.6;" x="54.9" xlink:href="#mc5a5109534" y="312.575"/>
      </g>
     </g>
     <g id="text_11">
      <!-- 6% -->
      <g transform="translate(16.5825 318.97)scale(0.16 -0.16)">
       <use xlink:href="#MicrosoftYaHei-36"/>
       <use x="58.642578" xlink:href="#MicrosoftYaHei-25"/>
      </g>
     </g>
    </g>
    <g id="ytick_5">
     <g id="line2d_26">
      <g>
       <use style="stroke:#000000;stroke-width:1.6;" x="54.9" xlink:href="#mc5a5109534" y="252.779"/>
      </g>
     </g>
     <g id="text_12">
      <!-- 8% -->
      <g transform="translate(16.5825 259.174)scale(0.16 -0.16)">
       <use xlink:href="#MicrosoftYaHei-38"/>
       <use x="58.642578" xlink:href="#MicrosoftYaHei-25"/>
      </g>
     </g>
    </g>
    <g id="ytick_6">
     <g id="line2d_27">
      <g>
       <use style="stroke:#000000;stroke-width:1.6;" x="54.9" xlink:href="#mc5a5109534" y="192.983"/>
      </g>
     </g>
     <g id="text_13">
      <!-- 10% -->
      <g transform="translate(7.2 199.378)scale(0.16 -0.16)">
       <use xlink:href="#MicrosoftYaHei-31"/>
       <use x="58.642578" xlink:href="#MicrosoftYaHei-30"/>
       <use x="117.285156" xlink:href="#MicrosoftYaHei-25"/>
      </g>
     </g>
    </g>
    <g id="ytick_7">
     <g id="line2d_28">
      <g>
       <use style="stroke:#000000;stroke-width:1.6;" x="54.9" xlink:href="#mc5a5109534" y="133.187"/>
      </g>
     </g>
     <g id="text_14">
      <!-- 12% -->
      <g transform="translate(7.2 139.582)scale(0.16 -0.16)">
       <use xlink:href="#MicrosoftYaHei-31"/>
       <use x="58.642578" xlink:href="#MicrosoftYaHei-32"/>
       <use x="117.285156" xlink:href="#MicrosoftYaHei-25"/>
      </g>
     </g>
    </g>
    <g id="ytick_8">
     <g id="line2d_29">
      <g>
       <use style="stroke:#000000;stroke-width:1.6;" x="54.9" xlink:href="#mc5a5109534" y="73.391"/>
      </g>
     </g>
     <g id="text_15">
      <!-- 14% -->
      <g transform="translate(7.2 79.786)scale(0.16 -0.16)">
       <use xlink:href="#MicrosoftYaHei-31"/>
       <use x="58.642578" xlink:href="#MicrosoftYaHei-34"/>
       <use x="117.285156" xlink:href="#MicrosoftYaHei-25"/>
      </g>
     </g>
    </g>
    <g id="ytick_9">
     <g id="line2d_30">
      <g>
       <use style="stroke:#000000;stroke-width:1.6;" x="54.9" xlink:href="#mc5a5109534" y="13.595"/>
      </g>
     </g>
     <g id="text_16">
      <!-- 16% -->
      <g transform="translate(7.2 19.99)scale(0.16 -0.16)">
       <use xlink:href="#MicrosoftYaHei-31"/>
       <use x="58.642578" xlink:href="#MicrosoftYaHei-36"/>
       <use x="117.285156" xlink:href="#MicrosoftYaHei-25"/>
      </g>
     </g>
    </g>
   </g>
   <g id="line2d_31">
    <path clip-path="url(#p06a271b026)" d="M 87.365455 407.35166 
L 88.191548 400.7741 
L 89.017641 398.98022 
L 89.843734 404.36186 
L 90.669827 403.7639 
L 91.49592 406.15574 
L 92.322012 412.43432 
L 93.148105 411.83636 
L 93.974198 414.52718 
L 94.800291 417.81596 
L 95.626384 418.11494 
L 96.452477 421.10474 
L 97.27857 423.49658 
L 98.104663 421.10474 
L 98.930756 420.80576 
L 99.756849 423.1976 
L 100.582942 421.40372 
L 101.409035 420.80576 
L 103.061221 417.81596 
L 103.887314 416.91902 
L 104.713407 413.92922 
L 105.5395 412.7333 
L 106.365593 411.83636 
L 107.191686 409.7435 
L 108.017779 409.44452 
L 108.843872 408.84656 
L 109.669965 405.2588 
L 110.496058 403.16594 
L 111.322151 403.16594 
L 112.148244 405.85676 
L 112.974337 405.55778 
L 113.80043 403.46492 
L 115.452616 407.05268 
L 116.278709 403.46492 
L 117.104802 396.88736 
L 117.930895 400.17614 
L 118.756988 402.269 
L 119.583081 398.98022 
L 120.409174 392.40266 
L 121.235267 390.90776 
L 122.06136 392.10368 
L 122.887453 387.61898 
L 123.713546 384.62918 
L 125.365732 392.10368 
L 127.017918 387.91796 
L 127.844011 384.3302 
L 128.670104 378.3506 
L 129.496197 374.46386 
L 130.32229 374.46386 
L 131.148383 374.76284 
L 131.974476 373.26794 
L 132.800569 380.74244 
L 133.626662 395.99042 
L 134.452755 399.57818 
L 135.278848 400.7741 
L 136.104941 402.86696 
L 136.931034 405.85676 
L 137.757127 404.66084 
L 138.58322 403.16594 
L 139.409313 396.2894 
L 140.235406 386.12408 
L 141.061499 379.54652 
L 141.887592 378.3506 
L 142.713685 380.14448 
L 143.539778 376.55672 
L 144.365871 371.77304 
L 145.191964 373.56692 
L 146.018057 372.66998 
L 146.84415 368.78324 
L 147.670243 363.10262 
L 148.496336 362.20568 
L 149.322429 360.4118 
L 150.148522 359.51486 
L 150.974615 352.04036 
L 151.800708 356.52506 
L 152.626801 356.52506 
L 153.452894 351.74138 
L 154.278987 350.84444 
L 155.931173 364.8965 
L 156.757266 363.99956 
L 157.583359 361.9067 
L 158.409452 367.8863 
L 159.235545 375.3608 
L 160.061638 378.3506 
L 160.887731 378.3506 
L 161.713824 375.65978 
L 162.539917 374.46386 
L 163.36601 377.15468 
L 164.192103 377.15468 
L 165.018196 378.94856 
L 165.844289 380.14448 
L 166.670382 378.94856 
L 167.496475 381.04142 
L 168.322568 375.95876 
L 169.148661 374.76284 
L 169.974754 371.17508 
L 171.62694 374.76284 
L 172.453033 374.16488 
L 173.279126 370.57712 
L 174.105219 369.3812 
L 174.931312 372.371 
L 175.757405 376.55672 
L 176.583498 376.55672 
L 177.409591 375.3608 
L 178.235684 372.371 
L 179.061777 371.17508 
L 179.88787 373.56692 
L 181.540056 374.76284 
L 182.366149 374.76284 
L 183.192241 376.8557 
L 184.018334 376.25774 
L 184.844427 374.16488 
L 185.67052 373.8659 
L 186.496613 373.8659 
L 187.322706 373.56692 
L 188.148799 372.371 
L 188.974892 372.371 
L 189.800985 371.77304 
L 190.627078 370.27814 
L 191.453171 367.8863 
L 192.279264 369.97916 
L 193.105357 368.18528 
L 193.93145 367.8863 
L 194.757543 366.98936 
L 195.583636 365.49446 
L 196.409729 365.79344 
L 197.235822 366.69038 
L 198.061915 367.8863 
L 198.888008 366.69038 
L 199.714101 366.09242 
L 200.540194 366.98936 
L 201.366287 367.58732 
L 202.19238 366.3914 
L 203.018473 366.09242 
L 203.844566 366.69038 
L 204.670659 365.79344 
L 205.496752 366.3914 
L 206.322845 366.09242 
L 207.148938 365.49446 
L 207.975031 366.3914 
L 208.801124 365.79344 
L 209.627217 364.29854 
L 210.45331 361.9067 
L 211.279403 360.11282 
L 212.105496 358.01996 
L 212.931589 352.9373 
L 213.757682 351.74138 
L 214.583775 341.87504 
L 215.409868 351.14342 
L 216.235961 348.75158 
L 217.062054 348.4526 
L 217.888147 343.36994 
L 218.71424 340.9781 
L 219.540333 331.70972 
L 220.366426 341.87504 
L 221.192519 343.36994 
L 222.018612 338.88524 
L 222.844705 353.23628 
L 223.670798 356.82404 
L 224.496891 350.84444 
L 225.322984 357.422 
L 226.149077 349.05056 
L 226.97517 348.15362 
L 227.801263 335.89544 
L 228.627356 337.68932 
L 229.453449 334.40054 
L 230.279542 333.20462 
L 231.105635 323.33828 
L 231.931728 320.34848 
L 232.757821 321.5444 
L 233.583914 326.32808 
L 234.410007 325.73012 
L 235.2361 319.75052 
L 236.062193 320.34848 
L 236.888286 316.76072 
L 237.714379 323.33828 
L 238.540472 330.81278 
L 239.366565 329.91584 
L 240.192658 327.82298 
L 241.018751 324.23522 
L 241.844844 319.15256 
L 242.670937 307.79132 
L 243.49703 306.89438 
L 244.323123 304.80152 
L 245.149216 303.6056 
L 245.975309 306.5954 
L 246.801402 295.83212 
L 247.627495 290.74946 
L 248.453588 292.84232 
L 249.279681 287.75966 
L 250.105774 267.42902 
L 250.931867 284.47088 
L 251.75796 274.00658 
L 252.584053 256.36676 
L 253.410146 260.2535 
L 254.236239 285.6668 
L 255.062332 280.28516 
L 255.888425 258.16064 
L 256.714518 254.2739 
L 258.366704 271.31576 
L 259.192797 268.02698 
L 260.01889 274.00658 
L 260.844983 272.81066 
L 261.671076 297.92498 
L 262.497169 297.626 
L 263.323262 309.88418 
L 264.149355 308.38928 
L 264.975448 326.62706 
L 265.801541 310.18316 
L 267.453727 291.6464 
L 268.27982 287.1617 
L 269.105913 304.20356 
L 269.932006 312.575 
L 270.758099 316.46174 
L 271.584192 314.66786 
L 272.410285 315.86378 
L 273.236378 309.88418 
L 274.062471 311.37908 
L 274.888563 308.98724 
L 275.714656 308.38928 
L 276.540749 311.0801 
L 277.366842 308.0903 
L 278.192935 308.98724 
L 279.019028 300.01784 
L 279.845121 296.43008 
L 281.497307 304.20356 
L 283.149493 296.43008 
L 284.801679 290.74946 
L 285.627772 291.6464 
L 286.453865 284.76986 
L 287.279958 284.47088 
L 288.106051 269.82086 
L 288.932144 275.2025 
L 289.758237 285.6668 
L 290.58433 291.34742 
L 291.410423 291.94538 
L 292.236516 285.6668 
L 293.062609 282.677 
L 293.888702 282.37802 
L 294.714795 270.41882 
L 295.540888 262.94432 
L 296.366981 267.13004 
L 297.193074 263.54228 
L 298.84526 249.49022 
L 300.497446 259.05758 
L 301.323539 263.54228 
L 302.149632 270.7178 
L 302.975725 266.83106 
L 303.801818 268.92392 
L 304.627911 252.48002 
L 305.454004 243.51062 
L 306.280097 251.58308 
L 307.10619 253.97492 
L 307.932283 246.7994 
L 308.758376 246.20144 
L 309.584469 238.42796 
L 310.410562 255.46982 
L 311.236655 248.59328 
L 312.062748 259.95452 
L 312.888841 258.7586 
L 313.714934 259.65554 
L 314.541027 262.94432 
L 315.36712 262.64534 
L 316.193213 253.97492 
L 317.019306 256.96472 
L 317.845399 256.96472 
L 318.671492 262.94432 
L 319.497585 266.2331 
L 320.323678 270.11984 
L 321.149771 282.37802 
L 321.975864 288.35762 
L 322.801957 270.7178 
L 323.62805 269.2229 
L 324.454143 270.11984 
L 325.280236 269.2229 
L 326.106329 271.31576 
L 326.932422 276.6974 
L 327.758515 270.11984 
L 328.584608 274.30556 
L 329.410701 270.41882 
L 330.236794 264.14024 
L 331.062887 266.2331 
L 331.88898 259.35656 
L 332.715073 254.57288 
L 335.193352 245.60348 
L 336.845538 234.24224 
L 337.671631 236.03612 
L 338.497724 241.11878 
L 339.323817 236.03612 
L 340.14991 224.07692 
L 340.976003 227.06672 
L 341.802096 218.3963 
L 342.628189 224.3759 
L 343.454282 217.79834 
L 344.280375 219.59222 
L 345.106468 212.4167 
L 345.932561 221.08712 
L 346.758654 228.56162 
L 347.584747 222.58202 
L 349.236933 209.72588 
L 350.063026 171.45644 
L 350.889119 181.62176 
L 351.715212 183.11666 
L 352.541305 159.19826 
L 353.367398 111.66044 
L 354.193491 114.05228 
L 355.019584 170.26052 
L 355.845677 185.5085 
L 356.67177 190.29218 
L 357.497863 170.26052 
L 358.323956 146.6411 
L 359.150049 137.37272 
L 359.976142 119.43392 
L 360.802235 111.66044 
L 361.628328 120.33086 
L 362.454421 112.85636 
L 363.280514 90.43286 
L 364.106607 99.40226 
L 364.9327 70.10222 
L 365.758793 88.34 
L 366.584885 77.57672 
L 368.237071 31.23482 
L 369.063164 18.37868 
L 369.889257 54.55526 
L 370.71535 99.40226 
L 371.541443 73.98896 
L 372.367536 69.20528 
L 373.193629 72.49406 
L 374.019722 68.00936 
L 374.845815 77.27774 
L 375.671908 82.06142 
L 376.498001 60.23588 
L 377.324094 82.95836 
L 378.150187 108.96962 
L 379.802373 171.75542 
L 380.628466 169.36358 
L 381.454559 182.21972 
L 382.280652 169.0646 
L 383.106745 184.91054 
L 383.932838 174.44624 
L 384.758931 184.91054 
L 385.585024 168.76562 
L 386.411117 164.28092 
L 387.23721 140.36252 
L 388.063303 133.78496 
L 388.889396 149.92988 
L 389.715489 140.96048 
L 390.541582 144.24926 
L 391.367675 138.56864 
L 392.193768 143.05334 
L 393.019861 131.99108 
L 393.845954 117.34106 
L 394.672047 108.67064 
L 395.49814 76.08182 
L 396.324233 78.17468 
L 397.150326 105.97982 
L 397.976419 109.56758 
L 398.802512 119.13494 
L 399.628605 139.46558 
L 400.454698 145.74416 
L 401.280791 146.6411 
L 402.106884 158.00234 
L 402.932977 135.87782 
L 404.585163 150.82682 
L 405.411256 184.61156 
L 406.237349 185.5085 
L 407.063442 175.94114 
L 407.889535 184.61156 
L 408.715628 183.71462 
L 409.541721 192.68402 
L 410.367814 205.24118 
L 411.193907 222.881 
L 412.02 220.48916 
L 412.846093 248.89226 
L 413.672186 271.01678 
L 414.498279 271.31576 
L 415.324372 251.2841 
L 416.150465 272.2127 
L 416.976558 272.51168 
L 417.802651 284.1719 
L 418.628744 269.2229 
L 419.454837 272.51168 
L 420.28093 278.1923 
L 421.107023 275.80046 
L 421.933116 277.29536 
L 422.759209 276.99638 
L 423.585302 267.42902 
L 424.411395 246.50042 
L 425.237488 238.12898 
L 426.063581 241.41776 
L 426.889674 233.04632 
L 427.715767 222.881 
L 428.54186 204.04526 
L 429.367953 226.46876 
L 430.194046 223.17998 
L 431.020139 227.96366 
L 431.846232 245.00552 
L 432.672325 247.99532 
L 433.498418 235.73714 
L 435.150604 216.9014 
L 435.976697 228.26264 
L 436.80279 219.29324 
L 437.628883 215.4065 
L 438.454976 226.76774 
L 439.281069 233.3453 
L 440.107162 221.08712 
L 440.933255 218.69528 
L 441.759348 222.58202 
L 442.585441 213.31364 
L 443.411534 213.9116 
L 444.237627 222.28304 
L 445.06372 234.8402 
L 445.889813 249.7892 
L 446.715906 258.16064 
L 447.541999 245.00552 
L 448.368092 243.51062 
L 449.194185 255.17084 
L 450.020278 257.56268 
L 450.846371 254.87186 
L 451.672464 239.92286 
L 452.498557 237.53102 
L 453.32465 233.3453 
L 454.150743 221.68508 
L 454.976836 234.8402 
L 455.802929 239.92286 
L 456.629022 242.01572 
L 457.455115 227.06672 
L 458.281207 228.26264 
L 459.1073 233.3453 
L 459.933393 245.00552 
L 460.759486 250.38716 
L 461.585579 251.88206 
L 462.411672 252.18104 
L 463.237765 251.2841 
L 464.063858 252.18104 
L 464.889951 250.98512 
L 465.716044 245.60348 
L 466.542137 246.7994 
L 468.194323 268.62494 
L 469.020416 268.62494 
L 469.846509 271.31576 
L 470.672602 291.34742 
L 471.498695 273.40862 
L 472.324788 274.60454 
L 473.150881 266.53208 
L 473.976974 264.43922 
L 474.803067 272.81066 
L 475.62916 278.49128 
L 476.455253 291.04844 
L 477.281346 294.03824 
L 478.107439 301.51274 
L 478.933532 288.6566 
L 479.759625 284.1719 
L 480.585718 291.6464 
L 481.411811 300.91478 
L 482.237904 311.67806 
L 483.063997 311.67806 
L 483.89009 311.0801 
L 484.716183 307.79132 
L 485.542276 318.5546 
L 486.368369 317.65766 
L 487.194462 329.0189 
L 488.020555 330.5138 
L 488.846648 329.61686 
L 489.672741 317.65766 
L 490.498834 317.65766 
L 491.324927 321.5444 
L 492.15102 308.0903 
L 492.977113 289.55354 
L 493.803206 280.88312 
L 494.629299 277.59434 
L 495.455392 272.51168 
L 496.281485 279.08924 
L 497.107578 276.99638 
L 497.933671 264.14024 
L 498.759764 258.45962 
L 499.585857 255.46982 
L 500.41195 257.56268 
L 501.238043 264.7382 
L 502.064136 276.09944 
L 502.890229 276.6974 
L 503.716322 280.58414 
L 504.542415 303.6056 
L 505.368508 306.29642 
L 506.194601 299.1209 
L 507.020694 304.20356 
L 507.846787 307.49234 
L 508.67288 311.67806 
L 509.498973 319.75052 
L 510.325066 325.13216 
L 511.151159 324.5342 
L 511.977252 308.68826 
L 512.803345 302.40968 
L 513.629438 292.84232 
L 514.455531 287.1617 
L 515.281624 290.74946 
L 516.107717 288.6566 
L 516.93381 283.87292 
L 517.759903 291.04844 
L 519.412089 310.78112 
L 520.238182 299.71886 
L 521.064275 296.72906 
L 521.890368 295.83212 
L 522.716461 285.06884 
L 523.542554 291.04844 
L 524.368647 292.54334 
L 525.19474 297.32702 
L 526.020833 311.97704 
L 526.846926 302.40968 
L 527.673019 308.98724 
L 528.499112 317.35868 
L 529.325205 316.76072 
L 530.151298 320.0495 
L 530.977391 326.62706 
L 531.803484 323.93624 
L 532.629577 322.44134 
L 533.45567 322.14236 
L 535.107856 329.31788 
L 535.933949 327.524 
L 536.760042 340.9781 
L 537.586135 359.21588 
L 538.412228 353.23628 
L 539.238321 350.24648 
L 540.064414 352.9373 
L 540.890507 352.63832 
L 541.7166 333.80258 
L 542.542693 334.9985 
L 543.368786 331.70972 
L 544.194879 323.33828 
L 545.020972 318.25562 
L 545.847065 314.96684 
L 546.673158 313.17296 
L 547.499251 315.5648 
L 548.325344 311.97704 
L 549.151437 307.19336 
L 549.977529 299.1209 
L 550.803622 292.24436 
L 551.629715 300.01784 
L 552.455808 311.67806 
L 553.281901 305.69846 
L 554.107994 303.90458 
L 554.934087 311.67806 
L 555.76018 311.37908 
L 556.586273 320.64746 
L 557.412366 318.5546 
L 558.238459 319.45154 
L 559.064552 328.12196 
L 559.890645 338.88524 
L 560.716738 336.79238 
L 561.542831 344.86484 
L 562.368924 344.56586 
L 563.195017 332.0087 
L 564.02111 329.61686 
L 564.847203 329.91584 
L 565.673296 340.38014 
L 566.499389 346.9577 
L 567.325482 354.4322 
L 568.151575 363.4016 
L 568.977668 349.05056 
L 569.803761 340.38014 
L 570.629854 340.38014 
L 571.455947 346.06076 
L 572.28204 329.91584 
L 573.108133 339.18422 
L 573.934226 340.08116 
L 574.760319 346.65872 
L 576.412505 368.18528 
L 577.238598 383.43326 
L 578.890784 365.79344 
L 579.716877 377.45366 
L 580.54297 372.371 
L 581.369063 381.04142 
L 582.195156 377.45366 
L 583.021249 375.65978 
L 583.847342 391.20674 
L 584.673435 386.12408 
L 585.499528 357.72098 
L 586.325621 358.9169 
L 587.151714 373.56692 
L 587.977807 362.50466 
L 588.8039 362.20568 
L 589.629993 364.29854 
L 590.456086 367.58732 
L 591.282179 372.66998 
L 592.108272 376.55672 
L 592.934365 356.52506 
L 593.760458 352.63832 
L 594.586551 353.83424 
L 595.412644 357.422 
L 596.238737 368.48426 
L 597.06483 368.18528 
L 597.890923 370.8761 
L 598.717016 361.60772 
L 599.543109 365.19548 
L 600.369202 368.18528 
L 601.195295 361.60772 
L 602.021388 357.422 
L 602.847481 366.09242 
L 603.673574 372.371 
L 604.499667 374.16488 
L 605.32576 363.99956 
L 606.151853 371.77304 
L 606.977946 362.20568 
L 607.804039 355.32914 
L 608.630132 357.72098 
L 609.456225 360.71078 
L 610.282318 356.52506 
L 611.108411 355.9271 
L 611.934504 346.65872 
L 612.760597 340.38014 
L 613.58669 338.88524 
L 614.412783 337.9883 
L 615.238876 342.77198 
L 616.064969 350.24648 
L 616.891062 353.23628 
L 617.717155 354.13322 
L 618.543248 358.61792 
L 619.369341 351.14342 
L 620.195434 347.55566 
L 621.021527 355.62812 
L 621.84762 352.9373 
L 622.673713 353.53526 
L 623.499806 345.4628 
L 624.325899 341.57606 
L 625.978085 356.22608 
L 626.804178 354.73118 
L 627.630271 358.01996 
L 628.456364 373.26794 
L 629.282457 371.17508 
L 630.10855 382.23734 
L 630.934643 386.42306 
L 631.760736 388.8149 
L 633.412922 370.57712 
L 634.239015 372.66998 
L 635.065108 372.66998 
L 635.891201 377.45366 
L 636.717294 376.8557 
L 637.543387 372.07202 
L 638.36948 404.36186 
L 639.195573 424.6925 
L 640.021666 406.15574 
L 640.847759 401.67104 
L 641.673851 410.93942 
L 642.499944 397.48532 
L 643.326037 388.21694 
L 644.15213 386.42306 
L 644.978223 386.72204 
L 645.804316 390.3098 
L 646.630409 393.00062 
L 647.456502 390.01082 
L 648.282595 395.99042 
L 649.108688 376.8557 
L 649.934781 383.43326 
L 650.760874 384.03122 
L 651.586967 377.15468 
L 652.41306 381.63938 
L 654.065246 403.16594 
L 654.891339 404.06288 
L 655.717432 418.11494 
L 656.543525 416.32106 
L 657.369618 413.33126 
L 658.195711 407.94962 
L 659.021804 393.2996 
L 659.847897 389.71184 
L 660.67399 389.71184 
L 661.500083 388.21694 
L 662.326176 392.70164 
L 663.152269 400.7741 
L 663.978362 396.88736 
L 664.804455 407.65064 
L 665.630548 425.29046 
L 666.456641 434.55884 
L 667.282734 427.08434 
L 668.108827 429.77516 
L 668.93492 435.45578 
L 669.761013 437.24966 
L 670.587106 432.76496 
L 671.413199 425.29046 
L 672.239292 433.6619 
L 673.065385 444.42518 
L 673.891478 442.03334 
L 674.717571 446.81702 
L 675.543664 445.02314 
L 677.19585 440.53844 
L 678.021943 443.52824 
L 678.848036 438.74456 
L 679.674129 431.56904 
L 680.500222 435.45578 
L 681.326315 436.05374 
L 682.152408 441.1364 
L 682.978501 427.38332 
L 683.804594 416.62004 
L 684.630687 414.2282 
L 685.45678 408.84656 
L 686.282873 413.03228 
L 687.108966 415.12514 
L 687.935059 409.7435 
L 688.761152 401.07308 
L 689.587245 412.13534 
L 690.413338 412.43432 
L 691.239431 410.34146 
L 692.065524 412.13534 
L 692.891617 417.81596 
L 694.543803 414.82616 
L 695.369896 421.7027 
L 696.195989 416.62004 
L 697.848175 426.78536 
L 698.674268 427.08434 
L 699.500361 441.73436 
L 700.326454 432.167 
L 701.152547 433.96088 
L 701.97864 430.6721 
L 702.804733 428.57924 
L 703.630826 421.7027 
L 704.456919 426.1874 
L 705.283012 425.88842 
L 706.109105 430.37312 
L 706.935198 427.38332 
L 707.761291 425.88842 
L 708.587384 424.09454 
L 709.413477 433.96088 
L 710.23957 439.94048 
L 711.065663 438.74456 
L 711.891756 437.24966 
L 712.717849 436.95068 
L 713.543942 447.41498 
L 714.370035 448.31192 
L 715.196128 444.72416 
L 716.022221 444.1262 
L 716.848314 436.95068 
L 717.674407 421.10474 
L 718.5005 418.7129 
L 719.326593 418.7129 
L 720.152686 421.40372 
L 720.978779 420.2078 
L 721.804872 423.49658 
L 722.630965 425.88842 
L 723.457058 422.89862 
L 724.283151 423.1976 
L 725.109244 428.57924 
L 725.935337 422.30066 
L 726.76143 420.80576 
L 727.587523 419.60984 
L 728.413616 420.2078 
L 729.239709 410.64044 
L 730.065802 406.15574 
L 730.891895 410.04248 
L 731.717988 403.7639 
L 732.54408 407.35166 
L 733.370173 406.7537 
L 734.196266 403.46492 
L 735.022359 406.45472 
L 735.848452 400.7741 
L 736.674545 397.7843 
L 736.674545 397.7843 
" style="fill:none;stroke:#000000;stroke-linecap:square;stroke-width:2.8;"/>
   </g>
   <g id="patch_3">
    <path d="M 54.9 491.963 
L 54.9 13.595 
" style="fill:none;stroke:#000000;stroke-linecap:square;stroke-linejoin:miter;stroke-width:0.8;"/>
   </g>
   <g id="patch_4">
    <path d="M 54.9 491.963 
L 769.14 491.963 
" style="fill:none;stroke:#000000;stroke-linecap:square;stroke-linejoin:miter;stroke-width:0.8;"/>
   </g>
   <g id="legend_1">
    <g id="line2d_32">
     <path d="M 531.175 35.185 
L 563.175 35.185 
" style="fill:none;stroke:#000000;stroke-linecap:square;stroke-width:2.8;"/>
    </g>
    <g id="line2d_33"/>
    <g id="text_17">
     <!-- 美国10年国债到期收益率 -->
     <defs>
      <path d="M 2.34375 37.546875 
L 46.1875 37.546875 
L 46.1875 46.734375 
L 10.359375 46.734375 
L 10.359375 53.375 
L 46.1875 53.375 
L 46.1875 62.359375 
L 4.5 62.359375 
L 4.5 69 
L 35.296875 69 
Q 30.28125 73.34375 22.265625 79.4375 
L 26.765625 84.328125 
Q 35.25 78.5625 40.921875 74.265625 
L 35.75 69 
L 61.71875 69 
L 58.109375 73.09375 
Q 65.828125 78.46875 72.078125 83.9375 
L 77.828125 78.46875 
Q 71.578125 73.78125 64.3125 69 
L 96.09375 69 
L 96.09375 62.359375 
L 54.203125 62.359375 
L 54.203125 53.375 
L 90.828125 53.375 
L 90.828125 46.734375 
L 54.203125 46.734375 
L 54.203125 37.546875 
L 97.859375 37.546875 
L 97.859375 30.90625 
L 2.34375 30.90625 
z
M 98.640625 -4.734375 
Q 94.921875 -9.71875 92.96875 -12.84375 
Q 60.890625 -6.546875 50.25 12.546875 
Q 40.71875 -7.625 6.34375 -13.625 
Q 4.390625 -10.296875 1.5625 -6.203125 
Q 34.375 -1.65625 42.828125 14.3125 
L 3.71875 14.3125 
L 3.71875 20.953125 
L 45.515625 20.953125 
Q 46.484375 24.359375 47.078125 28.765625 
L 55.078125 28.765625 
Q 54.296875 24.46875 53.328125 20.953125 
L 96.875 20.953125 
L 96.875 14.3125 
L 56.734375 14.3125 
Q 68.171875 -2.15625 98.640625 -4.734375 
z
" id="MicrosoftYaHei-7f8e"/>
      <path d="M 7.328125 78.078125 
L 92.78125 78.078125 
L 92.78125 -13.03125 
L 85.25 -13.03125 
L 85.25 -8.15625 
L 14.84375 -8.15625 
L 14.84375 -13.140625 
L 7.328125 -13.140625 
z
M 85.25 71.140625 
L 14.84375 71.140625 
L 14.84375 -1.21875 
L 85.25 -1.21875 
z
M 19.34375 15.765625 
L 46.296875 15.765625 
L 46.296875 35.109375 
L 22.75 35.109375 
L 22.75 41.75 
L 46.296875 41.75 
L 46.296875 54.828125 
L 20.90625 54.828125 
L 20.90625 61.46875 
L 79.109375 61.46875 
L 79.109375 54.828125 
L 53.515625 54.828125 
L 53.515625 41.75 
L 77.15625 41.75 
L 77.15625 35.109375 
L 53.515625 35.109375 
L 53.515625 15.765625 
L 80.671875 15.765625 
L 80.671875 9.125 
L 19.34375 9.125 
z
M 58.59375 28.859375 
L 64.0625 32.953125 
Q 69.4375 27.390625 73.25 22.515625 
L 67.484375 18.109375 
Q 62.796875 24.46875 58.59375 28.859375 
z
" id="MicrosoftYaHei-56fd"/>
      <path d="M 1.859375 19.96875 
L 17.578125 19.96875 
L 17.578125 47.90625 
L 52.15625 47.90625 
L 52.15625 65.28125 
L 23.4375 65.28125 
Q 16.84375 53.421875 8.6875 43.40625 
Q 6.15625 46.140625 2.640625 48.875 
Q 16.5 64.5 23.4375 83.9375 
L 31.453125 81.6875 
Q 29.390625 76.859375 27.15625 72.3125 
L 94.34375 72.3125 
L 94.34375 65.28125 
L 60.0625 65.28125 
L 60.0625 47.90625 
L 92.671875 47.90625 
L 92.671875 41.0625 
L 60.0625 41.0625 
L 60.0625 19.96875 
L 98.734375 19.96875 
L 98.734375 12.9375 
L 60.0625 12.9375 
L 60.0625 -13.421875 
L 52.15625 -13.421875 
L 52.15625 12.9375 
L 1.859375 12.9375 
z
M 25.296875 19.96875 
L 52.15625 19.96875 
L 52.15625 41.0625 
L 25.296875 41.0625 
z
" id="MicrosoftYaHei-5e74"/>
      <path d="M 26.859375 47.40625 
L 58.984375 47.40625 
L 58.984375 54.34375 
L 34.1875 54.34375 
L 34.1875 60.5 
L 58.984375 60.5 
L 58.984375 67.328125 
L 31.0625 67.328125 
L 31.0625 73.484375 
L 58.984375 73.484375 
L 58.984375 82.171875 
L 66.3125 82.171875 
L 66.3125 73.484375 
L 95.125 73.484375 
L 95.125 67.328125 
L 66.3125 67.328125 
L 66.3125 60.5 
L 90.328125 60.5 
L 90.328125 54.34375 
L 66.3125 54.34375 
L 66.3125 47.40625 
L 97.953125 47.40625 
L 97.953125 41.265625 
L 26.859375 41.265625 
z
M 1.265625 35.203125 
Q 12.890625 54.25 19.34375 82.375 
L 26.46875 81.109375 
Q 23.640625 70.65625 20.40625 61.375 
L 20.40625 -13.71875 
L 13.28125 -13.71875 
L 13.28125 44.09375 
Q 8.890625 35.015625 3.90625 27.390625 
Q 2.734375 31.390625 1.265625 35.203125 
z
M 34.859375 34.625 
L 89.15625 34.625 
L 89.15625 4.4375 
L 82.03125 4.4375 
L 82.03125 28.265625 
L 42 28.265625 
L 42 3.953125 
L 34.859375 3.953125 
z
M 58.5 25.140625 
L 65.625 25.140625 
Q 65.625 17.046875 64.0625 10.984375 
Q 80.5625 2.78125 97.265625 -7.765625 
L 92.875 -14.015625 
Q 77.546875 -3.953125 61.921875 4.9375 
Q 60.546875 2.09375 58.6875 0.046875 
Q 50.875 -8.9375 31.453125 -13.921875 
Q 28.515625 -8.453125 27.25 -6.890625 
Q 45.90625 -2.875 52.25 3.859375 
Q 58.5 9.8125 58.5 25.140625 
z
" id="MicrosoftYaHei-503a"/>
      <path d="M 44.625 64.40625 
Q 52.4375 52.875 59.28125 40.375 
Q 55.5625 38.625 51.765625 36.46875 
Q 50.046875 40.09375 48.25 43.609375 
Q 27.203125 41.546875 8.296875 39.59375 
L 4.78125 47.703125 
Q 10.453125 50.734375 14.546875 57.375 
Q 18.3125 63.03125 21.921875 70.0625 
L 3.71875 70.0625 
L 3.71875 77.296875 
L 59.765625 77.296875 
L 59.765625 70.0625 
L 31.15625 70.0625 
Q 23.875 57.71875 16.40625 47.609375 
Q 30.328125 48.640625 44.734375 50.140625 
Q 41.5 55.765625 37.984375 61.078125 
z
M 4.390625 27.09375 
L 27.34375 27.09375 
L 27.34375 39.203125 
L 35.15625 39.203125 
L 35.15625 27.09375 
L 57.515625 27.09375 
L 57.515625 19.875 
L 35.15625 19.875 
L 35.15625 2.6875 
Q 46.6875 4.15625 58.890625 5.8125 
Q 58.890625 2.390625 59.28125 -1.8125 
Q 31.640625 -5.21875 3.71875 -9.328125 
L 1.46875 -1.125 
Q 13.921875 0.140625 27.34375 1.765625 
L 27.34375 19.875 
L 4.390625 19.875 
z
M 86.234375 83.15625 
L 94.34375 83.15625 
L 94.34375 0.53125 
Q 94.34375 -11.671875 82.515625 -11.671875 
Q 78.515625 -11.671875 68.265625 -11.578125 
Q 67.671875 -7.5625 66.796875 -2.78125 
Q 75.390625 -3.5625 80.078125 -3.5625 
Q 86.234375 -3.65625 86.234375 2.78125 
z
M 65.046875 72.609375 
L 72.953125 72.609375 
L 72.953125 10.40625 
L 65.046875 10.40625 
z
" id="MicrosoftYaHei-5230"/>
      <path d="M 58.890625 79.15625 
L 93.453125 79.15625 
L 93.453125 -0.046875 
Q 93.453125 -11.578125 82.515625 -11.578125 
Q 77.046875 -11.578125 71.78125 -11.28125 
Q 71.390625 -8.0625 70.609375 -3.765625 
Q 77.734375 -4.4375 80.859375 -4.4375 
Q 86.234375 -4.4375 86.234375 0.921875 
L 86.234375 21.4375 
L 65.328125 21.4375 
Q 64.265625 0.046875 52.34375 -14.109375 
Q 49.703125 -11.375 46.484375 -8.640625 
Q 54.390625 0.4375 56.546875 10.203125 
Q 58.890625 19.578125 58.890625 42.828125 
z
M 1.953125 17.828125 
L 11.140625 17.828125 
L 11.140625 62.9375 
L 3.125 62.9375 
L 3.125 69.578125 
L 11.140625 69.578125 
L 11.140625 81.5 
L 18.359375 81.5 
L 18.359375 69.578125 
L 38.671875 69.578125 
L 38.671875 81.890625 
L 45.90625 81.890625 
L 45.90625 69.578125 
L 53.8125 69.578125 
L 53.8125 62.9375 
L 45.90625 62.9375 
L 45.90625 17.828125 
L 53.71875 17.828125 
L 53.71875 11.1875 
L 1.953125 11.1875 
z
M 65.765625 27.875 
L 86.234375 27.875 
L 86.234375 47.015625 
L 66.109375 47.015625 
Q 66.21875 34.421875 65.765625 27.875 
z
M 86.234375 72.515625 
L 66.109375 72.515625 
L 66.109375 53.46875 
L 86.234375 53.46875 
z
M 18.359375 17.828125 
L 38.671875 17.828125 
L 38.671875 28.765625 
L 18.359375 28.765625 
z
M 18.359375 35.015625 
L 38.671875 35.015625 
L 38.671875 45.84375 
L 18.359375 45.84375 
z
M 18.359375 52.09375 
L 38.671875 52.09375 
L 38.671875 62.9375 
L 18.359375 62.9375 
z
M 18.359375 9.328125 
L 24.3125 4.640625 
Q 14.453125 -6 6.34375 -13.234375 
Q 4.296875 -10.890625 1.171875 -8.0625 
Q 10.453125 -0.140625 18.359375 9.328125 
z
M 31.15625 4.734375 
L 35.84375 9.515625 
Q 42.671875 4.4375 48.734375 -0.734375 
L 43.5625 -6.296875 
Q 38.09375 -0.828125 31.15625 4.734375 
z
" id="MicrosoftYaHei-671f"/>
      <path d="M 35.0625 41.546875 
Q 47.5625 63.234375 53.125 83.453125 
L 61.03125 81.203125 
Q 57.90625 72.171875 54.5 63.921875 
L 97.078125 63.921875 
L 97.078125 56.6875 
L 85.59375 56.6875 
Q 84.125 28.421875 71.09375 10.640625 
Q 81 1.859375 99.21875 -4.640625 
Q 96.1875 -8.453125 93.65625 -12.453125 
Q 76.265625 -5.03125 65.921875 4.6875 
Q 56.5 -4.59375 39.84375 -13.328125 
Q 37.796875 -10.109375 34.859375 -6.78125 
Q 51.515625 1.5625 60.59375 10.5 
Q 49.3125 24.609375 46 45.5625 
Q 43.265625 40.234375 40.328125 35.296875 
Q 38.484375 38.140625 35.0625 41.546875 
z
M 26.265625 82.671875 
L 33.6875 82.671875 
L 33.6875 -12.75 
L 26.265625 -12.75 
L 26.265625 17.390625 
Q 20.3125 14.0625 14.15625 10.015625 
Q 11.625 8.15625 9.1875 5.609375 
L 3.609375 12.15625 
Q 6.640625 15.375 6.640625 20.5625 
L 6.640625 69 
L 14.0625 69 
L 14.0625 19 
Q 19.875 22.078125 26.265625 25.53125 
z
M 77.875 56.6875 
L 51.90625 56.6875 
Q 53.328125 32.859375 65.671875 16.546875 
Q 76.8125 32.234375 77.875 56.6875 
z
" id="MicrosoftYaHei-6536"/>
      <path d="M 1.765625 -1.609375 
L 15.921875 -1.609375 
L 15.921875 31.203125 
L 84.46875 31.203125 
L 84.46875 -1.609375 
L 97.953125 -1.609375 
L 97.953125 -8.453125 
L 1.765625 -8.453125 
z
M 4.109375 64.3125 
L 57.375 64.3125 
Q 66.015625 72.65625 74.125 83.34375 
L 81.25 78.859375 
Q 74.609375 71.140625 67.671875 64.3125 
L 96.484375 64.3125 
L 96.484375 57.46875 
L 4.109375 57.46875 
z
M 77.4375 24.5625 
L 63.765625 24.5625 
L 63.765625 -1.609375 
L 77.4375 -1.609375 
z
M 22.953125 -1.609375 
L 36.53125 -1.609375 
L 36.53125 24.5625 
L 22.953125 24.5625 
z
M 43.359375 -1.609375 
L 56.9375 -1.609375 
L 56.9375 24.5625 
L 43.359375 24.5625 
z
M 36.53125 54.4375 
L 41.3125 48.09375 
Q 26.078125 38.8125 7.125 29.25 
Q 5.171875 33.0625 3.125 36.078125 
Q 21.390625 44.875 36.53125 54.4375 
z
M 59.28125 48.296875 
L 63.28125 54.25 
Q 82.8125 45.0625 97.078125 37.25 
L 92.78125 30.03125 
Q 73.53125 41.15625 59.28125 48.296875 
z
M 19.34375 78.375 
L 24.421875 83.453125 
Q 32.8125 77.390625 39.546875 71.625 
L 33.984375 65.765625 
Q 27.640625 71.828125 19.34375 78.375 
z
" id="MicrosoftYaHei-76ca"/>
      <path d="M 39.453125 31.390625 
Q 40.96875 31.5 61.375 32.515625 
Q 58.9375 35.9375 56.640625 38.921875 
L 61.921875 42.234375 
Q 68.953125 34.421875 74.90625 25.828125 
L 68.65625 21.921875 
Q 66.9375 24.515625 65.28125 26.953125 
Q 46.734375 25.921875 34.578125 24.953125 
Q 32.421875 24.75 29.390625 24.078125 
L 26.953125 30.71875 
Q 29.890625 31.6875 31.34375 32.5625 
Q 39.59375 38.140625 47.65625 45.515625 
Q 40.578125 45.21875 35.546875 44.78125 
Q 33.5 44.484375 31.0625 43.890625 
L 28.125 49.859375 
Q 30.5625 50.734375 32.625 52.59375 
Q 39.203125 58.15625 44.921875 66.0625 
L 3.609375 66.0625 
L 3.609375 72.90625 
L 47.359375 72.90625 
Q 44.96875 77.25 42.875 80.515625 
L 49.90625 83.9375 
Q 53.71875 78.125 56.5 72.90625 
L 96.484375 72.90625 
L 96.484375 66.0625 
L 47.703125 66.0625 
L 52.34375 63.625 
Q 44.4375 55.515625 38.96875 50.734375 
Q 44.53125 50.875 53.515625 51.078125 
Q 57.421875 54.984375 61.328125 59.328125 
L 68.0625 55.421875 
Q 52.546875 40.671875 39.453125 31.390625 
z
M 2.25 15.484375 
L 46.78125 15.484375 
L 46.78125 24.078125 
L 54.5 24.078125 
L 54.5 15.484375 
L 98.046875 15.484375 
L 98.046875 8.640625 
L 54.5 8.640625 
L 54.5 -13.328125 
L 46.78125 -13.328125 
L 46.78125 8.640625 
L 2.25 8.640625 
z
M 26.859375 41.75 
L 30.375 35.984375 
Q 18.75 29.15625 6.640625 22.015625 
L 2.546875 28.5625 
Q 12.703125 33.34375 26.859375 41.75 
z
M 75.875 41.84375 
Q 89.84375 33.9375 97.65625 28.375 
L 93.359375 22.015625 
Q 83.296875 29.828125 71.875 36.578125 
z
M 93.65625 56.109375 
Q 86.234375 49.65625 77.546875 43.890625 
L 72.5625 49.078125 
Q 81.9375 55.21875 88.09375 61.375 
z
M 5.671875 56.78125 
L 10.640625 61.578125 
Q 18.75 55.125 24.8125 49.359375 
L 19.34375 44 
Q 13.671875 49.953125 5.671875 56.78125 
z
" id="MicrosoftYaHei-7387"/>
     </defs>
     <g transform="translate(575.975 40.785)scale(0.16 -0.16)">
      <use xlink:href="#MicrosoftYaHei-7f8e"/>
      <use x="100" xlink:href="#MicrosoftYaHei-56fd"/>
      <use x="200" xlink:href="#MicrosoftYaHei-31"/>
      <use x="258.642578" xlink:href="#MicrosoftYaHei-30"/>
      <use x="317.285156" xlink:href="#MicrosoftYaHei-5e74"/>
      <use x="417.285156" xlink:href="#MicrosoftYaHei-56fd"/>
      <use x="517.285156" xlink:href="#MicrosoftYaHei-503a"/>
      <use x="617.285156" xlink:href="#MicrosoftYaHei-5230"/>
      <use x="717.285156" xlink:href="#MicrosoftYaHei-671f"/>
      <use x="817.285156" xlink:href="#MicrosoftYaHei-6536"/>
      <use x="917.285156" xlink:href="#MicrosoftYaHei-76ca"/>
      <use x="1017.285156" xlink:href="#MicrosoftYaHei-7387"/>
     </g>
    </g>
   </g>
  </g>
 </g>
 <defs>
  <clipPath id="p06a271b026">
   <rect height="478.368" width="714.24" x="54.9" y="13.595"/>
  </clipPath>
 </defs>
</svg>
