<?xml version="1.0" encoding="utf-8" standalone="no"?>
<!DOCTYPE svg PUBLIC "-//W3C//DTD SVG 1.1//EN"
  "http://www.w3.org/Graphics/SVG/1.1/DTD/svg11.dtd">
<!-- Created with matplotlib (http://matplotlib.org/) -->
<svg height="701.6875pt" version="1.1" viewBox="0 0 1103.21925 701.6875" width="1103.21925pt" xmlns="http://www.w3.org/2000/svg" xmlns:xlink="http://www.w3.org/1999/xlink">
 <defs>
  <style type="text/css">
*{stroke-linecap:butt;stroke-linejoin:round;}
  </style>
 </defs>
 <g id="figure_1">
  <g id="patch_1">
   <path d="M 0 701.6875 
L 1103.21925 701.6875 
L 1103.21925 0 
L 0 0 
z
" style="fill:#ffffff;"/>
  </g>
  <g id="axes_1">
   <g id="patch_2">
    <path d="M 88.11925 202.558824 
L 1092.51925 202.558824 
L 1092.51925 10.7 
L 88.11925 10.7 
z
" style="fill:#ffffff;"/>
   </g>
   <g id="matplotlib.axis_1">
    <g id="xtick_1">
     <g id="line2d_1">
      <defs>
       <path d="M 0 0 
L 0 3.5 
" id="mb701952481" style="stroke:#000000;stroke-width:1.6;"/>
      </defs>
      <g>
       <use style="stroke:#000000;stroke-width:1.6;" x="213.930631" xlink:href="#mb701952481" y="202.558824"/>
      </g>
     </g>
     <g id="text_1">
      <!-- 1959 -->
      <defs>
       <path d="M 52.59375 0 
L 9.234375 0 
L 9.234375 8.25 
L 26.171875 8.25 
L 26.171875 65.671875 
L 8.796875 60.640625 
L 8.796875 69.4375 
L 35.6875 77.25 
L 35.6875 8.25 
L 52.59375 8.25 
z
" id="MicrosoftYaHei-31"/>
       <path d="M 9.03125 10.25 
Q 15.28125 6.640625 22.515625 6.640625 
Q 32.671875 6.640625 38.25 14.640625 
Q 43.84375 22.65625 43.84375 37.40625 
Q 43.75 37.3125 43.65625 37.40625 
Q 38.671875 27.9375 26.90625 27.9375 
Q 17.390625 27.9375 11.140625 34.46875 
Q 4.890625 41.015625 4.890625 51.46875 
Q 4.890625 62.59375 11.71875 69.75 
Q 18.5625 76.90625 29.4375 76.90625 
Q 40.71875 76.90625 47.0625 68.046875 
Q 53.421875 59.1875 53.421875 42.234375 
Q 53.421875 21.296875 45.21875 10.015625 
Q 37.015625 -1.265625 22.515625 -1.265625 
Q 14.546875 -1.265625 9.03125 1.3125 
z
M 14.546875 52.6875 
Q 14.546875 45.0625 18.453125 40.59375 
Q 22.359375 36.140625 29.25 36.140625 
Q 35.203125 36.140625 39.25 40.203125 
Q 43.3125 44.28125 43.3125 50.09375 
Q 43.3125 58.25 39.28125 63.59375 
Q 35.25 68.953125 28.65625 68.953125 
Q 22.5625 68.953125 18.546875 64.3125 
Q 14.546875 59.671875 14.546875 52.6875 
z
" id="MicrosoftYaHei-39"/>
       <path d="M 8.640625 11.625 
Q 16.265625 6.640625 24.515625 6.640625 
Q 32.328125 6.640625 37.109375 11 
Q 41.890625 15.375 41.890625 22.609375 
Q 41.890625 29.890625 37.03125 33.890625 
Q 32.171875 37.890625 22.953125 37.890625 
Q 18.5 37.890625 10.984375 37.203125 
L 10.984375 75.640625 
L 48.1875 75.640625 
L 48.1875 67.1875 
L 19.875 67.1875 
L 19.875 45.796875 
Q 24.125 46.046875 26.265625 46.046875 
Q 38.234375 46.046875 44.921875 39.984375 
Q 51.609375 33.9375 51.609375 23.296875 
Q 51.609375 12.3125 44.421875 5.515625 
Q 37.25 -1.265625 24.609375 -1.265625 
Q 14.015625 -1.265625 8.640625 1.859375 
z
" id="MicrosoftYaHei-35"/>
      </defs>
      <g transform="translate(195.165631 230.048824)scale(0.16 -0.16)">
       <use xlink:href="#MicrosoftYaHei-31"/>
       <use x="58.642578" xlink:href="#MicrosoftYaHei-39"/>
       <use x="117.285156" xlink:href="#MicrosoftYaHei-35"/>
       <use x="175.927734" xlink:href="#MicrosoftYaHei-39"/>
      </g>
     </g>
    </g>
    <g id="xtick_2">
     <g id="line2d_2">
      <g>
       <use style="stroke:#000000;stroke-width:1.6;" x="353.333823" xlink:href="#mb701952481" y="202.558824"/>
      </g>
     </g>
     <g id="text_2">
      <!-- 1969 -->
      <defs>
       <path d="M 49.703125 65.921875 
Q 43.796875 68.953125 37.359375 68.953125 
Q 27.546875 68.953125 21.578125 60.40625 
Q 15.625 51.859375 15.53125 37.0625 
L 15.765625 37.0625 
Q 21.140625 47.46875 32.90625 47.46875 
Q 42.71875 47.46875 48.578125 41.0625 
Q 54.4375 34.671875 54.4375 24.078125 
Q 54.4375 12.984375 47.671875 5.859375 
Q 40.921875 -1.265625 30.421875 -1.265625 
Q 18.890625 -1.265625 12.328125 7.734375 
Q 5.765625 16.75 5.765625 33.296875 
Q 5.765625 53.328125 14.375 65.109375 
Q 23 76.90625 37.0625 76.90625 
Q 45.125 76.90625 49.703125 74.703125 
z
M 16.109375 24.75 
Q 16.109375 17.28125 20.09375 11.953125 
Q 24.078125 6.640625 30.671875 6.640625 
Q 36.921875 6.640625 40.828125 11.234375 
Q 44.734375 15.828125 44.734375 23.046875 
Q 44.734375 30.859375 41.046875 35.203125 
Q 37.359375 39.546875 30.5625 39.546875 
Q 24.125 39.546875 20.109375 35.15625 
Q 16.109375 30.765625 16.109375 24.75 
z
" id="MicrosoftYaHei-36"/>
      </defs>
      <g transform="translate(334.568823 230.048824)scale(0.16 -0.16)">
       <use xlink:href="#MicrosoftYaHei-31"/>
       <use x="58.642578" xlink:href="#MicrosoftYaHei-39"/>
       <use x="117.285156" xlink:href="#MicrosoftYaHei-36"/>
       <use x="175.927734" xlink:href="#MicrosoftYaHei-39"/>
      </g>
     </g>
    </g>
    <g id="xtick_3">
     <g id="line2d_3">
      <g>
       <use style="stroke:#000000;stroke-width:1.6;" x="492.737015" xlink:href="#mb701952481" y="202.558824"/>
      </g>
     </g>
     <g id="text_3">
      <!-- 1979 -->
      <defs>
       <path d="M 53.765625 72.3125 
L 24.171875 0 
L 14.265625 0 
L 42.390625 67.1875 
L 4.59375 67.1875 
L 4.59375 75.640625 
L 53.765625 75.640625 
z
" id="MicrosoftYaHei-37"/>
      </defs>
      <g transform="translate(473.972015 230.048824)scale(0.16 -0.16)">
       <use xlink:href="#MicrosoftYaHei-31"/>
       <use x="58.642578" xlink:href="#MicrosoftYaHei-39"/>
       <use x="117.285156" xlink:href="#MicrosoftYaHei-37"/>
       <use x="175.927734" xlink:href="#MicrosoftYaHei-39"/>
      </g>
     </g>
    </g>
    <g id="xtick_4">
     <g id="line2d_4">
      <g>
       <use style="stroke:#000000;stroke-width:1.6;" x="632.140208" xlink:href="#mb701952481" y="202.558824"/>
      </g>
     </g>
     <g id="text_4">
      <!-- 1989 -->
      <defs>
       <path d="M 21.390625 39.796875 
Q 7.859375 46.09375 7.859375 58.0625 
Q 7.859375 66.40625 14.203125 71.65625 
Q 20.5625 76.90625 30.421875 76.90625 
Q 39.453125 76.90625 45.3125 71.96875 
Q 51.171875 67.046875 51.171875 59.234375 
Q 51.171875 46.625 37.0625 39.84375 
L 37.0625 39.65625 
Q 53.609375 33.6875 53.609375 19.34375 
Q 53.609375 9.90625 46.796875 4.3125 
Q 39.984375 -1.265625 27.78125 -1.265625 
Q 17.78125 -1.265625 11.46875 4.25 
Q 5.171875 9.765625 5.171875 18.5625 
Q 5.171875 33.015625 21.390625 39.59375 
z
M 41.5 58.109375 
Q 41.5 63.1875 38.328125 66.109375 
Q 35.15625 69.046875 29.734375 69.046875 
Q 24.65625 69.046875 21.09375 65.984375 
Q 17.53125 62.9375 17.53125 58.203125 
Q 17.53125 48.734375 29.390625 43.796875 
Q 41.5 48.828125 41.5 58.109375 
z
M 28.8125 35.25 
Q 14.796875 29.59375 14.796875 19.046875 
Q 14.796875 13.578125 18.890625 10.0625 
Q 23 6.546875 29.59375 6.546875 
Q 35.984375 6.546875 39.984375 10.03125 
Q 44 13.53125 44 18.75 
Q 44 29.734375 28.8125 35.25 
z
" id="MicrosoftYaHei-38"/>
      </defs>
      <g transform="translate(613.375208 230.048824)scale(0.16 -0.16)">
       <use xlink:href="#MicrosoftYaHei-31"/>
       <use x="58.642578" xlink:href="#MicrosoftYaHei-39"/>
       <use x="117.285156" xlink:href="#MicrosoftYaHei-38"/>
       <use x="175.927734" xlink:href="#MicrosoftYaHei-39"/>
      </g>
     </g>
    </g>
    <g id="xtick_5">
     <g id="line2d_5">
      <g>
       <use style="stroke:#000000;stroke-width:1.6;" x="771.5434" xlink:href="#mb701952481" y="202.558824"/>
      </g>
     </g>
     <g id="text_5">
      <!-- 1999 -->
      <g transform="translate(752.7784 230.048824)scale(0.16 -0.16)">
       <use xlink:href="#MicrosoftYaHei-31"/>
       <use x="58.642578" xlink:href="#MicrosoftYaHei-39"/>
       <use x="117.285156" xlink:href="#MicrosoftYaHei-39"/>
       <use x="175.927734" xlink:href="#MicrosoftYaHei-39"/>
      </g>
     </g>
    </g>
    <g id="xtick_6">
     <g id="line2d_6">
      <g>
       <use style="stroke:#000000;stroke-width:1.6;" x="910.946592" xlink:href="#mb701952481" y="202.558824"/>
      </g>
     </g>
     <g id="text_6">
      <!-- 2009 -->
      <defs>
       <path d="M 51.171875 0 
L 5.171875 0 
L 5.171875 8.296875 
L 27.15625 30.21875 
Q 36.234375 39.3125 39.3125 44.609375 
Q 42.390625 49.90625 42.390625 55.5625 
Q 42.390625 62.015625 38.765625 65.453125 
Q 35.15625 68.890625 28.328125 68.890625 
Q 18.21875 68.890625 9.03125 60.296875 
L 9.03125 70.015625 
Q 17.96875 76.90625 29.828125 76.90625 
Q 40.046875 76.90625 45.953125 71.390625 
Q 51.859375 65.875 51.859375 56.546875 
Q 51.859375 49.515625 48.0625 42.75 
Q 44.28125 35.984375 33.734375 25.53125 
L 16.5 8.6875 
L 16.5 8.5 
L 51.171875 8.5 
z
" id="MicrosoftYaHei-32"/>
       <path d="M 4.4375 36.328125 
Q 4.4375 56.34375 11.078125 66.625 
Q 17.71875 76.90625 30.328125 76.90625 
Q 54.34375 76.90625 54.34375 38.140625 
Q 54.34375 19 47.578125 8.859375 
Q 40.828125 -1.265625 28.609375 -1.265625 
Q 17.09375 -1.265625 10.765625 8.34375 
Q 4.4375 17.96875 4.4375 36.328125 
z
M 14.203125 36.765625 
Q 14.203125 6.640625 29.5 6.640625 
Q 44.53125 6.640625 44.53125 37.25 
Q 44.53125 68.953125 29.78125 68.953125 
Q 14.203125 68.953125 14.203125 36.765625 
z
" id="MicrosoftYaHei-30"/>
      </defs>
      <g transform="translate(892.181592 230.048824)scale(0.16 -0.16)">
       <use xlink:href="#MicrosoftYaHei-32"/>
       <use x="58.642578" xlink:href="#MicrosoftYaHei-30"/>
       <use x="117.285156" xlink:href="#MicrosoftYaHei-30"/>
       <use x="175.927734" xlink:href="#MicrosoftYaHei-39"/>
      </g>
     </g>
    </g>
    <g id="xtick_7">
     <g id="line2d_7">
      <g>
       <use style="stroke:#000000;stroke-width:1.6;" x="1050.349784" xlink:href="#mb701952481" y="202.558824"/>
      </g>
     </g>
     <g id="text_7">
      <!-- 2019 -->
      <g transform="translate(1031.584784 230.048824)scale(0.16 -0.16)">
       <use xlink:href="#MicrosoftYaHei-32"/>
       <use x="58.642578" xlink:href="#MicrosoftYaHei-30"/>
       <use x="117.285156" xlink:href="#MicrosoftYaHei-31"/>
       <use x="175.927734" xlink:href="#MicrosoftYaHei-39"/>
      </g>
     </g>
    </g>
    <g id="xtick_8">
     <g id="line2d_8">
      <defs>
       <path d="M 0 0 
L 0 2 
" id="m88e40ba178" style="stroke:#000000;stroke-width:0.8;"/>
      </defs>
      <g>
       <use style="stroke:#000000;stroke-width:0.8;" x="144.229035" xlink:href="#m88e40ba178" y="202.558824"/>
      </g>
     </g>
    </g>
    <g id="xtick_9">
     <g id="line2d_9">
      <g>
       <use style="stroke:#000000;stroke-width:0.8;" x="213.930631" xlink:href="#m88e40ba178" y="202.558824"/>
      </g>
     </g>
    </g>
    <g id="xtick_10">
     <g id="line2d_10">
      <g>
       <use style="stroke:#000000;stroke-width:0.8;" x="283.632227" xlink:href="#m88e40ba178" y="202.558824"/>
      </g>
     </g>
    </g>
    <g id="xtick_11">
     <g id="line2d_11">
      <g>
       <use style="stroke:#000000;stroke-width:0.8;" x="353.333823" xlink:href="#m88e40ba178" y="202.558824"/>
      </g>
     </g>
    </g>
    <g id="xtick_12">
     <g id="line2d_12">
      <g>
       <use style="stroke:#000000;stroke-width:0.8;" x="423.035419" xlink:href="#m88e40ba178" y="202.558824"/>
      </g>
     </g>
    </g>
    <g id="xtick_13">
     <g id="line2d_13">
      <g>
       <use style="stroke:#000000;stroke-width:0.8;" x="492.737015" xlink:href="#m88e40ba178" y="202.558824"/>
      </g>
     </g>
    </g>
    <g id="xtick_14">
     <g id="line2d_14">
      <g>
       <use style="stroke:#000000;stroke-width:0.8;" x="562.438612" xlink:href="#m88e40ba178" y="202.558824"/>
      </g>
     </g>
    </g>
    <g id="xtick_15">
     <g id="line2d_15">
      <g>
       <use style="stroke:#000000;stroke-width:0.8;" x="632.140208" xlink:href="#m88e40ba178" y="202.558824"/>
      </g>
     </g>
    </g>
    <g id="xtick_16">
     <g id="line2d_16">
      <g>
       <use style="stroke:#000000;stroke-width:0.8;" x="701.841804" xlink:href="#m88e40ba178" y="202.558824"/>
      </g>
     </g>
    </g>
    <g id="xtick_17">
     <g id="line2d_17">
      <g>
       <use style="stroke:#000000;stroke-width:0.8;" x="771.5434" xlink:href="#m88e40ba178" y="202.558824"/>
      </g>
     </g>
    </g>
    <g id="xtick_18">
     <g id="line2d_18">
      <g>
       <use style="stroke:#000000;stroke-width:0.8;" x="841.244996" xlink:href="#m88e40ba178" y="202.558824"/>
      </g>
     </g>
    </g>
    <g id="xtick_19">
     <g id="line2d_19">
      <g>
       <use style="stroke:#000000;stroke-width:0.8;" x="910.946592" xlink:href="#m88e40ba178" y="202.558824"/>
      </g>
     </g>
    </g>
    <g id="xtick_20">
     <g id="line2d_20">
      <g>
       <use style="stroke:#000000;stroke-width:0.8;" x="980.648188" xlink:href="#m88e40ba178" y="202.558824"/>
      </g>
     </g>
    </g>
    <g id="xtick_21">
     <g id="line2d_21">
      <g>
       <use style="stroke:#000000;stroke-width:0.8;" x="1050.349784" xlink:href="#m88e40ba178" y="202.558824"/>
      </g>
     </g>
    </g>
   </g>
   <g id="matplotlib.axis_2">
    <g id="ytick_1">
     <g id="line2d_22">
      <defs>
       <path d="M 0 0 
L -3.5 0 
" id="mb03c3cbb70" style="stroke:#000000;stroke-width:1.6;"/>
      </defs>
      <g>
       <use style="stroke:#000000;stroke-width:1.6;" x="88.11925" xlink:href="#mb03c3cbb70" y="188.62379"/>
      </g>
     </g>
     <g id="text_8">
      <!-- 2% -->
      <defs>
       <path d="M 4.25 56.546875 
Q 4.25 65.828125 9.203125 71.296875 
Q 14.15625 76.765625 22.5625 76.765625 
Q 30.609375 76.765625 35.125 71.734375 
Q 39.65625 66.703125 39.65625 57.71875 
Q 39.65625 48.78125 34.671875 43.203125 
Q 29.6875 37.640625 21.4375 37.640625 
Q 13.625 37.640625 8.9375 42.8125 
Q 4.25 48 4.25 56.546875 
z
M 11.765625 57.03125 
Q 11.765625 50.734375 14.5 47.3125 
Q 17.234375 43.890625 21.96875 43.890625 
Q 26.859375 43.890625 29.515625 47.4375 
Q 32.171875 50.984375 32.171875 57.421875 
Q 32.171875 63.71875 29.5625 67.15625 
Q 26.953125 70.609375 22.21875 70.609375 
Q 17.390625 70.609375 14.578125 67.015625 
Q 11.765625 63.421875 11.765625 57.03125 
z
M 72.609375 75.640625 
L 24.03125 -0.484375 
L 15.875 -0.484375 
L 64.453125 75.640625 
z
M 49.5625 17.71875 
Q 49.5625 27 54.515625 32.546875 
Q 59.46875 38.09375 67.828125 38.09375 
Q 75.828125 38.09375 80.359375 33.03125 
Q 84.90625 27.984375 84.90625 18.796875 
Q 84.90625 9.90625 79.875 4.359375 
Q 74.859375 -1.171875 66.75 -1.171875 
Q 58.890625 -1.171875 54.21875 4.078125 
Q 49.5625 9.328125 49.5625 17.71875 
z
M 57.03125 18.171875 
Q 57.03125 12.015625 59.765625 8.5625 
Q 62.5 5.125 67.234375 5.125 
Q 72.125 5.125 74.78125 8.6875 
Q 77.4375 12.25 77.4375 18.65625 
Q 77.4375 25 74.78125 28.359375 
Q 72.125 31.734375 67.484375 31.734375 
Q 62.5 31.734375 59.765625 28.140625 
Q 57.03125 24.5625 57.03125 18.171875 
z
" id="MicrosoftYaHei-25"/>
      </defs>
      <g transform="translate(49.80175 195.01879)scale(0.16 -0.16)">
       <use xlink:href="#MicrosoftYaHei-32"/>
       <use x="58.642578" xlink:href="#MicrosoftYaHei-25"/>
      </g>
     </g>
    </g>
    <g id="ytick_2">
     <g id="line2d_23">
      <g>
       <use style="stroke:#000000;stroke-width:1.6;" x="88.11925" xlink:href="#mb03c3cbb70" y="147.912407"/>
      </g>
     </g>
     <g id="text_9">
      <!-- 5% -->
      <g transform="translate(49.80175 154.307407)scale(0.16 -0.16)">
       <use xlink:href="#MicrosoftYaHei-35"/>
       <use x="58.642578" xlink:href="#MicrosoftYaHei-25"/>
      </g>
     </g>
    </g>
    <g id="ytick_3">
     <g id="line2d_24">
      <g>
       <use style="stroke:#000000;stroke-width:1.6;" x="88.11925" xlink:href="#mb03c3cbb70" y="107.201025"/>
      </g>
     </g>
     <g id="text_10">
      <!-- 8% -->
      <g transform="translate(49.80175 113.596025)scale(0.16 -0.16)">
       <use xlink:href="#MicrosoftYaHei-38"/>
       <use x="58.642578" xlink:href="#MicrosoftYaHei-25"/>
      </g>
     </g>
    </g>
    <g id="ytick_4">
     <g id="line2d_25">
      <g>
       <use style="stroke:#000000;stroke-width:1.6;" x="88.11925" xlink:href="#mb03c3cbb70" y="66.489643"/>
      </g>
     </g>
     <g id="text_11">
      <!-- 10% -->
      <g transform="translate(40.41925 72.884643)scale(0.16 -0.16)">
       <use xlink:href="#MicrosoftYaHei-31"/>
       <use x="58.642578" xlink:href="#MicrosoftYaHei-30"/>
       <use x="117.285156" xlink:href="#MicrosoftYaHei-25"/>
      </g>
     </g>
    </g>
    <g id="ytick_5">
     <g id="line2d_26">
      <g>
       <use style="stroke:#000000;stroke-width:1.6;" x="88.11925" xlink:href="#mb03c3cbb70" y="25.77826"/>
      </g>
     </g>
     <g id="text_12">
      <!-- 12% -->
      <g transform="translate(40.41925 32.17326)scale(0.16 -0.16)">
       <use xlink:href="#MicrosoftYaHei-31"/>
       <use x="58.642578" xlink:href="#MicrosoftYaHei-32"/>
       <use x="117.285156" xlink:href="#MicrosoftYaHei-25"/>
      </g>
     </g>
    </g>
    <g id="text_13">
     <!-- 趋势 -->
     <defs>
      <path d="M 1.265625 -5.8125 
Q 8.984375 7.671875 9.671875 35.015625 
L 16.890625 34.625 
Q 16.609375 25.09375 15.484375 16.9375 
Q 18.796875 9.765625 24.3125 5.21875 
L 24.3125 40.96875 
L 2.25 40.96875 
L 2.25 48 
L 20.609375 48 
L 20.609375 62.0625 
L 4.6875 62.0625 
L 4.6875 69.09375 
L 20.609375 69.09375 
L 20.609375 82.953125 
L 27.9375 82.953125 
L 27.9375 69.09375 
L 42.28125 69.09375 
L 42.28125 62.0625 
L 27.9375 62.0625 
L 27.9375 48 
L 44.734375 48 
L 44.734375 40.96875 
L 31.546875 40.96875 
L 31.546875 25.734375 
L 45.015625 25.734375 
L 45.015625 18.703125 
L 31.546875 18.703125 
L 31.546875 0.78125 
Q 38.96875 -2.4375 48.921875 -2.59375 
Q 70.609375 -2.875 98.640625 -2.203125 
Q 97.171875 -5.515625 95.90625 -9.90625 
Q 67.78125 -10.109375 45.90625 -9.625 
Q 22.3125 -9.03125 13.8125 7.421875 
Q 11.140625 -4.890625 6.15625 -13.328125 
Q 4.109375 -9.234375 1.265625 -5.8125 
z
M 45.796875 14.5 
L 83.59375 14.5 
L 83.59375 27.984375 
L 49.125 27.984375 
L 49.125 34.625 
L 83.59375 34.625 
L 83.59375 47.796875 
L 48.25 47.796875 
L 48.25 54.390625 
Q 46.96875 52.734375 45.703125 51.21875 
Q 43.75 53.65625 40.71875 56.59375 
Q 50.484375 67.921875 57.234375 83.640625 
L 64.359375 81.203125 
Q 62.703125 77.828125 61.03125 74.65625 
L 86.328125 74.65625 
L 86.328125 67.921875 
L 78.515625 54.4375 
L 90.921875 54.4375 
L 90.921875 4.34375 
L 83.59375 4.34375 
L 83.59375 7.859375 
L 45.796875 7.859375 
z
M 48.25 54.4375 
L 70.3125 54.4375 
L 78.03125 68.015625 
L 57.328125 68.015625 
Q 52.9375 60.546875 48.25 54.4375 
z
" id="MicrosoftYaHei-8d8b"/>
      <path d="M 8.296875 23 
L 39.40625 23 
Q 39.75 25.828125 39.75 29.046875 
L 47.359375 29.046875 
Q 47.265625 25.875 46.96875 23 
L 86.71875 23 
Q 86.03125 11.078125 85.15625 2 
Q 83.984375 -10.40625 69.921875 -10.5 
Q 62.796875 -10.59375 51.078125 -10.296875 
Q 50.484375 -6.203125 49.421875 -1.8125 
Q 61.03125 -2.78125 69.734375 -2.78125 
Q 76.953125 -2.78125 77.640625 3.46875 
Q 78.21875 8.0625 78.71875 16.359375 
L 45.84375 16.359375 
Q 43.5 6.0625 37.5 0.4375 
Q 28.21875 -8.453125 7.328125 -13.328125 
Q 5.375 -10.109375 2.640625 -6.109375 
Q 23.734375 -1.8125 31.734375 5.8125 
Q 36.140625 9.71875 38.09375 16.359375 
L 8.296875 16.359375 
z
M 41.609375 52.296875 
L 45.015625 57.765625 
Q 49.125 55.71875 52.9375 53.765625 
Q 54.25 57.90625 54.6875 64.015625 
L 44.046875 64.015625 
L 44.046875 70.65625 
L 54.890625 70.65625 
L 54.890625 83.546875 
L 61.921875 83.546875 
L 61.921875 70.65625 
L 82.625 70.65625 
Q 82.625 51.609375 83.59375 44.578125 
Q 84.671875 36.671875 87.890625 36.671875 
Q 89.75 36.671875 90.625 41.265625 
Q 91.40625 45.75 91.703125 51.90625 
Q 95.125 50.4375 98.53125 49.265625 
Q 98.046875 43.3125 97.265625 39.203125 
Q 95.3125 28.375 87.703125 28.375 
Q 79 28.375 76.859375 40.375 
Q 75.59375 47.90625 75.59375 64.015625 
L 61.71875 64.015625 
Q 61.28125 55.859375 59.46875 50.25 
Q 66.359375 46.390625 71.96875 42.828125 
L 67.78125 36.28125 
Q 62.5 39.984375 56.453125 43.703125 
Q 51.421875 35.6875 36.625 27.6875 
Q 34.46875 30.90625 31.546875 33.9375 
Q 45.171875 40.625 49.90625 47.609375 
Q 45.90625 49.953125 41.609375 52.296875 
z
M 3.90625 49.75 
Q 9.625 50.6875 20.515625 52.78125 
L 20.515625 63.140625 
L 4.890625 63.140625 
L 4.890625 69.78125 
L 20.515625 69.78125 
L 20.515625 83.640625 
L 27.546875 83.640625 
L 27.546875 69.78125 
L 39.265625 69.78125 
L 39.265625 63.140625 
L 27.546875 63.140625 
L 27.546875 54.203125 
Q 32.953125 55.28125 39.453125 56.59375 
Q 39.65625 51.3125 39.75 49.65625 
Q 33.546875 48.4375 27.546875 47.21875 
L 27.546875 37.25 
Q 27.546875 27.59375 18.171875 27.484375 
Q 13.96875 27.390625 7.8125 27.59375 
Q 7.421875 31.5 6.640625 34.71875 
Q 12.984375 34.234375 16.796875 34.234375 
Q 20.515625 34.234375 20.515625 38.140625 
L 20.515625 45.703125 
Q 12.9375 44.046875 5.671875 42.328125 
z
" id="MicrosoftYaHei-52bf"/>
     </defs>
     <g transform="translate(32.044 124.229412)rotate(-90)scale(0.176 -0.176)">
      <use xlink:href="#MicrosoftYaHei-8d8b"/>
      <use x="100" xlink:href="#MicrosoftYaHei-52bf"/>
     </g>
    </g>
   </g>
   <g id="line2d_27">
    <path clip-path="url(#pe5a1a34097)" d="M 133.773795 176.234535 
L 146.552421 182.481516 
L 163.97782 190.984869 
L 169.786287 193.837968 
L 182.564913 186.496069 
L 197.666925 177.864967 
L 208.122165 171.877825 
L 223.224177 163.246752 
L 236.002803 155.904878 
L 242.972963 151.94988 
L 280.147147 152.261341 
L 304.542706 144.52893 
L 325.453185 137.883613 
L 330.099958 136.430548 
L 351.010437 129.782774 
L 353.333823 129.032024 
L 366.112449 130.394977 
L 389.346315 132.87604 
L 414.903566 125.029136 
L 436.975739 118.22614 
L 441.622512 116.818624 
L 462.53299 110.379238 
L 467.179764 104.666944 
L 474.149923 96.027689 
L 478.796696 90.220977 
L 481.120083 87.435643 
L 488.090242 78.796388 
L 492.737015 72.989676 
L 495.060402 70.204343 
L 500.868868 62.949159 
L 510.162414 51.351157 
L 520.617654 38.178118 
L 522.94104 35.362142 
L 529.9112 26.627844 
L 534.557973 20.757251 
L 535.719666 19.420856 
L 548.498292 29.666518 
L 550.821679 31.460269 
L 560.115225 38.878493 
L 570.570464 47.239197 
L 572.893851 49.175344 
L 585.672477 60.208879 
L 592.642637 66.221165 
L 601.936183 74.281592 
L 608.906342 80.293877 
L 644.918834 79.414657 
L 650.7273 83.686417 
L 658.859153 89.740434 
L 664.667619 94.012194 
L 672.799472 100.066211 
L 682.093018 106.968923 
L 694.871644 116.4177 
L 701.841804 121.623015 
L 704.16519 123.29211 
L 713.458736 130.19481 
L 718.10551 133.61787 
L 752.956308 140.662948 
L 781.998639 146.528706 
L 820.334517 154.26674 
L 855.185315 161.321192 
L 862.155475 162.716791 
L 866.802248 163.567517 
L 905.138126 169.834521 
L 956.25263 178.178011 
L 994.588507 184.451194 
L 1003.882054 185.960244 
L 1010.852213 187.101385 
L 1029.439306 179.631291 
L 1044.541318 173.557045 
L 1046.864705 172.621366 
L 1046.864705 172.621366 
" style="fill:none;stroke:#000000;stroke-linecap:square;stroke-width:2.8;"/>
   </g>
   <g id="patch_3">
    <path d="M 88.11925 202.558824 
L 88.11925 10.7 
" style="fill:none;stroke:#000000;stroke-linecap:square;stroke-linejoin:miter;stroke-width:0.8;"/>
   </g>
   <g id="patch_4">
    <path d="M 88.11925 202.558824 
L 1092.51925 202.558824 
" style="fill:none;stroke:#000000;stroke-linecap:square;stroke-linejoin:miter;stroke-width:0.8;"/>
   </g>
  </g>
  <g id="axes_2">
   <g id="patch_5">
    <path d="M 88.11925 432.789412 
L 1092.51925 432.789412 
L 1092.51925 240.930588 
L 88.11925 240.930588 
z
" style="fill:#ffffff;"/>
   </g>
   <g id="matplotlib.axis_3">
    <g id="xtick_22">
     <g id="line2d_28">
      <g>
       <use style="stroke:#000000;stroke-width:1.6;" x="213.930631" xlink:href="#mb701952481" y="432.789412"/>
      </g>
     </g>
     <g id="text_14">
      <!-- 1959 -->
      <g transform="translate(195.165631 460.279412)scale(0.16 -0.16)">
       <use xlink:href="#MicrosoftYaHei-31"/>
       <use x="58.642578" xlink:href="#MicrosoftYaHei-39"/>
       <use x="117.285156" xlink:href="#MicrosoftYaHei-35"/>
       <use x="175.927734" xlink:href="#MicrosoftYaHei-39"/>
      </g>
     </g>
    </g>
    <g id="xtick_23">
     <g id="line2d_29">
      <g>
       <use style="stroke:#000000;stroke-width:1.6;" x="353.333823" xlink:href="#mb701952481" y="432.789412"/>
      </g>
     </g>
     <g id="text_15">
      <!-- 1969 -->
      <g transform="translate(334.568823 460.279412)scale(0.16 -0.16)">
       <use xlink:href="#MicrosoftYaHei-31"/>
       <use x="58.642578" xlink:href="#MicrosoftYaHei-39"/>
       <use x="117.285156" xlink:href="#MicrosoftYaHei-36"/>
       <use x="175.927734" xlink:href="#MicrosoftYaHei-39"/>
      </g>
     </g>
    </g>
    <g id="xtick_24">
     <g id="line2d_30">
      <g>
       <use style="stroke:#000000;stroke-width:1.6;" x="492.737015" xlink:href="#mb701952481" y="432.789412"/>
      </g>
     </g>
     <g id="text_16">
      <!-- 1979 -->
      <g transform="translate(473.972015 460.279412)scale(0.16 -0.16)">
       <use xlink:href="#MicrosoftYaHei-31"/>
       <use x="58.642578" xlink:href="#MicrosoftYaHei-39"/>
       <use x="117.285156" xlink:href="#MicrosoftYaHei-37"/>
       <use x="175.927734" xlink:href="#MicrosoftYaHei-39"/>
      </g>
     </g>
    </g>
    <g id="xtick_25">
     <g id="line2d_31">
      <g>
       <use style="stroke:#000000;stroke-width:1.6;" x="632.140208" xlink:href="#mb701952481" y="432.789412"/>
      </g>
     </g>
     <g id="text_17">
      <!-- 1989 -->
      <g transform="translate(613.375208 460.279412)scale(0.16 -0.16)">
       <use xlink:href="#MicrosoftYaHei-31"/>
       <use x="58.642578" xlink:href="#MicrosoftYaHei-39"/>
       <use x="117.285156" xlink:href="#MicrosoftYaHei-38"/>
       <use x="175.927734" xlink:href="#MicrosoftYaHei-39"/>
      </g>
     </g>
    </g>
    <g id="xtick_26">
     <g id="line2d_32">
      <g>
       <use style="stroke:#000000;stroke-width:1.6;" x="771.5434" xlink:href="#mb701952481" y="432.789412"/>
      </g>
     </g>
     <g id="text_18">
      <!-- 1999 -->
      <g transform="translate(752.7784 460.279412)scale(0.16 -0.16)">
       <use xlink:href="#MicrosoftYaHei-31"/>
       <use x="58.642578" xlink:href="#MicrosoftYaHei-39"/>
       <use x="117.285156" xlink:href="#MicrosoftYaHei-39"/>
       <use x="175.927734" xlink:href="#MicrosoftYaHei-39"/>
      </g>
     </g>
    </g>
    <g id="xtick_27">
     <g id="line2d_33">
      <g>
       <use style="stroke:#000000;stroke-width:1.6;" x="910.946592" xlink:href="#mb701952481" y="432.789412"/>
      </g>
     </g>
     <g id="text_19">
      <!-- 2009 -->
      <g transform="translate(892.181592 460.279412)scale(0.16 -0.16)">
       <use xlink:href="#MicrosoftYaHei-32"/>
       <use x="58.642578" xlink:href="#MicrosoftYaHei-30"/>
       <use x="117.285156" xlink:href="#MicrosoftYaHei-30"/>
       <use x="175.927734" xlink:href="#MicrosoftYaHei-39"/>
      </g>
     </g>
    </g>
    <g id="xtick_28">
     <g id="line2d_34">
      <g>
       <use style="stroke:#000000;stroke-width:1.6;" x="1050.349784" xlink:href="#mb701952481" y="432.789412"/>
      </g>
     </g>
     <g id="text_20">
      <!-- 2019 -->
      <g transform="translate(1031.584784 460.279412)scale(0.16 -0.16)">
       <use xlink:href="#MicrosoftYaHei-32"/>
       <use x="58.642578" xlink:href="#MicrosoftYaHei-30"/>
       <use x="117.285156" xlink:href="#MicrosoftYaHei-31"/>
       <use x="175.927734" xlink:href="#MicrosoftYaHei-39"/>
      </g>
     </g>
    </g>
    <g id="xtick_29">
     <g id="line2d_35">
      <g>
       <use style="stroke:#000000;stroke-width:0.8;" x="144.229035" xlink:href="#m88e40ba178" y="432.789412"/>
      </g>
     </g>
    </g>
    <g id="xtick_30">
     <g id="line2d_36">
      <g>
       <use style="stroke:#000000;stroke-width:0.8;" x="213.930631" xlink:href="#m88e40ba178" y="432.789412"/>
      </g>
     </g>
    </g>
    <g id="xtick_31">
     <g id="line2d_37">
      <g>
       <use style="stroke:#000000;stroke-width:0.8;" x="283.632227" xlink:href="#m88e40ba178" y="432.789412"/>
      </g>
     </g>
    </g>
    <g id="xtick_32">
     <g id="line2d_38">
      <g>
       <use style="stroke:#000000;stroke-width:0.8;" x="353.333823" xlink:href="#m88e40ba178" y="432.789412"/>
      </g>
     </g>
    </g>
    <g id="xtick_33">
     <g id="line2d_39">
      <g>
       <use style="stroke:#000000;stroke-width:0.8;" x="423.035419" xlink:href="#m88e40ba178" y="432.789412"/>
      </g>
     </g>
    </g>
    <g id="xtick_34">
     <g id="line2d_40">
      <g>
       <use style="stroke:#000000;stroke-width:0.8;" x="492.737015" xlink:href="#m88e40ba178" y="432.789412"/>
      </g>
     </g>
    </g>
    <g id="xtick_35">
     <g id="line2d_41">
      <g>
       <use style="stroke:#000000;stroke-width:0.8;" x="562.438612" xlink:href="#m88e40ba178" y="432.789412"/>
      </g>
     </g>
    </g>
    <g id="xtick_36">
     <g id="line2d_42">
      <g>
       <use style="stroke:#000000;stroke-width:0.8;" x="632.140208" xlink:href="#m88e40ba178" y="432.789412"/>
      </g>
     </g>
    </g>
    <g id="xtick_37">
     <g id="line2d_43">
      <g>
       <use style="stroke:#000000;stroke-width:0.8;" x="701.841804" xlink:href="#m88e40ba178" y="432.789412"/>
      </g>
     </g>
    </g>
    <g id="xtick_38">
     <g id="line2d_44">
      <g>
       <use style="stroke:#000000;stroke-width:0.8;" x="771.5434" xlink:href="#m88e40ba178" y="432.789412"/>
      </g>
     </g>
    </g>
    <g id="xtick_39">
     <g id="line2d_45">
      <g>
       <use style="stroke:#000000;stroke-width:0.8;" x="841.244996" xlink:href="#m88e40ba178" y="432.789412"/>
      </g>
     </g>
    </g>
    <g id="xtick_40">
     <g id="line2d_46">
      <g>
       <use style="stroke:#000000;stroke-width:0.8;" x="910.946592" xlink:href="#m88e40ba178" y="432.789412"/>
      </g>
     </g>
    </g>
    <g id="xtick_41">
     <g id="line2d_47">
      <g>
       <use style="stroke:#000000;stroke-width:0.8;" x="980.648188" xlink:href="#m88e40ba178" y="432.789412"/>
      </g>
     </g>
    </g>
    <g id="xtick_42">
     <g id="line2d_48">
      <g>
       <use style="stroke:#000000;stroke-width:0.8;" x="1050.349784" xlink:href="#m88e40ba178" y="432.789412"/>
      </g>
     </g>
    </g>
   </g>
   <g id="matplotlib.axis_4">
    <g id="ytick_6">
     <g id="line2d_49">
      <g>
       <use style="stroke:#000000;stroke-width:1.6;" x="88.11925" xlink:href="#mb03c3cbb70" y="400.590519"/>
      </g>
     </g>
     <g id="text_21">
      <!-- -1.0% -->
      <defs>
       <path d="M 36.375 26.265625 
L 7.625 26.265625 
L 7.625 33.640625 
L 36.375 33.640625 
z
" id="MicrosoftYaHei-2d"/>
       <path d="M 5.8125 5.03125 
Q 5.8125 7.671875 7.609375 9.46875 
Q 9.421875 11.28125 12.109375 11.28125 
Q 14.84375 11.28125 16.640625 9.453125 
Q 18.453125 7.625 18.453125 5.03125 
Q 18.453125 2.484375 16.640625 0.65625 
Q 14.84375 -1.171875 12.0625 -1.171875 
Q 9.375 -1.171875 7.59375 0.65625 
Q 5.8125 2.484375 5.8125 5.03125 
z
" id="MicrosoftYaHei-2e"/>
      </defs>
      <g transform="translate(29.64425 406.985519)scale(0.16 -0.16)">
       <use xlink:href="#MicrosoftYaHei-2d"/>
       <use x="43.261719" xlink:href="#MicrosoftYaHei-31"/>
       <use x="101.904297" xlink:href="#MicrosoftYaHei-2e"/>
       <use x="125.976562" xlink:href="#MicrosoftYaHei-30"/>
       <use x="184.619141" xlink:href="#MicrosoftYaHei-25"/>
      </g>
     </g>
    </g>
    <g id="ytick_7">
     <g id="line2d_50">
      <g>
       <use style="stroke:#000000;stroke-width:1.6;" x="88.11925" xlink:href="#mb03c3cbb70" y="348.301532"/>
      </g>
     </g>
     <g id="text_22">
      <!-- 0.0% -->
      <g transform="translate(36.56675 354.696532)scale(0.16 -0.16)">
       <use xlink:href="#MicrosoftYaHei-30"/>
       <use x="58.642578" xlink:href="#MicrosoftYaHei-2e"/>
       <use x="82.714844" xlink:href="#MicrosoftYaHei-30"/>
       <use x="141.357422" xlink:href="#MicrosoftYaHei-25"/>
      </g>
     </g>
    </g>
    <g id="ytick_8">
     <g id="line2d_51">
      <g>
       <use style="stroke:#000000;stroke-width:1.6;" x="88.11925" xlink:href="#mb03c3cbb70" y="296.012545"/>
      </g>
     </g>
     <g id="text_23">
      <!-- 1.0% -->
      <g transform="translate(36.56675 302.407545)scale(0.16 -0.16)">
       <use xlink:href="#MicrosoftYaHei-31"/>
       <use x="58.642578" xlink:href="#MicrosoftYaHei-2e"/>
       <use x="82.714844" xlink:href="#MicrosoftYaHei-30"/>
       <use x="141.357422" xlink:href="#MicrosoftYaHei-25"/>
      </g>
     </g>
    </g>
    <g id="ytick_9">
     <g id="line2d_52">
      <g>
       <use style="stroke:#000000;stroke-width:1.6;" x="88.11925" xlink:href="#mb03c3cbb70" y="243.723558"/>
      </g>
     </g>
     <g id="text_24">
      <!-- 2.0% -->
      <g transform="translate(36.56675 250.118558)scale(0.16 -0.16)">
       <use xlink:href="#MicrosoftYaHei-32"/>
       <use x="58.642578" xlink:href="#MicrosoftYaHei-2e"/>
       <use x="82.714844" xlink:href="#MicrosoftYaHei-30"/>
       <use x="141.357422" xlink:href="#MicrosoftYaHei-25"/>
      </g>
     </g>
    </g>
    <g id="text_25">
     <!-- 周期 -->
     <defs>
      <path d="M 18.359375 43.015625 
Q 18.359375 18.21875 16.21875 8.9375 
Q 13.875 -2.390625 6.453125 -12.84375 
Q 3.609375 -9.234375 0.875 -6.296875 
Q 7.03125 3.078125 8.984375 12.546875 
Q 10.546875 20.75 10.546875 41.15625 
L 10.546875 79.046875 
L 93.453125 79.046875 
L 93.453125 1.125 
Q 93.453125 -11.46875 81.34375 -11.671875 
Q 74.421875 -11.765625 65.921875 -11.46875 
Q 65.53125 -8.546875 64.359375 -3.5625 
Q 73.828125 -4.15625 78.90625 -4.15625 
Q 85.84375 -4.15625 85.84375 2.390625 
L 85.84375 72.015625 
L 18.359375 72.015625 
z
M 31.0625 29.640625 
L 72.859375 29.640625 
L 72.859375 3.265625 
L 38.484375 3.265625 
L 38.484375 -2.984375 
L 31.0625 -2.984375 
z
M 23.046875 44.390625 
L 48.140625 44.390625 
L 48.140625 54.25 
L 27.546875 54.25 
L 27.546875 60.890625 
L 48.140625 60.890625 
L 48.140625 69.484375 
L 55.765625 69.484375 
L 55.765625 60.890625 
L 76.375 60.890625 
L 76.375 54.25 
L 55.765625 54.25 
L 55.765625 44.390625 
L 80.953125 44.390625 
L 80.953125 37.75 
L 23.046875 37.75 
z
M 65.4375 9.90625 
L 65.4375 23 
L 38.484375 23 
L 38.484375 9.90625 
z
" id="MicrosoftYaHei-5468"/>
      <path d="M 58.890625 79.15625 
L 93.453125 79.15625 
L 93.453125 -0.046875 
Q 93.453125 -11.578125 82.515625 -11.578125 
Q 77.046875 -11.578125 71.78125 -11.28125 
Q 71.390625 -8.0625 70.609375 -3.765625 
Q 77.734375 -4.4375 80.859375 -4.4375 
Q 86.234375 -4.4375 86.234375 0.921875 
L 86.234375 21.4375 
L 65.328125 21.4375 
Q 64.265625 0.046875 52.34375 -14.109375 
Q 49.703125 -11.375 46.484375 -8.640625 
Q 54.390625 0.4375 56.546875 10.203125 
Q 58.890625 19.578125 58.890625 42.828125 
z
M 1.953125 17.828125 
L 11.140625 17.828125 
L 11.140625 62.9375 
L 3.125 62.9375 
L 3.125 69.578125 
L 11.140625 69.578125 
L 11.140625 81.5 
L 18.359375 81.5 
L 18.359375 69.578125 
L 38.671875 69.578125 
L 38.671875 81.890625 
L 45.90625 81.890625 
L 45.90625 69.578125 
L 53.8125 69.578125 
L 53.8125 62.9375 
L 45.90625 62.9375 
L 45.90625 17.828125 
L 53.71875 17.828125 
L 53.71875 11.1875 
L 1.953125 11.1875 
z
M 65.765625 27.875 
L 86.234375 27.875 
L 86.234375 47.015625 
L 66.109375 47.015625 
Q 66.21875 34.421875 65.765625 27.875 
z
M 86.234375 72.515625 
L 66.109375 72.515625 
L 66.109375 53.46875 
L 86.234375 53.46875 
z
M 18.359375 17.828125 
L 38.671875 17.828125 
L 38.671875 28.765625 
L 18.359375 28.765625 
z
M 18.359375 35.015625 
L 38.671875 35.015625 
L 38.671875 45.84375 
L 18.359375 45.84375 
z
M 18.359375 52.09375 
L 38.671875 52.09375 
L 38.671875 62.9375 
L 18.359375 62.9375 
z
M 18.359375 9.328125 
L 24.3125 4.640625 
Q 14.453125 -6 6.34375 -13.234375 
Q 4.296875 -10.890625 1.171875 -8.0625 
Q 10.453125 -0.140625 18.359375 9.328125 
z
M 31.15625 4.734375 
L 35.84375 9.515625 
Q 42.671875 4.4375 48.734375 -0.734375 
L 43.5625 -6.296875 
Q 38.09375 -0.828125 31.15625 4.734375 
z
" id="MicrosoftYaHei-671f"/>
     </defs>
     <g transform="translate(21.269 354.46)rotate(-90)scale(0.176 -0.176)">
      <use xlink:href="#MicrosoftYaHei-5468"/>
      <use x="100" xlink:href="#MicrosoftYaHei-671f"/>
     </g>
    </g>
   </g>
   <g id="line2d_53">
    <path clip-path="url(#p480fc162cd)" d="M 133.773795 375.519851 
L 134.935489 375.134936 
L 136.097182 376.400016 
L 137.258875 364.701235 
L 138.420569 361.428079 
L 139.582262 370.029128 
L 140.743955 367.512831 
L 141.905648 362.014677 
L 143.067342 364.919256 
L 144.229035 367.372447 
L 146.552421 376.001324 
L 147.714115 368.631989 
L 148.875808 363.670705 
L 150.037501 369.070752 
L 151.199194 370.887388 
L 152.360888 371.851563 
L 153.522581 370.508815 
L 154.684274 354.922828 
L 155.845968 346.19531 
L 157.007661 353.895491 
L 158.169354 343.054875 
L 159.331047 314.609597 
L 160.492741 305.304716 
L 162.816127 358.524193 
L 163.97782 360.85438 
L 165.139514 346.72268 
L 166.301207 334.941213 
L 167.4629 325.49155 
L 168.624594 313.178035 
L 169.786287 308.132134 
L 170.94798 312.471489 
L 172.109673 313.907668 
L 173.271367 307.430391 
L 174.43306 296.404304 
L 175.594753 288.131402 
L 176.756446 287.401926 
L 177.91814 289.700159 
L 179.079833 282.552554 
L 180.241526 265.452051 
L 181.403219 261.275417 
L 183.726606 307.618401 
L 184.888299 304.755243 
L 186.049993 296.42236 
L 188.373379 305.368215 
L 189.535072 304.005143 
L 190.696766 300.024516 
L 191.858459 288.368352 
L 193.020152 287.244086 
L 194.181845 311.562222 
L 195.343539 332.35927 
L 196.505232 343.874646 
L 197.666925 362.604021 
L 198.828618 376.04179 
L 199.990312 377.332448 
L 202.313698 391.534946 
L 204.637085 378.378384 
L 205.798778 369.17735 
L 206.960471 351.260188 
L 208.122165 344.341006 
L 209.283858 345.25719 
L 210.445551 341.328378 
L 211.607244 349.062838 
L 212.768938 365.070453 
L 213.930631 360.050653 
L 215.092324 346.930149 
L 216.254018 343.257491 
L 217.415711 331.871504 
L 218.577404 304.310774 
L 219.739097 294.680998 
L 220.900791 308.61197 
L 222.062484 315.162757 
L 223.224177 315.000851 
L 224.38587 327.612748 
L 225.547564 335.863724 
L 226.709257 327.623184 
L 227.87095 325.559873 
L 229.032643 329.503614 
L 230.194337 324.444372 
L 231.35603 329.159866 
L 232.517723 352.248675 
L 233.679417 364.440644 
L 234.84111 366.200699 
L 236.002803 374.906239 
L 237.164496 379.074343 
L 238.32619 377.546563 
L 239.487883 382.859976 
L 240.649576 384.864738 
L 241.811269 382.220248 
L 242.972963 391.972348 
L 244.134656 407.939841 
L 245.296349 409.254762 
L 246.458043 403.561748 
L 247.619736 404.488779 
L 248.781429 411.645546 
L 249.943122 420.288871 
L 251.104816 424.068556 
L 252.266509 422.089801 
L 253.428202 420.655768 
L 255.751589 422.189627 
L 256.913282 420.979308 
L 258.074975 413.733146 
L 259.236668 402.900568 
L 260.398362 398.240987 
L 261.560055 400.77394 
L 262.721748 399.148533 
L 263.883442 390.059858 
L 265.045135 384.124947 
L 266.206828 386.645037 
L 267.368521 391.219057 
L 268.530215 393.326269 
L 270.853601 398.105967 
L 272.015294 396.069618 
L 274.338681 381.225016 
L 275.500374 376.41434 
L 277.823761 363.86061 
L 278.985454 367.264608 
L 280.147147 374.157543 
L 281.308841 368.745775 
L 282.470534 359.717698 
L 283.632227 362.121864 
L 284.79392 363.997804 
L 285.955614 359.483879 
L 287.117307 362.997917 
L 288.279 375.684595 
L 289.440693 385.032997 
L 290.602387 388.971314 
L 291.76408 386.782019 
L 292.925773 383.560812 
L 294.087467 389.341295 
L 295.24916 397.103833 
L 296.410853 396.044038 
L 297.572546 392.843468 
L 298.73424 391.240087 
L 301.057626 377.988338 
L 302.219319 379.140144 
L 303.381013 382.097318 
L 304.542706 380.191773 
L 305.704399 375.005514 
L 306.866092 371.315081 
L 308.027786 372.541161 
L 309.189479 375.826863 
L 310.351172 375.648004 
L 311.512866 375.293265 
L 312.674559 378.626228 
L 313.836252 380.861521 
L 314.997945 378.767414 
L 316.159639 377.713255 
L 317.321332 377.045939 
L 318.483025 374.702789 
L 319.644718 378.75896 
L 320.806412 386.734624 
L 321.968105 385.703993 
L 323.129798 381.721337 
L 324.291491 386.936561 
L 325.453185 390.003203 
L 326.614878 383.961944 
L 327.776571 379.573337 
L 328.938265 380.571507 
L 330.099958 379.443357 
L 331.261651 379.129983 
L 332.423344 383.678848 
L 333.585038 389.288878 
L 334.746731 389.174658 
L 335.908424 378.853347 
L 337.070117 369.656824 
L 338.231811 373.911516 
L 339.393504 380.683502 
L 341.716891 379.721414 
L 342.878584 377.986527 
L 344.040277 374.637329 
L 345.20197 380.928644 
L 346.363664 389.745742 
L 347.525357 390.196455 
L 348.68705 391.655948 
L 349.848743 388.898023 
L 351.010437 375.83318 
L 352.17213 371.322606 
L 353.333823 372.199792 
L 354.495516 358.590991 
L 355.65721 341.250559 
L 356.818903 332.669999 
L 357.980596 316.835748 
L 359.14229 307.385333 
L 360.303983 313.43221 
L 361.465676 302.673835 
L 362.627369 281.092681 
L 363.789063 279.131284 
L 364.950756 272.860706 
L 366.112449 251.251862 
L 367.274142 262.098954 
L 368.435836 290.335254 
L 369.597529 287.269986 
L 370.759222 269.502058 
L 371.920916 281.349901 
L 373.082609 297.832111 
L 374.244302 296.395032 
L 375.405995 296.890302 
L 376.567689 302.551087 
L 377.729382 309.980363 
L 380.052768 344.901523 
L 381.214462 343.777562 
L 382.376155 341.492227 
L 383.537848 340.005054 
L 384.699541 324.737494 
L 385.861235 305.537461 
L 387.022928 298.808209 
L 388.184621 297.688926 
L 389.346315 302.446805 
L 391.669701 330.114802 
L 392.831394 335.02212 
L 393.993088 332.220788 
L 395.154781 323.879213 
L 396.316474 318.170661 
L 397.478167 316.204261 
L 398.639861 313.8051 
L 399.801554 316.166479 
L 400.963247 325.421688 
L 402.12494 329.01146 
L 403.286634 322.889212 
L 404.448327 321.17699 
L 405.61002 329.805866 
L 406.771714 337.299531 
L 407.933407 336.119543 
L 409.0951 334.662163 
L 410.256793 335.990906 
L 412.58018 326.95172 
L 413.741873 331.431176 
L 414.903566 328.193809 
L 416.06526 317.687531 
L 417.226953 330.546574 
L 418.388646 356.114439 
L 419.55034 361.910001 
L 420.712033 355.440829 
L 421.873726 354.967298 
L 423.035419 351.011274 
L 424.197113 338.826854 
L 425.358806 324.522443 
L 426.520499 317.242862 
L 427.682192 314.542256 
L 428.843886 306.933855 
L 430.005579 294.970209 
L 431.167272 291.365048 
L 433.490659 297.471914 
L 434.652352 299.585626 
L 435.814045 295.376933 
L 436.975739 290.005361 
L 438.137432 292.328364 
L 439.299125 290.460397 
L 440.460818 281.397559 
L 441.622512 283.855545 
L 442.784205 291.566822 
L 443.945898 289.686358 
L 445.107591 289.327851 
L 446.269285 293.123491 
L 447.430978 296.135393 
L 448.592671 306.936277 
L 449.754365 319.684738 
L 450.916058 322.859466 
L 453.239444 332.863894 
L 454.401138 323.422115 
L 455.562831 311.683234 
L 456.724524 313.491761 
L 457.886217 322.947351 
L 461.371297 354.651404 
L 462.53299 359.674792 
L 463.694684 352.288658 
L 464.856377 343.393448 
L 466.01807 342.971413 
L 467.179764 340.396229 
L 468.341457 339.012386 
L 469.50315 350.531741 
L 470.664843 359.181618 
L 471.826537 363.570518 
L 472.98823 380.549256 
L 474.149923 391.574852 
L 475.311616 384.070163 
L 476.47331 379.827181 
L 477.635003 381.096461 
L 478.796696 379.911379 
L 479.958389 382.499982 
L 481.120083 381.578967 
L 482.281776 374.460844 
L 483.443469 376.044296 
L 484.605163 374.952519 
L 485.766856 362.540077 
L 486.928549 362.994913 
L 488.090242 370.784147 
L 489.251936 365.912514 
L 490.413629 362.090784 
L 491.575322 365.592452 
L 492.737015 367.918067 
L 493.898709 373.121795 
L 495.060402 375.384135 
L 496.222095 366.737117 
L 497.383789 364.333055 
L 498.545482 369.986778 
L 499.707175 370.795574 
L 500.868868 372.299076 
L 502.030562 368.50351 
L 503.192255 351.658664 
L 504.353948 347.085416 
L 505.515641 354.350595 
L 506.677335 337.38639 
L 507.839028 309.049271 
L 509.000721 309.008121 
L 510.162414 338.477767 
L 511.324108 361.418048 
L 512.485801 358.315399 
L 513.647494 343.500455 
L 517.132574 310.987357 
L 518.294267 308.607345 
L 519.455961 313.492535 
L 520.617654 312.965863 
L 521.779347 305.437366 
L 522.94104 294.335671 
L 524.102734 287.325165 
L 525.264427 287.993418 
L 526.42612 289.402226 
L 527.587813 279.578774 
L 528.749507 262.754416 
L 529.9112 263.8395 
L 531.072893 290.474748 
L 532.234587 309.167048 
L 533.39628 302.402727 
L 534.557973 296.613089 
L 535.719666 302.492333 
L 536.88136 305.280165 
L 538.043053 303.638465 
L 539.204746 298.209885 
L 540.366439 286.273065 
L 541.528133 290.431546 
L 542.689826 316.906656 
L 543.851519 334.708477 
L 545.013213 346.932037 
L 546.174906 366.456105 
L 547.336599 376.638517 
L 548.498292 378.154846 
L 549.659986 386.923024 
L 550.821679 391.02565 
L 551.983372 383.316178 
L 553.145065 377.288604 
L 554.306759 365.954053 
L 555.468452 348.547285 
L 556.630145 344.623923 
L 557.791838 344.682681 
L 558.953532 341.376271 
L 560.115225 352.514805 
L 561.276918 366.160268 
L 562.438612 356.941584 
L 563.600305 345.205126 
L 564.761998 342.349591 
L 565.923691 326.185043 
L 567.085385 299.394142 
L 568.247078 296.695117 
L 569.408771 311.596037 
L 570.570464 314.747401 
L 571.732158 316.677404 
L 572.893851 330.974647 
L 574.055544 334.968399 
L 575.217238 325.829616 
L 576.378931 326.802418 
L 577.540624 329.195216 
L 578.702317 323.692015 
L 579.864011 332.881164 
L 581.025704 356.234552 
L 582.187397 364.861085 
L 583.34909 367.318434 
L 584.510784 376.60041 
L 585.672477 378.712038 
L 586.83417 378.052374 
L 587.995863 384.054304 
L 589.157557 384.107178 
L 590.31925 383.072027 
L 591.480943 395.44313 
L 592.642637 409.50981 
L 593.80433 408.1046 
L 594.966023 403.095977 
L 596.127716 405.522647 
L 598.451103 421.584977 
L 599.612796 423.995621 
L 600.774489 421.584779 
L 601.936183 420.7119 
L 603.097876 421.684842 
L 604.259569 422.175669 
L 605.421262 420.160167 
L 606.582956 411.582533 
L 607.744649 401.202771 
L 608.906342 398.479103 
L 610.068036 401.138064 
L 611.229729 397.756161 
L 612.391422 388.286375 
L 613.553115 384.005401 
L 614.714809 387.66722 
L 615.876502 391.80736 
L 617.038195 393.660062 
L 618.199888 396.362509 
L 619.361582 398.220641 
L 620.523275 394.704931 
L 621.684968 386.885128 
L 622.846662 379.955057 
L 624.008355 375.255245 
L 625.170048 368.278702 
L 626.331741 363.647442 
L 627.493435 369.221639 
L 628.655128 374.148264 
L 629.816821 366.180842 
L 630.978514 359.302966 
L 632.140208 363.24255 
L 633.301901 363.319387 
L 634.463594 359.153178 
L 635.625287 365.137418 
L 636.786981 378.019469 
L 637.948674 386.219777 
L 639.110367 389.045658 
L 640.272061 385.851875 
L 641.433754 383.842029 
L 642.595447 391.250095 
L 643.75714 397.636067 
L 647.24222 390.433816 
L 648.403913 382.86114 
L 649.565607 377.582384 
L 651.888993 382.164064 
L 653.050687 379.30683 
L 654.21238 374.012562 
L 655.374073 371.116668 
L 656.535766 373.257845 
L 657.69746 376.130452 
L 658.859153 375.339147 
L 660.020846 375.769065 
L 661.182539 379.421961 
L 662.344233 380.653876 
L 663.505926 378.335985 
L 664.667619 377.731798 
L 665.829312 376.575139 
L 666.991006 374.737129 
L 668.152699 380.480864 
L 669.314392 387.47888 
L 670.476086 384.556985 
L 671.637779 382.009622 
L 672.799472 388.299493 
L 673.961165 389.193185 
L 675.122859 382.306347 
L 676.284552 379.643009 
L 677.446245 380.610314 
L 678.607938 379.029504 
L 679.769632 379.771013 
L 682.093018 390.025578 
L 683.254711 387.66647 
L 684.416405 375.936965 
L 685.578098 369.406095 
L 686.739791 375.938657 
L 687.901485 381.018279 
L 689.063178 379.890844 
L 690.224871 379.721624 
L 691.386564 377.112724 
L 692.548258 374.97752 
L 693.709951 383.063542 
L 694.871644 390.345597 
L 696.033337 390.170127 
L 697.195031 392.014754 
L 698.356724 386.718874 
L 699.518417 373.665393 
L 700.680111 371.981018 
L 701.841804 370.544984 
L 704.16519 339.29057 
L 705.326884 330.377791 
L 706.488577 313.552232 
L 707.65027 307.990878 
L 708.811963 313.58199 
L 709.973657 297.914682 
L 711.13535 278.99423 
L 712.297043 279.596632 
L 713.458736 268.711631 
L 714.62043 249.651444 
L 715.782123 268.561593 
L 716.943816 293.358978 
L 718.10551 282.865544 
L 719.267203 269.203825 
L 720.428896 285.734073 
L 721.590589 298.684668 
L 722.752283 295.702811 
L 723.913976 297.991395 
L 725.075669 303.557215 
L 726.237362 312.70557 
L 727.399056 332.592203 
L 728.560749 345.865698 
L 729.722442 342.83517 
L 730.884135 341.674285 
L 732.045829 337.830661 
L 734.369215 302.919249 
L 735.530909 298.347603 
L 736.692602 297.925989 
L 737.854295 305.083317 
L 739.015988 320.145357 
L 740.177682 332.003349 
L 741.339375 335.057482 
L 742.501068 330.609321 
L 743.662761 322.046429 
L 744.824455 317.626009 
L 745.986148 315.78036 
L 747.147841 313.572433 
L 748.309535 317.736783 
L 749.471228 327.030564 
L 750.632921 328.272933 
L 751.794614 321.758577 
L 752.956308 322.197807 
L 754.118001 331.837665 
L 755.279694 337.697612 
L 756.441387 335.479368 
L 757.603081 334.978359 
L 758.764774 335.762968 
L 759.926467 329.975538 
L 761.08816 327.315329 
L 762.249854 332.018573 
L 763.411547 325.841558 
L 764.57324 317.72754 
L 765.734934 335.886408 
L 766.896627 359.343154 
L 768.05832 360.670964 
L 769.220013 354.830485 
L 770.381707 354.97333 
L 771.5434 348.931651 
L 773.866786 322.444735 
L 775.02848 316.610426 
L 776.190173 313.671554 
L 777.351866 304.553881 
L 778.51356 293.381036 
L 779.675253 291.763155 
L 781.998639 298.074003 
L 783.160333 299.411536 
L 784.322026 293.934222 
L 785.483719 290.027407 
L 786.645412 292.946464 
L 787.807106 288.355324 
L 788.968799 280.474942 
L 791.292185 291.943377 
L 792.453879 288.926997 
L 793.615572 290.224181 
L 794.777265 293.677448 
L 795.938959 297.734945 
L 797.100652 310.383093 
L 798.262345 321.062001 
L 799.424038 323.458607 
L 800.585732 329.412687 
L 801.747425 332.158659 
L 802.909118 320.526519 
L 804.070811 310.969156 
L 805.232505 315.051861 
L 807.555891 335.614929 
L 809.879278 356.388278 
L 811.040971 359.220544 
L 812.202664 350.051403 
L 813.364358 342.847526 
L 814.526051 342.980931 
L 815.687744 339.444086 
L 816.849437 340.341706 
L 818.011131 353.099895 
L 820.334517 365.832817 
L 821.49621 384.185451 
L 822.657904 391.167109 
L 823.819597 382.357317 
L 824.98129 380.099672 
L 826.142984 380.909092 
L 827.304677 380.11676 
L 828.46637 383.106163 
L 829.628063 380.163918 
L 830.789757 373.880835 
L 831.95145 376.832358 
L 833.113143 372.897688 
L 834.274836 361.012194 
L 835.43653 364.908884 
L 836.598223 370.871737 
L 837.759916 364.413225 
L 838.921609 362.528222 
L 840.083303 366.128376 
L 841.244996 368.673183 
L 842.406689 374.57692 
L 843.568383 373.965233 
L 844.730076 364.946428 
L 845.891769 365.572747 
L 847.053462 370.670806 
L 848.215156 370.817282 
L 849.376849 372.571988 
L 850.538542 365.32835 
L 851.700235 348.602766 
L 852.861929 348.918329 
L 854.023622 353.449854 
L 856.347009 305.706591 
L 857.508702 313.590159 
L 858.670395 344.640249 
L 859.832088 362.68712 
L 860.993782 355.638313 
L 862.155475 341.005014 
L 863.317168 331.15723 
L 865.640555 309.556321 
L 866.802248 309.37596 
L 867.963941 314.099933 
L 869.125634 311.805746 
L 870.287328 303.324825 
L 871.449021 292.420332 
L 872.610714 286.862911 
L 873.772408 288.632193 
L 874.934101 288.622949 
L 876.095794 276.254494 
L 877.257487 260.805434 
L 878.419181 267.555198 
L 879.580874 296.039493 
L 880.742567 309.516351 
L 881.90426 300.173258 
L 883.065954 297.389225 
L 884.227647 303.704943 
L 885.38934 305.028272 
L 886.551033 303.181875 
L 887.712727 295.996063 
L 888.87442 284.85935 
L 890.036113 294.634335 
L 891.197807 321.768982 
L 893.521193 350.463469 
L 894.682886 369.834027 
L 895.84458 376.82855 
L 897.006273 379.459167 
L 898.167966 389.153945 
L 899.329659 389.730368 
L 900.491353 381.622396 
L 901.653046 375.676666 
L 902.814739 361.78674 
L 903.976433 346.216986 
L 905.138126 345.104583 
L 907.461512 342.348424 
L 908.623206 356.725135 
L 909.784899 366.075058 
L 910.946592 353.252697 
L 912.108285 344.339694 
L 913.269979 340.865466 
L 914.431672 320.71059 
L 915.593365 296.365053 
L 916.755058 299.291993 
L 917.916752 313.476185 
L 919.078445 314.331765 
L 920.240138 318.819637 
L 921.401832 333.337506 
L 922.563525 333.493353 
L 923.725218 324.876623 
L 924.886911 327.923785 
L 926.048605 328.384542 
L 927.210298 323.638496 
L 928.371991 337.27479 
L 929.533684 359.480675 
L 930.695378 365.010027 
L 931.857071 368.837343 
L 933.018764 377.914764 
L 934.180457 378.205202 
L 935.342151 378.941651 
L 936.503844 384.929706 
L 937.665537 383.246886 
L 938.827231 384.649326 
L 939.988924 398.966335 
L 941.150617 410.361021 
L 943.474004 402.96934 
L 944.635697 406.7596 
L 945.79739 415.135763 
L 946.959083 422.634723 
L 948.120777 423.707886 
L 949.28247 421.170009 
L 950.444163 420.846324 
L 951.605857 421.860345 
L 952.76755 422.062768 
L 953.929243 418.852238 
L 956.25263 399.673357 
L 957.414323 399.054382 
L 958.576016 401.20718 
L 959.737709 395.793012 
L 960.899403 386.514265 
L 962.061096 384.30806 
L 963.222789 388.852447 
L 964.384482 392.34325 
L 965.546176 394.121955 
L 966.707869 397.060466 
L 967.869562 398.067304 
L 969.031256 393.326747 
L 970.192949 385.30087 
L 971.354642 378.979663 
L 972.516335 374.139391 
L 973.678029 366.829552 
L 974.839722 363.98385 
L 976.001415 370.900319 
L 977.163108 373.465053 
L 978.324802 364.039993 
L 979.486495 359.51737 
L 980.648188 363.94976 
L 981.809882 362.385857 
L 982.971575 359.312644 
L 984.133268 367.560971 
L 985.294961 380.133148 
L 986.456655 387.205911 
L 987.618348 388.862951 
L 988.780041 384.95169 
L 989.941734 384.571342 
L 991.103428 393.110166 
L 992.265121 397.74294 
L 993.426814 394.451993 
L 994.588507 392.355404 
L 995.750201 389.36041 
L 996.911894 381.267963 
L 998.073587 377.533905 
L 999.235281 380.665738 
L 1000.396974 382.004464 
L 1001.558667 378.328529 
L 1002.72036 373.110781 
L 1003.882054 371.143067 
L 1005.043747 374.007308 
L 1006.20544 376.246846 
L 1007.367133 375.087333 
L 1008.528827 376.423072 
L 1009.69052 380.184307 
L 1010.852213 380.205576 
L 1012.013906 377.971541 
L 1013.1756 377.707252 
L 1014.337293 375.936377 
L 1015.498986 375.220916 
L 1016.66068 382.583534 
L 1017.822373 387.728723 
L 1018.984066 383.263514 
L 1020.145759 382.910897 
L 1021.307453 389.551059 
L 1022.469146 387.776008 
L 1023.630839 381.147094 
L 1024.792532 379.874208 
L 1025.954226 380.476298 
L 1027.115919 378.792659 
L 1028.277612 380.536325 
L 1029.439306 386.256963 
L 1030.600999 390.345646 
L 1031.762692 385.907711 
L 1032.924385 373.660904 
L 1034.086079 369.859132 
L 1035.247772 377.567959 
L 1036.409465 380.982817 
L 1037.571158 379.703494 
L 1038.732852 379.589162 
L 1039.894545 376.207145 
L 1041.056238 375.827024 
L 1042.217931 385.139291 
L 1043.379625 390.577916 
L 1044.541318 390.33128 
L 1045.703011 392.074214 
L 1046.864705 384.118122 
L 1046.864705 384.118122 
" style="fill:none;stroke:#000000;stroke-linecap:square;stroke-width:2.8;"/>
   </g>
   <g id="patch_6">
    <path d="M 88.11925 432.789412 
L 88.11925 240.930588 
" style="fill:none;stroke:#000000;stroke-linecap:square;stroke-linejoin:miter;stroke-width:0.8;"/>
   </g>
   <g id="patch_7">
    <path d="M 88.11925 432.789412 
L 1092.51925 432.789412 
" style="fill:none;stroke:#000000;stroke-linecap:square;stroke-linejoin:miter;stroke-width:0.8;"/>
   </g>
  </g>
  <g id="axes_3">
   <g id="patch_8">
    <path d="M 88.11925 663.02 
L 1092.51925 663.02 
L 1092.51925 471.161176 
L 88.11925 471.161176 
z
" style="fill:#ffffff;"/>
   </g>
   <g id="matplotlib.axis_5">
    <g id="xtick_43">
     <g id="line2d_54">
      <g>
       <use style="stroke:#000000;stroke-width:1.6;" x="213.930631" xlink:href="#mb701952481" y="663.02"/>
      </g>
     </g>
     <g id="text_26">
      <!-- 1959 -->
      <g transform="translate(195.165631 690.51)scale(0.16 -0.16)">
       <use xlink:href="#MicrosoftYaHei-31"/>
       <use x="58.642578" xlink:href="#MicrosoftYaHei-39"/>
       <use x="117.285156" xlink:href="#MicrosoftYaHei-35"/>
       <use x="175.927734" xlink:href="#MicrosoftYaHei-39"/>
      </g>
     </g>
    </g>
    <g id="xtick_44">
     <g id="line2d_55">
      <g>
       <use style="stroke:#000000;stroke-width:1.6;" x="353.333823" xlink:href="#mb701952481" y="663.02"/>
      </g>
     </g>
     <g id="text_27">
      <!-- 1969 -->
      <g transform="translate(334.568823 690.51)scale(0.16 -0.16)">
       <use xlink:href="#MicrosoftYaHei-31"/>
       <use x="58.642578" xlink:href="#MicrosoftYaHei-39"/>
       <use x="117.285156" xlink:href="#MicrosoftYaHei-36"/>
       <use x="175.927734" xlink:href="#MicrosoftYaHei-39"/>
      </g>
     </g>
    </g>
    <g id="xtick_45">
     <g id="line2d_56">
      <g>
       <use style="stroke:#000000;stroke-width:1.6;" x="492.737015" xlink:href="#mb701952481" y="663.02"/>
      </g>
     </g>
     <g id="text_28">
      <!-- 1979 -->
      <g transform="translate(473.972015 690.51)scale(0.16 -0.16)">
       <use xlink:href="#MicrosoftYaHei-31"/>
       <use x="58.642578" xlink:href="#MicrosoftYaHei-39"/>
       <use x="117.285156" xlink:href="#MicrosoftYaHei-37"/>
       <use x="175.927734" xlink:href="#MicrosoftYaHei-39"/>
      </g>
     </g>
    </g>
    <g id="xtick_46">
     <g id="line2d_57">
      <g>
       <use style="stroke:#000000;stroke-width:1.6;" x="632.140208" xlink:href="#mb701952481" y="663.02"/>
      </g>
     </g>
     <g id="text_29">
      <!-- 1989 -->
      <g transform="translate(613.375208 690.51)scale(0.16 -0.16)">
       <use xlink:href="#MicrosoftYaHei-31"/>
       <use x="58.642578" xlink:href="#MicrosoftYaHei-39"/>
       <use x="117.285156" xlink:href="#MicrosoftYaHei-38"/>
       <use x="175.927734" xlink:href="#MicrosoftYaHei-39"/>
      </g>
     </g>
    </g>
    <g id="xtick_47">
     <g id="line2d_58">
      <g>
       <use style="stroke:#000000;stroke-width:1.6;" x="771.5434" xlink:href="#mb701952481" y="663.02"/>
      </g>
     </g>
     <g id="text_30">
      <!-- 1999 -->
      <g transform="translate(752.7784 690.51)scale(0.16 -0.16)">
       <use xlink:href="#MicrosoftYaHei-31"/>
       <use x="58.642578" xlink:href="#MicrosoftYaHei-39"/>
       <use x="117.285156" xlink:href="#MicrosoftYaHei-39"/>
       <use x="175.927734" xlink:href="#MicrosoftYaHei-39"/>
      </g>
     </g>
    </g>
    <g id="xtick_48">
     <g id="line2d_59">
      <g>
       <use style="stroke:#000000;stroke-width:1.6;" x="910.946592" xlink:href="#mb701952481" y="663.02"/>
      </g>
     </g>
     <g id="text_31">
      <!-- 2009 -->
      <g transform="translate(892.181592 690.51)scale(0.16 -0.16)">
       <use xlink:href="#MicrosoftYaHei-32"/>
       <use x="58.642578" xlink:href="#MicrosoftYaHei-30"/>
       <use x="117.285156" xlink:href="#MicrosoftYaHei-30"/>
       <use x="175.927734" xlink:href="#MicrosoftYaHei-39"/>
      </g>
     </g>
    </g>
    <g id="xtick_49">
     <g id="line2d_60">
      <g>
       <use style="stroke:#000000;stroke-width:1.6;" x="1050.349784" xlink:href="#mb701952481" y="663.02"/>
      </g>
     </g>
     <g id="text_32">
      <!-- 2019 -->
      <g transform="translate(1031.584784 690.51)scale(0.16 -0.16)">
       <use xlink:href="#MicrosoftYaHei-32"/>
       <use x="58.642578" xlink:href="#MicrosoftYaHei-30"/>
       <use x="117.285156" xlink:href="#MicrosoftYaHei-31"/>
       <use x="175.927734" xlink:href="#MicrosoftYaHei-39"/>
      </g>
     </g>
    </g>
    <g id="xtick_50">
     <g id="line2d_61">
      <g>
       <use style="stroke:#000000;stroke-width:0.8;" x="144.229035" xlink:href="#m88e40ba178" y="663.02"/>
      </g>
     </g>
    </g>
    <g id="xtick_51">
     <g id="line2d_62">
      <g>
       <use style="stroke:#000000;stroke-width:0.8;" x="213.930631" xlink:href="#m88e40ba178" y="663.02"/>
      </g>
     </g>
    </g>
    <g id="xtick_52">
     <g id="line2d_63">
      <g>
       <use style="stroke:#000000;stroke-width:0.8;" x="283.632227" xlink:href="#m88e40ba178" y="663.02"/>
      </g>
     </g>
    </g>
    <g id="xtick_53">
     <g id="line2d_64">
      <g>
       <use style="stroke:#000000;stroke-width:0.8;" x="353.333823" xlink:href="#m88e40ba178" y="663.02"/>
      </g>
     </g>
    </g>
    <g id="xtick_54">
     <g id="line2d_65">
      <g>
       <use style="stroke:#000000;stroke-width:0.8;" x="423.035419" xlink:href="#m88e40ba178" y="663.02"/>
      </g>
     </g>
    </g>
    <g id="xtick_55">
     <g id="line2d_66">
      <g>
       <use style="stroke:#000000;stroke-width:0.8;" x="492.737015" xlink:href="#m88e40ba178" y="663.02"/>
      </g>
     </g>
    </g>
    <g id="xtick_56">
     <g id="line2d_67">
      <g>
       <use style="stroke:#000000;stroke-width:0.8;" x="562.438612" xlink:href="#m88e40ba178" y="663.02"/>
      </g>
     </g>
    </g>
    <g id="xtick_57">
     <g id="line2d_68">
      <g>
       <use style="stroke:#000000;stroke-width:0.8;" x="632.140208" xlink:href="#m88e40ba178" y="663.02"/>
      </g>
     </g>
    </g>
    <g id="xtick_58">
     <g id="line2d_69">
      <g>
       <use style="stroke:#000000;stroke-width:0.8;" x="701.841804" xlink:href="#m88e40ba178" y="663.02"/>
      </g>
     </g>
    </g>
    <g id="xtick_59">
     <g id="line2d_70">
      <g>
       <use style="stroke:#000000;stroke-width:0.8;" x="771.5434" xlink:href="#m88e40ba178" y="663.02"/>
      </g>
     </g>
    </g>
    <g id="xtick_60">
     <g id="line2d_71">
      <g>
       <use style="stroke:#000000;stroke-width:0.8;" x="841.244996" xlink:href="#m88e40ba178" y="663.02"/>
      </g>
     </g>
    </g>
    <g id="xtick_61">
     <g id="line2d_72">
      <g>
       <use style="stroke:#000000;stroke-width:0.8;" x="910.946592" xlink:href="#m88e40ba178" y="663.02"/>
      </g>
     </g>
    </g>
    <g id="xtick_62">
     <g id="line2d_73">
      <g>
       <use style="stroke:#000000;stroke-width:0.8;" x="980.648188" xlink:href="#m88e40ba178" y="663.02"/>
      </g>
     </g>
    </g>
    <g id="xtick_63">
     <g id="line2d_74">
      <g>
       <use style="stroke:#000000;stroke-width:0.8;" x="1050.349784" xlink:href="#m88e40ba178" y="663.02"/>
      </g>
     </g>
    </g>
   </g>
   <g id="matplotlib.axis_6">
    <g id="ytick_10">
     <g id="line2d_75">
      <g>
       <use style="stroke:#000000;stroke-width:1.6;" x="88.11925" xlink:href="#mb03c3cbb70" y="631.043529"/>
      </g>
     </g>
     <g id="text_33">
      <!-- -2.0% -->
      <g transform="translate(29.64425 637.438529)scale(0.16 -0.16)">
       <use xlink:href="#MicrosoftYaHei-2d"/>
       <use x="43.261719" xlink:href="#MicrosoftYaHei-32"/>
       <use x="101.904297" xlink:href="#MicrosoftYaHei-2e"/>
       <use x="125.976562" xlink:href="#MicrosoftYaHei-30"/>
       <use x="184.619141" xlink:href="#MicrosoftYaHei-25"/>
      </g>
     </g>
    </g>
    <g id="ytick_11">
     <g id="line2d_76">
      <g>
       <use style="stroke:#000000;stroke-width:1.6;" x="88.11925" xlink:href="#mb03c3cbb70" y="567.090588"/>
      </g>
     </g>
     <g id="text_34">
      <!-- 0.0% -->
      <g transform="translate(36.56675 573.485588)scale(0.16 -0.16)">
       <use xlink:href="#MicrosoftYaHei-30"/>
       <use x="58.642578" xlink:href="#MicrosoftYaHei-2e"/>
       <use x="82.714844" xlink:href="#MicrosoftYaHei-30"/>
       <use x="141.357422" xlink:href="#MicrosoftYaHei-25"/>
      </g>
     </g>
    </g>
    <g id="ytick_12">
     <g id="line2d_77">
      <g>
       <use style="stroke:#000000;stroke-width:1.6;" x="88.11925" xlink:href="#mb03c3cbb70" y="503.137647"/>
      </g>
     </g>
     <g id="text_35">
      <!-- 2.0% -->
      <g transform="translate(36.56675 509.532647)scale(0.16 -0.16)">
       <use xlink:href="#MicrosoftYaHei-32"/>
       <use x="58.642578" xlink:href="#MicrosoftYaHei-2e"/>
       <use x="82.714844" xlink:href="#MicrosoftYaHei-30"/>
       <use x="141.357422" xlink:href="#MicrosoftYaHei-25"/>
      </g>
     </g>
    </g>
    <g id="text_36">
     <!-- 残差 -->
     <defs>
      <path d="M 33.296875 0.921875 
Q 48.640625 5.171875 61.328125 11.671875 
Q 58.109375 20.21875 56.546875 31.34375 
L 41.3125 29.15625 
L 40.4375 36.1875 
L 55.71875 38.375 
Q 55.078125 44.671875 54.59375 52.78125 
L 42.875 51.3125 
L 41.890625 58.34375 
L 54.15625 59.8125 
Q 53.65625 70.125 53.421875 82.765625 
L 61.140625 82.765625 
Q 61.28125 70.609375 61.625 60.75 
L 93.953125 64.703125 
L 94.625 57.765625 
L 61.96875 53.71875 
Q 62.359375 45.609375 62.984375 39.40625 
L 95.90625 44.1875 
L 96.484375 37.15625 
L 63.8125 32.421875 
Q 65.1875 22.703125 67.96875 15.328125 
Q 78.421875 21.484375 86.8125 29.34375 
L 92.1875 24.078125 
Q 82.375 15.1875 71.140625 8.453125 
Q 75.4375 0.78125 78.125 -2.078125 
Q 80.8125 -4.9375 84.375 -4.9375 
Q 87.40625 -4.9375 88.71875 -0.4375 
Q 90.046875 4.046875 91.21875 12.640625 
Q 95.796875 10.796875 98.53125 9.8125 
Q 96.875 0.4375 95.40625 -4.9375 
Q 92.1875 -11.765625 85.640625 -11.765625 
Q 79.890625 -11.765625 74.515625 -8.5 
Q 68.21875 -3.421875 64.453125 4.6875 
Q 51.5625 -2.046875 36.921875 -6.203125 
Q 35.640625 -3.078125 33.296875 0.921875 
z
M 13.671875 28.859375 
L 17.578125 34.328125 
Q 22.015625 31.296875 27.15625 27.296875 
Q 30.5625 37.015625 31.84375 48.1875 
L 18.890625 48.1875 
Q 14.15625 32.234375 6.15625 20.453125 
Q 4.390625 22.90625 1.46875 26.515625 
Q 12.84375 43.609375 16.359375 69.09375 
L 3.421875 69.09375 
L 3.421875 75.921875 
L 42.671875 75.921875 
L 42.671875 69.09375 
L 23.484375 69.09375 
Q 22.359375 61.671875 20.703125 54.9375 
L 39.0625 54.9375 
L 39.0625 48.1875 
Q 34.375 8.84375 9.078125 -12.0625 
Q 6.15625 -9.234375 3.328125 -6.890625 
Q 17.09375 4.59375 24.359375 20.40625 
Q 19.484375 24.421875 13.671875 28.859375 
z
M 67.390625 77.484375 
L 71.6875 82.375 
Q 78.515625 77.6875 85.84375 71.734375 
L 81.0625 66.265625 
Q 75.78125 71.046875 67.390625 77.484375 
z
" id="MicrosoftYaHei-6b8b"/>
      <path d="M 17.09375 -2.6875 
L 53.421875 -2.6875 
L 53.421875 13.921875 
L 28.328125 13.921875 
L 28.328125 17 
Q 18.75 6.15625 5.171875 -3.078125 
Q 3.21875 0.046875 0.484375 3.859375 
Q 18.953125 16.0625 29.046875 31 
L 3.125 31 
L 3.125 37.640625 
L 33.109375 37.640625 
Q 35.546875 42.09375 37.640625 47.3125 
L 9.96875 47.3125 
L 9.96875 53.859375 
L 40.140625 53.859375 
Q 41.65625 58.25 42.96875 63.140625 
L 7.625 63.140625 
L 7.625 69.78125 
L 32.421875 69.78125 
Q 28.328125 74.953125 23.640625 80.03125 
L 29.203125 84.328125 
Q 34.859375 78.859375 40.046875 73 
L 35.59375 69.78125 
L 65.921875 69.78125 
L 62.109375 73.1875 
Q 67.875 78.859375 72.359375 84.421875 
L 79 80.03125 
Q 74.03125 74.5625 68.953125 69.78125 
L 94.53125 69.78125 
L 94.53125 63.140625 
L 51.421875 63.140625 
Q 50.09375 58.296875 48.578125 53.859375 
L 90.828125 53.859375 
L 90.828125 47.3125 
L 46.296875 47.3125 
Q 44.34375 42.1875 42.140625 37.640625 
L 98.34375 37.640625 
L 98.34375 31 
L 38.578125 31 
Q 35.296875 25.53125 31.203125 20.453125 
L 87.703125 20.453125 
L 87.703125 13.921875 
L 61.328125 13.921875 
L 61.328125 -2.6875 
L 97.078125 -2.6875 
L 97.078125 -9.328125 
L 17.09375 -9.328125 
z
" id="MicrosoftYaHei-5dee"/>
     </defs>
     <g transform="translate(21.269 584.690588)rotate(-90)scale(0.176 -0.176)">
      <use xlink:href="#MicrosoftYaHei-6b8b"/>
      <use x="100" xlink:href="#MicrosoftYaHei-5dee"/>
     </g>
    </g>
   </g>
   <g id="line2d_78">
    <path clip-path="url(#p92f6b26024)" d="M 133.773795 564.221072 
L 134.935489 556.286516 
L 136.097182 552.495786 
L 137.258875 564.270628 
L 138.420569 564.497623 
L 139.582262 560.697408 
L 140.743955 567.816147 
L 141.905648 569.44042 
L 143.067342 569.406935 
L 144.229035 570.289018 
L 145.390728 566.900348 
L 146.552421 566.369192 
L 147.714115 572.335402 
L 148.875808 571.676156 
L 150.037501 566.955578 
L 151.199194 567.267642 
L 152.360888 563.624309 
L 153.522581 562.707411 
L 154.684274 569.504822 
L 155.845968 572.144666 
L 157.007661 565.341332 
L 158.169354 567.637966 
L 159.331047 582.72888 
L 160.492741 586.324713 
L 162.816127 548.987475 
L 163.97782 545.824455 
L 166.301207 553.325457 
L 167.4629 558.00574 
L 168.624594 567.27863 
L 169.786287 568.9461 
L 170.94798 565.38419 
L 172.109673 567.75461 
L 173.271367 574.878561 
L 174.43306 579.114311 
L 175.594753 578.425842 
L 176.756446 583.719456 
L 179.079833 588.023252 
L 180.241526 592.776064 
L 181.403219 595.018589 
L 182.564913 583.388882 
L 183.726606 565.778189 
L 184.888299 565.661562 
L 186.049993 576.244445 
L 187.211686 578.447762 
L 188.373379 574.904066 
L 190.696766 574.713689 
L 191.858459 576.733727 
L 193.020152 574.594416 
L 194.181845 561.053164 
L 195.343539 549.942033 
L 196.505232 542.631274 
L 197.666925 540.458947 
L 198.828618 549.879404 
L 199.990312 554.257404 
L 201.152005 552.203946 
L 202.313698 551.620999 
L 203.475392 560.111905 
L 204.637085 564.202568 
L 206.960471 574.450144 
L 208.122165 569.139555 
L 209.283858 562.831648 
L 210.445551 565.285289 
L 211.607244 563.761187 
L 212.768938 551.464916 
L 213.930631 550.748557 
L 215.092324 561.892153 
L 216.254018 564.508912 
L 217.415711 568.602077 
L 218.577404 580.710958 
L 219.739097 586.927788 
L 220.900791 577.820043 
L 222.062484 574.184822 
L 223.224177 567.576908 
L 224.38587 565.99088 
L 225.547564 562.232324 
L 226.709257 563.485554 
L 227.87095 565.118144 
L 229.032643 571.305288 
L 230.194337 583.403636 
L 231.35603 580.847852 
L 232.517723 565.820017 
L 233.679417 566.046706 
L 234.84111 574.29459 
L 236.002803 573.498607 
L 237.164496 572.236864 
L 238.32619 571.62337 
L 239.487883 568.382173 
L 241.811269 574.311469 
L 242.972963 571.467701 
L 244.134656 562.962657 
L 245.296349 560.860662 
L 246.458043 566.561039 
L 248.781429 554.864202 
L 249.943122 545.721897 
L 251.104816 545.310263 
L 252.266509 548.419481 
L 253.428202 548.638093 
L 254.589895 544.273085 
L 255.751589 542.544961 
L 256.913282 546.465195 
L 258.074975 555.353727 
L 259.236668 561.959394 
L 260.398362 563.51038 
L 261.560055 558.744929 
L 262.721748 558.440416 
L 263.883442 566.537118 
L 265.045135 570.787227 
L 266.206828 569.866191 
L 267.368521 567.050206 
L 268.530215 567.980483 
L 269.691908 565.84498 
L 270.853601 562.142646 
L 272.015294 563.048732 
L 274.338681 571.768676 
L 275.500374 573.412689 
L 276.662067 577.291615 
L 277.823761 580.411296 
L 278.985454 576.711996 
L 280.147147 569.919172 
L 281.308841 576.179839 
L 282.470534 580.518821 
L 283.632227 579.465425 
L 284.79392 578.048006 
L 285.955614 579.946197 
L 287.117307 578.829846 
L 288.279 572.767409 
L 289.440693 569.042443 
L 290.602387 566.091569 
L 291.76408 567.527464 
L 292.925773 571.169471 
L 294.087467 569.010639 
L 295.24916 563.697364 
L 296.410853 564.762298 
L 297.572546 568.095681 
L 298.73424 568.782222 
L 299.895933 574.249561 
L 301.057626 578.655311 
L 302.219319 578.048011 
L 303.381013 577.911731 
L 304.542706 579.174104 
L 305.704399 581.483449 
L 306.866092 581.894992 
L 308.027786 579.963212 
L 309.189479 576.428379 
L 310.351172 571.838355 
L 311.512866 571.512829 
L 312.674559 559.587688 
L 313.836252 568.870036 
L 314.997945 568.305371 
L 316.159639 569.366858 
L 317.321332 565.052257 
L 318.483025 564.664143 
L 319.644718 553.008042 
L 320.806412 559.715969 
L 321.968105 562.682147 
L 323.129798 561.034516 
L 324.291491 573.931028 
L 325.453185 576.629939 
L 326.614878 574.594836 
L 327.776571 585.050529 
L 328.938265 576.200015 
L 330.099958 576.667713 
L 331.261651 564.462311 
L 332.423344 564.336205 
L 333.585038 558.125161 
L 334.746731 557.629264 
L 335.908424 554.125946 
L 337.070117 557.265594 
L 338.231811 556.679855 
L 339.393504 558.391884 
L 340.555197 558.748086 
L 341.716891 553.372034 
L 342.878584 555.785818 
L 344.040277 554.733878 
L 345.20197 558.634664 
L 346.363664 561.973919 
L 347.525357 561.476088 
L 348.68705 559.058519 
L 349.848743 557.644996 
L 351.010437 560.911898 
L 352.17213 552.256296 
L 353.333823 551.497663 
L 354.495516 557.357188 
L 356.818903 574.638547 
L 357.980596 572.561793 
L 359.14229 572.664653 
L 360.303983 570.956738 
L 361.465676 571.851446 
L 362.627369 563.064659 
L 363.789063 582.242308 
L 364.950756 574.644826 
L 366.112449 568.744842 
L 367.274142 566.020023 
L 368.435836 575.708217 
L 369.597529 571.578567 
L 370.759222 558.541277 
L 371.920916 546.890582 
L 373.082609 545.204418 
L 374.244302 555.427782 
L 375.405995 551.359096 
L 376.567689 554.052244 
L 377.729382 547.981534 
L 378.891075 563.389635 
L 380.052768 552.677757 
L 381.214462 566.22705 
L 382.376155 565.801425 
L 383.537848 585.968129 
L 384.699541 577.477308 
L 385.861235 579.377433 
L 387.022928 573.019739 
L 388.184621 568.659348 
L 389.346315 583.727934 
L 390.508008 584.775399 
L 391.669701 581.323315 
L 392.831394 577.094689 
L 393.993088 580.800841 
L 395.154781 580.220684 
L 396.316474 585.978399 
L 397.478167 585.336786 
L 398.639861 586.855377 
L 399.801554 589.00318 
L 400.963247 580.836615 
L 402.12494 580.314627 
L 403.286634 575.179631 
L 404.448327 573.080488 
L 405.61002 572.674566 
L 406.771714 572.939832 
L 409.0951 567.666757 
L 410.256793 564.301428 
L 411.418487 564.936571 
L 412.58018 569.315542 
L 413.741873 559.935601 
L 414.903566 562.286547 
L 416.06526 553.757002 
L 417.226953 552.363015 
L 418.388646 548.610125 
L 419.55034 551.855458 
L 420.712033 557.142055 
L 421.873726 551.430561 
L 423.035419 551.366139 
L 424.197113 559.142445 
L 425.358806 555.813469 
L 426.520499 552.962012 
L 427.682192 559.804213 
L 428.843886 561.310782 
L 430.005579 561.346819 
L 431.167272 557.230656 
L 432.328965 561.523597 
L 433.490659 565.13351 
L 434.652352 569.328327 
L 435.814045 580.290421 
L 436.975739 580.13236 
L 438.137432 581.595008 
L 439.299125 565.864258 
L 440.460818 562.504498 
L 441.622512 570.348989 
L 442.784205 568.882354 
L 443.945898 563.071952 
L 445.107591 563.365646 
L 446.269285 553.421554 
L 447.430978 570.520247 
L 448.592671 557.251508 
L 449.754365 562.320439 
L 450.916058 559.813912 
L 452.077751 558.408096 
L 453.239444 559.554479 
L 454.401138 565.699631 
L 455.562831 564.319158 
L 456.724524 567.101783 
L 457.886217 562.033356 
L 459.047911 562.67079 
L 460.209604 560.472371 
L 461.371297 558.833831 
L 462.53299 569.563166 
L 463.694684 583.34903 
L 464.856377 572.796333 
L 466.01807 574.051199 
L 467.179764 579.459005 
L 468.341457 582.126978 
L 469.50315 580.19456 
L 470.664843 583.441636 
L 471.826537 576.596553 
L 472.98823 573.563892 
L 474.149923 565.445429 
L 475.311616 566.193441 
L 476.47331 573.807521 
L 477.635003 568.550426 
L 478.796696 567.032609 
L 479.958389 564.847545 
L 481.120083 564.767066 
L 482.281776 569.023156 
L 483.443469 565.172758 
L 484.605163 562.226123 
L 485.766856 574.609037 
L 486.928549 582.640591 
L 489.251936 568.284493 
L 490.413629 576.600258 
L 491.575322 568.059394 
L 492.737015 575.906198 
L 493.898709 568.284721 
L 495.060402 571.693513 
L 496.222095 572.088103 
L 497.383789 585.705145 
L 498.545482 593.022822 
L 499.707175 589.038237 
L 500.868868 583.669522 
L 502.030562 582.40694 
L 503.192255 554.683562 
L 504.353948 571.163852 
L 505.515641 571.22509 
L 506.677335 558.923409 
L 507.839028 528.127797 
L 509.000721 533.616394 
L 510.162414 578.522076 
L 511.324108 583.70664 
L 512.485801 593.531845 
L 513.647494 584.072761 
L 514.809188 568.192468 
L 515.970881 567.29576 
L 517.132574 558.217838 
L 518.294267 554.171008 
L 519.455961 563.362042 
L 520.617654 558.595317 
L 521.779347 541.841049 
L 522.94104 561.128365 
L 524.102734 536.890178 
L 525.264427 558.892482 
L 526.42612 549.331014 
L 527.587813 532.342759 
L 528.749507 521.874146 
L 529.9112 510.272294 
L 531.072893 535.58079 
L 532.234587 574.926123 
L 533.39628 554.788048 
L 534.557973 556.117686 
L 535.719666 558.663898 
L 536.88136 550.311915 
L 538.043053 559.437615 
L 539.204746 566.02295 
L 540.366439 548.188932 
L 541.528133 568.097339 
L 542.689826 577.875791 
L 545.013213 623.02323 
L 546.174906 606.734529 
L 547.336599 612.406865 
L 548.498292 595.559273 
L 549.659986 605.473204 
L 550.821679 589.921886 
L 551.983372 604.037291 
L 553.145065 588.605401 
L 554.306759 588.949428 
L 555.468452 572.162415 
L 556.630145 565.676199 
L 557.791838 581.1166 
L 558.953532 571.694981 
L 560.115225 566.609845 
L 561.276918 550.338997 
L 562.438612 558.922342 
L 563.600305 552.537025 
L 564.761998 536.76415 
L 565.923691 535.585176 
L 567.085385 515.263699 
L 568.247078 517.361636 
L 569.408771 536.136681 
L 570.570464 536.196033 
L 571.732158 543.457281 
L 572.893851 554.447165 
L 574.055544 556.773904 
L 575.217238 561.310998 
L 576.378931 570.856283 
L 577.540624 543.914146 
L 578.702317 553.582548 
L 579.864011 553.691422 
L 581.025704 573.53258 
L 582.187397 567.270454 
L 583.34909 553.524359 
L 584.510784 555.110423 
L 585.672477 550.913792 
L 587.995863 566.712997 
L 589.157557 583.535908 
L 590.31925 579.599946 
L 591.480943 600.595977 
L 592.642637 613.645445 
L 593.80433 612.878537 
L 594.966023 592.50637 
L 596.127716 611.459903 
L 597.28941 604.964979 
L 598.451103 610.406092 
L 599.612796 590.997661 
L 600.774489 593.978511 
L 601.936183 598.641829 
L 603.097876 593.477852 
L 604.259569 592.765646 
L 605.421262 591.862156 
L 606.582956 584.864323 
L 607.744649 566.882361 
L 608.906342 557.583691 
L 610.068036 559.529866 
L 611.229729 552.701237 
L 612.391422 547.676963 
L 613.553115 530.204554 
L 614.714809 552.004216 
L 615.876502 546.009777 
L 617.038195 550.049658 
L 618.199888 566.680244 
L 619.361582 568.794562 
L 620.523275 557.890818 
L 621.684968 553.134757 
L 622.846662 546.877127 
L 624.008355 561.957086 
L 625.170048 556.68717 
L 626.331741 555.419034 
L 627.493435 564.216092 
L 628.655128 568.294754 
L 629.816821 560.111555 
L 632.140208 563.620511 
L 633.301901 553.711971 
L 634.463594 556.955912 
L 636.786981 567.913514 
L 637.948674 578.941793 
L 639.110367 586.223718 
L 640.272061 574.163811 
L 641.433754 573.848883 
L 642.595447 581.846061 
L 644.918834 579.205323 
L 646.080527 563.110426 
L 647.24222 560.313114 
L 648.403913 558.745301 
L 649.565607 547.836112 
L 650.7273 558.757481 
L 653.050687 563.41495 
L 654.21238 548.942285 
L 655.374073 550.325779 
L 656.535766 552.730325 
L 657.69746 561.777951 
L 658.859153 566.295573 
L 660.020846 565.909435 
L 662.344233 559.005227 
L 663.505926 559.715487 
L 664.667619 557.083857 
L 665.829312 550.368926 
L 666.991006 551.049937 
L 668.152699 557.966458 
L 669.314392 563.212199 
L 670.476086 563.276984 
L 671.637779 566.046162 
L 672.799472 581.901878 
L 673.961165 560.447421 
L 675.122859 564.327061 
L 676.284552 555.600082 
L 677.446245 551.103688 
L 678.607938 559.301766 
L 679.769632 563.257336 
L 680.931325 571.724645 
L 682.093018 570.169986 
L 683.254711 577.940278 
L 684.416405 569.641332 
L 685.578098 567.172209 
L 686.739791 569.449396 
L 687.901485 574.533694 
L 689.063178 585.179289 
L 690.224871 583.560723 
L 691.386564 582.850125 
L 692.548258 578.916413 
L 693.709951 583.816569 
L 694.871644 576.682005 
L 696.033337 587.21832 
L 697.195031 586.022593 
L 698.356724 586.579858 
L 699.518417 580.105412 
L 700.680111 579.413416 
L 701.841804 582.72649 
L 703.003497 576.548116 
L 704.16519 564.347341 
L 705.326884 558.858129 
L 706.488577 563.908062 
L 707.65027 560.206518 
L 708.811963 562.10014 
L 709.973657 567.720822 
L 711.13535 563.874933 
L 712.297043 555.708965 
L 713.458736 557.501362 
L 714.62043 569.67361 
L 715.782123 564.061723 
L 716.943816 559.492949 
L 718.10551 564.827516 
L 719.267203 576.884995 
L 720.428896 590.928878 
L 721.590589 585.432975 
L 722.752283 579.112929 
L 723.913976 582.680186 
L 725.075669 582.33985 
L 726.237362 580.752831 
L 727.399056 576.771072 
L 728.560749 573.940452 
L 729.722442 574.684994 
L 730.884135 558.008457 
L 732.045829 553.174706 
L 733.207522 553.513055 
L 734.369215 557.292946 
L 735.530909 563.471775 
L 736.692602 561.022055 
L 737.854295 551.059676 
L 739.015988 549.069023 
L 740.177682 552.54003 
L 741.339375 560.130969 
L 742.501068 550.550677 
L 743.662761 552.120328 
L 744.824455 553.440477 
L 745.986148 542.588426 
L 747.147841 549.879879 
L 748.309535 548.462866 
L 749.471228 547.44158 
L 750.632921 561.881102 
L 751.794614 555.163181 
L 752.956308 561.475338 
L 754.118001 564.064455 
L 755.279694 559.38731 
L 756.441387 563.792054 
L 757.603081 570.664064 
L 758.764774 566.882575 
L 759.926467 568.353762 
L 761.08816 569.206741 
L 762.249854 569.698529 
L 763.411547 576.859095 
L 765.734934 582.24876 
L 766.896627 586.955757 
L 768.05832 579.279266 
L 769.220013 579.199205 
L 770.381707 581.520535 
L 771.5434 584.426262 
L 772.705093 571.88995 
L 773.866786 580.864794 
L 775.02848 580.461195 
L 776.190173 572.835805 
L 777.351866 572.521505 
L 778.51356 575.367465 
L 779.675253 573.969068 
L 780.836946 574.093706 
L 784.322026 555.765927 
L 785.483719 550.331289 
L 786.645412 556.421143 
L 787.807106 571.230406 
L 788.968799 569.200167 
L 790.130492 563.399754 
L 791.292185 567.658868 
L 792.453879 568.714584 
L 793.615572 577.364882 
L 794.777265 572.560736 
L 795.938959 570.569598 
L 797.100652 571.654004 
L 798.262345 576.165885 
L 799.424038 571.99279 
L 800.585732 576.561581 
L 801.747425 574.093425 
L 802.909118 567.322748 
L 804.070811 570.140142 
L 805.232505 567.509192 
L 806.394198 572.170305 
L 807.555891 572.2225 
L 808.717584 573.336977 
L 809.879278 576.182818 
L 811.040971 558.648083 
L 812.202664 554.513007 
L 813.364358 558.449282 
L 814.526051 564.019494 
L 815.687744 548.445962 
L 816.849437 557.355739 
L 818.011131 550.043835 
L 819.172824 552.569572 
L 820.334517 559.560674 
L 821.49621 559.69958 
L 822.657904 571.284058 
L 823.819597 566.609463 
L 824.98129 558.262909 
L 826.142984 569.769608 
L 827.304677 564.349009 
L 828.46637 571.370134 
L 829.628063 568.862887 
L 830.789757 570.332404 
L 831.95145 584.685861 
L 833.113143 581.201833 
L 834.274836 557.623212 
L 835.43653 556.049962 
L 836.598223 567.617737 
L 837.759916 559.266688 
L 838.921609 559.645454 
L 840.083303 559.21284 
L 842.406689 562.091261 
L 843.568383 566.152917 
L 844.730076 549.789772 
L 845.891769 544.780464 
L 847.053462 542.487677 
L 848.215156 545.765927 
L 849.376849 556.054807 
L 850.538542 559.710559 
L 851.700235 572.347346 
L 852.861929 561.787451 
L 854.023622 562.384096 
L 855.185315 579.43528 
L 856.347009 586.850244 
L 858.670395 566.913913 
L 859.832088 562.123353 
L 860.993782 567.898312 
L 862.155475 565.505713 
L 863.317168 579.372494 
L 864.478861 575.323984 
L 865.640555 574.161318 
L 866.802248 576.462391 
L 867.963941 576.391584 
L 869.125634 572.938264 
L 870.287328 577.14225 
L 872.610714 569.83457 
L 873.772408 566.774185 
L 874.934101 565.453202 
L 876.095794 577.753576 
L 877.257487 594.815726 
L 878.419181 593.518325 
L 879.580874 576.67893 
L 880.742567 572.866508 
L 883.065954 567.692185 
L 884.227647 572.120707 
L 885.38934 568.053978 
L 886.551033 569.455299 
L 887.712727 564.836431 
L 888.87442 567.122622 
L 890.036113 568.759422 
L 891.197807 559.460441 
L 892.3595 548.328868 
L 893.521193 543.084459 
L 894.682886 547.179371 
L 895.84458 540.284046 
L 897.006273 550.127043 
L 898.167966 548.31997 
L 899.329659 550.145999 
L 901.653046 538.487737 
L 902.814739 548.852907 
L 903.976433 557.99475 
L 905.138126 563.411673 
L 906.299819 563.279142 
L 907.461512 558.594469 
L 908.623206 583.969876 
L 909.784899 599.616501 
L 910.946592 587.252809 
L 912.108285 587.564089 
L 913.269979 599.221818 
L 914.431672 596.79045 
L 915.593365 601.386273 
L 916.755058 597.310423 
L 917.916752 588.576495 
L 919.078445 591.510872 
L 920.240138 591.27693 
L 921.401832 578.821535 
L 922.563525 584.754184 
L 923.725218 569.179079 
L 924.886911 573.970876 
L 926.048605 573.985787 
L 927.210298 569.153982 
L 928.371991 565.244062 
L 929.533684 563.435892 
L 930.695378 570.559169 
L 931.857071 568.798347 
L 933.018764 577.896556 
L 934.180457 575.433016 
L 935.342151 571.405421 
L 936.503844 561.620421 
L 937.665537 546.601467 
L 938.827231 541.527067 
L 941.150617 523.482245 
L 942.31231 530.069621 
L 943.474004 540.6857 
L 944.635697 533.843548 
L 945.79739 539.853188 
L 946.959083 553.753856 
L 948.120777 562.642947 
L 949.28247 555.821241 
L 950.444163 558.529729 
L 951.605857 563.605565 
L 952.76755 565.020781 
L 953.929243 561.832562 
L 955.090936 559.517103 
L 956.25263 573.773462 
L 957.414323 585.283931 
L 958.576016 581.041966 
L 959.737709 589.089562 
L 960.899403 592.465655 
L 962.061096 590.889366 
L 963.222789 585.492383 
L 964.384482 586.187948 
L 965.546176 579.60439 
L 966.707869 569.753455 
L 969.031256 576.110785 
L 970.192949 586.087538 
L 971.354642 574.864408 
L 972.516335 565.945528 
L 973.678029 567.478038 
L 974.839722 563.082934 
L 976.001415 562.96265 
L 977.163108 563.253001 
L 978.324802 562.89364 
L 979.486495 556.006618 
L 980.648188 564.747776 
L 981.809882 565.681072 
L 982.971575 564.942511 
L 984.133268 561.449633 
L 985.294961 559.457274 
L 986.456655 553.165881 
L 987.618348 550.174141 
L 988.780041 559.541015 
L 989.941734 553.970274 
L 991.103428 553.804916 
L 992.265121 556.040482 
L 993.426814 557.99319 
L 994.588507 574.564214 
L 995.750201 565.820435 
L 996.911894 572.308245 
L 998.073587 570.706998 
L 999.235281 566.173843 
L 1000.396974 557.633242 
L 1001.558667 564.298089 
L 1002.72036 566.789571 
L 1003.882054 572.422028 
L 1005.043747 567.09322 
L 1006.20544 563.757507 
L 1007.367133 562.168419 
L 1008.528827 571.524224 
L 1009.69052 575.264304 
L 1010.852213 573.592658 
L 1013.1756 575.039185 
L 1014.337293 588.217493 
L 1015.498986 590.548028 
L 1016.66068 583.142077 
L 1017.822373 580.259685 
L 1018.984066 576.249671 
L 1020.145759 560.421373 
L 1021.307453 554.736286 
L 1022.469146 556.755503 
L 1023.630839 564.530542 
L 1024.792532 564.96361 
L 1025.954226 569.016416 
L 1027.115919 573.537849 
L 1028.277612 570.177485 
L 1029.439306 567.932601 
L 1030.600999 572.121712 
L 1031.762692 569.024193 
L 1032.924385 575.848416 
L 1034.086079 577.797862 
L 1035.247772 574.656898 
L 1036.409465 563.269841 
L 1037.571158 560.099073 
L 1038.732852 565.259645 
L 1039.894545 561.516397 
L 1041.056238 566.519743 
L 1043.379625 555.179443 
L 1044.541318 559.46163 
L 1045.703011 553.223831 
L 1046.864705 555.825315 
L 1046.864705 555.825315 
" style="fill:none;stroke:#000000;stroke-linecap:square;stroke-width:2.8;"/>
   </g>
   <g id="patch_9">
    <path d="M 88.11925 663.02 
L 88.11925 471.161176 
" style="fill:none;stroke:#000000;stroke-linecap:square;stroke-linejoin:miter;stroke-width:0.8;"/>
   </g>
   <g id="patch_10">
    <path d="M 88.11925 663.02 
L 1092.51925 663.02 
" style="fill:none;stroke:#000000;stroke-linecap:square;stroke-linejoin:miter;stroke-width:0.8;"/>
   </g>
  </g>
 </g>
 <defs>
  <clipPath id="pe5a1a34097">
   <rect height="191.858824" width="1004.4" x="88.11925" y="10.7"/>
  </clipPath>
  <clipPath id="p480fc162cd">
   <rect height="191.858824" width="1004.4" x="88.11925" y="240.930588"/>
  </clipPath>
  <clipPath id="p92f6b26024">
   <rect height="191.858824" width="1004.4" x="88.11925" y="471.161176"/>
  </clipPath>
 </defs>
</svg>
