<?xml version="1.0" encoding="utf-8" standalone="no"?>
<!DOCTYPE svg PUBLIC "-//W3C//DTD SVG 1.1//EN"
  "http://www.w3.org/Graphics/SVG/1.1/DTD/svg11.dtd">
<!-- Created with matplotlib (http://matplotlib.org/) -->
<svg height="550.17975pt" version="1.1" viewBox="0 0 791.90175 550.17975" width="791.90175pt" xmlns="http://www.w3.org/2000/svg" xmlns:xlink="http://www.w3.org/1999/xlink">
 <defs>
  <style type="text/css">
*{stroke-linecap:butt;stroke-linejoin:round;}
  </style>
 </defs>
 <g id="figure_1">
  <g id="patch_1">
   <path d="M 0 550.17975 
L 791.90175 550.17975 
L 791.90175 0 
L 0 0 
z
" style="fill:#ffffff;"/>
  </g>
  <g id="axes_1">
   <g id="patch_2">
    <path d="M 66.96175 489.068 
L 781.20175 489.068 
L 781.20175 10.7 
L 66.96175 10.7 
z
" style="fill:#ffffff;"/>
   </g>
   <g id="matplotlib.axis_1">
    <g id="xtick_1">
     <g id="line2d_1">
      <defs>
       <path d="M 0 0 
L 0 3.5 
" id="m3af6ea22ee" style="stroke:#000000;stroke-width:1.6;"/>
      </defs>
      <g>
       <use style="stroke:#000000;stroke-width:1.6;" x="96.661928" xlink:href="#m3af6ea22ee" y="489.068"/>
      </g>
     </g>
     <g id="text_1">
      <!-- 0 -->
      <defs>
       <path d="M 4.4375 36.328125 
Q 4.4375 56.34375 11.078125 66.625 
Q 17.71875 76.90625 30.328125 76.90625 
Q 54.34375 76.90625 54.34375 38.140625 
Q 54.34375 19 47.578125 8.859375 
Q 40.828125 -1.265625 28.609375 -1.265625 
Q 17.09375 -1.265625 10.765625 8.34375 
Q 4.4375 17.96875 4.4375 36.328125 
z
M 14.203125 36.765625 
Q 14.203125 6.640625 29.5 6.640625 
Q 44.53125 6.640625 44.53125 37.25 
Q 44.53125 68.953125 29.78125 68.953125 
Q 14.203125 68.953125 14.203125 36.765625 
z
" id="MicrosoftYaHei-30"/>
      </defs>
      <g transform="translate(91.970678 516.558)scale(0.16 -0.16)">
       <use xlink:href="#MicrosoftYaHei-30"/>
      </g>
     </g>
    </g>
    <g id="xtick_2">
     <g id="line2d_2">
      <g>
       <use style="stroke:#000000;stroke-width:1.6;" x="179.514818" xlink:href="#m3af6ea22ee" y="489.068"/>
      </g>
     </g>
     <g id="text_2">
      <!-- 5 -->
      <defs>
       <path d="M 8.640625 11.625 
Q 16.265625 6.640625 24.515625 6.640625 
Q 32.328125 6.640625 37.109375 11 
Q 41.890625 15.375 41.890625 22.609375 
Q 41.890625 29.890625 37.03125 33.890625 
Q 32.171875 37.890625 22.953125 37.890625 
Q 18.5 37.890625 10.984375 37.203125 
L 10.984375 75.640625 
L 48.1875 75.640625 
L 48.1875 67.1875 
L 19.875 67.1875 
L 19.875 45.796875 
Q 24.125 46.046875 26.265625 46.046875 
Q 38.234375 46.046875 44.921875 39.984375 
Q 51.609375 33.9375 51.609375 23.296875 
Q 51.609375 12.3125 44.421875 5.515625 
Q 37.25 -1.265625 24.609375 -1.265625 
Q 14.015625 -1.265625 8.640625 1.859375 
z
" id="MicrosoftYaHei-35"/>
      </defs>
      <g transform="translate(174.823568 516.558)scale(0.16 -0.16)">
       <use xlink:href="#MicrosoftYaHei-35"/>
      </g>
     </g>
    </g>
    <g id="xtick_3">
     <g id="line2d_3">
      <g>
       <use style="stroke:#000000;stroke-width:1.6;" x="262.367708" xlink:href="#m3af6ea22ee" y="489.068"/>
      </g>
     </g>
     <g id="text_3">
      <!-- 10 -->
      <defs>
       <path d="M 52.59375 0 
L 9.234375 0 
L 9.234375 8.25 
L 26.171875 8.25 
L 26.171875 65.671875 
L 8.796875 60.640625 
L 8.796875 69.4375 
L 35.6875 77.25 
L 35.6875 8.25 
L 52.59375 8.25 
z
" id="MicrosoftYaHei-31"/>
      </defs>
      <g transform="translate(252.985208 516.558)scale(0.16 -0.16)">
       <use xlink:href="#MicrosoftYaHei-31"/>
       <use x="58.642578" xlink:href="#MicrosoftYaHei-30"/>
      </g>
     </g>
    </g>
    <g id="xtick_4">
     <g id="line2d_4">
      <g>
       <use style="stroke:#000000;stroke-width:1.6;" x="345.220598" xlink:href="#m3af6ea22ee" y="489.068"/>
      </g>
     </g>
     <g id="text_4">
      <!-- 15 -->
      <g transform="translate(335.838098 516.558)scale(0.16 -0.16)">
       <use xlink:href="#MicrosoftYaHei-31"/>
       <use x="58.642578" xlink:href="#MicrosoftYaHei-35"/>
      </g>
     </g>
    </g>
    <g id="xtick_5">
     <g id="line2d_5">
      <g>
       <use style="stroke:#000000;stroke-width:1.6;" x="428.073488" xlink:href="#m3af6ea22ee" y="489.068"/>
      </g>
     </g>
     <g id="text_5">
      <!-- 20 -->
      <defs>
       <path d="M 51.171875 0 
L 5.171875 0 
L 5.171875 8.296875 
L 27.15625 30.21875 
Q 36.234375 39.3125 39.3125 44.609375 
Q 42.390625 49.90625 42.390625 55.5625 
Q 42.390625 62.015625 38.765625 65.453125 
Q 35.15625 68.890625 28.328125 68.890625 
Q 18.21875 68.890625 9.03125 60.296875 
L 9.03125 70.015625 
Q 17.96875 76.90625 29.828125 76.90625 
Q 40.046875 76.90625 45.953125 71.390625 
Q 51.859375 65.875 51.859375 56.546875 
Q 51.859375 49.515625 48.0625 42.75 
Q 44.28125 35.984375 33.734375 25.53125 
L 16.5 8.6875 
L 16.5 8.5 
L 51.171875 8.5 
z
" id="MicrosoftYaHei-32"/>
      </defs>
      <g transform="translate(418.690988 516.558)scale(0.16 -0.16)">
       <use xlink:href="#MicrosoftYaHei-32"/>
       <use x="58.642578" xlink:href="#MicrosoftYaHei-30"/>
      </g>
     </g>
    </g>
    <g id="xtick_6">
     <g id="line2d_6">
      <g>
       <use style="stroke:#000000;stroke-width:1.6;" x="510.926379" xlink:href="#m3af6ea22ee" y="489.068"/>
      </g>
     </g>
     <g id="text_6">
      <!-- 25 -->
      <g transform="translate(501.543879 516.558)scale(0.16 -0.16)">
       <use xlink:href="#MicrosoftYaHei-32"/>
       <use x="58.642578" xlink:href="#MicrosoftYaHei-35"/>
      </g>
     </g>
    </g>
    <g id="xtick_7">
     <g id="line2d_7">
      <g>
       <use style="stroke:#000000;stroke-width:1.6;" x="593.779269" xlink:href="#m3af6ea22ee" y="489.068"/>
      </g>
     </g>
     <g id="text_7">
      <!-- 30 -->
      <defs>
       <path d="M 6.984375 12.640625 
Q 14.75 6.640625 24.515625 6.640625 
Q 32.328125 6.640625 36.890625 10.46875 
Q 41.453125 14.3125 41.453125 20.75 
Q 41.453125 35.109375 20.90625 35.109375 
L 14.59375 35.109375 
L 14.59375 43.015625 
L 20.609375 43.015625 
Q 38.8125 43.015625 38.8125 56.5 
Q 38.8125 68.953125 24.90625 68.953125 
Q 16.9375 68.953125 9.90625 63.578125 
L 9.90625 72.609375 
Q 17.328125 76.90625 27.25 76.90625 
Q 36.921875 76.90625 42.78125 71.84375 
Q 48.640625 66.796875 48.640625 58.734375 
Q 48.640625 43.890625 33.5 39.65625 
L 33.5 39.453125 
Q 41.703125 38.578125 46.453125 33.671875 
Q 51.21875 28.765625 51.21875 21.4375 
Q 51.21875 11.234375 43.875 4.984375 
Q 36.53125 -1.265625 24.3125 -1.265625 
Q 13.578125 -1.265625 6.984375 2.734375 
z
" id="MicrosoftYaHei-33"/>
      </defs>
      <g transform="translate(584.396769 516.558)scale(0.16 -0.16)">
       <use xlink:href="#MicrosoftYaHei-33"/>
       <use x="58.642578" xlink:href="#MicrosoftYaHei-30"/>
      </g>
     </g>
    </g>
    <g id="xtick_8">
     <g id="line2d_8">
      <g>
       <use style="stroke:#000000;stroke-width:1.6;" x="676.632159" xlink:href="#m3af6ea22ee" y="489.068"/>
      </g>
     </g>
     <g id="text_8">
      <!-- 35 -->
      <g transform="translate(667.249659 516.558)scale(0.16 -0.16)">
       <use xlink:href="#MicrosoftYaHei-33"/>
       <use x="58.642578" xlink:href="#MicrosoftYaHei-35"/>
      </g>
     </g>
    </g>
    <g id="xtick_9">
     <g id="line2d_9">
      <g>
       <use style="stroke:#000000;stroke-width:1.6;" x="759.485049" xlink:href="#m3af6ea22ee" y="489.068"/>
      </g>
     </g>
     <g id="text_9">
      <!-- 40 -->
      <defs>
       <path d="M 55.078125 19.625 
L 45.40625 19.625 
L 45.40625 0 
L 36.140625 0 
L 36.140625 19.625 
L 0.875 19.625 
L 0.875 25.828125 
L 34.328125 75.640625 
L 45.40625 75.640625 
L 45.40625 27.203125 
L 55.078125 27.203125 
z
M 36.140625 27.203125 
L 36.140625 58.890625 
Q 36.140625 62.25 36.328125 66.65625 
L 36.140625 66.65625 
Q 35.453125 64.796875 33.25 60.84375 
L 10.75 27.203125 
z
" id="MicrosoftYaHei-34"/>
      </defs>
      <g transform="translate(750.102549 516.558)scale(0.16 -0.16)">
       <use xlink:href="#MicrosoftYaHei-34"/>
       <use x="58.642578" xlink:href="#MicrosoftYaHei-30"/>
      </g>
     </g>
    </g>
    <g id="text_10">
     <!-- 频率（单位：年） -->
     <defs>
      <path d="M 50 58.0625 
L 64.265625 58.0625 
L 66.703125 70.65625 
L 45.90625 70.65625 
L 45.90625 77.296875 
L 98.34375 77.296875 
L 98.34375 70.65625 
L 74.8125 70.65625 
L 71.875 58.0625 
L 94.046875 58.0625 
L 94.046875 7.46875 
L 86.71875 7.46875 
L 86.71875 51.421875 
L 57.328125 51.421875 
L 57.328125 7.46875 
L 50 7.46875 
z
M 1.46875 47.40625 
L 8.203125 47.40625 
L 8.203125 73.296875 
L 15.046875 73.296875 
L 15.046875 47.40625 
L 25 47.40625 
L 25 82.375 
L 32.03125 82.375 
L 32.03125 67.046875 
L 45.703125 67.046875 
L 45.703125 60.59375 
L 32.03125 60.59375 
L 32.03125 47.40625 
L 46.96875 47.40625 
L 46.96875 40.765625 
L 1.46875 40.765625 
z
M 68.0625 45.0625 
L 75.390625 45.0625 
L 75.390625 30.21875 
Q 75.390625 19 72.65625 11.1875 
Q 87.796875 2 99.609375 -6.296875 
L 94.921875 -13.140625 
Q 82.90625 -3.65625 69.53125 4.734375 
Q 68.953125 3.765625 68.265625 2.875 
Q 61.140625 -6.984375 43.171875 -13.8125 
Q 41.015625 -10.796875 38.1875 -7.46875 
Q 55.078125 -1.125 61.625 6.984375 
Q 68.0625 14.796875 68.0625 30.71875 
z
M 24.21875 38.421875 
L 31.25 38.421875 
L 31.25 13.328125 
Q 37.40625 20.453125 41.609375 29.15625 
L 48.4375 25.140625 
Q 34.46875 -0.734375 6.15625 -14.203125 
Q 4.296875 -11.578125 1.078125 -7.859375 
Q 17.578125 -0.734375 28.421875 10.296875 
L 24.21875 10.296875 
z
M 0.59375 9.03125 
Q 5.953125 18.609375 10.453125 32.5625 
L 17.390625 30.421875 
Q 12.59375 16.0625 7.125 5.71875 
Q 4.203125 7.375 0.59375 9.03125 
z
" id="MicrosoftYaHei-9891"/>
      <path d="M 39.453125 31.390625 
Q 40.96875 31.5 61.375 32.515625 
Q 58.9375 35.9375 56.640625 38.921875 
L 61.921875 42.234375 
Q 68.953125 34.421875 74.90625 25.828125 
L 68.65625 21.921875 
Q 66.9375 24.515625 65.28125 26.953125 
Q 46.734375 25.921875 34.578125 24.953125 
Q 32.421875 24.75 29.390625 24.078125 
L 26.953125 30.71875 
Q 29.890625 31.6875 31.34375 32.5625 
Q 39.59375 38.140625 47.65625 45.515625 
Q 40.578125 45.21875 35.546875 44.78125 
Q 33.5 44.484375 31.0625 43.890625 
L 28.125 49.859375 
Q 30.5625 50.734375 32.625 52.59375 
Q 39.203125 58.15625 44.921875 66.0625 
L 3.609375 66.0625 
L 3.609375 72.90625 
L 47.359375 72.90625 
Q 44.96875 77.25 42.875 80.515625 
L 49.90625 83.9375 
Q 53.71875 78.125 56.5 72.90625 
L 96.484375 72.90625 
L 96.484375 66.0625 
L 47.703125 66.0625 
L 52.34375 63.625 
Q 44.4375 55.515625 38.96875 50.734375 
Q 44.53125 50.875 53.515625 51.078125 
Q 57.421875 54.984375 61.328125 59.328125 
L 68.0625 55.421875 
Q 52.546875 40.671875 39.453125 31.390625 
z
M 2.25 15.484375 
L 46.78125 15.484375 
L 46.78125 24.078125 
L 54.5 24.078125 
L 54.5 15.484375 
L 98.046875 15.484375 
L 98.046875 8.640625 
L 54.5 8.640625 
L 54.5 -13.328125 
L 46.78125 -13.328125 
L 46.78125 8.640625 
L 2.25 8.640625 
z
M 26.859375 41.75 
L 30.375 35.984375 
Q 18.75 29.15625 6.640625 22.015625 
L 2.546875 28.5625 
Q 12.703125 33.34375 26.859375 41.75 
z
M 75.875 41.84375 
Q 89.84375 33.9375 97.65625 28.375 
L 93.359375 22.015625 
Q 83.296875 29.828125 71.875 36.578125 
z
M 93.65625 56.109375 
Q 86.234375 49.65625 77.546875 43.890625 
L 72.5625 49.078125 
Q 81.9375 55.21875 88.09375 61.375 
z
M 5.671875 56.78125 
L 10.640625 61.578125 
Q 18.75 55.125 24.8125 49.359375 
L 19.34375 44 
Q 13.671875 49.953125 5.671875 56.78125 
z
" id="MicrosoftYaHei-7387"/>
      <path d="M 57.625 -17.1875 
Q 40.1875 1.859375 40.1875 28.90625 
Q 40.1875 56.296875 57.625 75.59375 
L 66.015625 75.59375 
Q 48.6875 55.8125 48.6875 29 
Q 48.6875 2.59375 65.921875 -17.1875 
z
" id="MicrosoftYaHei-ff08"/>
      <path d="M 1.953125 14.203125 
L 46.1875 14.203125 
L 46.1875 25.25 
L 19.140625 25.25 
L 19.140625 20.65625 
L 11.71875 20.65625 
L 11.71875 68.015625 
L 31.984375 68.015625 
Q 27.296875 73.484375 21.875 79.25 
L 27.4375 83.84375 
Q 34.671875 76.90625 40.140625 71.046875 
L 36.53125 68.015625 
L 59.421875 68.015625 
Q 64.796875 75.140625 70.3125 83.546875 
L 78.125 79.34375 
Q 73.09375 73.25 68.40625 68.015625 
L 88.375 68.015625 
L 88.375 20.65625 
L 80.953125 20.65625 
L 80.953125 25.25 
L 53.8125 25.25 
L 53.8125 14.203125 
L 98.046875 14.203125 
L 98.046875 7.171875 
L 53.8125 7.171875 
L 53.8125 -13.421875 
L 46.1875 -13.421875 
L 46.1875 7.171875 
L 1.953125 7.171875 
z
M 53.8125 32.078125 
L 80.953125 32.078125 
L 80.953125 43.40625 
L 53.8125 43.40625 
z
M 19.140625 32.078125 
L 46.1875 32.078125 
L 46.1875 43.40625 
L 19.140625 43.40625 
z
M 80.953125 61.1875 
L 53.8125 61.1875 
L 53.8125 50.046875 
L 80.953125 50.046875 
z
M 19.140625 50.046875 
L 46.1875 50.046875 
L 46.1875 61.1875 
L 19.140625 61.1875 
z
" id="MicrosoftYaHei-5355"/>
      <path d="M 27.9375 -0.921875 
L 66.0625 -0.921875 
Q 73.09375 17.875 82.328125 52.6875 
L 91.109375 50.046875 
Q 85.203125 31.9375 74.3125 -0.921875 
L 98.734375 -0.921875 
L 98.734375 -8.15625 
L 27.9375 -8.15625 
z
M 1.265625 35.796875 
Q 15.234375 56.890625 22.359375 83.15625 
L 30.671875 81.109375 
Q 26.609375 68.703125 21.96875 57.953125 
L 21.96875 -13.328125 
L 14.65625 -13.328125 
L 14.65625 42.671875 
Q 10.0625 34.078125 4.984375 26.8125 
Q 3.609375 30.515625 1.265625 35.796875 
z
M 29.984375 65.484375 
L 64.40625 65.484375 
Q 60.0625 72.796875 54.78125 79.046875 
L 61.421875 83.640625 
Q 65.71875 78.65625 72.078125 70.265625 
L 64.84375 65.484375 
L 96.96875 65.484375 
L 96.96875 58.25 
L 29.984375 58.25 
z
M 43.265625 51.703125 
Q 49.703125 34.125 57.328125 9.125 
L 49.21875 6.78125 
Q 42.578125 30.71875 35.84375 49.171875 
z
" id="MicrosoftYaHei-4f4d"/>
      <path d="M 50.09375 55.171875 
Q 52.6875 55.171875 54.53125 53.359375 
Q 56.390625 51.5625 56.390625 49.03125 
Q 56.390625 46.484375 54.578125 44.65625 
Q 52.78125 42.828125 50.09375 42.828125 
Q 47.40625 42.828125 45.59375 44.65625 
Q 43.796875 46.484375 43.796875 49.03125 
Q 43.796875 51.5625 45.65625 53.359375 
Q 47.515625 55.171875 50.09375 55.171875 
z
M 50.09375 11.1875 
Q 52.6875 11.1875 54.53125 9.375 
Q 56.390625 7.5625 56.390625 4.984375 
Q 56.390625 2.34375 54.53125 0.5625 
Q 52.6875 -1.21875 50.09375 -1.21875 
Q 47.515625 -1.21875 45.65625 0.5625 
Q 43.796875 2.34375 43.796875 4.984375 
Q 43.796875 7.5625 45.65625 9.375 
Q 47.515625 11.1875 50.09375 11.1875 
z
" id="MicrosoftYaHei-ff1a"/>
      <path d="M 1.859375 19.96875 
L 17.578125 19.96875 
L 17.578125 47.90625 
L 52.15625 47.90625 
L 52.15625 65.28125 
L 23.4375 65.28125 
Q 16.84375 53.421875 8.6875 43.40625 
Q 6.15625 46.140625 2.640625 48.875 
Q 16.5 64.5 23.4375 83.9375 
L 31.453125 81.6875 
Q 29.390625 76.859375 27.15625 72.3125 
L 94.34375 72.3125 
L 94.34375 65.28125 
L 60.0625 65.28125 
L 60.0625 47.90625 
L 92.671875 47.90625 
L 92.671875 41.0625 
L 60.0625 41.0625 
L 60.0625 19.96875 
L 98.734375 19.96875 
L 98.734375 12.9375 
L 60.0625 12.9375 
L 60.0625 -13.421875 
L 52.15625 -13.421875 
L 52.15625 12.9375 
L 1.859375 12.9375 
z
M 25.296875 19.96875 
L 52.15625 19.96875 
L 52.15625 41.0625 
L 25.296875 41.0625 
z
" id="MicrosoftYaHei-5e74"/>
      <path d="M 42.390625 -17.1875 
L 33.984375 -17.1875 
Q 51.3125 2.546875 51.3125 29.5 
Q 51.3125 55.953125 34.078125 75.59375 
L 42.390625 75.59375 
Q 59.71875 56.6875 59.71875 29.5 
Q 59.71875 2 42.390625 -17.1875 
z
" id="MicrosoftYaHei-ff09"/>
     </defs>
     <g transform="translate(353.68175 538.6045)scale(0.176 -0.176)">
      <use xlink:href="#MicrosoftYaHei-9891"/>
      <use x="100" xlink:href="#MicrosoftYaHei-7387"/>
      <use x="200" xlink:href="#MicrosoftYaHei-ff08"/>
      <use x="300" xlink:href="#MicrosoftYaHei-5355"/>
      <use x="400" xlink:href="#MicrosoftYaHei-4f4d"/>
      <use x="500" xlink:href="#MicrosoftYaHei-ff1a"/>
      <use x="600" xlink:href="#MicrosoftYaHei-5e74"/>
      <use x="700" xlink:href="#MicrosoftYaHei-ff09"/>
     </g>
    </g>
   </g>
   <g id="matplotlib.axis_2">
    <g id="ytick_1">
     <g id="line2d_10">
      <defs>
       <path d="M 0 0 
L -3.5 0 
" id="mac3a39c287" style="stroke:#000000;stroke-width:1.6;"/>
      </defs>
      <g>
       <use style="stroke:#000000;stroke-width:1.6;" x="66.96175" xlink:href="#mac3a39c287" y="467.324066"/>
      </g>
     </g>
     <g id="text_11">
      <!-- 0.0 -->
      <defs>
       <path d="M 5.8125 5.03125 
Q 5.8125 7.671875 7.609375 9.46875 
Q 9.421875 11.28125 12.109375 11.28125 
Q 14.84375 11.28125 16.640625 9.453125 
Q 18.453125 7.625 18.453125 5.03125 
Q 18.453125 2.484375 16.640625 0.65625 
Q 14.84375 -1.171875 12.0625 -1.171875 
Q 9.375 -1.171875 7.59375 0.65625 
Q 5.8125 2.484375 5.8125 5.03125 
z
" id="MicrosoftYaHei-2e"/>
      </defs>
      <g transform="translate(29.64425 473.719066)scale(0.16 -0.16)">
       <use xlink:href="#MicrosoftYaHei-30"/>
       <use x="58.642578" xlink:href="#MicrosoftYaHei-2e"/>
       <use x="82.714844" xlink:href="#MicrosoftYaHei-30"/>
      </g>
     </g>
    </g>
    <g id="ytick_2">
     <g id="line2d_11">
      <g>
       <use style="stroke:#000000;stroke-width:1.6;" x="66.96175" xlink:href="#mac3a39c287" y="382.948133"/>
      </g>
     </g>
     <g id="text_12">
      <!-- 0.5 -->
      <g transform="translate(29.64425 389.343133)scale(0.16 -0.16)">
       <use xlink:href="#MicrosoftYaHei-30"/>
       <use x="58.642578" xlink:href="#MicrosoftYaHei-2e"/>
       <use x="82.714844" xlink:href="#MicrosoftYaHei-35"/>
      </g>
     </g>
    </g>
    <g id="ytick_3">
     <g id="line2d_12">
      <g>
       <use style="stroke:#000000;stroke-width:1.6;" x="66.96175" xlink:href="#mac3a39c287" y="298.572201"/>
      </g>
     </g>
     <g id="text_13">
      <!-- 1.0 -->
      <g transform="translate(29.64425 304.967201)scale(0.16 -0.16)">
       <use xlink:href="#MicrosoftYaHei-31"/>
       <use x="58.642578" xlink:href="#MicrosoftYaHei-2e"/>
       <use x="82.714844" xlink:href="#MicrosoftYaHei-30"/>
      </g>
     </g>
    </g>
    <g id="ytick_4">
     <g id="line2d_13">
      <g>
       <use style="stroke:#000000;stroke-width:1.6;" x="66.96175" xlink:href="#mac3a39c287" y="214.196268"/>
      </g>
     </g>
     <g id="text_14">
      <!-- 1.5 -->
      <g transform="translate(29.64425 220.591268)scale(0.16 -0.16)">
       <use xlink:href="#MicrosoftYaHei-31"/>
       <use x="58.642578" xlink:href="#MicrosoftYaHei-2e"/>
       <use x="82.714844" xlink:href="#MicrosoftYaHei-35"/>
      </g>
     </g>
    </g>
    <g id="ytick_5">
     <g id="line2d_14">
      <g>
       <use style="stroke:#000000;stroke-width:1.6;" x="66.96175" xlink:href="#mac3a39c287" y="129.820336"/>
      </g>
     </g>
     <g id="text_15">
      <!-- 2.0 -->
      <g transform="translate(29.64425 136.215336)scale(0.16 -0.16)">
       <use xlink:href="#MicrosoftYaHei-32"/>
       <use x="58.642578" xlink:href="#MicrosoftYaHei-2e"/>
       <use x="82.714844" xlink:href="#MicrosoftYaHei-30"/>
      </g>
     </g>
    </g>
    <g id="ytick_6">
     <g id="line2d_15">
      <g>
       <use style="stroke:#000000;stroke-width:1.6;" x="66.96175" xlink:href="#mac3a39c287" y="45.444403"/>
      </g>
     </g>
     <g id="text_16">
      <!-- 2.5 -->
      <g transform="translate(29.64425 51.839403)scale(0.16 -0.16)">
       <use xlink:href="#MicrosoftYaHei-32"/>
       <use x="58.642578" xlink:href="#MicrosoftYaHei-2e"/>
       <use x="82.714844" xlink:href="#MicrosoftYaHei-35"/>
      </g>
     </g>
    </g>
    <g id="text_17">
     <!-- 谱能量（单位：1e-2） -->
     <defs>
      <path d="M 35.9375 29.546875 
L 87.5 29.546875 
L 87.5 -13.53125 
L 80.46875 -13.53125 
L 80.46875 -8.734375 
L 42.96875 -8.734375 
L 42.96875 -13.53125 
L 35.9375 -13.53125 
z
M 83.890625 79.15625 
Q 79.6875 73.78125 75.984375 69.78125 
L 94.828125 69.78125 
L 94.828125 63.53125 
L 74.421875 63.53125 
L 74.421875 43.40625 
L 98.4375 43.40625 
L 98.4375 37.15625 
L 25.390625 37.15625 
L 25.390625 43.40625 
L 49.21875 43.40625 
L 49.21875 63.53125 
L 29.390625 63.53125 
L 29.390625 69.78125 
L 47.953125 69.78125 
Q 44.34375 75.046875 40.328125 79.34375 
L 45.609375 83.25 
Q 50.484375 78.171875 54.203125 73 
L 49.90625 69.78125 
L 73.640625 69.78125 
L 69.921875 72.703125 
Q 74.703125 77.875 78.21875 82.953125 
z
M 30.375 14.3125 
Q 30.46875 11.96875 31.84375 5.421875 
Q 22.265625 -3.078125 14.9375 -10.890625 
L 9.1875 -4.25 
Q 12.40625 -0.53125 12.40625 4.546875 
L 12.40625 42.046875 
L 1.5625 42.046875 
L 1.5625 49.078125 
L 19.734375 49.078125 
L 19.734375 3.953125 
Q 24.03125 7.859375 30.375 14.3125 
z
M 42.96875 -2.484375 
L 80.46875 -2.484375 
L 80.46875 7.46875 
L 42.96875 7.46875 
z
M 80.46875 23.296875 
L 42.96875 23.296875 
L 42.96875 13.53125 
L 80.46875 13.53125 
z
M 55.859375 43.40625 
L 67.78125 43.40625 
L 67.78125 63.53125 
L 55.859375 63.53125 
z
M 10.25 81.109375 
Q 17.1875 74.265625 24.125 66.453125 
L 17.96875 61.1875 
Q 11.921875 69.28125 4.890625 76.515625 
z
M 93.359375 56.78125 
Q 87.796875 50.53125 82.71875 45.359375 
L 77.9375 50.046875 
Q 83.296875 55.125 87.984375 60.984375 
z
M 31.0625 56.78125 
L 36.03125 60.984375 
Q 40.71875 56.296875 46.09375 50.046875 
L 40.71875 45.5625 
Q 35.75 51.90625 31.0625 56.78125 
z
" id="MicrosoftYaHei-8c31"/>
      <path d="M 14.84375 -11.859375 
L 7.234375 -11.859375 
L 7.234375 45.75 
L 46.875 45.75 
L 46.875 -0.4375 
Q 46.875 -10.984375 37.109375 -10.984375 
Q 32.8125 -11.078125 26.078125 -11.078125 
Q 25.59375 -8.0625 24.609375 -3.65625 
Q 30.765625 -4.15625 34.46875 -4.15625 
Q 39.265625 -4.15625 39.265625 0.828125 
L 39.265625 8.9375 
L 14.84375 8.9375 
z
M 56.34375 35.203125 
L 63.96875 35.203125 
L 63.96875 19.09375 
Q 77.828125 24.265625 92.96875 32.671875 
L 97.359375 25.921875 
Q 81.390625 17.53125 63.96875 11.03125 
L 63.96875 2.59375 
Q 63.96875 -3.5625 68.75 -3.5625 
L 83.109375 -3.5625 
Q 88.09375 -3.5625 88.875 1.21875 
Q 89.546875 5.515625 90.046875 14.015625 
Q 93.75 12.546875 97.65625 11.28125 
Q 96.875 2.6875 96 -1.703125 
Q 94.734375 -10.296875 83.796875 -10.296875 
L 67.484375 -10.296875 
Q 56.34375 -10.296875 56.34375 1.125 
z
M 56.546875 82.859375 
L 64.15625 82.859375 
L 64.15625 66.109375 
Q 77.59375 71.4375 90.828125 78.953125 
L 95.21875 72.21875 
Q 79.984375 64.5 64.15625 58.109375 
L 64.15625 52.484375 
Q 64.15625 45.953125 69.34375 45.953125 
L 81.734375 45.953125 
Q 87.890625 45.953125 88.671875 51.03125 
Q 89.359375 55.21875 89.84375 63.234375 
Q 93.5625 61.765625 97.46875 60.40625 
Q 96.6875 52.59375 95.796875 47.703125 
Q 94.34375 39.203125 82.625 39.203125 
L 68.359375 39.203125 
Q 56.546875 39.203125 56.546875 50.921875 
z
M 38.484375 74.5625 
Q 47.359375 63.03125 53.90625 52.390625 
Q 50.203125 49.859375 47.171875 47.90625 
Q 45.265625 51.265625 43.109375 54.78125 
Q 19.234375 53.03125 4.890625 51.609375 
L 1.765625 59.8125 
Q 6.0625 62.15625 11.234375 68.609375 
Q 16.609375 75.640625 21.78125 84.328125 
L 29.5 81.5 
Q 21.390625 69.78125 12.40625 59.328125 
Q 27.046875 60.25 39.015625 61.234375 
Q 35.9375 65.875 32.421875 70.75 
z
M 14.84375 14.796875 
L 39.265625 14.796875 
L 39.265625 24.265625 
L 14.84375 24.265625 
z
M 39.265625 39.5 
L 14.84375 39.5 
L 14.84375 30.125 
L 39.265625 30.125 
z
" id="MicrosoftYaHei-80fd"/>
      <path d="M 1.765625 -4.34375 
L 46.578125 -4.34375 
L 46.578125 1.21875 
L 7.421875 1.21875 
L 7.421875 6.296875 
L 46.578125 6.296875 
L 46.578125 11.859375 
L 23.34375 11.859375 
L 23.34375 9.328125 
L 16.703125 9.328125 
L 16.703125 39.3125 
L 83.59375 39.3125 
L 83.59375 9.328125 
L 76.953125 9.328125 
L 76.953125 11.859375 
L 53.421875 11.859375 
L 53.421875 6.296875 
L 92.671875 6.296875 
L 92.671875 1.21875 
L 53.421875 1.21875 
L 53.421875 -4.34375 
L 98.25 -4.34375 
L 98.25 -9.625 
L 1.765625 -9.625 
z
M 17.484375 79.25 
L 82.90625 79.25 
L 82.90625 51.3125 
L 76.265625 51.3125 
L 76.265625 53.953125 
L 24.125 53.953125 
L 24.125 51.3125 
L 17.484375 51.3125 
z
M 2.546875 49.265625 
L 97.859375 49.265625 
L 97.859375 44 
L 2.546875 44 
z
M 24.125 59.03125 
L 76.265625 59.03125 
L 76.265625 64.3125 
L 24.125 64.3125 
z
M 76.265625 74.171875 
L 24.125 74.171875 
L 24.125 69 
L 76.265625 69 
z
M 53.421875 16.9375 
L 76.953125 16.9375 
L 76.953125 23.296875 
L 53.421875 23.296875 
z
M 23.34375 16.9375 
L 46.578125 16.9375 
L 46.578125 23.296875 
L 23.34375 23.296875 
z
M 76.953125 34.234375 
L 53.421875 34.234375 
L 53.421875 27.984375 
L 76.953125 27.984375 
z
M 23.34375 27.984375 
L 46.578125 27.984375 
L 46.578125 34.234375 
L 23.34375 34.234375 
z
" id="MicrosoftYaHei-91cf"/>
      <path d="M 52.546875 24.5625 
L 14.75 24.5625 
Q 14.984375 15.921875 19.46875 11.203125 
Q 23.96875 6.5 32.03125 6.5 
Q 41.109375 6.5 48.6875 12.3125 
L 48.6875 3.765625 
Q 41.546875 -1.265625 29.78125 -1.265625 
Q 18.0625 -1.265625 11.5 6.15625 
Q 4.9375 13.578125 4.9375 26.765625 
Q 4.9375 39.15625 12.140625 47.21875 
Q 19.34375 55.28125 30.03125 55.28125 
Q 40.625 55.28125 46.578125 48.46875 
Q 52.546875 41.65625 52.546875 29.390625 
z
M 42.96875 32.234375 
Q 42.921875 39.546875 39.5 43.546875 
Q 36.078125 47.5625 29.890625 47.5625 
Q 24.171875 47.5625 20 43.3125 
Q 15.828125 39.0625 14.75 32.234375 
z
" id="MicrosoftYaHei-65"/>
      <path d="M 36.375 26.265625 
L 7.625 26.265625 
L 7.625 33.640625 
L 36.375 33.640625 
z
" id="MicrosoftYaHei-2d"/>
     </defs>
     <g transform="translate(21.269 339.40475)rotate(-90)scale(0.176 -0.176)">
      <use xlink:href="#MicrosoftYaHei-8c31"/>
      <use x="100" xlink:href="#MicrosoftYaHei-80fd"/>
      <use x="200" xlink:href="#MicrosoftYaHei-91cf"/>
      <use x="300" xlink:href="#MicrosoftYaHei-ff08"/>
      <use x="400" xlink:href="#MicrosoftYaHei-5355"/>
      <use x="500" xlink:href="#MicrosoftYaHei-4f4d"/>
      <use x="600" xlink:href="#MicrosoftYaHei-ff1a"/>
      <use x="700" xlink:href="#MicrosoftYaHei-31"/>
      <use x="758.642578" xlink:href="#MicrosoftYaHei-65"/>
      <use x="815.380859" xlink:href="#MicrosoftYaHei-2d"/>
      <use x="858.642578" xlink:href="#MicrosoftYaHei-32"/>
      <use x="917.285156" xlink:href="#MicrosoftYaHei-ff09"/>
     </g>
    </g>
   </g>
   <g id="line2d_16">
    <path clip-path="url(#p8e1c87649a)" d="M 99.427205 467.324 
L 105.931135 467.297115 
L 107.015124 466.947351 
L 108.099112 467.22794 
L 109.183101 467.269591 
L 110.267089 467.125951 
L 111.351078 466.458386 
L 112.435066 467.139092 
L 113.519055 466.961856 
L 114.603043 466.547282 
L 115.687032 467.208559 
L 117.855008 467.139906 
L 118.938997 467.302591 
L 120.022985 467.264107 
L 121.106974 465.69126 
L 122.190962 467.022014 
L 123.274951 467.263918 
L 124.358939 467.190781 
L 125.442928 466.988298 
L 126.526916 464.351157 
L 127.610905 466.982563 
L 128.694893 466.542775 
L 129.778882 467.214817 
L 130.86287 464.54718 
L 131.946859 465.564458 
L 133.030847 466.764182 
L 134.114835 462.119199 
L 135.198824 465.679595 
L 136.282812 466.275898 
L 137.366801 462.269838 
L 138.450789 456.87268 
L 139.534778 466.33698 
L 140.618766 466.96933 
L 141.702755 465.40713 
L 142.786743 463.483637 
L 143.870732 465.809833 
L 144.95472 466.960461 
L 146.038709 466.987938 
L 147.122697 463.495927 
L 148.206685 425.841387 
L 150.374662 465.529357 
L 151.458651 466.91209 
L 152.542639 466.552003 
L 153.626628 463.670068 
L 154.710616 454.172049 
L 155.794605 441.993122 
L 156.878593 440.01897 
L 159.04657 458.104348 
L 160.130559 461.974013 
L 161.214547 462.510343 
L 162.298536 460.759956 
L 163.382524 457.33865 
L 164.466512 454.954069 
L 165.550501 457.614237 
L 166.634489 461.969933 
L 167.718478 464.726066 
L 168.802466 465.934279 
L 169.886455 466.3152 
L 170.970443 466.295661 
L 172.054432 465.943545 
L 173.13842 465.03803 
L 174.222409 462.949896 
L 175.306397 458.292337 
L 176.390386 448.802934 
L 177.474374 432.757839 
L 178.558363 413.523058 
L 179.642351 403.328639 
L 180.726339 413.866317 
L 181.810328 435.761051 
L 182.894316 452.543444 
L 183.978305 461.124381 
L 185.062293 464.693644 
L 186.146282 466.049165 
L 187.23027 466.526919 
L 188.314259 466.621114 
L 189.398247 466.483064 
L 190.482236 466.051634 
L 191.566224 465.054615 
L 192.650213 462.876348 
L 193.734201 458.395824 
L 194.81819 450.212529 
L 195.902178 438.10813 
L 196.986166 424.321741 
L 198.070155 412.032879 
L 199.154143 404.206899 
L 200.238132 402.310723 
L 201.32212 405.911575 
L 202.406109 413.255366 
L 204.574086 431.118731 
L 205.658074 438.88189 
L 206.742063 445.183236 
L 207.826051 450.12866 
L 208.91004 453.917656 
L 209.994028 456.765908 
L 211.078017 458.872572 
L 212.162005 460.405078 
L 213.245993 461.49486 
L 214.329982 462.23863 
L 215.41397 462.701396 
L 216.497959 462.918542 
L 217.581947 462.894795 
L 218.665936 462.61497 
L 219.749924 462.067623 
L 220.833913 461.217074 
L 221.917901 460.002975 
L 223.00189 458.346279 
L 224.085878 456.159554 
L 225.169867 453.366195 
L 226.253855 449.932465 
L 228.421832 441.505556 
L 229.50582 437.092102 
L 230.589809 433.246353 
L 231.673797 430.665507 
L 232.757786 430.013977 
L 233.841774 431.549696 
L 234.925763 434.856826 
L 237.09374 444.118068 
L 238.177728 448.835878 
L 239.261717 453.056784 
L 240.345705 456.597832 
L 241.429694 459.4224 
L 242.513682 461.587371 
L 243.59767 463.195656 
L 244.681659 464.362045 
L 245.765647 465.193063 
L 246.849636 465.777827 
L 247.933624 466.185987 
L 250.101601 466.665501 
L 252.269578 466.891659 
L 256.605532 467.029445 
L 262.025474 466.95343 
L 266.361428 466.656556 
L 268.529405 466.344838 
L 270.697382 465.833216 
L 272.865359 465.007389 
L 273.949348 464.429066 
L 275.033336 463.7105 
L 276.117324 462.828104 
L 277.201313 461.759861 
L 278.285301 460.488291 
L 279.36929 458.996362 
L 280.453278 457.26281 
L 281.537267 455.267309 
L 282.621255 452.991556 
L 283.705244 450.420068 
L 285.873221 444.346811 
L 288.041198 437.009404 
L 290.209174 428.459905 
L 292.377151 418.852849 
L 295.629117 403.049015 
L 301.049059 376.222703 
L 303.217036 366.609755 
L 305.385013 358.262406 
L 306.469001 354.669688 
L 307.55299 351.509355 
L 308.636978 348.806948 
L 309.720967 346.581015 
L 310.804955 344.843008 
L 311.888944 343.597361 
L 312.972932 342.841736 
L 314.056921 342.567409 
L 315.140909 342.760257 
L 316.224898 343.402538 
L 317.308886 344.472221 
L 318.392875 345.943273 
L 319.476863 347.786355 
L 320.560852 349.969527 
L 322.728828 355.219563 
L 324.896805 361.411864 
L 328.148771 371.854925 
L 336.820679 400.876556 
L 340.072644 410.618091 
L 342.240621 416.519229 
L 344.408598 421.906919 
L 346.576575 426.773238 
L 348.744552 431.127179 
L 350.912529 434.989961 
L 353.080506 438.390953 
L 355.248482 441.364306 
L 357.416459 443.94625 
L 359.584436 446.173039 
L 361.752413 448.079426 
L 363.92039 449.697592 
L 366.088367 451.056411 
L 368.256344 452.180964 
L 370.424321 453.094852 
L 372.592298 453.828203 
L 375.844263 454.646005 
L 379.096229 455.181501 
L 382.348194 455.478819 
L 385.600159 455.566304 
L 388.852125 455.460295 
L 392.10409 455.167552 
L 395.356056 454.686766 
L 398.608021 454.009433 
L 401.859986 453.12027 
L 405.111952 451.997293 
L 408.363917 450.611668 
L 411.615883 448.927394 
L 414.867848 446.900905 
L 417.035825 445.334688 
L 419.203802 443.576347 
L 421.371779 441.606929 
L 423.539756 439.405834 
L 425.707733 436.950865 
L 427.87571 434.218319 
L 430.043687 431.183147 
L 432.211663 427.819184 
L 434.37964 424.099473 
L 436.547617 419.996689 
L 438.715594 415.48369 
L 440.883571 410.534203 
L 443.051548 405.123652 
L 445.219525 399.23015 
L 447.387502 392.835651 
L 449.555479 385.927265 
L 452.807444 374.589619 
L 456.05941 362.098747 
L 459.311375 348.524273 
L 462.563341 333.97027 
L 465.815306 318.502584 
L 470.15126 296.587769 
L 474.487214 273.4122 
L 479.907156 243.121296 
L 497.250971 144.818538 
L 501.586925 122.2437 
L 504.838891 106.420295 
L 508.090856 91.751491 
L 511.342821 78.408475 
L 513.510798 70.327013 
L 515.678775 62.945408 
L 517.846752 56.300802 
L 520.014729 50.425849 
L 522.182706 45.348455 
L 524.350683 41.091563 
L 526.51866 37.672992 
L 527.602648 36.282219 
L 528.686637 35.105336 
L 529.770625 34.143094 
L 530.854614 33.39591 
L 531.938602 32.863877 
L 533.022591 32.54676 
L 534.106579 32.444 
L 535.190568 32.554721 
L 536.274556 32.877732 
L 537.358545 33.411532 
L 538.442533 34.15432 
L 539.526522 35.103995 
L 540.61051 36.258172 
L 541.694499 37.614184 
L 542.778487 39.16909 
L 544.946464 42.862533 
L 547.114441 47.309924 
L 549.282418 52.478988 
L 551.450395 58.334107 
L 553.618372 64.836705 
L 555.786349 71.94564 
L 559.038314 83.650715 
L 562.290279 96.469124 
L 565.542245 110.242014 
L 569.878199 129.811241 
L 575.298141 155.674537 
L 583.970049 198.625566 
L 592.641956 241.253692 
L 598.061899 266.786463 
L 602.397853 286.271408 
L 606.733806 304.754798 
L 611.06976 322.125533 
L 614.321726 334.376973 
L 617.573691 345.940199 
L 620.825657 356.805219 
L 624.077622 366.97052 
L 627.329587 376.44207 
L 630.581553 385.23232 
L 633.833518 393.359217 
L 637.085483 400.845252 
L 640.337449 407.716567 
L 643.589414 414.002115 
L 646.84138 419.732892 
L 650.093345 424.941251 
L 653.34531 429.660285 
L 656.597276 433.923291 
L 659.849241 437.763319 
L 663.101207 441.21278 
L 666.353172 444.303136 
L 669.605137 447.064648 
L 672.857103 449.526185 
L 676.109068 451.715082 
L 679.361034 453.65705 
L 682.612999 455.37612 
L 685.864964 456.894624 
L 690.200918 458.64275 
L 694.536872 460.115207 
L 698.872826 461.351381 
L 703.20878 462.385956 
L 708.628722 463.441514 
L 714.048665 464.279818 
L 720.552595 465.05775 
L 728.140515 465.723926 
L 736.812422 466.253369 
L 747.652307 466.678826 
L 748.736295 466.710798 
L 748.736295 466.710798 
" style="fill:none;stroke:#000000;stroke-linecap:square;stroke-width:2.8;"/>
   </g>
   <g id="patch_3">
    <path d="M 66.96175 489.068 
L 66.96175 10.7 
" style="fill:none;stroke:#000000;stroke-linecap:square;stroke-linejoin:miter;stroke-width:0.8;"/>
   </g>
   <g id="patch_4">
    <path d="M 66.96175 489.068 
L 781.20175 489.068 
" style="fill:none;stroke:#000000;stroke-linecap:square;stroke-linejoin:miter;stroke-width:0.8;"/>
   </g>
  </g>
 </g>
 <defs>
  <clipPath id="p8e1c87649a">
   <rect height="478.368" width="714.24" x="66.96175" y="10.7"/>
  </clipPath>
 </defs>
</svg>
