<?xml version="1.0" encoding="utf-8" standalone="no"?>
<!DOCTYPE svg PUBLIC "-//W3C//DTD SVG 1.1//EN"
  "http://www.w3.org/Graphics/SVG/1.1/DTD/svg11.dtd">
<!-- Created with matplotlib (http://matplotlib.org/) -->
<svg height="554.26575pt" version="1.1" viewBox="0 0 791.13375 554.26575" width="791.13375pt" xmlns="http://www.w3.org/2000/svg" xmlns:xlink="http://www.w3.org/1999/xlink">
 <defs>
  <style type="text/css">
*{stroke-linecap:butt;stroke-linejoin:round;}
  </style>
 </defs>
 <g id="figure_1">
  <g id="patch_1">
   <path d="M 0 554.26575 
L 791.13375 554.26575 
L 791.13375 0 
L 0 0 
z
" style="fill:#ffffff;"/>
  </g>
  <g id="axes_1">
   <g id="patch_2">
    <path d="M 66.19375 498.572 
L 780.43375 498.572 
L 780.43375 10.7 
L 66.19375 10.7 
z
" style="fill:#ffffff;"/>
   </g>
   <g id="matplotlib.axis_1">
    <g id="xtick_1">
     <g id="line2d_1">
      <defs>
       <path d="M 0 0 
L 0 3.5 
" id="mb25398f928" style="stroke:#000000;stroke-width:1.6;"/>
      </defs>
      <g>
       <use style="stroke:#000000;stroke-width:1.6;" x="95.893928" xlink:href="#mb25398f928" y="498.572"/>
      </g>
     </g>
     <g id="text_1">
      <!-- 0 -->
      <defs>
       <path d="M 25 66.015625 
Q 19.53125 66.015625 15.8125 57.609375 
Q 12.109375 49.21875 12.109375 35.15625 
Q 12.109375 20.3125 15.8125 12.109375 
Q 19.53125 3.90625 25 3.90625 
Q 30.859375 3.90625 34.171875 12.109375 
Q 37.5 20.3125 37.5 35.15625 
Q 37.5 49.21875 34.375 57.609375 
Q 31.25 66.015625 25 66.015625 
z
M 25 0.78125 
Q 16.40625 0.78125 10.546875 9.765625 
Q 4.6875 18.75 4.6875 35.15625 
Q 4.6875 50.390625 10.34375 59.765625 
Q 16.015625 69.140625 25 69.140625 
Q 33.59375 69.140625 39.25 60.15625 
Q 44.921875 51.171875 44.921875 35.15625 
Q 44.921875 19.140625 39.25 9.953125 
Q 33.59375 0.78125 25 0.78125 
z
" id="SimSun-30"/>
      </defs>
      <g transform="translate(91.893928 524.7095)scale(0.16 -0.16)">
       <use xlink:href="#SimSun-30"/>
      </g>
     </g>
    </g>
    <g id="xtick_2">
     <g id="line2d_2">
      <g>
       <use style="stroke:#000000;stroke-width:1.6;" x="178.746818" xlink:href="#mb25398f928" y="498.572"/>
      </g>
     </g>
     <g id="text_2">
      <!-- 5 -->
      <defs>
       <path d="M 26.953125 44.53125 
Q 34.375 44.53125 39.0625 38.859375 
Q 43.75 33.203125 43.75 23.828125 
Q 43.75 13.28125 38.859375 7.03125 
Q 33.984375 0.78125 23.828125 0.78125 
Q 16.796875 0.78125 11.328125 4.875 
Q 5.859375 8.984375 5.859375 14.84375 
Q 5.859375 17.1875 7.21875 18.9375 
Q 8.59375 20.703125 10.9375 20.703125 
Q 13.28125 20.703125 14.0625 19.140625 
Q 14.84375 17.578125 14.84375 16.40625 
Q 14.84375 14.0625 13.671875 12.890625 
Q 12.5 11.328125 12.5 9.765625 
Q 12.5 6.640625 16.203125 5.078125 
Q 19.921875 3.515625 24.21875 3.515625 
Q 30.46875 3.515625 33.78125 8.59375 
Q 37.109375 13.671875 37.109375 23.046875 
Q 37.109375 30.859375 34.171875 35.734375 
Q 31.25 40.625 25.390625 40.625 
Q 21.09375 40.625 17.96875 39.0625 
Q 14.84375 37.5 12.109375 32.421875 
L 8.59375 32.8125 
L 10.546875 68.359375 
L 42.578125 68.359375 
L 41.40625 62.5 
L 13.28125 62.5 
L 11.71875 36.71875 
Q 15.625 42.1875 19.328125 43.359375 
Q 23.046875 44.53125 26.953125 44.53125 
z
" id="SimSun-35"/>
      </defs>
      <g transform="translate(174.746818 524.7095)scale(0.16 -0.16)">
       <use xlink:href="#SimSun-35"/>
      </g>
     </g>
    </g>
    <g id="xtick_3">
     <g id="line2d_3">
      <g>
       <use style="stroke:#000000;stroke-width:1.6;" x="261.599708" xlink:href="#mb25398f928" y="498.572"/>
      </g>
     </g>
     <g id="text_3">
      <!-- 10 -->
      <defs>
       <path d="M 28.515625 69.53125 
L 28.515625 10.15625 
Q 28.515625 7.03125 30.46875 5.46875 
Q 32.421875 3.90625 35.9375 3.90625 
L 39.84375 3.90625 
L 39.84375 1.5625 
L 11.328125 1.5625 
L 11.328125 3.90625 
L 14.84375 3.90625 
Q 18.75 3.90625 20.5 5.46875 
Q 22.265625 7.03125 22.265625 10.15625 
L 22.265625 57.421875 
Q 22.265625 58.984375 21.28125 59.953125 
Q 20.3125 60.9375 18.359375 60.9375 
L 11.328125 60.9375 
L 11.328125 63.28125 
L 14.84375 63.28125 
Q 19.53125 63.28125 22.453125 64.84375 
Q 25.390625 66.40625 26.953125 69.53125 
z
" id="SimSun-31"/>
      </defs>
      <g transform="translate(253.599708 524.7095)scale(0.16 -0.16)">
       <use xlink:href="#SimSun-31"/>
       <use x="50" xlink:href="#SimSun-30"/>
      </g>
     </g>
    </g>
    <g id="xtick_4">
     <g id="line2d_4">
      <g>
       <use style="stroke:#000000;stroke-width:1.6;" x="344.452598" xlink:href="#mb25398f928" y="498.572"/>
      </g>
     </g>
     <g id="text_4">
      <!-- 15 -->
      <g transform="translate(336.452598 524.7095)scale(0.16 -0.16)">
       <use xlink:href="#SimSun-31"/>
       <use x="50" xlink:href="#SimSun-35"/>
      </g>
     </g>
    </g>
    <g id="xtick_5">
     <g id="line2d_5">
      <g>
       <use style="stroke:#000000;stroke-width:1.6;" x="427.305488" xlink:href="#mb25398f928" y="498.572"/>
      </g>
     </g>
     <g id="text_5">
      <!-- 20 -->
      <defs>
       <path d="M 36.328125 51.953125 
Q 36.328125 58.984375 33.203125 62.6875 
Q 30.078125 66.40625 23.828125 66.40625 
Q 19.140625 66.40625 15.8125 63.859375 
Q 12.5 61.328125 12.5 57.421875 
Q 12.5 55.078125 14.0625 53.515625 
Q 15.234375 51.953125 15.234375 50.390625 
Q 15.234375 48.4375 14.25 47.453125 
Q 13.28125 46.484375 11.328125 46.484375 
Q 8.984375 46.484375 7.609375 47.84375 
Q 6.25 49.21875 6.25 52.34375 
Q 6.25 60.546875 12.109375 64.84375 
Q 17.96875 69.140625 24.609375 69.140625 
Q 33.984375 69.140625 38.46875 64.453125 
Q 42.96875 59.765625 42.96875 52.734375 
Q 42.96875 48.046875 40.8125 43.359375 
Q 38.671875 38.671875 33.984375 34.375 
Q 22.65625 23.4375 16.59375 16.59375 
Q 10.546875 9.765625 9.375 7.421875 
L 32.421875 7.421875 
Q 35.9375 7.421875 38.28125 10.15625 
Q 40.625 12.890625 41.40625 18.359375 
L 43.75 18.359375 
L 41.40625 1.5625 
L 5.078125 1.5625 
L 5.078125 6.640625 
Q 7.03125 10.15625 11.515625 15.625 
Q 16.015625 21.09375 23.4375 28.515625 
Q 30.078125 35.15625 33.203125 41.015625 
Q 36.328125 46.875 36.328125 51.953125 
z
" id="SimSun-32"/>
      </defs>
      <g transform="translate(419.305488 524.7095)scale(0.16 -0.16)">
       <use xlink:href="#SimSun-32"/>
       <use x="50" xlink:href="#SimSun-30"/>
      </g>
     </g>
    </g>
    <g id="xtick_6">
     <g id="line2d_6">
      <g>
       <use style="stroke:#000000;stroke-width:1.6;" x="510.158379" xlink:href="#mb25398f928" y="498.572"/>
      </g>
     </g>
     <g id="text_6">
      <!-- 25 -->
      <g transform="translate(502.158379 524.7095)scale(0.16 -0.16)">
       <use xlink:href="#SimSun-32"/>
       <use x="50" xlink:href="#SimSun-35"/>
      </g>
     </g>
    </g>
    <g id="xtick_7">
     <g id="line2d_7">
      <g>
       <use style="stroke:#000000;stroke-width:1.6;" x="593.011269" xlink:href="#mb25398f928" y="498.572"/>
      </g>
     </g>
     <g id="text_7">
      <!-- 30 -->
      <defs>
       <path d="M 43.75 19.53125 
Q 43.75 12.109375 38.28125 6.4375 
Q 32.8125 0.78125 23.046875 0.78125 
Q 16.015625 0.78125 10.9375 4.6875 
Q 5.859375 8.59375 5.859375 13.671875 
Q 5.859375 16.015625 7.421875 17.765625 
Q 8.984375 19.53125 10.546875 19.53125 
Q 12.890625 19.53125 13.859375 17.765625 
Q 14.84375 16.015625 14.84375 14.84375 
Q 14.84375 12.890625 14.0625 11.71875 
Q 13.28125 10.15625 13.28125 8.984375 
Q 13.28125 6.640625 16.203125 5.078125 
Q 19.140625 3.515625 22.65625 3.515625 
Q 29.6875 3.515625 33.203125 7.609375 
Q 36.71875 11.71875 36.71875 20.3125 
Q 36.71875 27.34375 33 31.640625 
Q 29.296875 35.9375 19.140625 35.9375 
L 19.140625 38.671875 
Q 26.953125 38.671875 30.65625 42.375 
Q 34.375 46.09375 34.375 52.734375 
Q 34.375 58.203125 31.4375 62.296875 
Q 28.515625 66.40625 22.265625 66.40625 
Q 19.53125 66.40625 16.40625 65.03125 
Q 13.28125 63.671875 13.28125 60.546875 
Q 13.28125 57.421875 14.0625 56.640625 
Q 14.84375 55.859375 14.84375 54.6875 
Q 14.84375 52.734375 14.0625 51.5625 
Q 13.28125 50.390625 11.328125 50.390625 
Q 9.765625 50.390625 8.390625 51.5625 
Q 7.03125 52.734375 7.03125 55.859375 
Q 7.03125 61.71875 12.109375 65.421875 
Q 17.1875 69.140625 23.828125 69.140625 
Q 31.640625 69.140625 36.328125 64.25 
Q 41.015625 59.375 41.015625 53.90625 
Q 41.015625 48.046875 38.078125 43.9375 
Q 35.15625 39.84375 28.90625 37.890625 
Q 37.5 34.765625 40.625 29.6875 
Q 43.75 24.609375 43.75 19.53125 
z
" id="SimSun-33"/>
      </defs>
      <g transform="translate(585.011269 524.7095)scale(0.16 -0.16)">
       <use xlink:href="#SimSun-33"/>
       <use x="50" xlink:href="#SimSun-30"/>
      </g>
     </g>
    </g>
    <g id="xtick_8">
     <g id="line2d_8">
      <g>
       <use style="stroke:#000000;stroke-width:1.6;" x="675.864159" xlink:href="#mb25398f928" y="498.572"/>
      </g>
     </g>
     <g id="text_8">
      <!-- 35 -->
      <g transform="translate(667.864159 524.7095)scale(0.16 -0.16)">
       <use xlink:href="#SimSun-33"/>
       <use x="50" xlink:href="#SimSun-35"/>
      </g>
     </g>
    </g>
    <g id="xtick_9">
     <g id="line2d_9">
      <g>
       <use style="stroke:#000000;stroke-width:1.6;" x="758.717049" xlink:href="#mb25398f928" y="498.572"/>
      </g>
     </g>
     <g id="text_9">
      <!-- 40 -->
      <defs>
       <path d="M 35.9375 8.984375 
Q 35.9375 6.25 37.5 5.078125 
Q 39.0625 3.90625 41.796875 3.90625 
L 45.3125 3.90625 
L 45.3125 1.5625 
L 19.53125 1.5625 
L 19.53125 3.90625 
L 23.828125 3.90625 
Q 26.953125 3.90625 28.3125 5.078125 
Q 29.6875 6.25 29.6875 8.984375 
L 29.6875 21.875 
L 3.515625 21.875 
L 3.515625 23.828125 
L 32.03125 69.140625 
L 35.9375 69.140625 
L 35.9375 24.21875 
L 46.484375 24.21875 
L 46.484375 21.875 
L 35.9375 21.875 
z
M 29.296875 59.375 
L 7.03125 24.21875 
L 29.6875 24.21875 
L 29.6875 59.375 
z
" id="SimSun-34"/>
      </defs>
      <g transform="translate(750.717049 524.7095)scale(0.16 -0.16)">
       <use xlink:href="#SimSun-34"/>
       <use x="50" xlink:href="#SimSun-30"/>
      </g>
     </g>
    </g>
    <g id="text_10">
     <!-- 频率（单位：年） -->
     <defs>
      <path d="M 43.75 32.03125 
L 50.390625 26.171875 
L 46.875 24.21875 
Q 37.5 9.765625 29.09375 3.125 
Q 20.703125 -3.515625 6.25 -8.984375 
L 5.859375 -7.8125 
Q 23.046875 1.5625 31.25 11.125 
Q 39.453125 20.703125 43.75 32.03125 
z
M 28.125 46.09375 
L 28.125 68.359375 
Q 28.125 73.4375 27.734375 82.03125 
L 35.9375 78.515625 
L 32.8125 75.78125 
L 32.8125 63.671875 
L 39.0625 63.671875 
L 43.359375 67.96875 
L 49.21875 61.328125 
L 32.8125 61.328125 
L 32.8125 46.09375 
L 40.234375 46.09375 
L 44.921875 50.390625 
L 51.171875 43.75 
L 28.125 43.75 
L 35.15625 39.84375 
L 32.421875 37.890625 
L 32.421875 17.96875 
L 27.34375 14.84375 
L 27.34375 43.75 
L 17.96875 43.75 
Q 12.890625 43.75 8.59375 42.578125 
L 5.078125 46.09375 
L 15.625 46.09375 
L 15.625 60.9375 
Q 15.625 65.625 15.234375 70.3125 
L 23.4375 66.796875 
L 20.3125 64.0625 
L 20.3125 46.09375 
z
M 17.1875 36.328125 
L 24.21875 31.640625 
Q 21.484375 30.859375 17.1875 23.4375 
Q 12.5 15.625 5.078125 8.984375 
L 4.296875 10.15625 
Q 12.890625 21.875 17.1875 36.328125 
z
M 52.734375 12.5 
Q 53.125 22.65625 53.125 36.125 
Q 53.125 49.609375 52.734375 61.328125 
L 58.203125 58.203125 
L 65.625 58.203125 
Q 67.1875 69.140625 67.578125 73.4375 
L 58.984375 73.4375 
Q 53.90625 73.4375 49.609375 72.265625 
L 46.09375 75.78125 
L 84.375 75.78125 
L 89.453125 80.46875 
L 96.09375 73.4375 
L 75 73.4375 
Q 72.265625 70.3125 67.578125 58.203125 
L 84.765625 58.203125 
L 87.890625 61.71875 
L 93.75 57.03125 
L 90.625 54.6875 
L 90.625 30.859375 
Q 90.625 24.21875 91.015625 17.1875 
L 85.546875 14.0625 
L 85.546875 55.859375 
L 58.203125 55.859375 
L 58.203125 16.015625 
z
M 78.125 44.921875 
L 74.609375 42.1875 
Q 74.609375 23.4375 72.0625 15.421875 
Q 69.53125 7.421875 62.296875 1.5625 
Q 55.078125 -4.296875 40.234375 -8.984375 
L 39.84375 -7.8125 
Q 55.46875 -0.78125 61.515625 6.25 
Q 67.578125 13.28125 68.546875 24.796875 
Q 69.53125 36.328125 69.140625 49.21875 
z
M 73.828125 13.671875 
Q 89.0625 6.640625 91.59375 3.90625 
Q 94.140625 1.171875 94.140625 -1.5625 
Q 94.140625 -3.515625 93.359375 -5.65625 
Q 92.578125 -7.8125 91.796875 -7.8125 
Q 91.015625 -7.8125 90.234375 -6.25 
Q 88.28125 -2.734375 84.953125 1.359375 
Q 81.640625 5.46875 73.046875 12.5 
z
" id="SimSun-9891"/>
      <path d="M 13.671875 58.203125 
L 14.453125 59.375 
Q 21.484375 57.03125 24.21875 55.078125 
Q 26.953125 53.125 26.953125 50.78125 
Q 26.953125 49.609375 25.96875 47.265625 
Q 25 44.921875 24.21875 44.921875 
Q 23.4375 44.921875 22.265625 47.65625 
Q 19.921875 51.953125 13.671875 58.203125 
z
M 8.59375 28.90625 
Q 13.671875 30.078125 31.25 40.234375 
L 32.03125 39.0625 
Q 26.171875 34.765625 20.890625 30.265625 
Q 15.625 25.78125 13.671875 22.265625 
z
M 81.25 53.90625 
Q 75 49.21875 66.796875 43.75 
L 66.015625 44.921875 
Q 74.609375 53.125 78.90625 61.328125 
L 85.15625 55.078125 
z
M 67.578125 39.0625 
L 67.96875 40.234375 
Q 81.640625 36.71875 83.984375 34.5625 
Q 86.328125 32.421875 86.328125 29.6875 
Q 86.328125 27.734375 85.734375 25.96875 
Q 85.15625 24.21875 84.375 24.21875 
Q 83.203125 24.21875 81.25 28.125 
Q 77.734375 33.59375 67.578125 39.0625 
z
M 49.21875 60.9375 
Q 39.0625 51.5625 35.9375 49.21875 
Q 43.75 49.21875 53.125 49.609375 
Q 57.8125 54.6875 60.15625 59.765625 
L 66.40625 53.90625 
Q 63.28125 53.125 53.90625 44.140625 
Q 44.53125 35.15625 38.671875 30.46875 
Q 49.21875 30.859375 60.15625 31.25 
Q 58.59375 33.984375 55.46875 38.28125 
L 56.25 39.0625 
Q 63.28125 35.15625 65.625 32.8125 
Q 67.96875 30.46875 67.96875 28.90625 
Q 67.96875 27.734375 66.40625 25.390625 
Q 64.84375 23.046875 64.0625 23.046875 
Q 63.671875 23.046875 63.28125 24.21875 
Q 62.5 26.5625 60.9375 29.6875 
Q 57.03125 29.296875 48.046875 28.125 
L 54.6875 24.21875 
L 51.953125 22.265625 
L 51.953125 15.234375 
L 83.203125 15.234375 
L 88.28125 20.3125 
L 95.3125 12.890625 
L 51.953125 12.890625 
Q 51.953125 -4.296875 52.34375 -8.203125 
L 46.484375 -10.15625 
Q 46.875 0 46.875 12.890625 
L 17.578125 12.890625 
Q 12.5 12.890625 8.203125 11.71875 
L 4.6875 15.234375 
L 46.875 15.234375 
L 46.875 27.734375 
Q 38.28125 26.5625 34.375 23.828125 
L 30.46875 30.46875 
Q 35.546875 30.46875 41.796875 36.71875 
Q 48.046875 42.96875 51.953125 47.65625 
Q 37.5 46.09375 33.59375 43.359375 
L 30.46875 49.609375 
Q 33.59375 49.21875 38.671875 55.859375 
Q 43.75 62.5 45.3125 66.015625 
L 22.65625 66.015625 
Q 17.578125 66.015625 13.28125 64.84375 
L 9.765625 68.359375 
L 48.4375 68.359375 
Q 47.65625 75 41.796875 81.25 
L 42.578125 82.03125 
Q 50.390625 78.90625 52.140625 76.75 
Q 53.90625 74.609375 53.90625 73.4375 
Q 53.90625 71.09375 50.78125 68.359375 
L 78.515625 68.359375 
L 83.59375 73.046875 
L 90.234375 66.015625 
L 47.65625 66.015625 
L 52.734375 61.71875 
z
" id="SimSun-7387"/>
      <path d="M 73.4375 7.8125 
Q 85.546875 -1.5625 84.765625 -2.34375 
Q 83.984375 -3.125 77.34375 1.359375 
Q 70.703125 5.859375 64.640625 13.28125 
Q 58.59375 20.703125 57.609375 32.8125 
Q 56.640625 44.921875 62.5 54.484375 
Q 68.359375 64.0625 76.359375 69.71875 
Q 84.375 75.390625 84.5625 74.40625 
Q 84.765625 73.4375 79.296875 69.140625 
Q 73.828125 64.453125 68.546875 56.25 
Q 63.28125 48.046875 63.28125 35.15625 
Q 63.28125 22.265625 68.359375 15.03125 
Q 73.4375 7.8125 85.546875 -1.5625 
z
" id="SimSun-ff08"/>
      <path d="M 25 59.375 
L 25 46.484375 
L 46.09375 46.484375 
L 46.09375 59.375 
z
M 51.5625 59.375 
L 51.5625 46.484375 
L 73.828125 46.484375 
L 73.828125 59.375 
z
M 25 44.140625 
L 25 30.859375 
L 46.09375 30.859375 
L 46.09375 44.140625 
z
M 51.5625 44.140625 
L 51.5625 30.859375 
L 73.828125 30.859375 
L 73.828125 44.140625 
z
M 28.515625 80.46875 
L 29.296875 81.640625 
Q 34.765625 78.515625 38.859375 75.1875 
Q 42.96875 71.875 42.765625 69.140625 
Q 42.578125 66.40625 41.203125 65.03125 
Q 39.84375 63.671875 39.453125 63.671875 
Q 37.890625 63.671875 36.328125 68.359375 
Q 33.984375 74.21875 28.515625 80.46875 
z
M 51.5625 14.0625 
Q 51.5625 -1.953125 51.953125 -7.03125 
L 45.703125 -9.765625 
Q 46.09375 3.90625 46.09375 14.0625 
L 12.890625 14.0625 
L 7.8125 13.28125 
L 4.6875 16.40625 
L 46.09375 16.40625 
L 46.09375 28.515625 
L 25 28.515625 
L 25 23.828125 
L 19.140625 21.484375 
Q 19.53125 32.421875 19.53125 43.359375 
Q 19.53125 54.296875 19.140625 65.234375 
L 25.390625 61.71875 
L 55.078125 61.71875 
Q 57.8125 66.015625 60.734375 72.0625 
Q 63.671875 78.125 64.84375 82.421875 
L 72.65625 76.5625 
Q 69.53125 75.390625 65.8125 71.484375 
Q 62.109375 67.578125 57.421875 61.71875 
L 73.046875 61.71875 
L 76.171875 65.234375 
L 82.421875 60.546875 
L 78.90625 57.8125 
Q 78.90625 33.984375 79.296875 26.5625 
L 73.828125 24.21875 
L 73.828125 28.515625 
L 51.5625 28.515625 
L 51.5625 16.40625 
L 80.859375 16.40625 
L 87.109375 22.65625 
L 95.703125 14.0625 
z
" id="SimSun-5355"/>
      <path d="M 19.53125 -9.375 
Q 19.921875 2.34375 19.921875 48.4375 
Q 11.71875 34.765625 5.078125 27.734375 
L 3.90625 28.515625 
Q 11.328125 40.234375 17.375 53.90625 
Q 23.4375 67.578125 26.5625 81.640625 
L 35.546875 76.953125 
L 32.03125 75 
Q 25.78125 60.9375 23.046875 54.6875 
L 28.125 51.171875 
L 25 48.828125 
Q 25 1.953125 25.390625 -6.25 
z
M 51.5625 80.078125 
L 52.734375 80.859375 
Q 64.0625 72.265625 64.25 68.359375 
Q 64.453125 64.453125 62.5 62.890625 
Q 60.546875 61.328125 60.15625 61.328125 
Q 58.203125 61.328125 57.8125 65.625 
Q 56.640625 71.484375 51.5625 80.078125 
z
M 31.640625 58.203125 
L 78.90625 58.203125 
L 84.375 63.671875 
L 92.1875 55.859375 
L 44.140625 55.859375 
Q 39.453125 55.859375 35.15625 54.6875 
z
M 40.625 46.875 
L 41.796875 47.65625 
Q 51.5625 32.03125 53.125 26.75 
Q 54.6875 21.484375 54.6875 18.75 
Q 54.6875 14.84375 52.53125 12.5 
Q 50.390625 10.15625 49.609375 10.15625 
Q 48.4375 10.15625 48.4375 12.890625 
Q 48.046875 17.578125 46.484375 26.171875 
Q 44.921875 34.765625 40.625 46.875 
z
M 73.828125 51.953125 
L 83.203125 46.875 
Q 79.6875 44.921875 76.171875 33.203125 
Q 72.65625 21.484375 65.234375 -0.390625 
L 82.8125 -0.390625 
L 88.28125 5.078125 
L 96.09375 -2.734375 
L 42.1875 -2.734375 
Q 37.109375 -2.734375 32.8125 -3.90625 
L 29.296875 -0.390625 
L 62.5 -0.390625 
Q 67.1875 15.625 70.3125 30.65625 
Q 73.4375 45.703125 73.828125 51.953125 
z
" id="SimSun-4f4d"/>
      <path d="M 21.875 12.109375 
Q 26.5625 8.984375 26.359375 5.265625 
Q 26.171875 1.5625 23.4375 0 
Q 20.703125 -1.5625 19.53125 -1.5625 
Q 18.359375 -1.5625 15.625 0 
Q 12.890625 1.5625 12.6875 5.46875 
Q 12.5 9.375 15.03125 10.734375 
Q 17.578125 12.109375 19.53125 12.109375 
Q 21.875 12.109375 26.5625 8.984375 
z
M 21.484375 35.546875 
Q 26.953125 32.8125 26.953125 28.703125 
Q 26.953125 24.609375 23.828125 23.234375 
Q 20.703125 21.875 19.53125 21.875 
Q 17.578125 21.875 15.03125 23.625 
Q 12.5 25.390625 12.6875 29.09375 
Q 12.890625 32.8125 15.625 34.171875 
Q 18.359375 35.546875 19.921875 35.546875 
Q 21.484375 35.546875 26.953125 32.8125 
z
" id="SimSun-ff1a"/>
      <path d="M 27.734375 41.796875 
L 27.734375 21.484375 
L 50.390625 21.484375 
L 50.390625 41.796875 
z
M 28.515625 82.421875 
L 37.109375 76.953125 
L 33.59375 75.390625 
Q 30.46875 70.703125 27.34375 66.015625 
L 78.125 66.015625 
L 83.984375 71.875 
L 92.1875 63.671875 
L 56.25 63.671875 
L 56.25 44.140625 
L 72.265625 44.140625 
L 77.734375 49.609375 
L 85.546875 41.796875 
L 56.25 41.796875 
L 56.25 21.484375 
L 81.640625 21.484375 
L 87.5 27.34375 
L 95.703125 19.140625 
L 56.25 19.140625 
L 56.25 4.296875 
Q 56.25 -2.34375 56.640625 -7.421875 
L 50 -10.15625 
Q 50.390625 1.953125 50.390625 7.421875 
L 50.390625 19.140625 
L 17.1875 19.140625 
Q 12.109375 19.140625 7.8125 17.96875 
L 4.296875 21.484375 
L 21.875 21.484375 
Q 21.875 39.453125 21.484375 47.65625 
L 27.734375 44.140625 
L 50.390625 44.140625 
L 50.390625 63.671875 
L 26.171875 63.671875 
Q 22.265625 57.8125 17.96875 52.921875 
Q 13.671875 48.046875 6.25 42.1875 
L 5.078125 42.96875 
Q 12.109375 50.390625 18.359375 60.34375 
Q 24.609375 70.3125 28.515625 82.421875 
z
" id="SimSun-5e74"/>
      <path d="M 42.96875 21.875 
Q 30.078125 5.46875 22.453125 0.96875 
Q 14.84375 -3.515625 14.640625 -2.53125 
Q 14.453125 -1.5625 20.3125 2.734375 
Q 25.78125 6.640625 31.828125 15.8125 
Q 37.890625 25 37.109375 37.109375 
Q 36.328125 49.21875 31.046875 57.21875 
Q 25.78125 65.234375 20.3125 69.921875 
Q 14.453125 74.609375 14.640625 75.578125 
Q 14.84375 76.5625 22.0625 71.671875 
Q 29.296875 66.796875 36.328125 57.21875 
Q 43.359375 47.65625 43.15625 34.765625 
Q 42.96875 21.875 30.078125 5.46875 
z
" id="SimSun-ff09"/>
     </defs>
     <g transform="translate(352.91375 544.797)scale(0.176 -0.176)">
      <use xlink:href="#SimSun-9891"/>
      <use x="100" xlink:href="#SimSun-7387"/>
      <use x="200" xlink:href="#SimSun-ff08"/>
      <use x="300" xlink:href="#SimSun-5355"/>
      <use x="400" xlink:href="#SimSun-4f4d"/>
      <use x="500" xlink:href="#SimSun-ff1a"/>
      <use x="600" xlink:href="#SimSun-5e74"/>
      <use x="700" xlink:href="#SimSun-ff09"/>
     </g>
    </g>
   </g>
   <g id="matplotlib.axis_2">
    <g id="ytick_1">
     <g id="line2d_10">
      <defs>
       <path d="M 0 0 
L -3.5 0 
" id="m396f1b2786" style="stroke:#000000;stroke-width:1.6;"/>
      </defs>
      <g>
       <use style="stroke:#000000;stroke-width:1.6;" x="66.19375" xlink:href="#m396f1b2786" y="476.396067"/>
      </g>
     </g>
     <g id="text_11">
      <!-- 0.0 -->
      <defs>
       <path d="M 12.5 0.390625 
Q 10.15625 0.390625 8.390625 1.953125 
Q 6.640625 3.515625 6.640625 6.25 
Q 6.640625 8.984375 8.390625 10.546875 
Q 10.15625 12.109375 12.5 12.109375 
Q 14.84375 12.109375 16.59375 10.34375 
Q 18.359375 8.59375 18.359375 6.25 
Q 18.359375 3.515625 16.59375 1.953125 
Q 14.84375 0.390625 12.5 0.390625 
z
" id="SimSun-2e"/>
      </defs>
      <g transform="translate(27.49375 482.114817)scale(0.16 -0.16)">
       <use xlink:href="#SimSun-30"/>
       <use x="50" xlink:href="#SimSun-2e"/>
       <use x="100" xlink:href="#SimSun-30"/>
      </g>
     </g>
    </g>
    <g id="ytick_2">
     <g id="line2d_11">
      <g>
       <use style="stroke:#000000;stroke-width:1.6;" x="66.19375" xlink:href="#m396f1b2786" y="390.343792"/>
      </g>
     </g>
     <g id="text_12">
      <!-- 0.5 -->
      <g transform="translate(27.49375 396.062542)scale(0.16 -0.16)">
       <use xlink:href="#SimSun-30"/>
       <use x="50" xlink:href="#SimSun-2e"/>
       <use x="100" xlink:href="#SimSun-35"/>
      </g>
     </g>
    </g>
    <g id="ytick_3">
     <g id="line2d_12">
      <g>
       <use style="stroke:#000000;stroke-width:1.6;" x="66.19375" xlink:href="#m396f1b2786" y="304.291516"/>
      </g>
     </g>
     <g id="text_13">
      <!-- 1.0 -->
      <g transform="translate(27.49375 310.010266)scale(0.16 -0.16)">
       <use xlink:href="#SimSun-31"/>
       <use x="50" xlink:href="#SimSun-2e"/>
       <use x="100" xlink:href="#SimSun-30"/>
      </g>
     </g>
    </g>
    <g id="ytick_4">
     <g id="line2d_13">
      <g>
       <use style="stroke:#000000;stroke-width:1.6;" x="66.19375" xlink:href="#m396f1b2786" y="218.23924"/>
      </g>
     </g>
     <g id="text_14">
      <!-- 1.5 -->
      <g transform="translate(27.49375 223.95799)scale(0.16 -0.16)">
       <use xlink:href="#SimSun-31"/>
       <use x="50" xlink:href="#SimSun-2e"/>
       <use x="100" xlink:href="#SimSun-35"/>
      </g>
     </g>
    </g>
    <g id="ytick_5">
     <g id="line2d_14">
      <g>
       <use style="stroke:#000000;stroke-width:1.6;" x="66.19375" xlink:href="#m396f1b2786" y="132.186965"/>
      </g>
     </g>
     <g id="text_15">
      <!-- 2.0 -->
      <g transform="translate(27.49375 137.905715)scale(0.16 -0.16)">
       <use xlink:href="#SimSun-32"/>
       <use x="50" xlink:href="#SimSun-2e"/>
       <use x="100" xlink:href="#SimSun-30"/>
      </g>
     </g>
    </g>
    <g id="ytick_6">
     <g id="line2d_15">
      <g>
       <use style="stroke:#000000;stroke-width:1.6;" x="66.19375" xlink:href="#m396f1b2786" y="46.134689"/>
      </g>
     </g>
     <g id="text_16">
      <!-- 2.5 -->
      <g transform="translate(27.49375 51.853439)scale(0.16 -0.16)">
       <use xlink:href="#SimSun-32"/>
       <use x="50" xlink:href="#SimSun-2e"/>
       <use x="100" xlink:href="#SimSun-35"/>
      </g>
     </g>
    </g>
    <g id="text_17">
     <!-- 谱能量（单位：1e-2） -->
     <defs>
      <path d="M 56.640625 62.890625 
L 56.640625 38.28125 
L 66.015625 38.28125 
L 66.015625 62.890625 
z
M 35.15625 57.8125 
L 36.328125 58.59375 
Q 46.875 51.953125 46.671875 48.234375 
Q 46.484375 44.53125 44.921875 42.96875 
Q 43.359375 41.40625 42.96875 41.40625 
Q 41.40625 41.40625 40.625 45.703125 
Q 39.453125 51.5625 35.15625 57.8125 
z
M 82.421875 59.765625 
L 89.453125 53.90625 
Q 86.71875 53.515625 83.203125 49.21875 
Q 79.296875 44.921875 74.21875 39.84375 
L 73.046875 40.625 
Q 76.953125 46.875 79.484375 52.140625 
Q 82.03125 57.421875 82.421875 59.765625 
z
M 43.75 81.25 
L 44.921875 82.03125 
Q 53.90625 76.171875 55.078125 73.4375 
Q 56.25 70.703125 54.09375 68.359375 
Q 51.953125 66.015625 51.171875 66.015625 
Q 50 66.015625 49.21875 69.53125 
Q 48.046875 75 43.75 81.25 
z
M 71.484375 82.8125 
L 78.515625 77.734375 
Q 76.953125 77.34375 74.796875 75.390625 
Q 72.65625 73.4375 67.1875 65.234375 
L 80.078125 65.234375 
L 85.546875 70.3125 
L 92.1875 62.890625 
L 71.09375 62.890625 
L 71.09375 38.28125 
L 84.375 38.28125 
L 89.0625 43.359375 
L 95.703125 35.9375 
L 39.453125 35.9375 
Q 36.328125 35.9375 32.03125 34.765625 
L 28.515625 38.28125 
L 51.5625 38.28125 
L 51.5625 62.890625 
L 45.3125 62.890625 
Q 40.234375 62.890625 35.9375 61.71875 
L 32.421875 65.234375 
L 65.234375 65.234375 
Q 70.703125 78.515625 71.484375 82.8125 
z
M 47.265625 23.828125 
L 47.265625 12.890625 
L 77.34375 12.890625 
L 77.34375 23.828125 
z
M 47.265625 10.546875 
L 47.265625 -0.78125 
L 77.34375 -0.78125 
L 77.34375 10.546875 
z
M 41.796875 29.6875 
L 47.265625 26.171875 
L 76.5625 26.171875 
L 78.90625 29.6875 
L 85.15625 25.390625 
L 82.421875 22.65625 
Q 82.421875 -2.734375 82.8125 -7.03125 
L 77.34375 -9.375 
L 77.34375 -3.125 
L 47.265625 -3.125 
L 47.265625 -7.8125 
L 41.796875 -9.375 
Q 42.1875 -0.78125 42.1875 10.734375 
Q 42.1875 22.265625 41.796875 29.6875 
z
M 12.109375 76.5625 
L 13.28125 77.34375 
Q 18.75 74.21875 21.484375 71.671875 
Q 24.21875 69.140625 24.21875 66.796875 
Q 24.21875 66.015625 23.625 64.25 
Q 23.046875 62.5 20.890625 60.9375 
Q 18.75 59.375 17.578125 64.84375 
Q 16.40625 70.3125 12.109375 76.5625 
z
M 3.515625 47.65625 
L 17.578125 47.65625 
L 20.3125 51.5625 
L 26.171875 46.875 
L 23.046875 44.140625 
L 23.046875 7.421875 
L 37.890625 20.703125 
L 39.0625 19.53125 
Q 33.203125 12.890625 28.515625 7.03125 
Q 23.828125 1.171875 21.484375 -4.296875 
L 16.40625 1.953125 
Q 17.96875 3.90625 17.96875 8.59375 
L 17.96875 45.3125 
L 14.453125 45.3125 
Q 11.328125 45.3125 7.03125 44.140625 
z
" id="SimSun-8c31"/>
      <path d="M 27.734375 82.03125 
L 34.765625 76.171875 
Q 30.46875 75 24.21875 68.359375 
Q 17.96875 61.328125 14.0625 57.8125 
L 43.75 58.59375 
Q 40.234375 65.234375 37.109375 68.75 
L 37.890625 69.921875 
Q 44.53125 66.015625 48.046875 62.6875 
Q 51.5625 59.375 51.359375 56.4375 
Q 51.171875 53.515625 49.609375 52.140625 
Q 48.046875 50.78125 47.265625 50.78125 
Q 46.484375 50.78125 46.484375 51.953125 
Q 45.703125 53.90625 44.53125 57.03125 
Q 37.890625 56.25 26.5625 55.078125 
Q 15.234375 53.90625 11.71875 51.171875 
L 7.8125 58.59375 
Q 11.71875 58.59375 18.359375 66.796875 
Q 25 75 27.734375 82.03125 
z
M 12.890625 -9.375 
Q 13.28125 -1.171875 13.28125 20.703125 
Q 13.28125 42.578125 12.890625 48.4375 
L 18.75 45.3125 
L 38.671875 45.3125 
L 41.796875 49.21875 
L 47.65625 44.140625 
L 44.53125 41.40625 
L 44.53125 1.5625 
Q 45.3125 -5.859375 36.71875 -9.375 
Q 36.328125 -4.296875 26.5625 -1.5625 
L 26.5625 0 
Q 33.984375 -0.78125 36.71875 -0.78125 
Q 39.453125 -0.78125 39.453125 3.515625 
L 39.453125 17.1875 
L 18.75 17.1875 
L 18.75 -6.25 
z
M 18.75 42.96875 
L 18.75 33.203125 
L 39.453125 33.203125 
L 39.453125 42.96875 
z
M 18.75 30.859375 
L 18.75 19.53125 
L 39.453125 19.53125 
L 39.453125 30.859375 
z
M 57.8125 48.046875 
Q 57.8125 75.390625 57.421875 79.6875 
L 66.40625 75.78125 
L 62.890625 72.65625 
L 62.890625 58.984375 
Q 75 65.234375 80.859375 73.046875 
L 86.71875 66.40625 
L 83.203125 66.015625 
Q 71.875 60.15625 62.890625 57.03125 
L 62.890625 49.609375 
Q 62.890625 45.3125 68.75 45.3125 
L 82.03125 45.3125 
Q 85.9375 45.703125 86.328125 49.40625 
Q 86.71875 53.125 86.71875 59.375 
L 88.28125 59.375 
Q 88.671875 54.6875 89.453125 50.96875 
Q 90.234375 47.265625 93.75 46.09375 
Q 91.40625 41.015625 82.421875 41.015625 
L 66.015625 41.015625 
Q 57.8125 40.625 57.8125 48.046875 
z
M 56.640625 0.78125 
Q 56.640625 31.25 56.25 35.9375 
L 65.234375 31.640625 
L 61.71875 28.90625 
L 61.71875 16.40625 
Q 75.390625 23.828125 82.03125 33.203125 
L 88.28125 25.78125 
L 84.765625 25.78125 
Q 71.875 18.75 61.71875 14.0625 
L 61.71875 4.296875 
Q 61.71875 -1.953125 67.578125 -1.5625 
L 82.8125 -1.5625 
Q 87.109375 -1.171875 87.5 3.90625 
Q 87.5 8.59375 87.890625 14.453125 
L 89.453125 14.453125 
Q 89.84375 7.8125 90.8125 4.09375 
Q 91.796875 0.390625 94.921875 -0.390625 
Q 92.96875 -5.859375 83.203125 -6.25 
L 65.234375 -6.25 
Q 57.03125 -6.25 56.640625 0.78125 
z
" id="SimSun-80fd"/>
      <path d="M 26.5625 37.5 
L 26.5625 29.296875 
L 47.265625 29.296875 
L 47.265625 37.5 
z
M 52.34375 37.5 
L 52.34375 29.296875 
L 72.265625 29.296875 
L 72.265625 37.5 
z
M 26.5625 26.953125 
L 26.5625 19.140625 
L 47.265625 19.140625 
L 47.265625 26.953125 
z
M 52.34375 26.953125 
L 52.34375 19.140625 
L 72.265625 19.140625 
L 72.265625 26.953125 
z
M 77.34375 36.328125 
Q 77.34375 21.09375 77.734375 16.015625 
L 72.265625 13.671875 
L 72.265625 16.796875 
L 52.34375 16.796875 
L 52.34375 8.203125 
L 73.4375 8.203125 
L 78.90625 12.890625 
L 85.15625 5.859375 
L 52.34375 5.859375 
L 52.34375 -3.515625 
L 82.421875 -3.515625 
L 88.28125 1.953125 
L 94.921875 -5.859375 
L 18.359375 -5.859375 
Q 13.28125 -5.859375 8.984375 -7.03125 
L 5.46875 -3.515625 
L 47.265625 -3.515625 
L 47.265625 5.859375 
L 26.953125 5.859375 
Q 21.875 5.859375 17.578125 4.6875 
L 14.0625 8.203125 
L 47.265625 8.203125 
L 47.265625 16.796875 
L 26.5625 16.796875 
L 26.5625 14.453125 
L 21.09375 12.5 
Q 21.484375 20.3125 21.484375 27.921875 
Q 21.484375 35.546875 21.09375 42.96875 
L 26.5625 39.84375 
L 71.875 39.84375 
L 74.21875 42.96875 
L 80.078125 38.671875 
z
M 27.734375 75 
L 27.734375 68.359375 
L 71.09375 68.359375 
L 71.09375 75 
z
M 27.734375 66.015625 
L 27.734375 58.984375 
L 71.09375 58.984375 
L 71.09375 66.015625 
z
M 76.171875 74.21875 
Q 76.171875 59.765625 76.5625 55.078125 
L 71.09375 52.734375 
L 71.09375 56.640625 
L 27.734375 56.640625 
L 27.734375 53.125 
L 22.265625 50.78125 
Q 22.65625 57.03125 22.65625 66.59375 
Q 22.65625 76.171875 22.265625 80.078125 
L 28.125 77.34375 
L 70.3125 77.34375 
L 72.65625 80.859375 
L 78.90625 76.5625 
z
M 3.90625 48.828125 
L 83.984375 48.828125 
L 89.453125 53.90625 
L 96.09375 46.484375 
L 14.84375 46.484375 
Q 11.71875 46.484375 7.421875 45.3125 
z
" id="SimSun-91cf"/>
      <path d="M 37.5 25.78125 
Q 37.890625 34.375 34.5625 38.859375 
Q 31.25 43.359375 25.78125 43.359375 
Q 19.921875 43.359375 16.203125 38.671875 
Q 12.5 33.984375 12.5 25.78125 
z
M 12.5 23.4375 
Q 12.5 12.890625 16.59375 8.390625 
Q 20.703125 3.90625 27.34375 3.90625 
Q 32.421875 3.90625 35.9375 6.828125 
Q 39.453125 9.765625 41.015625 14.0625 
L 42.96875 13.28125 
Q 41.796875 8.984375 37.6875 4.875 
Q 33.59375 0.78125 26.5625 0.78125 
Q 17.578125 0.78125 11.90625 6.640625 
Q 6.25 12.5 6.25 23.4375 
Q 6.25 33.203125 11.90625 39.640625 
Q 17.578125 46.09375 25.78125 46.09375 
Q 33.203125 46.09375 38.671875 41.015625 
Q 44.140625 35.9375 44.140625 23.4375 
z
" id="SimSun-65"/>
      <path d="M 3.125 34.765625 
L 3.125 38.28125 
L 46.484375 38.28125 
L 46.484375 34.765625 
z
" id="SimSun-2d"/>
     </defs>
     <g transform="translate(21.225 342.636)rotate(-90)scale(0.176 -0.176)">
      <use xlink:href="#SimSun-8c31"/>
      <use x="100" xlink:href="#SimSun-80fd"/>
      <use x="200" xlink:href="#SimSun-91cf"/>
      <use x="300" xlink:href="#SimSun-ff08"/>
      <use x="400" xlink:href="#SimSun-5355"/>
      <use x="500" xlink:href="#SimSun-4f4d"/>
      <use x="600" xlink:href="#SimSun-ff1a"/>
      <use x="700" xlink:href="#SimSun-31"/>
      <use x="750" xlink:href="#SimSun-65"/>
      <use x="800" xlink:href="#SimSun-2d"/>
      <use x="850" xlink:href="#SimSun-32"/>
      <use x="900" xlink:href="#SimSun-ff09"/>
     </g>
    </g>
   </g>
   <g id="line2d_16">
    <path clip-path="url(#p49658e0606)" d="M 98.659205 476.396 
L 105.163135 476.36858 
L 106.247124 476.011868 
L 107.331112 476.298031 
L 108.415101 476.34051 
L 109.499089 476.194016 
L 110.583078 475.513188 
L 111.667066 476.207418 
L 112.751055 476.026661 
L 113.835043 475.603851 
L 114.919032 476.278265 
L 117.087008 476.208249 
L 118.170997 476.374166 
L 119.254985 476.334917 
L 120.338974 474.730821 
L 121.422962 476.088014 
L 122.506951 476.334724 
L 123.590939 476.260134 
L 124.674928 476.053629 
L 125.758916 473.364094 
L 126.842905 476.04778 
L 127.926893 475.599254 
L 129.010882 476.284647 
L 130.09487 473.564011 
L 131.178859 474.6015 
L 132.262847 475.82506 
L 133.346835 471.087793 
L 134.430824 474.718925 
L 135.514812 475.327074 
L 136.598801 471.241424 
L 137.682789 465.737038 
L 138.766778 475.38937 
L 139.850766 476.034284 
L 140.934755 474.441046 
L 142.018743 472.479338 
L 143.102732 474.85175 
L 144.18672 476.025238 
L 145.270709 476.053262 
L 146.354697 472.491872 
L 147.438685 434.089229 
L 149.606662 474.565702 
L 150.690651 475.975906 
L 151.774639 475.608665 
L 152.858628 472.669473 
L 153.942616 462.982752 
L 155.026605 450.56186 
L 156.110593 448.548485 
L 158.27857 466.993176 
L 159.362559 470.939721 
L 160.446547 471.486707 
L 161.530536 469.701545 
L 162.614524 466.212266 
L 163.698512 463.780309 
L 164.782501 466.493328 
L 165.866489 470.935561 
L 166.950478 473.746451 
L 168.034466 474.978668 
L 169.118455 475.367158 
L 170.202443 475.347231 
L 171.286432 474.988118 
L 172.37042 474.064614 
L 173.454409 471.934993 
L 174.538397 467.1849 
L 175.622386 457.506966 
L 176.706374 441.143094 
L 177.790363 421.526165 
L 178.874351 411.129208 
L 179.958339 421.876244 
L 181.042328 444.205973 
L 182.126316 461.32179 
L 183.210305 470.07321 
L 184.294293 473.713385 
L 185.378282 475.095838 
L 186.46227 475.583083 
L 187.546259 475.679149 
L 188.630247 475.538357 
L 189.714236 475.098355 
L 190.798224 474.081528 
L 191.882213 471.859984 
L 192.966201 467.290443 
L 194.05019 458.944566 
L 195.134178 446.599683 
L 196.218166 432.539391 
L 197.302155 420.00638 
L 198.386143 412.024917 
L 199.470132 410.091068 
L 200.55412 413.763461 
L 201.638109 421.253154 
L 203.806086 439.471421 
L 204.890074 447.388815 
L 205.974063 453.815353 
L 207.058051 458.859031 
L 208.14204 462.723305 
L 209.226028 465.628145 
L 210.310017 467.776663 
L 211.394005 469.339616 
L 212.477993 470.451049 
L 213.561982 471.209596 
L 214.64597 471.681556 
L 215.729959 471.903016 
L 216.813947 471.878797 
L 217.897936 471.593413 
L 218.981924 471.035192 
L 220.065913 470.167744 
L 221.149901 468.929524 
L 222.23389 467.239914 
L 223.317878 465.009744 
L 224.401867 462.160888 
L 225.485855 458.658938 
L 227.653832 450.064606 
L 228.73782 445.563468 
L 229.821809 441.641314 
L 230.905797 439.009192 
L 231.989786 438.344718 
L 233.073774 439.910948 
L 234.157763 443.283783 
L 236.32574 452.729023 
L 237.409728 457.540564 
L 238.493717 461.845329 
L 239.577705 465.456729 
L 240.661694 468.337414 
L 241.745682 470.545398 
L 242.82967 472.185636 
L 243.913659 473.375198 
L 244.997647 474.222727 
L 246.081636 474.819108 
L 247.165624 475.235377 
L 249.333601 475.724418 
L 251.501578 475.95507 
L 255.837532 476.095593 
L 261.257474 476.018068 
L 265.593428 475.715296 
L 267.761405 475.397384 
L 269.929382 474.875598 
L 272.097359 474.033364 
L 273.181348 473.443551 
L 274.265336 472.710708 
L 275.349324 471.810781 
L 276.433313 470.721315 
L 277.517301 469.424482 
L 278.60129 467.902912 
L 279.685278 466.134919 
L 280.769267 464.099772 
L 281.853255 461.778806 
L 282.937244 459.156228 
L 284.021232 456.219939 
L 286.189209 449.380912 
L 288.357186 441.266643 
L 290.525163 431.981583 
L 292.69314 421.736736 
L 297.029094 399.697654 
L 300.281059 383.484743 
L 302.449036 373.68081 
L 304.617013 365.167619 
L 305.701001 361.503523 
L 306.78499 358.280402 
L 307.868978 355.524305 
L 308.952967 353.254148 
L 310.036955 351.481611 
L 311.120944 350.211216 
L 312.204932 349.440578 
L 313.288921 349.160802 
L 314.372909 349.357481 
L 315.456898 350.012523 
L 316.540886 351.103457 
L 317.624875 352.603735 
L 318.708863 354.483435 
L 319.792852 356.709981 
L 321.960828 362.064322 
L 324.128805 368.379649 
L 327.380771 379.030188 
L 336.052679 408.628408 
L 339.304644 418.563484 
L 341.472621 424.581863 
L 343.640598 430.076593 
L 345.808575 435.039594 
L 347.976552 439.480037 
L 350.144529 443.419562 
L 352.312506 446.888124 
L 354.480482 449.92055 
L 356.648459 452.553792 
L 358.816436 454.824821 
L 360.984413 456.769084 
L 363.15239 458.419399 
L 365.320367 459.805214 
L 367.488344 460.952109 
L 369.656321 461.884154 
L 371.824298 462.632074 
L 375.076263 463.466124 
L 378.328229 464.01226 
L 381.580194 464.315484 
L 384.832159 464.404707 
L 388.084125 464.296593 
L 391.33609 463.998033 
L 394.588056 463.507695 
L 397.840021 462.816906 
L 401.091986 461.910077 
L 404.343952 460.764789 
L 407.595917 459.351635 
L 410.847883 457.633898 
L 414.099848 455.567149 
L 416.267825 453.969814 
L 418.435802 452.17654 
L 420.603779 450.167994 
L 422.771756 447.923169 
L 424.939733 445.419425 
L 427.10771 442.63259 
L 429.275687 439.537117 
L 431.443663 436.10632 
L 433.61164 432.312707 
L 435.779617 428.128411 
L 437.947594 423.52575 
L 440.115571 418.477929 
L 442.283548 412.959883 
L 444.451525 406.949292 
L 446.619502 400.42775 
L 448.787479 393.382112 
L 450.955456 385.805976 
L 454.207421 373.45411 
L 457.459387 359.966476 
L 460.711352 345.447221 
L 463.963317 329.975533 
L 468.299271 307.986047 
L 472.635225 284.645916 
L 478.055168 254.008372 
L 486.727075 203.277485 
L 493.231006 165.624336 
L 497.56696 141.587638 
L 501.902914 118.961052 
L 505.154879 103.195516 
L 508.406845 88.667333 
L 510.574821 79.753677 
L 512.742798 71.511655 
L 514.910775 63.983397 
L 517.078752 57.206778 
L 519.246729 51.215104 
L 521.414706 46.036835 
L 523.582683 41.695368 
L 525.75066 38.20888 
L 526.834648 36.790475 
L 527.918637 35.59021 
L 529.002625 34.60885 
L 530.086614 33.846822 
L 531.170602 33.304219 
L 532.254591 32.980801 
L 533.338579 32.876 
L 534.422568 32.988921 
L 535.506556 33.318349 
L 536.590545 33.862755 
L 537.674533 34.620299 
L 538.758522 35.588843 
L 539.84251 36.765951 
L 540.926499 38.148902 
L 542.010487 39.734701 
L 544.178464 43.501523 
L 546.346441 48.037274 
L 548.514418 53.309034 
L 550.682395 59.28048 
L 552.850372 65.912269 
L 555.018349 73.162441 
L 558.270314 85.100067 
L 561.522279 98.173147 
L 564.774245 112.219669 
L 569.110199 132.177689 
L 574.530141 158.554826 
L 583.202049 202.359186 
L 591.873956 245.834229 
L 597.293899 271.874273 
L 601.629853 291.746336 
L 605.965806 310.596947 
L 610.30176 328.312796 
L 613.553726 340.807641 
L 616.805691 352.600601 
L 620.057657 363.681482 
L 623.309622 374.048742 
L 626.561587 383.708469 
L 629.813553 392.67336 
L 633.065518 400.961718 
L 636.317483 408.596482 
L 639.569449 415.604314 
L 642.821414 422.01474 
L 646.07338 427.859374 
L 649.325345 433.17121 
L 652.57731 437.983999 
L 655.829276 442.331701 
L 659.081241 446.24802 
L 662.333207 449.766014 
L 665.585172 452.917767 
L 668.837137 455.734144 
L 672.089103 458.244586 
L 675.341068 460.476971 
L 678.593034 462.457521 
L 681.844999 464.210744 
L 685.096964 465.759418 
L 689.432918 467.542275 
L 693.768872 469.043986 
L 698.104826 470.304719 
L 702.44078 471.359849 
L 707.860722 472.436378 
L 713.280665 473.291338 
L 719.784595 474.084725 
L 727.372515 474.764136 
L 736.044422 475.304098 
L 746.884307 475.738008 
L 747.968295 475.770615 
L 747.968295 475.770615 
" style="fill:none;stroke:#000000;stroke-linecap:square;stroke-width:2.8;"/>
   </g>
   <g id="patch_3">
    <path d="M 66.19375 498.572 
L 66.19375 10.7 
" style="fill:none;stroke:#000000;stroke-linecap:square;stroke-linejoin:miter;stroke-width:0.8;"/>
   </g>
   <g id="patch_4">
    <path d="M 66.19375 498.572 
L 780.43375 498.572 
" style="fill:none;stroke:#000000;stroke-linecap:square;stroke-linejoin:miter;stroke-width:0.8;"/>
   </g>
  </g>
 </g>
 <defs>
  <clipPath id="p49658e0606">
   <rect height="487.872" width="714.24" x="66.19375" y="10.7"/>
  </clipPath>
 </defs>
</svg>
