<?xml version="1.0" encoding="utf-8" standalone="no"?>
<!DOCTYPE svg PUBLIC "-//W3C//DTD SVG 1.1//EN"
  "http://www.w3.org/Graphics/SVG/1.1/DTD/svg11.dtd">
<!-- Created with matplotlib (http://matplotlib.org/) -->
<svg height="533.972pt" version="1.1" viewBox="0 0 786.84 533.972" width="786.84pt" xmlns="http://www.w3.org/2000/svg" xmlns:xlink="http://www.w3.org/1999/xlink">
 <defs>
  <style type="text/css">
*{stroke-linecap:butt;stroke-linejoin:round;}
  </style>
 </defs>
 <g id="figure_1">
  <g id="patch_1">
   <path d="M 0 533.972 
L 786.84 533.972 
L 786.84 -0 
L 0 -0 
z
" style="fill:#ffffff;"/>
  </g>
  <g id="axes_1">
   <g id="patch_2">
    <path d="M 61.9 498.572 
L 776.14 498.572 
L 776.14 10.7 
L 61.9 10.7 
z
" style="fill:#ffffff;"/>
   </g>
   <g id="matplotlib.axis_1">
    <g id="xtick_1">
     <g id="line2d_1">
      <defs>
       <path d="M 0 0 
L 0 3.5 
" id="m347e6a24e4" style="stroke:#000000;stroke-width:1.6;"/>
      </defs>
      <g>
       <use style="stroke:#000000;stroke-width:1.6;" x="103.608289" xlink:href="#m347e6a24e4" y="498.572"/>
      </g>
     </g>
     <g id="text_1">
      <!-- 1949 -->
      <defs>
       <path d="M 28.515625 69.53125 
L 28.515625 10.15625 
Q 28.515625 7.03125 30.46875 5.46875 
Q 32.421875 3.90625 35.9375 3.90625 
L 39.84375 3.90625 
L 39.84375 1.5625 
L 11.328125 1.5625 
L 11.328125 3.90625 
L 14.84375 3.90625 
Q 18.75 3.90625 20.5 5.46875 
Q 22.265625 7.03125 22.265625 10.15625 
L 22.265625 57.421875 
Q 22.265625 58.984375 21.28125 59.953125 
Q 20.3125 60.9375 18.359375 60.9375 
L 11.328125 60.9375 
L 11.328125 63.28125 
L 14.84375 63.28125 
Q 19.53125 63.28125 22.453125 64.84375 
Q 25.390625 66.40625 26.953125 69.53125 
z
" id="SimSun-31"/>
       <path d="M 10.9375 47.65625 
Q 10.9375 39.0625 14.25 34.5625 
Q 17.578125 30.078125 22.65625 30.078125 
Q 28.515625 30.078125 32.8125 35.546875 
Q 37.109375 41.015625 37.109375 45.703125 
Q 37.109375 55.078125 33.984375 60.734375 
Q 30.859375 66.40625 23.828125 66.40625 
Q 17.1875 66.40625 14.0625 61.125 
Q 10.9375 55.859375 10.9375 47.65625 
z
M 21.484375 26.5625 
Q 13.671875 26.5625 8.984375 31.4375 
Q 4.296875 36.328125 4.296875 47.265625 
Q 4.296875 56.640625 9.375 62.890625 
Q 14.453125 69.140625 23.828125 69.140625 
Q 33.59375 69.140625 39.0625 61.328125 
Q 44.53125 53.515625 44.53125 38.671875 
Q 44.53125 22.265625 38.078125 11.515625 
Q 31.640625 0.78125 20.3125 0.78125 
Q 15.234375 0.78125 11.515625 3.125 
Q 7.8125 5.46875 7.8125 9.375 
Q 7.8125 10.9375 8.78125 12.5 
Q 9.765625 14.0625 12.109375 14.0625 
Q 14.453125 14.0625 15.234375 12.296875 
Q 16.015625 10.546875 16.015625 8.203125 
Q 16.015625 6.640625 16.40625 5.65625 
Q 16.796875 4.6875 17.1875 4.296875 
Q 17.578125 3.90625 18.546875 3.703125 
Q 19.53125 3.515625 20.703125 3.515625 
Q 27.734375 3.515625 32.03125 11.328125 
Q 36.328125 19.140625 37.109375 37.5 
Q 35.15625 32.8125 31.25 29.6875 
Q 27.34375 26.5625 21.484375 26.5625 
z
" id="SimSun-39"/>
       <path d="M 35.9375 8.984375 
Q 35.9375 6.25 37.5 5.078125 
Q 39.0625 3.90625 41.796875 3.90625 
L 45.3125 3.90625 
L 45.3125 1.5625 
L 19.53125 1.5625 
L 19.53125 3.90625 
L 23.828125 3.90625 
Q 26.953125 3.90625 28.3125 5.078125 
Q 29.6875 6.25 29.6875 8.984375 
L 29.6875 21.875 
L 3.515625 21.875 
L 3.515625 23.828125 
L 32.03125 69.140625 
L 35.9375 69.140625 
L 35.9375 24.21875 
L 46.484375 24.21875 
L 46.484375 21.875 
L 35.9375 21.875 
z
M 29.296875 59.375 
L 7.03125 24.21875 
L 29.6875 24.21875 
L 29.6875 59.375 
z
" id="SimSun-34"/>
      </defs>
      <g transform="translate(87.608289 524.7095)scale(0.16 -0.16)">
       <use xlink:href="#SimSun-31"/>
       <use x="50" xlink:href="#SimSun-39"/>
       <use x="100" xlink:href="#SimSun-34"/>
       <use x="150" xlink:href="#SimSun-39"/>
      </g>
     </g>
    </g>
    <g id="xtick_2">
     <g id="line2d_2">
      <g>
       <use style="stroke:#000000;stroke-width:1.6;" x="196.036629" xlink:href="#m347e6a24e4" y="498.572"/>
      </g>
     </g>
     <g id="text_2">
      <!-- 1959 -->
      <defs>
       <path d="M 26.953125 44.53125 
Q 34.375 44.53125 39.0625 38.859375 
Q 43.75 33.203125 43.75 23.828125 
Q 43.75 13.28125 38.859375 7.03125 
Q 33.984375 0.78125 23.828125 0.78125 
Q 16.796875 0.78125 11.328125 4.875 
Q 5.859375 8.984375 5.859375 14.84375 
Q 5.859375 17.1875 7.21875 18.9375 
Q 8.59375 20.703125 10.9375 20.703125 
Q 13.28125 20.703125 14.0625 19.140625 
Q 14.84375 17.578125 14.84375 16.40625 
Q 14.84375 14.0625 13.671875 12.890625 
Q 12.5 11.328125 12.5 9.765625 
Q 12.5 6.640625 16.203125 5.078125 
Q 19.921875 3.515625 24.21875 3.515625 
Q 30.46875 3.515625 33.78125 8.59375 
Q 37.109375 13.671875 37.109375 23.046875 
Q 37.109375 30.859375 34.171875 35.734375 
Q 31.25 40.625 25.390625 40.625 
Q 21.09375 40.625 17.96875 39.0625 
Q 14.84375 37.5 12.109375 32.421875 
L 8.59375 32.8125 
L 10.546875 68.359375 
L 42.578125 68.359375 
L 41.40625 62.5 
L 13.28125 62.5 
L 11.71875 36.71875 
Q 15.625 42.1875 19.328125 43.359375 
Q 23.046875 44.53125 26.953125 44.53125 
z
" id="SimSun-35"/>
      </defs>
      <g transform="translate(180.036629 524.7095)scale(0.16 -0.16)">
       <use xlink:href="#SimSun-31"/>
       <use x="50" xlink:href="#SimSun-39"/>
       <use x="100" xlink:href="#SimSun-35"/>
       <use x="150" xlink:href="#SimSun-39"/>
      </g>
     </g>
    </g>
    <g id="xtick_3">
     <g id="line2d_3">
      <g>
       <use style="stroke:#000000;stroke-width:1.6;" x="288.464969" xlink:href="#m347e6a24e4" y="498.572"/>
      </g>
     </g>
     <g id="text_3">
      <!-- 1969 -->
      <defs>
       <path d="M 12.109375 28.125 
Q 12.109375 16.40625 16.203125 9.953125 
Q 20.3125 3.515625 26.171875 3.515625 
Q 32.03125 3.515625 35.15625 7.8125 
Q 38.28125 12.109375 38.28125 23.828125 
Q 38.28125 31.640625 34.953125 35.9375 
Q 31.640625 40.234375 26.953125 40.234375 
Q 22.65625 40.234375 18.9375 37.6875 
Q 15.234375 35.15625 12.109375 28.125 
z
M 27.34375 44.140625 
Q 36.71875 44.140625 40.8125 37.890625 
Q 44.921875 31.640625 44.921875 23.828125 
Q 44.921875 12.109375 39.25 6.4375 
Q 33.59375 0.78125 26.171875 0.78125 
Q 15.625 0.78125 10.15625 8.78125 
Q 4.6875 16.796875 4.6875 32.03125 
Q 4.6875 50 11.328125 59.5625 
Q 17.96875 69.140625 29.296875 69.140625 
Q 34.765625 69.140625 38.078125 66.015625 
Q 41.40625 62.890625 41.40625 60.546875 
Q 41.40625 58.203125 40.421875 57.03125 
Q 39.453125 55.859375 37.109375 55.859375 
Q 35.15625 55.859375 34.171875 56.828125 
Q 33.203125 57.8125 33.203125 59.765625 
Q 33.203125 60.546875 33.59375 61.328125 
Q 33.59375 62.109375 33.59375 62.890625 
Q 33.59375 64.453125 32.421875 65.421875 
Q 31.25 66.40625 28.125 66.40625 
Q 21.484375 66.40625 16.796875 60.34375 
Q 12.109375 54.296875 12.109375 33.984375 
Q 14.453125 39.0625 18.546875 41.59375 
Q 22.65625 44.140625 27.34375 44.140625 
z
" id="SimSun-36"/>
      </defs>
      <g transform="translate(272.464969 524.7095)scale(0.16 -0.16)">
       <use xlink:href="#SimSun-31"/>
       <use x="50" xlink:href="#SimSun-39"/>
       <use x="100" xlink:href="#SimSun-36"/>
       <use x="150" xlink:href="#SimSun-39"/>
      </g>
     </g>
    </g>
    <g id="xtick_4">
     <g id="line2d_4">
      <g>
       <use style="stroke:#000000;stroke-width:1.6;" x="380.89331" xlink:href="#m347e6a24e4" y="498.572"/>
      </g>
     </g>
     <g id="text_4">
      <!-- 1979 -->
      <defs>
       <path d="M 44.140625 65.625 
Q 35.9375 52.34375 31.046875 39.640625 
Q 26.171875 26.953125 26.171875 17.578125 
Q 26.171875 16.015625 26.5625 13.28125 
Q 26.5625 10.15625 26.5625 6.25 
Q 26.5625 3.125 25.578125 1.953125 
Q 24.609375 0.78125 22.265625 0.78125 
Q 20.3125 0.78125 18.9375 2.140625 
Q 17.578125 3.515625 17.578125 7.03125 
Q 17.578125 14.453125 20.890625 25.390625 
Q 24.21875 36.328125 38.671875 62.5 
L 19.140625 62.5 
Q 14.84375 62.5 12.296875 59.765625 
Q 9.765625 57.03125 8.59375 51.5625 
L 6.25 51.953125 
L 8.984375 68.359375 
L 44.140625 68.359375 
z
" id="SimSun-37"/>
      </defs>
      <g transform="translate(364.89331 524.7095)scale(0.16 -0.16)">
       <use xlink:href="#SimSun-31"/>
       <use x="50" xlink:href="#SimSun-39"/>
       <use x="100" xlink:href="#SimSun-37"/>
       <use x="150" xlink:href="#SimSun-39"/>
      </g>
     </g>
    </g>
    <g id="xtick_5">
     <g id="line2d_5">
      <g>
       <use style="stroke:#000000;stroke-width:1.6;" x="473.32165" xlink:href="#m347e6a24e4" y="498.572"/>
      </g>
     </g>
     <g id="text_5">
      <!-- 1989 -->
      <defs>
       <path d="M 9.765625 17.578125 
Q 9.765625 11.328125 13.859375 7.421875 
Q 17.96875 3.515625 24.21875 3.515625 
Q 31.640625 3.515625 34.953125 7.421875 
Q 38.28125 11.328125 38.28125 17.1875 
Q 38.28125 22.265625 33.59375 26.953125 
Q 28.90625 31.640625 19.53125 35.546875 
Q 14.84375 32.421875 12.296875 27.734375 
Q 9.765625 23.046875 9.765625 17.578125 
z
M 44.140625 18.359375 
Q 44.140625 10.9375 38.671875 5.859375 
Q 33.203125 0.78125 24.21875 0.78125 
Q 16.015625 0.78125 10.15625 5.859375 
Q 4.296875 10.9375 4.296875 17.578125 
Q 4.296875 24.21875 7.609375 28.90625 
Q 10.9375 33.59375 17.1875 37.109375 
Q 11.71875 39.84375 8.78125 43.9375 
Q 5.859375 48.046875 5.859375 53.125 
Q 5.859375 59.765625 10.9375 64.453125 
Q 16.015625 69.140625 25 69.140625 
Q 33.203125 69.140625 38.28125 64.453125 
Q 43.359375 59.765625 43.359375 53.125 
Q 43.359375 48.4375 40.421875 44.328125 
Q 37.5 40.234375 31.25 37.109375 
Q 37.890625 33.203125 41.015625 28.515625 
Q 44.140625 23.828125 44.140625 18.359375 
z
M 37.890625 52.734375 
Q 37.890625 58.203125 34.765625 62.296875 
Q 31.640625 66.40625 25 66.40625 
Q 17.578125 66.40625 14.453125 62.5 
Q 11.328125 58.59375 11.328125 54.296875 
Q 11.328125 50 15.8125 45.890625 
Q 20.3125 41.796875 28.515625 38.671875 
Q 33.203125 41.015625 35.546875 44.53125 
Q 37.890625 48.046875 37.890625 52.734375 
z
" id="SimSun-38"/>
      </defs>
      <g transform="translate(457.32165 524.7095)scale(0.16 -0.16)">
       <use xlink:href="#SimSun-31"/>
       <use x="50" xlink:href="#SimSun-39"/>
       <use x="100" xlink:href="#SimSun-38"/>
       <use x="150" xlink:href="#SimSun-39"/>
      </g>
     </g>
    </g>
    <g id="xtick_6">
     <g id="line2d_6">
      <g>
       <use style="stroke:#000000;stroke-width:1.6;" x="565.74999" xlink:href="#m347e6a24e4" y="498.572"/>
      </g>
     </g>
     <g id="text_6">
      <!-- 1999 -->
      <g transform="translate(549.74999 524.7095)scale(0.16 -0.16)">
       <use xlink:href="#SimSun-31"/>
       <use x="50" xlink:href="#SimSun-39"/>
       <use x="100" xlink:href="#SimSun-39"/>
       <use x="150" xlink:href="#SimSun-39"/>
      </g>
     </g>
    </g>
    <g id="xtick_7">
     <g id="line2d_7">
      <g>
       <use style="stroke:#000000;stroke-width:1.6;" x="658.178331" xlink:href="#m347e6a24e4" y="498.572"/>
      </g>
     </g>
     <g id="text_7">
      <!-- 2009 -->
      <defs>
       <path d="M 36.328125 51.953125 
Q 36.328125 58.984375 33.203125 62.6875 
Q 30.078125 66.40625 23.828125 66.40625 
Q 19.140625 66.40625 15.8125 63.859375 
Q 12.5 61.328125 12.5 57.421875 
Q 12.5 55.078125 14.0625 53.515625 
Q 15.234375 51.953125 15.234375 50.390625 
Q 15.234375 48.4375 14.25 47.453125 
Q 13.28125 46.484375 11.328125 46.484375 
Q 8.984375 46.484375 7.609375 47.84375 
Q 6.25 49.21875 6.25 52.34375 
Q 6.25 60.546875 12.109375 64.84375 
Q 17.96875 69.140625 24.609375 69.140625 
Q 33.984375 69.140625 38.46875 64.453125 
Q 42.96875 59.765625 42.96875 52.734375 
Q 42.96875 48.046875 40.8125 43.359375 
Q 38.671875 38.671875 33.984375 34.375 
Q 22.65625 23.4375 16.59375 16.59375 
Q 10.546875 9.765625 9.375 7.421875 
L 32.421875 7.421875 
Q 35.9375 7.421875 38.28125 10.15625 
Q 40.625 12.890625 41.40625 18.359375 
L 43.75 18.359375 
L 41.40625 1.5625 
L 5.078125 1.5625 
L 5.078125 6.640625 
Q 7.03125 10.15625 11.515625 15.625 
Q 16.015625 21.09375 23.4375 28.515625 
Q 30.078125 35.15625 33.203125 41.015625 
Q 36.328125 46.875 36.328125 51.953125 
z
" id="SimSun-32"/>
       <path d="M 25 66.015625 
Q 19.53125 66.015625 15.8125 57.609375 
Q 12.109375 49.21875 12.109375 35.15625 
Q 12.109375 20.3125 15.8125 12.109375 
Q 19.53125 3.90625 25 3.90625 
Q 30.859375 3.90625 34.171875 12.109375 
Q 37.5 20.3125 37.5 35.15625 
Q 37.5 49.21875 34.375 57.609375 
Q 31.25 66.015625 25 66.015625 
z
M 25 0.78125 
Q 16.40625 0.78125 10.546875 9.765625 
Q 4.6875 18.75 4.6875 35.15625 
Q 4.6875 50.390625 10.34375 59.765625 
Q 16.015625 69.140625 25 69.140625 
Q 33.59375 69.140625 39.25 60.15625 
Q 44.921875 51.171875 44.921875 35.15625 
Q 44.921875 19.140625 39.25 9.953125 
Q 33.59375 0.78125 25 0.78125 
z
" id="SimSun-30"/>
      </defs>
      <g transform="translate(642.178331 524.7095)scale(0.16 -0.16)">
       <use xlink:href="#SimSun-32"/>
       <use x="50" xlink:href="#SimSun-30"/>
       <use x="100" xlink:href="#SimSun-30"/>
       <use x="150" xlink:href="#SimSun-39"/>
      </g>
     </g>
    </g>
    <g id="xtick_8">
     <g id="line2d_8">
      <g>
       <use style="stroke:#000000;stroke-width:1.6;" x="750.606671" xlink:href="#m347e6a24e4" y="498.572"/>
      </g>
     </g>
     <g id="text_8">
      <!-- 2019 -->
      <g transform="translate(734.606671 524.7095)scale(0.16 -0.16)">
       <use xlink:href="#SimSun-32"/>
       <use x="50" xlink:href="#SimSun-30"/>
       <use x="100" xlink:href="#SimSun-31"/>
       <use x="150" xlink:href="#SimSun-39"/>
      </g>
     </g>
    </g>
    <g id="xtick_9">
     <g id="line2d_9">
      <defs>
       <path d="M 0 0 
L 0 2 
" id="m337c4d50f6" style="stroke:#000000;stroke-width:0.8;"/>
      </defs>
      <g>
       <use style="stroke:#000000;stroke-width:0.8;" x="103.608289" xlink:href="#m337c4d50f6" y="498.572"/>
      </g>
     </g>
    </g>
    <g id="xtick_10">
     <g id="line2d_10">
      <g>
       <use style="stroke:#000000;stroke-width:0.8;" x="149.822459" xlink:href="#m337c4d50f6" y="498.572"/>
      </g>
     </g>
    </g>
    <g id="xtick_11">
     <g id="line2d_11">
      <g>
       <use style="stroke:#000000;stroke-width:0.8;" x="196.036629" xlink:href="#m337c4d50f6" y="498.572"/>
      </g>
     </g>
    </g>
    <g id="xtick_12">
     <g id="line2d_12">
      <g>
       <use style="stroke:#000000;stroke-width:0.8;" x="242.250799" xlink:href="#m337c4d50f6" y="498.572"/>
      </g>
     </g>
    </g>
    <g id="xtick_13">
     <g id="line2d_13">
      <g>
       <use style="stroke:#000000;stroke-width:0.8;" x="288.464969" xlink:href="#m337c4d50f6" y="498.572"/>
      </g>
     </g>
    </g>
    <g id="xtick_14">
     <g id="line2d_14">
      <g>
       <use style="stroke:#000000;stroke-width:0.8;" x="334.679139" xlink:href="#m337c4d50f6" y="498.572"/>
      </g>
     </g>
    </g>
    <g id="xtick_15">
     <g id="line2d_15">
      <g>
       <use style="stroke:#000000;stroke-width:0.8;" x="380.89331" xlink:href="#m337c4d50f6" y="498.572"/>
      </g>
     </g>
    </g>
    <g id="xtick_16">
     <g id="line2d_16">
      <g>
       <use style="stroke:#000000;stroke-width:0.8;" x="427.10748" xlink:href="#m337c4d50f6" y="498.572"/>
      </g>
     </g>
    </g>
    <g id="xtick_17">
     <g id="line2d_17">
      <g>
       <use style="stroke:#000000;stroke-width:0.8;" x="473.32165" xlink:href="#m337c4d50f6" y="498.572"/>
      </g>
     </g>
    </g>
    <g id="xtick_18">
     <g id="line2d_18">
      <g>
       <use style="stroke:#000000;stroke-width:0.8;" x="519.53582" xlink:href="#m337c4d50f6" y="498.572"/>
      </g>
     </g>
    </g>
    <g id="xtick_19">
     <g id="line2d_19">
      <g>
       <use style="stroke:#000000;stroke-width:0.8;" x="565.74999" xlink:href="#m337c4d50f6" y="498.572"/>
      </g>
     </g>
    </g>
    <g id="xtick_20">
     <g id="line2d_20">
      <g>
       <use style="stroke:#000000;stroke-width:0.8;" x="611.96416" xlink:href="#m337c4d50f6" y="498.572"/>
      </g>
     </g>
    </g>
    <g id="xtick_21">
     <g id="line2d_21">
      <g>
       <use style="stroke:#000000;stroke-width:0.8;" x="658.178331" xlink:href="#m337c4d50f6" y="498.572"/>
      </g>
     </g>
    </g>
    <g id="xtick_22">
     <g id="line2d_22">
      <g>
       <use style="stroke:#000000;stroke-width:0.8;" x="704.392501" xlink:href="#m337c4d50f6" y="498.572"/>
      </g>
     </g>
    </g>
    <g id="xtick_23">
     <g id="line2d_23">
      <g>
       <use style="stroke:#000000;stroke-width:0.8;" x="750.606671" xlink:href="#m337c4d50f6" y="498.572"/>
      </g>
     </g>
    </g>
   </g>
   <g id="matplotlib.axis_2">
    <g id="ytick_1">
     <g id="line2d_24">
      <defs>
       <path d="M 0 0 
L -3.5 0 
" id="m3d590c5e24" style="stroke:#000000;stroke-width:1.6;"/>
      </defs>
      <g>
       <use style="stroke:#000000;stroke-width:1.6;" x="61.9" xlink:href="#m3d590c5e24" y="439.85667"/>
      </g>
     </g>
     <g id="text_9">
      <!-- -2.5% -->
      <defs>
       <path d="M 3.125 34.765625 
L 3.125 38.28125 
L 46.484375 38.28125 
L 46.484375 34.765625 
z
" id="SimSun-2d"/>
       <path d="M 12.5 0.390625 
Q 10.15625 0.390625 8.390625 1.953125 
Q 6.640625 3.515625 6.640625 6.25 
Q 6.640625 8.984375 8.390625 10.546875 
Q 10.15625 12.109375 12.5 12.109375 
Q 14.84375 12.109375 16.59375 10.34375 
Q 18.359375 8.59375 18.359375 6.25 
Q 18.359375 3.515625 16.59375 1.953125 
Q 14.84375 0.390625 12.5 0.390625 
z
" id="SimSun-2e"/>
       <path d="M 11.71875 66.40625 
Q 9.375 66.40625 7.8125 63.28125 
Q 6.25 60.15625 6.25 51.5625 
Q 6.25 41.796875 8 38.859375 
Q 9.765625 35.9375 11.71875 35.9375 
Q 14.453125 35.9375 15.8125 39.453125 
Q 17.1875 42.96875 17.1875 51.5625 
Q 17.1875 58.59375 16.203125 62.5 
Q 15.234375 66.40625 11.71875 66.40625 
z
M 22.265625 51.171875 
Q 22.265625 44.140625 19.921875 38.859375 
Q 17.578125 33.59375 11.71875 33.59375 
Q 7.03125 33.59375 4.09375 38.28125 
Q 1.171875 42.96875 1.171875 51.171875 
Q 1.171875 59.765625 4.296875 64.453125 
Q 7.421875 69.140625 11.71875 69.140625 
Q 16.40625 69.140625 19.328125 64.25 
Q 22.265625 59.375 22.265625 51.171875 
z
M 42.578125 18.75 
Q 42.578125 25.390625 41.40625 29.6875 
Q 40.234375 33.984375 37.109375 33.984375 
Q 34.765625 33.984375 33.203125 30.265625 
Q 31.640625 26.5625 31.640625 18.75 
Q 31.640625 8.984375 33.390625 6.25 
Q 35.15625 3.515625 37.109375 3.515625 
Q 39.84375 3.515625 41.203125 6.828125 
Q 42.578125 10.15625 42.578125 18.75 
z
M 47.65625 18.359375 
Q 47.65625 10.546875 44.921875 5.65625 
Q 42.1875 0.78125 37.109375 0.78125 
Q 32.8125 0.78125 29.6875 5.65625 
Q 26.5625 10.546875 26.5625 18.359375 
Q 26.5625 26.953125 29.6875 31.828125 
Q 32.8125 36.71875 37.109375 36.71875 
Q 41.796875 36.71875 44.71875 31.640625 
Q 47.65625 26.5625 47.65625 18.359375 
z
M 39.453125 67.96875 
L 11.328125 0.78125 
L 8.984375 1.953125 
L 36.71875 69.140625 
z
" id="SimSun-25"/>
      </defs>
      <g transform="translate(7.2 445.57542)scale(0.16 -0.16)">
       <use xlink:href="#SimSun-2d"/>
       <use x="50" xlink:href="#SimSun-32"/>
       <use x="100" xlink:href="#SimSun-2e"/>
       <use x="150" xlink:href="#SimSun-35"/>
       <use x="200" xlink:href="#SimSun-25"/>
      </g>
     </g>
    </g>
    <g id="ytick_2">
     <g id="line2d_25">
      <g>
       <use style="stroke:#000000;stroke-width:1.6;" x="61.9" xlink:href="#m3d590c5e24" y="375.730083"/>
      </g>
     </g>
     <g id="text_10">
      <!-- 0.0% -->
      <g transform="translate(15.2 381.448833)scale(0.16 -0.16)">
       <use xlink:href="#SimSun-30"/>
       <use x="50" xlink:href="#SimSun-2e"/>
       <use x="100" xlink:href="#SimSun-30"/>
       <use x="150" xlink:href="#SimSun-25"/>
      </g>
     </g>
    </g>
    <g id="ytick_3">
     <g id="line2d_26">
      <g>
       <use style="stroke:#000000;stroke-width:1.6;" x="61.9" xlink:href="#m3d590c5e24" y="311.603495"/>
      </g>
     </g>
     <g id="text_11">
      <!-- 2.5% -->
      <g transform="translate(15.2 317.322245)scale(0.16 -0.16)">
       <use xlink:href="#SimSun-32"/>
       <use x="50" xlink:href="#SimSun-2e"/>
       <use x="100" xlink:href="#SimSun-35"/>
       <use x="150" xlink:href="#SimSun-25"/>
      </g>
     </g>
    </g>
    <g id="ytick_4">
     <g id="line2d_27">
      <g>
       <use style="stroke:#000000;stroke-width:1.6;" x="61.9" xlink:href="#m3d590c5e24" y="247.476908"/>
      </g>
     </g>
     <g id="text_12">
      <!-- 5.0% -->
      <g transform="translate(15.2 253.195658)scale(0.16 -0.16)">
       <use xlink:href="#SimSun-35"/>
       <use x="50" xlink:href="#SimSun-2e"/>
       <use x="100" xlink:href="#SimSun-30"/>
       <use x="150" xlink:href="#SimSun-25"/>
      </g>
     </g>
    </g>
    <g id="ytick_5">
     <g id="line2d_28">
      <g>
       <use style="stroke:#000000;stroke-width:1.6;" x="61.9" xlink:href="#m3d590c5e24" y="183.35032"/>
      </g>
     </g>
     <g id="text_13">
      <!-- 7.5% -->
      <g transform="translate(15.2 189.06907)scale(0.16 -0.16)">
       <use xlink:href="#SimSun-37"/>
       <use x="50" xlink:href="#SimSun-2e"/>
       <use x="100" xlink:href="#SimSun-35"/>
       <use x="150" xlink:href="#SimSun-25"/>
      </g>
     </g>
    </g>
    <g id="ytick_6">
     <g id="line2d_29">
      <g>
       <use style="stroke:#000000;stroke-width:1.6;" x="61.9" xlink:href="#m3d590c5e24" y="119.223733"/>
      </g>
     </g>
     <g id="text_14">
      <!-- 10.0% -->
      <g transform="translate(7.2 124.942483)scale(0.16 -0.16)">
       <use xlink:href="#SimSun-31"/>
       <use x="50" xlink:href="#SimSun-30"/>
       <use x="100" xlink:href="#SimSun-2e"/>
       <use x="150" xlink:href="#SimSun-30"/>
       <use x="200" xlink:href="#SimSun-25"/>
      </g>
     </g>
    </g>
    <g id="ytick_7">
     <g id="line2d_30">
      <g>
       <use style="stroke:#000000;stroke-width:1.6;" x="61.9" xlink:href="#m3d590c5e24" y="55.097145"/>
      </g>
     </g>
     <g id="text_15">
      <!-- 12.5% -->
      <g transform="translate(7.2 60.815895)scale(0.16 -0.16)">
       <use xlink:href="#SimSun-31"/>
       <use x="50" xlink:href="#SimSun-32"/>
       <use x="100" xlink:href="#SimSun-2e"/>
       <use x="150" xlink:href="#SimSun-35"/>
       <use x="200" xlink:href="#SimSun-25"/>
      </g>
     </g>
    </g>
   </g>
   <g id="line2d_31">
    <path clip-path="url(#p8172d38526)" d="M 94.365455 308.989696 
L 96.676163 258.204003 
L 98.986872 237.432119 
L 101.29758 276.002979 
L 103.608289 351.628746 
L 105.918997 402.463175 
L 108.229706 390.884478 
L 110.540414 415.016595 
L 112.851123 279.127226 
L 115.161831 188.58305 
L 119.783248 32.876 
L 122.093957 104.772165 
L 124.404665 141.039598 
L 126.715374 189.588555 
L 129.026082 235.385198 
L 131.336791 243.108605 
L 133.647499 283.357016 
L 135.958208 318.254705 
L 138.268916 238.073385 
L 140.579625 216.914176 
L 142.890333 201.736695 
L 145.201042 236.693381 
L 147.51175 362.26863 
L 149.822459 421.4626 
L 152.133167 438.094472 
L 154.443876 395.465681 
L 159.065293 217.555442 
L 161.376001 176.142492 
L 163.68671 170.150503 
L 165.997418 207.013031 
L 168.308127 293.21199 
L 170.618835 314.094172 
L 172.929544 351.474842 
L 177.550961 297.552077 
L 179.861669 324.91361 
L 182.172378 296.892856 
L 184.483086 366.670279 
L 186.793795 449.367926 
L 189.104503 427.534105 
L 191.415212 394.278057 
L 193.72592 307.471178 
L 196.036629 185.443412 
L 198.347337 141.616737 
L 200.658046 202.960231 
L 202.968754 257.906456 
L 205.279463 249.280147 
L 207.590171 322.941076 
L 209.90088 312.060077 
L 214.522297 392.957049 
L 216.833005 335.579144 
L 219.143714 298.48063 
L 221.454423 211.684012 
L 223.765131 181.565036 
L 226.07584 203.180826 
L 228.386548 221.715975 
L 230.697257 265.255363 
L 233.007965 283.464749 
L 235.318674 277.680531 
L 237.629382 252.181234 
L 239.940091 243.429238 
L 242.250799 216.280605 
L 244.561508 217.211724 
L 246.872216 234.174488 
L 249.182925 243.457453 
L 251.493633 235.269771 
L 253.804342 230.58853 
L 256.11505 212.904982 
L 258.425759 158.628238 
L 260.736467 158.263999 
L 263.047176 183.611957 
L 265.357884 220.730991 
L 269.979301 300.69941 
L 272.29001 308.030362 
L 274.600718 305.493514 
L 276.911427 307.206976 
L 279.222135 277.100826 
L 281.532844 234.261701 
L 283.843552 238.835209 
L 286.154261 248.531149 
L 288.464969 261.038399 
L 290.775678 297.044195 
L 293.086386 300.040189 
L 295.397095 323.261709 
L 297.707803 367.388496 
L 300.018512 371.572115 
L 302.32922 364.887559 
L 304.639929 379.985523 
L 306.950637 306.570841 
L 309.261346 296.03356 
L 311.572054 298.66275 
L 313.882763 263.736845 
L 316.193471 286.53 
L 318.50418 240.964212 
L 320.814888 237.67067 
L 323.125597 198.856129 
L 325.436305 181.759981 
L 327.747014 213.602679 
L 330.057722 253.343208 
L 332.368431 272.501667 
L 334.679139 359.364978 
L 336.989848 381.080805 
L 339.300556 391.869462 
L 341.611265 425.661609 
L 343.921973 434.677807 
L 346.232682 422.775913 
L 348.54339 355.258311 
L 350.854099 310.19271 
L 353.164808 217.940202 
L 355.475516 217.404103 
L 357.786225 248.500368 
L 360.096933 265.068113 
L 362.407642 292.978569 
L 364.71835 261.153826 
L 367.029059 227.725919 
L 369.339767 247.146015 
L 371.650476 270.123853 
L 373.961184 219.822958 
L 376.271893 241.164286 
L 378.582601 204.948155 
L 380.89331 208.731624 
L 383.204018 307.56865 
L 385.514727 314.42763 
L 387.825435 342.799798 
L 390.136144 339.319006 
L 392.446852 395.60676 
L 394.757561 417.379019 
L 399.378978 334.689067 
L 404.000395 264.788521 
L 406.311103 342.373997 
L 408.621812 431.889583 
L 410.93252 401.657745 
L 413.243229 441.27002 
L 415.553937 412.743949 
L 417.864646 339.036849 
L 420.175354 291.893547 
L 422.486063 228.574955 
L 424.796771 173.090066 
L 427.10748 155.663025 
L 429.418188 170.60452 
L 431.728897 198.707355 
L 434.039605 232.691882 
L 436.350314 258.914526 
L 438.661022 281.251099 
L 440.971731 266.401946 
L 443.282439 268.482213 
L 445.593148 269.379985 
L 447.903856 280.771432 
L 450.214565 295.741143 
L 452.525273 301.127776 
L 454.835982 306.068088 
L 457.14669 289.582425 
L 459.457399 291.921763 
L 461.768107 260.815238 
L 464.078816 266.904699 
L 466.389524 260.69981 
L 468.700233 268.1821 
L 471.010941 278.301276 
L 473.32165 265.042463 
L 475.632358 279.565852 
L 477.943067 275.479706 
L 480.253775 305.355001 
L 482.564484 303.356816 
L 484.875192 313.835101 
L 487.185901 331.418611 
L 489.49661 360.26788 
L 491.807318 400.098186 
L 494.118027 389.576296 
L 496.428735 378.377228 
L 498.739444 345.790662 
L 501.050152 302.425698 
L 503.360861 294.425265 
L 505.671569 281.69229 
L 507.982278 263.316175 
L 510.292986 290.526369 
L 514.914403 317.064516 
L 517.225112 308.828097 
L 521.846529 267.335629 
L 524.157237 264.475584 
L 526.467946 270.139244 
L 528.778654 286.460743 
L 531.089363 314.106997 
L 533.400071 307.155675 
L 535.71078 319.308946 
L 538.021488 308.997391 
L 540.332197 273.078807 
L 542.642905 271.852706 
L 544.953614 262.328625 
L 547.264322 265.070678 
L 549.575031 265.229712 
L 551.885739 255.85697 
L 554.196448 260.610033 
L 556.507156 251.188555 
L 558.817865 270.665082 
L 561.128573 270.616346 
L 563.439282 250.580635 
L 565.74999 251.99142 
L 568.060699 256.154518 
L 570.371407 254.643695 
L 572.682116 252.435176 
L 574.992824 268.005111 
L 577.303533 239.848409 
L 579.614241 271.20118 
L 581.92495 299.460485 
L 584.235658 316.487376 
L 586.546367 348.599406 
L 588.857075 362.804728 
L 591.167784 371.785015 
L 593.478492 341.917416 
L 595.789201 341.363362 
L 598.099909 318.926752 
L 600.410618 322.017653 
L 602.721326 330.295113 
L 605.032035 323.71829 
L 607.342743 291.036816 
L 609.653452 264.757741 
L 611.96416 265.332315 
L 614.274869 267.915334 
L 616.585577 287.709929 
L 618.896286 291.537004 
L 621.206995 276.436475 
L 623.517703 284.383041 
L 625.828412 285.806652 
L 628.13912 295.546198 
L 630.449829 289.705548 
L 632.760537 295.718057 
L 635.071246 315.03042 
L 637.381954 309.282113 
L 639.692663 337.708147 
L 642.003371 328.897153 
L 644.31408 318.775413 
L 646.624788 325.098294 
L 648.935497 346.244678 
L 651.246205 347.711894 
L 653.556914 375.681347 
L 655.867622 446.359106 
L 658.178331 460.105282 
L 660.489039 476.396 
L 662.799748 453.956824 
L 665.110456 371.028321 
L 667.421165 331.862367 
L 669.731873 304.003212 
L 672.042582 294.196974 
L 676.663999 326.193577 
L 678.974707 331.57508 
L 681.285416 351.39276 
L 683.596124 334.445386 
L 685.906833 307.722554 
L 688.217541 315.158673 
L 690.52825 310.877582 
L 692.838958 338.06469 
L 695.149667 335.399589 
L 697.460375 343.364112 
L 699.771084 326.55012 
L 702.081792 308.676758 
L 704.392501 338.357108 
L 706.703209 308.974305 
L 709.013918 297.854755 
L 711.324626 306.414372 
L 713.635335 278.04477 
L 715.946043 289.328484 
L 718.256752 314.712352 
L 720.56746 324.426248 
L 722.878169 335.784349 
L 725.188877 342.48173 
L 727.499586 336.325577 
L 729.810294 327.53254 
L 732.121003 326.019152 
L 734.431711 321.481555 
L 736.74242 315.740943 
L 739.053128 312.324278 
L 741.363837 309.530924 
L 743.674545 302.120456 
L 743.674545 302.120456 
" style="fill:none;stroke:#000000;stroke-linecap:square;stroke-width:2.8;"/>
   </g>
   <g id="line2d_32">
    <path clip-path="url(#p8172d38526)" d="M 94.365455 224.145231 
L 96.676163 228.480616 
L 98.986872 233.942705 
L 101.29758 256.214591 
L 103.608289 292.993212 
L 105.918997 325.959886 
L 108.229706 340.033639 
L 110.540414 334.142238 
L 112.851123 311.091126 
L 115.161831 271.204493 
L 117.47254 224.960674 
L 119.783248 194.933233 
L 122.093957 194.810897 
L 124.404665 217.527258 
L 126.715374 246.472623 
L 129.026082 268.591459 
L 131.336791 278.789114 
L 133.647499 276.966894 
L 135.958208 266.951071 
L 138.268916 255.236039 
L 140.579625 245.276032 
L 142.890333 237.38389 
L 145.201042 237.236823 
L 147.51175 254.116075 
L 149.822459 285.179017 
L 152.133167 311.951488 
L 154.443876 313.439808 
L 156.754584 290.011861 
L 159.065293 265.083524 
L 161.376001 258.23566 
L 163.68671 269.187174 
L 165.997418 281.02504 
L 168.308127 282.880166 
L 170.618835 281.625652 
L 172.929544 289.94345 
L 175.240252 308.582165 
L 177.550961 325.338025 
L 179.861669 333.191205 
L 182.172378 337.338902 
L 184.483086 345.35211 
L 186.793795 351.844247 
L 189.104503 343.036138 
L 191.415212 313.291304 
L 193.72592 275.764886 
L 196.036629 250.958067 
L 198.347337 246.856161 
L 202.968754 267.376531 
L 205.279463 270.19646 
L 207.590171 269.792667 
L 209.90088 275.216921 
L 212.211588 288.715765 
L 214.522297 301.110759 
L 216.833005 301.273866 
L 219.143714 285.642437 
L 221.454423 262.966747 
L 223.765131 246.761357 
L 226.07584 243.343819 
L 228.386548 250.124994 
L 230.697257 258.582132 
L 233.007965 262.406559 
L 235.318674 260.830946 
L 237.629382 254.824191 
L 239.940091 245.663292 
L 242.250799 237.480652 
L 244.561508 237.053682 
L 246.872216 247.183508 
L 249.182925 260.5172 
L 251.493633 266.1747 
L 253.804342 262.288237 
L 256.11505 256.428356 
L 258.425759 257.140258 
L 260.736467 265.836947 
L 263.047176 278.90077 
L 265.357884 290.764942 
L 267.668593 296.341387 
L 269.979301 294.938792 
L 274.600718 285.722678 
L 276.911427 279.151068 
L 279.222135 270.011753 
L 281.532844 263.821016 
L 283.843552 265.637538 
L 286.154261 270.681489 
L 288.464969 270.745989 
L 290.775678 268.287678 
L 293.086386 274.160575 
L 295.397095 292.152675 
L 297.707803 313.599703 
L 300.018512 330.252711 
L 302.32922 337.156858 
L 304.639929 329.298769 
L 306.950637 306.298671 
L 309.261346 279.456927 
L 311.572054 265.720526 
L 313.882763 265.521967 
L 316.193471 261.382408 
L 318.50418 245.62183 
L 320.814888 231.956423 
L 323.125597 233.538259 
L 325.436305 242.139121 
L 327.747014 246.137289 
L 330.057722 252.272408 
L 332.368431 275.872739 
L 334.679139 313.04265 
L 336.989848 345.047298 
L 339.300556 357.726926 
L 341.611265 350.647602 
L 343.921973 326.444729 
L 346.232682 285.670143 
L 348.54339 239.770048 
L 350.854099 211.49745 
L 353.164808 213.447848 
L 355.475516 237.23953 
L 357.786225 266.003468 
L 360.096933 287.321641 
L 362.407642 296.525166 
L 364.71835 293.999134 
L 367.029059 283.679177 
L 369.339767 272.022365 
L 371.650476 262.170445 
L 373.961184 254.532919 
L 376.271893 255.246733 
L 378.582601 273.371271 
L 380.89331 304.860982 
L 383.204018 330.472601 
L 385.514727 330.001891 
L 390.136144 281.259585 
L 392.446852 276.099678 
L 397.068269 299.029268 
L 399.378978 300.237784 
L 401.689686 299.271117 
L 404.000395 308.428695 
L 406.311103 327.382554 
L 408.621812 343.636912 
L 410.93252 350.957275 
L 413.243229 355.207435 
L 415.553937 363.458745 
L 417.864646 369.372725 
L 420.175354 359.175506 
L 422.486063 328.3464 
L 424.796771 291.049924 
L 427.10748 267.381763 
L 429.418188 264.785409 
L 431.728897 275.473004 
L 434.039605 285.357009 
L 436.350314 287.657612 
L 438.661022 287.371135 
L 440.971731 293.38144 
L 443.282439 307.191305 
L 445.593148 319.087102 
L 447.903856 318.183655 
L 450.214565 301.716021 
L 452.525273 279.059552 
L 454.835982 263.598328 
L 457.14669 261.035386 
L 459.457399 268.201964 
L 461.768107 276.489831 
L 464.078816 279.947373 
L 466.389524 277.996346 
L 468.700233 271.69211 
L 471.010941 262.400946 
L 473.32165 254.619361 
L 475.632358 254.894278 
L 477.943067 265.560791 
L 480.253775 278.685563 
L 482.564484 283.646165 
L 484.875192 279.326641 
L 487.185901 273.689671 
L 489.49661 274.969857 
L 491.807318 284.096955 
L 494.118027 297.252279 
L 496.428735 308.830506 
L 498.739444 313.90699 
L 501.050152 312.111941 
L 505.671569 302.799009 
L 507.982278 295.978069 
L 510.292986 286.895885 
L 512.603695 281.153681 
L 514.914403 283.443156 
L 517.225112 288.352071 
L 519.53582 288.02662 
L 521.846529 285.769686 
L 524.157237 292.495355 
L 526.467946 311.096173 
L 528.778654 332.456459 
L 531.089363 348.608844 
L 533.400071 354.731298 
L 535.71078 345.789457 
L 538.021488 321.753646 
L 540.332197 295.435839 
L 542.642905 283.067721 
L 544.953614 283.272671 
L 547.264322 278.455257 
L 549.575031 262.367517 
L 551.885739 249.611035 
L 554.196448 252.23054 
L 556.507156 260.865577 
L 558.817865 264.675787 
L 561.128573 271.678585 
L 563.439282 296.710171 
L 565.74999 334.28992 
L 568.060699 365.385497 
L 570.371407 376.794811 
L 572.682116 368.7678 
L 574.992824 343.261219 
L 577.303533 301.743688 
L 579.614241 256.607318 
L 581.92495 230.687499 
L 584.235658 234.864464 
L 586.546367 259.71873 
L 588.857075 288.501514 
L 591.167784 309.344971 
L 593.478492 317.958912 
L 595.789201 314.997549 
L 598.099909 304.655956 
L 600.410618 293.321478 
L 602.721326 283.823916 
L 605.032035 276.716737 
L 607.342743 278.588413 
L 609.653452 298.199034 
L 611.96416 330.626629 
L 614.274869 355.013181 
L 616.585577 352.524163 
L 618.896286 327.429114 
L 621.206995 304.513626 
L 623.517703 301.051953 
L 625.828412 313.547041 
L 628.13912 324.500253 
L 630.449829 325.441384 
L 632.760537 325.089593 
L 635.071246 335.354341 
L 637.381954 354.833053 
L 639.692663 370.816631 
L 642.003371 377.902214 
L 644.31408 382.561436 
L 646.624788 391.29096 
L 648.935497 396.810961 
L 651.246205 385.233931 
L 653.556914 353.492662 
L 655.867622 316.850363 
L 658.178331 295.131136 
L 660.489039 294.050025 
L 662.799748 305.369124 
L 665.110456 315.099308 
L 667.421165 317.241635 
L 669.731873 317.382165 
L 672.042582 324.255764 
L 674.35329 338.601656 
L 676.663999 350.208307 
L 678.974707 348.493566 
L 681.285416 331.502757 
L 683.596124 309.195193 
L 685.906833 294.681783 
L 688.217541 293.360387 
L 690.52825 301.195124 
L 692.838958 309.522021 
L 695.149667 312.799131 
L 697.460375 310.798994 
L 699.771084 304.513786 
L 702.081792 295.40022 
L 704.392501 288.209959 
L 706.703209 289.464758 
L 709.013918 300.90024 
L 711.324626 314.035033 
L 713.635335 318.556174 
L 715.946043 314.109694 
L 718.256752 309.002791 
L 720.56746 311.12468 
L 722.878169 321.065605 
L 725.188877 334.562334 
L 727.499586 346.048951 
L 729.810294 350.809113 
L 732.121003 348.939311 
L 736.74242 340.08149 
L 739.053128 333.311557 
L 741.363837 324.48835 
L 743.674545 319.485162 
L 743.674545 319.485162 
" style="fill:none;stroke:#000000;stroke-dasharray:17.92,4.48,2.8,4.48;stroke-dashoffset:0;stroke-width:2.8;"/>
   </g>
   <g id="line2d_33">
    <path clip-path="url(#p8172d38526)" d="M 692.838958 498.572 
L 692.838958 10.7 
" style="fill:none;stroke:#808080;stroke-dasharray:11.1,4.8;stroke-dashoffset:0;stroke-width:3;"/>
   </g>
   <g id="patch_3">
    <path d="M 61.9 498.572 
L 61.9 10.7 
" style="fill:none;stroke:#000000;stroke-linecap:square;stroke-linejoin:miter;stroke-width:0.8;"/>
   </g>
   <g id="patch_4">
    <path d="M 61.9 498.572 
L 776.14 498.572 
" style="fill:none;stroke:#000000;stroke-linecap:square;stroke-linejoin:miter;stroke-width:0.8;"/>
   </g>
   <g id="text_16">
    <!-- 训练期 -->
    <defs>
     <path d="M 61.328125 71.484375 
L 69.921875 67.96875 
L 66.796875 65.625 
L 66.796875 16.40625 
Q 66.796875 12.890625 67.1875 4.296875 
L 61.328125 1.171875 
Q 61.71875 16.40625 61.71875 36.90625 
Q 61.71875 57.421875 61.328125 71.484375 
z
M 80.46875 78.515625 
L 89.0625 75 
L 85.9375 72.265625 
L 85.9375 11.328125 
Q 85.9375 3.515625 86.328125 -5.46875 
L 80.46875 -8.59375 
Q 80.859375 -1.171875 80.859375 7.8125 
L 80.859375 64.453125 
Q 80.859375 68.75 80.46875 78.515625 
z
M 14.84375 76.171875 
L 15.625 76.953125 
Q 23.4375 73.046875 25.96875 70.703125 
Q 28.515625 68.359375 28.125 65.625 
Q 27.734375 62.890625 26.5625 61.71875 
Q 25.390625 60.546875 24.609375 60.546875 
Q 23.4375 60.546875 22.265625 64.0625 
Q 20.703125 68.75 14.84375 76.171875 
z
M 25.390625 10.9375 
L 37.5 23.828125 
L 38.28125 23.046875 
Q 27.34375 8.203125 23.828125 0 
L 18.75 6.25 
Q 20.703125 8.203125 20.3125 11.328125 
L 20.3125 44.53125 
L 16.015625 44.53125 
Q 12.890625 44.53125 8.59375 43.359375 
L 5.078125 46.875 
L 19.921875 46.875 
L 22.65625 50.78125 
L 28.515625 45.703125 
L 25.390625 43.359375 
z
M 43.359375 78.125 
L 52.34375 74.21875 
L 49.21875 71.09375 
Q 49.21875 48.828125 49.015625 35.9375 
Q 48.828125 23.046875 43.9375 11.71875 
Q 39.0625 0.390625 24.609375 -9.765625 
L 23.4375 -8.984375 
Q 35.9375 2.734375 39.84375 14.0625 
Q 43.75 25.390625 43.75 41.40625 
Q 43.75 57.421875 43.359375 78.125 
z
" id="SimSun-8bad"/>
     <path d="M 10.9375 49.609375 
L 27.734375 50.78125 
Q 30.46875 55.078125 33.203125 61.328125 
L 40.625 55.46875 
L 37.109375 54.296875 
Q 24.609375 39.0625 12.109375 25.78125 
Q 22.265625 26.953125 36.71875 29.6875 
L 37.109375 28.125 
Q 13.671875 21.875 10.15625 17.578125 
L 5.078125 25.78125 
Q 8.59375 26.953125 12.5 31.046875 
Q 16.40625 35.15625 26.171875 48.4375 
Q 21.484375 48.046875 16.984375 46.671875 
Q 12.5 45.3125 9.765625 42.578125 
L 5.078125 50.390625 
Q 8.59375 51.171875 13.859375 60.9375 
Q 19.140625 70.703125 22.265625 81.640625 
L 30.859375 76.5625 
L 26.5625 74.21875 
Q 19.140625 62.109375 10.9375 49.609375 
z
M 4.6875 5.859375 
Q 19.53125 9.765625 37.890625 15.625 
L 38.28125 14.0625 
Q 24.21875 7.8125 11.71875 1.171875 
L 9.375 -1.5625 
z
M 42.1875 35.15625 
Q 45.3125 39.84375 48.4375 48.046875 
Q 46.484375 48.046875 42.1875 46.875 
L 38.671875 50.390625 
L 49.21875 50.390625 
L 54.6875 64.453125 
L 48.828125 64.453125 
Q 43.75 64.453125 39.453125 63.28125 
L 35.9375 66.796875 
L 55.46875 66.796875 
Q 58.984375 78.125 59.375 82.03125 
L 67.578125 77.34375 
L 64.0625 75.390625 
Q 62.890625 72.65625 60.546875 66.796875 
L 80.078125 66.796875 
L 85.15625 71.875 
L 92.1875 64.453125 
L 59.765625 64.453125 
L 54.296875 50.390625 
L 66.40625 50.390625 
L 69.140625 53.90625 
L 75.390625 49.21875 
L 72.265625 46.875 
L 72.265625 32.8125 
L 82.8125 32.8125 
L 87.5 37.5 
L 94.53125 30.46875 
L 72.265625 30.46875 
L 72.265625 2.34375 
Q 72.65625 -7.03125 62.890625 -9.375 
Q 62.890625 -3.515625 51.5625 -0.78125 
L 51.5625 0.78125 
Q 60.9375 0 64.0625 0 
Q 67.1875 0 67.1875 4.296875 
L 67.1875 30.46875 
L 46.484375 30.46875 
L 43.75 27.734375 
L 38.671875 33.203125 
z
M 53.90625 16.015625 
Q 41.40625 0 29.6875 -7.8125 
L 28.515625 -6.640625 
Q 35.546875 0 40.625 7.03125 
Q 45.703125 14.0625 49.609375 23.046875 
L 57.421875 17.1875 
z
M 76.5625 21.484375 
Q 90.234375 12.890625 92.765625 9.953125 
Q 95.3125 7.03125 95.3125 4.296875 
Q 95.3125 1.953125 94.140625 -0.578125 
Q 92.96875 -3.125 92.1875 -3.125 
Q 91.015625 -3.125 89.0625 1.953125 
Q 86.328125 8.984375 75.78125 20.3125 
z
M 53.515625 48.046875 
Q 50.390625 41.015625 46.09375 32.8125 
L 67.1875 32.8125 
L 67.1875 48.046875 
z
" id="SimSun-7ec3"/>
     <path d="M 24.609375 62.109375 
L 24.609375 51.953125 
L 40.625 51.953125 
L 40.625 62.109375 
z
M 24.609375 49.609375 
L 24.609375 37.890625 
L 40.625 37.890625 
L 40.625 49.609375 
z
M 24.609375 35.546875 
L 24.609375 23.4375 
L 40.625 23.4375 
L 40.625 35.546875 
z
M 19.140625 64.453125 
Q 19.140625 74.21875 18.75 80.859375 
L 27.734375 75.78125 
L 24.609375 73.4375 
L 24.609375 64.453125 
L 40.625 64.453125 
Q 40.625 71.484375 40.234375 80.859375 
L 49.21875 76.171875 
L 46.09375 73.828125 
L 46.09375 64.453125 
L 47.265625 64.453125 
L 51.5625 68.75 
L 58.203125 62.109375 
L 46.09375 62.109375 
L 46.09375 23.4375 
L 46.484375 23.4375 
L 50.78125 27.734375 
L 57.421875 21.09375 
L 14.84375 21.09375 
L 9.375 20.3125 
L 6.25 23.4375 
L 19.140625 23.4375 
L 19.140625 62.109375 
L 15.625 62.109375 
L 10.15625 61.328125 
L 7.03125 64.453125 
z
M 24.21875 19.53125 
L 31.25 13.28125 
L 27.734375 12.109375 
Q 17.1875 -0.390625 5.859375 -7.421875 
L 5.078125 -6.25 
Q 10.9375 -0.78125 15.8125 5.46875 
Q 20.703125 11.71875 24.21875 19.53125 
z
M 37.109375 17.96875 
Q 46.484375 12.890625 48.046875 10.9375 
Q 49.609375 8.984375 49.609375 7.421875 
Q 49.609375 5.46875 48.4375 3.515625 
Q 47.265625 1.5625 46.484375 1.5625 
Q 45.3125 1.5625 44.140625 4.6875 
Q 42.1875 9.765625 36.328125 17.1875 
z
M 66.015625 71.09375 
L 66.015625 51.5625 
L 85.15625 51.5625 
L 85.15625 71.09375 
z
M 66.015625 49.21875 
Q 66.015625 38.28125 65.625 29.296875 
L 85.15625 29.296875 
L 85.15625 49.21875 
z
M 71.09375 0.78125 
Q 78.515625 -0.390625 81.828125 -0.578125 
Q 85.15625 -0.78125 85.15625 3.515625 
L 85.15625 26.953125 
L 65.625 26.953125 
Q 64.84375 13.28125 58.390625 4.6875 
Q 51.953125 -3.90625 42.1875 -9.765625 
L 41.40625 -8.59375 
Q 48.046875 -3.125 52.34375 3.3125 
Q 56.640625 9.765625 58.59375 18.359375 
Q 60.546875 26.953125 60.546875 46.875 
Q 60.546875 66.796875 60.15625 76.953125 
L 66.015625 73.4375 
L 84.375 73.4375 
L 87.109375 77.34375 
L 93.359375 72.65625 
L 90.625 69.921875 
L 90.625 1.953125 
Q 91.015625 -5.859375 82.03125 -8.984375 
Q 82.03125 -3.90625 71.09375 -0.78125 
z
" id="SimSun-671f"/>
    </defs>
    <g transform="translate(325.436305 119.223733)scale(0.15 -0.15)">
     <use xlink:href="#SimSun-8bad"/>
     <use x="100" xlink:href="#SimSun-7ec3"/>
     <use x="200" xlink:href="#SimSun-671f"/>
    </g>
   </g>
   <g id="text_17">
    <!-- 预测期 -->
    <defs>
     <path d="M 7.421875 75.390625 
L 34.765625 75.390625 
L 37.890625 79.296875 
L 44.140625 73.046875 
Q 40.625 72.265625 37.296875 68.9375 
Q 33.984375 65.625 28.125 58.59375 
Q 32.03125 55.859375 31.828125 53.125 
Q 31.640625 50.390625 30.265625 49.21875 
Q 28.90625 48.046875 28.515625 48.046875 
Q 26.953125 48.046875 25.78125 51.5625 
Q 23.828125 56.25 16.40625 64.0625 
L 17.1875 64.84375 
Q 23.046875 62.109375 26.5625 59.765625 
L 34.765625 73.046875 
L 20.3125 73.046875 
Q 15.234375 73.046875 10.9375 71.875 
z
M 11.328125 1.5625 
Q 18.359375 0.78125 21.28125 0.578125 
Q 24.21875 0.390625 24.21875 4.296875 
L 24.21875 44.921875 
L 17.578125 44.921875 
Q 12.5 44.921875 8.203125 43.75 
L 4.6875 47.265625 
L 39.453125 47.265625 
L 42.578125 51.171875 
L 49.21875 44.921875 
Q 43.75 44.140625 35.546875 32.421875 
L 34.375 33.203125 
L 39.84375 44.921875 
L 29.296875 44.921875 
L 29.296875 2.34375 
Q 29.296875 -6.25 21.09375 -7.8125 
Q 20.703125 -2.734375 11.328125 0 
z
M 50.78125 12.109375 
Q 51.171875 22.265625 51.171875 35.734375 
Q 51.171875 49.21875 50.78125 60.9375 
L 56.25 57.8125 
L 63.28125 57.8125 
Q 65.234375 68.75 65.625 73.046875 
L 57.03125 73.046875 
Q 51.953125 73.046875 47.65625 71.875 
L 44.140625 75.390625 
L 83.203125 75.390625 
L 88.671875 80.46875 
L 95.703125 73.046875 
L 73.046875 73.046875 
Q 70.3125 69.140625 65.234375 57.8125 
L 82.8125 57.8125 
L 85.546875 62.109375 
L 91.796875 57.421875 
L 88.671875 54.296875 
L 88.671875 30.46875 
Q 88.671875 23.828125 89.0625 16.796875 
L 83.59375 13.671875 
L 83.59375 55.46875 
L 56.25 55.46875 
L 56.25 15.625 
z
M 75.78125 44.921875 
L 72.265625 41.796875 
Q 72.265625 23.046875 69.921875 14.640625 
Q 67.578125 6.25 60.9375 0.78125 
Q 54.296875 -4.6875 37.890625 -9.765625 
L 37.5 -8.59375 
Q 54.6875 -0.78125 59.953125 6.25 
Q 65.234375 13.28125 66.203125 24.796875 
Q 67.1875 36.328125 66.796875 49.609375 
z
M 72.65625 14.84375 
Q 89.453125 5.859375 91.796875 3.3125 
Q 94.140625 0.78125 94.140625 -1.953125 
Q 94.140625 -3.515625 93.15625 -6.046875 
Q 92.1875 -8.59375 91.40625 -8.59375 
Q 90.625 -8.59375 89.84375 -7.03125 
Q 87.890625 -3.90625 84.953125 0 
Q 82.03125 3.90625 71.875 13.671875 
z
" id="SimSun-9884"/>
     <path d="M 30.859375 15.625 
Q 31.25 23.046875 31.25 45.703125 
Q 31.25 68.359375 30.859375 78.125 
L 36.71875 74.609375 
L 55.859375 74.609375 
L 58.984375 77.734375 
L 64.0625 72.65625 
L 60.9375 70.3125 
L 60.9375 36.71875 
Q 60.9375 28.90625 61.328125 21.09375 
L 56.25 18.75 
L 56.25 72.265625 
L 36.328125 72.265625 
L 36.328125 17.96875 
z
M 43.359375 62.109375 
L 51.5625 57.8125 
L 48.828125 55.078125 
Q 49.21875 28.515625 44.921875 14.640625 
Q 40.625 0.78125 21.484375 -9.375 
L 20.703125 -7.8125 
Q 34.375 1.5625 38.671875 11.328125 
Q 42.96875 21.09375 43.359375 34.171875 
Q 43.75 47.265625 43.359375 62.109375 
z
M 48.4375 14.84375 
Q 59.765625 7.03125 61.515625 4.09375 
Q 63.28125 1.171875 63.28125 -0.390625 
Q 63.28125 -2.34375 62.109375 -4.09375 
Q 60.9375 -5.859375 60.15625 -5.859375 
Q 58.59375 -5.859375 57.03125 -1.171875 
Q 54.6875 5.859375 47.65625 13.671875 
z
M 69.921875 12.890625 
Q 70.3125 18.75 70.3125 26.5625 
L 70.3125 53.125 
Q 70.3125 61.71875 69.921875 67.1875 
L 78.515625 62.890625 
L 75.390625 59.765625 
L 75.390625 26.5625 
Q 75.390625 20.703125 75.78125 14.84375 
z
M 83.984375 2.34375 
L 83.984375 63.28125 
Q 83.984375 74.21875 83.59375 80.078125 
L 91.796875 76.171875 
L 89.0625 73.4375 
L 89.0625 1.171875 
Q 89.0625 -3.125 87.5 -5.46875 
Q 85.9375 -7.8125 81.25 -9.375 
Q 78.515625 -3.515625 69.53125 -0.78125 
L 69.53125 0.78125 
Q 80.078125 -0.78125 82.03125 -0.578125 
Q 83.984375 -0.390625 83.984375 2.34375 
z
M 28.90625 54.6875 
Q 21.484375 23.828125 20.3125 19.140625 
Q 18.75 14.0625 18.9375 7.03125 
Q 19.140625 0 19.53125 -2.734375 
Q 19.53125 -4.296875 17.578125 -4.296875 
Q 16.015625 -4.296875 13.671875 -3.515625 
Q 11.328125 -2.734375 11.328125 0 
Q 11.328125 1.953125 12.5 5.859375 
Q 13.671875 9.765625 13.671875 12.109375 
Q 13.671875 14.84375 11.90625 16.40625 
Q 10.15625 17.96875 4.296875 19.53125 
L 4.296875 21.09375 
Q 11.328125 20.3125 13.078125 20.5 
Q 14.84375 20.703125 16.984375 24.015625 
Q 19.140625 27.34375 27.34375 55.078125 
z
M 5.859375 58.984375 
Q 16.796875 52.34375 17.375 48.4375 
Q 17.96875 44.53125 16.40625 43.359375 
Q 14.84375 42.1875 14.0625 42.1875 
Q 12.5 42.1875 11.328125 46.484375 
Q 9.375 52.34375 5.078125 57.8125 
z
M 12.5 79.6875 
Q 23.046875 73.828125 24.21875 70.5 
Q 25.390625 67.1875 23.828125 65.421875 
Q 22.265625 63.671875 21.09375 63.671875 
Q 19.921875 63.671875 18.75 67.1875 
Q 16.796875 72.65625 11.71875 78.515625 
z
" id="SimSun-6d4b"/>
    </defs>
    <g transform="translate(718.256752 119.223733)scale(0.15 -0.15)">
     <use xlink:href="#SimSun-9884"/>
     <use x="100" xlink:href="#SimSun-6d4b"/>
     <use x="200" xlink:href="#SimSun-671f"/>
    </g>
   </g>
   <g id="legend_1">
    <g id="line2d_34">
     <path d="M 76.3 476.5095 
L 108.3 476.5095 
" style="fill:none;stroke:#000000;stroke-linecap:square;stroke-width:2.8;"/>
    </g>
    <g id="line2d_35"/>
    <g id="text_18">
     <!-- 真实值 -->
     <defs>
      <path d="M 32.03125 53.90625 
L 32.03125 45.3125 
L 67.1875 45.3125 
L 67.1875 53.90625 
z
M 32.03125 42.96875 
L 32.03125 34.765625 
L 67.1875 34.765625 
L 67.1875 42.96875 
z
M 32.03125 32.421875 
L 32.03125 24.21875 
L 67.1875 24.21875 
L 67.1875 32.421875 
z
M 32.03125 21.875 
L 32.03125 13.671875 
L 67.1875 13.671875 
L 67.1875 21.875 
z
M 44.921875 56.25 
L 45.703125 67.578125 
L 23.828125 67.578125 
Q 18.75 67.578125 14.453125 66.40625 
L 10.9375 69.921875 
L 46.09375 69.921875 
Q 46.484375 75.390625 46.484375 82.421875 
L 55.46875 78.515625 
L 52.734375 76.953125 
L 51.5625 69.921875 
L 78.125 69.921875 
L 83.203125 75.390625 
L 90.234375 67.578125 
L 51.171875 67.578125 
L 50 56.25 
L 66.796875 56.25 
L 69.53125 60.546875 
L 75.78125 55.859375 
L 72.65625 52.734375 
L 72.65625 13.671875 
L 82.8125 13.671875 
L 88.671875 19.140625 
L 95.703125 11.328125 
L 17.96875 11.328125 
Q 12.890625 11.328125 8.59375 10.15625 
L 5.078125 13.671875 
L 26.5625 13.671875 
Q 26.5625 50 26.171875 58.984375 
L 32.03125 56.25 
z
M 37.890625 11.328125 
L 44.140625 5.46875 
L 40.234375 4.6875 
Q 23.4375 -6.640625 12.5 -10.15625 
L 12.109375 -8.984375 
Q 30.46875 1.953125 37.890625 11.328125 
z
M 59.375 10.9375 
Q 71.484375 5.859375 77.53125 3.125 
Q 83.59375 0.390625 84.375 -1.75 
Q 85.15625 -3.90625 85.15625 -5.078125 
Q 85.15625 -6.25 84.375 -8.203125 
Q 83.59375 -10.15625 83.203125 -10.15625 
Q 82.03125 -10.15625 79.6875 -7.03125 
Q 76.171875 -2.34375 58.59375 9.765625 
z
" id="SimSun-771f"/>
      <path d="M 30.46875 56.640625 
Q 40.234375 53.125 42.1875 50.78125 
Q 44.140625 48.4375 44.140625 46.484375 
Q 44.140625 44.53125 42.96875 42.1875 
Q 41.796875 39.84375 41.015625 39.84375 
Q 39.84375 39.84375 38.28125 43.75 
Q 35.546875 49.609375 29.6875 55.46875 
z
M 55.859375 20.703125 
Q 54.6875 17.1875 53.515625 14.453125 
Q 72.65625 8.59375 79.484375 5.078125 
Q 86.328125 1.5625 86.125 -3.515625 
Q 85.9375 -8.59375 84.375 -8.59375 
Q 82.8125 -8.59375 79.296875 -4.6875 
Q 72.265625 2.734375 52.734375 12.5 
Q 47.265625 2.734375 35.9375 -2.34375 
Q 24.609375 -7.421875 6.640625 -9.765625 
L 6.640625 -8.203125 
Q 23.046875 -5.078125 34.375 1.5625 
Q 45.703125 8.203125 50 20.703125 
L 19.140625 20.703125 
Q 14.0625 20.703125 9.765625 19.53125 
L 6.25 23.046875 
L 50.390625 23.046875 
Q 51.953125 30.46875 52.734375 40.234375 
Q 53.515625 50 53.515625 57.8125 
L 63.28125 53.125 
L 60.15625 50.390625 
Q 58.59375 35.9375 56.640625 23.046875 
L 80.859375 23.046875 
L 86.71875 28.90625 
L 94.921875 20.703125 
z
M 19.921875 42.1875 
Q 30.859375 37.890625 32.8125 35.34375 
Q 34.765625 32.8125 34.765625 30.859375 
Q 34.765625 28.90625 33.59375 26.5625 
Q 32.421875 24.21875 31.640625 24.21875 
Q 30.46875 24.21875 28.90625 28.125 
Q 26.171875 33.984375 19.140625 41.015625 
z
M 42.96875 81.640625 
L 44.140625 82.421875 
Q 50.390625 79.6875 53.515625 76.953125 
Q 56.640625 74.21875 56.640625 71.875 
Q 56.640625 69.53125 54.875 67.1875 
Q 53.125 64.84375 51.953125 64.84375 
Q 50.78125 64.84375 50 68.75 
Q 48.4375 74.609375 42.96875 81.640625 
z
M 77.734375 50.390625 
L 83.59375 61.328125 
L 18.359375 61.328125 
Q 19.140625 55.078125 17.578125 51.5625 
Q 16.015625 48.046875 12.296875 48.4375 
Q 8.59375 48.828125 8.59375 50 
Q 8.59375 51.5625 10.9375 54.296875 
Q 15.234375 59.765625 16.40625 68.359375 
L 17.96875 68.359375 
L 18.359375 63.671875 
L 82.8125 63.671875 
L 87.109375 67.96875 
L 94.53125 59.375 
Q 87.890625 59.765625 78.90625 49.609375 
z
" id="SimSun-5b9e"/>
      <path d="M 23.828125 10.15625 
Q 23.828125 -3.515625 24.21875 -8.203125 
L 18.359375 -10.15625 
Q 18.75 3.90625 18.75 8.59375 
L 18.75 47.265625 
Q 11.71875 35.9375 5.078125 28.90625 
L 3.90625 29.6875 
Q 11.328125 41.015625 17.1875 55.078125 
Q 23.046875 69.140625 26.171875 81.25 
L 34.375 76.171875 
L 30.46875 73.828125 
Q 24.21875 59.375 22.265625 54.296875 
L 26.953125 51.5625 
L 23.828125 49.21875 
z
M 44.921875 50.390625 
L 44.921875 38.671875 
L 75 38.671875 
L 75 50.390625 
z
M 44.921875 36.328125 
L 44.921875 24.609375 
L 75 24.609375 
L 75 36.328125 
z
M 44.921875 22.265625 
L 44.921875 10.546875 
L 75 10.546875 
L 75 22.265625 
z
M 44.921875 8.203125 
L 44.921875 -3.515625 
L 75 -3.515625 
L 75 8.203125 
z
M 55.46875 66.40625 
Q 55.859375 75.390625 55.46875 81.640625 
L 64.453125 77.34375 
L 61.328125 75 
L 60.9375 66.40625 
L 78.515625 66.40625 
L 83.59375 71.484375 
L 91.015625 64.0625 
L 60.9375 64.0625 
L 60.546875 52.734375 
L 74.21875 52.734375 
L 77.734375 56.640625 
L 83.59375 51.5625 
L 80.078125 49.21875 
L 80.078125 -3.515625 
L 83.59375 -3.515625 
L 88.671875 1.5625 
L 96.09375 -5.859375 
L 38.28125 -5.859375 
Q 33.203125 -5.859375 28.90625 -7.03125 
L 25.390625 -3.515625 
L 39.84375 -3.515625 
L 39.84375 39.84375 
Q 39.84375 44.53125 39.453125 55.859375 
L 44.921875 52.734375 
L 55.078125 52.734375 
L 55.46875 64.0625 
L 43.75 64.0625 
Q 38.671875 64.0625 34.375 62.890625 
L 30.859375 66.40625 
z
" id="SimSun-503c"/>
     </defs>
     <g transform="translate(121.1 482.1095)scale(0.16 -0.16)">
      <use xlink:href="#SimSun-771f"/>
      <use x="100" xlink:href="#SimSun-5b9e"/>
      <use x="200" xlink:href="#SimSun-503c"/>
     </g>
    </g>
    <g id="line2d_36">
     <path d="M 201.1 476.5095 
L 233.1 476.5095 
" style="fill:none;stroke:#000000;stroke-dasharray:17.92,4.48,2.8,4.48;stroke-dashoffset:0;stroke-width:2.8;"/>
    </g>
    <g id="line2d_37"/>
    <g id="text_19">
     <!-- 模型值 -->
     <defs>
      <path d="M 19.921875 -9.765625 
Q 20.3125 3.515625 20.3125 40.234375 
Q 14.84375 26.171875 4.296875 14.453125 
L 3.515625 15.234375 
Q 15.625 34.375 19.53125 56.640625 
L 10.546875 56.640625 
L 7.03125 55.859375 
L 3.90625 58.984375 
L 20.3125 58.984375 
Q 20.3125 76.5625 19.921875 82.03125 
L 29.296875 78.125 
L 25.390625 75.390625 
L 25.390625 58.984375 
L 29.6875 58.984375 
L 34.375 63.671875 
L 41.40625 56.640625 
L 25.390625 56.640625 
L 25.390625 46.875 
Q 34.375 42.578125 36.515625 40.03125 
Q 38.671875 37.5 38.671875 35.15625 
Q 38.671875 33.59375 37.6875 31.4375 
Q 36.71875 29.296875 35.9375 29.296875 
Q 34.765625 29.296875 33.203125 33.59375 
Q 30.46875 39.84375 25.390625 44.53125 
Q 25.390625 3.90625 25.78125 -7.421875 
z
M 69.921875 68.75 
Q 69.921875 75.390625 69.53125 82.421875 
L 78.515625 78.125 
L 75 75.390625 
L 75 68.75 
L 82.8125 68.75 
L 87.5 73.4375 
L 94.53125 66.40625 
L 75 66.40625 
Q 75 62.109375 75.390625 58.984375 
L 69.921875 57.03125 
L 69.921875 66.40625 
L 56.640625 66.40625 
L 56.640625 58.984375 
L 51.171875 56.25 
Q 51.5625 60.9375 51.5625 66.40625 
L 41.796875 66.40625 
L 38.28125 65.625 
L 35.15625 68.75 
L 51.5625 68.75 
Q 51.5625 74.21875 51.171875 82.03125 
L 59.765625 78.125 
L 56.640625 75.78125 
L 56.640625 68.75 
z
M 44.140625 23.4375 
Q 44.53125 33.984375 44.53125 41.015625 
Q 44.53125 48.046875 44.140625 57.421875 
L 49.609375 54.296875 
L 78.125 54.296875 
L 81.25 57.8125 
L 86.71875 53.125 
L 83.59375 50.78125 
Q 83.59375 30.859375 83.984375 26.5625 
L 78.515625 24.21875 
L 78.515625 28.90625 
L 64.84375 28.90625 
Q 64.453125 23.828125 63.671875 17.578125 
L 83.203125 17.578125 
L 88.28125 22.65625 
L 95.703125 15.234375 
L 66.796875 15.234375 
Q 71.09375 8.59375 77.921875 3.703125 
Q 84.765625 -1.171875 95.3125 -1.953125 
L 95.3125 -3.515625 
Q 90.234375 -4.296875 87.890625 -8.59375 
Q 72.65625 -2.734375 64.84375 15.234375 
L 63.28125 15.234375 
Q 57.03125 -6.640625 29.296875 -10.15625 
L 28.90625 -8.984375 
Q 41.796875 -5.859375 48.4375 0.578125 
Q 55.078125 7.03125 57.8125 15.234375 
L 44.53125 15.234375 
Q 39.453125 15.234375 35.15625 14.0625 
L 31.640625 17.578125 
L 58.203125 17.578125 
Q 58.984375 21.484375 59.375 28.90625 
L 49.609375 28.90625 
L 49.609375 25.78125 
z
M 49.609375 51.953125 
L 49.609375 42.96875 
L 78.515625 42.96875 
L 78.515625 51.953125 
z
M 49.609375 40.625 
L 49.609375 31.25 
L 78.515625 31.25 
L 78.515625 40.625 
z
" id="SimSun-6a21"/>
      <path d="M 40.234375 26.171875 
Q 40.625 35.15625 40.625 40.625 
L 40.625 53.125 
L 29.296875 53.125 
Q 28.515625 32.421875 7.8125 21.09375 
L 7.03125 22.265625 
Q 23.046875 34.375 24.21875 53.125 
L 20.3125 53.125 
Q 15.234375 53.125 10.9375 51.953125 
L 7.421875 55.46875 
L 24.21875 55.46875 
L 24.21875 71.875 
L 19.140625 71.875 
L 14.453125 71.09375 
L 11.328125 74.21875 
L 46.875 74.21875 
L 51.5625 78.90625 
L 58.59375 71.875 
L 45.703125 71.875 
L 45.703125 55.46875 
L 50 55.46875 
L 55.078125 60.546875 
L 62.5 53.125 
L 45.703125 53.125 
L 45.703125 40.625 
Q 45.703125 32.8125 46.09375 29.296875 
z
M 29.296875 71.875 
L 29.296875 55.46875 
L 40.625 55.46875 
L 40.625 71.875 
z
M 65.234375 39.453125 
Q 65.625 48.4375 65.625 57.03125 
Q 65.625 65.625 65.234375 71.875 
L 73.4375 68.75 
L 70.703125 66.015625 
L 70.703125 41.40625 
z
M 81.25 81.640625 
L 89.453125 77.734375 
L 86.71875 75 
L 86.71875 34.765625 
Q 87.5 27.34375 78.515625 23.828125 
Q 78.125 28.515625 66.40625 31.25 
L 66.40625 33.203125 
Q 76.5625 32.03125 79.09375 32.21875 
Q 81.640625 32.421875 81.640625 37.109375 
L 81.640625 69.53125 
Q 81.640625 74.609375 81.25 81.640625 
z
M 47.265625 16.015625 
Q 47.265625 21.875 46.875 28.90625 
L 56.25 25 
L 52.734375 22.265625 
L 52.734375 16.015625 
L 71.09375 16.015625 
L 76.5625 21.484375 
L 84.375 13.671875 
L 52.734375 13.671875 
L 52.734375 -2.34375 
L 78.515625 -2.34375 
L 84.765625 3.90625 
L 93.359375 -4.6875 
L 19.921875 -4.6875 
Q 14.84375 -4.6875 10.546875 -5.859375 
L 7.03125 -2.34375 
L 47.265625 -2.34375 
L 47.265625 13.671875 
L 31.25 13.671875 
Q 26.171875 13.671875 21.875 12.5 
L 18.359375 16.015625 
z
" id="SimSun-578b"/>
     </defs>
     <g transform="translate(245.9 482.1095)scale(0.16 -0.16)">
      <use xlink:href="#SimSun-6a21"/>
      <use x="100" xlink:href="#SimSun-578b"/>
      <use x="200" xlink:href="#SimSun-503c"/>
     </g>
    </g>
   </g>
  </g>
 </g>
 <defs>
  <clipPath id="p8172d38526">
   <rect height="487.872" width="714.24" x="61.9" y="10.7"/>
  </clipPath>
 </defs>
</svg>
