<?xml version="1.0" encoding="utf-8" standalone="no"?>
<!DOCTYPE svg PUBLIC "-//W3C//DTD SVG 1.1//EN"
  "http://www.w3.org/Graphics/SVG/1.1/DTD/svg11.dtd">
<!-- Created with matplotlib (http://matplotlib.org/) -->
<svg height="537.2395pt" version="1.1" viewBox="0 0 793.075 537.2395" width="793.075pt" xmlns="http://www.w3.org/2000/svg" xmlns:xlink="http://www.w3.org/1999/xlink">
 <defs>
  <style type="text/css">
*{stroke-linecap:butt;stroke-linejoin:round;}
  </style>
 </defs>
 <g id="figure_1">
  <g id="patch_1">
   <path d="M 0 537.2395 
L 793.075 537.2395 
L 793.075 0 
L 0 0 
z
" style="fill:#ffffff;"/>
  </g>
  <g id="axes_1">
   <g id="patch_2">
    <path d="M 68.135 498.572 
L 782.375 498.572 
L 782.375 10.7 
L 68.135 10.7 
z
" style="fill:#ffffff;"/>
   </g>
   <g id="matplotlib.axis_1">
    <g id="xtick_1">
     <g id="line2d_1">
      <defs>
       <path d="M 0 0 
L 0 3.5 
" id="me7b0d0c80d" style="stroke:#000000;stroke-width:1.6;"/>
      </defs>
      <g>
       <use style="stroke:#000000;stroke-width:1.6;" x="109.843289" xlink:href="#me7b0d0c80d" y="498.572"/>
      </g>
     </g>
     <g id="text_1">
      <!-- 1949 -->
      <defs>
       <path d="M 52.59375 0 
L 9.234375 0 
L 9.234375 8.25 
L 26.171875 8.25 
L 26.171875 65.671875 
L 8.796875 60.640625 
L 8.796875 69.4375 
L 35.6875 77.25 
L 35.6875 8.25 
L 52.59375 8.25 
z
" id="MicrosoftYaHei-31"/>
       <path d="M 9.03125 10.25 
Q 15.28125 6.640625 22.515625 6.640625 
Q 32.671875 6.640625 38.25 14.640625 
Q 43.84375 22.65625 43.84375 37.40625 
Q 43.75 37.3125 43.65625 37.40625 
Q 38.671875 27.9375 26.90625 27.9375 
Q 17.390625 27.9375 11.140625 34.46875 
Q 4.890625 41.015625 4.890625 51.46875 
Q 4.890625 62.59375 11.71875 69.75 
Q 18.5625 76.90625 29.4375 76.90625 
Q 40.71875 76.90625 47.0625 68.046875 
Q 53.421875 59.1875 53.421875 42.234375 
Q 53.421875 21.296875 45.21875 10.015625 
Q 37.015625 -1.265625 22.515625 -1.265625 
Q 14.546875 -1.265625 9.03125 1.3125 
z
M 14.546875 52.6875 
Q 14.546875 45.0625 18.453125 40.59375 
Q 22.359375 36.140625 29.25 36.140625 
Q 35.203125 36.140625 39.25 40.203125 
Q 43.3125 44.28125 43.3125 50.09375 
Q 43.3125 58.25 39.28125 63.59375 
Q 35.25 68.953125 28.65625 68.953125 
Q 22.5625 68.953125 18.546875 64.3125 
Q 14.546875 59.671875 14.546875 52.6875 
z
" id="MicrosoftYaHei-39"/>
       <path d="M 55.078125 19.625 
L 45.40625 19.625 
L 45.40625 0 
L 36.140625 0 
L 36.140625 19.625 
L 0.875 19.625 
L 0.875 25.828125 
L 34.328125 75.640625 
L 45.40625 75.640625 
L 45.40625 27.203125 
L 55.078125 27.203125 
z
M 36.140625 27.203125 
L 36.140625 58.890625 
Q 36.140625 62.25 36.328125 66.65625 
L 36.140625 66.65625 
Q 35.453125 64.796875 33.25 60.84375 
L 10.75 27.203125 
z
" id="MicrosoftYaHei-34"/>
      </defs>
      <g transform="translate(91.078289 526.062)scale(0.16 -0.16)">
       <use xlink:href="#MicrosoftYaHei-31"/>
       <use x="58.642578" xlink:href="#MicrosoftYaHei-39"/>
       <use x="117.285156" xlink:href="#MicrosoftYaHei-34"/>
       <use x="175.927734" xlink:href="#MicrosoftYaHei-39"/>
      </g>
     </g>
    </g>
    <g id="xtick_2">
     <g id="line2d_2">
      <g>
       <use style="stroke:#000000;stroke-width:1.6;" x="202.271629" xlink:href="#me7b0d0c80d" y="498.572"/>
      </g>
     </g>
     <g id="text_2">
      <!-- 1959 -->
      <defs>
       <path d="M 8.640625 11.625 
Q 16.265625 6.640625 24.515625 6.640625 
Q 32.328125 6.640625 37.109375 11 
Q 41.890625 15.375 41.890625 22.609375 
Q 41.890625 29.890625 37.03125 33.890625 
Q 32.171875 37.890625 22.953125 37.890625 
Q 18.5 37.890625 10.984375 37.203125 
L 10.984375 75.640625 
L 48.1875 75.640625 
L 48.1875 67.1875 
L 19.875 67.1875 
L 19.875 45.796875 
Q 24.125 46.046875 26.265625 46.046875 
Q 38.234375 46.046875 44.921875 39.984375 
Q 51.609375 33.9375 51.609375 23.296875 
Q 51.609375 12.3125 44.421875 5.515625 
Q 37.25 -1.265625 24.609375 -1.265625 
Q 14.015625 -1.265625 8.640625 1.859375 
z
" id="MicrosoftYaHei-35"/>
      </defs>
      <g transform="translate(183.506629 526.062)scale(0.16 -0.16)">
       <use xlink:href="#MicrosoftYaHei-31"/>
       <use x="58.642578" xlink:href="#MicrosoftYaHei-39"/>
       <use x="117.285156" xlink:href="#MicrosoftYaHei-35"/>
       <use x="175.927734" xlink:href="#MicrosoftYaHei-39"/>
      </g>
     </g>
    </g>
    <g id="xtick_3">
     <g id="line2d_3">
      <g>
       <use style="stroke:#000000;stroke-width:1.6;" x="294.699969" xlink:href="#me7b0d0c80d" y="498.572"/>
      </g>
     </g>
     <g id="text_3">
      <!-- 1969 -->
      <defs>
       <path d="M 49.703125 65.921875 
Q 43.796875 68.953125 37.359375 68.953125 
Q 27.546875 68.953125 21.578125 60.40625 
Q 15.625 51.859375 15.53125 37.0625 
L 15.765625 37.0625 
Q 21.140625 47.46875 32.90625 47.46875 
Q 42.71875 47.46875 48.578125 41.0625 
Q 54.4375 34.671875 54.4375 24.078125 
Q 54.4375 12.984375 47.671875 5.859375 
Q 40.921875 -1.265625 30.421875 -1.265625 
Q 18.890625 -1.265625 12.328125 7.734375 
Q 5.765625 16.75 5.765625 33.296875 
Q 5.765625 53.328125 14.375 65.109375 
Q 23 76.90625 37.0625 76.90625 
Q 45.125 76.90625 49.703125 74.703125 
z
M 16.109375 24.75 
Q 16.109375 17.28125 20.09375 11.953125 
Q 24.078125 6.640625 30.671875 6.640625 
Q 36.921875 6.640625 40.828125 11.234375 
Q 44.734375 15.828125 44.734375 23.046875 
Q 44.734375 30.859375 41.046875 35.203125 
Q 37.359375 39.546875 30.5625 39.546875 
Q 24.125 39.546875 20.109375 35.15625 
Q 16.109375 30.765625 16.109375 24.75 
z
" id="MicrosoftYaHei-36"/>
      </defs>
      <g transform="translate(275.934969 526.062)scale(0.16 -0.16)">
       <use xlink:href="#MicrosoftYaHei-31"/>
       <use x="58.642578" xlink:href="#MicrosoftYaHei-39"/>
       <use x="117.285156" xlink:href="#MicrosoftYaHei-36"/>
       <use x="175.927734" xlink:href="#MicrosoftYaHei-39"/>
      </g>
     </g>
    </g>
    <g id="xtick_4">
     <g id="line2d_4">
      <g>
       <use style="stroke:#000000;stroke-width:1.6;" x="387.12831" xlink:href="#me7b0d0c80d" y="498.572"/>
      </g>
     </g>
     <g id="text_4">
      <!-- 1979 -->
      <defs>
       <path d="M 53.765625 72.3125 
L 24.171875 0 
L 14.265625 0 
L 42.390625 67.1875 
L 4.59375 67.1875 
L 4.59375 75.640625 
L 53.765625 75.640625 
z
" id="MicrosoftYaHei-37"/>
      </defs>
      <g transform="translate(368.36331 526.062)scale(0.16 -0.16)">
       <use xlink:href="#MicrosoftYaHei-31"/>
       <use x="58.642578" xlink:href="#MicrosoftYaHei-39"/>
       <use x="117.285156" xlink:href="#MicrosoftYaHei-37"/>
       <use x="175.927734" xlink:href="#MicrosoftYaHei-39"/>
      </g>
     </g>
    </g>
    <g id="xtick_5">
     <g id="line2d_5">
      <g>
       <use style="stroke:#000000;stroke-width:1.6;" x="479.55665" xlink:href="#me7b0d0c80d" y="498.572"/>
      </g>
     </g>
     <g id="text_5">
      <!-- 1989 -->
      <defs>
       <path d="M 21.390625 39.796875 
Q 7.859375 46.09375 7.859375 58.0625 
Q 7.859375 66.40625 14.203125 71.65625 
Q 20.5625 76.90625 30.421875 76.90625 
Q 39.453125 76.90625 45.3125 71.96875 
Q 51.171875 67.046875 51.171875 59.234375 
Q 51.171875 46.625 37.0625 39.84375 
L 37.0625 39.65625 
Q 53.609375 33.6875 53.609375 19.34375 
Q 53.609375 9.90625 46.796875 4.3125 
Q 39.984375 -1.265625 27.78125 -1.265625 
Q 17.78125 -1.265625 11.46875 4.25 
Q 5.171875 9.765625 5.171875 18.5625 
Q 5.171875 33.015625 21.390625 39.59375 
z
M 41.5 58.109375 
Q 41.5 63.1875 38.328125 66.109375 
Q 35.15625 69.046875 29.734375 69.046875 
Q 24.65625 69.046875 21.09375 65.984375 
Q 17.53125 62.9375 17.53125 58.203125 
Q 17.53125 48.734375 29.390625 43.796875 
Q 41.5 48.828125 41.5 58.109375 
z
M 28.8125 35.25 
Q 14.796875 29.59375 14.796875 19.046875 
Q 14.796875 13.578125 18.890625 10.0625 
Q 23 6.546875 29.59375 6.546875 
Q 35.984375 6.546875 39.984375 10.03125 
Q 44 13.53125 44 18.75 
Q 44 29.734375 28.8125 35.25 
z
" id="MicrosoftYaHei-38"/>
      </defs>
      <g transform="translate(460.79165 526.062)scale(0.16 -0.16)">
       <use xlink:href="#MicrosoftYaHei-31"/>
       <use x="58.642578" xlink:href="#MicrosoftYaHei-39"/>
       <use x="117.285156" xlink:href="#MicrosoftYaHei-38"/>
       <use x="175.927734" xlink:href="#MicrosoftYaHei-39"/>
      </g>
     </g>
    </g>
    <g id="xtick_6">
     <g id="line2d_6">
      <g>
       <use style="stroke:#000000;stroke-width:1.6;" x="571.98499" xlink:href="#me7b0d0c80d" y="498.572"/>
      </g>
     </g>
     <g id="text_6">
      <!-- 1999 -->
      <g transform="translate(553.21999 526.062)scale(0.16 -0.16)">
       <use xlink:href="#MicrosoftYaHei-31"/>
       <use x="58.642578" xlink:href="#MicrosoftYaHei-39"/>
       <use x="117.285156" xlink:href="#MicrosoftYaHei-39"/>
       <use x="175.927734" xlink:href="#MicrosoftYaHei-39"/>
      </g>
     </g>
    </g>
    <g id="xtick_7">
     <g id="line2d_7">
      <g>
       <use style="stroke:#000000;stroke-width:1.6;" x="664.413331" xlink:href="#me7b0d0c80d" y="498.572"/>
      </g>
     </g>
     <g id="text_7">
      <!-- 2009 -->
      <defs>
       <path d="M 51.171875 0 
L 5.171875 0 
L 5.171875 8.296875 
L 27.15625 30.21875 
Q 36.234375 39.3125 39.3125 44.609375 
Q 42.390625 49.90625 42.390625 55.5625 
Q 42.390625 62.015625 38.765625 65.453125 
Q 35.15625 68.890625 28.328125 68.890625 
Q 18.21875 68.890625 9.03125 60.296875 
L 9.03125 70.015625 
Q 17.96875 76.90625 29.828125 76.90625 
Q 40.046875 76.90625 45.953125 71.390625 
Q 51.859375 65.875 51.859375 56.546875 
Q 51.859375 49.515625 48.0625 42.75 
Q 44.28125 35.984375 33.734375 25.53125 
L 16.5 8.6875 
L 16.5 8.5 
L 51.171875 8.5 
z
" id="MicrosoftYaHei-32"/>
       <path d="M 4.4375 36.328125 
Q 4.4375 56.34375 11.078125 66.625 
Q 17.71875 76.90625 30.328125 76.90625 
Q 54.34375 76.90625 54.34375 38.140625 
Q 54.34375 19 47.578125 8.859375 
Q 40.828125 -1.265625 28.609375 -1.265625 
Q 17.09375 -1.265625 10.765625 8.34375 
Q 4.4375 17.96875 4.4375 36.328125 
z
M 14.203125 36.765625 
Q 14.203125 6.640625 29.5 6.640625 
Q 44.53125 6.640625 44.53125 37.25 
Q 44.53125 68.953125 29.78125 68.953125 
Q 14.203125 68.953125 14.203125 36.765625 
z
" id="MicrosoftYaHei-30"/>
      </defs>
      <g transform="translate(645.648331 526.062)scale(0.16 -0.16)">
       <use xlink:href="#MicrosoftYaHei-32"/>
       <use x="58.642578" xlink:href="#MicrosoftYaHei-30"/>
       <use x="117.285156" xlink:href="#MicrosoftYaHei-30"/>
       <use x="175.927734" xlink:href="#MicrosoftYaHei-39"/>
      </g>
     </g>
    </g>
    <g id="xtick_8">
     <g id="line2d_8">
      <g>
       <use style="stroke:#000000;stroke-width:1.6;" x="756.841671" xlink:href="#me7b0d0c80d" y="498.572"/>
      </g>
     </g>
     <g id="text_8">
      <!-- 2019 -->
      <g transform="translate(738.076671 526.062)scale(0.16 -0.16)">
       <use xlink:href="#MicrosoftYaHei-32"/>
       <use x="58.642578" xlink:href="#MicrosoftYaHei-30"/>
       <use x="117.285156" xlink:href="#MicrosoftYaHei-31"/>
       <use x="175.927734" xlink:href="#MicrosoftYaHei-39"/>
      </g>
     </g>
    </g>
    <g id="xtick_9">
     <g id="line2d_9">
      <defs>
       <path d="M 0 0 
L 0 2 
" id="md27640f517" style="stroke:#000000;stroke-width:0.8;"/>
      </defs>
      <g>
       <use style="stroke:#000000;stroke-width:0.8;" x="109.843289" xlink:href="#md27640f517" y="498.572"/>
      </g>
     </g>
    </g>
    <g id="xtick_10">
     <g id="line2d_10">
      <g>
       <use style="stroke:#000000;stroke-width:0.8;" x="156.057459" xlink:href="#md27640f517" y="498.572"/>
      </g>
     </g>
    </g>
    <g id="xtick_11">
     <g id="line2d_11">
      <g>
       <use style="stroke:#000000;stroke-width:0.8;" x="202.271629" xlink:href="#md27640f517" y="498.572"/>
      </g>
     </g>
    </g>
    <g id="xtick_12">
     <g id="line2d_12">
      <g>
       <use style="stroke:#000000;stroke-width:0.8;" x="248.485799" xlink:href="#md27640f517" y="498.572"/>
      </g>
     </g>
    </g>
    <g id="xtick_13">
     <g id="line2d_13">
      <g>
       <use style="stroke:#000000;stroke-width:0.8;" x="294.699969" xlink:href="#md27640f517" y="498.572"/>
      </g>
     </g>
    </g>
    <g id="xtick_14">
     <g id="line2d_14">
      <g>
       <use style="stroke:#000000;stroke-width:0.8;" x="340.914139" xlink:href="#md27640f517" y="498.572"/>
      </g>
     </g>
    </g>
    <g id="xtick_15">
     <g id="line2d_15">
      <g>
       <use style="stroke:#000000;stroke-width:0.8;" x="387.12831" xlink:href="#md27640f517" y="498.572"/>
      </g>
     </g>
    </g>
    <g id="xtick_16">
     <g id="line2d_16">
      <g>
       <use style="stroke:#000000;stroke-width:0.8;" x="433.34248" xlink:href="#md27640f517" y="498.572"/>
      </g>
     </g>
    </g>
    <g id="xtick_17">
     <g id="line2d_17">
      <g>
       <use style="stroke:#000000;stroke-width:0.8;" x="479.55665" xlink:href="#md27640f517" y="498.572"/>
      </g>
     </g>
    </g>
    <g id="xtick_18">
     <g id="line2d_18">
      <g>
       <use style="stroke:#000000;stroke-width:0.8;" x="525.77082" xlink:href="#md27640f517" y="498.572"/>
      </g>
     </g>
    </g>
    <g id="xtick_19">
     <g id="line2d_19">
      <g>
       <use style="stroke:#000000;stroke-width:0.8;" x="571.98499" xlink:href="#md27640f517" y="498.572"/>
      </g>
     </g>
    </g>
    <g id="xtick_20">
     <g id="line2d_20">
      <g>
       <use style="stroke:#000000;stroke-width:0.8;" x="618.19916" xlink:href="#md27640f517" y="498.572"/>
      </g>
     </g>
    </g>
    <g id="xtick_21">
     <g id="line2d_21">
      <g>
       <use style="stroke:#000000;stroke-width:0.8;" x="664.413331" xlink:href="#md27640f517" y="498.572"/>
      </g>
     </g>
    </g>
    <g id="xtick_22">
     <g id="line2d_22">
      <g>
       <use style="stroke:#000000;stroke-width:0.8;" x="710.627501" xlink:href="#md27640f517" y="498.572"/>
      </g>
     </g>
    </g>
    <g id="xtick_23">
     <g id="line2d_23">
      <g>
       <use style="stroke:#000000;stroke-width:0.8;" x="756.841671" xlink:href="#md27640f517" y="498.572"/>
      </g>
     </g>
    </g>
   </g>
   <g id="matplotlib.axis_2">
    <g id="ytick_1">
     <g id="line2d_24">
      <defs>
       <path d="M 0 0 
L -3.5 0 
" id="m8d53cb4b36" style="stroke:#000000;stroke-width:1.6;"/>
      </defs>
      <g>
       <use style="stroke:#000000;stroke-width:1.6;" x="68.135" xlink:href="#m8d53cb4b36" y="439.85667"/>
      </g>
     </g>
     <g id="text_9">
      <!-- -2.5% -->
      <defs>
       <path d="M 36.375 26.265625 
L 7.625 26.265625 
L 7.625 33.640625 
L 36.375 33.640625 
z
" id="MicrosoftYaHei-2d"/>
       <path d="M 5.8125 5.03125 
Q 5.8125 7.671875 7.609375 9.46875 
Q 9.421875 11.28125 12.109375 11.28125 
Q 14.84375 11.28125 16.640625 9.453125 
Q 18.453125 7.625 18.453125 5.03125 
Q 18.453125 2.484375 16.640625 0.65625 
Q 14.84375 -1.171875 12.0625 -1.171875 
Q 9.375 -1.171875 7.59375 0.65625 
Q 5.8125 2.484375 5.8125 5.03125 
z
" id="MicrosoftYaHei-2e"/>
       <path d="M 4.25 56.546875 
Q 4.25 65.828125 9.203125 71.296875 
Q 14.15625 76.765625 22.5625 76.765625 
Q 30.609375 76.765625 35.125 71.734375 
Q 39.65625 66.703125 39.65625 57.71875 
Q 39.65625 48.78125 34.671875 43.203125 
Q 29.6875 37.640625 21.4375 37.640625 
Q 13.625 37.640625 8.9375 42.8125 
Q 4.25 48 4.25 56.546875 
z
M 11.765625 57.03125 
Q 11.765625 50.734375 14.5 47.3125 
Q 17.234375 43.890625 21.96875 43.890625 
Q 26.859375 43.890625 29.515625 47.4375 
Q 32.171875 50.984375 32.171875 57.421875 
Q 32.171875 63.71875 29.5625 67.15625 
Q 26.953125 70.609375 22.21875 70.609375 
Q 17.390625 70.609375 14.578125 67.015625 
Q 11.765625 63.421875 11.765625 57.03125 
z
M 72.609375 75.640625 
L 24.03125 -0.484375 
L 15.875 -0.484375 
L 64.453125 75.640625 
z
M 49.5625 17.71875 
Q 49.5625 27 54.515625 32.546875 
Q 59.46875 38.09375 67.828125 38.09375 
Q 75.828125 38.09375 80.359375 33.03125 
Q 84.90625 27.984375 84.90625 18.796875 
Q 84.90625 9.90625 79.875 4.359375 
Q 74.859375 -1.171875 66.75 -1.171875 
Q 58.890625 -1.171875 54.21875 4.078125 
Q 49.5625 9.328125 49.5625 17.71875 
z
M 57.03125 18.171875 
Q 57.03125 12.015625 59.765625 8.5625 
Q 62.5 5.125 67.234375 5.125 
Q 72.125 5.125 74.78125 8.6875 
Q 77.4375 12.25 77.4375 18.65625 
Q 77.4375 25 74.78125 28.359375 
Q 72.125 31.734375 67.484375 31.734375 
Q 62.5 31.734375 59.765625 28.140625 
Q 57.03125 24.5625 57.03125 18.171875 
z
" id="MicrosoftYaHei-25"/>
      </defs>
      <g transform="translate(9.66 446.25167)scale(0.16 -0.16)">
       <use xlink:href="#MicrosoftYaHei-2d"/>
       <use x="43.261719" xlink:href="#MicrosoftYaHei-32"/>
       <use x="101.904297" xlink:href="#MicrosoftYaHei-2e"/>
       <use x="125.976562" xlink:href="#MicrosoftYaHei-35"/>
       <use x="184.619141" xlink:href="#MicrosoftYaHei-25"/>
      </g>
     </g>
    </g>
    <g id="ytick_2">
     <g id="line2d_25">
      <g>
       <use style="stroke:#000000;stroke-width:1.6;" x="68.135" xlink:href="#m8d53cb4b36" y="375.730083"/>
      </g>
     </g>
     <g id="text_10">
      <!-- 0.0% -->
      <g transform="translate(16.5825 382.125083)scale(0.16 -0.16)">
       <use xlink:href="#MicrosoftYaHei-30"/>
       <use x="58.642578" xlink:href="#MicrosoftYaHei-2e"/>
       <use x="82.714844" xlink:href="#MicrosoftYaHei-30"/>
       <use x="141.357422" xlink:href="#MicrosoftYaHei-25"/>
      </g>
     </g>
    </g>
    <g id="ytick_3">
     <g id="line2d_26">
      <g>
       <use style="stroke:#000000;stroke-width:1.6;" x="68.135" xlink:href="#m8d53cb4b36" y="311.603495"/>
      </g>
     </g>
     <g id="text_11">
      <!-- 2.5% -->
      <g transform="translate(16.5825 317.998495)scale(0.16 -0.16)">
       <use xlink:href="#MicrosoftYaHei-32"/>
       <use x="58.642578" xlink:href="#MicrosoftYaHei-2e"/>
       <use x="82.714844" xlink:href="#MicrosoftYaHei-35"/>
       <use x="141.357422" xlink:href="#MicrosoftYaHei-25"/>
      </g>
     </g>
    </g>
    <g id="ytick_4">
     <g id="line2d_27">
      <g>
       <use style="stroke:#000000;stroke-width:1.6;" x="68.135" xlink:href="#m8d53cb4b36" y="247.476908"/>
      </g>
     </g>
     <g id="text_12">
      <!-- 5.0% -->
      <g transform="translate(16.5825 253.871908)scale(0.16 -0.16)">
       <use xlink:href="#MicrosoftYaHei-35"/>
       <use x="58.642578" xlink:href="#MicrosoftYaHei-2e"/>
       <use x="82.714844" xlink:href="#MicrosoftYaHei-30"/>
       <use x="141.357422" xlink:href="#MicrosoftYaHei-25"/>
      </g>
     </g>
    </g>
    <g id="ytick_5">
     <g id="line2d_28">
      <g>
       <use style="stroke:#000000;stroke-width:1.6;" x="68.135" xlink:href="#m8d53cb4b36" y="183.35032"/>
      </g>
     </g>
     <g id="text_13">
      <!-- 7.5% -->
      <g transform="translate(16.5825 189.74532)scale(0.16 -0.16)">
       <use xlink:href="#MicrosoftYaHei-37"/>
       <use x="58.642578" xlink:href="#MicrosoftYaHei-2e"/>
       <use x="82.714844" xlink:href="#MicrosoftYaHei-35"/>
       <use x="141.357422" xlink:href="#MicrosoftYaHei-25"/>
      </g>
     </g>
    </g>
    <g id="ytick_6">
     <g id="line2d_29">
      <g>
       <use style="stroke:#000000;stroke-width:1.6;" x="68.135" xlink:href="#m8d53cb4b36" y="119.223733"/>
      </g>
     </g>
     <g id="text_14">
      <!-- 10.0% -->
      <g transform="translate(7.2 125.618733)scale(0.16 -0.16)">
       <use xlink:href="#MicrosoftYaHei-31"/>
       <use x="58.642578" xlink:href="#MicrosoftYaHei-30"/>
       <use x="117.285156" xlink:href="#MicrosoftYaHei-2e"/>
       <use x="141.357422" xlink:href="#MicrosoftYaHei-30"/>
       <use x="200" xlink:href="#MicrosoftYaHei-25"/>
      </g>
     </g>
    </g>
    <g id="ytick_7">
     <g id="line2d_30">
      <g>
       <use style="stroke:#000000;stroke-width:1.6;" x="68.135" xlink:href="#m8d53cb4b36" y="55.097145"/>
      </g>
     </g>
     <g id="text_15">
      <!-- 12.5% -->
      <g transform="translate(7.2 61.492145)scale(0.16 -0.16)">
       <use xlink:href="#MicrosoftYaHei-31"/>
       <use x="58.642578" xlink:href="#MicrosoftYaHei-32"/>
       <use x="117.285156" xlink:href="#MicrosoftYaHei-2e"/>
       <use x="141.357422" xlink:href="#MicrosoftYaHei-35"/>
       <use x="200" xlink:href="#MicrosoftYaHei-25"/>
      </g>
     </g>
    </g>
   </g>
   <g id="line2d_31">
    <path clip-path="url(#pd6e6c6b830)" d="M 100.600455 308.989696 
L 102.911163 258.204003 
L 105.221872 237.432119 
L 107.53258 276.002979 
L 109.843289 351.628746 
L 112.153997 402.463175 
L 114.464706 390.884478 
L 116.775414 415.016595 
L 119.086123 279.127226 
L 121.396831 188.58305 
L 126.018248 32.876 
L 128.328957 104.772165 
L 130.639665 141.039598 
L 132.950374 189.588555 
L 135.261082 235.385198 
L 137.571791 243.108605 
L 139.882499 283.357016 
L 142.193208 318.254705 
L 144.503916 238.073385 
L 146.814625 216.914176 
L 149.125333 201.736695 
L 151.436042 236.693381 
L 153.74675 362.26863 
L 156.057459 421.4626 
L 158.368167 438.094472 
L 160.678876 395.465681 
L 165.300293 217.555442 
L 167.611001 176.142492 
L 169.92171 170.150503 
L 172.232418 207.013031 
L 174.543127 293.21199 
L 176.853835 314.094172 
L 179.164544 351.474842 
L 183.785961 297.552077 
L 186.096669 324.91361 
L 188.407378 296.892856 
L 190.718086 366.670279 
L 193.028795 449.367926 
L 195.339503 427.534105 
L 197.650212 394.278057 
L 199.96092 307.471178 
L 202.271629 185.443412 
L 204.582337 141.616737 
L 206.893046 202.960231 
L 209.203754 257.906456 
L 211.514463 249.280147 
L 213.825171 322.941076 
L 216.13588 312.060077 
L 220.757297 392.957049 
L 223.068005 335.579144 
L 225.378714 298.48063 
L 227.689423 211.684012 
L 230.000131 181.565036 
L 232.31084 203.180826 
L 234.621548 221.715975 
L 236.932257 265.255363 
L 239.242965 283.464749 
L 241.553674 277.680531 
L 243.864382 252.181234 
L 246.175091 243.429238 
L 248.485799 216.280605 
L 250.796508 217.211724 
L 253.107216 234.174488 
L 255.417925 243.457453 
L 257.728633 235.269771 
L 260.039342 230.58853 
L 262.35005 212.904982 
L 264.660759 158.628238 
L 266.971467 158.263999 
L 269.282176 183.611957 
L 271.592884 220.730991 
L 276.214301 300.69941 
L 278.52501 308.030362 
L 280.835718 305.493514 
L 283.146427 307.206976 
L 285.457135 277.100826 
L 287.767844 234.261701 
L 290.078552 238.835209 
L 292.389261 248.531149 
L 294.699969 261.038399 
L 297.010678 297.044195 
L 299.321386 300.040189 
L 301.632095 323.261709 
L 303.942803 367.388496 
L 306.253512 371.572115 
L 308.56422 364.887559 
L 310.874929 379.985523 
L 313.185637 306.570841 
L 315.496346 296.03356 
L 317.807054 298.66275 
L 320.117763 263.736845 
L 322.428471 286.53 
L 324.73918 240.964212 
L 327.049888 237.67067 
L 329.360597 198.856129 
L 331.671305 181.759981 
L 333.982014 213.602679 
L 336.292722 253.343208 
L 338.603431 272.501667 
L 340.914139 359.364978 
L 343.224848 381.080805 
L 345.535556 391.869462 
L 347.846265 425.661609 
L 350.156973 434.677807 
L 352.467682 422.775913 
L 354.77839 355.258311 
L 357.089099 310.19271 
L 359.399808 217.940202 
L 361.710516 217.404103 
L 364.021225 248.500368 
L 366.331933 265.068113 
L 368.642642 292.978569 
L 370.95335 261.153826 
L 373.264059 227.725919 
L 375.574767 247.146015 
L 377.885476 270.123853 
L 380.196184 219.822958 
L 382.506893 241.164286 
L 384.817601 204.948155 
L 387.12831 208.731624 
L 389.439018 307.56865 
L 391.749727 314.42763 
L 394.060435 342.799798 
L 396.371144 339.319006 
L 398.681852 395.60676 
L 400.992561 417.379019 
L 405.613978 334.689067 
L 410.235395 264.788521 
L 412.546103 342.373997 
L 414.856812 431.889583 
L 417.16752 401.657745 
L 419.478229 441.27002 
L 421.788937 412.743949 
L 424.099646 339.036849 
L 426.410354 291.893547 
L 428.721063 228.574955 
L 431.031771 173.090066 
L 433.34248 155.663025 
L 435.653188 170.60452 
L 437.963897 198.707355 
L 440.274605 232.691882 
L 442.585314 258.914526 
L 444.896022 281.251099 
L 447.206731 266.401946 
L 449.517439 268.482213 
L 451.828148 269.379985 
L 454.138856 280.771432 
L 456.449565 295.741143 
L 458.760273 301.127776 
L 461.070982 306.068088 
L 463.38169 289.582425 
L 465.692399 291.921763 
L 468.003107 260.815238 
L 470.313816 266.904699 
L 472.624524 260.69981 
L 474.935233 268.1821 
L 477.245941 278.301276 
L 479.55665 265.042463 
L 481.867358 279.565852 
L 484.178067 275.479706 
L 486.488775 305.355001 
L 488.799484 303.356816 
L 491.110192 313.835101 
L 493.420901 331.418611 
L 495.73161 360.26788 
L 498.042318 400.098186 
L 500.353027 389.576296 
L 502.663735 378.377228 
L 504.974444 345.790662 
L 507.285152 302.425698 
L 509.595861 294.425265 
L 511.906569 281.69229 
L 514.217278 263.316175 
L 516.527986 290.526369 
L 521.149403 317.064516 
L 523.460112 308.828097 
L 528.081529 267.335629 
L 530.392237 264.475584 
L 532.702946 270.139244 
L 535.013654 286.460743 
L 537.324363 314.106997 
L 539.635071 307.155675 
L 541.94578 319.308946 
L 544.256488 308.997391 
L 546.567197 273.078807 
L 548.877905 271.852706 
L 551.188614 262.328625 
L 553.499322 265.070678 
L 555.810031 265.229712 
L 558.120739 255.85697 
L 560.431448 260.610033 
L 562.742156 251.188555 
L 565.052865 270.665082 
L 567.363573 270.616346 
L 569.674282 250.580635 
L 571.98499 251.99142 
L 574.295699 256.154518 
L 576.606407 254.643695 
L 578.917116 252.435176 
L 581.227824 268.005111 
L 583.538533 239.848409 
L 585.849241 271.20118 
L 588.15995 299.460485 
L 590.470658 316.487376 
L 592.781367 348.599406 
L 595.092075 362.804728 
L 597.402784 371.785015 
L 599.713492 341.917416 
L 602.024201 341.363362 
L 604.334909 318.926752 
L 606.645618 322.017653 
L 608.956326 330.295113 
L 611.267035 323.71829 
L 613.577743 291.036816 
L 615.888452 264.757741 
L 618.19916 265.332315 
L 620.509869 267.915334 
L 622.820577 287.709929 
L 625.131286 291.537004 
L 627.441995 276.436475 
L 629.752703 284.383041 
L 632.063412 285.806652 
L 634.37412 295.546198 
L 636.684829 289.705548 
L 638.995537 295.718057 
L 641.306246 315.03042 
L 643.616954 309.282113 
L 645.927663 337.708147 
L 648.238371 328.897153 
L 650.54908 318.775413 
L 652.859788 325.098294 
L 655.170497 346.244678 
L 657.481205 347.711894 
L 659.791914 375.681347 
L 662.102622 446.359106 
L 664.413331 460.105282 
L 666.724039 476.396 
L 669.034748 453.956824 
L 671.345456 371.028321 
L 673.656165 331.862367 
L 675.966873 304.003212 
L 678.277582 294.196974 
L 682.898999 326.193577 
L 685.209707 331.57508 
L 687.520416 351.39276 
L 689.831124 334.445386 
L 692.141833 307.722554 
L 694.452541 315.158673 
L 696.76325 310.877582 
L 699.073958 338.06469 
L 701.384667 335.399589 
L 703.695375 343.364112 
L 706.006084 326.55012 
L 708.316792 308.676758 
L 710.627501 338.357108 
L 712.938209 308.974305 
L 715.248918 297.854755 
L 717.559626 306.414372 
L 719.870335 278.04477 
L 722.181043 289.328484 
L 724.491752 314.712352 
L 726.80246 324.426248 
L 729.113169 335.784349 
L 731.423877 342.48173 
L 733.734586 336.325577 
L 736.045294 327.53254 
L 738.356003 326.019152 
L 740.666711 321.481555 
L 742.97742 315.740943 
L 745.288128 312.324278 
L 747.598837 309.530924 
L 749.909545 302.120456 
L 749.909545 302.120456 
" style="fill:none;stroke:#000000;stroke-linecap:square;stroke-width:2.8;"/>
   </g>
   <g id="line2d_32">
    <path clip-path="url(#pd6e6c6b830)" d="M 100.600455 224.145231 
L 102.911163 228.480616 
L 105.221872 233.942705 
L 107.53258 256.214591 
L 109.843289 292.993212 
L 112.153997 325.959886 
L 114.464706 340.033639 
L 116.775414 334.142238 
L 119.086123 311.091126 
L 121.396831 271.204493 
L 123.70754 224.960674 
L 126.018248 194.933233 
L 128.328957 194.810897 
L 130.639665 217.527258 
L 132.950374 246.472623 
L 135.261082 268.591459 
L 137.571791 278.789114 
L 139.882499 276.966894 
L 142.193208 266.951071 
L 144.503916 255.236039 
L 146.814625 245.276032 
L 149.125333 237.38389 
L 151.436042 237.236823 
L 153.74675 254.116075 
L 156.057459 285.179017 
L 158.368167 311.951488 
L 160.678876 313.439808 
L 162.989584 290.011861 
L 165.300293 265.083524 
L 167.611001 258.23566 
L 169.92171 269.187174 
L 172.232418 281.02504 
L 174.543127 282.880166 
L 176.853835 281.625652 
L 179.164544 289.94345 
L 181.475252 308.582165 
L 183.785961 325.338025 
L 186.096669 333.191205 
L 188.407378 337.338902 
L 190.718086 345.35211 
L 193.028795 351.844247 
L 195.339503 343.036138 
L 197.650212 313.291304 
L 199.96092 275.764886 
L 202.271629 250.958067 
L 204.582337 246.856161 
L 209.203754 267.376531 
L 211.514463 270.19646 
L 213.825171 269.792667 
L 216.13588 275.216921 
L 218.446588 288.715765 
L 220.757297 301.110759 
L 223.068005 301.273866 
L 225.378714 285.642437 
L 227.689423 262.966747 
L 230.000131 246.761357 
L 232.31084 243.343819 
L 234.621548 250.124994 
L 236.932257 258.582132 
L 239.242965 262.406559 
L 241.553674 260.830946 
L 243.864382 254.824191 
L 246.175091 245.663292 
L 248.485799 237.480652 
L 250.796508 237.053682 
L 253.107216 247.183508 
L 255.417925 260.5172 
L 257.728633 266.1747 
L 260.039342 262.288237 
L 262.35005 256.428356 
L 264.660759 257.140258 
L 266.971467 265.836947 
L 269.282176 278.90077 
L 271.592884 290.764942 
L 273.903593 296.341387 
L 276.214301 294.938792 
L 280.835718 285.722678 
L 283.146427 279.151068 
L 285.457135 270.011753 
L 287.767844 263.821016 
L 290.078552 265.637538 
L 292.389261 270.681489 
L 294.699969 270.745989 
L 297.010678 268.287678 
L 299.321386 274.160575 
L 301.632095 292.152675 
L 303.942803 313.599703 
L 306.253512 330.252711 
L 308.56422 337.156858 
L 310.874929 329.298769 
L 313.185637 306.298671 
L 315.496346 279.456927 
L 317.807054 265.720526 
L 320.117763 265.521967 
L 322.428471 261.382408 
L 324.73918 245.62183 
L 327.049888 231.956423 
L 329.360597 233.538259 
L 331.671305 242.139121 
L 333.982014 246.137289 
L 336.292722 252.272408 
L 338.603431 275.872739 
L 340.914139 313.04265 
L 343.224848 345.047298 
L 345.535556 357.726926 
L 347.846265 350.647602 
L 350.156973 326.444729 
L 352.467682 285.670143 
L 354.77839 239.770048 
L 357.089099 211.49745 
L 359.399808 213.447848 
L 361.710516 237.23953 
L 364.021225 266.003468 
L 366.331933 287.321641 
L 368.642642 296.525166 
L 370.95335 293.999134 
L 373.264059 283.679177 
L 375.574767 272.022365 
L 377.885476 262.170445 
L 380.196184 254.532919 
L 382.506893 255.246733 
L 384.817601 273.371271 
L 387.12831 304.860982 
L 389.439018 330.472601 
L 391.749727 330.001891 
L 396.371144 281.259585 
L 398.681852 276.099678 
L 403.303269 299.029268 
L 405.613978 300.237784 
L 407.924686 299.271117 
L 410.235395 308.428695 
L 412.546103 327.382554 
L 414.856812 343.636912 
L 417.16752 350.957275 
L 419.478229 355.207435 
L 421.788937 363.458745 
L 424.099646 369.372725 
L 426.410354 359.175506 
L 428.721063 328.3464 
L 431.031771 291.049924 
L 433.34248 267.381763 
L 435.653188 264.785409 
L 437.963897 275.473004 
L 440.274605 285.357009 
L 442.585314 287.657612 
L 444.896022 287.371135 
L 447.206731 293.38144 
L 449.517439 307.191305 
L 451.828148 319.087102 
L 454.138856 318.183655 
L 456.449565 301.716021 
L 458.760273 279.059552 
L 461.070982 263.598328 
L 463.38169 261.035386 
L 465.692399 268.201964 
L 468.003107 276.489831 
L 470.313816 279.947373 
L 472.624524 277.996346 
L 474.935233 271.69211 
L 477.245941 262.400946 
L 479.55665 254.619361 
L 481.867358 254.894278 
L 484.178067 265.560791 
L 486.488775 278.685563 
L 488.799484 283.646165 
L 491.110192 279.326641 
L 493.420901 273.689671 
L 495.73161 274.969857 
L 498.042318 284.096955 
L 500.353027 297.252279 
L 502.663735 308.830506 
L 504.974444 313.90699 
L 507.285152 312.111941 
L 511.906569 302.799009 
L 514.217278 295.978069 
L 516.527986 286.895885 
L 518.838695 281.153681 
L 521.149403 283.443156 
L 523.460112 288.352071 
L 525.77082 288.02662 
L 528.081529 285.769686 
L 530.392237 292.495355 
L 532.702946 311.096173 
L 535.013654 332.456459 
L 537.324363 348.608844 
L 539.635071 354.731298 
L 541.94578 345.789457 
L 544.256488 321.753646 
L 546.567197 295.435839 
L 548.877905 283.067721 
L 551.188614 283.272671 
L 553.499322 278.455257 
L 555.810031 262.367517 
L 558.120739 249.611035 
L 560.431448 252.23054 
L 562.742156 260.865577 
L 565.052865 264.675787 
L 567.363573 271.678585 
L 569.674282 296.710171 
L 571.98499 334.28992 
L 574.295699 365.385497 
L 576.606407 376.794811 
L 578.917116 368.7678 
L 581.227824 343.261219 
L 583.538533 301.743688 
L 585.849241 256.607318 
L 588.15995 230.687499 
L 590.470658 234.864464 
L 592.781367 259.71873 
L 595.092075 288.501514 
L 597.402784 309.344971 
L 599.713492 317.958912 
L 602.024201 314.997549 
L 604.334909 304.655956 
L 606.645618 293.321478 
L 608.956326 283.823916 
L 611.267035 276.716737 
L 613.577743 278.588413 
L 615.888452 298.199034 
L 618.19916 330.626629 
L 620.509869 355.013181 
L 622.820577 352.524163 
L 625.131286 327.429114 
L 627.441995 304.513626 
L 629.752703 301.051953 
L 632.063412 313.547041 
L 634.37412 324.500253 
L 636.684829 325.441384 
L 638.995537 325.089593 
L 641.306246 335.354341 
L 643.616954 354.833053 
L 645.927663 370.816631 
L 648.238371 377.902214 
L 650.54908 382.561436 
L 652.859788 391.29096 
L 655.170497 396.810961 
L 657.481205 385.233931 
L 659.791914 353.492662 
L 662.102622 316.850363 
L 664.413331 295.131136 
L 666.724039 294.050025 
L 669.034748 305.369124 
L 671.345456 315.099308 
L 673.656165 317.241635 
L 675.966873 317.382165 
L 678.277582 324.255764 
L 680.58829 338.601656 
L 682.898999 350.208307 
L 685.209707 348.493566 
L 687.520416 331.502757 
L 689.831124 309.195193 
L 692.141833 294.681783 
L 694.452541 293.360387 
L 696.76325 301.195124 
L 699.073958 309.522021 
L 701.384667 312.799131 
L 703.695375 310.798994 
L 706.006084 304.513786 
L 708.316792 295.40022 
L 710.627501 288.209959 
L 712.938209 289.464758 
L 715.248918 300.90024 
L 717.559626 314.035033 
L 719.870335 318.556174 
L 722.181043 314.109694 
L 724.491752 309.002791 
L 726.80246 311.12468 
L 729.113169 321.065605 
L 731.423877 334.562334 
L 733.734586 346.048951 
L 736.045294 350.809113 
L 738.356003 348.939311 
L 742.97742 340.08149 
L 745.288128 333.311557 
L 747.598837 324.48835 
L 749.909545 319.485162 
L 749.909545 319.485162 
" style="fill:none;stroke:#000000;stroke-dasharray:17.92,4.48,2.8,4.48;stroke-dashoffset:0;stroke-width:2.8;"/>
   </g>
   <g id="line2d_33">
    <path clip-path="url(#pd6e6c6b830)" d="M 699.073958 498.572 
L 699.073958 10.7 
" style="fill:none;stroke:#808080;stroke-dasharray:11.1,4.8;stroke-dashoffset:0;stroke-width:3;"/>
   </g>
   <g id="patch_3">
    <path d="M 68.135 498.572 
L 68.135 10.7 
" style="fill:none;stroke:#000000;stroke-linecap:square;stroke-linejoin:miter;stroke-width:0.8;"/>
   </g>
   <g id="patch_4">
    <path d="M 68.135 498.572 
L 782.375 498.572 
" style="fill:none;stroke:#000000;stroke-linecap:square;stroke-linejoin:miter;stroke-width:0.8;"/>
   </g>
   <g id="text_16">
    <!-- 训练期 -->
    <defs>
     <path d="M 40.328125 80.90625 
L 47.75 80.90625 
L 47.75 42.53125 
Q 47.75 19.875 44.234375 7.28125 
Q 40.828125 -4.640625 30.953125 -13.625 
Q 27.640625 -10.59375 24.21875 -8.34375 
Q 33.6875 -1.03125 37.109375 10.109375 
Q 40.328125 21.140625 40.328125 41.84375 
z
M 86.03125 81 
L 93.453125 81 
L 93.453125 -12.0625 
L 86.03125 -12.0625 
z
M 63.09375 77.390625 
L 70.515625 77.390625 
L 70.515625 -6.296875 
L 63.09375 -6.296875 
z
M 31.640625 21.4375 
Q 31.640625 16.546875 32.328125 12.25 
Q 22.46875 3.859375 14.265625 -4.4375 
L 9.765625 1.8125 
Q 13.09375 4.9375 13.09375 10.796875 
L 13.09375 43.796875 
L 1.265625 43.796875 
L 1.265625 50.828125 
L 20.515625 50.828125 
L 20.515625 11.078125 
Q 25.78125 15.765625 31.640625 21.4375 
z
M 13.671875 81.109375 
Q 22.46875 72.3125 28.90625 65.09375 
L 22.078125 59.328125 
Q 16.109375 67.234375 7.8125 76.125 
z
" id="MicrosoftYaHei-8bad"/>
     <path d="M 36.921875 53.171875 
L 47.796875 53.171875 
Q 50.046875 59.078125 52.25 65.578125 
L 34.578125 65.578125 
L 34.578125 72.21875 
L 54.5 72.21875 
Q 56.296875 77.734375 58.109375 83.640625 
L 65.921875 82.078125 
Q 64.203125 77.046875 62.5 72.21875 
L 93.75 72.21875 
L 93.75 65.578125 
L 60.109375 65.578125 
Q 57.8125 59.234375 55.515625 53.171875 
L 74.421875 53.171875 
L 74.421875 31.5 
L 94.140625 31.5 
L 94.140625 24.859375 
L 74.421875 24.859375 
L 74.421875 0.046875 
Q 74.421875 -11.46875 63.375 -11.46875 
Q 59.1875 -11.46875 52.640625 -11.375 
Q 52.046875 -8.0625 50.984375 -3.765625 
Q 56.84375 -4.4375 61.421875 -4.4375 
Q 67.1875 -4.4375 67.1875 1.703125 
L 67.1875 24.859375 
L 38.671875 24.859375 
L 38.671875 31.203125 
Q 42 38.28125 45.265625 46.53125 
L 36.921875 46.53125 
z
M 13.875 24.46875 
Q 23.921875 25.921875 34.671875 27.78125 
Q 34.078125 24.171875 33.796875 20.265625 
Q 25 19 4.984375 15.671875 
L 3.421875 23 
Q 10.453125 30.765625 18.359375 43.65625 
Q 10.40625 43.171875 3.421875 42.53125 
L 1.5625 49.171875 
Q 10.9375 61.96875 20.21875 83.84375 
L 27.34375 80.90625 
Q 17 60.59375 10.0625 49.75 
Q 16.84375 49.90625 22.171875 50.046875 
Q 26.078125 56.84375 30.171875 64.796875 
L 37.3125 61.1875 
Q 25.875 41.546875 13.875 24.46875 
z
M 47.078125 31.5 
L 67.1875 31.5 
L 67.1875 46.53125 
L 53.03125 46.53125 
Q 50.046875 38.8125 47.078125 31.5 
z
M 1.46875 1.90625 
Q 16.109375 4.546875 34.671875 8.734375 
Q 34.375 4.9375 34.46875 1.21875 
Q 19.234375 -1.609375 3.421875 -5.515625 
z
M 49.90625 19.875 
L 56.84375 16.65625 
Q 49.90625 3.171875 42.1875 -8.546875 
Q 39.0625 -6.203125 35.546875 -4.34375 
Q 43.953125 7.171875 49.90625 19.875 
z
M 79.59375 16.265625 
L 85.9375 19.96875 
Q 93.171875 9.03125 99.703125 -1.90625 
L 92.96875 -6.109375 
Q 86.625 5.71875 79.59375 16.265625 
z
" id="MicrosoftYaHei-7ec3"/>
     <path d="M 58.890625 79.15625 
L 93.453125 79.15625 
L 93.453125 -0.046875 
Q 93.453125 -11.578125 82.515625 -11.578125 
Q 77.046875 -11.578125 71.78125 -11.28125 
Q 71.390625 -8.0625 70.609375 -3.765625 
Q 77.734375 -4.4375 80.859375 -4.4375 
Q 86.234375 -4.4375 86.234375 0.921875 
L 86.234375 21.4375 
L 65.328125 21.4375 
Q 64.265625 0.046875 52.34375 -14.109375 
Q 49.703125 -11.375 46.484375 -8.640625 
Q 54.390625 0.4375 56.546875 10.203125 
Q 58.890625 19.578125 58.890625 42.828125 
z
M 1.953125 17.828125 
L 11.140625 17.828125 
L 11.140625 62.9375 
L 3.125 62.9375 
L 3.125 69.578125 
L 11.140625 69.578125 
L 11.140625 81.5 
L 18.359375 81.5 
L 18.359375 69.578125 
L 38.671875 69.578125 
L 38.671875 81.890625 
L 45.90625 81.890625 
L 45.90625 69.578125 
L 53.8125 69.578125 
L 53.8125 62.9375 
L 45.90625 62.9375 
L 45.90625 17.828125 
L 53.71875 17.828125 
L 53.71875 11.1875 
L 1.953125 11.1875 
z
M 65.765625 27.875 
L 86.234375 27.875 
L 86.234375 47.015625 
L 66.109375 47.015625 
Q 66.21875 34.421875 65.765625 27.875 
z
M 86.234375 72.515625 
L 66.109375 72.515625 
L 66.109375 53.46875 
L 86.234375 53.46875 
z
M 18.359375 17.828125 
L 38.671875 17.828125 
L 38.671875 28.765625 
L 18.359375 28.765625 
z
M 18.359375 35.015625 
L 38.671875 35.015625 
L 38.671875 45.84375 
L 18.359375 45.84375 
z
M 18.359375 52.09375 
L 38.671875 52.09375 
L 38.671875 62.9375 
L 18.359375 62.9375 
z
M 18.359375 9.328125 
L 24.3125 4.640625 
Q 14.453125 -6 6.34375 -13.234375 
Q 4.296875 -10.890625 1.171875 -8.0625 
Q 10.453125 -0.140625 18.359375 9.328125 
z
M 31.15625 4.734375 
L 35.84375 9.515625 
Q 42.671875 4.4375 48.734375 -0.734375 
L 43.5625 -6.296875 
Q 38.09375 -0.828125 31.15625 4.734375 
z
" id="MicrosoftYaHei-671f"/>
    </defs>
    <g transform="translate(331.671305 119.223733)scale(0.15 -0.15)">
     <use xlink:href="#MicrosoftYaHei-8bad"/>
     <use x="100" xlink:href="#MicrosoftYaHei-7ec3"/>
     <use x="200" xlink:href="#MicrosoftYaHei-671f"/>
    </g>
   </g>
   <g id="text_17">
    <!-- 预测期 -->
    <defs>
     <path d="M 8.296875 60.5 
L 13.1875 64.796875 
Q 16.703125 61.671875 19.921875 58.546875 
L 30.28125 71.140625 
L 2.734375 71.140625 
L 2.734375 77.984375 
L 39.265625 77.984375 
L 39.265625 71.140625 
L 24.8125 53.65625 
Q 26.46875 51.90625 28.03125 50.25 
L 24.125 46.828125 
L 41.890625 46.828125 
L 41.890625 40.28125 
Q 40.328125 32.765625 37.015625 22.90625 
Q 33.984375 23.96875 30.28125 25.140625 
Q 32.71875 31.296875 34.578125 39.984375 
L 24.8125 39.984375 
L 24.8125 -1.125 
Q 24.8125 -12.25 13.875 -12.25 
L 3.515625 -12.25 
Q 3.03125 -8.734375 2.15625 -4.34375 
Q 7.03125 -4.9375 12.015625 -4.9375 
Q 17.484375 -4.9375 17.484375 1.3125 
L 17.484375 39.984375 
L 1.765625 39.984375 
L 1.765625 46.828125 
L 21 46.828125 
Q 14.65625 54.4375 8.296875 60.5 
z
M 46.390625 58.0625 
L 62.890625 58.0625 
L 65.328125 71.4375 
L 42.875 71.4375 
L 42.875 78.265625 
L 98.34375 78.265625 
L 98.34375 71.4375 
L 73.25 71.4375 
L 70.40625 58.0625 
L 93.84375 58.0625 
L 93.84375 10.015625 
L 86.71875 10.015625 
L 86.71875 51.3125 
L 53.515625 51.3125 
L 53.515625 10.015625 
L 46.390625 10.015625 
z
M 66.3125 47.3125 
L 73.53125 47.3125 
L 73.53125 32.765625 
Q 73.53125 21.34375 70.609375 13.140625 
Q 85.9375 2.875 98.53125 -6.890625 
L 93.171875 -13.234375 
Q 81.25 -3.078125 67.578125 6.6875 
Q 66.609375 5.21875 65.625 3.859375 
Q 57.71875 -6.203125 40.828125 -14.015625 
Q 37.703125 -10.015625 35.359375 -7.5625 
Q 52.828125 -0.34375 59.859375 8.9375 
Q 66.3125 17.328125 66.3125 33.25 
z
" id="MicrosoftYaHei-9884"/>
     <path d="M 13.671875 27.390625 
Q 18.359375 24.953125 21.390625 23.78125 
Q 14.84375 -0.640625 11.921875 -12.25 
L 3.90625 -8.546875 
Q 9.671875 7.765625 13.671875 27.390625 
z
M 9.96875 80.71875 
Q 15.921875 75.734375 24.8125 67.234375 
Q 21.578125 64.109375 18.953125 61.375 
Q 11.8125 69.28125 4.890625 75.828125 
z
M 5.5625 55.609375 
Q 13.765625 48.96875 21.09375 42.4375 
Q 18.5625 39.796875 15.4375 36.28125 
Q 6.640625 44.96875 0.78125 50.25 
z
M 87.109375 82.5625 
L 94.234375 82.5625 
L 94.234375 -0.53125 
Q 94.234375 -11.765625 83.40625 -11.765625 
Q 78.71875 -11.765625 72.265625 -11.578125 
Q 71.875 -7.953125 70.90625 -3.5625 
Q 77.15625 -4.25 81.546875 -4.25 
Q 87.109375 -4.25 87.109375 1.3125 
z
M 78.71875 9.90625 
L 71.875 9.90625 
L 71.875 74.65625 
L 78.71875 74.65625 
z
M 26.65625 77.203125 
L 63.484375 77.203125 
L 63.484375 15.484375 
L 56.453125 15.484375 
L 56.453125 70.359375 
L 33.6875 70.359375 
L 33.6875 15.484375 
L 26.65625 15.484375 
z
M 41.890625 61.96875 
L 49.03125 61.96875 
L 49.03125 37.75 
Q 49.03125 22.90625 46.296875 13.921875 
Q 58.984375 4.15625 68.359375 -3.65625 
L 63.09375 -9.625 
Q 55.28125 -2.203125 43.75 7.375 
Q 37.703125 -4.640625 21.96875 -13.8125 
Q 19.828125 -10.6875 17.1875 -7.5625 
Q 31.734375 0.828125 37.109375 11.078125 
Q 41.890625 19.96875 41.890625 37.546875 
z
" id="MicrosoftYaHei-6d4b"/>
    </defs>
    <g transform="translate(724.491752 119.223733)scale(0.15 -0.15)">
     <use xlink:href="#MicrosoftYaHei-9884"/>
     <use x="100" xlink:href="#MicrosoftYaHei-6d4b"/>
     <use x="200" xlink:href="#MicrosoftYaHei-671f"/>
    </g>
   </g>
   <g id="legend_1">
    <g id="line2d_34">
     <path d="M 82.535 474.5945 
L 114.535 474.5945 
" style="fill:none;stroke:#000000;stroke-linecap:square;stroke-width:2.8;"/>
    </g>
    <g id="line2d_35"/>
    <g id="text_18">
     <!-- 真实值 -->
     <defs>
      <path d="M 2.4375 12.15625 
L 16.5 12.15625 
L 16.5 62.15625 
L 45.21875 62.15625 
L 45.21875 69.1875 
L 3.90625 69.1875 
L 3.90625 75.4375 
L 45.21875 75.4375 
L 45.21875 83.25 
L 52.828125 83.25 
L 52.828125 75.4375 
L 96 75.4375 
L 96 69.1875 
L 52.828125 69.1875 
L 52.828125 62.15625 
L 83.5 62.15625 
L 83.5 12.15625 
L 97.859375 12.15625 
L 97.859375 5.90625 
L 2.4375 5.90625 
z
M 23.921875 12.15625 
L 76.078125 12.15625 
L 76.078125 18.890625 
L 23.921875 18.890625 
z
M 76.078125 56.109375 
L 23.921875 56.109375 
L 23.921875 49.46875 
L 76.078125 49.46875 
z
M 23.921875 37.0625 
L 76.078125 37.0625 
L 76.078125 43.703125 
L 23.921875 43.703125 
z
M 23.921875 24.65625 
L 76.078125 24.65625 
L 76.078125 31.296875 
L 23.921875 31.296875 
z
M 58.5 -1.125 
L 62.109375 4.9375 
Q 76.953125 0.4375 96.390625 -6.5 
L 92.875 -13.421875 
Q 75.296875 -6.59375 58.5 -1.125 
z
M 37.015625 5.21875 
L 41.609375 -0.640625 
Q 25.875 -7.859375 7.515625 -13.921875 
Q 6.0625 -10.796875 4 -7.078125 
Q 19.046875 -2.6875 37.015625 5.21875 
z
" id="MicrosoftYaHei-771f"/>
      <path d="M 1.765625 -6.203125 
Q 37.796875 0.53125 48.140625 15.1875 
L 3.328125 15.1875 
L 3.328125 22.40625 
L 51.765625 22.40625 
Q 55.078125 32.5625 54.78125 57.859375 
L 62.984375 57.859375 
Q 62.984375 32.765625 60.25 22.40625 
L 97.265625 22.40625 
L 97.265625 15.1875 
L 57.515625 15.1875 
Q 56.734375 13.625 55.671875 11.859375 
Q 76.5625 3.078125 96.578125 -6.296875 
L 92.28125 -13.71875 
Q 71.390625 -3.078125 50.984375 6.109375 
Q 37.703125 -6.890625 6.453125 -13.921875 
Q 4.203125 -9.625 1.765625 -6.203125 
z
M 5.171875 69.09375 
L 49.90625 69.09375 
Q 47.46875 73.484375 43.359375 79.34375 
L 50.484375 83.34375 
Q 53.71875 79.046875 58.296875 72.015625 
L 52.9375 69.09375 
L 94.734375 69.09375 
L 94.734375 51.609375 
L 86.921875 51.609375 
L 86.921875 61.859375 
L 12.984375 61.859375 
L 12.984375 51.609375 
L 5.171875 51.609375 
z
M 17.1875 42.71875 
Q 28.421875 37.640625 38.28125 32.078125 
L 34.078125 25.34375 
Q 24.3125 31.296875 13.484375 36.46875 
z
M 25.984375 57.671875 
Q 37.3125 52.203125 46.578125 46.625 
L 42.1875 39.984375 
Q 33.109375 45.84375 22.171875 51.90625 
z
" id="MicrosoftYaHei-5b9e"/>
      <path d="M 25.296875 -3.375 
L 35.15625 -3.375 
L 35.15625 57.078125 
L 58.203125 57.078125 
L 58.203125 65.96875 
L 29.890625 65.96875 
L 29.890625 72.609375 
L 58.203125 72.609375 
L 58.203125 82.953125 
L 65.625 82.953125 
L 65.625 72.609375 
L 96.390625 72.609375 
L 96.390625 65.96875 
L 65.625 65.96875 
L 65.625 57.078125 
L 89.265625 57.078125 
L 89.265625 -3.375 
L 98.53125 -3.375 
L 98.53125 -10.015625 
L 25.296875 -10.015625 
z
M 1.078125 35.109375 
Q 14.15625 54.640625 21.390625 82.46875 
L 28.609375 80.328125 
Q 24.703125 67.71875 20.125 56.6875 
L 20.125 -12.75 
L 12.984375 -12.75 
L 12.984375 41.65625 
Q 8.796875 33.84375 4.109375 27.09375 
Q 2.734375 31.203125 1.078125 35.109375 
z
M 42.390625 -3.375 
L 82.03125 -3.375 
L 82.03125 5.515625 
L 42.390625 5.515625 
z
M 82.03125 50.640625 
L 42.390625 50.640625 
L 42.390625 41.84375 
L 82.03125 41.84375 
z
M 42.390625 26.8125 
L 82.03125 26.8125 
L 82.03125 35.59375 
L 42.390625 35.59375 
z
M 42.390625 11.765625 
L 82.03125 11.765625 
L 82.03125 20.5625 
L 42.390625 20.5625 
z
" id="MicrosoftYaHei-503c"/>
     </defs>
     <g transform="translate(127.335 480.1945)scale(0.16 -0.16)">
      <use xlink:href="#MicrosoftYaHei-771f"/>
      <use x="100" xlink:href="#MicrosoftYaHei-5b9e"/>
      <use x="200" xlink:href="#MicrosoftYaHei-503c"/>
     </g>
    </g>
    <g id="line2d_36">
     <path d="M 207.335 474.5945 
L 239.335 474.5945 
" style="fill:none;stroke:#000000;stroke-dasharray:17.92,4.48,2.8,4.48;stroke-dashoffset:0;stroke-width:2.8;"/>
    </g>
    <g id="line2d_37"/>
    <g id="text_19">
     <!-- 模型值 -->
     <defs>
      <path d="M 32.03125 15.375 
L 60.296875 15.375 
Q 60.9375 18.953125 61.140625 24.171875 
L 46.09375 24.171875 
L 46.09375 21.4375 
L 39.0625 21.4375 
L 39.0625 56.78125 
L 91.3125 56.78125 
L 91.3125 21.4375 
L 84.28125 21.4375 
L 84.28125 24.171875 
L 67.875 24.171875 
Q 67.578125 18.796875 67 15.375 
L 97.65625 15.375 
L 97.65625 9.125 
L 70.703125 9.125 
Q 81.296875 -2.734375 98.734375 -5.328125 
Q 96 -8.9375 93.953125 -12.640625 
Q 75.046875 -7.125 64.5 7.28125 
Q 57.515625 -6.734375 32.421875 -13.234375 
Q 30.765625 -9.8125 28.609375 -6.5 
Q 51.609375 -1.65625 58.015625 9.125 
L 32.03125 9.125 
z
M 0.984375 22.015625 
Q 9.421875 36.1875 14.40625 54.828125 
L 2.15625 54.828125 
L 2.15625 61.28125 
L 15.71875 61.28125 
L 15.71875 82.953125 
L 22.5625 82.953125 
L 22.5625 61.28125 
L 35.25 61.28125 
L 35.25 54.828125 
L 22.5625 54.828125 
L 22.5625 41.9375 
L 26.375 45.0625 
Q 31.9375 39.109375 36.71875 33.0625 
L 31.34375 28.5625 
Q 26.859375 35.0625 22.5625 40.046875 
L 22.5625 -12.84375 
L 15.71875 -12.84375 
L 15.71875 40.328125 
Q 10.5 22.46875 4.296875 13.421875 
Q 2.9375 17.625 0.984375 22.015625 
z
M 73.640625 82.859375 
L 80.46875 82.859375 
L 80.46875 73.484375 
L 97.265625 73.484375 
L 97.265625 67.234375 
L 80.46875 67.234375 
L 80.46875 59.328125 
L 73.640625 59.328125 
L 73.640625 67.234375 
L 56.25 67.234375 
L 56.25 59.328125 
L 49.421875 59.328125 
L 49.421875 67.234375 
L 33.984375 67.234375 
L 33.984375 73.484375 
L 49.421875 73.484375 
L 49.421875 82.953125 
L 56.25 82.953125 
L 56.25 73.484375 
L 73.640625 73.484375 
z
M 84.28125 50.734375 
L 46.09375 50.734375 
L 46.09375 43.40625 
L 84.28125 43.40625 
z
M 46.09375 30.21875 
L 84.28125 30.21875 
L 84.28125 37.546875 
L 46.09375 37.546875 
z
" id="MicrosoftYaHei-6a21"/>
      <path d="M 2.34375 54.734375 
L 17.1875 54.734375 
Q 17.28125 56.84375 17.28125 71.046875 
L 6.453125 71.046875 
L 6.453125 77.484375 
L 57.421875 77.484375 
L 57.421875 71.046875 
L 46.78125 71.046875 
L 46.78125 54.734375 
L 60.640625 54.734375 
L 60.640625 48.296875 
L 46.78125 48.296875 
L 46.78125 27.296875 
L 39.65625 27.296875 
L 39.65625 48.296875 
L 23.875 48.296875 
Q 22.65625 34.234375 9.96875 23.96875 
Q 7.421875 26.8125 4.59375 29.640625 
Q 15.828125 38.328125 16.65625 48.296875 
L 2.34375 48.296875 
z
M 2.15625 -1.609375 
L 45.90625 -1.609375 
L 45.90625 11.578125 
L 11.03125 11.578125 
L 11.03125 18.3125 
L 45.90625 18.3125 
L 45.90625 25.921875 
L 53.515625 25.921875 
L 53.515625 18.3125 
L 89.265625 18.3125 
L 89.265625 11.578125 
L 53.515625 11.578125 
L 53.515625 -1.609375 
L 97.75 -1.609375 
L 97.75 -8.34375 
L 2.15625 -8.34375 
z
M 91.5 81.390625 
L 91.5 36.46875 
Q 91.5 26.125 81.25 25.921875 
Q 75.390625 25.734375 67.671875 25.921875 
Q 67.28125 29.640625 66.5 33.640625 
Q 74.703125 33.15625 78.8125 33.15625 
Q 84.375 33.15625 84.375 39.3125 
L 84.375 81.390625 
z
M 24.3125 54.734375 
L 39.65625 54.734375 
L 39.65625 71.046875 
L 24.421875 71.046875 
Q 24.421875 59.234375 24.3125 54.734375 
z
M 64.65625 75.921875 
L 71.6875 75.921875 
L 71.6875 42.140625 
L 64.65625 42.140625 
z
" id="MicrosoftYaHei-578b"/>
     </defs>
     <g transform="translate(252.135 480.1945)scale(0.16 -0.16)">
      <use xlink:href="#MicrosoftYaHei-6a21"/>
      <use x="100" xlink:href="#MicrosoftYaHei-578b"/>
      <use x="200" xlink:href="#MicrosoftYaHei-503c"/>
     </g>
    </g>
   </g>
  </g>
 </g>
 <defs>
  <clipPath id="pd6e6c6b830">
   <rect height="487.872" width="714.24" x="68.135" y="10.7"/>
  </clipPath>
 </defs>
</svg>
